<?xml version="1.0" encoding="UTF-8" standalone="no"?>
<!-- Created with Inkscape (http://www.inkscape.org/) -->

<svg
   width="210mm"
   height="297mm"
   viewBox="0 0 210 297"
   version="1.1"
   id="svg1632"
   xml:space="preserve"
   inkscape:version="1.2.2 (732a01da63, 2022-12-09)"
   sodipodi:docname="Logo knowty.svg"
   inkscape:export-filename="Logo knowty.png"
   inkscape:export-xdpi="96"
   inkscape:export-ydpi="96"
   xmlns:inkscape="http://www.inkscape.org/namespaces/inkscape"
   xmlns:sodipodi="http://sodipodi.sourceforge.net/DTD/sodipodi-0.dtd"
   xmlns="http://www.w3.org/2000/svg"
   xmlns:svg="http://www.w3.org/2000/svg"><sodipodi:namedview
     id="namedview1634"
     pagecolor="#ffffff"
     bordercolor="#000000"
     borderopacity="0.25"
     inkscape:showpageshadow="2"
     inkscape:pageopacity="0.0"
     inkscape:pagecheckerboard="0"
     inkscape:deskcolor="#d1d1d1"
     inkscape:document-units="mm"
     showgrid="false"
     inkscape:zoom="1.0129245"
     inkscape:cx="359.84912"
     inkscape:cy="510.8969"
     inkscape:window-width="1920"
     inkscape:window-height="991"
     inkscape:window-x="1691"
     inkscape:window-y="-9"
     inkscape:window-maximized="1"
     inkscape:current-layer="layer1" /><defs
     id="defs1629" /><g
     inkscape:label="Capa 1"
     inkscape:groupmode="layer"
     id="layer1"><path
       style="fill:#f6f6f6;fill-opacity:1;stroke:none;stroke-width:0.427136;stroke-linecap:round;stroke-linejoin:round;paint-order:stroke markers fill"
       d="m 100.84202,200.10368 c 8.10035,-7.02166 2.50148,-0.63472 7.96205,-4.25533 23.06024,-15.56709 43.61494,-30.51021 72.8453,-50.19713 4.87119,-3.69946 13.774,-4.14228 14.89461,15.42082 -17.74257,13.91028 -36.35148,25.93425 -53.28271,36.72667 -1.90131,0.007 0.53959,-2.90013 -0.76417,-4.52748 -1.69971,-2.1216 -2.45521,-1.06635 -3.86567,-1.06444 -1.077,0.002 0.11677,-0.22537 -3.70167,1.9357 -5.80643,3.2862 -4.82246,2.60491 -4.57899,6.29112 0.0669,1.01318 -0.61824,2.46503 -0.59026,3.66899 l 0.16356,2.16092 -6.77707,4.08995 c -3.49424,2.10877 -8.05936,-0.96752 -10.10527,-2.2699 -3.75909,-2.39297 -7.36026,-4.75506 -12.19971,-7.97989 z"
       id="path12091"
       sodipodi:nodetypes="cccccscssscssc" /><path
       style="fill:#c1c1c1;fill-opacity:0.239617;stroke:none;stroke-width:0.393857;stroke-linecap:round;stroke-linejoin:round;paint-order:stroke markers fill"
       d="m 196.07645,154.81 c -2.62891,7.32826 -51.94567,36.6828 -73.39185,50.67424 -4.54432,3.34077 -12.75887,3.621 -13.51069,-14.43184 16.55829,-12.56978 33.88819,-23.38796 49.6536,-33.09482 1.75307,0.0208 -0.5392,2.66609 0.63944,4.18522 1.53657,1.98051 2.2483,1.01847 3.54875,1.037 0.993,0.0136 -0.63332,-2.99369 2.91828,-4.93123 5.40065,-2.94628 5.00607,0.86749 4.83461,-2.53461 -0.0469,-0.93511 0.60545,-2.26381 0.59698,-3.37424 l -0.11971,-1.99467 11.27005,-7.33028 c 7.40926,-1.38882 13.25691,5.215 13.56054,11.79523 z"
       id="path12091-8"
       sodipodi:nodetypes="ccccscsssccc" /><path
       style="fill:#e9e9e9;fill-opacity:1;stroke:none;stroke-width:0.0755076;stroke-linecap:round;stroke-linejoin:round;paint-order:stroke markers fill"
       d="m 127.99329,207.228 c 0,-0.0226 -0.34385,-2.04421 -0.76411,-4.49238 l -0.7641,-4.4512 c -0.0477,-0.30272 -0.11725,-0.59068 -0.13483,-0.84957 -0.11355,-0.68793 -0.14059,-0.7572 -0.2916,-1.88586 -0.2556,-1.91029 -0.35649,-3.66831 -0.28794,-5.01707 0.0603,-1.18641 0.11277,-1.67202 0.19575,-1.8119 0.22947,-0.38679 0.73322,-0.86689 1.61445,-1.53866 0.99747,-0.76039 1.65473,-1.17898 3.56089,-2.26784 2.61192,-1.49201 3.30335,-1.84167 4.62089,-2.33675 0.7776,-0.29219 1.4252,-0.48749 2.09286,-0.24574 1.11284,0.40293 1.71559,1.28932 1.93539,1.53121 0.31394,0.34552 0.39534,0.4527 0.72973,0.85589 0.66015,0.79595 0.69177,0.972 0.88164,1.71675 0.20991,0.82335 0.47852,2.1476 0.59971,3.91109 0.053,0.77111 0.0742,1.52669 0.16876,6.00643 0.0378,1.79052 0.10188,2.99843 0.2039,3.84259 0.0303,0.25125 0.05,0.46217 0.0437,0.4687 -0.006,0.007 -0.55505,-0.014 -1.21928,-0.0456 -0.66424,-0.0317 -2.12894,-0.10016 -3.25489,-0.15222 l -2.04718,-0.0947 -0.20685,0.18362 c -0.11377,0.101 -1.84987,1.61797 -3.85802,3.37106 -2.00813,1.75308 -3.68887,3.2225 -3.73498,3.26537 -0.0461,0.0428 -0.0838,0.0594 -0.0838,0.0368 z"
       id="path16520-8"
       sodipodi:nodetypes="ssccsssssssssssssssscsssss" /><path
       style="fill:#034663;fill-opacity:1;stroke:none;stroke-width:0.427136;stroke-linecap:round;stroke-linejoin:round;paint-order:stroke markers fill"
       d="m 33.702656,160.52476 c -5.421781,-4.42624 -2.144496,-17.47631 7.225141,-23.15765 9.251145,-5.83054 9.325432,-5.37825 24.828909,-13.18352 l 16.342152,16.19265 c 12.493282,12.379 32.764972,21.0071 33.346422,20.80807 0.11439,-0.0392 2.06139,2.1015 2.45912,2.47561 1.03504,0.97351 -5.37013,9.05224 -4.11789,9.16285 1.8439,0.16286 3.03968,-0.37408 7.9978,-3.5913 4.74535,-3.07914 28.84677,-21.78632 36.52329,-26.89327 2.36046,-1.57035 9.99742,-11.20677 11.37736,-12.07863 6.0227,5.2832 14.59323,8.18181 21.48244,13.98607 -27.44849,18.30984 -52.80125,34.20509 -79.53754,51.81913 -1.10465,1.777 -1.22454,2.37552 -1.16571,5.19787 0.0503,2.40983 0.91958,4.29458 2.87553,7.64147 C 80.145117,186.88263 62.808535,179.95897 33.702656,160.52476 Z"
       id="path12089"
       sodipodi:nodetypes="cccsssssscccscc" /><path
       style="fill:#f7f7f7;fill-opacity:1;stroke:none;stroke-width:0.427136;stroke-linecap:round;stroke-linejoin:round;paint-order:stroke markers fill"
       d="m 112.70987,172.5796 c -1.15256,-0.39205 -1.95599,-0.8426 -2.94412,-1.651 -0.69341,-0.5673 -1.07885,-0.92409 -1.0402,-1.49543 0.0256,-0.37911 0.18233,-2.24179 0.29989,-4.25501 0.24325,-4.16558 -0.0643,-5.97389 0.87341,-7.99147 0.82392,-1.77273 2.7219,-3.56152 4.34386,-4.9311 0.53607,-0.45267 2.86323,-1.47276 3.10751,-1.7188 0.24428,-0.24604 10.25483,-6.16715 22.02029,-13.58788 11.76545,-7.42071 32.05317,-22.83187 32.76195,-22.91038 4.4606,1.83939 6.84618,4.64321 7.70498,7.04504 0.43164,4.85083 0.0549,10.41597 -4.13425,12.97131 -8.94042,5.45349 -22.60568,14.48522 -29.79211,19.24143 -15.09237,9.98862 -28.00083,18.44352 -28.68948,18.78232 -1.47033,0.72337 -3.27036,0.92324 -4.51173,0.50097 z"
       id="path2217"
       sodipodi:nodetypes="ssssssssccscsss"
       inkscape:export-filename="Logo knowty.png"
       inkscape:export-xdpi="96"
       inkscape:export-ydpi="96" /><path
       style="fill:#b3b3b3;fill-opacity:0.205882;stroke:none;stroke-width:0.396134;stroke-linecap:round;stroke-linejoin:round;paint-order:stroke markers fill"
       d="m 109.48655,167.08735 c -1.06891,-0.36359 -1.81402,-0.78144 -2.73043,-1.53117 -0.64308,-0.52612 -1.00055,-0.85701 -0.9647,-1.38688 0.0237,-0.3516 0.16909,-2.07908 0.27812,-3.94618 0.2256,-3.86323 -0.0596,-5.54029 0.81002,-7.41143 0.76412,-1.64406 2.52434,-3.30302 4.02857,-4.57319 0.49716,-0.41982 2.65541,-1.36587 2.88196,-1.59405 0.22655,-0.22818 9.51052,-5.71953 20.42202,-12.60165 10.91149,-6.8821 29.72669,-21.17468 30.38403,-21.24749 11.22882,3.02576 11.61132,13.30462 3.31156,18.56352 -8.05659,5.42406 -20.96492,13.43385 -27.62975,17.84485 -13.99693,9.26363 -25.96847,17.10485 -26.60714,17.41906 -1.36361,0.67087 -3.03299,0.85623 -4.18426,0.46461 z"
       id="path2217-3"
       sodipodi:nodetypes="sssssssscccss"
       inkscape:export-filename="Logo knowty.png"
       inkscape:export-xdpi="96"
       inkscape:export-ydpi="96" /><path
       style="fill:#fafafa;fill-opacity:1;stroke:none;stroke-width:0.427136;stroke-linecap:round;stroke-linejoin:round;paint-order:stroke markers fill"
       d="M 81.782974,129.17322 C 62.946659,117.46025 47.988126,107.45693 47.448927,107.13064 l -1.297046,-0.84192 31.80859,-20.311543 C 95.399873,74.841151 109.93294,65.46581 110.07631,65.47876 c 0.41867,0.03781 66.77165,41.4681 67.4919,41.98284 0.43084,0.3079 1.00445,0.64959 1.63539,1.50747 0.50008,0.80601 0.41326,1.35806 -0.30895,2.29234 -0.59882,0.92336 -0.86039,-0.3201 -30.17197,19.75146 -15.98438,10.94556 -31.40494,19.75011 -31.48812,19.7376 -0.0832,-0.0125 -16.61527,-9.86429 -35.451586,-21.57725 z"
       id="path2215"
       sodipodi:nodetypes="sscsssccsss" /><path
       style="fill:#efefef;fill-opacity:1;stroke:none;stroke-width:0.427136;stroke-linecap:round;stroke-linejoin:round;paint-order:stroke markers fill"
       d="M 106.38719,169.00446 C 104.00332,167.75767 93.504712,161.87256 79.726554,153.7133 55.45653,139.34089 43.712576,131.75873 40.870341,128.03035 c -1.344994,-1.76433 -2.890718,-6.04536 -2.980295,-8.64597 -0.107755,-3.12828 0.9238,-5.81483 2.874347,-8.13201 1.348871,-1.60241 5.162085,-5.09198 5.521566,-4.95033 0.323567,0.1275 70.638101,44.05778 71.007801,44.36037 0.19657,0.16088 -0.75617,0.49643 -1.73372,1.07714 -0.72545,0.43095 -2.21912,1.62695 -3.04755,2.56928 -2.49463,2.8376 -3.23172,4.71152 -3.44095,11.15837 -0.0655,2.01808 -0.23972,4.54465 -0.26585,4.75116 -0.0391,0.30916 -0.71494,-0.32292 -2.4185,-1.2139 z"
       id="path2213"
       sodipodi:nodetypes="ssssssssssss" /><path
       style="fill:#cbcbcb;fill-opacity:0.0837104;stroke:none;stroke-width:0.385694;stroke-linecap:round;stroke-linejoin:round;paint-order:stroke markers fill"
       d="m 99.833448,162.79638 c -2.152594,-1.12584 -11.6326,-6.43995 -24.073965,-13.80757 -21.915285,-12.97797 -32.51981,-19.82451 -35.086284,-23.19115 -1.214499,-1.59314 -2.610253,-5.45882 -2.691141,-7.8071 -0.09731,-2.82478 0.834172,-5.25067 2.595472,-7.34303 1.218,-1.44694 4.661246,-4.59794 4.985849,-4.47004 0.292175,0.11516 63.784621,39.78319 64.118471,40.05642 0.17749,0.14528 -0.68281,0.44827 -1.56551,0.97263 -0.65508,0.38914 -2.00382,1.4691 -2.75187,2.32 -2.25261,2.5623 -2.91818,4.2544 -3.10711,10.07577 -0.0592,1.82227 -0.21646,4.10371 -0.24006,4.29018 -0.0353,0.27917 -0.64558,-0.29159 -2.183852,-1.09611 z"
       id="path2213-4"
       sodipodi:nodetypes="ssssssssssss" /><path
       style="fill:#000000;fill-opacity:1;stroke-width:0.179512"
       d="m 110.40222,123.4134 c -0.48936,-0.5025 -0.30811,-0.79092 1.06039,-1.68739 l 1.33877,-0.877 -10.06332,-6.39988 c -5.53483,-3.51994 -10.322406,-6.57029 -10.639056,-6.77856 l -0.57573,-0.37867 v 0.46037 c 0,0.48631 -0.443656,0.75978 -0.924936,0.57013 -0.146436,-0.0577 -0.455266,-0.67502 -0.686276,-1.3718 -0.551872,-1.66455 -0.432748,-1.87734 1.09272,-1.952 1.512067,-0.074 1.935673,0.0503 1.935673,0.56799 0,0.22821 -0.07617,0.49311 -0.169197,0.58866 -0.107497,0.1104 0.780728,0.77939 2.435793,1.83461 l 2.604982,1.66085 0.797171,-0.46943 c 1.498746,-0.88257 1.755356,-0.9614 3.924516,-1.20563 2.53341,-0.28524 2.58805,-0.32602 3.54882,-2.649 0.85347,-2.06357 0.86812,-3.22926 0.0719,-5.7203 -0.86321,-2.700594 -0.855,-3.57179 0.0515,-5.4766 0.76455,-1.606382 1.76367,-2.720875 2.68787,-2.998233 0.33546,-0.100674 1.68611,-0.305006 3.00143,-0.454066 1.31533,-0.14906 2.60309,-0.358694 2.86169,-0.465848 0.30155,-0.124958 0.6706,-0.580955 1.02899,-1.271425 0.59059,-1.137816 1.11903,-1.399979 1.60642,-0.796935 0.33346,0.41259 -0.41959,1.948141 -1.382,2.818037 -0.7669,0.693187 -1.66622,0.963287 -3.75723,1.128429 l -0.61645,0.04872 1.23647,0.738707 c 0.68006,0.406285 5.88692,3.542361 11.57079,6.969059 5.68388,3.426695 10.5104,6.312735 10.72559,6.413425 0.32574,0.1524 0.61102,0.0439 1.70361,-0.6478 1.17773,-0.74563 1.25777,-0.83086 0.7802,-0.83086 -0.60035,0 -0.95731,-0.2825 -0.95731,-0.75761 0,-0.46019 0.4082,-0.6171 2.26497,-0.87061 2.17963,-0.2976 2.241,-0.24783 2.11488,1.71511 -0.10953,1.70465 -0.21471,2.04191 -0.6846,2.19505 -0.4774,0.1556 -0.86088,-0.22258 -0.86088,-0.84895 0,-0.2879 -0.0325,-0.52346 -0.0722,-0.52346 -0.13055,0 -17.36015,10.94317 -18.07608,11.4808 -0.38456,0.28879 -0.75556,0.52507 -0.82445,0.52507 -0.16238,0 -4.42529,2.70055 -4.73736,3.00111 -0.19536,0.18817 -0.013,0.37154 1.0186,1.02431 1.29869,0.82178 1.61717,1.25849 1.24952,1.71338 -0.35015,0.43324 -0.73111,0.31427 -2.36329,-0.73803 l -1.5544,-1.00217 -1.61113,1.00217 c -0.88611,0.55119 -1.6714,1.00216 -1.74508,1.00216 -0.0737,0 -0.25924,-0.12863 -0.41234,-0.28585 z m 6.36041,-5.03492 c 1.31193,-0.8254 2.38454,-1.54166 2.38357,-1.59169 -0.002,-0.10263 -12.29829,-8.78631 -12.58551,-8.88792 -0.10173,-0.0359 -0.30307,0.10774 -0.44744,0.31938 -0.45234,0.66316 -1.259,0.9425 -3.42647,1.18653 -2.02208,0.22767 -3.247485,0.64378 -3.242265,1.10095 0.0024,0.20885 14.384705,9.37348 14.710075,9.37348 0.1225,0 1.29612,-0.67533 2.60804,-1.50073 z m 10.71493,-6.80467 c 4.96802,-3.15345 6.49468,-4.20475 6.33234,-4.36062 -0.2165,-0.20789 -23.01443,-13.978506 -24.16038,-14.59358 -0.32521,-0.174546 -0.46997,-0.134279 -0.92234,0.256587 -0.68709,0.593681 -1.63514,2.292295 -1.80183,3.228332 -0.10345,0.580947 0.0115,1.201737 0.57606,3.109447 0.62735,2.120074 0.69585,2.534404 0.61966,3.747884 -0.058,0.92457 -0.23516,1.71045 -0.5495,2.43823 -0.25511,0.59066 -0.44288,1.09009 -0.41726,1.10983 0.0257,0.0197 1.99964,1.41377 4.38672,3.09782 2.38707,1.68405 5.33659,3.77844 6.55449,4.65417 1.25007,0.89888 2.34966,1.56502 2.52507,1.5297 0.1709,-0.0344 3.25653,-1.93243 6.85697,-4.2178 z M 98.372489,95.215676 c -0.832414,-0.562271 -1.319664,-0.782593 -1.558541,-0.704737 -0.425486,0.138663 -0.86197,-0.20279 -0.86197,-0.674305 0,-0.192028 -0.159434,-0.524872 -0.354297,-0.739651 -0.654923,-0.721863 -0.409559,-1.669483 0.597806,-2.308791 1.00529,-0.637991 1.675632,-0.0089 0.996141,0.934877 -0.474527,0.659085 -0.312285,0.933046 0.328808,0.555221 0.825629,-0.486569 1.57622,0.126699 1.104445,0.902407 -0.119559,0.196585 -0.191926,0.372896 -0.160814,0.391803 1.935633,1.176243 2.396453,1.729509 1.881193,2.258607 -0.346542,0.355852 -0.696377,0.24671 -1.972771,-0.615431 z m 2.269651,-2.650765 c -1.127816,-1.016835 -1.812883,-3.082238 -1.22317,-3.687784 0.5959,-0.611909 1.05711,-0.24362 1.24785,0.996454 0.0958,0.622754 0.30197,0.989907 0.89351,1.591137 0.80434,0.817499 0.90967,1.093126 0.55641,1.45588 -0.35032,0.359738 -0.80191,0.250811 -1.4746,-0.355687 z m 2.43066,-1.292876 c -0.1021,-0.126334 -0.21151,-0.549181 -0.24312,-0.939666 -0.0532,-0.656765 -0.1106,-0.725143 -0.76609,-0.912341 -0.52793,-0.150767 -0.72334,-0.307964 -0.76647,-0.616557 -0.0859,-0.614933 0.2869,-0.977074 0.87042,-0.845462 0.43339,0.09774 0.497,0.05327 0.54751,-0.382863 0.13217,-1.141387 1.25351,-1.015808 1.35105,0.151314 0.0496,0.59427 0.11382,0.660113 0.82155,0.84311 0.84135,0.217546 1.0877,0.575428 0.7897,1.147203 -0.15592,0.299149 -0.31118,0.352 -0.79653,0.271119 -0.58172,-0.09694 -0.60288,-0.07979 -0.60288,0.488401 0,0.89964 -0.73104,1.38234 -1.20514,0.795742 z m 3.52207,-1.998673 c -0.0855,-0.225111 -0.24527,-0.753073 -0.35494,-1.173261 -0.12891,-0.493926 -0.3858,-0.900261 -0.72675,-1.149565 -0.70941,-0.518716 -0.96927,-1.032312 -0.69439,-1.372414 0.61959,-0.76662 2.29002,0.434894 2.7327,1.965582 0.34736,1.201124 0.34371,1.888843 -0.0108,2.028533 -0.51239,0.201904 -0.78868,0.114602 -0.94582,-0.298875 z"
       id="path2138"
       sodipodi:nodetypes="cscsscssssssscsssssssssssccssssssssssssssssscssccscssscsssssssscscsssssssssssscsssssssssssssscssssscssssscc" /><path
       style="fill:#ee0606;fill-opacity:1;stroke:none;stroke-width:0.0755076;stroke-linecap:round;stroke-linejoin:round;paint-order:stroke markers fill"
       d="m 131.19611,215.39972 c 0,-0.0226 -0.34385,-2.04421 -0.76411,-4.49238 l -0.7641,-4.4512 c -0.0477,-0.30272 -0.11725,-0.59068 -0.13483,-0.84957 -0.11355,-0.68793 -0.14059,-0.7572 -0.2916,-1.88586 -0.2556,-1.91029 -0.35649,-3.66831 -0.28794,-5.01707 0.0603,-1.18641 0.11277,-1.67202 0.19575,-1.8119 0.22947,-0.38679 0.73322,-0.86689 1.61445,-1.53866 0.99747,-0.76039 1.65473,-1.17898 3.56089,-2.26784 2.61192,-1.49201 3.30335,-1.84167 4.62089,-2.33675 0.7776,-0.29219 1.4252,-0.48749 2.09286,-0.24574 1.11284,0.40293 1.71559,1.28932 1.93539,1.53121 0.31394,0.34552 0.39534,0.4527 0.72973,0.85589 0.66015,0.79595 0.69177,0.972 0.88164,1.71675 0.20991,0.82335 0.47852,2.1476 0.59971,3.91109 0.053,0.77111 0.0742,1.52669 0.16876,6.00643 0.0378,1.79052 0.10188,2.99843 0.2039,3.84259 0.0303,0.25125 0.05,0.46217 0.0437,0.4687 -0.006,0.007 -0.55505,-0.014 -1.21928,-0.0456 -0.66424,-0.0317 -2.12894,-0.10016 -3.25489,-0.15222 l -2.04718,-0.0947 -0.20685,0.18362 c -0.11377,0.101 -1.84987,1.61797 -3.85802,3.37106 -2.00813,1.75308 -3.68887,3.2225 -3.73498,3.26537 -0.0461,0.0428 -0.0838,0.0594 -0.0838,0.0368 z"
       id="path16520"
       sodipodi:nodetypes="ssccsssssssssssssssscsssss" /></g></svg>
