<svg xmlns="http://www.w3.org/2000/svg" xmlns:xlink="http://www.w3.org/1999/xlink" width="209.296875" height="47.171875" style="width:209.296875px;height:47.171875px;font-family:Asana-Math, Asana;background:#FFF;"><g><g><g><g transform="matrix(1,0,0,1,2,31.390625)"><path transform="matrix(0.017,0,0,-0.017,0,0)" d="M446 444L371 444L238 57L93 444L14 444L208 0C164 -113 151 -148 115 -148C99 -148 67 -144 37 -132L43 -197C65 -202 93 -205 115 -205C150 -205 187 -193 228 -91Z" stroke="rgb(0,0,0)" stroke-opacity="1" stroke-width="8" fill="rgb(0,0,0)" fill-opacity="1"></path></g></g><g><g transform="matrix(1,0,0,1,19.15625,31.390625)"><path transform="matrix(0.017,0,0,-0.017,0,0)" d="M604 347L604 406L65 406L65 347ZM604 134L604 193L65 193L65 134Z" stroke="rgb(0,0,0)" stroke-opacity="1" stroke-width="8" fill="rgb(0,0,0)" fill-opacity="1"></path></g></g><g><g transform="matrix(1,0,0,1,35.609375,31.390625)"><path transform="matrix(0.017,0,0,-0.017,0,0)" d="M695 444L620 444L487 57L342 444L263 444L457 0C413 -113 400 -148 364 -148C348 -148 316 -144 286 -132L292 -197C314 -202 342 -205 364 -205C399 -205 436 -193 477 -91Z" stroke="rgb(0,0,0)" stroke-opacity="1" stroke-width="8" fill="rgb(0,0,0)" fill-opacity="1"></path></g></g><g><g><g><g><g transform="matrix(1,0,0,1,48.171875,34.4)"><path transform="matrix(0.0119,0,0,-0.0119,0,0)" d="M457 331C457 412 453 506 411 588C370 665 301 689 250 689C191 689 121 662 80 571C47 497 42 413 42 331C42 251 46 177 76 103C116 5 192 -22 249 -22C322 -22 385 19 417 89C447 155 457 223 457 331ZM250 40C198 40 157 78 137 151C121 209 120 264 120 343C120 407 120 468 137 524C143 544 168 627 249 627C327 627 353 550 360 531C379 475 379 406 379 343C379 276 379 212 361 148C335 56 282 40 250 40Z" stroke="rgb(0,0,0)" stroke-opacity="1" stroke-width="8" fill="rgb(0,0,0)" fill-opacity="1"></path></g></g></g></g></g><g><g transform="matrix(1,0,0,1,55.140625,31.390625)"><path transform="matrix(0.017,0,0,-0.017,0,0)" d="" stroke="rgb(0,0,0)" stroke-opacity="1" stroke-width="8" fill="rgb(0,0,0)" fill-opacity="1"></path></g></g><g><g transform="matrix(1,0,0,1,62.765625,31.390625)"><path transform="matrix(0.017,0,0,-0.017,0,0)" d="M604 241L604 300L364 300L364 538L305 538L305 300L65 300L65 241L305 241L305 0L364 0L364 241Z" stroke="rgb(0,0,0)" stroke-opacity="1" stroke-width="8" fill="rgb(0,0,0)" fill-opacity="1"></path></g></g><g><g transform="matrix(1,0,0,1,77.515625,31.390625)"><path transform="matrix(0.017,0,0,-0.017,0,0)" d="M695 444L620 444C568 299 477 47 481 53L480 53L341 444L263 444L435 0L523 0Z" stroke="rgb(0,0,0)" stroke-opacity="1" stroke-width="8" fill="rgb(0,0,0)" fill-opacity="1"></path></g></g><g><g><g><g><g transform="matrix(1,0,0,1,90.078125,34.4)"><path transform="matrix(0.0119,0,0,-0.0119,0,0)" d="M457 331C457 412 453 506 411 588C370 665 301 689 250 689C191 689 121 662 80 571C47 497 42 413 42 331C42 251 46 177 76 103C116 5 192 -22 249 -22C322 -22 385 19 417 89C447 155 457 223 457 331ZM250 40C198 40 157 78 137 151C121 209 120 264 120 343C120 407 120 468 137 524C143 544 168 627 249 627C327 627 353 550 360 531C379 475 379 406 379 343C379 276 379 212 361 148C335 56 282 40 250 40Z" stroke="rgb(0,0,0)" stroke-opacity="1" stroke-width="8" fill="rgb(0,0,0)" fill-opacity="1"></path></g></g></g></g></g><g><g transform="matrix(1,0,0,1,97.046875,31.390625)"><path transform="matrix(0.017,0,0,-0.017,0,0)" d="M417 267L286 213L281 204L317 153L327 153L433 241L451 99L461 95L529 121L529 131L461 253L599 233L608 241L608 303L602 307L463 283L532 408L529 423L467 442L458 438L432 295L337 393L327 393L283 341L286 331ZM1061 386L1202 386L1202 444L1061 444L1061 571L992 571L992 444L905 444L905 386L989 386L989 119C989 59 1003 -11 1072 -11C1142 -11 1193 14 1218 27L1202 86C1176 65 1144 53 1112 53C1075 53 1061 83 1061 136Z" stroke="rgb(0,0,0)" stroke-opacity="1" stroke-width="8" fill="rgb(0,0,0)" fill-opacity="1"></path></g></g><g><g transform="matrix(1,0,0,1,125.859375,31.390625)"><path transform="matrix(0.017,0,0,-0.017,0,0)" d="M555 243L555 299L51 299L51 243Z" stroke="rgb(0,0,0)" stroke-opacity="1" stroke-width="8" fill="rgb(0,0,0)" fill-opacity="1"></path></g></g><g><g transform="matrix(1,0,0,1,139.546875,31.390625)"><path transform="matrix(0.017,0,0,-0.017,0,0)" d="" stroke="rgb(0,0,0)" stroke-opacity="1" stroke-width="8" fill="rgb(0,0,0)" fill-opacity="1"></path></g></g><g><g><g><g><g transform="matrix(1,0,0,1,145.46875,19)"><path transform="matrix(0.017,0,0,-0.017,0,0)" d="M299 689L279 689C220 627 137 624 89 622L89 563C122 564 170 566 220 587L220 59L95 59L95 0L424 0L424 59L299 59Z" stroke="rgb(0,0,0)" stroke-opacity="1" stroke-width="8" fill="rgb(0,0,0)" fill-opacity="1"></path></g></g></g></g><g><g><g><g transform="matrix(1,0,0,1,145.46875,44.78125)"><path transform="matrix(0.017,0,0,-0.017,0,0)" d="M83 466C103 545 131 624 222 624C316 624 367 548 367 468C367 382 310 324 251 263L174 191L50 65L50 0L449 0L449 72L267 72C255 72 243 71 231 71L122 71C154 100 230 176 261 205C333 274 449 347 449 471C449 587 368 689 236 689C122 689 66 610 42 522C66 487 59 501 83 466Z" stroke="rgb(0,0,0)" stroke-opacity="1" stroke-width="8" fill="rgb(0,0,0)" fill-opacity="1"></path></g></g></g></g><line style="fill:none;stroke-width:1px;stroke:rgb(0, 0, 0);" x1="145.46875" y1="27.140625" x2="153.953125" y2="27.140625"></line></g><g><g transform="matrix(1,0,0,1,155.640625,31.390625)"><path transform="matrix(0.017,0,0,-0.017,0,0)" d="M417 267L286 213L281 204L317 153L327 153L433 241L451 99L461 95L529 121L529 131L461 253L599 233L608 241L608 303L602 307L463 283L532 408L529 423L467 442L458 438L432 295L337 393L327 393L283 341L286 331ZM1238 391C1260 391 1288 395 1312 395C1330 395 1369 392 1371 392L1360 455C1290 455 1232 436 1202 423C1181 440 1147 455 1107 455C1021 455 948 383 948 292C948 255 961 219 981 193C952 152 952 113 952 108C952 82 961 53 978 32C926 1 914 -45 914 -71C914 -146 1013 -206 1135 -206C1258 -206 1357 -147 1357 -70C1357 69 1190 69 1151 69L1063 69C1050 69 1005 69 1005 122C1005 133 1009 149 1016 158C1037 143 1070 129 1107 129C1197 129 1267 203 1267 292C1267 340 1245 377 1234 392ZM1107 186C1070 186 1018 209 1018 292C1018 375 1070 398 1107 398C1150 398 1197 370 1197 292C1197 214 1150 186 1107 186ZM1152 -3C1174 -3 1287 -3 1287 -72C1287 -116 1218 -149 1136 -149C1055 -149 984 -118 984 -71C984 -68 984 -3 1062 -3ZM1802 267L1671 213L1666 204L1702 153L1712 153L1818 241L1836 99L1846 95L1914 121L1914 131L1846 253L1984 233L1993 241L1993 303L1987 307L1848 283L1917 408L1914 423L1852 442L1843 438L1817 295L1722 393L1712 393L1668 341L1671 331ZM2446 386L2587 386L2587 444L2446 444L2446 571L2377 571L2377 444L2290 444L2290 386L2374 386L2374 119C2374 59 2388 -11 2457 -11C2527 -11 2578 14 2603 27L2587 86C2561 65 2529 53 2497 53C2460 53 2446 83 2446 136Z" stroke="rgb(0,0,0)" stroke-opacity="1" stroke-width="8" fill="rgb(0,0,0)" fill-opacity="1"></path></g></g><g><g><g><g><g transform="matrix(1,0,0,1,201.34375,24.68125)"><path transform="matrix(0.0119,0,0,-0.0119,0,0)" d="M83 466C103 545 131 624 222 624C316 624 367 548 367 468C367 382 310 324 251 263L174 191L50 65L50 0L449 0L449 72L267 72C255 72 243 71 231 71L122 71C154 100 230 176 261 205C333 274 449 347 449 471C449 587 368 689 236 689C122 689 66 610 42 522C66 487 59 501 83 466Z" stroke="rgb(0,0,0)" stroke-opacity="1" stroke-width="8" fill="rgb(0,0,0)" fill-opacity="1"></path></g></g></g></g></g></g></g></svg>