<svg xmlns="http://www.w3.org/2000/svg" xmlns:xlink="http://www.w3.org/1999/xlink" width="112.359375" height="26.390625" style="width:112.359375px;height:26.390625px;font-family:Asana-Math, Asana;background:#FFF;"><g><g><g><g transform="matrix(1,0,0,1,2,19)"><path transform="matrix(0.017,0,0,-0.017,0,0)" d="M446 444L371 444C319 299 228 47 232 53L231 53L92 444L14 444L186 0L274 0Z" stroke="rgb(0,0,0)" stroke-opacity="1" stroke-width="8" fill="rgb(0,0,0)" fill-opacity="1"></path></g></g><g><g transform="matrix(1,0,0,1,19.15625,19)"><path transform="matrix(0.017,0,0,-0.017,0,0)" d="M604 347L604 406L65 406L65 347ZM604 134L604 193L65 193L65 134Z" stroke="rgb(0,0,0)" stroke-opacity="1" stroke-width="8" fill="rgb(0,0,0)" fill-opacity="1"></path></g></g><g><g transform="matrix(1,0,0,1,35.609375,19)"><path transform="matrix(0.017,0,0,-0.017,0,0)" d="M695 444L620 444C568 299 477 47 481 53L480 53L341 444L263 444L435 0L523 0Z" stroke="rgb(0,0,0)" stroke-opacity="1" stroke-width="8" fill="rgb(0,0,0)" fill-opacity="1"></path></g></g><g><g><g><g><g transform="matrix(1,0,0,1,48.171875,22.009375)"><path transform="matrix(0.0119,0,0,-0.0119,0,0)" d="M457 331C457 412 453 506 411 588C370 665 301 689 250 689C191 689 121 662 80 571C47 497 42 413 42 331C42 251 46 177 76 103C116 5 192 -22 249 -22C322 -22 385 19 417 89C447 155 457 223 457 331ZM250 40C198 40 157 78 137 151C121 209 120 264 120 343C120 407 120 468 137 524C143 544 168 627 249 627C327 627 353 550 360 531C379 475 379 406 379 343C379 276 379 212 361 148C335 56 282 40 250 40Z" stroke="rgb(0,0,0)" stroke-opacity="1" stroke-width="8" fill="rgb(0,0,0)" fill-opacity="1"></path></g></g></g></g></g><g><g transform="matrix(1,0,0,1,55.140625,19)"><path transform="matrix(0.017,0,0,-0.017,0,0)" d="" stroke="rgb(0,0,0)" stroke-opacity="1" stroke-width="8" fill="rgb(0,0,0)" fill-opacity="1"></path></g></g><g><g transform="matrix(1,0,0,1,62.765625,19)"><path transform="matrix(0.017,0,0,-0.017,0,0)" d="M555 243L555 299L51 299L51 243Z" stroke="rgb(0,0,0)" stroke-opacity="1" stroke-width="8" fill="rgb(0,0,0)" fill-opacity="1"></path></g></g><g><g transform="matrix(1,0,0,1,76.453125,19)"><path transform="matrix(0.017,0,0,-0.017,0,0)" d="M601 391C623 391 651 395 675 395C693 395 732 392 734 392L723 455C653 455 595 436 565 423C544 440 510 455 470 455C384 455 311 383 311 292C311 255 324 219 344 193C315 152 315 113 315 108C315 82 324 53 341 32C289 1 277 -45 277 -71C277 -146 376 -206 498 -206C621 -206 720 -147 720 -70C720 69 553 69 514 69L426 69C413 69 368 69 368 122C368 133 372 149 379 158C400 143 433 129 470 129C560 129 630 203 630 292C630 340 608 377 597 392ZM470 186C433 186 381 209 381 292C381 375 433 398 470 398C513 398 560 370 560 292C560 214 513 186 470 186ZM515 -3C537 -3 650 -3 650 -72C650 -116 581 -149 499 -149C418 -149 347 -118 347 -71C347 -68 347 -3 425 -3ZM1165 267L1034 213L1029 204L1065 153L1075 153L1181 241L1199 99L1209 95L1277 121L1277 131L1209 253L1347 233L1356 241L1356 303L1350 307L1211 283L1280 408L1277 423L1215 442L1206 438L1180 295L1085 393L1075 393L1031 341L1034 331ZM1809 386L1950 386L1950 444L1809 444L1809 571L1740 571L1740 444L1653 444L1653 386L1737 386L1737 119C1737 59 1751 -11 1820 -11C1890 -11 1941 14 1966 27L1950 86C1924 65 1892 53 1860 53C1823 53 1809 83 1809 136Z" stroke="rgb(0,0,0)" stroke-opacity="1" stroke-width="8" fill="rgb(0,0,0)" fill-opacity="1"></path></g></g></g></g></svg>