<svg xmlns="http://www.w3.org/2000/svg" xmlns:xlink="http://www.w3.org/1999/xlink" width="95.3125" height="55.4375" style="width:95.3125px;height:55.4375px;font-family:Asana-Math, Asana;background:#FFF;"><g><g><g><g transform="matrix(1,0,0,1,2,36.65625)"><path transform="matrix(0.017,0,0,-0.017,0,0)" d="M435 298C435 364 420 455 298 455C236 455 188 424 156 383L156 694L81 694L81 0L159 0L159 245C159 311 184 394 260 394C356 394 357 323 357 291L357 0L435 0Z" stroke="rgb(0,0,0)" stroke-opacity="1" stroke-width="8" fill="rgb(0,0,0)" fill-opacity="1"></path></g></g><g><g><g><g><g transform="matrix(1,0,0,1,11.265625,39.665625)"><path transform="matrix(0.0119,0,0,-0.0119,0,0)" d="M713 298C713 365 697 455 576 455C516 455 464 427 427 373C401 449 331 455 299 455C227 455 180 414 153 378L153 450L81 450L81 0L159 0L159 245C159 313 186 394 260 394C353 394 358 329 358 291L358 0L436 0L436 245C436 313 463 394 537 394C630 394 635 329 635 291L635 0L713 0ZM1192 289C1192 391 1119 461 1027 461C962 461 917 445 870 418L876 352C928 389 978 402 1027 402C1074 402 1114 362 1114 288L1114 245C964 243 837 201 837 113C837 70 864 -11 951 -11C965 -11 1059 -9 1117 36L1117 0L1192 0ZM1114 132C1114 113 1114 88 1080 69C1051 51 1013 50 1002 50C954 50 909 73 909 115C909 185 1071 192 1114 194ZM1532 229L1715 444L1633 444L1499 279L1361 444L1278 444L1466 229L1272 0L1354 0L1499 188L1649 0L1732 0Z" stroke="rgb(0,0,0)" stroke-opacity="1" stroke-width="8" fill="rgb(0,0,0)" fill-opacity="1"></path></g></g></g></g></g><g><g transform="matrix(1,0,0,1,32.90625,36.65625)"><path transform="matrix(0.017,0,0,-0.017,0,0)" d="" stroke="rgb(0,0,0)" stroke-opacity="1" stroke-width="8" fill="rgb(0,0,0)" fill-opacity="1"></path></g></g><g><g transform="matrix(1,0,0,1,42.234375,36.65625)"><path transform="matrix(0.017,0,0,-0.017,0,0)" d="M604 347L604 406L65 406L65 347ZM604 134L604 193L65 193L65 134Z" stroke="rgb(0,0,0)" stroke-opacity="1" stroke-width="8" fill="rgb(0,0,0)" fill-opacity="1"></path></g></g><g><g transform="matrix(1,0,0,1,58.6875,36.65625)"><path transform="matrix(0.017,0,0,-0.017,0,0)" d="" stroke="rgb(0,0,0)" stroke-opacity="1" stroke-width="8" fill="rgb(0,0,0)" fill-opacity="1"></path></g></g><g><g><g><g><g transform="matrix(1,0,0,1,64.609375,20.609375)"><path transform="matrix(0.017,0,0,-0.017,0,0)" d="M446 444L371 444C319 299 228 47 232 53L231 53L92 444L14 444L186 0L274 0Z" stroke="rgb(0,0,0)" stroke-opacity="1" stroke-width="8" fill="rgb(0,0,0)" fill-opacity="1"></path></g></g><g><g><g></g></g><g><g><g><g transform="matrix(1,0,0,1,72.9375,25.275)"><path transform="matrix(0.0119,0,0,-0.0119,0,0)" d="M457 331C457 412 453 506 411 588C370 665 301 689 250 689C191 689 121 662 80 571C47 497 42 413 42 331C42 251 46 177 76 103C116 5 192 -22 249 -22C322 -22 385 19 417 89C447 155 457 223 457 331ZM250 40C198 40 157 78 137 151C121 209 120 264 120 343C120 407 120 468 137 524C143 544 168 627 249 627C327 627 353 550 360 531C379 475 379 406 379 343C379 276 379 212 361 148C335 56 282 40 250 40ZM945 444L870 444L737 57L592 444L513 444L707 0C663 -113 650 -148 614 -148C598 -148 566 -144 536 -132L542 -197C564 -202 592 -205 614 -205C649 -205 686 -193 727 -91Z" stroke="rgb(0,0,0)" stroke-opacity="1" stroke-width="8" fill="rgb(0,0,0)" fill-opacity="1"></path></g></g></g></g></g><g><g><g><g><g transform="matrix(1,0,0,1,86.34375,13.9)"><path transform="matrix(0.0119,0,0,-0.0119,0,0)" d="M83 466C103 545 131 624 222 624C316 624 367 548 367 468C367 382 310 324 251 263L174 191L50 65L50 0L449 0L449 72L267 72C255 72 243 71 231 71L122 71C154 100 230 176 261 205C333 274 449 347 449 471C449 587 368 689 236 689C122 689 66 610 42 522C66 487 59 501 83 466Z" stroke="rgb(0,0,0)" stroke-opacity="1" stroke-width="8" fill="rgb(0,0,0)" fill-opacity="1"></path></g></g></g></g></g></g></g><g><g><g><g transform="matrix(1,0,0,1,70.46875,50.046875)"><path transform="matrix(0.017,0,0,-0.017,0,0)" d="M83 466C103 545 131 624 222 624C316 624 367 548 367 468C367 382 310 324 251 263L174 191L50 65L50 0L449 0L449 72L267 72C255 72 243 71 231 71L122 71C154 100 230 176 261 205C333 274 449 347 449 471C449 587 368 689 236 689C122 689 66 610 42 522C66 487 59 501 83 466ZM851 391C873 391 901 395 925 395C943 395 982 392 984 392L973 455C903 455 845 436 815 423C794 440 760 455 720 455C634 455 561 383 561 292C561 255 574 219 594 193C565 152 565 113 565 108C565 82 574 53 591 32C539 1 527 -45 527 -71C527 -146 626 -206 748 -206C871 -206 970 -147 970 -70C970 69 803 69 764 69L676 69C663 69 618 69 618 122C618 133 622 149 629 158C650 143 683 129 720 129C810 129 880 203 880 292C880 340 858 377 847 392ZM720 186C683 186 631 209 631 292C631 375 683 398 720 398C763 398 810 370 810 292C810 214 763 186 720 186ZM765 -3C787 -3 900 -3 900 -72C900 -116 831 -149 749 -149C668 -149 597 -118 597 -71C597 -68 597 -3 675 -3Z" stroke="rgb(0,0,0)" stroke-opacity="1" stroke-width="8" fill="rgb(0,0,0)" fill-opacity="1"></path></g></g></g></g><line style="fill:none;stroke-width:1px;stroke:rgb(0, 0, 0);" x1="64.609375" y1="32.40625" x2="93.3125" y2="32.40625"></line></g></g></g></svg>