<svg version="1.1" xmlns="http://www.w3.org/2000/svg" viewBox="0 0 136.06549591072735 81.94025873321152" width="136.06549591072735" height="81.94025873321152">
  <!-- svg-source:excalidraw -->
  
  <defs>
    <style class="style-fonts">
      @font-face {
        font-family: "Virgil";
        src: url("https://excalidraw.com/Virgil.woff2");
      }
      @font-face {
        font-family: "Cascadia";
        src: url("https://excalidraw.com/Cascadia.woff2");
      }
    </style>
  </defs>
  <g transform="translate(20.32038534355297 11.620352023066516) rotate(0 13.211510302765191 9.524577195016718)"><text x="13.211510302765213" y="15.04915439003356" font-family="Helvetica, Segoe UI Emoji" font-size="16.133966112895227px" fill="black" text-anchor="middle" style="white-space: pre;" direction="ltr">1s  </text></g><g stroke-linecap="round"><g transform="translate(25.252493111906006 29.54982380815636) rotate(0 0.05353411608575698 12.926152044746232)"><path d="M0 0 C0.02 4.31, 0.09 21.54, 0.11 25.85 M0 0 C0.02 4.31, 0.09 21.54, 0.11 25.85" stroke="black" stroke-width="1" fill="none"></path></g><g transform="translate(25.252493111906006 29.54982380815636) rotate(0 0.05353411608575698 12.926152044746232)"><path d="M0.11 25.85 L-5.4 14.16 L5.52 14.11 L0.11 25.85" stroke="none" stroke-width="0" fill="black" fill-rule="evenodd"></path><path d="M0.11 25.85 C-1.37 22.72, -2.84 19.59, -5.4 14.16 M0.11 25.85 C-1.69 22.03, -3.5 18.21, -5.4 14.16 M-5.4 14.16 C-1.69 14.14, 2.02 14.13, 5.52 14.11 M-5.4 14.16 C-1.45 14.14, 2.5 14.13, 5.52 14.11 M5.52 14.11 C3.74 17.98, 1.95 21.85, 0.11 25.85 M5.52 14.11 C4.14 17.12, 2.75 20.12, 0.11 25.85 M0.11 25.85 C0.11 25.85, 0.11 25.85, 0.11 25.85 M0.11 25.85 C0.11 25.85, 0.11 25.85, 0.11 25.85" stroke="black" stroke-width="1" fill="none"></path></g></g><mask></mask><g stroke-linecap="round"><g transform="translate(44.16305819820036 23.408760584632546) rotate(0 23.945101256116686 -0.11480449209739163)"><path d="M0 0 C7.98 -0.04, 39.91 -0.19, 47.89 -0.23 M0 0 C7.98 -0.04, 39.91 -0.19, 47.89 -0.23" stroke="black" stroke-width="1" fill="none"></path></g><g transform="translate(44.16305819820036 23.408760584632546) rotate(0 23.945101256116686 -0.11480449209739163)"><path d="M47.89 -0.23 L34.33 6.17 L34.27 -6.5 L47.89 -0.23" stroke="none" stroke-width="0" fill="black" fill-rule="evenodd"></path><path d="M47.89 -0.23 C45.01 1.13, 42.13 2.49, 34.33 6.17 M47.89 -0.23 C43.53 1.83, 39.16 3.89, 34.33 6.17 M34.33 6.17 C34.31 2.08, 34.29 -2.01, 34.27 -6.5 M34.33 6.17 C34.31 2.97, 34.3 -0.24, 34.27 -6.5 M34.27 -6.5 C39.42 -4.13, 44.57 -1.76, 47.89 -0.23 M34.27 -6.5 C39.63 -4.03, 45 -1.56, 47.89 -0.23 M47.89 -0.23 C47.89 -0.23, 47.89 -0.23, 47.89 -0.23 M47.89 -0.23 C47.89 -0.23, 47.89 -0.23, 47.89 -0.23" stroke="black" stroke-width="1" fill="none"></path></g></g><mask></mask><g transform="translate(95.95554219744872 17.58132874545845) rotate(0 15.054976856639314 6.144888512913894)"><text x="15.054976856639426" y="10.289777025828103" font-family="Cascadia, Segoe UI Emoji" font-size="10.166144646646423px" fill="black" text-anchor="middle" style="white-space: pre;" direction="ltr">Grupo</text></g><g transform="translate(36.849188788400625 10) rotate(0 3.204689322023569 5.875263757043285)"><text x="3.204689322023536" y="9.750527514086299" font-family="Cascadia, Segoe UI Emoji" font-size="9.908849349898313px" fill="black" text-anchor="middle" style="white-space: pre;" direction="ltr">2</text></g><g transform="translate(10 62.16871607923531) rotate(0 17.7664411890471 4.885771326988106)"><text x="17.766441189047015" y="7.771542653975853" font-family="Cascadia, Segoe UI Emoji" font-size="8.453996292686291px" fill="black" text-anchor="middle" style="white-space: pre;" direction="ltr">Periodo</text></g></svg>