<svg xmlns="http://www.w3.org/2000/svg" xmlns:xlink="http://www.w3.org/1999/xlink" width="93.46875" height="69.5625" style="width:93.46875px;height:69.5625px;font-family:Asana-Math, Asana;background:#FFF;"><g><g><g><g transform="matrix(1,0,0,1,2,31.390625)"><path transform="matrix(0.017,0,0,-0.017,0,0)" d="M533 33C642 118 679 240 679 345C679 555 534 716 368 716C198 716 56 553 56 345C56 133 204 -22 367 -22C383 -22 420 -21 463 -4L549 -125L652 -125ZM424 51C423 51 397 42 368 42C250 42 142 159 142 345C142 532 251 652 367 652C487 652 593 530 593 345C593 280 581 171 491 89L412 194L323 194Z" stroke="rgb(0,0,0)" stroke-opacity="1" stroke-width="8" fill="rgb(0,0,0)" fill-opacity="1"></path></g></g><g><g><g><g><g transform="matrix(1,0,0,1,15,34.4)"><path transform="matrix(0.0119,0,0,-0.0119,0,0)" d="M281 272L449 444L359 444L156 236L156 694L84 694L84 0L153 0L153 141L233 224L389 0L471 0Z" stroke="rgb(0,0,0)" stroke-opacity="1" stroke-width="8" fill="rgb(0,0,0)" fill-opacity="1"></path></g></g></g></g></g><g><g transform="matrix(1,0,0,1,21.8125,31.390625)"><path transform="matrix(0.017,0,0,-0.017,0,0)" d="" stroke="rgb(0,0,0)" stroke-opacity="1" stroke-width="8" fill="rgb(0,0,0)" fill-opacity="1"></path></g></g><g><g transform="matrix(1,0,0,1,31.140625,31.390625)"><path transform="matrix(0.017,0,0,-0.017,0,0)" d="M604 347L604 406L65 406L65 347ZM604 134L604 193L65 193L65 134Z" stroke="rgb(0,0,0)" stroke-opacity="1" stroke-width="8" fill="rgb(0,0,0)" fill-opacity="1"></path></g></g><g><g transform="matrix(1,0,0,1,47.59375,31.390625)"><path transform="matrix(0.017,0,0,-0.017,0,0)" d="" stroke="rgb(0,0,0)" stroke-opacity="1" stroke-width="8" fill="rgb(0,0,0)" fill-opacity="1"></path></g></g><g><g><g><g><g transform="matrix(1,0,0,1,53.515625,19)"><path transform="matrix(0.017,0,0,-0.017,0,0)" d="M320 361C409 390 443 457 443 511C443 607 358 689 250 689C138 689 56 605 56 511C56 457 90 390 179 361C107 335 42 271 42 183C42 72 134 -22 249 -22C368 -22 457 75 457 183C457 275 387 337 320 361ZM250 391C173 391 126 441 126 511C126 581 175 630 249 630C328 630 373 577 373 511C373 438 322 391 250 391ZM250 40C181 40 123 88 123 184C123 291 195 329 249 329C307 329 376 289 376 184C376 85 314 40 250 40ZM916 267L785 213L780 204L816 153L826 153L932 241L950 99L960 95L1028 121L1028 131L960 253L1098 233L1107 241L1107 303L1101 307L962 283L1031 408L1028 423L966 442L957 438L931 295L836 393L826 393L782 341L785 331ZM1477 522C1506 593 1571 630 1632 630C1684 630 1733 600 1733 535C1733 473 1692 413 1631 398C1625 397 1623 397 1552 391L1552 329L1623 329C1731 329 1753 235 1753 184C1753 105 1707 40 1630 40C1561 40 1482 75 1438 144L1427 83C1500 -12 1592 -22 1632 -22C1754 -22 1842 76 1842 183C1842 275 1772 338 1704 360C1780 401 1815 471 1815 535C1815 622 1732 689 1633 689C1556 689 1483 648 1441 577Z" stroke="rgb(0,0,0)" stroke-opacity="1" stroke-width="8" fill="rgb(0,0,0)" fill-opacity="1"></path></g></g></g></g><g><g><g><g transform="matrix(1,0,0,1,65.28125,44.78125)"><path transform="matrix(0.017,0,0,-0.017,0,0)" d="M372 174L471 174L471 236L372 236L372 667L281 667L28 236L28 174L293 174L293 0L372 0ZM106 236C158 323 299 564 299 622L299 236Z" stroke="rgb(0,0,0)" stroke-opacity="1" stroke-width="8" fill="rgb(0,0,0)" fill-opacity="1"></path></g></g></g></g><line style="fill:none;stroke-width:1px;stroke:rgb(0, 0, 0);" x1="53.515625" y1="27.140625" x2="85.546875" y2="27.140625"></line></g><g><g transform="matrix(1,0,0,1,87.234375,31.390625)"><path transform="matrix(0.017,0,0,-0.017,0,0)" d="" stroke="rgb(0,0,0)" stroke-opacity="1" stroke-width="8" fill="rgb(0,0,0)" fill-opacity="1"></path></g></g></g><g><g><g transform="matrix(1,0,0,1,17.578125,62.171875)"><path transform="matrix(0.017,0,0,-0.017,0,0)" d="M533 33C642 118 679 240 679 345C679 555 534 716 368 716C198 716 56 553 56 345C56 133 204 -22 367 -22C383 -22 420 -21 463 -4L549 -125L652 -125ZM424 51C423 51 397 42 368 42C250 42 142 159 142 345C142 532 251 652 367 652C487 652 593 530 593 345C593 280 581 171 491 89L412 194L323 194Z" stroke="rgb(0,0,0)" stroke-opacity="1" stroke-width="8" fill="rgb(0,0,0)" fill-opacity="1"></path></g></g><g><g><g><g><g transform="matrix(1,0,0,1,30.578125,65.18125)"><path transform="matrix(0.0119,0,0,-0.0119,0,0)" d="M281 272L449 444L359 444L156 236L156 694L84 694L84 0L153 0L153 141L233 224L389 0L471 0Z" stroke="rgb(0,0,0)" stroke-opacity="1" stroke-width="8" fill="rgb(0,0,0)" fill-opacity="1"></path></g></g></g></g></g><g><g transform="matrix(1,0,0,1,37.390625,62.171875)"><path transform="matrix(0.017,0,0,-0.017,0,0)" d="" stroke="rgb(0,0,0)" stroke-opacity="1" stroke-width="8" fill="rgb(0,0,0)" fill-opacity="1"></path></g></g><g><g transform="matrix(1,0,0,1,46.71875,62.171875)"><path transform="matrix(0.017,0,0,-0.017,0,0)" d="M604 347L604 406L65 406L65 347ZM604 134L604 193L65 193L65 134Z" stroke="rgb(0,0,0)" stroke-opacity="1" stroke-width="8" fill="rgb(0,0,0)" fill-opacity="1"></path></g></g><g><g transform="matrix(1,0,0,1,63.171875,62.171875)"><path transform="matrix(0.017,0,0,-0.017,0,0)" d="M664 669C613 689 572 689 558 689C417 689 291 546 291 327C291 40 415 -22 500 -22C560 -22 603 1 642 47C687 99 706 145 706 226C706 356 640 469 544 469C512 469 436 461 375 385C388 549 467 630 559 630C597 630 629 623 664 609ZM376 223C376 237 376 239 377 251C377 326 422 407 505 407C553 407 581 382 601 344C622 307 624 271 624 226C624 191 624 144 600 103C583 74 557 40 500 40C394 40 379 189 376 223Z" stroke="rgb(0,0,0)" stroke-opacity="1" stroke-width="8" fill="rgb(0,0,0)" fill-opacity="1"></path></g></g></g></g></svg>