<svg xmlns="http://www.w3.org/2000/svg" xmlns:xlink="http://www.w3.org/1999/xlink" width="58.8125" height="43.171875" style="width:58.8125px;height:43.171875px;font-family:Asana-Math, Asana;background:#FFF;"><g><g><g><g transform="matrix(1,0,0,1,2,27.390625)"><path transform="matrix(0.017,0,0,-0.017,0,0)" d="M153 29L157 29C187 -5 225 -15 266 -15C443 -15 510 168 485 325C470 420 415 473 319 473C200 473 99 395 87 277C82 234 84 188 86 144C94 1 91 -141 101 -284C129 -283 158 -277 182 -266C172 -223 153 -148 153 29ZM407 311C425 203 413 11 275 11C197 11 168 72 158 138C142 243 149 441 286 441C365 441 396 380 407 311Z" stroke="rgb(0,0,0)" stroke-opacity="1" stroke-width="8" fill="rgb(0,0,0)" fill-opacity="1"></path></g></g><g><g transform="matrix(1,0,0,1,20.953125,27.390625)"><path transform="matrix(0.017,0,0,-0.017,0,0)" d="M604 347L604 406L65 406L65 347ZM604 134L604 193L65 193L65 134Z" stroke="rgb(0,0,0)" stroke-opacity="1" stroke-width="8" fill="rgb(0,0,0)" fill-opacity="1"></path></g></g><g><g transform="matrix(1,0,0,1,37.40625,27.390625)"><path transform="matrix(0.017,0,0,-0.017,0,0)" d="" stroke="rgb(0,0,0)" stroke-opacity="1" stroke-width="8" fill="rgb(0,0,0)" fill-opacity="1"></path></g></g><g><g><g><g><g transform="matrix(1,0,0,1,43.328125,15)"><path transform="matrix(0.017,0,0,-0.017,0,0)" d="M713 298C713 365 697 455 576 455C516 455 464 427 427 373C401 449 331 455 299 455C227 455 180 414 153 378L153 450L81 450L81 0L159 0L159 245C159 313 186 394 260 394C353 394 358 329 358 291L358 0L436 0L436 245C436 313 463 394 537 394C630 394 635 329 635 291L635 0L713 0Z" stroke="rgb(0,0,0)" stroke-opacity="1" stroke-width="8" fill="rgb(0,0,0)" fill-opacity="1"></path></g></g></g></g><g><g><g><g transform="matrix(1,0,0,1,46.15625,40.78125)"><path transform="matrix(0.017,0,0,-0.017,0,0)" d="M446 444L371 444C319 299 228 47 232 53L231 53L92 444L14 444L186 0L274 0Z" stroke="rgb(0,0,0)" stroke-opacity="1" stroke-width="8" fill="rgb(0,0,0)" fill-opacity="1"></path></g></g></g></g><line style="fill:none;stroke-width:1px;stroke:rgb(0, 0, 0);" x1="43.328125" y1="23.140625" x2="56.8125" y2="23.140625"></line></g></g></g></svg>