<svg xmlns="http://www.w3.org/2000/svg" xmlns:xlink="http://www.w3.org/1999/xlink" width="161.375" height="67.375" style="width:161.375px;height:67.375px;font-family:Asana-Math, Asana;background:#FFF;"><g><g><g><g transform="matrix(1,0,0,1,2,42.6875)"><path transform="matrix(0.017,0,0,-0.017,0,0)" d="M316 -3C388 -3 437 8 489 34C645 114 741 265 741 431C741 529 711 599 650 642C604 675 519 693 424 692L220 689L210 689C201 689 198 689 97 692L94 664L147 662C171 661 182 653 182 635C182 621 178 589 173 559L86 55C81 31 56 29 33 23L28 -3L121 0L176 0C211 0 282 -3 316 -3ZM384 655C566 655 649 579 649 415C649 225 549 41 329 41C285 41 236 46 168 56C168 68 169 75 172 93L268 650C291 650 349 655 384 655ZM998 334L1115 334L1247 330L1266 375L1262 382C1181 378 1121 376 1043 376L1006 376L1053 646C1085 647 1168 650 1190 650C1252 650 1293 641 1294 626L1302 537L1326 537C1329 601 1336 651 1347 689C1326 691 1296 692 1278 692C1275 692 1264 692 1240 691L1120 690C1111 689 937 691 927 691L882 692L879 664L933 662C957 661 968 653 968 635C968 621 964 589 959 559L872 55C868 37 856 30 812 23L807 -3L848 -2C879 -1 941 0 961 0L1186 -3C1200 -3 1225 -2 1258 -1L1291 0L1295 36C1297 56 1302 86 1311 135L1316 161L1289 161L1273 101C1263 65 1254 53 1232 48C1212 44 1139 39 1085 39C1044 39 1017 40 948 46Z" stroke="rgb(0,0,0)" stroke-opacity="1" stroke-width="8" fill="rgb(0,0,0)" fill-opacity="1"></path></g></g><g><g><g></g></g></g><g><text x="33.515625" y="27.6875" style="white-space:pre;stroke:none;fill:rgb(0,0,0);fill-opacity:1;font-size:17px;font-family:Arial, Helvetica, sans-serif;font-weight:400;font-style:normal;dominant-baseline:text-before-edge;text-decoration:none solid rgb(0, 0, 0);"> </text></g><g><text x="43.34375" y="27.6875" style="white-space:pre;stroke:none;fill:rgb(0,0,0);fill-opacity:1;font-size:17px;font-family:Arial, Helvetica, sans-serif;font-weight:400;font-style:normal;dominant-baseline:text-before-edge;text-decoration:none solid rgb(0, 0, 0);">=</text></g><g><text x="58.375" y="27.6875" style="white-space:pre;stroke:none;fill:rgb(0,0,0);fill-opacity:1;font-size:17px;font-family:Arial, Helvetica, sans-serif;font-weight:400;font-style:normal;dominant-baseline:text-before-edge;text-decoration:none solid rgb(0, 0, 0);">  </text></g><g><g><g><g><svg x="86.015625" overflow="visible" y="14.6875" height="49" width="8.5"><path d=" M 6.27 1.70 c 0.00 -0.06 -0.04 -0.08 -0.08 -0.08 c -0.03 0.00 -0.06 0.01 -0.08 0.02 c -2.55 1.34 -4.65 3.73 -4.65 9.40 v 0.60 h 1.53 v -0.60 c 0.00 -3.23 0.64 -7.03 3.31 -9.06 c 0.12 -0.09 0.13 -0.19 0.13 -0.28 z   M 1.44 11.64 v 25.72 h 1.53 v -25.72 z" style="fill:rgb(0,0,0);fill-opacity:1;stroke-width:1px;stroke:none;stroke-opacity:1;"></path><path d=" M 6.27 47.30 c 0.00 0.06 -0.04 0.08 -0.08 0.08 c -0.03 0.00 -0.06 -0.01 -0.08 -0.02 c -2.55 -1.34 -4.65 -3.73 -4.65 -9.40 v -0.60 h 1.53 v 0.60 c 0.00 3.23 0.64 7.03 3.31 9.06 c 0.12 0.09 0.13 0.19 0.13 0.28 z" style="fill:rgb(0,0,0);fill-opacity:1;stroke-width:1px;stroke:none;stroke-opacity:1;"></path></svg></g><g><g><g><g><text x="94.515625" y="13.296875" style="white-space:pre;stroke:none;fill:rgb(0,0,0);fill-opacity:1;font-size:17px;font-family:arial, verdana, geneva, lucida, &quot;lucida grande&quot;, arial, helvetica, sans-serif;font-weight:400;font-style:normal;dominant-baseline:text-before-edge;text-decoration:none solid rgb(0, 0, 0);">X̅ </text></g><g><text x="113.96875" y="13.296875" style="white-space:pre;stroke:none;fill:rgb(0,0,0);fill-opacity:1;font-size:17px;font-family:arial, verdana, geneva, lucida, &quot;lucida grande&quot;, arial, helvetica, sans-serif;font-weight:400;font-style:normal;dominant-baseline:text-before-edge;text-decoration:none solid rgb(0, 0, 0);">-</text></g><g><text x="123.03125" y="13.296875" style="white-space:pre;stroke:none;fill:rgb(0,0,0);fill-opacity:1;font-size:17px;font-family:arial, verdana, geneva, lucida, &quot;lucida grande&quot;, arial, helvetica, sans-serif;font-weight:400;font-style:normal;dominant-baseline:text-before-edge;text-decoration:none solid rgb(0, 0, 0);"> X</text></g><g><g><g><g><text x="139.59375" y="21.40625" style="white-space:pre;stroke:none;fill:rgb(0,0,0);fill-opacity:1;font-size:11.9px;font-family:arial, verdana, geneva, lucida, &quot;lucida grande&quot;, arial, helvetica, sans-serif;font-weight:400;font-style:normal;dominant-baseline:text-before-edge;text-decoration:none solid rgb(0, 0, 0);">i</text></g></g></g></g></g></g><g><g><g><text x="112.75" y="41.078125" style="white-space:pre;stroke:none;fill:rgb(0,0,0);fill-opacity:1;font-size:17px;font-family:arial, verdana, geneva, lucida, &quot;lucida grande&quot;, arial, helvetica, sans-serif;font-weight:400;font-style:normal;dominant-baseline:text-before-edge;text-decoration:none solid rgb(0, 0, 0);">N</text></g></g></g><line style="fill:none;stroke-width:1px;stroke:rgb(0, 0, 0);" x1="94.515625" y1="38.4375" x2="143.265625" y2="38.4375"></line></g><g><svg x="143.265625" overflow="visible" y="14.6875" height="49" width="8.5"><path d=" M 1.75 1.70 c 0.00 -0.06 0.04 -0.08 0.08 -0.08 c 0.03 0.00 0.06 0.01 0.08 0.02 c 2.55 1.34 4.65 3.73 4.65 9.40 v 0.60 h -1.53 v -0.60 c 0.00 -3.23 -0.64 -7.03 -3.31 -9.06 c -0.12 -0.09 -0.13 -0.19 -0.13 -0.28 z  M 6.58 11.64 v 25.72 h -1.53 v -25.72 z" style="fill:rgb(0,0,0);fill-opacity:1;stroke-width:1px;stroke:none;stroke-opacity:1;"></path><path d=" M 1.75 47.30 c 0.00 0.06 0.04 0.08 0.08 0.08 c 0.03 0.00 0.06 -0.01 0.08 -0.02 c 2.55 -1.34 4.65 -3.73 4.65 -9.40 v -0.60 h -1.53 v 0.60 c 0.00 3.23 -0.64 7.03 -3.31 9.06 c -0.12 0.09 -0.13 0.19 -0.13 0.28 z" style="fill:rgb(0,0,0);fill-opacity:1;stroke-width:1px;stroke:none;stroke-opacity:1;"></path></svg></g><g><g><g><g><text x="151.734375" y="8" style="white-space:pre;stroke:none;fill:rgb(0,0,0);fill-opacity:1;font-size:11.9px;font-family:arial, verdana, geneva, lucida, &quot;lucida grande&quot;, arial, helvetica, sans-serif;font-weight:400;font-style:normal;dominant-baseline:text-before-edge;text-decoration:none solid rgb(0, 0, 0);">2</text></g></g></g></g></g></g><svg x="67.828125" overflow="visible" y="6" height="17" width="91.546875"><polygon points="0.35,47.26 4.79,44.89 8.93,53.67 16.36,0.00 91.55,0.00 91.55,1.05 17.23,1.05 9.18,59.56 3.10,46.82 0.64,47.75" style="fill:rgb(0,0,0);fill-opacity:1;stroke-width:1px;stroke:none;stroke-opacity:1;"></polygon></svg></g></g></g></svg>