<svg version="1.1" xmlns="http://www.w3.org/2000/svg" viewBox="0 0 432.17254146142113 356.773384646398" width="864.3450829228423" height="713.546769292796">
  <!-- svg-source:excalidraw -->
  
  <defs>
    <style class="style-fonts">
      @font-face {
        font-family: "Virgil";
        src: url("https://excalidraw.com/Virgil.woff2");
      }
      @font-face {
        font-family: "Cascadia";
        src: url("https://excalidraw.com/Cascadia.woff2");
      }
    </style>
  </defs>
  <g stroke-linecap="round"><g transform="translate(10.020182265070616 140.065384685784) rotate(0 0 103.33320271786579)"><path d="M0 0 C0 57.92, 0 115.83, 0 206.67 M0 0 C0 57.16, 0 114.32, 0 206.67" stroke="black" stroke-width="4" fill="none"></path></g></g><mask></mask><g stroke-linecap="round"><g transform="translate(10.347960170259284 346.773384646398) rotate(0 171.5018981517619 -0.38692314729541977)"><path d="M0 0 C68.93 -0.16, 137.87 -0.31, 343 -0.77 M0 0 C106.4 -0.24, 212.81 -0.48, 343 -0.77" stroke="black" stroke-width="4" fill="none"></path></g></g><mask></mask><g stroke-linecap="round"><g transform="translate(10 139.89407701081836) rotate(0 171.60007478379612 102.97179379670615)"><path d="M0 0 C82.43 49.47, 164.87 98.93, 343.2 205.94 M0 0 C74.39 44.64, 148.78 89.28, 343.2 205.94" stroke="black" stroke-width="4" fill="none"></path></g></g><mask></mask><g stroke-linecap="round" transform="translate(122.97144981139718 167.82732905978082) rotate(31.035108649002407 71.2223382870011 37.223823329082734)"><path d="M0 0 L142.44 0 L142.44 74.45 L0 74.45" stroke="none" stroke-width="0" fill="lightblue"></path><path d="M0 0 C35.24 0, 70.49 0, 142.44 0 M0 0 C30.85 0, 61.71 0, 142.44 0 M142.44 0 C142.44 28.22, 142.44 56.44, 142.44 74.45 M142.44 0 C142.44 16.73, 142.44 33.46, 142.44 74.45 M142.44 74.45 C94.18 74.45, 45.91 74.45, 0 74.45 M142.44 74.45 C92.71 74.45, 42.97 74.45, 0 74.45 M0 74.45 C0 49.38, 0 24.31, 0 0 M0 74.45 C0 53.18, 0 31.91, 0 0" stroke="black" stroke-width="2" fill="none"></path></g><g stroke-linecap="round"><g transform="translate(316.8313433525436 327.61671377349194) rotate(0 -2.4045715367537923 9.48368010147351)"><path d="M0 0 C-0.75 1.38, -3.79 5.12, -4.52 8.28 C-5.24 11.44, -4.39 17.19, -4.37 18.97 M0 0 C-0.75 1.38, -3.79 5.12, -4.52 8.28 C-5.24 11.44, -4.39 17.19, -4.37 18.97" stroke="black" stroke-width="2" fill="none"></path></g></g><mask></mask><g transform="translate(279.751152634748 322.4156535937218) rotate(0 14.5 9.5)"><text x="14.5" y="15" font-family="Cascadia, Segoe UI Emoji" font-size="15.437739647720793px" fill="black" text-anchor="middle" style="white-space: pre;" direction="ltr">35°</text></g><g stroke-linecap="round"><g transform="translate(354.31912891653064 81.01778669424675) rotate(0 21.91906996736043 -35.508893347123376)"><path d="M0 0 C7.31 -11.84, 36.53 -59.18, 43.84 -71.02 M0 0 C7.31 -11.84, 36.53 -59.18, 43.84 -71.02" stroke="black" stroke-width="2" fill="none"></path></g><g transform="translate(354.31912891653064 81.01778669424675) rotate(0 21.91906996736043 -35.508893347123376)"><path d="M43.84 -71.02 L42.09 -56.12 L31.3 -62.78 L43.84 -71.02" stroke="none" stroke-width="0" fill="black" fill-rule="evenodd"></path><path d="M43.84 -71.02 C43.38 -67.12, 42.92 -63.22, 42.09 -56.12 M43.84 -71.02 C43.25 -65.98, 42.66 -60.95, 42.09 -56.12 M42.09 -56.12 C38.16 -58.54, 34.24 -60.97, 31.3 -62.78 M42.09 -56.12 C39.52 -57.71, 36.95 -59.29, 31.3 -62.78 M31.3 -62.78 C34.81 -65.08, 38.31 -67.39, 43.84 -71.02 M31.3 -62.78 C34.28 -64.73, 37.25 -66.69, 43.84 -71.02 M43.84 -71.02 C43.84 -71.02, 43.84 -71.02, 43.84 -71.02 M43.84 -71.02 C43.84 -71.02, 43.84 -71.02, 43.84 -71.02" stroke="black" stroke-width="2" fill="none"></path></g></g><mask></mask><g stroke-linecap="round"><g transform="translate(354.36712427121165 81.02578592002646) rotate(0 -14.942000503968757 25.61441248317078)"><path d="M0 0 C-4.98 8.54, -24.9 42.69, -29.88 51.23 M0 0 C-4.98 8.54, -24.9 42.69, -29.88 51.23" stroke="black" stroke-width="2" fill="none"></path></g><g transform="translate(354.36712427121165 81.02578592002646) rotate(0 -14.942000503968757 25.61441248317078)"><path d="M-29.88 51.23 L-28.51 36.29 L-17.56 42.68 L-29.88 51.23" stroke="none" stroke-width="0" fill="black" fill-rule="evenodd"></path><path d="M-29.88 51.23 C-29.43 46.33, -28.98 41.42, -28.51 36.29 M-29.88 51.23 C-29.41 46.06, -28.93 40.89, -28.51 36.29 M-28.51 36.29 C-24.79 38.46, -21.06 40.64, -17.56 42.68 M-28.51 36.29 C-25.72 37.92, -22.93 39.54, -17.56 42.68 M-17.56 42.68 C-21.71 45.56, -25.86 48.44, -29.88 51.23 M-17.56 42.68 C-22.4 46.04, -27.23 49.39, -29.88 51.23 M-29.88 51.23 C-29.88 51.23, -29.88 51.23, -29.88 51.23 M-29.88 51.23 C-29.88 51.23, -29.88 51.23, -29.88 51.23" stroke="black" stroke-width="2" fill="none"></path></g></g><mask></mask><g stroke-linecap="round"><g transform="translate(359.8692935663357 73.20691376379727) rotate(0 31.151623947542703 16.908489657073005)"><path d="M0 0 C10.38 5.64, 51.92 28.18, 62.3 33.82 M0 0 C10.38 5.64, 51.92 28.18, 62.3 33.82" stroke="black" stroke-width="2" fill="none"></path></g><g transform="translate(359.8692935663357 73.20691376379727) rotate(0 31.151623947542703 16.908489657073005)"><path d="M62.3 33.82 L47.33 32.9 L53.38 21.76 L62.3 33.82" stroke="none" stroke-width="0" fill="black" fill-rule="evenodd"></path><path d="M62.3 33.82 C59.1 33.62, 55.89 33.43, 47.33 32.9 M62.3 33.82 C58.64 33.59, 54.98 33.37, 47.33 32.9 M47.33 32.9 C48.69 30.4, 50.04 27.91, 53.38 21.76 M47.33 32.9 C49.61 28.71, 51.88 24.52, 53.38 21.76 M53.38 21.76 C55.29 24.34, 57.2 26.92, 62.3 33.82 M53.38 21.76 C56.25 25.64, 59.12 29.52, 62.3 33.82 M62.3 33.82 C62.3 33.82, 62.3 33.82, 62.3 33.82 M62.3 33.82 C62.3 33.82, 62.3 33.82, 62.3 33.82" stroke="black" stroke-width="2" fill="none"></path></g></g><mask></mask><g stroke-linecap="round"><g transform="translate(359.00052999342097 72.91732590615902) rotate(0 -29.827549336725497 -16.361713956553103)"><path d="M0 0 C-9.94 -5.45, -49.71 -27.27, -59.66 -32.72 M0 0 C-9.94 -5.45, -49.71 -27.27, -59.66 -32.72" stroke="black" stroke-width="2" fill="none"></path></g><g transform="translate(359.00052999342097 72.91732590615902) rotate(0 -29.827549336725497 -16.361713956553103)"><path d="M-59.66 -32.72 L-44.69 -31.74 L-50.78 -20.63 L-59.66 -32.72" stroke="none" stroke-width="0" fill="black" fill-rule="evenodd"></path><path d="M-59.66 -32.72 C-56.46 -32.51, -53.26 -32.3, -44.69 -31.74 M-59.66 -32.72 C-55.68 -32.46, -51.71 -32.2, -44.69 -31.74 M-44.69 -31.74 C-46.69 -28.1, -48.69 -24.45, -50.78 -20.63 M-44.69 -31.74 C-46.96 -27.6, -49.23 -23.46, -50.78 -20.63 M-50.78 -20.63 C-52.98 -23.63, -55.18 -26.63, -59.66 -32.72 M-50.78 -20.63 C-52.62 -23.13, -54.45 -25.63, -59.66 -32.72 M-59.66 -32.72 C-59.66 -32.72, -59.66 -32.72, -59.66 -32.72 M-59.66 -32.72 C-59.66 -32.72, -59.66 -32.72, -59.66 -32.72" stroke="black" stroke-width="2" fill="none"></path></g></g><mask></mask><g stroke-linecap="round"><g transform="translate(204.3671323086037 184.43824748674524) rotate(0 18.813553625433997 -31.15994819212574)"><path d="M0 0 C6.27 -10.39, 31.36 -51.93, 37.63 -62.32 M0 0 C6.27 -10.39, 31.36 -51.93, 37.63 -62.32" stroke="black" stroke-width="2" fill="none"></path></g><g transform="translate(204.3671323086037 184.43824748674524) rotate(0 18.813553625433997 -31.15994819212574)"><path d="M37.63 -62.32 L36.03 -47.41 L25.17 -53.96 L37.63 -62.32" stroke="none" stroke-width="0" fill="black" fill-rule="evenodd"></path><path d="M37.63 -62.32 C37.25 -58.8, 36.87 -55.27, 36.03 -47.41 M37.63 -62.32 C37.26 -58.86, 36.88 -55.4, 36.03 -47.41 M36.03 -47.41 C31.79 -49.97, 27.55 -52.52, 25.17 -53.96 M36.03 -47.41 C32.51 -49.53, 29 -51.65, 25.17 -53.96 M25.17 -53.96 C29.12 -56.61, 33.07 -59.26, 37.63 -62.32 M25.17 -53.96 C30.11 -57.27, 35.04 -60.58, 37.63 -62.32 M37.63 -62.32 C37.63 -62.32, 37.63 -62.32, 37.63 -62.32 M37.63 -62.32 C37.63 -62.32, 37.63 -62.32, 37.63 -62.32" stroke="black" stroke-width="2" fill="none"></path></g></g><mask></mask><g transform="translate(258.27495224364793 99.79949784057317) rotate(0 9 17)"><text x="9" y="27" font-family="Cascadia, Segoe UI Emoji" font-size="28px" fill="black" text-anchor="middle" style="white-space: pre;" direction="ltr">N</text></g><g stroke-linecap="round"><g transform="translate(185.1982646057395 212.42762360096094) rotate(0 -24.456496291288204 41.10731618063801)"><path d="M0 0 C-8.15 13.7, -40.76 68.51, -48.91 82.21 M0 0 C-8.15 13.7, -40.76 68.51, -48.91 82.21" stroke="black" stroke-width="2" fill="none"></path></g><g transform="translate(185.1982646057395 212.42762360096094) rotate(0 -24.456496291288204 41.10731618063801)"><path d="M-48.91 82.21 L-47.41 67.29 L-36.51 73.77 L-48.91 82.21" stroke="none" stroke-width="0" fill="black" fill-rule="evenodd"></path><path d="M-48.91 82.21 C-48.55 78.58, -48.18 74.94, -47.41 67.29 M-48.91 82.21 C-48.34 76.52, -47.77 70.82, -47.41 67.29 M-47.41 67.29 C-43.41 69.67, -39.4 72.05, -36.51 73.77 M-47.41 67.29 C-43.96 69.34, -40.51 71.4, -36.51 73.77 M-36.51 73.77 C-40.02 76.16, -43.53 78.55, -48.91 82.21 M-36.51 73.77 C-39.68 75.93, -42.84 78.08, -48.91 82.21 M-48.91 82.21 C-48.91 82.21, -48.91 82.21, -48.91 82.21 M-48.91 82.21 C-48.91 82.21, -48.91 82.21, -48.91 82.21" stroke="black" stroke-width="2" fill="none"></path></g></g><mask></mask><g transform="translate(148.92956766356656 291.06027497095056) rotate(0 17.5 17)"><text x="17.5" y="27" font-family="Cascadia, Segoe UI Emoji" font-size="28px" fill="black" text-anchor="middle" style="white-space: pre;" direction="ltr">Wy</text></g><g stroke-linecap="round"><g transform="translate(185.15524738432032 212.70891804147686) rotate(0 49.57257622862426 30.982860142890786)"><path d="M0 0 C16.52 10.33, 82.62 51.64, 99.15 61.97 M0 0 C16.52 10.33, 82.62 51.64, 99.15 61.97" stroke="black" stroke-width="2" fill="none"></path></g><g transform="translate(185.15524738432032 212.70891804147686) rotate(0 49.57257622862426 30.982860142890786)"><path d="M99.15 61.97 L84.26 60.14 L90.98 49.38 L99.15 61.97" stroke="none" stroke-width="0" fill="black" fill-rule="evenodd"></path><path d="M99.15 61.97 C95.75 61.55, 92.36 61.13, 84.26 60.14 M99.15 61.97 C95.67 61.54, 92.19 61.11, 84.26 60.14 M84.26 60.14 C86.82 56.04, 89.37 51.95, 90.98 49.38 M84.26 60.14 C85.9 57.5, 87.55 54.87, 90.98 49.38 M90.98 49.38 C93.76 53.68, 96.55 57.97, 99.15 61.97 M90.98 49.38 C93.65 53.5, 96.32 57.61, 99.15 61.97 M99.15 61.97 C99.15 61.97, 99.15 61.97, 99.15 61.97 M99.15 61.97 C99.15 61.97, 99.15 61.97, 99.15 61.97" stroke="black" stroke-width="2" fill="none"></path></g></g><mask></mask><g transform="translate(297.3066005976434 271.02110115804317) rotate(0 17.5 17)"><text x="17.5" y="27" font-family="Cascadia, Segoe UI Emoji" font-size="28px" fill="black" text-anchor="middle" style="white-space: pre;" direction="ltr">Wx</text></g><g transform="translate(90.60375310137715 135.73877873534911) rotate(0 17.5 17)"><text x="17.5" y="27" font-family="Cascadia, Segoe UI Emoji" font-size="28px" fill="black" text-anchor="middle" style="white-space: pre;" direction="ltr">Fr</text></g><g stroke-linecap="round"><g transform="translate(135.43984162162178 202.864876584561) rotate(0 -20.789666663531534 -12.722034823952526)"><path d="M0 0 C-6.93 -4.24, -34.65 -21.2, -41.58 -25.44 M0 0 C-6.93 -4.24, -34.65 -21.2, -41.58 -25.44" stroke="black" stroke-width="2" fill="none"></path></g><g transform="translate(135.43984162162178 202.864876584561) rotate(0 -20.789666663531534 -12.722034823952526)"><path d="M-41.58 -25.44 L-26.67 -23.76 L-33.29 -12.94 L-41.58 -25.44" stroke="none" stroke-width="0" fill="black" fill-rule="evenodd"></path><path d="M-41.58 -25.44 C-36.65 -24.89, -31.72 -24.33, -26.67 -23.76 M-41.58 -25.44 C-37.68 -25, -33.77 -24.56, -26.67 -23.76 M-26.67 -23.76 C-28.51 -20.76, -30.34 -17.77, -33.29 -12.94 M-26.67 -23.76 C-28.06 -21.5, -29.44 -19.24, -33.29 -12.94 M-33.29 -12.94 C-35.84 -16.79, -38.39 -20.64, -41.58 -25.44 M-33.29 -12.94 C-35.57 -16.38, -37.85 -19.82, -41.58 -25.44 M-41.58 -25.44 C-41.58 -25.44, -41.58 -25.44, -41.58 -25.44 M-41.58 -25.44 C-41.58 -25.44, -41.58 -25.44, -41.58 -25.44" stroke="black" stroke-width="2" fill="none"></path></g></g><mask></mask></svg>