<svg version="1.1" xmlns="http://www.w3.org/2000/svg" viewBox="0 0 364.1255279259958 342.4175076824795" width="728.2510558519916" height="684.835015364959">
  <!-- svg-source:excalidraw -->
  
  <defs>
    <style class="style-fonts">
      @font-face {
        font-family: "Virgil";
        src: url("https://excalidraw.com/Virgil.woff2");
      }
      @font-face {
        font-family: "Cascadia";
        src: url("https://excalidraw.com/Cascadia.woff2");
      }
    </style>
  </defs>
  <g stroke-linecap="round"><g transform="translate(10.79395371728242 125.70950772186552) rotate(0 0 103.33320271786579)"><path d="M0 0 C0 43.73, 0 87.47, 0 206.67 M0 0 C0 60.18, 0 120.37, 0 206.67" stroke="black" stroke-width="4" fill="none"></path></g></g><mask></mask><g stroke-linecap="round"><g transform="translate(11.121731622471998 332.4175076824795) rotate(0 171.5018981517619 -0.38692314729541977)"><path d="M0 0 C133.31 -0.3, 266.61 -0.6, 343 -0.77 M0 0 C129.73 -0.29, 259.46 -0.59, 343 -0.77" stroke="black" stroke-width="4" fill="none"></path></g></g><mask></mask><g stroke-linecap="round"><g transform="translate(10.773771452211804 125.53820004689987) rotate(0 171.60007478379612 102.97179379670615)"><path d="M0 0 C124.69 74.82, 249.39 149.65, 343.2 205.94 M0 0 C90.75 54.46, 181.5 108.91, 343.2 205.94" stroke="black" stroke-width="4" fill="none"></path></g></g><mask></mask><g stroke-linecap="round" transform="translate(123.74522126360898 153.47145209586233) rotate(31.035108649002407 71.2223382870011 37.223823329082734)"><path d="M0 0 L142.44 0 L142.44 74.45 L0 74.45" stroke="none" stroke-width="0" fill="lightblue"></path><path d="M0 0 C39.17 0, 78.34 0, 142.44 0 M0 0 C51.58 0, 103.16 0, 142.44 0 M142.44 0 C142.44 20.64, 142.44 41.28, 142.44 74.45 M142.44 0 C142.44 15.85, 142.44 31.7, 142.44 74.45 M142.44 74.45 C98.56 74.45, 54.67 74.45, 0 74.45 M142.44 74.45 C112.86 74.45, 83.27 74.45, 0 74.45 M0 74.45 C0 45.11, 0 15.76, 0 0 M0 74.45 C0 53.09, 0 31.72, 0 0" stroke="black" stroke-width="2" fill="none"></path></g><g stroke-linecap="round"><g transform="translate(317.60511480475543 313.26083680957163) rotate(0 -2.4045715367537923 9.48368010147351)"><path d="M0 0 C-0.75 1.38, -3.79 5.12, -4.52 8.28 C-5.24 11.44, -4.39 17.19, -4.37 18.97 M0 0 C-0.75 1.38, -3.79 5.12, -4.52 8.28 C-5.24 11.44, -4.39 17.19, -4.37 18.97" stroke="black" stroke-width="2" fill="none"></path></g></g><mask></mask><g transform="translate(280.5249240869598 308.0597766298015) rotate(0 14.5 9.5)"><text x="14.5" y="15" font-family="Cascadia, Segoe UI Emoji" font-size="15.437739647720793px" fill="black" text-anchor="middle" style="white-space: pre;" direction="ltr">25°</text></g><g stroke-linecap="round"><g transform="translate(10 127.66789197422622) rotate(0 0.964490917821422 -58.83394598711311)"><path d="M0 0 C0.32 -19.61, 1.61 -98.06, 1.93 -117.67 M0 0 C0.32 -19.61, 1.61 -98.06, 1.93 -117.67" stroke="black" stroke-width="4" fill="none"></path></g></g><mask></mask><g stroke-linecap="round"><g transform="translate(10.482245458912075 80.89008245988225) rotate(0 60.2806823638457 37.37402306558397)"><path d="M0 0 C20.09 12.46, 100.47 62.29, 120.56 74.75 M0 0 C20.09 12.46, 100.47 62.29, 120.56 74.75" stroke="black" stroke-width="1" fill="none"></path></g></g><mask></mask></svg>