<svg xmlns="http://www.w3.org/2000/svg" xmlns:xlink="http://www.w3.org/1999/xlink" width="96.875" height="48.78125" style="width:96.875px;height:48.78125px;font-family:Asana-Math, Asana;background:#FFF;"><g><g><g><g><g><g><g transform="matrix(1,0,0,1,2,20.609375)"><path transform="matrix(0.017,0,0,-0.017,0,0)" d="M83 466C103 545 131 624 222 624C316 624 367 548 367 468C367 382 310 324 251 263L174 191L50 65L50 0L449 0L449 72L267 72C255 72 243 71 231 71L122 71C154 100 230 176 261 205C333 274 449 347 449 471C449 587 368 689 236 689C122 689 66 610 42 522C66 487 59 501 83 466ZM916 267L785 213L780 204L816 153L826 153L932 241L950 99L960 95L1028 121L1028 131L960 253L1098 233L1107 241L1107 303L1101 307L962 283L1031 408L1028 423L966 442L957 438L931 295L836 393L826 393L782 341L785 331ZM1477 522C1506 593 1571 630 1632 630C1684 630 1733 600 1733 535C1733 473 1692 413 1631 398C1625 397 1623 397 1552 391L1552 329L1623 329C1731 329 1753 235 1753 184C1753 105 1707 40 1630 40C1561 40 1482 75 1438 144L1427 83C1500 -12 1592 -22 1632 -22C1754 -22 1842 76 1842 183C1842 275 1772 338 1704 360C1780 401 1815 471 1815 535C1815 622 1732 689 1633 689C1556 689 1483 648 1441 577Z" stroke="rgb(0,0,0)" stroke-opacity="1" stroke-width="8" fill="rgb(0,0,0)" fill-opacity="1"></path></g></g><g><g><g><g><g transform="matrix(1,0,0,1,35,13.9)"><path transform="matrix(0.0119,0,0,-0.0119,0,0)" d="M83 466C103 545 131 624 222 624C316 624 367 548 367 468C367 382 310 324 251 263L174 191L50 65L50 0L449 0L449 72L267 72C255 72 243 71 231 71L122 71C154 100 230 176 261 205C333 274 449 347 449 471C449 587 368 689 236 689C122 689 66 610 42 522C66 487 59 501 83 466Z" stroke="rgb(0,0,0)" stroke-opacity="1" stroke-width="8" fill="rgb(0,0,0)" fill-opacity="1"></path></g></g></g></g></g></g></g><g><g><g><g transform="matrix(1,0,0,1,17.734375,46.390625)"><path transform="matrix(0.017,0,0,-0.017,0,0)" d="M153 602L416 602L416 667L81 667L81 292L147 292C164 332 201 372 259 372C306 372 360 330 360 208C360 40 238 40 229 40C162 40 101 79 72 134L39 77C80 19 149 -22 230 -22C349 -22 449 78 449 206C449 333 363 434 260 434C220 434 182 419 153 392Z" stroke="rgb(0,0,0)" stroke-opacity="1" stroke-width="8" fill="rgb(0,0,0)" fill-opacity="1"></path></g></g></g></g><line style="fill:none;stroke-width:1px;stroke:rgb(0, 0, 0);" x1="2" y1="28.75" x2="41.96875" y2="28.75"></line></g><g><g transform="matrix(1,0,0,1,43.65625,33)"><path transform="matrix(0.017,0,0,-0.017,0,0)" d="" stroke="rgb(0,0,0)" stroke-opacity="1" stroke-width="8" fill="rgb(0,0,0)" fill-opacity="1"></path></g></g><g><g transform="matrix(1,0,0,1,52.984375,33)"><path transform="matrix(0.017,0,0,-0.017,0,0)" d="M604 347L604 406L65 406L65 347ZM604 134L604 193L65 193L65 134Z" stroke="rgb(0,0,0)" stroke-opacity="1" stroke-width="8" fill="rgb(0,0,0)" fill-opacity="1"></path></g></g><g><g transform="matrix(1,0,0,1,69.4375,33)"><path transform="matrix(0.017,0,0,-0.017,0,0)" d="M341 522C370 593 435 630 496 630C548 630 597 600 597 535C597 473 556 413 495 398C489 397 487 397 416 391L416 329L487 329C595 329 617 235 617 184C617 105 571 40 494 40C425 40 346 75 302 144L291 83C364 -12 456 -22 496 -22C618 -22 706 76 706 183C706 275 636 338 568 360C644 401 679 471 679 535C679 622 596 689 497 689C420 689 347 648 305 577ZM872 111C842 111 815 83 815 53C815 23 842 -5 871 -5C903 -5 931 22 931 53C931 83 903 111 872 111ZM1412 669C1361 689 1320 689 1306 689C1165 689 1039 546 1039 327C1039 40 1163 -22 1248 -22C1308 -22 1351 1 1390 47C1435 99 1454 145 1454 226C1454 356 1388 469 1292 469C1260 469 1184 461 1123 385C1136 549 1215 630 1307 630C1345 630 1377 623 1412 609ZM1124 223C1124 237 1124 239 1125 251C1125 326 1170 407 1253 407C1301 407 1329 382 1349 344C1370 307 1372 271 1372 226C1372 191 1372 144 1348 103C1331 74 1305 40 1248 40C1142 40 1127 189 1124 223Z" stroke="rgb(0,0,0)" stroke-opacity="1" stroke-width="8" fill="rgb(0,0,0)" fill-opacity="1"></path></g></g></g></g></svg>