<svg version="1.1" xmlns="http://www.w3.org/2000/svg" viewBox="0 0 290.3990488383538 232.07419615175422" width="290.3990488383538" height="232.07419615175422">
  <!-- svg-source:excalidraw -->
  
  <defs>
    <style class="style-fonts">
      @font-face {
        font-family: "Virgil";
        src: url("https://excalidraw.com/Virgil.woff2");
      }
      @font-face {
        font-family: "Cascadia";
        src: url("https://excalidraw.com/Cascadia.woff2");
      }
    </style>
  </defs>
  <g transform="translate(95.34601923296032 10) rotate(0 69.62729004179255 6.4555103350003264)"><text x="69.62729004179255" y="10.911020670001268" font-family="Helvetica, Segoe UI Emoji" font-size="11.104981199448812px" fill="black" text-anchor="middle" style="white-space: pre;" direction="ltr">Clases de enlaces químicos</text></g><g stroke-linecap="round"><g transform="translate(161.02441039761834 23.83316278170969) rotate(0 0.016465102928123088 7.523376044122415)"><path d="M0 0 C0.01 2.51, 0.03 12.54, 0.03 15.05 M0 0 C0.01 2.51, 0.03 12.54, 0.03 15.05" stroke="black" stroke-width="1" fill="none"></path></g></g><mask></mask><g stroke-linecap="round"><g transform="translate(160.73616652383134 35.2275432950355) rotate(0 -47.88637380020373 0.16832028604494553)"><path d="M0 0 C-15.96 0.06, -79.81 0.28, -95.77 0.34 M0 0 C-15.96 0.06, -79.81 0.28, -95.77 0.34" stroke="black" stroke-width="1" fill="none"></path></g></g><mask></mask><g stroke-linecap="round"><g transform="translate(256.4765875866133 34.902432699262135) rotate(0 -47.88637380020373 0.16832028604494553)"><path d="M0 0 C-15.96 0.06, -79.81 0.28, -95.77 0.34 M0 0 C-15.96 0.06, -79.81 0.28, -95.77 0.34" stroke="black" stroke-width="1" fill="none"></path></g></g><mask></mask><g transform="translate(53.11564447117962 39.71814913762864) rotate(0 14.946650280680615 5.173840481774278)"><text x="14.946650280680556" y="8.347680963548077" font-family="Helvetica, Segoe UI Emoji" font-size="9.197938634264958px" fill="black" text-anchor="middle" style="white-space: pre;" direction="ltr">Iónicos</text></g><g transform="translate(27.988660867746148 69.76391975539082) rotate(0 41.161172765265974 4.42593255540487)"><text x="41.161172765265974" y="6.851865110809882" font-family="Helvetica, Segoe UI Emoji" font-size="8.141891208802027px" fill="black" text-anchor="middle" style="white-space: pre;" direction="ltr">Entre metal y no metal</text></g><g stroke-linecap="round"><g transform="translate(65.23469366087375 51.32371452004918) rotate(0 0 8.364162667749952)"><path d="M0 0 C0 2.79, 0 13.94, 0 16.73 M0 0 C0 2.79, 0 13.94, 0 16.73" stroke="black" stroke-width="1" fill="none"></path></g></g><mask></mask><g transform="translate(10 99.75888233969272) rotate(0 46 9)"><text x="46" y="7" font-family="Helvetica, Segoe UI Emoji" font-size="8.141891208802027px" fill="black" text-anchor="middle" style="white-space: pre;" direction="ltr">Rango de diferencia de </text><text x="46" y="16" font-family="Helvetica, Segoe UI Emoji" font-size="8.141891208802027px" fill="black" text-anchor="middle" style="white-space: pre;" direction="ltr">electronegatividad &gt;= 1.7</text></g><g stroke-linecap="round"><g transform="translate(64.65401199391044 35.62580541400166) rotate(0 0 1.7305754648823495)"><path d="M0 0 C0 0.58, 0 2.88, 0 3.46 M0 0 C0 0.58, 0 2.88, 0 3.46" stroke="black" stroke-width="1" fill="none"></path></g></g><mask></mask><g transform="translate(138.47343225434588 40.36205878236251) rotate(0 23.5 5)"><text x="23.5" y="8" font-family="Helvetica, Segoe UI Emoji" font-size="9.197938634264958px" fill="black" text-anchor="middle" style="white-space: pre;" direction="ltr">Covalentes</text></g><g stroke-linecap="round"><g transform="translate(160.95544668676803 51.96889016762907) rotate(0 0 7.508017010881304)"><path d="M0 0 C0 2.5, 0 12.51, 0 15.02 M0 0 C0 2.5, 0 12.51, 0 15.02" stroke="black" stroke-width="1" fill="none"></path></g></g><mask></mask><g stroke-linecap="round"><g transform="translate(65.00738342373415 80.29699083587002) rotate(0 -3.029908044455169 6.671372399358916)"><path d="M0 0 C-1.01 2.22, -5.05 11.12, -6.06 13.34 M0 0 C-1.01 2.22, -5.05 11.12, -6.06 13.34" stroke="black" stroke-width="1" fill="none"></path></g></g><mask></mask><g transform="translate(133.57935911974118 69.50787198386388) rotate(0 31.5 4.5)"><text x="31.5" y="7" font-family="Helvetica, Segoe UI Emoji" font-size="8.141891208802027px" fill="black" text-anchor="middle" style="white-space: pre;" direction="ltr">Entre no metales</text></g><g stroke-linecap="round"><g transform="translate(162.91615859291232 80.73025867286742) rotate(0 -12.731836630918224 13.773334625137977)"><path d="M0 0 C-4.24 4.59, -21.22 22.96, -25.46 27.55 M0 0 C-4.24 4.59, -21.22 22.96, -25.46 27.55" stroke="black" stroke-width="1" fill="none"></path></g></g><mask></mask><g stroke-linecap="round"><g transform="translate(163.21949144605742 80.8529314377156) rotate(180 12.731836630918224 13.773334625137977)"><path d="M0 0 C4.24 4.59, 21.22 22.96, 25.46 27.55 M0 0 C4.24 4.59, 21.22 22.96, 25.46 27.55" stroke="black" stroke-width="1" fill="none"></path></g></g><mask></mask><g transform="translate(125.65627801402752 112.53132847520646) rotate(0 10 4.5)"><text x="10" y="7" font-family="Helvetica, Segoe UI Emoji" font-size="8.141891208802027px" fill="black" text-anchor="middle" style="white-space: pre;" direction="ltr">Polar</text></g><g transform="translate(177.58105348438175 113.7303330189734) rotate(0 16 4.5)"><text x="16" y="7" font-family="Helvetica, Segoe UI Emoji" font-size="8.141891208802027px" fill="black" text-anchor="middle" style="white-space: pre;" direction="ltr">No polar</text></g><g stroke-linecap="round"><g transform="translate(135.6573947613515 123.55307821922906) rotate(0 -8.912620665839995 13.136798630957855)"><path d="M0 0 C-2.97 4.38, -14.85 21.89, -17.83 26.27 M0 0 C-2.97 4.38, -14.85 21.89, -17.83 26.27" stroke="black" stroke-width="1" fill="none"></path></g></g><mask></mask><g transform="translate(68.46791023519745 153.1955646581173) rotate(0 43 13.5)"><text x="43" y="7" font-family="Helvetica, Segoe UI Emoji" font-size="8.141891208802027px" fill="black" text-anchor="middle" style="white-space: pre;" direction="ltr">Rango de diferencia </text><text x="43" y="16" font-family="Helvetica, Segoe UI Emoji" font-size="8.141891208802027px" fill="black" text-anchor="middle" style="white-space: pre;" direction="ltr">de electronegatividades</text><text x="43" y="25" font-family="Helvetica, Segoe UI Emoji" font-size="8.141891208802027px" fill="black" text-anchor="middle" style="white-space: pre;" direction="ltr">entre 0.4 y 1.7</text></g><g stroke-linecap="round"><g transform="translate(111.15075898543228 181.15958569249415) rotate(0 -0.0011167473239765968 9.158448667334596)"><path d="M0 0 C0 3.05, 0 15.26, 0 18.32 M0 0 C0 3.05, 0 15.26, 0 18.32" stroke="black" stroke-width="1" fill="none"></path></g></g><mask></mask><g transform="translate(70.1496422381083 202.4386081255634) rotate(0 41 9)"><text x="41" y="7" font-family="Helvetica, Segoe UI Emoji" font-size="8.141891208802027px" fill="black" text-anchor="middle" style="white-space: pre;" direction="ltr">Se da entre elementos</text><text x="41" y="16" font-family="Helvetica, Segoe UI Emoji" font-size="8.141891208802027px" fill="black" text-anchor="middle" style="white-space: pre;" direction="ltr"> diferentes</text></g><g stroke-linecap="round"><g transform="translate(195.48954471959996 126.19164146777439) rotate(180 8.912620665839995 13.136798630957855)"><path d="M0 0 C2.97 4.38, 14.85 21.89, 17.83 26.27 M0 0 C2.97 4.38, 14.85 21.89, 17.83 26.27" stroke="black" stroke-width="1" fill="none"></path></g></g><mask></mask><g transform="translate(171.5867412923144 153.92451992412316) rotate(0 43 13.5)"><text x="43" y="7" font-family="Helvetica, Segoe UI Emoji" font-size="8.141891208802027px" fill="black" text-anchor="middle" style="white-space: pre;" direction="ltr">Rango de diferencia </text><text x="43" y="16" font-family="Helvetica, Segoe UI Emoji" font-size="8.141891208802027px" fill="black" text-anchor="middle" style="white-space: pre;" direction="ltr">de electronegatividades</text><text x="43" y="25" font-family="Helvetica, Segoe UI Emoji" font-size="8.141891208802027px" fill="black" text-anchor="middle" style="white-space: pre;" direction="ltr">entre 0 y 0.4</text></g><g stroke-linecap="round"><g transform="translate(217.7705380105367 182.91005967648744) rotate(0 -0.0011167473239765968 9.158448667334596)"><path d="M0 0 C0 3.05, 0 15.26, 0 18.32 M0 0 C0 3.05, 0 15.26, 0 18.32" stroke="black" stroke-width="1" fill="none"></path></g></g><mask></mask><g transform="translate(174.54154528358367 204.07419615175422) rotate(0 41 9)"><text x="41" y="7" font-family="Helvetica, Segoe UI Emoji" font-size="8.141891208802027px" fill="black" text-anchor="middle" style="white-space: pre;" direction="ltr">Se da entre elementos</text><text x="41" y="16" font-family="Helvetica, Segoe UI Emoji" font-size="8.141891208802027px" fill="black" text-anchor="middle" style="white-space: pre;" direction="ltr"> iguales</text></g><g stroke-linecap="round"><g transform="translate(256.4110601100019 35.06204171440004) rotate(0 0 1.7305754648823495)"><path d="M0 0 C0 0.58, 0 2.88, 0 3.46 M0 0 C0 0.58, 0 2.88, 0 3.46" stroke="black" stroke-width="1" fill="none"></path></g></g><mask></mask><g transform="translate(222.3990488383538 40.61399170156801) rotate(0 29 5)"><text x="29" y="8" font-family="Helvetica, Segoe UI Emoji" font-size="9.197938634264958px" fill="black" text-anchor="middle" style="white-space: pre;" direction="ltr">Entre metales</text></g></svg>