<svg xmlns="http://www.w3.org/2000/svg" xmlns:xlink="http://www.w3.org/1999/xlink" width="51.390625" height="43.171875" style="width:51.390625px;height:43.171875px;font-family:Asana-Math, Asana;background:#FFF;"><g><g><g><g transform="matrix(1,0,0,1,2,27.390625)"><path transform="matrix(0.017,0,0,-0.017,0,0)" d="M414 219C414 421 307 461 236 461C125 461 35 355 35 226C35 94 131 -11 251 -11C314 -11 371 13 410 41L404 106C341 54 275 50 252 50C172 50 108 121 105 219ZM110 274C126 350 179 400 236 400C288 400 344 366 357 274Z" stroke="rgb(0,0,0)" stroke-opacity="1" stroke-width="8" fill="rgb(0,0,0)" fill-opacity="1"></path></g></g><g><g transform="matrix(1,0,0,1,18.859375,27.390625)"><path transform="matrix(0.017,0,0,-0.017,0,0)" d="M604 347L604 406L65 406L65 347ZM604 134L604 193L65 193L65 134Z" stroke="rgb(0,0,0)" stroke-opacity="1" stroke-width="8" fill="rgb(0,0,0)" fill-opacity="1"></path></g></g><g><g transform="matrix(1,0,0,1,35.3125,27.390625)"><path transform="matrix(0.017,0,0,-0.017,0,0)" d="" stroke="rgb(0,0,0)" stroke-opacity="1" stroke-width="8" fill="rgb(0,0,0)" fill-opacity="1"></path></g></g><g><g><g><g><g transform="matrix(1,0,0,1,41.546875,15)"><path transform="matrix(0.017,0,0,-0.017,0,0)" d="M410 418C351 452 317 461 256 461C117 461 36 340 36 222C36 98 127 -11 252 -11C306 -11 361 3 415 40L409 107C358 67 304 53 253 53C170 53 114 125 114 223C114 301 151 397 257 397C309 397 343 389 398 353Z" stroke="rgb(0,0,0)" stroke-opacity="1" stroke-width="8" fill="rgb(0,0,0)" fill-opacity="1"></path></g></g></g></g><g><g><g><g transform="matrix(1,0,0,1,41.234375,40.78125)"><path transform="matrix(0.017,0,0,-0.017,0,0)" d="M399 289C399 391 326 461 234 461C169 461 124 445 77 418L83 352C135 389 185 402 234 402C281 402 321 362 321 288L321 245C171 243 44 201 44 113C44 70 71 -11 158 -11C172 -11 266 -9 324 36L324 0L399 0ZM321 132C321 113 321 88 287 69C258 51 220 50 209 50C161 50 116 73 116 115C116 185 278 192 321 194Z" stroke="rgb(0,0,0)" stroke-opacity="1" stroke-width="8" fill="rgb(0,0,0)" fill-opacity="1"></path></g></g></g></g><line style="fill:none;stroke-width:1px;stroke:rgb(0, 0, 0);" x1="41.234375" y1="23.140625" x2="49.390625" y2="23.140625"></line></g></g></g></svg>