<svg version="1.1" xmlns="http://www.w3.org/2000/svg" viewBox="0 0 654 167.5" width="1308" height="335">
  <!-- svg-source:excalidraw -->
  
  <defs>
    <style>
      @font-face {
        font-family: "Virgil";
        src: url("https://excalidraw.com/Virgil.woff2");
      }
      @font-face {
        font-family: "Cascadia";
        src: url("https://excalidraw.com/Cascadia.woff2");
      }
    </style>
  </defs>
  <g transform="translate(34 10) rotate(0 58.5 12.5)"><text x="0" y="18" font-family="Virgil, Segoe UI Emoji" font-size="20px" fill="#000000" text-anchor="start" style="white-space: pre;" direction="ltr">8 mol HNO3</text></g><g stroke-linecap="round"><g transform="translate(10 37.5) rotate(0 80.5 -1)"><path d="M0 0 C26.83 -0.33, 134.17 -1.67, 161 -2 M0 0 C26.83 -0.33, 134.17 -1.67, 161 -2" stroke="#000000" stroke-width="1" fill="none"></path></g></g><g transform="translate(18.5 42) rotate(0 79 12.5)"><text x="0" y="18" font-family="Virgil, Segoe UI Emoji" font-size="20px" fill="#000000" text-anchor="start" style="white-space: pre;" direction="ltr">3 mol Cu(NO3)2</text></g><g transform="translate(194 39.5) rotate(0 6 -6)" stroke="none"><path fill="#000000" d="M -1.50,-1.50 Q -1.50,-1.50 -0.00,-2.88 1.48,-4.26 3.01,-5.68 4.54,-7.10 5.72,-8.32 6.90,-9.54 8.73,-11.48 10.56,-13.43 10.83,-13.62 11.09,-13.81 11.41,-13.91 11.72,-14.01 12.05,-14.00 12.38,-13.99 12.69,-13.88 12.99,-13.76 13.25,-13.56 13.51,-13.35 13.68,-13.07 13.86,-12.80 13.94,-12.48 14.02,-12.16 13.99,-11.83 13.97,-11.50 13.84,-11.20 13.71,-10.90 13.49,-10.66 13.27,-10.41 12.98,-10.25 12.69,-10.09 12.37,-10.03 12.05,-9.97 11.72,-10.01 11.40,-10.05 11.10,-10.20 10.81,-10.35 10.58,-10.58 10.35,-10.81 10.20,-11.11 10.05,-11.40 10.01,-11.72 9.97,-12.05 10.03,-12.37 10.09,-12.70 10.25,-12.98 10.41,-13.27 10.66,-13.49 10.90,-13.71 11.20,-13.84 11.51,-13.97 11.83,-13.99 12.16,-14.02 12.48,-13.94 12.80,-13.86 13.07,-13.68 13.35,-13.51 13.56,-13.25 13.76,-12.99 13.88,-12.69 13.99,-12.38 14.00,-12.05 14.01,-11.72 13.91,-11.41 13.81,-11.09 13.62,-10.83 13.43,-10.56 13.43,-10.56 13.43,-10.56 11.48,-8.73 9.54,-6.90 8.32,-5.72 7.10,-4.54 5.68,-3.01 4.26,-1.48 2.88,0.00 1.50,1.50 1.30,1.66 1.10,1.82 0.86,1.92 0.63,2.03 0.38,2.07 0.12,2.12 -0.12,2.10 -0.38,2.09 -0.62,2.01 -0.87,1.94 -1.09,1.80 -1.31,1.67 -1.49,1.49 -1.67,1.31 -1.80,1.09 -1.94,0.87 -2.01,0.62 -2.09,0.38 -2.10,0.12 -2.12,-0.12 -2.07,-0.38 -2.03,-0.63 -1.92,-0.86 -1.82,-1.10 -1.66,-1.30 -1.50,-1.50 -1.50,-1.50 L -1.50,-1.50 Z"></path></g><g transform="translate(195 29.5) rotate(0 3.5 4.5)" stroke="none"><path fill="#000000" d="M 1.70,-1.42 Q 1.70,-1.42 3.05,0.37 4.39,2.17 5.55,3.46 6.71,4.74 7.77,6.32 8.82,7.90 8.95,8.22 9.08,8.54 9.10,8.89 9.11,9.23 9.02,9.56 8.93,9.90 8.73,10.18 8.54,10.47 8.26,10.67 7.99,10.88 7.66,10.99 7.33,11.10 6.99,11.10 6.64,11.10 6.32,10.99 5.99,10.88 5.72,10.67 5.44,10.46 5.25,10.17 5.06,9.88 4.97,9.55 4.88,9.22 4.89,8.87 4.91,8.53 5.04,8.21 5.17,7.89 5.40,7.63 5.62,7.37 5.92,7.19 6.21,7.01 6.55,6.94 6.89,6.87 7.23,6.90 7.57,6.94 7.88,7.09 8.20,7.23 8.45,7.47 8.70,7.71 8.86,8.02 9.02,8.32 9.07,8.66 9.13,9.00 9.07,9.34 9.01,9.68 8.85,9.99 8.69,10.29 8.44,10.53 8.19,10.76 7.87,10.91 7.56,11.05 7.22,11.09 6.87,11.12 6.54,11.05 6.20,10.97 5.90,10.79 5.61,10.62 5.39,10.35 5.16,10.09 5.16,10.09 5.17,10.09 4.47,8.73 3.78,7.38 2.56,6.05 1.35,4.72 -0.17,3.07 -1.70,1.42 -1.85,1.19 -2.00,0.97 -2.08,0.72 -2.17,0.46 -2.19,0.19 -2.22,-0.06 -2.18,-0.33 -2.14,-0.59 -2.04,-0.84 -1.93,-1.09 -1.77,-1.30 -1.61,-1.52 -1.41,-1.69 -1.20,-1.86 -0.96,-1.98 -0.72,-2.10 -0.46,-2.15 -0.20,-2.21 0.06,-2.20 0.33,-2.19 0.59,-2.12 0.85,-2.05 1.08,-1.92 1.31,-1.79 1.51,-1.60 1.70,-1.42 1.70,-1.42 L 1.70,-1.42 Z"></path></g><g transform="translate(202 38.5) rotate(0 1 0.5)" stroke="none"><path fill="#000000" d="M 2.12,-0.66 Q 2.12,-0.66 2.15,-0.13 2.18,0.40 1.96,0.88 1.74,1.36 1.32,1.69 0.91,2.02 0.38,2.12 -0.13,2.21 -0.64,2.05 -1.14,1.90 -1.52,1.52 -1.90,1.14 -2.05,0.64 -2.21,0.13 -2.12,-0.38 -2.02,-0.91 -1.69,-1.32 -1.36,-1.74 -0.88,-1.96 -0.39,-2.18 0.13,-2.15 0.66,-2.11 1.11,-1.84 1.57,-1.56 1.84,-1.11 L 2.12,-0.66 Z"></path></g><g transform="translate(11 128.5) rotate(0 18.5 1)" stroke="none"><path fill="#000000" d="M 0,-1.97 Q 0,-1.97 2.87,-1.88 5.75,-1.79 9.33,-1.44 12.92,-1.08 16.11,-0.91 19.29,-0.75 22.08,-0.66 24.87,-0.57 27.21,-0.52 29.55,-0.48 31.26,-0.25 32.97,-0.02 35.08,0.07 37.18,0.18 37.46,0.26 37.75,0.33 38.00,0.50 38.24,0.66 38.42,0.89 38.60,1.13 38.70,1.41 38.79,1.69 38.80,1.98 38.80,2.28 38.71,2.56 38.61,2.84 38.44,3.08 38.26,3.31 38.02,3.48 37.77,3.65 37.49,3.73 37.21,3.81 36.91,3.79 36.62,3.78 36.34,3.67 36.06,3.57 35.84,3.38 35.61,3.19 35.46,2.93 35.30,2.68 35.24,2.39 35.17,2.11 35.20,1.81 35.23,1.52 35.35,1.25 35.48,0.98 35.68,0.77 35.88,0.55 36.14,0.41 36.40,0.27 36.69,0.22 36.98,0.17 37.27,0.21 37.57,0.26 37.83,0.40 38.09,0.53 38.29,0.75 38.50,0.96 38.63,1.23 38.75,1.49 38.78,1.79 38.82,2.08 38.76,2.37 38.70,2.66 38.55,2.91 38.39,3.17 38.17,3.36 37.95,3.55 37.67,3.66 37.40,3.78 37.10,3.79 36.81,3.81 36.81,3.81 36.81,3.81 34.59,3.48 32.37,3.14 30.94,2.78 29.51,2.41 27.17,2.42 24.82,2.42 22.00,2.40 19.17,2.38 15.91,2.31 12.65,2.23 9.20,2.01 5.74,1.79 2.87,1.88 0,1.97 -0.23,1.94 -0.47,1.91 -0.69,1.83 -0.91,1.74 -1.11,1.61 -1.31,1.47 -1.46,1.30 -1.62,1.12 -1.73,0.91 -1.84,0.70 -1.90,0.46 -1.96,0.23 -1.96,-0.00 -1.96,-0.23 -1.90,-0.46 -1.84,-0.70 -1.73,-0.91 -1.62,-1.12 -1.46,-1.30 -1.31,-1.47 -1.11,-1.61 -0.91,-1.74 -0.69,-1.83 -0.47,-1.91 -0.23,-1.94 0.00,-1.97 0.00,-1.97 L 0,-1.97 Z"></path></g><g transform="translate(16 119.5) rotate(0 16 0.5)" stroke="none"><path fill="#000000" d="M 0,-1.99 Q 0,-1.99 2.01,-1.93 4.02,-1.87 6.60,-1.79 9.18,-1.72 12.00,-1.66 14.82,-1.61 17.75,-1.57 20.67,-1.53 23.15,-1.20 25.63,-0.88 27.20,-0.84 28.77,-0.80 30.43,-0.81 32.09,-0.82 32.38,-0.76 32.67,-0.69 32.92,-0.54 33.18,-0.39 33.37,-0.16 33.56,0.05 33.67,0.33 33.78,0.60 33.79,0.90 33.81,1.19 33.73,1.48 33.65,1.76 33.49,2.01 33.32,2.25 33.09,2.43 32.85,2.61 32.57,2.70 32.29,2.80 32.00,2.80 31.70,2.80 31.42,2.70 31.14,2.61 30.90,2.43 30.67,2.25 30.50,2.01 30.34,1.76 30.26,1.48 30.18,1.19 30.20,0.90 30.21,0.60 30.32,0.33 30.43,0.05 30.62,-0.16 30.81,-0.39 31.07,-0.54 31.32,-0.69 31.61,-0.76 31.90,-0.82 32.19,-0.79 32.48,-0.76 32.75,-0.63 33.02,-0.51 33.23,-0.30 33.45,-0.10 33.59,0.15 33.73,0.41 33.77,0.70 33.82,0.99 33.77,1.29 33.73,1.58 33.59,1.84 33.45,2.10 33.23,2.30 33.02,2.51 32.75,2.63 32.48,2.75 32.19,2.79 31.90,2.82 31.90,2.82 31.90,2.82 30.21,2.63 28.52,2.44 26.90,2.24 25.28,2.03 22.98,1.78 20.67,1.53 17.75,1.57 14.82,1.61 12.00,1.66 9.18,1.72 6.60,1.79 4.02,1.87 2.01,1.93 0,1.99 -0.23,1.96 -0.47,1.93 -0.70,1.85 -0.92,1.76 -1.12,1.63 -1.32,1.49 -1.48,1.31 -1.64,1.13 -1.75,0.92 -1.86,0.70 -1.92,0.47 -1.98,0.24 -1.98,-0.00 -1.98,-0.24 -1.92,-0.47 -1.86,-0.70 -1.75,-0.92 -1.64,-1.13 -1.48,-1.31 -1.32,-1.49 -1.12,-1.63 -0.92,-1.76 -0.70,-1.85 -0.47,-1.93 -0.23,-1.96 0.00,-1.99 0.00,-1.99 L 0,-1.99 Z"></path></g><g transform="translate(235.75 14) rotate(0 75 12.5)"><text x="0" y="18" font-family="Virgil, Segoe UI Emoji" font-size="20px" fill="#000000" text-anchor="start" style="white-space: pre;" direction="ltr">1 mol Cu(NO3)2</text></g><g stroke-linecap="round"><g transform="translate(220.75 41.5) rotate(0 88.5 -1)"><path d="M0 0 C29.5 -0.33, 147.5 -1.67, 177 -2 M0 0 C29.5 -0.33, 147.5 -1.67, 177 -2" stroke="#000000" stroke-width="1" fill="none"></path></g></g><g transform="translate(217.25 47) rotate(0 91.5 12.5)"><text x="0" y="18" font-family="Virgil, Segoe UI Emoji" font-size="20px" fill="#000000" text-anchor="start" style="white-space: pre;" direction="ltr">187,5 gr Cu(NO3)2</text></g><g transform="translate(71 101.5) rotate(0 57.5 12.5)"><text x="0" y="18" font-family="Virgil, Segoe UI Emoji" font-size="20px" fill="#000000" text-anchor="start" style="white-space: pre;" direction="ltr">6 mol HNO3</text></g><g stroke-linecap="round"><g transform="translate(68 129) rotate(0 57 0)"><path d="M0 0 C19 0, 95 0, 114 0 M0 0 C19 0, 95 0, 114 0" stroke="#000000" stroke-width="1" fill="none"></path></g></g><g transform="translate(94.5 132.5) rotate(0 29 12.5)"><text x="0" y="18" font-family="Virgil, Segoe UI Emoji" font-size="20px" fill="#000000" text-anchor="start" style="white-space: pre;" direction="ltr">562,5</text></g><g transform="translate(426 40.5) rotate(0 6 -6)" stroke="none"><path fill="#000000" d="M -1.50,-1.50 Q -1.50,-1.50 -0.01,-2.88 1.48,-4.26 3.01,-5.68 4.53,-7.10 5.72,-8.32 6.90,-9.54 8.39,-11.14 9.88,-12.75 10.14,-12.94 10.41,-13.13 10.73,-13.23 11.04,-13.32 11.37,-13.32 11.70,-13.31 12.00,-13.19 12.31,-13.08 12.57,-12.87 12.82,-12.67 13.00,-12.39 13.18,-12.11 13.26,-11.80 13.34,-11.48 13.31,-11.15 13.28,-10.82 13.15,-10.52 13.02,-10.22 12.80,-9.98 12.58,-9.73 12.30,-9.57 12.01,-9.41 11.69,-9.35 11.37,-9.28 11.04,-9.33 10.72,-9.37 10.42,-9.52 10.13,-9.66 9.90,-9.90 9.66,-10.13 9.52,-10.42 9.37,-10.72 9.33,-11.04 9.28,-11.37 9.35,-11.69 9.41,-12.01 9.57,-12.30 9.73,-12.58 9.98,-12.80 10.22,-13.02 10.52,-13.15 10.82,-13.28 11.15,-13.31 11.48,-13.34 11.80,-13.26 12.12,-13.18 12.39,-13.00 12.67,-12.82 12.87,-12.57 13.08,-12.31 13.19,-12.00 13.31,-11.69 13.32,-11.37 13.32,-11.04 13.23,-10.72 13.13,-10.41 12.94,-10.14 12.75,-9.88 12.75,-9.88 12.75,-9.88 11.14,-8.39 9.54,-6.90 8.32,-5.72 7.10,-4.53 5.68,-3.01 4.26,-1.48 2.88,0.01 1.50,1.50 1.30,1.66 1.10,1.82 0.86,1.93 0.63,2.03 0.38,2.08 0.12,2.12 -0.12,2.11 -0.38,2.09 -0.63,2.02 -0.87,1.94 -1.09,1.81 -1.31,1.67 -1.49,1.49 -1.67,1.31 -1.81,1.09 -1.94,0.87 -2.02,0.62 -2.09,0.38 -2.11,0.12 -2.12,-0.12 -2.08,-0.38 -2.03,-0.63 -1.93,-0.86 -1.82,-1.10 -1.66,-1.30 -1.50,-1.50 -1.50,-1.50 L -1.50,-1.50 Z"></path></g><g transform="translate(427 30.5) rotate(0 3.5 4.5)" stroke="none"><path fill="#000000" d="M 1.69,-1.41 Q 1.69,-1.41 3.04,0.38 4.39,2.18 6.43,4.79 8.47,7.39 8.60,7.71 8.72,8.02 8.74,8.36 8.76,8.70 8.67,9.02 8.57,9.35 8.38,9.63 8.19,9.91 7.92,10.11 7.65,10.32 7.33,10.42 7.01,10.53 6.67,10.53 6.33,10.53 6.01,10.42 5.69,10.31 5.42,10.10 5.16,9.90 4.97,9.62 4.78,9.34 4.69,9.01 4.60,8.68 4.62,8.35 4.64,8.01 4.76,7.70 4.89,7.38 5.11,7.12 5.33,6.87 5.62,6.69 5.91,6.52 6.24,6.45 6.57,6.38 6.91,6.41 7.24,6.45 7.55,6.59 7.86,6.74 8.10,6.97 8.35,7.20 8.50,7.50 8.66,7.80 8.72,8.14 8.77,8.47 8.71,8.81 8.66,9.14 8.50,9.44 8.34,9.74 8.09,9.97 7.85,10.20 7.54,10.34 7.23,10.48 6.89,10.52 6.56,10.55 6.23,10.48 5.90,10.41 5.61,10.23 5.32,10.05 5.10,9.80 4.88,9.54 4.88,9.54 4.88,9.54 3.12,7.12 1.35,4.71 -0.16,3.06 -1.69,1.41 -1.84,1.19 -1.98,0.96 -2.07,0.71 -2.15,0.46 -2.18,0.19 -2.20,-0.06 -2.16,-0.33 -2.12,-0.59 -2.02,-0.83 -1.92,-1.08 -1.76,-1.29 -1.60,-1.51 -1.40,-1.68 -1.19,-1.85 -0.95,-1.97 -0.72,-2.08 -0.46,-2.14 -0.19,-2.19 0.06,-2.19 0.33,-2.18 0.58,-2.11 0.84,-2.04 1.07,-1.90 1.30,-1.77 1.50,-1.59 1.69,-1.41 1.69,-1.41 L 1.69,-1.41 Z"></path></g><g transform="translate(434 39.5) rotate(0 1 0.5)" stroke="none"><path fill="#000000" d="M 2.12,-0.66 Q 2.12,-0.66 2.15,-0.13 2.18,0.40 1.96,0.88 1.74,1.36 1.32,1.69 0.91,2.02 0.38,2.12 -0.13,2.21 -0.64,2.05 -1.14,1.90 -1.52,1.52 -1.90,1.14 -2.05,0.64 -2.21,0.13 -2.12,-0.38 -2.02,-0.91 -1.69,-1.32 -1.36,-1.74 -0.88,-1.96 -0.39,-2.18 0.13,-2.15 0.66,-2.11 1.11,-1.84 1.57,-1.56 1.84,-1.11 L 2.12,-0.66 Z"></path></g><g transform="translate(459.75 24) rotate(0 88 12.5)"><text x="0" y="18" font-family="Virgil, Segoe UI Emoji" font-size="20px" fill="#000000" text-anchor="start" style="white-space: pre;" direction="ltr">0,75 gr Cu(NO3)2</text></g><g stroke-opacity="0.3" fill-opacity="0.3" transform="translate(48 60.5) rotate(0 62.5 -8)" stroke="none"><path fill="#000000" d="M -0.59,-1.48 Q -0.59,-1.48 0.82,-2.13 2.24,-2.77 5.10,-3.01 7.97,-3.26 11.66,-3.60 15.36,-3.95 19.81,-4.37 24.27,-4.80 30.78,-5.26 37.29,-5.72 44.34,-6.48 51.39,-7.24 58.15,-7.84 64.90,-8.45 70.31,-9.28 75.73,-10.10 80.06,-10.74 84.40,-11.38 87.66,-11.93 90.92,-12.48 93.81,-12.73 96.70,-12.97 99.89,-13.35 103.08,-13.74 106.16,-14.19 109.23,-14.63 112.26,-15.11 115.30,-15.59 117.71,-16.08 120.13,-16.56 122.44,-17.06 124.75,-17.55 125.00,-17.55 125.26,-17.55 125.50,-17.47 125.74,-17.38 125.94,-17.23 126.15,-17.07 126.29,-16.86 126.43,-16.65 126.50,-16.40 126.56,-16.16 126.55,-15.90 126.53,-15.65 126.44,-15.41 126.34,-15.17 126.17,-14.98 126.01,-14.79 125.79,-14.66 125.57,-14.53 125.32,-14.47 125.07,-14.42 124.82,-14.45 124.56,-14.48 124.33,-14.59 124.10,-14.70 123.92,-14.87 123.73,-15.05 123.62,-15.28 123.50,-15.50 123.46,-15.75 123.42,-16.00 123.46,-16.26 123.51,-16.51 123.63,-16.73 123.75,-16.96 123.93,-17.13 124.12,-17.30 124.35,-17.41 124.58,-17.52 124.84,-17.54 125.09,-17.57 125.34,-17.51 125.59,-17.45 125.80,-17.32 126.02,-17.19 126.19,-16.99 126.35,-16.80 126.44,-16.56 126.54,-16.32 126.55,-16.07 126.56,-15.81 126.49,-15.57 126.42,-15.32 126.28,-15.11 126.13,-14.90 125.93,-14.75 125.72,-14.60 125.48,-14.52 125.24,-14.44 125.24,-14.44 125.24,-14.44 122.94,-14.21 120.65,-13.98 118.18,-13.48 115.71,-12.98 112.66,-12.50 109.62,-12.02 106.51,-11.56 103.40,-11.10 100.16,-10.71 96.92,-10.32 94.15,-10.08 91.37,-9.85 88.08,-9.28 84.79,-8.71 80.47,-8.06 76.14,-7.41 70.65,-6.56 65.15,-5.71 58.42,-5.08 51.70,-4.45 44.60,-3.65 37.51,-2.85 31.04,-2.35 24.57,-1.85 20.13,-1.37 15.68,-0.88 11.98,-0.45 8.27,-0.01 5.88,0.23 3.50,0.47 2.04,0.98 0.59,1.48 0.40,1.53 0.22,1.58 0.02,1.59 -0.16,1.59 -0.35,1.55 -0.54,1.50 -0.71,1.42 -0.88,1.33 -1.03,1.21 -1.18,1.08 -1.29,0.92 -1.40,0.77 -1.47,0.59 -1.55,0.41 -1.57,0.22 -1.60,0.02 -1.58,-0.16 -1.56,-0.35 -1.49,-0.53 -1.43,-0.71 -1.32,-0.88 -1.21,-1.04 -1.07,-1.17 -0.93,-1.30 -0.76,-1.39 -0.59,-1.48 -0.59,-1.48 L -0.59,-1.48 Z"></path></g><g stroke-opacity="0.3" fill-opacity="0.3" transform="translate(255 30.5) rotate(0 66.5 -8)" stroke="none"><path fill="#000000" d="M 0,-1.56 Q 0,-1.56 2.87,-1.52 5.75,-1.49 9.84,-1.46 13.94,-1.44 20.25,-1.71 26.56,-1.98 35.80,-3.23 45.05,-4.48 56.17,-6.45 67.28,-8.41 77.49,-10.11 87.70,-11.81 95.77,-13.10 103.85,-14.40 110.17,-15.24 116.50,-16.07 120.65,-16.43 124.79,-16.79 127.13,-16.94 129.47,-17.09 131.19,-17.28 132.90,-17.47 133.14,-17.45 133.38,-17.43 133.59,-17.33 133.81,-17.23 133.99,-17.07 134.16,-16.90 134.28,-16.69 134.39,-16.48 134.43,-16.25 134.48,-16.01 134.44,-15.77 134.40,-15.54 134.29,-15.32 134.18,-15.11 134.01,-14.95 133.84,-14.78 133.62,-14.68 133.41,-14.57 133.17,-14.54 132.93,-14.52 132.70,-14.56 132.46,-14.61 132.26,-14.73 132.05,-14.86 131.89,-15.04 131.73,-15.22 131.64,-15.44 131.55,-15.66 131.54,-15.90 131.52,-16.14 131.58,-16.37 131.64,-16.60 131.78,-16.80 131.91,-17.00 132.10,-17.15 132.29,-17.30 132.51,-17.37 132.74,-17.45 132.98,-17.46 133.22,-17.46 133.45,-17.38 133.67,-17.31 133.87,-17.17 134.06,-17.02 134.20,-16.83 134.33,-16.63 134.40,-16.40 134.47,-16.17 134.46,-15.93 134.44,-15.69 134.36,-15.47 134.27,-15.25 134.12,-15.06 133.97,-14.88 133.76,-14.75 133.56,-14.63 133.32,-14.57 133.09,-14.52 133.09,-14.52 133.09,-14.52 131.37,-14.48 129.64,-14.45 127.33,-14.30 125.02,-14.15 120.94,-13.79 116.85,-13.43 110.56,-12.59 104.28,-11.75 96.21,-10.45 88.14,-9.15 77.95,-7.44 67.76,-5.73 56.59,-3.74 45.42,-1.74 36.05,-0.45 26.69,0.83 20.31,1.13 13.94,1.44 9.84,1.46 5.75,1.49 2.87,1.52 0,1.56 -0.18,1.53 -0.37,1.51 -0.54,1.45 -0.72,1.38 -0.88,1.27 -1.03,1.16 -1.16,1.02 -1.28,0.88 -1.37,0.72 -1.46,0.55 -1.50,0.37 -1.55,0.18 -1.55,-0.00 -1.55,-0.18 -1.50,-0.37 -1.46,-0.55 -1.37,-0.72 -1.28,-0.88 -1.16,-1.02 -1.03,-1.16 -0.88,-1.27 -0.72,-1.38 -0.54,-1.45 -0.37,-1.51 -0.18,-1.53 0.00,-1.56 0.00,-1.56 L 0,-1.56 Z"></path></g><g stroke-opacity="0.3" fill-opacity="0.3" transform="translate(273 70.5) rotate(0 69.5 -9)" stroke="none"><path fill="#000000" d="M 0,-1.60 Q 0,-1.60 1.43,-1.69 2.87,-1.77 5.21,-1.71 7.54,-1.65 10.77,-1.88 13.99,-2.12 17.97,-2.50 21.95,-2.87 27.10,-3.31 32.26,-3.75 38.71,-4.78 45.16,-5.82 54.55,-7.12 63.95,-8.42 72.22,-9.83 80.50,-11.24 87.80,-12.13 95.09,-13.02 102.76,-14.25 110.42,-15.48 116.29,-16.30 122.16,-17.11 126.12,-17.46 130.07,-17.80 132.55,-18.23 135.03,-18.66 136.89,-19.03 138.75,-19.39 138.98,-19.40 139.21,-19.40 139.43,-19.33 139.65,-19.25 139.83,-19.12 140.02,-18.98 140.15,-18.79 140.28,-18.60 140.34,-18.38 140.41,-18.16 140.40,-17.93 140.38,-17.70 140.30,-17.49 140.22,-17.27 140.07,-17.10 139.92,-16.92 139.73,-16.80 139.53,-16.68 139.31,-16.63 139.08,-16.58 138.85,-16.60 138.63,-16.62 138.42,-16.72 138.21,-16.81 138.04,-16.97 137.87,-17.13 137.76,-17.33 137.65,-17.53 137.61,-17.76 137.57,-17.98 137.61,-18.21 137.65,-18.44 137.75,-18.64 137.86,-18.85 138.02,-19.01 138.19,-19.16 138.40,-19.26 138.60,-19.36 138.83,-19.39 139.06,-19.41 139.29,-19.37 139.51,-19.32 139.71,-19.20 139.91,-19.08 140.06,-18.91 140.21,-18.74 140.29,-18.52 140.38,-18.31 140.39,-18.08 140.41,-17.85 140.35,-17.63 140.29,-17.41 140.16,-17.22 140.03,-17.03 139.85,-16.89 139.67,-16.75 139.45,-16.67 139.24,-16.60 139.24,-16.60 139.24,-16.60 137.36,-16.32 135.48,-16.05 132.89,-15.60 130.31,-15.16 126.42,-14.82 122.52,-14.47 116.68,-13.65 110.85,-12.84 103.13,-11.59 95.42,-10.34 88.19,-9.45 80.96,-8.55 72.64,-7.12 64.33,-5.69 54.97,-4.36 45.61,-3.04 39.07,-1.96 32.52,-0.88 27.39,-0.39 22.25,0.09 18.26,0.53 14.26,0.97 10.90,1.31 7.54,1.65 5.21,1.71 2.87,1.77 1.43,1.69 0,1.60 -0.19,1.58 -0.38,1.56 -0.56,1.49 -0.74,1.42 -0.90,1.31 -1.06,1.20 -1.19,1.05 -1.32,0.91 -1.41,0.74 -1.50,0.57 -1.55,0.38 -1.59,0.19 -1.59,-0.00 -1.59,-0.19 -1.55,-0.38 -1.50,-0.57 -1.41,-0.74 -1.32,-0.91 -1.19,-1.05 -1.06,-1.20 -0.90,-1.31 -0.74,-1.42 -0.56,-1.49 -0.38,-1.56 -0.19,-1.58 0.00,-1.60 0.00,-1.60 L 0,-1.60 Z"></path></g><g stroke-opacity="0.3" fill-opacity="0.3" transform="translate(509 41.5) rotate(0 67.5 -6.5)" stroke="none"><path fill="#000000" d="M -0.42,-1.50 Q -0.42,-1.50 1.58,-2.05 3.60,-2.60 7.39,-3.40 11.17,-4.21 16.86,-4.84 22.54,-5.46 30.13,-6.01 37.72,-6.56 46.69,-7.07 55.67,-7.59 64.63,-8.37 73.59,-9.16 81.44,-9.79 89.29,-10.41 96.68,-10.67 104.07,-10.93 109.76,-11.33 115.45,-11.73 119.87,-12.18 124.29,-12.64 127.00,-13.11 129.70,-13.58 132.24,-14.07 134.78,-14.56 135.03,-14.55 135.29,-14.55 135.53,-14.46 135.77,-14.37 135.97,-14.21 136.17,-14.05 136.30,-13.84 136.44,-13.63 136.51,-13.38 136.57,-13.13 136.55,-12.88 136.53,-12.62 136.43,-12.39 136.33,-12.15 136.16,-11.96 135.99,-11.77 135.77,-11.64 135.55,-11.52 135.30,-11.47 135.04,-11.42 134.79,-11.45 134.54,-11.48 134.31,-11.60 134.08,-11.71 133.90,-11.89 133.72,-12.07 133.60,-12.30 133.49,-12.53 133.45,-12.78 133.42,-13.03 133.46,-13.28 133.51,-13.53 133.64,-13.76 133.76,-13.98 133.95,-14.15 134.14,-14.32 134.37,-14.42 134.61,-14.53 134.86,-14.55 135.12,-14.57 135.36,-14.51 135.61,-14.45 135.83,-14.31 136.04,-14.17 136.21,-13.98 136.37,-13.78 136.46,-13.54 136.54,-13.30 136.55,-13.04 136.56,-12.79 136.49,-12.54 136.41,-12.30 136.26,-12.09 136.12,-11.88 135.91,-11.73 135.70,-11.58 135.46,-11.51 135.21,-11.43 135.21,-11.43 135.21,-11.43 132.69,-11.21 130.16,-10.98 127.36,-10.49 124.57,-10.00 120.10,-9.54 115.64,-9.08 109.90,-8.67 104.17,-8.27 96.84,-8.00 89.51,-7.73 81.67,-7.10 73.83,-6.47 64.83,-5.66 55.83,-4.85 46.87,-4.32 37.92,-3.78 30.39,-3.22 22.86,-2.65 17.33,-2.00 11.79,-1.36 8.11,-0.52 4.44,0.30 2.43,0.90 0.42,1.50 0.24,1.53 0.05,1.56 -0.13,1.54 -0.31,1.53 -0.49,1.47 -0.67,1.41 -0.83,1.31 -0.99,1.20 -1.12,1.07 -1.25,0.93 -1.34,0.77 -1.44,0.60 -1.49,0.42 -1.54,0.24 -1.55,0.05 -1.55,-0.13 -1.52,-0.31 -1.48,-0.50 -1.40,-0.67 -1.31,-0.84 -1.19,-0.98 -1.07,-1.13 -0.92,-1.24 -0.77,-1.35 -0.60,-1.43 -0.42,-1.50 -0.42,-1.50 L -0.42,-1.50 Z"></path></g><g transform="translate(215.5 130) rotate(0 18.5 1)" stroke="none"><path fill="#000000" d="M 0,-1.96 Q 0,-1.96 2.87,-1.87 5.75,-1.78 9.33,-1.43 12.92,-1.07 16.11,-0.91 19.29,-0.74 22.08,-0.65 24.87,-0.57 27.21,-0.52 29.55,-0.47 31.26,-0.25 32.97,-0.02 34.68,0.06 36.39,0.14 36.67,0.22 36.95,0.29 37.19,0.45 37.43,0.61 37.61,0.84 37.78,1.07 37.88,1.34 37.97,1.62 37.97,1.90 37.97,2.19 37.88,2.46 37.79,2.74 37.62,2.97 37.45,3.20 37.21,3.36 36.97,3.53 36.70,3.61 36.42,3.68 36.13,3.67 35.84,3.66 35.58,3.55 35.31,3.45 35.09,3.26 34.87,3.08 34.72,2.83 34.57,2.59 34.50,2.31 34.44,2.02 34.47,1.74 34.50,1.45 34.61,1.19 34.73,0.93 34.93,0.72 35.13,0.51 35.38,0.37 35.63,0.23 35.92,0.18 36.20,0.14 36.49,0.18 36.77,0.22 37.03,0.36 37.28,0.49 37.48,0.70 37.68,0.91 37.80,1.17 37.93,1.43 37.96,1.71 37.99,2.00 37.93,2.28 37.87,2.56 37.73,2.81 37.58,3.06 37.36,3.25 37.14,3.43 36.88,3.54 36.61,3.65 36.32,3.67 36.03,3.69 36.03,3.69 36.03,3.69 34.20,3.41 32.37,3.14 30.94,2.77 29.51,2.41 27.17,2.41 24.82,2.41 22.00,2.40 19.17,2.38 15.91,2.30 12.65,2.22 9.20,2.00 5.74,1.78 2.87,1.87 0,1.96 -0.23,1.93 -0.46,1.90 -0.69,1.82 -0.91,1.73 -1.10,1.60 -1.30,1.46 -1.45,1.29 -1.61,1.11 -1.72,0.90 -1.83,0.69 -1.89,0.46 -1.94,0.23 -1.94,-0.00 -1.94,-0.23 -1.89,-0.46 -1.83,-0.69 -1.72,-0.90 -1.61,-1.11 -1.45,-1.29 -1.30,-1.46 -1.10,-1.60 -0.91,-1.73 -0.69,-1.82 -0.46,-1.90 -0.23,-1.93 0.00,-1.96 0.00,-1.96 L 0,-1.96 Z"></path></g><g transform="translate(220.5 121) rotate(0 16 0.5)" stroke="none"><path fill="#000000" d="M 0,-1.97 Q 0,-1.97 2.01,-1.91 4.02,-1.85 6.60,-1.78 9.18,-1.71 12.00,-1.65 14.82,-1.60 17.75,-1.56 20.67,-1.52 23.15,-1.20 25.63,-0.88 28.55,-0.76 31.48,-0.64 31.73,-0.59 31.99,-0.53 32.21,-0.40 32.44,-0.26 32.61,-0.06 32.78,0.13 32.87,0.37 32.97,0.61 32.98,0.88 33.00,1.14 32.93,1.39 32.86,1.64 32.71,1.86 32.56,2.08 32.36,2.23 32.15,2.39 31.90,2.48 31.65,2.56 31.39,2.56 31.13,2.56 30.88,2.48 30.63,2.39 30.42,2.23 30.21,2.08 30.07,1.86 29.92,1.64 29.85,1.39 29.78,1.14 29.79,0.88 29.81,0.61 29.91,0.37 30.00,0.13 30.17,-0.06 30.34,-0.26 30.57,-0.40 30.79,-0.53 31.05,-0.59 31.30,-0.64 31.56,-0.62 31.82,-0.59 32.06,-0.48 32.30,-0.37 32.49,-0.19 32.68,-0.01 32.80,0.21 32.92,0.45 32.97,0.70 33.01,0.96 32.97,1.22 32.92,1.48 32.80,1.71 32.68,1.94 32.49,2.12 32.30,2.30 32.06,2.41 31.82,2.52 31.56,2.55 31.30,2.58 31.30,2.58 31.30,2.58 28.29,2.30 25.28,2.03 22.98,1.77 20.67,1.52 17.75,1.56 14.82,1.60 12.00,1.65 9.18,1.71 6.60,1.78 4.02,1.85 2.01,1.91 0,1.97 -0.23,1.94 -0.47,1.91 -0.69,1.83 -0.91,1.74 -1.11,1.61 -1.31,1.47 -1.46,1.30 -1.62,1.12 -1.73,0.91 -1.84,0.70 -1.90,0.46 -1.96,0.23 -1.96,-0.00 -1.96,-0.23 -1.90,-0.46 -1.84,-0.70 -1.73,-0.91 -1.62,-1.12 -1.46,-1.30 -1.30,-1.47 -1.11,-1.61 -0.91,-1.74 -0.69,-1.83 -0.47,-1.91 -0.23,-1.94 0.00,-1.97 0.00,-1.97 L 0,-1.97 Z"></path></g><g transform="translate(264.5 113) rotate(0 77 12.5)"><text x="0" y="18" font-family="Virgil, Segoe UI Emoji" font-size="20px" fill="#000000" text-anchor="start" style="white-space: pre;" direction="ltr">0,010 mol HNO3</text></g></svg>