<svg version="1.1" xmlns="http://www.w3.org/2000/svg" viewBox="0 0 969.3398410303384 216.22785421025856" width="1938.679682060677" height="432.4557084205171">
  <!-- svg-source:excalidraw -->
  
  <defs>
    <style>
      @font-face {
        font-family: "Virgil";
        src: url("https://excalidraw.com/Virgil.woff2");
      }
      @font-face {
        font-family: "Cascadia";
        src: url("https://excalidraw.com/Cascadia.woff2");
      }
    </style>
  </defs>
  <g stroke-linecap="round"><g transform="translate(10 47.241877305465096) rotate(0 95.90677241112269 -1.1368683772161603e-13)"><path d="M0 0 C52.15 0, 104.31 0, 191.81 0 M0 0 C40.07 0, 80.15 0, 191.81 0" stroke="#000000" stroke-width="1" fill="none"></path></g></g><g transform="translate(31.44552822212131 51.12991199707403) rotate(0 75 16)"><text x="75" y="25" font-family="Helvetica, Segoe UI Emoji" font-size="28px" fill="#000000" text-anchor="middle" style="white-space: pre;" direction="ltr">2 mol P2O3</text></g><g transform="translate(60.461442854211555 10) rotate(0 47 16)"><text x="47" y="25" font-family="Helvetica, Segoe UI Emoji" font-size="28px" fill="#000000" text-anchor="middle" style="white-space: pre;" direction="ltr">4 mol p</text></g><g stroke-linecap="round"><g transform="translate(281.31398443148123 47.92210635177071) rotate(0 95.90677241112269 -1.1368683772161603e-13)"><path d="M0 0 C63.65 0, 127.31 0, 191.81 0 M0 0 C72.85 0, 145.7 0, 191.81 0" stroke="#000000" stroke-width="1" fill="none"></path></g></g><g transform="translate(298.2595126536023 51.81014104337919) rotate(0 79.5 16)"><text x="79.5" y="25" font-family="Helvetica, Segoe UI Emoji" font-size="28px" fill="#000000" text-anchor="middle" style="white-space: pre;" direction="ltr">110 gr P2O3</text></g><g transform="translate(300.7913419177828 11.696143678395856) rotate(0 79 16)"><text x="79" y="25" font-family="Helvetica, Segoe UI Emoji" font-size="28px" fill="#000000" text-anchor="middle" style="white-space: pre;" direction="ltr">1 mol P2O3 </text></g><g transform="translate(236.0086229820538 54.86454478551923) rotate(0 7.111402424631933 -7.619359740677169)" stroke="none"><path fill="#000000" d="M -1.31,-1.31 Q -1.31,-1.31 0.77,-3.31 2.87,-5.30 4.95,-7.30 7.02,-9.29 8.75,-11.26 10.48,-13.22 11.77,-14.73 13.05,-16.23 13.24,-16.39 13.43,-16.56 13.66,-16.65 13.89,-16.74 14.14,-16.75 14.39,-16.76 14.63,-16.69 14.87,-16.63 15.07,-16.49 15.28,-16.35 15.43,-16.15 15.58,-15.95 15.66,-15.71 15.74,-15.48 15.74,-15.23 15.73,-14.98 15.65,-14.74 15.57,-14.51 15.42,-14.31 15.27,-14.11 15.06,-13.97 14.86,-13.83 14.62,-13.77 14.38,-13.70 14.13,-13.72 13.88,-13.73 13.65,-13.83 13.42,-13.92 13.23,-14.08 13.04,-14.24 12.91,-14.46 12.79,-14.67 12.73,-14.91 12.68,-15.16 12.71,-15.40 12.74,-15.65 12.84,-15.88 12.95,-16.10 13.12,-16.28 13.29,-16.46 13.51,-16.58 13.73,-16.69 13.98,-16.73 14.22,-16.77 14.47,-16.73 14.72,-16.69 14.93,-16.57 15.15,-16.45 15.32,-16.27 15.49,-16.09 15.60,-15.87 15.70,-15.64 15.73,-15.39 15.75,-15.14 15.70,-14.90 15.64,-14.66 15.52,-14.45 15.39,-14.23 15.39,-14.23 15.39,-14.23 14.09,-12.73 12.80,-11.23 11.05,-9.13 9.30,-7.02 7.30,-4.95 5.30,-2.87 3.31,-0.77 1.31,1.31 1.14,1.45 0.96,1.59 0.75,1.68 0.55,1.78 0.33,1.82 0.11,1.86 -0.11,1.84 -0.33,1.83 -0.55,1.76 -0.76,1.70 -0.95,1.58 -1.15,1.46 -1.30,1.30 -1.46,1.14 -1.58,0.95 -1.70,0.76 -1.76,0.55 -1.83,0.33 -1.84,0.11 -1.86,-0.11 -1.82,-0.33 -1.78,-0.55 -1.68,-0.75 -1.59,-0.96 -1.45,-1.14 -1.31,-1.31 -1.31,-1.31 L -1.31,-1.31 Z"></path></g><g transform="translate(250.23142783131766 39.62582530416489) rotate(0 2.539786580225723 -2.031829264180601)" stroke="none"><path fill="#000000" d="M -1.32,-1.65 Q -1.32,-1.65 0.16,-2.78 1.65,-3.92 1.85,-4.05 2.06,-4.18 2.30,-4.25 2.53,-4.33 2.77,-4.35 3.02,-4.36 3.26,-4.32 3.50,-4.28 3.73,-4.18 3.95,-4.08 4.14,-3.93 4.34,-3.78 4.49,-3.59 4.65,-3.40 4.75,-3.18 4.85,-2.96 4.90,-2.72 4.94,-2.47 4.93,-2.23 4.92,-1.99 4.85,-1.75 4.78,-1.52 4.65,-1.30 4.53,-1.09 4.36,-0.92 4.19,-0.74 2.73,0.41 1.27,1.58 0.98,1.74 0.69,1.91 0.37,1.97 0.05,2.03 -0.27,1.98 -0.60,1.94 -0.89,1.79 -1.19,1.64 -1.42,1.41 -1.65,1.18 -1.80,0.88 -1.94,0.59 -1.98,0.26 -2.03,-0.05 -1.97,-0.38 -1.90,-0.70 -1.74,-0.99 -1.58,-1.27 -1.33,-1.49 -1.09,-1.71 -0.78,-1.84 -0.48,-1.97 -0.15,-2.00 0.17,-2.02 0.48,-1.94 0.80,-1.86 1.08,-1.68 1.36,-1.51 1.56,-1.25 1.77,-0.99 1.88,-0.68 1.99,-0.37 2.00,-0.04 2.01,0.27 1.91,0.59 1.81,0.90 1.62,1.17 1.43,1.44 1.16,1.63 0.89,1.82 0.58,1.92 0.26,2.01 -0.05,2.00 -0.38,1.99 -0.69,1.88 -1.00,1.76 -1.26,1.56 -1.51,1.35 -1.69,1.07 -1.87,0.79 -1.94,0.47 -2.02,0.15 -1.99,-0.16 -1.97,-0.49 -1.84,-0.79 -1.71,-1.09 -1.49,-1.34 -1.26,-1.58 -1.27,-1.58 -1.27,-1.58 0.18,-2.75 1.65,-3.92 1.85,-4.05 2.06,-4.18 2.30,-4.25 2.53,-4.33 2.77,-4.35 3.02,-4.36 3.26,-4.32 3.50,-4.28 3.73,-4.18 3.95,-4.08 4.14,-3.93 4.34,-3.78 4.49,-3.59 4.65,-3.40 4.75,-3.18 4.85,-2.96 4.90,-2.72 4.94,-2.48 4.93,-2.23 4.92,-1.99 4.85,-1.75 4.78,-1.52 4.65,-1.30 4.53,-1.09 4.36,-0.92 4.19,-0.74 2.75,0.45 1.32,1.65 1.10,1.78 0.88,1.92 0.64,2.00 0.40,2.08 0.14,2.09 -0.10,2.11 -0.35,2.07 -0.60,2.02 -0.84,1.92 -1.07,1.82 -1.28,1.66 -1.48,1.51 -1.64,1.31 -1.80,1.11 -1.90,0.88 -2.01,0.65 -2.06,0.40 -2.11,0.14 -2.10,-0.10 -2.08,-0.36 -2.01,-0.60 -1.94,-0.85 -1.81,-1.06 -1.68,-1.28 -1.50,-1.47 -1.32,-1.65 -1.32,-1.65 L -1.32,-1.65 Z"></path></g><g transform="translate(236.0086229820538 40.641739936255135) rotate(0 8.127317056722177 6.603445108586925)" stroke="none"><path fill="#000000" d="M 1.71,-1.46 Q 1.71,-1.46 3.37,0.65 5.02,2.78 6.79,4.50 8.55,6.23 9.89,7.19 11.23,8.15 12.37,8.78 13.52,9.41 15.48,10.43 17.44,11.44 17.69,11.67 17.94,11.91 18.10,12.21 18.27,12.52 18.32,12.86 18.38,13.20 18.32,13.54 18.27,13.88 18.11,14.18 17.95,14.49 17.70,14.72 17.45,14.96 17.14,15.11 16.82,15.25 16.48,15.29 16.14,15.33 15.80,15.25 15.47,15.18 15.17,15.00 14.88,14.83 14.65,14.57 14.43,14.30 14.30,13.98 14.17,13.66 14.15,13.32 14.13,12.98 14.22,12.64 14.32,12.31 14.51,12.03 14.70,11.74 14.97,11.53 15.25,11.32 15.57,11.21 15.90,11.10 16.24,11.10 16.59,11.10 16.92,11.21 17.24,11.32 17.52,11.53 17.79,11.73 17.99,12.02 18.18,12.30 18.27,12.64 18.37,12.97 18.35,13.31 18.33,13.65 18.20,13.97 18.08,14.30 17.85,14.56 17.63,14.82 17.34,15.00 17.04,15.18 16.71,15.25 16.37,15.33 16.03,15.29 15.68,15.25 15.37,15.11 15.06,14.97 15.06,14.97 15.06,14.97 13.25,13.88 11.43,12.80 10.22,11.97 9.01,11.14 7.56,10.03 6.10,8.92 4.04,7.16 1.98,5.39 0.13,3.43 -1.71,1.46 -1.86,1.24 -2.01,1.01 -2.10,0.76 -2.19,0.50 -2.22,0.23 -2.25,-0.03 -2.21,-0.30 -2.18,-0.57 -2.08,-0.82 -1.98,-1.08 -1.82,-1.30 -1.66,-1.52 -1.45,-1.70 -1.25,-1.87 -1.00,-2.00 -0.76,-2.12 -0.50,-2.18 -0.23,-2.24 0.03,-2.24 0.30,-2.23 0.57,-2.16 0.83,-2.09 1.07,-1.96 1.31,-1.83 1.51,-1.65 1.71,-1.46 1.71,-1.46 L 1.71,-1.46 Z"></path></g><g transform="translate(500.65438464157364 58.42024599783531) rotate(0 7.111402424631933 -7.619359740677169)" stroke="none"><path fill="#000000" d="M -1.40,-1.40 Q -1.40,-1.40 0.70,-3.38 2.81,-5.36 4.89,-7.35 6.97,-9.34 9.34,-12.26 11.70,-15.17 11.93,-15.37 12.17,-15.56 12.45,-15.67 12.73,-15.78 13.03,-15.80 13.33,-15.81 13.62,-15.73 13.92,-15.65 14.17,-15.48 14.42,-15.31 14.60,-15.07 14.78,-14.83 14.88,-14.54 14.97,-14.25 14.97,-13.95 14.97,-13.65 14.87,-13.36 14.77,-13.07 14.59,-12.83 14.40,-12.59 14.15,-12.42 13.90,-12.25 13.61,-12.17 13.32,-12.09 13.02,-12.11 12.71,-12.13 12.43,-12.24 12.15,-12.36 11.92,-12.55 11.69,-12.75 11.54,-13.01 11.38,-13.27 11.32,-13.57 11.25,-13.86 11.29,-14.16 11.32,-14.46 11.45,-14.74 11.58,-15.01 11.79,-15.23 12.00,-15.45 12.27,-15.59 12.53,-15.73 12.83,-15.78 13.13,-15.83 13.43,-15.78 13.73,-15.73 14.00,-15.58 14.26,-15.44 14.47,-15.22 14.68,-15.00 14.80,-14.72 14.93,-14.45 14.96,-14.15 14.99,-13.85 14.92,-13.55 14.86,-13.26 14.70,-13.00 14.54,-12.74 14.54,-12.74 14.54,-12.74 11.94,-9.86 9.34,-6.98 7.35,-4.89 5.36,-2.81 3.38,-0.70 1.40,1.40 1.21,1.55 1.02,1.70 0.80,1.79 0.59,1.89 0.35,1.93 0.11,1.98 -0.11,1.96 -0.35,1.95 -0.58,1.88 -0.81,1.81 -1.02,1.68 -1.22,1.56 -1.39,1.39 -1.56,1.22 -1.68,1.02 -1.81,0.81 -1.88,0.58 -1.95,0.35 -1.96,0.11 -1.98,-0.12 -1.93,-0.35 -1.89,-0.59 -1.79,-0.80 -1.70,-1.02 -1.55,-1.21 -1.40,-1.40 -1.40,-1.40 L -1.40,-1.40 Z"></path></g><g transform="translate(514.8771894908375 43.1815265164812) rotate(0 2.539786580225723 -2.031829264180601)" stroke="none"><path fill="#000000" d="M -1.39,-1.74 Q -1.39,-1.74 0.65,-0.45 2.70,0.83 2.37,1.02 2.04,1.20 1.67,1.27 1.29,1.34 0.92,1.29 0.54,1.24 0.20,1.07 -0.12,0.90 -0.39,0.63 -0.66,0.36 -0.83,0.02 -0.99,-0.31 -1.04,-0.68 -1.09,-1.06 -1.02,-1.43 -0.95,-1.80 -0.76,-2.13 -0.58,-2.46 -0.29,-2.71 -0.01,-2.96 0.33,-3.11 0.68,-3.26 1.05,-3.29 1.43,-3.32 1.80,-3.23 2.17,-3.14 2.49,-2.93 2.80,-2.73 3.04,-2.43 3.28,-2.14 3.41,-1.78 3.54,-1.42 3.55,-1.04 3.56,-0.67 3.44,-0.30 3.33,0.05 3.11,0.36 2.89,0.66 2.58,0.88 2.27,1.10 1.91,1.21 1.55,1.32 1.17,1.31 0.79,1.30 0.43,1.17 0.08,1.04 -0.21,0.80 -0.50,0.56 -0.70,0.24 -0.91,-0.07 -1.00,-0.44 -1.09,-0.80 -1.06,-1.18 -1.03,-1.56 -0.87,-1.91 -0.72,-2.25 -0.47,-2.54 -0.22,-2.82 -0.22,-2.82 -0.22,-2.82 0.58,-0.54 1.39,1.74 1.16,1.88 0.93,2.02 0.67,2.10 0.42,2.18 0.15,2.20 -0.11,2.22 -0.37,2.18 -0.64,2.13 -0.88,2.02 -1.13,1.91 -1.34,1.75 -1.55,1.59 -1.72,1.38 -1.89,1.17 -2.00,0.92 -2.12,0.68 -2.17,0.42 -2.22,0.15 -2.20,-0.11 -2.19,-0.37 -2.11,-0.63 -2.04,-0.89 -1.90,-1.12 -1.76,-1.35 -1.58,-1.54 -1.39,-1.74 -1.39,-1.74 L -1.39,-1.74 Z"></path></g><g transform="translate(500.65438464157364 44.19744114857144) rotate(0 8.127317056722177 6.603445108586925)" stroke="none"><path fill="#000000" d="M 1.69,-1.45 Q 1.69,-1.45 3.35,0.66 5.01,2.78 6.78,4.51 8.55,6.23 9.88,7.19 11.22,8.15 12.37,8.79 13.52,9.42 15.27,10.31 17.02,11.21 17.26,11.44 17.51,11.67 17.67,11.97 17.82,12.27 17.88,12.60 17.93,12.93 17.88,13.26 17.83,13.59 17.67,13.89 17.51,14.19 17.27,14.42 17.03,14.65 16.72,14.80 16.42,14.94 16.08,14.97 15.75,15.01 15.42,14.94 15.09,14.87 14.80,14.70 14.51,14.52 14.29,14.27 14.08,14.01 13.95,13.70 13.82,13.39 13.81,13.05 13.79,12.72 13.88,12.39 13.97,12.07 14.15,11.79 14.34,11.51 14.61,11.30 14.88,11.10 15.19,10.99 15.51,10.88 15.85,10.88 16.19,10.88 16.51,10.99 16.82,11.10 17.09,11.30 17.36,11.50 17.55,11.78 17.74,12.06 17.83,12.38 17.92,12.71 17.90,13.04 17.89,13.38 17.76,13.69 17.64,14.00 17.42,14.26 17.20,14.52 16.92,14.69 16.63,14.87 16.30,14.94 15.97,15.01 15.64,14.98 15.30,14.94 15.00,14.80 14.69,14.66 14.69,14.66 14.69,14.66 13.06,13.73 11.44,12.79 10.23,11.96 9.02,11.13 7.56,10.02 6.11,8.91 4.05,7.15 1.99,5.38 0.14,3.42 -1.69,1.45 -1.84,1.23 -1.99,1.00 -2.09,0.75 -2.18,0.50 -2.21,0.23 -2.23,-0.03 -2.20,-0.30 -2.16,-0.57 -2.06,-0.82 -1.96,-1.07 -1.80,-1.29 -1.65,-1.51 -1.44,-1.68 -1.24,-1.86 -1.00,-1.98 -0.75,-2.10 -0.49,-2.16 -0.23,-2.22 0.03,-2.22 0.30,-2.21 0.56,-2.14 0.82,-2.08 1.06,-1.95 1.30,-1.82 1.50,-1.63 1.70,-1.45 1.69,-1.45 L 1.69,-1.45 Z"></path></g><g stroke-linecap="round"><g transform="translate(532.2448985577823 47.92210635177025) rotate(0 95.90677241112269 -1.1368683772161603e-13)"><path d="M0 0 C61.5 0, 123 0, 191.81 0 M0 0 C63.19 0, 126.38 0, 191.81 0" stroke="#000000" stroke-width="1" fill="none"></path></g></g><g transform="translate(580.1904267799034 51.810141043378735) rotate(0 48.5 16)"><text x="48.5" y="25" font-family="Helvetica, Segoe UI Emoji" font-size="28px" fill="#000000" text-anchor="middle" style="white-space: pre;" direction="ltr">1 mol P</text></g><g transform="translate(584.7222560440839 11.696143678395401) rotate(0 46 16)"><text x="46" y="25" font-family="Helvetica, Segoe UI Emoji" font-size="28px" fill="#000000" text-anchor="middle" style="white-space: pre;" direction="ltr">31 gr P</text></g><g transform="translate(744.4738963432426 58.42024599783531) rotate(0 7.111402424631933 -7.619359740677169)" stroke="none"><path fill="#000000" d="M -1.40,-1.40 Q -1.40,-1.40 0.70,-3.38 2.81,-5.36 4.89,-7.35 6.97,-9.34 9.34,-12.26 11.70,-15.17 11.93,-15.37 12.17,-15.56 12.45,-15.67 12.73,-15.78 13.03,-15.80 13.33,-15.81 13.62,-15.73 13.92,-15.65 14.17,-15.48 14.42,-15.31 14.60,-15.07 14.78,-14.83 14.88,-14.54 14.97,-14.25 14.97,-13.95 14.97,-13.65 14.87,-13.36 14.77,-13.07 14.59,-12.83 14.40,-12.59 14.15,-12.42 13.90,-12.25 13.61,-12.17 13.32,-12.09 13.02,-12.11 12.71,-12.13 12.43,-12.24 12.15,-12.36 11.92,-12.55 11.69,-12.75 11.54,-13.01 11.38,-13.27 11.32,-13.57 11.25,-13.86 11.29,-14.16 11.32,-14.46 11.45,-14.74 11.58,-15.01 11.79,-15.23 12.00,-15.45 12.27,-15.59 12.53,-15.73 12.83,-15.78 13.13,-15.83 13.43,-15.78 13.73,-15.73 14.00,-15.58 14.26,-15.44 14.47,-15.22 14.68,-15.00 14.80,-14.72 14.93,-14.45 14.96,-14.15 14.99,-13.85 14.92,-13.55 14.86,-13.26 14.70,-13.00 14.54,-12.74 14.54,-12.74 14.54,-12.74 11.94,-9.86 9.34,-6.98 7.35,-4.89 5.36,-2.81 3.38,-0.70 1.40,1.40 1.21,1.55 1.02,1.70 0.80,1.79 0.59,1.89 0.35,1.93 0.11,1.98 -0.11,1.96 -0.35,1.95 -0.58,1.88 -0.81,1.81 -1.02,1.68 -1.22,1.56 -1.39,1.39 -1.56,1.22 -1.68,1.02 -1.81,0.81 -1.88,0.58 -1.95,0.35 -1.96,0.11 -1.98,-0.12 -1.93,-0.35 -1.89,-0.59 -1.79,-0.80 -1.70,-1.02 -1.55,-1.21 -1.40,-1.40 -1.40,-1.40 L -1.40,-1.40 Z"></path></g><g transform="translate(758.6967011925065 43.1815265164812) rotate(0 2.539786580225723 -2.031829264180601)" stroke="none"><path fill="#000000" d="M -1.39,-1.74 Q -1.39,-1.74 0.65,-0.45 2.70,0.83 2.37,1.02 2.04,1.20 1.67,1.27 1.29,1.34 0.92,1.29 0.54,1.24 0.20,1.07 -0.12,0.90 -0.39,0.63 -0.66,0.36 -0.83,0.02 -0.99,-0.31 -1.04,-0.68 -1.09,-1.06 -1.02,-1.43 -0.95,-1.80 -0.76,-2.13 -0.58,-2.46 -0.29,-2.71 -0.01,-2.96 0.33,-3.11 0.68,-3.26 1.05,-3.29 1.43,-3.32 1.80,-3.23 2.17,-3.14 2.49,-2.93 2.80,-2.73 3.04,-2.43 3.28,-2.14 3.41,-1.78 3.54,-1.42 3.55,-1.04 3.56,-0.67 3.44,-0.30 3.33,0.05 3.11,0.36 2.89,0.66 2.58,0.88 2.27,1.10 1.91,1.21 1.55,1.32 1.17,1.31 0.79,1.30 0.43,1.17 0.08,1.04 -0.21,0.80 -0.50,0.56 -0.70,0.24 -0.91,-0.07 -1.00,-0.44 -1.09,-0.80 -1.06,-1.18 -1.03,-1.56 -0.87,-1.91 -0.72,-2.25 -0.47,-2.54 -0.22,-2.82 -0.22,-2.82 -0.22,-2.82 0.58,-0.54 1.39,1.74 1.16,1.88 0.93,2.02 0.67,2.10 0.42,2.18 0.15,2.20 -0.11,2.22 -0.37,2.18 -0.64,2.13 -0.88,2.02 -1.13,1.91 -1.34,1.75 -1.55,1.59 -1.72,1.38 -1.89,1.17 -2.00,0.92 -2.12,0.68 -2.17,0.42 -2.22,0.15 -2.20,-0.11 -2.19,-0.37 -2.11,-0.63 -2.04,-0.89 -1.90,-1.12 -1.76,-1.35 -1.58,-1.54 -1.39,-1.74 -1.39,-1.74 L -1.39,-1.74 Z"></path></g><g transform="translate(744.4738963432426 44.19744114857144) rotate(0 8.127317056722177 6.603445108586925)" stroke="none"><path fill="#000000" d="M 1.69,-1.45 Q 1.69,-1.45 3.35,0.66 5.01,2.78 6.78,4.51 8.55,6.23 9.88,7.19 11.22,8.15 12.37,8.79 13.52,9.42 15.27,10.31 17.02,11.21 17.26,11.44 17.51,11.67 17.67,11.97 17.82,12.27 17.88,12.60 17.93,12.93 17.88,13.26 17.83,13.59 17.67,13.89 17.51,14.19 17.27,14.42 17.03,14.65 16.72,14.80 16.42,14.94 16.08,14.97 15.75,15.01 15.42,14.94 15.09,14.87 14.80,14.70 14.51,14.52 14.29,14.27 14.08,14.01 13.95,13.70 13.82,13.39 13.81,13.05 13.79,12.72 13.88,12.39 13.97,12.07 14.15,11.79 14.34,11.51 14.61,11.30 14.88,11.10 15.19,10.99 15.51,10.88 15.85,10.88 16.19,10.88 16.51,10.99 16.82,11.10 17.09,11.30 17.36,11.50 17.55,11.78 17.74,12.06 17.83,12.38 17.92,12.71 17.90,13.04 17.89,13.38 17.76,13.69 17.64,14.00 17.42,14.26 17.20,14.52 16.92,14.69 16.63,14.87 16.30,14.94 15.97,15.01 15.64,14.98 15.30,14.94 15.00,14.80 14.69,14.66 14.69,14.66 14.69,14.66 13.06,13.73 11.44,12.79 10.23,11.96 9.02,11.13 7.56,10.02 6.11,8.91 4.05,7.15 1.99,5.38 0.14,3.42 -1.69,1.45 -1.84,1.23 -1.99,1.00 -2.09,0.75 -2.18,0.50 -2.21,0.23 -2.23,-0.03 -2.20,-0.30 -2.16,-0.57 -2.06,-0.82 -1.96,-1.07 -1.80,-1.29 -1.65,-1.51 -1.44,-1.68 -1.24,-1.86 -1.00,-1.98 -0.75,-2.10 -0.49,-2.16 -0.23,-2.22 0.03,-2.22 0.30,-2.21 0.56,-2.14 0.82,-2.08 1.06,-1.95 1.30,-1.82 1.50,-1.63 1.70,-1.45 1.69,-1.45 L 1.69,-1.45 Z"></path></g><g transform="translate(787.9462799532098 35.06218021647214) rotate(0 80.5 16)"><text x="80.5" y="25" font-family="Helvetica, Segoe UI Emoji" font-size="28px" fill="#000000" text-anchor="middle" style="white-space: pre;" direction="ltr">200 gr P2O3</text></g><g transform="translate(25.714294139364256 175.75838600426346) rotate(0 16.762591429489703 0)" stroke="none"><path fill="#000000" d="M 0,-1.85 Q 0,-1.85 2.92,-1.78 5.84,-1.71 9.41,-1.65 12.99,-1.60 16.56,-1.56 20.12,-1.52 23.39,-1.49 26.66,-1.46 30.09,-1.56 33.52,-1.65 33.79,-1.61 34.05,-1.57 34.29,-1.44 34.52,-1.32 34.71,-1.12 34.89,-0.93 35.01,-0.68 35.12,-0.44 35.15,-0.17 35.18,0.08 35.12,0.35 35.06,0.61 34.92,0.84 34.78,1.07 34.58,1.24 34.38,1.42 34.13,1.52 33.88,1.62 33.61,1.63 33.34,1.64 33.08,1.57 32.82,1.50 32.60,1.35 32.38,1.20 32.22,0.99 32.05,0.77 31.97,0.52 31.88,0.26 31.88,-0.00 31.88,-0.26 31.97,-0.52 32.05,-0.77 32.22,-0.99 32.38,-1.20 32.60,-1.35 32.82,-1.50 33.08,-1.57 33.34,-1.64 33.61,-1.63 33.88,-1.62 34.13,-1.52 34.38,-1.42 34.58,-1.24 34.78,-1.07 34.92,-0.84 35.06,-0.61 35.12,-0.35 35.18,-0.08 35.15,0.17 35.12,0.44 35.01,0.68 34.89,0.93 34.71,1.12 34.52,1.32 34.29,1.44 34.05,1.57 33.78,1.61 33.52,1.65 33.52,1.65 33.52,1.65 30.09,1.56 26.66,1.46 23.39,1.49 20.12,1.52 16.56,1.56 12.99,1.60 9.41,1.65 5.84,1.71 2.92,1.78 0,1.85 -0.22,1.83 -0.44,1.80 -0.65,1.72 -0.86,1.64 -1.04,1.51 -1.23,1.39 -1.38,1.22 -1.53,1.05 -1.63,0.85 -1.73,0.65 -1.79,0.44 -1.84,0.22 -1.84,-0.00 -1.84,-0.22 -1.79,-0.44 -1.73,-0.65 -1.63,-0.85 -1.53,-1.05 -1.38,-1.22 -1.23,-1.39 -1.04,-1.51 -0.86,-1.64 -0.65,-1.72 -0.44,-1.80 -0.22,-1.83 0.00,-1.85 0.00,-1.85 L 0,-1.85 Z"></path></g><g transform="translate(26.222251455409605 165.59923968336034) rotate(0 16.762591429489703 0)" stroke="none"><path fill="#000000" d="M 0,-1.88 Q 0,-1.88 2.92,-1.81 5.84,-1.73 9.41,-1.67 12.99,-1.62 16.56,-1.57 20.12,-1.53 23.39,-1.50 26.66,-1.47 29.47,-1.58 32.28,-1.70 32.55,-1.65 32.82,-1.61 33.07,-1.48 33.31,-1.35 33.50,-1.15 33.69,-0.95 33.81,-0.70 33.92,-0.45 33.95,-0.18 33.98,0.09 33.92,0.36 33.86,0.63 33.72,0.86 33.58,1.10 33.37,1.28 33.16,1.45 32.90,1.56 32.65,1.66 32.37,1.67 32.10,1.69 31.83,1.61 31.57,1.54 31.34,1.39 31.11,1.23 30.94,1.01 30.78,0.79 30.69,0.53 30.60,0.27 30.60,-0.00 30.60,-0.27 30.69,-0.53 30.78,-0.79 30.94,-1.01 31.11,-1.23 31.34,-1.39 31.57,-1.54 31.83,-1.61 32.10,-1.69 32.37,-1.67 32.65,-1.66 32.90,-1.56 33.16,-1.45 33.37,-1.28 33.58,-1.10 33.72,-0.86 33.86,-0.62 33.92,-0.36 33.98,-0.09 33.95,0.18 33.92,0.45 33.81,0.70 33.69,0.95 33.50,1.15 33.31,1.35 33.07,1.48 32.82,1.61 32.55,1.65 32.28,1.70 32.28,1.70 32.28,1.70 29.47,1.58 26.66,1.47 23.39,1.50 20.12,1.53 16.56,1.57 12.99,1.62 9.41,1.67 5.84,1.73 2.92,1.81 0,1.88 -0.22,1.86 -0.45,1.83 -0.66,1.75 -0.87,1.67 -1.06,1.54 -1.25,1.41 -1.40,1.24 -1.55,1.07 -1.66,0.87 -1.76,0.67 -1.82,0.44 -1.87,0.22 -1.87,-0.00 -1.87,-0.22 -1.82,-0.44 -1.76,-0.67 -1.66,-0.87 -1.55,-1.07 -1.40,-1.24 -1.25,-1.41 -1.06,-1.54 -0.87,-1.67 -0.66,-1.75 -0.45,-1.83 -0.22,-1.86 0.00,-1.88 0.00,-1.88 L 0,-1.88 Z"></path></g><g stroke-linecap="round"><g transform="translate(79.14697264551319 170.33981951864962) rotate(0 95.90677241112269 -1.1368683772161603e-13)"><path d="M0 0 C64.73 0, 129.46 0, 191.81 0 M0 0 C44.7 0, 89.4 0, 191.81 0" stroke="#000000" stroke-width="1" fill="none"></path></g></g><g transform="translate(151.09250086763473 174.22785421025856) rotate(0 24.5 16)"><text x="24.5" y="25" font-family="Helvetica, Segoe UI Emoji" font-size="28px" fill="#000000" text-anchor="middle" style="white-space: pre;" direction="ltr">220</text></g><g transform="translate(107.10841549972497 133.09794221318452) rotate(0 69.5 16)"><text x="69.5" y="25" font-family="Helvetica, Segoe UI Emoji" font-size="28px" fill="#000000" text-anchor="middle" style="white-space: pre;" direction="ltr">24800 gr P</text></g><g stroke-opacity="0.3" fill-opacity="0.3" transform="translate(62.28722089461439 74.16692279523454) rotate(0 51.8116462366047 -7.111402424631933)" stroke="none"><path fill="#000000" d="M 0,-1.56 Q 0,-1.56 2.33,-1.52 4.67,-1.49 8.23,-1.75 11.80,-2.02 16.80,-2.71 21.80,-3.39 28.63,-4.26 35.46,-5.14 43.91,-6.09 52.37,-7.04 60.31,-8.31 68.25,-9.59 75.17,-10.42 82.09,-11.26 87.32,-12.19 92.55,-13.12 95.64,-13.81 98.73,-14.49 101.03,-15.00 103.33,-15.51 103.55,-15.52 103.76,-15.53 103.97,-15.48 104.17,-15.42 104.35,-15.30 104.53,-15.18 104.66,-15.01 104.79,-14.84 104.86,-14.64 104.92,-14.43 104.92,-14.22 104.92,-14.01 104.86,-13.80 104.79,-13.60 104.66,-13.43 104.53,-13.26 104.35,-13.14 104.18,-13.02 103.97,-12.96 103.76,-12.90 103.55,-12.91 103.34,-12.92 103.14,-13.00 102.94,-13.08 102.77,-13.22 102.61,-13.36 102.50,-13.54 102.39,-13.73 102.34,-13.93 102.30,-14.14 102.32,-14.36 102.34,-14.57 102.43,-14.76 102.52,-14.96 102.67,-15.11 102.82,-15.27 103.00,-15.37 103.19,-15.47 103.40,-15.51 103.62,-15.54 103.83,-15.51 104.04,-15.47 104.23,-15.37 104.42,-15.27 104.56,-15.12 104.71,-14.96 104.80,-14.77 104.89,-14.57 104.92,-14.36 104.94,-14.15 104.89,-13.94 104.85,-13.73 104.74,-13.55 104.63,-13.36 104.47,-13.22 104.30,-13.08 104.10,-13.01 103.90,-12.93 103.91,-12.93 103.91,-12.93 101.60,-12.41 99.30,-11.90 96.16,-11.20 93.02,-10.50 87.72,-9.55 82.42,-8.60 75.55,-7.76 68.68,-6.92 60.68,-5.63 52.68,-4.33 44.25,-3.36 35.81,-2.39 29.00,-1.50 22.20,-0.60 17.11,0.12 12.03,0.85 8.35,1.17 4.67,1.49 2.33,1.52 0,1.56 -0.18,1.53 -0.37,1.51 -0.54,1.45 -0.72,1.38 -0.88,1.27 -1.03,1.16 -1.16,1.02 -1.28,0.88 -1.37,0.72 -1.46,0.55 -1.50,0.37 -1.55,0.18 -1.55,-0.00 -1.55,-0.18 -1.50,-0.37 -1.46,-0.55 -1.37,-0.72 -1.28,-0.88 -1.16,-1.02 -1.03,-1.16 -0.88,-1.27 -0.72,-1.38 -0.54,-1.45 -0.37,-1.51 -0.18,-1.53 0.00,-1.56 0.00,-1.56 L 0,-1.56 Z"></path></g><g stroke-opacity="0.3" fill-opacity="0.3" transform="translate(165.9105133678238 59.944117945970675) rotate(0 0.00004999999998744897 0.00004999999998744897)" stroke="none"><path fill="#000000" d="M 1.57,-1.57 Q 1.57,-1.57 1.77,-1.27 1.98,-0.98 2.09,-0.64 2.20,-0.29 2.19,0.05 2.18,0.41 2.05,0.75 1.93,1.09 1.70,1.37 1.48,1.65 1.18,1.84 0.87,2.04 0.52,2.12 0.18,2.21 -0.17,2.18 -0.53,2.15 -0.86,2.01 -1.19,1.87 -1.46,1.63 -1.73,1.39 -1.90,1.07 -2.08,0.76 -2.15,0.41 -2.21,0.05 -2.17,-0.29 -2.12,-0.65 -1.96,-0.97 -1.80,-1.29 -1.54,-1.54 -1.29,-1.80 -0.97,-1.96 -0.65,-2.12 -0.29,-2.17 0.06,-2.21 0.41,-2.15 0.76,-2.08 1.07,-1.90 1.39,-1.73 1.63,-1.46 1.87,-1.19 2.01,-0.86 2.15,-0.53 2.18,-0.17 2.21,0.18 2.12,0.52 2.03,0.87 1.84,1.18 1.65,1.48 1.37,1.70 1.09,1.93 0.75,2.05 0.41,2.18 0.05,2.19 -0.30,2.20 -0.64,2.09 -0.98,1.98 -1.27,1.77 -1.57,1.56 -1.57,1.57 -1.57,1.57 -1.73,1.35 -1.90,1.14 -2.01,0.90 -2.12,0.66 -2.16,0.39 -2.21,0.13 -2.20,-0.13 -2.18,-0.40 -2.10,-0.65 -2.02,-0.91 -1.88,-1.14 -1.74,-1.36 -1.55,-1.55 -1.36,-1.74 -1.14,-1.88 -0.91,-2.02 -0.65,-2.10 -0.40,-2.18 -0.13,-2.20 0.13,-2.21 0.39,-2.16 0.66,-2.12 0.90,-2.01 1.14,-1.90 1.35,-1.73 1.57,-1.57 1.57,-1.57 L 1.57,-1.57 Z"></path></g><g stroke-opacity="0.3" fill-opacity="0.3" transform="translate(323.3772813418184 31.498508247442487) rotate(0 56.383262081011026 -5.079573160451446)" stroke="none"><path fill="#000000" d="M 0,-1.56 Q 0,-1.56 4.08,-1.52 8.17,-1.49 13.71,-1.46 19.24,-1.44 25.98,-1.42 32.71,-1.40 39.92,-1.68 47.14,-1.96 54.27,-2.66 61.40,-3.35 68.81,-4.23 76.22,-5.11 82.60,-5.77 88.98,-6.44 94.28,-7.29 99.58,-8.15 102.95,-9.09 106.31,-10.02 109.36,-10.85 112.41,-11.68 112.66,-11.70 112.91,-11.71 113.16,-11.65 113.40,-11.58 113.62,-11.44 113.83,-11.30 113.98,-11.10 114.14,-10.90 114.22,-10.66 114.31,-10.42 114.31,-10.17 114.31,-9.92 114.23,-9.68 114.15,-9.43 114.00,-9.23 113.85,-9.03 113.64,-8.88 113.43,-8.74 113.19,-8.67 112.95,-8.60 112.69,-8.61 112.44,-8.62 112.20,-8.71 111.97,-8.80 111.77,-8.96 111.58,-9.13 111.44,-9.34 111.31,-9.56 111.25,-9.81 111.20,-10.05 111.22,-10.31 111.25,-10.56 111.35,-10.79 111.46,-11.02 111.63,-11.21 111.80,-11.39 112.02,-11.51 112.25,-11.63 112.50,-11.68 112.75,-11.72 113.00,-11.68 113.25,-11.64 113.47,-11.53 113.70,-11.41 113.87,-11.23 114.05,-11.05 114.16,-10.82 114.27,-10.59 114.30,-10.34 114.33,-10.09 114.28,-9.84 114.22,-9.59 114.09,-9.37 113.97,-9.15 113.77,-8.99 113.58,-8.82 113.35,-8.72 113.11,-8.63 113.11,-8.63 113.11,-8.63 110.07,-8.05 107.02,-7.47 103.52,-6.50 100.01,-5.52 94.64,-4.65 89.26,-3.77 82.90,-3.10 76.54,-2.43 69.10,-1.53 61.66,-0.64 54.46,0.07 47.25,0.79 39.98,1.10 32.71,1.40 25.98,1.42 19.24,1.44 13.71,1.46 8.17,1.49 4.08,1.52 0,1.56 -0.18,1.53 -0.37,1.51 -0.54,1.45 -0.72,1.38 -0.88,1.27 -1.03,1.16 -1.16,1.02 -1.28,0.88 -1.37,0.72 -1.46,0.55 -1.50,0.37 -1.55,0.18 -1.55,-0.00 -1.55,-0.18 -1.50,-0.37 -1.46,-0.55 -1.37,-0.72 -1.28,-0.88 -1.16,-1.02 -1.03,-1.16 -0.88,-1.27 -0.72,-1.38 -0.54,-1.45 -0.37,-1.51 -0.18,-1.53 0.00,-1.56 0.00,-1.56 L 0,-1.56 Z"></path></g><g stroke-opacity="0.3" fill-opacity="0.3" transform="translate(436.14380550384044 21.339361926539596) rotate(0 0.00004999999998744897 0.00004999999998744897)" stroke="none"><path fill="#000000" d="M 1.57,-1.57 Q 1.57,-1.57 1.77,-1.27 1.98,-0.98 2.09,-0.64 2.20,-0.29 2.19,0.05 2.18,0.41 2.05,0.75 1.93,1.09 1.70,1.37 1.48,1.65 1.18,1.84 0.87,2.04 0.52,2.12 0.18,2.21 -0.17,2.18 -0.53,2.15 -0.86,2.01 -1.19,1.87 -1.46,1.63 -1.73,1.39 -1.90,1.07 -2.08,0.76 -2.15,0.41 -2.21,0.05 -2.17,-0.29 -2.12,-0.65 -1.96,-0.97 -1.80,-1.29 -1.54,-1.54 -1.29,-1.80 -0.97,-1.96 -0.65,-2.12 -0.29,-2.17 0.06,-2.21 0.41,-2.15 0.76,-2.08 1.07,-1.90 1.39,-1.73 1.63,-1.46 1.87,-1.19 2.01,-0.86 2.15,-0.53 2.18,-0.17 2.21,0.18 2.12,0.52 2.03,0.87 1.84,1.18 1.65,1.48 1.37,1.70 1.09,1.93 0.75,2.05 0.41,2.18 0.05,2.19 -0.30,2.20 -0.64,2.09 -0.98,1.98 -1.27,1.77 -1.57,1.56 -1.57,1.57 -1.57,1.57 -1.73,1.35 -1.90,1.14 -2.01,0.90 -2.12,0.66 -2.16,0.39 -2.21,0.13 -2.20,-0.13 -2.18,-0.40 -2.10,-0.65 -2.02,-0.91 -1.88,-1.14 -1.74,-1.36 -1.55,-1.55 -1.36,-1.74 -1.14,-1.88 -0.91,-2.02 -0.65,-2.10 -0.40,-2.18 -0.13,-2.20 0.13,-2.21 0.39,-2.16 0.66,-2.12 0.90,-2.01 1.14,-1.90 1.35,-1.73 1.57,-1.57 1.57,-1.57 L 1.57,-1.57 Z"></path></g><g stroke-opacity="0.3" fill-opacity="0.3" transform="translate(352.8388056724368 77.2146666915055) rotate(0 44.700243811972655 -8.12731705672229)" stroke="none"><path fill="#000000" d="M -0.14,-1.55 Q -0.14,-1.55 3.07,-1.81 6.28,-2.07 9.86,-3.02 13.45,-3.97 18.28,-4.98 23.11,-5.98 29.53,-7.27 35.95,-8.56 39.23,-9.39 42.51,-10.22 46.31,-10.88 50.10,-11.54 53.75,-12.10 57.40,-12.67 61.64,-12.91 65.88,-13.16 69.67,-13.55 73.46,-13.94 77.11,-14.39 80.76,-14.85 82.84,-15.33 84.92,-15.80 86.85,-16.75 88.79,-17.71 89.04,-17.76 89.29,-17.82 89.54,-17.80 89.80,-17.77 90.03,-17.67 90.26,-17.57 90.45,-17.39 90.64,-17.22 90.76,-17.00 90.88,-16.77 90.93,-16.52 90.97,-16.27 90.93,-16.02 90.90,-15.77 90.78,-15.54 90.66,-15.31 90.48,-15.14 90.30,-14.96 90.07,-14.85 89.84,-14.74 89.59,-14.71 89.33,-14.67 89.08,-14.73 88.83,-14.78 88.61,-14.91 88.39,-15.03 88.22,-15.23 88.06,-15.42 87.96,-15.65 87.86,-15.89 87.84,-16.14 87.83,-16.40 87.89,-16.64 87.96,-16.89 88.10,-17.10 88.24,-17.32 88.44,-17.47 88.64,-17.63 88.88,-17.72 89.12,-17.80 89.37,-17.80 89.63,-17.81 89.87,-17.73 90.11,-17.65 90.32,-17.50 90.52,-17.35 90.67,-17.14 90.82,-16.93 90.89,-16.69 90.96,-16.44 90.95,-16.19 90.94,-15.93 90.85,-15.69 90.76,-15.46 90.60,-15.26 90.43,-15.06 90.22,-14.93 90.00,-14.79 90.00,-14.79 90.00,-14.79 87.75,-14.01 85.51,-13.23 83.30,-12.73 81.09,-12.22 77.41,-11.76 73.73,-11.30 69.88,-10.90 66.03,-10.50 61.92,-10.26 57.81,-10.02 54.19,-9.45 50.57,-8.88 46.88,-8.23 43.19,-7.58 39.85,-6.72 36.50,-5.85 30.10,-4.54 23.69,-3.22 18.94,-2.20 14.20,-1.19 10.38,-0.14 6.56,0.90 3.35,1.22 0.14,1.55 -0.04,1.55 -0.23,1.54 -0.41,1.49 -0.59,1.44 -0.76,1.35 -0.92,1.25 -1.06,1.12 -1.20,1.00 -1.30,0.84 -1.40,0.68 -1.46,0.50 -1.52,0.32 -1.54,0.14 -1.56,-0.04 -1.53,-0.23 -1.50,-0.41 -1.43,-0.59 -1.36,-0.76 -1.24,-0.91 -1.13,-1.07 -0.99,-1.19 -0.84,-1.31 -0.67,-1.39 -0.50,-1.47 -0.32,-1.51 -0.14,-1.55 -0.14,-1.55 L -0.14,-1.55 Z"></path></g><g stroke-opacity="0.3" fill-opacity="0.3" transform="translate(841.4937437078652 60.96003257806092) rotate(0 58.923048661236635 -9.65118900485777)" stroke="none"><path fill="#000000" d="M 0,-1.56 Q 0,-1.56 2.62,-1.52 5.25,-1.49 8.94,-1.75 12.63,-2.02 17.69,-2.71 22.74,-3.39 29.59,-4.26 36.44,-5.14 44.59,-6.38 52.74,-7.62 61.17,-9.02 69.59,-10.42 77.23,-12.17 84.86,-13.93 91.05,-15.26 97.25,-16.59 101.94,-17.46 106.63,-18.32 109.83,-18.69 113.02,-19.05 115.18,-19.93 117.34,-20.80 117.59,-20.84 117.85,-20.88 118.10,-20.84 118.35,-20.79 118.58,-20.67 118.80,-20.55 118.98,-20.37 119.15,-20.18 119.26,-19.95 119.37,-19.72 119.39,-19.46 119.42,-19.21 119.36,-18.96 119.31,-18.71 119.18,-18.49 119.04,-18.27 118.85,-18.11 118.65,-17.94 118.41,-17.85 118.18,-17.75 117.92,-17.74 117.67,-17.73 117.42,-17.80 117.17,-17.86 116.96,-18.01 116.75,-18.15 116.60,-18.36 116.44,-18.56 116.36,-18.80 116.28,-19.05 116.28,-19.30 116.28,-19.56 116.36,-19.80 116.45,-20.04 116.60,-20.25 116.76,-20.45 116.97,-20.59 117.18,-20.73 117.43,-20.80 117.68,-20.87 117.93,-20.85 118.19,-20.84 118.42,-20.74 118.66,-20.65 118.85,-20.48 119.05,-20.32 119.18,-20.10 119.31,-19.88 119.37,-19.63 119.42,-19.38 119.39,-19.12 119.36,-18.87 119.25,-18.64 119.15,-18.41 118.97,-18.22 118.79,-18.04 118.57,-17.92 118.34,-17.80 118.34,-17.80 118.34,-17.80 115.84,-17.11 113.34,-16.43 110.22,-16.07 107.11,-15.71 102.46,-14.85 97.81,-13.99 91.64,-12.65 85.46,-11.32 77.75,-9.54 70.04,-7.76 61.59,-6.34 53.15,-4.92 44.97,-3.66 36.79,-2.39 29.96,-1.50 23.13,-0.60 17.99,0.12 12.86,0.85 9.05,1.17 5.25,1.49 2.62,1.52 0,1.56 -0.18,1.53 -0.37,1.51 -0.54,1.45 -0.72,1.38 -0.88,1.27 -1.03,1.16 -1.16,1.02 -1.28,0.88 -1.37,0.72 -1.46,0.55 -1.50,0.37 -1.55,0.18 -1.55,-0.00 -1.55,-0.18 -1.50,-0.37 -1.46,-0.55 -1.37,-0.72 -1.28,-0.88 -1.16,-1.02 -1.03,-1.16 -0.88,-1.27 -0.72,-1.38 -0.54,-1.45 -0.37,-1.51 -0.18,-1.53 0.00,-1.56 0.00,-1.56 L 0,-1.56 Z"></path></g><g stroke-opacity="0.3" fill-opacity="0.3" transform="translate(88.70100132896209 35.56216677580369) rotate(0 30.985396278753797 -6.095487792541803)" stroke="none"><path fill="#000000" d="M -0.42,-1.50 Q -0.42,-1.50 1.62,-2.05 3.67,-2.60 5.73,-3.13 7.79,-3.65 10.76,-4.17 13.73,-4.68 16.73,-5.18 19.72,-5.68 22.99,-6.47 26.27,-7.25 30.06,-7.88 33.85,-8.52 37.50,-9.08 41.15,-9.63 44.44,-10.16 47.74,-10.69 50.89,-11.20 54.04,-11.72 55.89,-12.24 57.75,-12.77 59.70,-13.27 61.65,-13.78 61.92,-13.79 62.18,-13.80 62.43,-13.72 62.68,-13.64 62.90,-13.49 63.11,-13.34 63.26,-13.13 63.42,-12.91 63.50,-12.66 63.57,-12.41 63.57,-12.15 63.56,-11.89 63.47,-11.64 63.38,-11.39 63.22,-11.19 63.05,-10.98 62.83,-10.84 62.61,-10.70 62.36,-10.63 62.10,-10.57 61.84,-10.59 61.58,-10.61 61.34,-10.71 61.10,-10.81 60.90,-10.99 60.70,-11.16 60.57,-11.39 60.44,-11.62 60.39,-11.88 60.34,-12.14 60.38,-12.40 60.41,-12.66 60.53,-12.89 60.64,-13.13 60.83,-13.31 61.01,-13.50 61.25,-13.62 61.48,-13.74 61.74,-13.77 62.00,-13.81 62.26,-13.76 62.52,-13.71 62.75,-13.58 62.98,-13.46 63.15,-13.26 63.33,-13.07 63.44,-12.82 63.54,-12.58 63.56,-12.32 63.58,-12.06 63.52,-11.81 63.46,-11.55 63.32,-11.33 63.18,-11.11 62.97,-10.94 62.77,-10.78 62.52,-10.68 62.28,-10.59 62.28,-10.59 62.28,-10.59 60.37,-10.34 58.46,-10.09 56.47,-9.59 54.47,-9.09 51.32,-8.57 48.16,-8.05 44.86,-7.52 41.56,-6.98 37.93,-6.42 34.30,-5.85 30.61,-5.22 26.91,-4.59 23.55,-3.77 20.19,-2.95 17.21,-2.42 14.23,-1.89 11.38,-1.37 8.53,-0.84 6.51,-0.28 4.49,0.26 2.46,0.88 0.42,1.50 0.24,1.53 0.05,1.56 -0.13,1.54 -0.31,1.53 -0.49,1.47 -0.67,1.41 -0.83,1.30 -0.99,1.20 -1.12,1.07 -1.25,0.93 -1.34,0.77 -1.44,0.60 -1.49,0.42 -1.54,0.24 -1.55,0.05 -1.55,-0.13 -1.52,-0.31 -1.48,-0.50 -1.40,-0.67 -1.31,-0.84 -1.19,-0.98 -1.07,-1.13 -0.92,-1.24 -0.77,-1.35 -0.60,-1.43 -0.42,-1.50 -0.42,-1.50 L -0.42,-1.50 Z"></path></g><g stroke-opacity="0.3" fill-opacity="0.3" transform="translate(605.8015490629184 75.18283742732478) rotate(0 30.985396278753797 -4.063658528361202)" stroke="none"><path fill="#000000" d="M 0.18,-1.67 Q 0.18,-1.67 2.80,-1.33 5.43,-0.98 8.53,-0.83 11.63,-0.67 15.53,-0.88 19.43,-1.09 23.98,-1.75 28.53,-2.41 33.65,-3.56 38.78,-4.70 43.34,-5.49 47.91,-6.27 51.19,-7.45 54.47,-8.62 56.56,-9.16 58.64,-9.70 60.11,-10.17 61.58,-10.65 61.83,-10.67 62.08,-10.69 62.33,-10.63 62.57,-10.57 62.79,-10.44 63.00,-10.30 63.16,-10.11 63.32,-9.91 63.40,-9.68 63.49,-9.44 63.50,-9.19 63.51,-8.94 63.44,-8.70 63.36,-8.45 63.22,-8.25 63.07,-8.04 62.87,-7.90 62.66,-7.75 62.42,-7.67 62.18,-7.60 61.93,-7.60 61.68,-7.61 61.44,-7.69 61.21,-7.78 61.01,-7.94 60.81,-8.09 60.68,-8.30 60.54,-8.52 60.48,-8.76 60.42,-9.00 60.43,-9.25 60.45,-9.51 60.55,-9.74 60.65,-9.97 60.82,-10.16 60.98,-10.35 61.20,-10.47 61.42,-10.60 61.67,-10.64 61.92,-10.69 62.17,-10.66 62.41,-10.63 62.64,-10.52 62.87,-10.41 63.05,-10.23 63.23,-10.05 63.34,-9.83 63.45,-9.60 63.49,-9.35 63.52,-9.10 63.48,-8.86 63.43,-8.61 63.31,-8.39 63.18,-8.17 63.00,-8.00 62.81,-7.83 62.58,-7.73 62.35,-7.63 62.35,-7.63 62.35,-7.63 60.83,-7.34 59.31,-7.06 57.35,-6.57 55.38,-6.07 51.88,-4.83 48.39,-3.58 43.89,-2.79 39.39,-1.99 34.17,-0.80 28.95,0.38 24.28,1.09 19.61,1.80 15.56,2.07 11.52,2.34 8.30,2.24 5.08,2.15 2.44,1.91 -0.18,1.67 -0.38,1.62 -0.58,1.57 -0.76,1.48 -0.94,1.39 -1.09,1.26 -1.24,1.12 -1.36,0.96 -1.48,0.79 -1.55,0.60 -1.62,0.41 -1.65,0.21 -1.68,0.01 -1.65,-0.18 -1.63,-0.38 -1.56,-0.57 -1.49,-0.76 -1.38,-0.93 -1.27,-1.10 -1.12,-1.23 -0.96,-1.37 -0.79,-1.47 -0.61,-1.56 -0.41,-1.61 -0.21,-1.66 -0.01,-1.67 0.18,-1.67 0.18,-1.67 L 0.18,-1.67 Z"></path></g><g transform="translate(294.2183158299281 173.7265567400832) rotate(0 16.762591429489703 0)" stroke="none"><path fill="#000000" d="M 0,-1.88 Q 0,-1.88 2.92,-1.81 5.84,-1.73 9.41,-1.67 12.99,-1.62 16.56,-1.57 20.12,-1.53 23.39,-1.50 26.66,-1.47 29.47,-1.58 32.28,-1.70 32.55,-1.65 32.82,-1.61 33.07,-1.48 33.31,-1.35 33.50,-1.15 33.69,-0.95 33.81,-0.70 33.92,-0.45 33.95,-0.18 33.98,0.09 33.92,0.36 33.86,0.63 33.72,0.86 33.58,1.10 33.37,1.28 33.16,1.45 32.90,1.56 32.65,1.66 32.37,1.67 32.10,1.69 31.83,1.61 31.57,1.54 31.34,1.39 31.11,1.23 30.94,1.01 30.78,0.79 30.69,0.53 30.60,0.27 30.60,-0.00 30.60,-0.27 30.69,-0.53 30.78,-0.79 30.94,-1.01 31.11,-1.23 31.34,-1.39 31.57,-1.54 31.83,-1.61 32.10,-1.69 32.37,-1.67 32.65,-1.66 32.90,-1.56 33.16,-1.45 33.37,-1.28 33.58,-1.10 33.72,-0.86 33.86,-0.62 33.92,-0.36 33.98,-0.09 33.95,0.18 33.92,0.45 33.81,0.70 33.69,0.95 33.50,1.15 33.31,1.35 33.07,1.48 32.82,1.61 32.55,1.65 32.28,1.70 32.28,1.70 32.28,1.70 29.47,1.58 26.66,1.47 23.39,1.50 20.12,1.53 16.56,1.57 12.99,1.62 9.41,1.67 5.84,1.73 2.92,1.81 0,1.88 -0.22,1.86 -0.45,1.83 -0.66,1.75 -0.87,1.67 -1.06,1.54 -1.25,1.41 -1.40,1.24 -1.55,1.07 -1.66,0.87 -1.76,0.67 -1.82,0.44 -1.87,0.22 -1.87,-0.00 -1.87,-0.22 -1.82,-0.44 -1.76,-0.67 -1.66,-0.87 -1.55,-1.07 -1.40,-1.24 -1.25,-1.41 -1.06,-1.54 -0.87,-1.67 -0.66,-1.75 -0.45,-1.83 -0.22,-1.86 0.00,-1.88 0.00,-1.88 L 0,-1.88 Z"></path></g><g transform="translate(294.72627314597366 163.56741041917985) rotate(0 16.762591429489703 0)" stroke="none"><path fill="#000000" d="M 0,-1.88 Q 0,-1.88 2.92,-1.81 5.84,-1.73 9.41,-1.67 12.99,-1.62 16.56,-1.57 20.12,-1.53 23.39,-1.50 26.66,-1.47 29.47,-1.58 32.28,-1.70 32.55,-1.65 32.82,-1.61 33.07,-1.48 33.31,-1.35 33.50,-1.15 33.69,-0.95 33.81,-0.70 33.92,-0.45 33.95,-0.18 33.98,0.09 33.92,0.36 33.86,0.63 33.72,0.86 33.58,1.10 33.37,1.28 33.16,1.45 32.90,1.56 32.65,1.66 32.37,1.67 32.10,1.69 31.83,1.61 31.57,1.54 31.34,1.39 31.11,1.23 30.94,1.01 30.78,0.79 30.69,0.53 30.60,0.27 30.60,-0.00 30.60,-0.27 30.69,-0.53 30.78,-0.79 30.94,-1.01 31.11,-1.23 31.34,-1.39 31.57,-1.54 31.83,-1.61 32.10,-1.69 32.37,-1.67 32.65,-1.66 32.90,-1.56 33.16,-1.45 33.37,-1.28 33.58,-1.10 33.72,-0.86 33.86,-0.62 33.92,-0.36 33.98,-0.09 33.95,0.18 33.92,0.45 33.81,0.70 33.69,0.95 33.50,1.15 33.31,1.35 33.07,1.48 32.82,1.61 32.55,1.65 32.28,1.70 32.28,1.70 32.28,1.70 29.47,1.58 26.66,1.47 23.39,1.50 20.12,1.53 16.56,1.57 12.99,1.62 9.41,1.67 5.84,1.73 2.92,1.81 0,1.88 -0.22,1.86 -0.45,1.83 -0.66,1.75 -0.87,1.67 -1.06,1.54 -1.25,1.41 -1.40,1.24 -1.55,1.07 -1.66,0.87 -1.76,0.67 -1.82,0.44 -1.87,0.22 -1.87,-0.00 -1.87,-0.22 -1.82,-0.44 -1.76,-0.67 -1.66,-0.87 -1.55,-1.07 -1.40,-1.24 -1.25,-1.41 -1.06,-1.54 -0.87,-1.67 -0.66,-1.75 -0.45,-1.83 -0.22,-1.86 0.00,-1.88 0.00,-1.88 L 0,-1.88 Z"></path></g><g transform="translate(358.3896323410247 154.43214948708078) rotate(0 72.5 16)"><text x="72.5" y="25" font-family="Helvetica, Segoe UI Emoji" font-size="28px" fill="#000000" text-anchor="middle" style="white-space: pre;" direction="ltr">112.72 gr P</text></g></svg>