<svg xmlns="http://www.w3.org/2000/svg" xmlns:xlink="http://www.w3.org/1999/xlink" width="96.09375" height="48.78125" style="width:96.09375px;height:48.78125px;font-family:Asana-Math, Asana;background:#FFF;"><g><g><g><g transform="matrix(1,0,0,1,2,33)"><path transform="matrix(0.017,0,0,-0.017,0,0)" d="M183 694L94 694L94 0L499 0L499 66C410 65 272 66 183 66ZM959 326C1062 356 1129 427 1129 508C1129 607 1020 694 877 694L636 694L636 0L722 0L722 317L880 317L1068 0L1157 0ZM722 378L722 638L866 638C982 638 1048 579 1048 508C1048 437 984 378 866 378Z" stroke="rgb(0,0,0)" stroke-opacity="1" stroke-width="8" fill="rgb(0,0,0)" fill-opacity="1"></path></g></g><g><g transform="matrix(1,0,0,1,31.46875,33)"><path transform="matrix(0.017,0,0,-0.017,0,0)" d="M604 347L604 406L65 406L65 347ZM604 134L604 193L65 193L65 134Z" stroke="rgb(0,0,0)" stroke-opacity="1" stroke-width="8" fill="rgb(0,0,0)" fill-opacity="1"></path></g></g><g><g transform="matrix(1,0,0,1,47.921875,33)"><path transform="matrix(0.017,0,0,-0.017,0,0)" d="" stroke="rgb(0,0,0)" stroke-opacity="1" stroke-width="8" fill="rgb(0,0,0)" fill-opacity="1"></path></g></g><g><g><g><g><g transform="matrix(1,0,0,1,53.84375,20.609375)"><path transform="matrix(0.017,0,0,-0.017,0,0)" d="M83 466C103 545 131 624 222 624C316 624 367 548 367 468C367 382 310 324 251 263L174 191L50 65L50 0L449 0L449 72L267 72C255 72 243 71 231 71L122 71C154 100 230 176 261 205C333 274 449 347 449 471C449 587 368 689 236 689C122 689 66 610 42 522C66 487 59 501 83 466ZM916 267L785 213L780 204L816 153L826 153L932 241L950 99L960 95L1028 121L1028 131L960 253L1098 233L1107 241L1107 303L1101 307L962 283L1031 408L1028 423L966 442L957 438L931 295L836 393L826 393L782 341L785 331ZM1542 694L1467 694L1467 0L1545 0L1545 46C1569 24 1612 -11 1679 -11C1779 -11 1865 89 1865 223C1865 347 1797 455 1703 455C1664 455 1602 445 1542 396ZM1545 335C1561 359 1597 394 1652 394C1711 394 1787 351 1787 223C1787 93 1703 50 1642 50C1603 50 1570 68 1545 114Z" stroke="rgb(0,0,0)" stroke-opacity="1" stroke-width="8" fill="rgb(0,0,0)" fill-opacity="1"></path></g></g><g><g><g><g><g transform="matrix(1,0,0,1,87.125,13.9)"><path transform="matrix(0.0119,0,0,-0.0119,0,0)" d="M83 466C103 545 131 624 222 624C316 624 367 548 367 468C367 382 310 324 251 263L174 191L50 65L50 0L449 0L449 72L267 72C255 72 243 71 231 71L122 71C154 100 230 176 261 205C333 274 449 347 449 471C449 587 368 689 236 689C122 689 66 610 42 522C66 487 59 501 83 466Z" stroke="rgb(0,0,0)" stroke-opacity="1" stroke-width="8" fill="rgb(0,0,0)" fill-opacity="1"></path></g></g></g></g></g></g></g><g><g><g><g transform="matrix(1,0,0,1,69.890625,46.390625)"><path transform="matrix(0.017,0,0,-0.017,0,0)" d="M399 289C399 391 326 461 234 461C169 461 124 445 77 418L83 352C135 389 185 402 234 402C281 402 321 362 321 288L321 245C171 243 44 201 44 113C44 70 71 -11 158 -11C172 -11 266 -9 324 36L324 0L399 0ZM321 132C321 113 321 88 287 69C258 51 220 50 209 50C161 50 116 73 116 115C116 185 278 192 321 194Z" stroke="rgb(0,0,0)" stroke-opacity="1" stroke-width="8" fill="rgb(0,0,0)" fill-opacity="1"></path></g></g></g></g><line style="fill:none;stroke-width:1px;stroke:rgb(0, 0, 0);" x1="53.84375" y1="28.75" x2="94.09375" y2="28.75"></line></g></g></g></svg>