<svg version="1.1" xmlns="http://www.w3.org/2000/svg" viewBox="0 0 756.8280997985139 565.7274397718393" width="1513.6561995970278" height="1131.4548795436785">
  <!-- svg-source:excalidraw -->
  
  <defs>
    <style class="style-fonts">
      @font-face {
        font-family: "Virgil";
        src: url("https://excalidraw.com/Virgil.woff2");
      }
      @font-face {
        font-family: "Cascadia";
        src: url("https://excalidraw.com/Cascadia.woff2");
      }
    </style>
  </defs>
  <g stroke-linecap="round"><g transform="translate(80.09984640315452 35.558305935128374) rotate(0 318.90972958146995 230.3934463708647)"><path d="M0 0 C0 102.17, 0 204.34, 0 459.53 M0 0 C0 96.13, 0 192.25, 0 459.53 M0 459.53 C223.75 459.97, 447.5 460.41, 637.82 460.79 M0 459.53 C171.73 459.87, 343.46 460.21, 637.82 460.79" stroke="black" stroke-width="4" fill="none"></path></g></g><g transform="translate(67.05006125960972 45.22931812978641) rotate(0 14.904711516447605 -17.614659064893203)" stroke="none"><path fill="black" d="M -2.55,-0.54 Q -2.55,-0.54 -2.30,-1.76 -2.06,-2.97 -1.78,-4.03 -1.50,-5.09 -1.08,-6.11 -0.66,-7.13 -0.12,-8.70 0.41,-10.27 0.81,-11.33 1.22,-12.38 1.98,-14.46 2.74,-16.54 3.36,-18.28 3.99,-20.01 4.18,-21.15 4.37,-22.29 4.79,-23.86 5.22,-25.44 5.67,-26.77 6.12,-28.10 6.63,-29.28 7.13,-30.46 7.61,-31.50 8.09,-32.54 8.97,-33.95 9.84,-35.35 10.64,-36.27 11.44,-37.19 13.08,-37.52 14.73,-37.86 15.77,-37.39 16.81,-36.93 17.34,-36.00 17.88,-35.07 18.78,-33.23 19.69,-31.39 20.23,-30.09 20.78,-28.79 21.37,-27.39 21.96,-25.99 22.59,-24.63 23.22,-23.27 23.85,-21.83 24.48,-20.40 25.02,-19.06 25.56,-17.72 26.43,-16.08 27.29,-14.45 27.85,-13.24 28.40,-12.04 28.95,-10.85 29.50,-9.65 29.94,-8.62 30.37,-7.58 30.99,-6.37 31.60,-5.15 32.16,-3.72 32.72,-2.29 32.92,-1.78 33.11,-1.27 33.13,-0.72 33.15,-0.18 33.00,0.34 32.84,0.86 32.53,1.31 32.22,1.75 31.78,2.08 31.34,2.40 30.81,2.57 30.29,2.73 29.75,2.72 29.20,2.71 28.69,2.53 28.17,2.35 27.74,2.01 27.32,1.67 27.02,1.22 26.72,0.76 26.58,0.23 26.44,-0.29 26.48,-0.83 26.52,-1.38 26.73,-1.88 26.94,-2.39 27.30,-2.80 27.66,-3.21 28.14,-3.48 28.61,-3.75 29.14,-3.86 29.68,-3.97 30.22,-3.90 30.76,-3.83 31.25,-3.60 31.75,-3.36 32.14,-2.98 32.53,-2.59 32.77,-2.11 33.02,-1.62 33.10,-1.08 33.18,-0.54 33.08,-0.00 32.98,0.52 32.72,1.00 32.46,1.48 32.05,1.85 31.65,2.22 31.15,2.44 30.65,2.66 30.11,2.71 29.56,2.76 29.03,2.63 28.50,2.51 28.04,2.22 27.58,1.93 27.23,1.51 26.88,1.08 26.88,1.08 26.88,1.08 25.97,-1.27 25.06,-3.63 24.68,-4.83 24.30,-6.04 23.82,-7.07 23.34,-8.10 22.93,-9.48 22.52,-10.85 21.98,-12.13 21.44,-13.42 20.93,-14.48 20.41,-15.54 19.88,-16.74 19.35,-17.94 18.67,-19.23 18.00,-20.51 17.19,-21.89 16.38,-23.26 15.62,-24.63 14.85,-26.00 14.25,-27.14 13.65,-28.28 13.38,-30.09 13.10,-31.91 14.48,-31.94 15.85,-31.98 14.93,-30.63 14.02,-29.29 13.40,-28.21 12.78,-27.14 12.29,-26.09 11.80,-25.04 11.23,-23.78 10.66,-22.53 10.37,-21.11 10.08,-19.70 9.46,-17.98 8.85,-16.27 8.09,-14.42 7.33,-12.58 6.95,-11.45 6.58,-10.32 6.15,-9.22 5.73,-8.12 5.04,-6.48 4.36,-4.84 3.73,-3.35 3.09,-1.87 2.82,-0.66 2.55,0.54 2.45,0.84 2.35,1.14 2.18,1.40 2.00,1.67 1.78,1.89 1.55,2.10 1.27,2.26 1.00,2.41 0.69,2.50 0.39,2.58 0.07,2.59 -0.23,2.60 -0.54,2.53 -0.85,2.47 -1.13,2.33 -1.41,2.19 -1.66,1.99 -1.90,1.79 -2.09,1.53 -2.27,1.28 -2.39,0.99 -2.51,0.70 -2.56,0.39 -2.61,0.07 -2.58,-0.23 -2.55,-0.54 -2.55,-0.54 L -2.55,-0.54 Z"></path></g><g transform="translate(714.3087292171731 512.8588167163743) rotate(90.00000000000284 14.904711516447605 -17.614659064893203)" stroke="none"><path fill="black" d="M -2.55,-0.54 Q -2.55,-0.54 -2.30,-1.76 -2.06,-2.97 -1.78,-4.03 -1.50,-5.09 -1.08,-6.11 -0.66,-7.13 -0.12,-8.70 0.41,-10.27 0.81,-11.33 1.22,-12.38 1.98,-14.46 2.74,-16.54 3.36,-18.28 3.99,-20.01 4.18,-21.15 4.37,-22.29 4.79,-23.86 5.22,-25.44 5.67,-26.77 6.12,-28.10 6.63,-29.28 7.13,-30.46 7.61,-31.50 8.09,-32.54 8.97,-33.95 9.84,-35.35 10.64,-36.27 11.44,-37.19 13.08,-37.52 14.73,-37.86 15.77,-37.39 16.81,-36.93 17.34,-36.00 17.88,-35.07 18.78,-33.23 19.69,-31.39 20.23,-30.09 20.78,-28.79 21.37,-27.39 21.96,-25.99 22.59,-24.63 23.22,-23.27 23.85,-21.83 24.48,-20.40 25.02,-19.06 25.56,-17.72 26.43,-16.08 27.29,-14.45 27.85,-13.24 28.40,-12.04 28.95,-10.85 29.50,-9.65 29.94,-8.62 30.37,-7.58 30.99,-6.37 31.60,-5.15 32.13,-3.77 32.66,-2.39 32.85,-1.88 33.05,-1.37 33.07,-0.83 33.09,-0.28 32.93,0.23 32.78,0.75 32.46,1.20 32.15,1.65 31.71,1.97 31.27,2.29 30.75,2.46 30.23,2.62 29.69,2.61 29.14,2.60 28.63,2.42 28.12,2.24 27.69,1.90 27.26,1.56 26.96,1.11 26.66,0.65 26.53,0.12 26.39,-0.39 26.43,-0.94 26.47,-1.48 26.68,-1.98 26.89,-2.49 27.25,-2.90 27.61,-3.31 28.08,-3.58 28.55,-3.85 29.08,-3.96 29.62,-4.07 30.16,-4.00 30.70,-3.93 31.19,-3.70 31.68,-3.46 32.07,-3.08 32.46,-2.70 32.71,-2.21 32.95,-1.72 33.03,-1.18 33.11,-0.64 33.02,-0.11 32.92,0.42 32.66,0.90 32.39,1.37 31.99,1.74 31.59,2.11 31.09,2.33 30.59,2.55 30.05,2.60 29.50,2.65 28.97,2.52 28.44,2.40 27.98,2.11 27.52,1.82 27.17,1.40 26.83,0.98 26.83,0.98 26.83,0.98 25.94,-1.32 25.06,-3.63 24.68,-4.83 24.30,-6.04 23.82,-7.07 23.34,-8.10 22.93,-9.48 22.52,-10.85 21.98,-12.13 21.44,-13.42 20.93,-14.48 20.41,-15.54 19.88,-16.74 19.35,-17.94 18.67,-19.23 18.00,-20.51 17.19,-21.89 16.38,-23.26 15.62,-24.63 14.85,-26.00 14.25,-27.14 13.65,-28.28 13.38,-30.09 13.10,-31.91 14.48,-31.94 15.85,-31.98 14.93,-30.63 14.02,-29.29 13.40,-28.21 12.78,-27.14 12.29,-26.09 11.80,-25.04 11.23,-23.78 10.66,-22.53 10.37,-21.11 10.08,-19.70 9.46,-17.98 8.85,-16.27 8.09,-14.42 7.33,-12.58 6.95,-11.45 6.58,-10.32 6.15,-9.22 5.73,-8.12 5.04,-6.48 4.36,-4.84 3.73,-3.35 3.09,-1.87 2.82,-0.66 2.55,0.54 2.45,0.84 2.35,1.14 2.18,1.40 2.00,1.67 1.78,1.89 1.55,2.10 1.27,2.26 1.00,2.41 0.69,2.50 0.39,2.58 0.07,2.59 -0.23,2.60 -0.54,2.53 -0.85,2.47 -1.13,2.33 -1.41,2.19 -1.66,1.99 -1.90,1.79 -2.09,1.53 -2.27,1.28 -2.39,0.99 -2.51,0.70 -2.56,0.39 -2.61,0.07 -2.58,-0.23 -2.55,-0.54 -2.55,-0.54 L -2.55,-0.54 Z"></path></g><g transform="translate(-38.910177141284294 106.59615245639543) rotate(270.8815087288755 71 21)"><text x="71" y="33" font-family="Helvetica, Segoe UI Emoji" font-size="36px" fill="black" text-anchor="middle" style="white-space: pre;" direction="ltr">Volumen</text></g><g transform="translate(461.4231037284553 513.7274397718393) rotate(0 102 21)"><text x="102" y="33" font-family="Helvetica, Segoe UI Emoji" font-size="36px" fill="black" text-anchor="middle" style="white-space: pre;" direction="ltr">Temperatura</text></g><g transform="translate(481.59385250349806 181.27814270605086) rotate(53.97262661490565 8.82066245203714 -25.219720395404693)" stroke="none"><path fill="black" d="M -2.58,-15.91 Q -2.58,-15.91 -2.35,-16.86 -2.12,-17.80 -1.73,-19.02 -1.35,-20.24 -0.90,-21.49 -0.46,-22.74 -0.04,-23.97 0.38,-25.20 0.79,-26.48 1.19,-27.77 1.49,-29.03 1.79,-30.30 2.16,-31.30 2.53,-32.30 2.98,-33.27 3.44,-34.23 4.08,-35.27 4.73,-36.32 6.85,-37.20 8.98,-38.09 9.98,-37.69 10.98,-37.29 11.65,-36.20 12.32,-35.11 13.02,-33.72 13.72,-32.33 14.48,-30.83 15.24,-29.32 16.00,-27.68 16.75,-26.04 17.43,-24.74 18.11,-23.44 18.65,-22.27 19.18,-21.10 19.53,-20.07 19.87,-19.04 20.27,-18.25 20.67,-17.46 20.89,-16.92 21.10,-16.38 21.13,-15.80 21.17,-15.22 21.01,-14.66 20.86,-14.10 20.53,-13.62 20.21,-13.14 19.74,-12.79 19.28,-12.44 18.73,-12.25 18.18,-12.07 17.60,-12.07 17.02,-12.07 16.47,-12.25 15.92,-12.44 15.46,-12.79 15.00,-13.14 14.67,-13.62 14.35,-14.10 14.19,-14.66 14.04,-15.22 14.07,-15.79 14.10,-16.37 14.31,-16.91 14.53,-17.45 14.90,-17.89 15.28,-18.34 15.77,-18.64 16.27,-18.94 16.84,-19.06 17.40,-19.19 17.98,-19.12 18.56,-19.06 19.08,-18.82 19.61,-18.58 20.03,-18.18 20.45,-17.78 20.73,-17.27 21.00,-16.75 21.09,-16.18 21.19,-15.61 21.09,-15.04 21.00,-14.46 20.73,-13.95 20.46,-13.44 20.04,-13.04 19.62,-12.64 19.09,-12.40 18.56,-12.15 17.99,-12.09 17.41,-12.03 16.84,-12.15 16.28,-12.27 15.78,-12.57 15.28,-12.87 14.91,-13.31 14.53,-13.76 14.53,-13.76 14.53,-13.75 13.63,-15.96 12.72,-18.16 12.14,-19.62 11.56,-21.09 11.01,-22.18 10.45,-23.27 9.80,-24.62 9.15,-25.97 8.25,-27.60 7.36,-29.22 7.43,-30.60 7.49,-31.97 8.51,-31.52 9.54,-31.06 8.99,-30.09 8.45,-29.12 8.01,-28.15 7.56,-27.17 7.24,-25.98 6.92,-24.79 6.47,-23.77 6.02,-22.74 5.55,-21.64 5.07,-20.54 4.57,-19.45 4.07,-18.36 3.61,-17.35 3.15,-16.35 2.86,-15.42 2.58,-14.50 2.45,-14.20 2.33,-13.90 2.14,-13.64 1.95,-13.38 1.71,-13.17 1.46,-12.96 1.17,-12.82 0.88,-12.68 0.56,-12.61 0.25,-12.54 -0.06,-12.55 -0.39,-12.56 -0.70,-12.64 -1.01,-12.73 -1.29,-12.88 -1.57,-13.04 -1.81,-13.26 -2.04,-13.48 -2.22,-13.75 -2.40,-14.02 -2.50,-14.33 -2.61,-14.63 -2.64,-14.95 -2.67,-15.27 -2.62,-15.59 -2.58,-15.91 -2.58,-15.91 L -2.58,-15.91 Z"></path></g><g stroke-linecap="round"><g transform="translate(81.26221537399215 495.2441576514848) rotate(0 201.53412525856857 -168.071855404316)"><path d="M0 0 C138.26 -115.3, 276.51 -230.6, 403.07 -336.14 M0 0 C82.95 -69.18, 165.91 -138.36, 403.07 -336.14" stroke="black" stroke-width="2" fill="none"></path></g></g></svg>