<svg xmlns="http://www.w3.org/2000/svg" xmlns:xlink="http://www.w3.org/1999/xlink" width="307.171875" height="74.390625" style="width:307.171875px;height:74.390625px;font-family:Asana-Math, Asana;background:#FFF;"><g><g><g><g transform="matrix(1,0,0,1,56.125,20.609375)"><path transform="matrix(0.017,0,0,-0.017,0,0)" d="M260 229L443 444L361 444L227 279L89 444L6 444L194 229L0 0L82 0L227 188L377 0L460 0Z" stroke="rgb(0,0,0)" stroke-opacity="1" stroke-width="8" fill="rgb(0,0,0)" fill-opacity="1"></path></g></g><g><g><g><g><g transform="matrix(1,0,0,1,64.921875,13.9)"><path transform="matrix(0.0119,0,0,-0.0119,0,0)" d="M83 466C103 545 131 624 222 624C316 624 367 548 367 468C367 382 310 324 251 263L174 191L50 65L50 0L449 0L449 72L267 72C255 72 243 71 231 71L122 71C154 100 230 176 261 205C333 274 449 347 449 471C449 587 368 689 236 689C122 689 66 610 42 522C66 487 59 501 83 466Z" stroke="rgb(0,0,0)" stroke-opacity="1" stroke-width="8" fill="rgb(0,0,0)" fill-opacity="1"></path></g></g></g></g></g><g><g transform="matrix(1,0,0,1,71.890625,20.609375)"><path transform="matrix(0.017,0,0,-0.017,0,0)" d="" stroke="rgb(0,0,0)" stroke-opacity="1" stroke-width="8" fill="rgb(0,0,0)" fill-opacity="1"></path></g></g><g><g transform="matrix(1,0,0,1,81.21875,20.609375)"><path transform="matrix(0.017,0,0,-0.017,0,0)" d="M604 347L604 406L65 406L65 347ZM604 134L604 193L65 193L65 134Z" stroke="rgb(0,0,0)" stroke-opacity="1" stroke-width="8" fill="rgb(0,0,0)" fill-opacity="1"></path></g></g><g><g transform="matrix(1,0,0,1,97.671875,20.609375)"><path transform="matrix(0.017,0,0,-0.017,0,0)" d="M648 289C648 391 575 461 483 461C418 461 373 445 326 418L332 352C384 389 434 402 483 402C530 402 570 362 570 288L570 245C420 243 293 201 293 113C293 70 320 -11 407 -11C421 -11 515 -9 573 36L573 0L648 0ZM570 132C570 113 570 88 536 69C507 51 469 50 458 50C410 50 365 73 365 115C365 185 527 192 570 194Z" stroke="rgb(0,0,0)" stroke-opacity="1" stroke-width="8" fill="rgb(0,0,0)" fill-opacity="1"></path></g></g><g><g><g><g><g transform="matrix(1,0,0,1,111.03125,13.9)"><path transform="matrix(0.0119,0,0,-0.0119,0,0)" d="M83 466C103 545 131 624 222 624C316 624 367 548 367 468C367 382 310 324 251 263L174 191L50 65L50 0L449 0L449 72L267 72C255 72 243 71 231 71L122 71C154 100 230 176 261 205C333 274 449 347 449 471C449 587 368 689 236 689C122 689 66 610 42 522C66 487 59 501 83 466Z" stroke="rgb(0,0,0)" stroke-opacity="1" stroke-width="8" fill="rgb(0,0,0)" fill-opacity="1"></path></g></g></g></g></g><g><g transform="matrix(1,0,0,1,118,20.609375)"><path transform="matrix(0.017,0,0,-0.017,0,0)" d="" stroke="rgb(0,0,0)" stroke-opacity="1" stroke-width="8" fill="rgb(0,0,0)" fill-opacity="1"></path></g></g><g><g transform="matrix(1,0,0,1,125.625,20.609375)"><path transform="matrix(0.017,0,0,-0.017,0,0)" d="M604 241L604 300L364 300L364 538L305 538L305 300L65 300L65 241L305 241L305 0L364 0L364 241Z" stroke="rgb(0,0,0)" stroke-opacity="1" stroke-width="8" fill="rgb(0,0,0)" fill-opacity="1"></path></g></g><g><g transform="matrix(1,0,0,1,140.375,20.609375)"><path transform="matrix(0.017,0,0,-0.017,0,0)" d="M406 694L331 694L331 0L409 0L409 46C433 24 476 -11 543 -11C643 -11 729 89 729 223C729 347 661 455 567 455C528 455 466 445 406 396ZM409 335C425 359 461 394 516 394C575 394 651 351 651 223C651 93 567 50 506 50C467 50 434 68 409 114Z" stroke="rgb(0,0,0)" stroke-opacity="1" stroke-width="8" fill="rgb(0,0,0)" fill-opacity="1"></path></g></g><g><g><g><g><g transform="matrix(1,0,0,1,154.34375,13.9)"><path transform="matrix(0.0119,0,0,-0.0119,0,0)" d="M83 466C103 545 131 624 222 624C316 624 367 548 367 468C367 382 310 324 251 263L174 191L50 65L50 0L449 0L449 72L267 72C255 72 243 71 231 71L122 71C154 100 230 176 261 205C333 274 449 347 449 471C449 587 368 689 236 689C122 689 66 610 42 522C66 487 59 501 83 466Z" stroke="rgb(0,0,0)" stroke-opacity="1" stroke-width="8" fill="rgb(0,0,0)" fill-opacity="1"></path></g></g></g></g></g><g><g transform="matrix(1,0,0,1,161.3125,20.609375)"><path transform="matrix(0.017,0,0,-0.017,0,0)" d="" stroke="rgb(0,0,0)" stroke-opacity="1" stroke-width="8" fill="rgb(0,0,0)" fill-opacity="1"></path></g></g><g><g transform="matrix(1,0,0,1,168.9375,20.609375)"><path transform="matrix(0.017,0,0,-0.017,0,0)" d="M555 243L555 299L51 299L51 243Z" stroke="rgb(0,0,0)" stroke-opacity="1" stroke-width="8" fill="rgb(0,0,0)" fill-opacity="1"></path></g></g><g><g transform="matrix(1,0,0,1,182.625,20.609375)"><path transform="matrix(0.017,0,0,-0.017,0,0)" d="M332 466C352 545 380 624 471 624C565 624 616 548 616 468C616 382 559 324 500 263L423 191L299 65L299 0L698 0L698 72L516 72C504 72 492 71 480 71L371 71C403 100 479 176 510 205C582 274 698 347 698 471C698 587 617 689 485 689C371 689 315 610 291 522C315 487 308 501 332 466ZM1147 289C1147 391 1074 461 982 461C917 461 872 445 825 418L831 352C883 389 933 402 982 402C1029 402 1069 362 1069 288L1069 245C919 243 792 201 792 113C792 70 819 -11 906 -11C920 -11 1014 -9 1072 36L1072 0L1147 0ZM1069 132C1069 113 1069 88 1035 69C1006 51 968 50 957 50C909 50 864 73 864 115C864 185 1026 192 1069 194ZM1384 694L1309 694L1309 0L1387 0L1387 46C1411 24 1454 -11 1521 -11C1621 -11 1707 89 1707 223C1707 347 1639 455 1545 455C1506 455 1444 445 1384 396ZM1387 335C1403 359 1439 394 1494 394C1553 394 1629 351 1629 223C1629 93 1545 50 1484 50C1445 50 1412 68 1387 114ZM2401 418C2342 452 2308 461 2247 461C2108 461 2027 340 2027 222C2027 98 2118 -11 2243 -11C2297 -11 2352 3 2406 40L2400 107C2349 67 2295 53 2244 53C2161 53 2105 125 2105 223C2105 301 2142 397 2248 397C2300 397 2334 389 2389 353ZM2903 220C2903 354 2803 461 2684 461C2561 461 2464 351 2464 220C2464 88 2566 -11 2683 -11C2803 -11 2903 90 2903 220ZM2683 53C2614 53 2542 109 2542 230C2542 351 2618 400 2683 400C2753 400 2825 348 2825 230C2825 112 2757 53 2683 53ZM3293 128C3293 183 3256 217 3254 220C3215 255 3188 261 3138 270C3083 281 3037 291 3037 340C3037 402 3109 402 3122 402C3154 402 3207 398 3264 364L3276 429C3224 453 3183 461 3132 461C3107 461 2966 461 2966 330C2966 281 2995 249 3020 230C3051 208 3073 204 3128 193C3164 186 3222 174 3222 121C3222 52 3143 52 3128 52C3047 52 2991 89 2973 101L2961 33C2993 17 3048 -11 3129 -11C3267 -11 3293 75 3293 128ZM3824 229L4007 444L3925 444L3791 279L3653 444L3570 444L3758 229L3564 0L3646 0L3791 188L3941 0L4024 0Z" stroke="rgb(0,0,0)" stroke-opacity="1" stroke-width="8" fill="rgb(0,0,0)" fill-opacity="1"></path></g></g></g><g><g><g><g><g><g transform="matrix(1,0,0,1,19,48.609375)"><path transform="matrix(0.017,0,0,-0.017,0,0)" d="M260 229L443 444L361 444L227 279L89 444L6 444L194 229L0 0L82 0L227 188L377 0L460 0Z" stroke="rgb(0,0,0)" stroke-opacity="1" stroke-width="8" fill="rgb(0,0,0)" fill-opacity="1"></path></g></g><g><g><g><g><g transform="matrix(1,0,0,1,27.796875,41.9)"><path transform="matrix(0.0119,0,0,-0.0119,0,0)" d="M83 466C103 545 131 624 222 624C316 624 367 548 367 468C367 382 310 324 251 263L174 191L50 65L50 0L449 0L449 72L267 72C255 72 243 71 231 71L122 71C154 100 230 176 261 205C333 274 449 347 449 471C449 587 368 689 236 689C122 689 66 610 42 522C66 487 59 501 83 466Z" stroke="rgb(0,0,0)" stroke-opacity="1" stroke-width="8" fill="rgb(0,0,0)" fill-opacity="1"></path></g></g></g></g></g></g></g><svg x="2" overflow="visible" y="28" height="17" width="32.765625"><polygon points="0.35,11.89 4.79,9.52 9.60,19.72 16.36,0.00 32.77,0.00 32.77,1.05 17.09,1.05 9.18,24.19 3.10,11.45 0.64,12.37" style="fill:rgb(0,0,0);fill-opacity:1;stroke-width:1px;stroke:none;stroke-opacity:1;"></polygon></svg></g><g><g transform="matrix(1,0,0,1,34.765625,48.609375)"><path transform="matrix(0.017,0,0,-0.017,0,0)" d="" stroke="rgb(0,0,0)" stroke-opacity="1" stroke-width="8" fill="rgb(0,0,0)" fill-opacity="1"></path></g></g><g><g transform="matrix(1,0,0,1,44.09375,48.609375)"><path transform="matrix(0.017,0,0,-0.017,0,0)" d="M604 347L604 406L65 406L65 347ZM604 134L604 193L65 193L65 134Z" stroke="rgb(0,0,0)" stroke-opacity="1" stroke-width="8" fill="rgb(0,0,0)" fill-opacity="1"></path></g></g><g><g transform="matrix(1,0,0,1,60.546875,48.609375)"><path transform="matrix(0.017,0,0,-0.017,0,0)" d="" stroke="rgb(0,0,0)" stroke-opacity="1" stroke-width="8" fill="rgb(0,0,0)" fill-opacity="1"></path></g></g><g><g><g><g><g transform="matrix(1,0,0,1,81.78125,48.609375)"><path transform="matrix(0.017,0,0,-0.017,0,0)" d="M299 689L279 689C220 627 137 624 89 622L89 563C122 564 170 566 220 587L220 59L95 59L95 0L424 0L424 59L299 59ZM956 331C956 412 952 506 910 588C869 665 800 689 749 689C690 689 620 662 579 571C546 497 541 413 541 331C541 251 545 177 575 103C615 5 691 -22 748 -22C821 -22 884 19 916 89C946 155 956 223 956 331ZM749 40C697 40 656 78 636 151C620 209 619 264 619 343C619 407 619 468 636 524C642 544 667 627 748 627C826 627 852 550 859 531C878 475 878 406 878 343C878 276 878 212 860 148C834 56 781 40 749 40Z" stroke="rgb(0,0,0)" stroke-opacity="1" stroke-width="8" fill="rgb(0,0,0)" fill-opacity="1"></path></g></g><g><g><g><g><g transform="matrix(1,0,0,1,99.71875,41.9)"><path transform="matrix(0.0119,0,0,-0.0119,0,0)" d="M83 466C103 545 131 624 222 624C316 624 367 548 367 468C367 382 310 324 251 263L174 191L50 65L50 0L449 0L449 72L267 72C255 72 243 71 231 71L122 71C154 100 230 176 261 205C333 274 449 347 449 471C449 587 368 689 236 689C122 689 66 610 42 522C66 487 59 501 83 466Z" stroke="rgb(0,0,0)" stroke-opacity="1" stroke-width="8" fill="rgb(0,0,0)" fill-opacity="1"></path></g></g></g></g></g></g></g><svg x="64.78125" overflow="visible" y="28" height="17" width="41.90625"><polygon points="0.35,11.89 4.79,9.52 9.60,19.72 16.36,0.00 41.91,0.00 41.91,1.05 17.09,1.05 9.18,24.19 3.10,11.45 0.64,12.37" style="fill:rgb(0,0,0);fill-opacity:1;stroke-width:1px;stroke:none;stroke-opacity:1;"></polygon></svg></g><g><g transform="matrix(1,0,0,1,106.6875,48.609375)"><path transform="matrix(0.017,0,0,-0.017,0,0)" d="" stroke="rgb(0,0,0)" stroke-opacity="1" stroke-width="8" fill="rgb(0,0,0)" fill-opacity="1"></path></g></g><g><g transform="matrix(1,0,0,1,114.3125,48.609375)"><path transform="matrix(0.017,0,0,-0.017,0,0)" d="M604 241L604 300L364 300L364 538L305 538L305 300L65 300L65 241L305 241L305 0L364 0L364 241Z" stroke="rgb(0,0,0)" stroke-opacity="1" stroke-width="8" fill="rgb(0,0,0)" fill-opacity="1"></path></g></g><g><g transform="matrix(1,0,0,1,129.0625,48.609375)"><path transform="matrix(0.017,0,0,-0.017,0,0)" d="M402 602L665 602L665 667L330 667L330 292L396 292C413 332 450 372 508 372C555 372 609 330 609 208C609 40 487 40 478 40C411 40 350 79 321 134L288 77C329 19 398 -22 479 -22C598 -22 698 78 698 206C698 333 612 434 509 434C469 434 431 419 402 392Z" stroke="rgb(0,0,0)" stroke-opacity="1" stroke-width="8" fill="rgb(0,0,0)" fill-opacity="1"></path></g></g><g><g><g><g><g transform="matrix(1,0,0,1,142.75,41.9)"><path transform="matrix(0.0119,0,0,-0.0119,0,0)" d="M83 466C103 545 131 624 222 624C316 624 367 548 367 468C367 382 310 324 251 263L174 191L50 65L50 0L449 0L449 72L267 72C255 72 243 71 231 71L122 71C154 100 230 176 261 205C333 274 449 347 449 471C449 587 368 689 236 689C122 689 66 610 42 522C66 487 59 501 83 466Z" stroke="rgb(0,0,0)" stroke-opacity="1" stroke-width="8" fill="rgb(0,0,0)" fill-opacity="1"></path></g></g></g></g></g><g><g transform="matrix(1,0,0,1,149.71875,48.609375)"><path transform="matrix(0.017,0,0,-0.017,0,0)" d="" stroke="rgb(0,0,0)" stroke-opacity="1" stroke-width="8" fill="rgb(0,0,0)" fill-opacity="1"></path></g></g><g><g transform="matrix(1,0,0,1,157.34375,48.609375)"><path transform="matrix(0.017,0,0,-0.017,0,0)" d="M555 243L555 299L51 299L51 243Z" stroke="rgb(0,0,0)" stroke-opacity="1" stroke-width="8" fill="rgb(0,0,0)" fill-opacity="1"></path></g></g><g><g transform="matrix(1,0,0,1,171.03125,48.609375)"><path transform="matrix(0.017,0,0,-0.017,0,0)" d="M332 466C352 545 380 624 471 624C565 624 616 548 616 468C616 382 559 324 500 263L423 191L299 65L299 0L698 0L698 72L516 72C504 72 492 71 480 71L371 71C403 100 479 176 510 205C582 274 698 347 698 471C698 587 617 689 485 689C371 689 315 610 291 522C315 487 308 501 332 466ZM1165 267L1034 213L1029 204L1065 153L1075 153L1181 241L1199 99L1209 95L1277 121L1277 131L1209 253L1347 233L1356 241L1356 303L1350 307L1211 283L1280 408L1277 423L1215 442L1206 438L1180 295L1085 393L1075 393L1031 341L1034 331ZM1933 689L1913 689C1854 627 1771 624 1723 622L1723 563C1756 564 1804 566 1854 587L1854 59L1729 59L1729 0L2058 0L2058 59L1933 59ZM2590 331C2590 412 2586 506 2544 588C2503 665 2434 689 2383 689C2324 689 2254 662 2213 571C2180 497 2175 413 2175 331C2175 251 2179 177 2209 103C2249 5 2325 -22 2382 -22C2455 -22 2518 19 2550 89C2580 155 2590 223 2590 331ZM2383 40C2331 40 2290 78 2270 151C2254 209 2253 264 2253 343C2253 407 2253 468 2270 524C2276 544 2301 627 2382 627C2460 627 2486 550 2493 531C2512 475 2512 406 2512 343C2512 276 2512 212 2494 148C2468 56 2415 40 2383 40ZM3049 267L2918 213L2913 204L2949 153L2959 153L3065 241L3083 99L3093 95L3161 121L3161 131L3093 253L3231 233L3240 241L3240 303L3234 307L3095 283L3164 408L3161 423L3099 442L3090 438L3064 295L2969 393L2959 393L2915 341L2918 331ZM3671 602L3934 602L3934 667L3599 667L3599 292L3665 292C3682 332 3719 372 3777 372C3824 372 3878 330 3878 208C3878 40 3756 40 3747 40C3680 40 3619 79 3590 134L3557 77C3598 19 3667 -22 3748 -22C3867 -22 3967 78 3967 206C3967 333 3881 434 3778 434C3738 434 3700 419 3671 392ZM4434 267L4303 213L4298 204L4334 153L4344 153L4450 241L4468 99L4478 95L4546 121L4546 131L4478 253L4616 233L4625 241L4625 303L4619 307L4480 283L4549 408L4546 423L4484 442L4475 438L4449 295L4354 393L4344 393L4300 341L4303 331ZM5313 418C5254 452 5220 461 5159 461C5020 461 4939 340 4939 222C4939 98 5030 -11 5155 -11C5209 -11 5264 3 5318 40L5312 107C5261 67 5207 53 5156 53C5073 53 5017 125 5017 223C5017 301 5054 397 5160 397C5212 397 5246 389 5301 353ZM5815 220C5815 354 5715 461 5596 461C5473 461 5376 351 5376 220C5376 88 5478 -11 5595 -11C5715 -11 5815 90 5815 220ZM5595 53C5526 53 5454 109 5454 230C5454 351 5530 400 5595 400C5665 400 5737 348 5737 230C5737 112 5669 53 5595 53ZM6205 128C6205 183 6168 217 6166 220C6127 255 6100 261 6050 270C5995 281 5949 291 5949 340C5949 402 6021 402 6034 402C6066 402 6119 398 6176 364L6188 429C6136 453 6095 461 6044 461C6019 461 5878 461 5878 330C5878 281 5907 249 5932 230C5963 208 5985 204 6040 193C6076 186 6134 174 6134 121C6134 52 6055 52 6040 52C5959 52 5903 89 5885 101L5873 33C5905 17 5960 -11 6041 -11C6179 -11 6205 75 6205 128Z" stroke="rgb(0,0,0)" stroke-opacity="1" stroke-width="8" fill="rgb(0,0,0)" fill-opacity="1"></path></g></g><g><g transform="matrix(1,0,0,1,276.890625,48.609375)"><path transform="matrix(0.017,0,0,-0.017,0,0)" d="M146 266C146 526 243 632 301 700L282 726C225 675 60 542 60 266C60 159 85 58 133 -32C168 -99 200 -138 282 -215L301 -194C255 -137 146 -15 146 266Z" stroke="rgb(0,0,0)" stroke-opacity="1" stroke-width="8" fill="rgb(0,0,0)" fill-opacity="1"></path></g></g><g><g transform="matrix(1,0,0,1,282.546875,48.609375)"><path transform="matrix(0.017,0,0,-0.017,0,0)" d="M42 594L389 594C241 429 152 227 152 -11L236 -11C236 294 379 511 457 601L457 667L42 667ZM652 602L915 602L915 667L580 667L580 292L646 292C663 332 700 372 758 372C805 372 859 330 859 208C859 40 737 40 728 40C661 40 600 79 571 134L538 77C579 19 648 -22 729 -22C848 -22 948 78 948 206C948 333 862 434 759 434C719 434 681 419 652 392Z" stroke="rgb(0,0,0)" stroke-opacity="1" stroke-width="8" fill="rgb(0,0,0)" fill-opacity="1"></path></g></g><g><g transform="matrix(1,0,0,1,299.515625,48.609375)"><path transform="matrix(0.017,0,0,-0.017,0,0)" d="M51 726L32 700C87 636 187 526 187 266C187 -10 83 -131 32 -194L51 -215C104 -165 273 -23 273 265C273 542 108 675 51 726Z" stroke="rgb(0,0,0)" stroke-opacity="1" stroke-width="8" fill="rgb(0,0,0)" fill-opacity="1"></path></g></g></g><g><g><g transform="matrix(1,0,0,1,119.828125,69)"><path transform="matrix(0.017,0,0,-0.017,0,0)" d="M260 229L443 444L361 444L227 279L89 444L6 444L194 229L0 0L82 0L227 188L377 0L460 0Z" stroke="rgb(0,0,0)" stroke-opacity="1" stroke-width="8" fill="rgb(0,0,0)" fill-opacity="1"></path></g></g><g><g transform="matrix(1,0,0,1,136.984375,69)"><path transform="matrix(0.017,0,0,-0.017,0,0)" d="M604 347L604 406L65 406L65 347ZM604 134L604 193L65 193L65 134Z" stroke="rgb(0,0,0)" stroke-opacity="1" stroke-width="8" fill="rgb(0,0,0)" fill-opacity="1"></path></g></g><g><g transform="matrix(1,0,0,1,153.4375,69)"><path transform="matrix(0.017,0,0,-0.017,0,0)" d="M321 24C355 -1 392 -22 454 -22C585 -22 706 119 706 340C706 625 587 689 502 689C432 689 391 658 356 621C293 552 291 485 291 441C291 311 357 197 453 197C515 197 579 227 622 281C611 118 534 40 455 40C421 40 388 48 352 78ZM620 418C620 334 571 259 492 259C445 259 417 283 396 320C374 360 373 397 373 441C373 486 374 527 402 572C422 602 450 630 502 630C609 630 620 467 620 418ZM872 111C842 111 815 83 815 53C815 23 842 -5 871 -5C903 -5 931 22 931 53C931 83 903 111 872 111ZM1069 24C1103 -1 1140 -22 1202 -22C1333 -22 1454 119 1454 340C1454 625 1335 689 1250 689C1180 689 1139 658 1104 621C1041 552 1039 485 1039 441C1039 311 1105 197 1201 197C1263 197 1327 227 1370 281C1359 118 1282 40 1203 40C1169 40 1136 48 1100 78ZM1368 418C1368 334 1319 259 1240 259C1193 259 1165 283 1144 320C1122 360 1121 397 1121 441C1121 486 1122 527 1150 572C1170 602 1198 630 1250 630C1357 630 1368 467 1368 418ZM1649 602L1912 602L1912 667L1577 667L1577 292L1643 292C1660 332 1697 372 1755 372C1802 372 1856 330 1856 208C1856 40 1734 40 1725 40C1658 40 1597 79 1568 134L1535 77C1576 19 1645 -22 1726 -22C1845 -22 1945 78 1945 206C1945 333 1859 434 1756 434C1716 434 1678 419 1649 392Z" stroke="rgb(0,0,0)" stroke-opacity="1" stroke-width="8" fill="rgb(0,0,0)" fill-opacity="1"></path></g></g></g></g></svg>