<svg xmlns="http://www.w3.org/2000/svg" xmlns:xlink="http://www.w3.org/1999/xlink" width="271.21875" height="247.890625" style="width:271.21875px;height:247.890625px;font-family:Asana-Math, Asana;background:#FFF;"><g><g><g><g><g><g><g transform="matrix(1,0,0,1,87.515625,20.609375)"><path transform="matrix(0.017,0,0,-0.017,0,0)" d="M399 289C399 391 326 461 234 461C169 461 124 445 77 418L83 352C135 389 185 402 234 402C281 402 321 362 321 288L321 245C171 243 44 201 44 113C44 70 71 -11 158 -11C172 -11 266 -9 324 36L324 0L399 0ZM321 132C321 113 321 88 287 69C258 51 220 50 209 50C161 50 116 73 116 115C116 185 278 192 321 194Z" stroke="rgb(0,0,0)" stroke-opacity="1" stroke-width="8" fill="rgb(0,0,0)" fill-opacity="1"></path></g></g><g><g><g><g><g transform="matrix(1,0,0,1,96.640625,13.9)"><path transform="matrix(0.0119,0,0,-0.0119,0,0)" d="M83 466C103 545 131 624 222 624C316 624 367 548 367 468C367 382 310 324 251 263L174 191L50 65L50 0L449 0L449 72L267 72C255 72 243 71 231 71L122 71C154 100 230 176 261 205C333 274 449 347 449 471C449 587 368 689 236 689C122 689 66 610 42 522C66 487 59 501 83 466Z" stroke="rgb(0,0,0)" stroke-opacity="1" stroke-width="8" fill="rgb(0,0,0)" fill-opacity="1"></path></g></g></g></g></g><g><g transform="matrix(1,0,0,1,107,20.609375)"><path transform="matrix(0.017,0,0,-0.017,0,0)" d="M604 241L604 300L364 300L364 538L305 538L305 300L65 300L65 241L305 241L305 0L364 0L364 241Z" stroke="rgb(0,0,0)" stroke-opacity="1" stroke-width="8" fill="rgb(0,0,0)" fill-opacity="1"></path></g></g><g><g transform="matrix(1,0,0,1,121.75,20.609375)"><path transform="matrix(0.017,0,0,-0.017,0,0)" d="M406 694L331 694L331 0L409 0L409 46C433 24 476 -11 543 -11C643 -11 729 89 729 223C729 347 661 455 567 455C528 455 466 445 406 396ZM409 335C425 359 461 394 516 394C575 394 651 351 651 223C651 93 567 50 506 50C467 50 434 68 409 114Z" stroke="rgb(0,0,0)" stroke-opacity="1" stroke-width="8" fill="rgb(0,0,0)" fill-opacity="1"></path></g></g><g><g><g><g><g transform="matrix(1,0,0,1,135.71875,13.9)"><path transform="matrix(0.0119,0,0,-0.0119,0,0)" d="M83 466C103 545 131 624 222 624C316 624 367 548 367 468C367 382 310 324 251 263L174 191L50 65L50 0L449 0L449 72L267 72C255 72 243 71 231 71L122 71C154 100 230 176 261 205C333 274 449 347 449 471C449 587 368 689 236 689C122 689 66 610 42 522C66 487 59 501 83 466Z" stroke="rgb(0,0,0)" stroke-opacity="1" stroke-width="8" fill="rgb(0,0,0)" fill-opacity="1"></path></g></g></g></g></g><g><g transform="matrix(1,0,0,1,142.6875,20.609375)"><path transform="matrix(0.017,0,0,-0.017,0,0)" d="" stroke="rgb(0,0,0)" stroke-opacity="1" stroke-width="8" fill="rgb(0,0,0)" fill-opacity="1"></path></g></g><g><g transform="matrix(1,0,0,1,150.3125,20.609375)"><path transform="matrix(0.017,0,0,-0.017,0,0)" d="M555 243L555 299L51 299L51 243Z" stroke="rgb(0,0,0)" stroke-opacity="1" stroke-width="8" fill="rgb(0,0,0)" fill-opacity="1"></path></g></g><g><g transform="matrix(1,0,0,1,164,20.609375)"><path transform="matrix(0.017,0,0,-0.017,0,0)" d="M659 418C600 452 566 461 505 461C366 461 285 340 285 222C285 98 376 -11 501 -11C555 -11 610 3 664 40L658 107C607 67 553 53 502 53C419 53 363 125 363 223C363 301 400 397 506 397C558 397 592 389 647 353Z" stroke="rgb(0,0,0)" stroke-opacity="1" stroke-width="8" fill="rgb(0,0,0)" fill-opacity="1"></path></g></g><g><g><g><g><g transform="matrix(1,0,0,1,176.734375,13.9)"><path transform="matrix(0.0119,0,0,-0.0119,0,0)" d="M83 466C103 545 131 624 222 624C316 624 367 548 367 468C367 382 310 324 251 263L174 191L50 65L50 0L449 0L449 72L267 72C255 72 243 71 231 71L122 71C154 100 230 176 261 205C333 274 449 347 449 471C449 587 368 689 236 689C122 689 66 610 42 522C66 487 59 501 83 466Z" stroke="rgb(0,0,0)" stroke-opacity="1" stroke-width="8" fill="rgb(0,0,0)" fill-opacity="1"></path></g></g></g></g></g></g></g><g><g><g><g transform="matrix(1,0,0,1,118.0625,46.390625)"><path transform="matrix(0.017,0,0,-0.017,0,0)" d="M555 243L555 299L51 299L51 243Z" stroke="rgb(0,0,0)" stroke-opacity="1" stroke-width="8" fill="rgb(0,0,0)" fill-opacity="1"></path></g></g><g><g transform="matrix(1,0,0,1,128.359375,46.390625)"><path transform="matrix(0.017,0,0,-0.017,0,0)" d="M83 466C103 545 131 624 222 624C316 624 367 548 367 468C367 382 310 324 251 263L174 191L50 65L50 0L449 0L449 72L267 72C255 72 243 71 231 71L122 71C154 100 230 176 261 205C333 274 449 347 449 471C449 587 368 689 236 689C122 689 66 610 42 522C66 487 59 501 83 466ZM656 694L581 694L581 0L659 0L659 46C683 24 726 -11 793 -11C893 -11 979 89 979 223C979 347 911 455 817 455C778 455 716 445 656 396ZM659 335C675 359 711 394 766 394C825 394 901 351 901 223C901 93 817 50 756 50C717 50 684 68 659 114ZM1424 418C1365 452 1331 461 1270 461C1131 461 1050 340 1050 222C1050 98 1141 -11 1266 -11C1320 -11 1375 3 1429 40L1423 107C1372 67 1318 53 1267 53C1184 53 1128 125 1128 223C1128 301 1165 397 1271 397C1323 397 1357 389 1412 353Z" stroke="rgb(0,0,0)" stroke-opacity="1" stroke-width="8" fill="rgb(0,0,0)" fill-opacity="1"></path></g></g></g></g><line style="fill:none;stroke-width:1px;stroke:rgb(0, 0, 0);" x1="87.515625" y1="28.75" x2="183.703125" y2="28.75"></line></g></g><g></g><g><g><g><g transform="matrix(1,0,0,1,2,100.859375)"><path transform="matrix(0.017,0,0,-0.017,0,0)" d="M324 82L319 -3C384 0 384 0 397 0C402 0 427 -1 471 -3L471 27L432 29C408 30 404 38 404 87L404 270C404 416 362 469 246 469C203 469 163 458 125 435L72 403L72 338L98 331L111 362C132 409 142 416 188 416C282 416 321 379 324 288L225 270C89 245 32 198 32 111C32 33 79 -12 158 -12C176 -12 193 -9 200 -4ZM324 124C295 83 232 45 193 45C153 45 118 82 118 125C118 162 138 197 168 216C193 231 248 245 324 256ZM522 400L559 400C599 400 603 393 603 327L603 102C603 39 600 32 566 30L520 27L520 -3C592 -1 618 0 643 0C663 0 663 0 786 -3L786 27L734 30C689 33 687 36 687 102L687 274C687 334 727 384 776 384C806 384 827 370 843 338L864 338L873 458C862 465 844 469 826 469C796 469 764 453 743 428L687 362L687 465L678 469C627 448 575 434 522 428ZM1292 311C1292 357 1297 398 1306 434C1274 478 1231 497 1186 497C1062 497 918 361 918 224C918 219 919 215 919 210C919 75 1014 -20 1148 -20C1200 -20 1275 -1 1285 14L1306 46L1296 61C1259 41 1227 32 1191 32C1080 32 1007 118 1007 250C1007 357 1057 417 1147 417C1191 417 1239 397 1257 372L1264 311ZM1735 311C1735 357 1740 398 1749 434C1717 478 1674 497 1629 497C1505 497 1361 361 1361 224C1361 219 1362 215 1362 210C1362 75 1457 -20 1591 -20C1643 -20 1718 -1 1728 14L1749 46L1739 61C1702 41 1670 32 1634 32C1523 32 1450 118 1450 250C1450 357 1500 417 1590 417C1634 417 1682 397 1700 372L1707 311ZM2058 469C1912 469 1811 366 1811 217C1811 76 1900 -20 2029 -20C2183 -20 2293 87 2293 237C2293 372 2195 469 2058 469ZM2040 436C2132 436 2200 336 2200 200C2200 85 2149 13 2068 13C1970 13 1904 109 1904 251C1904 371 1952 436 2040 436ZM2365 143C2365 74 2362 44 2354 4C2406 -13 2445 -20 2491 -20C2622 -20 2715 50 2715 148C2715 321 2431 228 2431 358C2431 408 2466 436 2527 436C2594 436 2645 401 2645 354L2645 331L2673 331C2674 389 2675 413 2678 444C2625 462 2589 469 2548 469C2432 469 2361 414 2361 324C2361 276 2383 242 2429 221C2547 169 2641 195 2641 109C2641 55 2591 17 2520 17C2447 17 2395 52 2395 102L2395 143Z" stroke="rgb(0,0,0)" stroke-opacity="1" stroke-width="8" fill="rgb(0,0,0)" fill-opacity="1"></path></g></g></g><g><svg x="49.890625" overflow="visible" y="68.859375" height="49" width="8.5"><path d=" M 6.27 1.70 c 0.00 -0.06 -0.04 -0.08 -0.08 -0.08 c -0.03 0.00 -0.06 0.01 -0.08 0.02 c -2.55 1.34 -4.65 3.73 -4.65 9.40 v 0.60 h 1.53 v -0.60 c 0.00 -3.23 0.64 -7.03 3.31 -9.06 c 0.12 -0.09 0.13 -0.19 0.13 -0.28 z   M 1.44 11.64 v 25.72 h 1.53 v -25.72 z" style="fill:rgb(0,0,0);fill-opacity:1;stroke-width:1px;stroke:none;stroke-opacity:1;"></path><path d=" M 6.27 47.30 c 0.00 0.06 -0.04 0.08 -0.08 0.08 c -0.03 0.00 -0.06 -0.01 -0.08 -0.02 c -2.55 -1.34 -4.65 -3.73 -4.65 -9.40 v -0.60 h 1.53 v 0.60 c 0.00 3.23 0.64 7.03 3.31 9.06 c 0.12 0.09 0.13 0.19 0.13 0.28 z" style="fill:rgb(0,0,0);fill-opacity:1;stroke-width:1px;stroke:none;stroke-opacity:1;"></path></svg></g><g><g><g><g><g transform="matrix(1,0,0,1,58.390625,88.46875)"><path transform="matrix(0.017,0,0,-0.017,0,0)" d="M83 466C103 545 131 624 222 624C316 624 367 548 367 468C367 382 310 324 251 263L174 191L50 65L50 0L449 0L449 72L267 72C255 72 243 71 231 71L122 71C154 100 230 176 261 205C333 274 449 347 449 471C449 587 368 689 236 689C122 689 66 610 42 522C66 487 59 501 83 466ZM956 331C956 412 952 506 910 588C869 665 800 689 749 689C690 689 620 662 579 571C546 497 541 413 541 331C541 251 545 177 575 103C615 5 691 -22 748 -22C821 -22 884 19 916 89C946 155 956 223 956 331ZM749 40C697 40 656 78 636 151C620 209 619 264 619 343C619 407 619 468 636 524C642 544 667 627 748 627C826 627 852 550 859 531C878 475 878 406 878 343C878 276 878 212 860 148C834 56 781 40 749 40Z" stroke="rgb(0,0,0)" stroke-opacity="1" stroke-width="8" fill="rgb(0,0,0)" fill-opacity="1"></path></g></g><g><g><g><g><g transform="matrix(1,0,0,1,76.328125,81.759375)"><path transform="matrix(0.0119,0,0,-0.0119,0,0)" d="M83 466C103 545 131 624 222 624C316 624 367 548 367 468C367 382 310 324 251 263L174 191L50 65L50 0L449 0L449 72L267 72C255 72 243 71 231 71L122 71C154 100 230 176 261 205C333 274 449 347 449 471C449 587 368 689 236 689C122 689 66 610 42 522C66 487 59 501 83 466Z" stroke="rgb(0,0,0)" stroke-opacity="1" stroke-width="8" fill="rgb(0,0,0)" fill-opacity="1"></path></g></g></g></g></g><g><g transform="matrix(1,0,0,1,83.296875,88.46875)"><path transform="matrix(0.017,0,0,-0.017,0,0)" d="" stroke="rgb(0,0,0)" stroke-opacity="1" stroke-width="8" fill="rgb(0,0,0)" fill-opacity="1"></path></g></g><g><g transform="matrix(1,0,0,1,90.921875,88.46875)"><path transform="matrix(0.017,0,0,-0.017,0,0)" d="M604 241L604 300L364 300L364 538L305 538L305 300L65 300L65 241L305 241L305 0L364 0L364 241Z" stroke="rgb(0,0,0)" stroke-opacity="1" stroke-width="8" fill="rgb(0,0,0)" fill-opacity="1"></path></g></g><g><g transform="matrix(1,0,0,1,105.671875,88.46875)"><path transform="matrix(0.017,0,0,-0.017,0,0)" d="M548 689L528 689C469 627 386 624 338 622L338 563C371 564 419 566 469 587L469 59L344 59L344 0L673 0L673 59L548 59ZM1205 331C1205 412 1201 506 1159 588C1118 665 1049 689 998 689C939 689 869 662 828 571C795 497 790 413 790 331C790 251 794 177 824 103C864 5 940 -22 997 -22C1070 -22 1133 19 1165 89C1195 155 1205 223 1205 331ZM998 40C946 40 905 78 885 151C869 209 868 264 868 343C868 407 868 468 885 524C891 544 916 627 997 627C1075 627 1101 550 1108 531C1127 475 1127 406 1127 343C1127 276 1127 212 1109 148C1083 56 1030 40 998 40Z" stroke="rgb(0,0,0)" stroke-opacity="1" stroke-width="8" fill="rgb(0,0,0)" fill-opacity="1"></path></g></g><g><g><g><g><g transform="matrix(1,0,0,1,127.84375,81.759375)"><path transform="matrix(0.0119,0,0,-0.0119,0,0)" d="M83 466C103 545 131 624 222 624C316 624 367 548 367 468C367 382 310 324 251 263L174 191L50 65L50 0L449 0L449 72L267 72C255 72 243 71 231 71L122 71C154 100 230 176 261 205C333 274 449 347 449 471C449 587 368 689 236 689C122 689 66 610 42 522C66 487 59 501 83 466Z" stroke="rgb(0,0,0)" stroke-opacity="1" stroke-width="8" fill="rgb(0,0,0)" fill-opacity="1"></path></g></g></g></g></g><g><g transform="matrix(1,0,0,1,134.8125,88.46875)"><path transform="matrix(0.017,0,0,-0.017,0,0)" d="" stroke="rgb(0,0,0)" stroke-opacity="1" stroke-width="8" fill="rgb(0,0,0)" fill-opacity="1"></path></g></g><g><g transform="matrix(1,0,0,1,142.4375,88.46875)"><path transform="matrix(0.017,0,0,-0.017,0,0)" d="M555 243L555 299L51 299L51 243Z" stroke="rgb(0,0,0)" stroke-opacity="1" stroke-width="8" fill="rgb(0,0,0)" fill-opacity="1"></path></g></g><g><g transform="matrix(1,0,0,1,156.125,88.46875)"><path transform="matrix(0.017,0,0,-0.017,0,0)" d="M548 689L528 689C469 627 386 624 338 622L338 563C371 564 419 566 469 587L469 59L344 59L344 0L673 0L673 59L548 59ZM1068 361C1157 390 1191 457 1191 511C1191 607 1106 689 998 689C886 689 804 605 804 511C804 457 838 390 927 361C855 335 790 271 790 183C790 72 882 -22 997 -22C1116 -22 1205 75 1205 183C1205 275 1135 337 1068 361ZM998 391C921 391 874 441 874 511C874 581 923 630 997 630C1076 630 1121 577 1121 511C1121 438 1070 391 998 391ZM998 40C929 40 871 88 871 184C871 291 943 329 997 329C1055 329 1124 289 1124 184C1124 85 1062 40 998 40Z" stroke="rgb(0,0,0)" stroke-opacity="1" stroke-width="8" fill="rgb(0,0,0)" fill-opacity="1"></path></g></g><g><g><g><g><g transform="matrix(1,0,0,1,178.296875,81.759375)"><path transform="matrix(0.0119,0,0,-0.0119,0,0)" d="M83 466C103 545 131 624 222 624C316 624 367 548 367 468C367 382 310 324 251 263L174 191L50 65L50 0L449 0L449 72L267 72C255 72 243 71 231 71L122 71C154 100 230 176 261 205C333 274 449 347 449 471C449 587 368 689 236 689C122 689 66 610 42 522C66 487 59 501 83 466Z" stroke="rgb(0,0,0)" stroke-opacity="1" stroke-width="8" fill="rgb(0,0,0)" fill-opacity="1"></path></g></g></g></g></g></g></g><g><g><g><g transform="matrix(1,0,0,1,85.546875,114.25)"><path transform="matrix(0.017,0,0,-0.017,0,0)" d="M83 466C103 545 131 624 222 624C316 624 367 548 367 468C367 382 310 324 251 263L174 191L50 65L50 0L449 0L449 72L267 72C255 72 243 71 231 71L122 71C154 100 230 176 261 205C333 274 449 347 449 471C449 587 368 689 236 689C122 689 66 610 42 522C66 487 59 501 83 466ZM916 267L785 213L780 204L816 153L826 153L932 241L950 99L960 95L1028 121L1028 131L960 253L1098 233L1107 241L1107 303L1101 307L962 283L1031 408L1028 423L966 442L957 438L931 295L836 393L826 393L782 341L785 331ZM1468 466C1488 545 1516 624 1607 624C1701 624 1752 548 1752 468C1752 382 1695 324 1636 263L1559 191L1435 65L1435 0L1834 0L1834 72L1652 72C1640 72 1628 71 1616 71L1507 71C1539 100 1615 176 1646 205C1718 274 1834 347 1834 471C1834 587 1753 689 1621 689C1507 689 1451 610 1427 522C1451 487 1444 501 1468 466ZM2341 331C2341 412 2337 506 2295 588C2254 665 2185 689 2134 689C2075 689 2005 662 1964 571C1931 497 1926 413 1926 331C1926 251 1930 177 1960 103C2000 5 2076 -22 2133 -22C2206 -22 2269 19 2301 89C2331 155 2341 223 2341 331ZM2134 40C2082 40 2041 78 2021 151C2005 209 2004 264 2004 343C2004 407 2004 468 2021 524C2027 544 2052 627 2133 627C2211 627 2237 550 2244 531C2263 475 2263 406 2263 343C2263 276 2263 212 2245 148C2219 56 2166 40 2134 40ZM2800 267L2669 213L2664 204L2700 153L2710 153L2816 241L2834 99L2844 95L2912 121L2912 131L2844 253L2982 233L2991 241L2991 303L2985 307L2846 283L2915 408L2912 423L2850 442L2841 438L2815 295L2720 393L2710 393L2666 341L2669 331ZM3568 689L3548 689C3489 627 3406 624 3358 622L3358 563C3391 564 3439 566 3489 587L3489 59L3364 59L3364 0L3693 0L3693 59L3568 59ZM4225 331C4225 412 4221 506 4179 588C4138 665 4069 689 4018 689C3959 689 3889 662 3848 571C3815 497 3810 413 3810 331C3810 251 3814 177 3844 103C3884 5 3960 -22 4017 -22C4090 -22 4153 19 4185 89C4215 155 4225 223 4225 331ZM4018 40C3966 40 3925 78 3905 151C3889 209 3888 264 3888 343C3888 407 3888 468 3905 524C3911 544 3936 627 4017 627C4095 627 4121 550 4128 531C4147 475 4147 406 4147 343C4147 276 4147 212 4129 148C4103 56 4050 40 4018 40Z" stroke="rgb(0,0,0)" stroke-opacity="1" stroke-width="8" fill="rgb(0,0,0)" fill-opacity="1"></path></g></g></g></g><line style="fill:none;stroke-width:1px;stroke:rgb(0, 0, 0);" x1="58.390625" y1="96.609375" x2="185.265625" y2="96.609375"></line></g><g><svg x="185.265625" overflow="visible" y="68.859375" height="49" width="8.5"><path d=" M 1.75 1.70 c 0.00 -0.06 0.04 -0.08 0.08 -0.08 c 0.03 0.00 0.06 0.01 0.08 0.02 c 2.55 1.34 4.65 3.73 4.65 9.40 v 0.60 h -1.53 v -0.60 c 0.00 -3.23 -0.64 -7.03 -3.31 -9.06 c -0.12 -0.09 -0.13 -0.19 -0.13 -0.28 z  M 6.58 11.64 v 25.72 h -1.53 v -25.72 z" style="fill:rgb(0,0,0);fill-opacity:1;stroke-width:1px;stroke:none;stroke-opacity:1;"></path><path d=" M 1.75 47.30 c 0.00 0.06 0.04 0.08 0.08 0.08 c 0.03 0.00 0.06 -0.01 0.08 -0.02 c 2.55 -1.34 4.65 -3.73 4.65 -9.40 v -0.60 h -1.53 v 0.60 c 0.00 3.23 -0.64 7.03 -3.31 9.06 c -0.12 0.09 -0.13 0.19 -0.13 0.28 z" style="fill:rgb(0,0,0);fill-opacity:1;stroke-width:1px;stroke:none;stroke-opacity:1;"></path></svg></g><g><g transform="matrix(1,0,0,1,194.953125,100.859375)"><path transform="matrix(0.017,0,0,-0.017,0,0)" d="" stroke="rgb(0,0,0)" stroke-opacity="1" stroke-width="8" fill="rgb(0,0,0)" fill-opacity="1"></path></g></g><g><g transform="matrix(1,0,0,1,204.28125,100.859375)"><path transform="matrix(0.017,0,0,-0.017,0,0)" d="M604 347L604 406L65 406L65 347ZM604 134L604 193L65 193L65 134Z" stroke="rgb(0,0,0)" stroke-opacity="1" stroke-width="8" fill="rgb(0,0,0)" fill-opacity="1"></path></g></g><g><g transform="matrix(1,0,0,1,220.734375,100.859375)"><path transform="matrix(0.017,0,0,-0.017,0,0)" d="M659 418C600 452 566 461 505 461C366 461 285 340 285 222C285 98 376 -11 501 -11C555 -11 610 3 664 40L658 107C607 67 553 53 502 53C419 53 363 125 363 223C363 301 400 397 506 397C558 397 592 389 647 353ZM1161 220C1161 354 1061 461 942 461C819 461 722 351 722 220C722 88 824 -11 941 -11C1061 -11 1161 90 1161 220ZM941 53C872 53 800 109 800 230C800 351 876 400 941 400C1011 400 1083 348 1083 230C1083 112 1015 53 941 53ZM1551 128C1551 183 1514 217 1512 220C1473 255 1446 261 1396 270C1341 281 1295 291 1295 340C1295 402 1367 402 1380 402C1412 402 1465 398 1522 364L1534 429C1482 453 1441 461 1390 461C1365 461 1224 461 1224 330C1224 281 1253 249 1278 230C1309 208 1331 204 1386 193C1422 186 1480 174 1480 121C1480 52 1401 52 1386 52C1305 52 1249 89 1231 101L1219 33C1251 17 1306 -11 1387 -11C1525 -11 1551 75 1551 128Z" stroke="rgb(0,0,0)" stroke-opacity="1" stroke-width="8" fill="rgb(0,0,0)" fill-opacity="1"></path></g></g><g><g transform="matrix(1,0,0,1,247.484375,100.859375)"><path transform="matrix(0.017,0,0,-0.017,0,0)" d="M146 266C146 526 243 632 301 700L282 726C225 675 60 542 60 266C60 159 85 58 133 -32C168 -99 200 -138 282 -215L301 -194C255 -137 146 -15 146 266Z" stroke="rgb(0,0,0)" stroke-opacity="1" stroke-width="8" fill="rgb(0,0,0)" fill-opacity="1"></path></g></g><g><g transform="matrix(1,0,0,1,253.140625,100.859375)"><path transform="matrix(0.017,0,0,-0.017,0,0)" d="M547 504C529 618 483 702 356 702C96 702 60 412 94 199C113 80 164 -16 300 -16C536 -16 576 316 547 504ZM478 381L162 381C169 485 213 676 342 676C428 676 461 585 472 517C479 472 478 426 478 381ZM478 349C473 237 454 13 311 13C209 13 181 125 169 203C161 252 162 301 162 349Z" stroke="rgb(0,0,0)" stroke-opacity="1" stroke-width="8" fill="rgb(0,0,0)" fill-opacity="1"></path></g></g><g><g transform="matrix(1,0,0,1,263.5625,100.859375)"><path transform="matrix(0.017,0,0,-0.017,0,0)" d="M51 726L32 700C87 636 187 526 187 266C187 -10 83 -131 32 -194L51 -215C104 -165 273 -23 273 265C273 542 108 675 51 726Z" stroke="rgb(0,0,0)" stroke-opacity="1" stroke-width="8" fill="rgb(0,0,0)" fill-opacity="1"></path></g></g></g><g></g><g><g><g><g><g><g transform="matrix(1,0,0,1,51.953125,158.546875)"><path transform="matrix(0.017,0,0,-0.017,0,0)" d="M83 466C103 545 131 624 222 624C316 624 367 548 367 468C367 382 310 324 251 263L174 191L50 65L50 0L449 0L449 72L267 72C255 72 243 71 231 71L122 71C154 100 230 176 261 205C333 274 449 347 449 471C449 587 368 689 236 689C122 689 66 610 42 522C66 487 59 501 83 466ZM956 331C956 412 952 506 910 588C869 665 800 689 749 689C690 689 620 662 579 571C546 497 541 413 541 331C541 251 545 177 575 103C615 5 691 -22 748 -22C821 -22 884 19 916 89C946 155 956 223 956 331ZM749 40C697 40 656 78 636 151C620 209 619 264 619 343C619 407 619 468 636 524C642 544 667 627 748 627C826 627 852 550 859 531C878 475 878 406 878 343C878 276 878 212 860 148C834 56 781 40 749 40Z" stroke="rgb(0,0,0)" stroke-opacity="1" stroke-width="8" fill="rgb(0,0,0)" fill-opacity="1"></path></g></g><g><g><g><g><g transform="matrix(1,0,0,1,69.890625,151.8375)"><path transform="matrix(0.0119,0,0,-0.0119,0,0)" d="M83 466C103 545 131 624 222 624C316 624 367 548 367 468C367 382 310 324 251 263L174 191L50 65L50 0L449 0L449 72L267 72C255 72 243 71 231 71L122 71C154 100 230 176 261 205C333 274 449 347 449 471C449 587 368 689 236 689C122 689 66 610 42 522C66 487 59 501 83 466Z" stroke="rgb(0,0,0)" stroke-opacity="1" stroke-width="8" fill="rgb(0,0,0)" fill-opacity="1"></path></g></g></g></g></g><g><g transform="matrix(1,0,0,1,76.859375,158.546875)"><path transform="matrix(0.017,0,0,-0.017,0,0)" d="" stroke="rgb(0,0,0)" stroke-opacity="1" stroke-width="8" fill="rgb(0,0,0)" fill-opacity="1"></path></g></g><g><g transform="matrix(1,0,0,1,84.484375,158.546875)"><path transform="matrix(0.017,0,0,-0.017,0,0)" d="M604 241L604 300L364 300L364 538L305 538L305 300L65 300L65 241L305 241L305 0L364 0L364 241Z" stroke="rgb(0,0,0)" stroke-opacity="1" stroke-width="8" fill="rgb(0,0,0)" fill-opacity="1"></path></g></g><g><g transform="matrix(1,0,0,1,99.234375,158.546875)"><path transform="matrix(0.017,0,0,-0.017,0,0)" d="M548 689L528 689C469 627 386 624 338 622L338 563C371 564 419 566 469 587L469 59L344 59L344 0L673 0L673 59L548 59ZM1205 331C1205 412 1201 506 1159 588C1118 665 1049 689 998 689C939 689 869 662 828 571C795 497 790 413 790 331C790 251 794 177 824 103C864 5 940 -22 997 -22C1070 -22 1133 19 1165 89C1195 155 1205 223 1205 331ZM998 40C946 40 905 78 885 151C869 209 868 264 868 343C868 407 868 468 885 524C891 544 916 627 997 627C1075 627 1101 550 1108 531C1127 475 1127 406 1127 343C1127 276 1127 212 1109 148C1083 56 1030 40 998 40Z" stroke="rgb(0,0,0)" stroke-opacity="1" stroke-width="8" fill="rgb(0,0,0)" fill-opacity="1"></path></g></g><g><g><g><g><g transform="matrix(1,0,0,1,121.40625,151.8375)"><path transform="matrix(0.0119,0,0,-0.0119,0,0)" d="M83 466C103 545 131 624 222 624C316 624 367 548 367 468C367 382 310 324 251 263L174 191L50 65L50 0L449 0L449 72L267 72C255 72 243 71 231 71L122 71C154 100 230 176 261 205C333 274 449 347 449 471C449 587 368 689 236 689C122 689 66 610 42 522C66 487 59 501 83 466Z" stroke="rgb(0,0,0)" stroke-opacity="1" stroke-width="8" fill="rgb(0,0,0)" fill-opacity="1"></path></g></g></g></g></g><g><g transform="matrix(1,0,0,1,128.375,158.546875)"><path transform="matrix(0.017,0,0,-0.017,0,0)" d="" stroke="rgb(0,0,0)" stroke-opacity="1" stroke-width="8" fill="rgb(0,0,0)" fill-opacity="1"></path></g></g><g><g transform="matrix(1,0,0,1,136,158.546875)"><path transform="matrix(0.017,0,0,-0.017,0,0)" d="M555 243L555 299L51 299L51 243Z" stroke="rgb(0,0,0)" stroke-opacity="1" stroke-width="8" fill="rgb(0,0,0)" fill-opacity="1"></path></g></g><g><g transform="matrix(1,0,0,1,149.6875,158.546875)"><path transform="matrix(0.017,0,0,-0.017,0,0)" d="M548 689L528 689C469 627 386 624 338 622L338 563C371 564 419 566 469 587L469 59L344 59L344 0L673 0L673 59L548 59ZM1068 361C1157 390 1191 457 1191 511C1191 607 1106 689 998 689C886 689 804 605 804 511C804 457 838 390 927 361C855 335 790 271 790 183C790 72 882 -22 997 -22C1116 -22 1205 75 1205 183C1205 275 1135 337 1068 361ZM998 391C921 391 874 441 874 511C874 581 923 630 997 630C1076 630 1121 577 1121 511C1121 438 1070 391 998 391ZM998 40C929 40 871 88 871 184C871 291 943 329 997 329C1055 329 1124 289 1124 184C1124 85 1062 40 998 40Z" stroke="rgb(0,0,0)" stroke-opacity="1" stroke-width="8" fill="rgb(0,0,0)" fill-opacity="1"></path></g></g><g><g><g><g><g transform="matrix(1,0,0,1,171.859375,151.8375)"><path transform="matrix(0.0119,0,0,-0.0119,0,0)" d="M83 466C103 545 131 624 222 624C316 624 367 548 367 468C367 382 310 324 251 263L174 191L50 65L50 0L449 0L449 72L267 72C255 72 243 71 231 71L122 71C154 100 230 176 261 205C333 274 449 347 449 471C449 587 368 689 236 689C122 689 66 610 42 522C66 487 59 501 83 466Z" stroke="rgb(0,0,0)" stroke-opacity="1" stroke-width="8" fill="rgb(0,0,0)" fill-opacity="1"></path></g></g></g></g></g></g></g><g><g><g><g transform="matrix(1,0,0,1,79.109375,184.328125)"><path transform="matrix(0.017,0,0,-0.017,0,0)" d="M83 466C103 545 131 624 222 624C316 624 367 548 367 468C367 382 310 324 251 263L174 191L50 65L50 0L449 0L449 72L267 72C255 72 243 71 231 71L122 71C154 100 230 176 261 205C333 274 449 347 449 471C449 587 368 689 236 689C122 689 66 610 42 522C66 487 59 501 83 466ZM916 267L785 213L780 204L816 153L826 153L932 241L950 99L960 95L1028 121L1028 131L960 253L1098 233L1107 241L1107 303L1101 307L962 283L1031 408L1028 423L966 442L957 438L931 295L836 393L826 393L782 341L785 331ZM1468 466C1488 545 1516 624 1607 624C1701 624 1752 548 1752 468C1752 382 1695 324 1636 263L1559 191L1435 65L1435 0L1834 0L1834 72L1652 72C1640 72 1628 71 1616 71L1507 71C1539 100 1615 176 1646 205C1718 274 1834 347 1834 471C1834 587 1753 689 1621 689C1507 689 1451 610 1427 522C1451 487 1444 501 1468 466ZM2341 331C2341 412 2337 506 2295 588C2254 665 2185 689 2134 689C2075 689 2005 662 1964 571C1931 497 1926 413 1926 331C1926 251 1930 177 1960 103C2000 5 2076 -22 2133 -22C2206 -22 2269 19 2301 89C2331 155 2341 223 2341 331ZM2134 40C2082 40 2041 78 2021 151C2005 209 2004 264 2004 343C2004 407 2004 468 2021 524C2027 544 2052 627 2133 627C2211 627 2237 550 2244 531C2263 475 2263 406 2263 343C2263 276 2263 212 2245 148C2219 56 2166 40 2134 40ZM2800 267L2669 213L2664 204L2700 153L2710 153L2816 241L2834 99L2844 95L2912 121L2912 131L2844 253L2982 233L2991 241L2991 303L2985 307L2846 283L2915 408L2912 423L2850 442L2841 438L2815 295L2720 393L2710 393L2666 341L2669 331ZM3568 689L3548 689C3489 627 3406 624 3358 622L3358 563C3391 564 3439 566 3489 587L3489 59L3364 59L3364 0L3693 0L3693 59L3568 59ZM4225 331C4225 412 4221 506 4179 588C4138 665 4069 689 4018 689C3959 689 3889 662 3848 571C3815 497 3810 413 3810 331C3810 251 3814 177 3844 103C3884 5 3960 -22 4017 -22C4090 -22 4153 19 4185 89C4215 155 4225 223 4225 331ZM4018 40C3966 40 3925 78 3905 151C3889 209 3888 264 3888 343C3888 407 3888 468 3905 524C3911 544 3936 627 4017 627C4095 627 4121 550 4128 531C4147 475 4147 406 4147 343C4147 276 4147 212 4129 148C4103 56 4050 40 4018 40Z" stroke="rgb(0,0,0)" stroke-opacity="1" stroke-width="8" fill="rgb(0,0,0)" fill-opacity="1"></path></g></g></g></g><line style="fill:none;stroke-width:1px;stroke:rgb(0, 0, 0);" x1="51.953125" y1="166.6875" x2="178.828125" y2="166.6875"></line></g><g><g transform="matrix(1,0,0,1,180.515625,170.9375)"><path transform="matrix(0.017,0,0,-0.017,0,0)" d="" stroke="rgb(0,0,0)" stroke-opacity="1" stroke-width="8" fill="rgb(0,0,0)" fill-opacity="1"></path></g></g><g><g transform="matrix(1,0,0,1,189.84375,170.9375)"><path transform="matrix(0.017,0,0,-0.017,0,0)" d="M604 347L604 406L65 406L65 347ZM604 134L604 193L65 193L65 134Z" stroke="rgb(0,0,0)" stroke-opacity="1" stroke-width="8" fill="rgb(0,0,0)" fill-opacity="1"></path></g></g><g><g transform="matrix(1,0,0,1,206.296875,170.9375)"><path transform="matrix(0.017,0,0,-0.017,0,0)" d="M796 504C778 618 732 702 605 702C345 702 309 412 343 199C362 80 413 -16 549 -16C785 -16 825 316 796 504ZM727 381L411 381C418 485 462 676 591 676C677 676 710 585 721 517C728 472 727 426 727 381ZM727 349C722 237 703 13 560 13C458 13 430 125 418 203C410 252 411 301 411 349Z" stroke="rgb(0,0,0)" stroke-opacity="1" stroke-width="8" fill="rgb(0,0,0)" fill-opacity="1"></path></g></g></g><g></g><g><g><g transform="matrix(1,0,0,1,96.296875,222.109375)"><path transform="matrix(0.017,0,0,-0.017,0,0)" d="M415 669C364 689 323 689 309 689C168 689 42 546 42 327C42 40 166 -22 251 -22C311 -22 354 1 393 47C438 99 457 145 457 226C457 356 391 469 295 469C263 469 187 461 126 385C139 549 218 630 310 630C348 630 380 623 415 609ZM127 223C127 237 127 239 128 251C128 326 173 407 256 407C304 407 332 382 352 344C373 307 375 271 375 226C375 191 375 144 351 103C334 74 308 40 251 40C145 40 130 189 127 223ZM591 522C620 593 685 630 746 630C798 630 847 600 847 535C847 473 806 413 745 398C739 397 737 397 666 391L666 329L737 329C845 329 867 235 867 184C867 105 821 40 744 40C675 40 596 75 552 144L541 83C614 -12 706 -22 746 -22C868 -22 956 76 956 183C956 275 886 338 818 360C894 401 929 471 929 535C929 622 846 689 747 689C670 689 597 648 555 577ZM1122 111C1092 111 1065 83 1065 53C1065 23 1092 -5 1121 -5C1153 -5 1181 22 1181 53C1181 83 1153 111 1122 111ZM1567 361C1656 390 1690 457 1690 511C1690 607 1605 689 1497 689C1385 689 1303 605 1303 511C1303 457 1337 390 1426 361C1354 335 1289 271 1289 183C1289 72 1381 -22 1496 -22C1615 -22 1704 75 1704 183C1704 275 1634 337 1567 361ZM1497 391C1420 391 1373 441 1373 511C1373 581 1422 630 1496 630C1575 630 1620 577 1620 511C1620 438 1569 391 1497 391ZM1497 40C1428 40 1370 88 1370 184C1370 291 1442 329 1496 329C1554 329 1623 289 1623 184C1623 85 1561 40 1497 40ZM1818 24C1852 -1 1889 -22 1951 -22C2082 -22 2203 119 2203 340C2203 625 2084 689 1999 689C1929 689 1888 658 1853 621C1790 552 1788 485 1788 441C1788 311 1854 197 1950 197C2012 197 2076 227 2119 281C2108 118 2031 40 1952 40C1918 40 1885 48 1849 78ZM2117 418C2117 334 2068 259 1989 259C1942 259 1914 283 1893 320C1871 360 1870 397 1870 441C1870 486 1871 527 1899 572C1919 602 1947 630 1999 630C2106 630 2117 467 2117 418Z" stroke="rgb(0,0,0)" stroke-opacity="1" stroke-width="8" fill="rgb(0,0,0)" fill-opacity="1"></path></g></g><g><g transform="matrix(1,0,0,1,143.796875,222.109375)"><path transform="matrix(0.017,0,0,-0.017,0,0)" d="M604 347L604 406L65 406L65 347ZM604 134L604 193L65 193L65 134Z" stroke="rgb(0,0,0)" stroke-opacity="1" stroke-width="8" fill="rgb(0,0,0)" fill-opacity="1"></path></g></g><g><g transform="matrix(1,0,0,1,160.25,222.109375)"><path transform="matrix(0.017,0,0,-0.017,0,0)" d="M796 504C778 618 732 702 605 702C345 702 309 412 343 199C362 80 413 -16 549 -16C785 -16 825 316 796 504ZM727 381L411 381C418 485 462 676 591 676C677 676 710 585 721 517C728 472 727 426 727 381ZM727 349C722 237 703 13 560 13C458 13 430 125 418 203C410 252 411 301 411 349Z" stroke="rgb(0,0,0)" stroke-opacity="1" stroke-width="8" fill="rgb(0,0,0)" fill-opacity="1"></path></g></g></g><g></g></g></svg>