<svg xmlns="http://www.w3.org/2000/svg" xmlns:xlink="http://www.w3.org/1999/xlink" width="242.6875" height="48.78125" style="width:242.6875px;height:48.78125px;font-family:Asana-Math, Asana;background:#FFF;"><g><g><g><g><g><g><g transform="matrix(1,0,0,1,2,20.609375)"><path transform="matrix(0.017,0,0,-0.017,0,0)" d="M299 689L279 689C220 627 137 624 89 622L89 563C122 564 170 566 220 587L220 59L95 59L95 0L424 0L424 59L299 59ZM819 361C908 390 942 457 942 511C942 607 857 689 749 689C637 689 555 605 555 511C555 457 589 390 678 361C606 335 541 271 541 183C541 72 633 -22 748 -22C867 -22 956 75 956 183C956 275 886 337 819 361ZM749 391C672 391 625 441 625 511C625 581 674 630 748 630C827 630 872 577 872 511C872 438 821 391 749 391ZM749 40C680 40 622 88 622 184C622 291 694 329 748 329C806 329 875 289 875 184C875 85 813 40 749 40Z" stroke="rgb(0,0,0)" stroke-opacity="1" stroke-width="8" fill="rgb(0,0,0)" fill-opacity="1"></path></g></g><g><g><g><g><g transform="matrix(1,0,0,1,19.9375,13.9)"><path transform="matrix(0.0119,0,0,-0.0119,0,0)" d="M83 466C103 545 131 624 222 624C316 624 367 548 367 468C367 382 310 324 251 263L174 191L50 65L50 0L449 0L449 72L267 72C255 72 243 71 231 71L122 71C154 100 230 176 261 205C333 274 449 347 449 471C449 587 368 689 236 689C122 689 66 610 42 522C66 487 59 501 83 466Z" stroke="rgb(0,0,0)" stroke-opacity="1" stroke-width="8" fill="rgb(0,0,0)" fill-opacity="1"></path></g></g></g></g></g><g><g transform="matrix(1,0,0,1,26.90625,20.609375)"><path transform="matrix(0.017,0,0,-0.017,0,0)" d="" stroke="rgb(0,0,0)" stroke-opacity="1" stroke-width="8" fill="rgb(0,0,0)" fill-opacity="1"></path></g></g><g><g transform="matrix(1,0,0,1,34.53125,20.609375)"><path transform="matrix(0.017,0,0,-0.017,0,0)" d="M555 243L555 299L51 299L51 243Z" stroke="rgb(0,0,0)" stroke-opacity="1" stroke-width="8" fill="rgb(0,0,0)" fill-opacity="1"></path></g></g><g><g transform="matrix(1,0,0,1,48.21875,20.609375)"><path transform="matrix(0.017,0,0,-0.017,0,0)" d="M332 466C352 545 380 624 471 624C565 624 616 548 616 468C616 382 559 324 500 263L423 191L299 65L299 0L698 0L698 72L516 72C504 72 492 71 480 71L371 71C403 100 479 176 510 205C582 274 698 347 698 471C698 587 617 689 485 689C371 689 315 610 291 522C315 487 308 501 332 466ZM1205 331C1205 412 1201 506 1159 588C1118 665 1049 689 998 689C939 689 869 662 828 571C795 497 790 413 790 331C790 251 794 177 824 103C864 5 940 -22 997 -22C1070 -22 1133 19 1165 89C1195 155 1205 223 1205 331ZM998 40C946 40 905 78 885 151C869 209 868 264 868 343C868 407 868 468 885 524C891 544 916 627 997 627C1075 627 1101 550 1108 531C1127 475 1127 406 1127 343C1127 276 1127 212 1109 148C1083 56 1030 40 998 40Z" stroke="rgb(0,0,0)" stroke-opacity="1" stroke-width="8" fill="rgb(0,0,0)" fill-opacity="1"></path></g></g><g><g><g><g><g transform="matrix(1,0,0,1,70.390625,13.9)"><path transform="matrix(0.0119,0,0,-0.0119,0,0)" d="M83 466C103 545 131 624 222 624C316 624 367 548 367 468C367 382 310 324 251 263L174 191L50 65L50 0L449 0L449 72L267 72C255 72 243 71 231 71L122 71C154 100 230 176 261 205C333 274 449 347 449 471C449 587 368 689 236 689C122 689 66 610 42 522C66 487 59 501 83 466Z" stroke="rgb(0,0,0)" stroke-opacity="1" stroke-width="8" fill="rgb(0,0,0)" fill-opacity="1"></path></g></g></g></g></g><g><g transform="matrix(1,0,0,1,77.359375,20.609375)"><path transform="matrix(0.017,0,0,-0.017,0,0)" d="" stroke="rgb(0,0,0)" stroke-opacity="1" stroke-width="8" fill="rgb(0,0,0)" fill-opacity="1"></path></g></g><g><g transform="matrix(1,0,0,1,84.984375,20.609375)"><path transform="matrix(0.017,0,0,-0.017,0,0)" d="M555 243L555 299L51 299L51 243Z" stroke="rgb(0,0,0)" stroke-opacity="1" stroke-width="8" fill="rgb(0,0,0)" fill-opacity="1"></path></g></g><g><g transform="matrix(1,0,0,1,98.671875,20.609375)"><path transform="matrix(0.017,0,0,-0.017,0,0)" d="M548 689L528 689C469 627 386 624 338 622L338 563C371 564 419 566 469 587L469 59L344 59L344 0L673 0L673 59L548 59ZM1205 331C1205 412 1201 506 1159 588C1118 665 1049 689 998 689C939 689 869 662 828 571C795 497 790 413 790 331C790 251 794 177 824 103C864 5 940 -22 997 -22C1070 -22 1133 19 1165 89C1195 155 1205 223 1205 331ZM998 40C946 40 905 78 885 151C869 209 868 264 868 343C868 407 868 468 885 524C891 544 916 627 997 627C1075 627 1101 550 1108 531C1127 475 1127 406 1127 343C1127 276 1127 212 1109 148C1083 56 1030 40 998 40Z" stroke="rgb(0,0,0)" stroke-opacity="1" stroke-width="8" fill="rgb(0,0,0)" fill-opacity="1"></path></g></g><g><g><g><g><g transform="matrix(1,0,0,1,120.84375,13.9)"><path transform="matrix(0.0119,0,0,-0.0119,0,0)" d="M83 466C103 545 131 624 222 624C316 624 367 548 367 468C367 382 310 324 251 263L174 191L50 65L50 0L449 0L449 72L267 72C255 72 243 71 231 71L122 71C154 100 230 176 261 205C333 274 449 347 449 471C449 587 368 689 236 689C122 689 66 610 42 522C66 487 59 501 83 466Z" stroke="rgb(0,0,0)" stroke-opacity="1" stroke-width="8" fill="rgb(0,0,0)" fill-opacity="1"></path></g></g></g></g></g></g></g><g><g><g><g transform="matrix(1,0,0,1,31.953125,46.390625)"><path transform="matrix(0.017,0,0,-0.017,0,0)" d="M555 243L555 299L51 299L51 243Z" stroke="rgb(0,0,0)" stroke-opacity="1" stroke-width="8" fill="rgb(0,0,0)" fill-opacity="1"></path></g></g><g><g transform="matrix(1,0,0,1,42.25,46.390625)"><path transform="matrix(0.017,0,0,-0.017,0,0)" d="M83 466C103 545 131 624 222 624C316 624 367 548 367 468C367 382 310 324 251 263L174 191L50 65L50 0L449 0L449 72L267 72C255 72 243 71 231 71L122 71C154 100 230 176 261 205C333 274 449 347 449 471C449 587 368 689 236 689C122 689 66 610 42 522C66 487 59 501 83 466ZM667 267L536 213L531 204L567 153L577 153L683 241L701 99L711 95L779 121L779 131L711 253L849 233L858 241L858 303L852 307L713 283L782 408L779 423L717 442L708 438L682 295L587 393L577 393L533 341L536 331ZM970 466C990 545 1018 624 1109 624C1203 624 1254 548 1254 468C1254 382 1197 324 1138 263L1061 191L937 65L937 0L1336 0L1336 72L1154 72C1142 72 1130 71 1118 71L1009 71C1041 100 1117 176 1148 205C1220 274 1336 347 1336 471C1336 587 1255 689 1123 689C1009 689 953 610 929 522C953 487 946 501 970 466ZM1843 331C1843 412 1839 506 1797 588C1756 665 1687 689 1636 689C1577 689 1507 662 1466 571C1433 497 1428 413 1428 331C1428 251 1432 177 1462 103C1502 5 1578 -22 1635 -22C1708 -22 1771 19 1803 89C1833 155 1843 223 1843 331ZM1636 40C1584 40 1543 78 1523 151C1507 209 1506 264 1506 343C1506 407 1506 468 1523 524C1529 544 1554 627 1635 627C1713 627 1739 550 1746 531C1765 475 1765 406 1765 343C1765 276 1765 212 1747 148C1721 56 1668 40 1636 40ZM2053 267L1922 213L1917 204L1953 153L1963 153L2069 241L2087 99L2097 95L2165 121L2165 131L2097 253L2235 233L2244 241L2244 303L2238 307L2099 283L2168 408L2165 423L2103 442L2094 438L2068 295L1973 393L1963 393L1919 341L1922 331ZM2572 689L2552 689C2493 627 2410 624 2362 622L2362 563C2395 564 2443 566 2493 587L2493 59L2368 59L2368 0L2697 0L2697 59L2572 59ZM3229 331C3229 412 3225 506 3183 588C3142 665 3073 689 3022 689C2963 689 2893 662 2852 571C2819 497 2814 413 2814 331C2814 251 2818 177 2848 103C2888 5 2964 -22 3021 -22C3094 -22 3157 19 3189 89C3219 155 3229 223 3229 331ZM3022 40C2970 40 2929 78 2909 151C2893 209 2892 264 2892 343C2892 407 2892 468 2909 524C2915 544 2940 627 3021 627C3099 627 3125 550 3132 531C3151 475 3151 406 3151 343C3151 276 3151 212 3133 148C3107 56 3054 40 3022 40Z" stroke="rgb(0,0,0)" stroke-opacity="1" stroke-width="8" fill="rgb(0,0,0)" fill-opacity="1"></path></g></g></g></g><line style="fill:none;stroke-width:1px;stroke:rgb(0, 0, 0);" x1="2" y1="28.75" x2="127.8125" y2="28.75"></line></g><g><g transform="matrix(1,0,0,1,134.59375,33)"><path transform="matrix(0.017,0,0,-0.017,0,0)" d="M604 347L604 406L65 406L65 347ZM604 134L604 193L65 193L65 134Z" stroke="rgb(0,0,0)" stroke-opacity="1" stroke-width="8" fill="rgb(0,0,0)" fill-opacity="1"></path></g></g><g><g transform="matrix(1,0,0,1,151.046875,33)"><path transform="matrix(0.017,0,0,-0.017,0,0)" d="M796 504C778 618 732 702 605 702C345 702 309 412 343 199C362 80 413 -16 549 -16C785 -16 825 316 796 504ZM727 381L411 381C418 485 462 676 591 676C677 676 710 585 721 517C728 472 727 426 727 381ZM727 349C722 237 703 13 560 13C458 13 430 125 418 203C410 252 411 301 411 349Z" stroke="rgb(0,0,0)" stroke-opacity="1" stroke-width="8" fill="rgb(0,0,0)" fill-opacity="1"></path></g></g><g><g transform="matrix(1,0,0,1,175.03125,33)"><path transform="matrix(0.017,0,0,-0.017,0,0)" d="M604 347L604 406L65 406L65 347ZM604 134L604 193L65 193L65 134Z" stroke="rgb(0,0,0)" stroke-opacity="1" stroke-width="8" fill="rgb(0,0,0)" fill-opacity="1"></path></g></g><g><g transform="matrix(1,0,0,1,191.484375,33)"><path transform="matrix(0.017,0,0,-0.017,0,0)" d="M664 669C613 689 572 689 558 689C417 689 291 546 291 327C291 40 415 -22 500 -22C560 -22 603 1 642 47C687 99 706 145 706 226C706 356 640 469 544 469C512 469 436 461 375 385C388 549 467 630 559 630C597 630 629 623 664 609ZM376 223C376 237 376 239 377 251C377 326 422 407 505 407C553 407 581 382 601 344C622 307 624 271 624 226C624 191 624 144 600 103C583 74 557 40 500 40C394 40 379 189 376 223ZM840 522C869 593 934 630 995 630C1047 630 1096 600 1096 535C1096 473 1055 413 994 398C988 397 986 397 915 391L915 329L986 329C1094 329 1116 235 1116 184C1116 105 1070 40 993 40C924 40 845 75 801 144L790 83C863 -12 955 -22 995 -22C1117 -22 1205 76 1205 183C1205 275 1135 338 1067 360C1143 401 1178 471 1178 535C1178 622 1095 689 996 689C919 689 846 648 804 577ZM1371 111C1341 111 1314 83 1314 53C1314 23 1341 -5 1370 -5C1402 -5 1430 22 1430 53C1430 83 1402 111 1371 111ZM1816 361C1905 390 1939 457 1939 511C1939 607 1854 689 1746 689C1634 689 1552 605 1552 511C1552 457 1586 390 1675 361C1603 335 1538 271 1538 183C1538 72 1630 -22 1745 -22C1864 -22 1953 75 1953 183C1953 275 1883 337 1816 361ZM1746 391C1669 391 1622 441 1622 511C1622 581 1671 630 1745 630C1824 630 1869 577 1869 511C1869 438 1818 391 1746 391ZM1746 40C1677 40 1619 88 1619 184C1619 291 1691 329 1745 329C1803 329 1872 289 1872 184C1872 85 1810 40 1746 40ZM2067 24C2101 -1 2138 -22 2200 -22C2331 -22 2452 119 2452 340C2452 625 2333 689 2248 689C2178 689 2137 658 2102 621C2039 552 2037 485 2037 441C2037 311 2103 197 2199 197C2261 197 2325 227 2368 281C2357 118 2280 40 2201 40C2167 40 2134 48 2098 78ZM2366 418C2366 334 2317 259 2238 259C2191 259 2163 283 2142 320C2120 360 2119 397 2119 441C2119 486 2120 527 2148 572C2168 602 2196 630 2248 630C2355 630 2366 467 2366 418ZM2693 689C2611 689 2544 622 2544 539C2544 456 2611 389 2694 389C2775 389 2844 457 2844 537C2844 621 2777 689 2693 689ZM2693 649C2754 649 2804 599 2804 537C2804 479 2754 429 2694 429C2633 429 2584 478 2584 539C2584 600 2633 649 2693 649Z" stroke="rgb(0,0,0)" stroke-opacity="1" stroke-width="8" fill="rgb(0,0,0)" fill-opacity="1"></path></g></g></g></g></svg>