<svg xmlns="http://www.w3.org/2000/svg" xmlns:xlink="http://www.w3.org/1999/xlink" width="225.71875" height="54.375" style="width:225.71875px;height:54.375px;font-family:Asana-Math, Asana;background:#FFF;"><g><g><g><g><g transform="matrix(1,0,0,1,2,33.6875)"><path transform="matrix(0.017,0,0,-0.017,0,0)" d="M324 82L319 -3C384 0 384 0 397 0C402 0 427 -1 471 -3L471 27L432 29C408 30 404 38 404 87L404 270C404 416 362 469 246 469C203 469 163 458 125 435L72 403L72 338L98 331L111 362C132 409 142 416 188 416C282 416 321 379 324 288L225 270C89 245 32 198 32 111C32 33 79 -12 158 -12C176 -12 193 -9 200 -4ZM324 124C295 83 232 45 193 45C153 45 118 82 118 125C118 162 138 197 168 216C193 231 248 245 324 256ZM522 400L559 400C599 400 603 393 603 327L603 102C603 39 600 32 566 30L520 27L520 -3C592 -1 618 0 643 0C663 0 663 0 786 -3L786 27L734 30C689 33 687 36 687 102L687 274C687 334 727 384 776 384C806 384 827 370 843 338L864 338L873 458C862 465 844 469 826 469C796 469 764 453 743 428L687 362L687 465L678 469C627 448 575 434 522 428ZM1292 311C1292 357 1297 398 1306 434C1274 478 1231 497 1186 497C1062 497 918 361 918 224C918 219 919 215 919 210C919 75 1014 -20 1148 -20C1200 -20 1275 -1 1285 14L1306 46L1296 61C1259 41 1227 32 1191 32C1080 32 1007 118 1007 250C1007 357 1057 417 1147 417C1191 417 1239 397 1257 372L1264 311ZM1377 143C1377 74 1374 44 1366 4C1418 -13 1457 -20 1503 -20C1634 -20 1727 50 1727 148C1727 321 1443 228 1443 358C1443 408 1478 436 1539 436C1606 436 1657 401 1657 354L1657 331L1685 331C1686 389 1687 413 1690 444C1637 462 1601 469 1560 469C1444 469 1373 414 1373 324C1373 276 1395 242 1441 221C1559 169 1653 195 1653 109C1653 55 1603 17 1532 17C1459 17 1407 52 1407 102L1407 143ZM1947 465L1938 469C1887 448 1835 434 1782 428L1782 400L1819 400C1859 400 1863 393 1863 327L1863 102C1863 39 1860 32 1826 30L1780 27L1780 -3C1880 0 1880 0 1905 0C1930 0 1930 0 2030 -3L2030 27L1984 30C1950 32 1947 39 1947 102ZM1901 687C1871 687 1845 661 1845 631C1845 602 1871 576 1900 576C1929 576 1956 602 1956 631C1956 659 1929 687 1901 687ZM2459 -3C2520 0 2521 0 2538 0C2552 0 2552 0 2621 -3L2621 27L2580 30C2546 32 2543 38 2543 102L2543 295C2543 412 2488 469 2376 469C2339 469 2318 462 2297 444L2221 378L2221 465L2212 469C2161 448 2109 434 2056 428L2056 400L2093 400C2133 400 2137 393 2137 327L2137 102C2137 39 2134 32 2100 30L2055 27L2055 -3C2123 -1 2150 0 2179 0C2208 0 2235 -1 2303 -3L2303 27L2258 30C2224 32 2221 39 2221 102L2221 314C2221 359 2287 408 2348 408C2415 408 2459 358 2459 281Z" stroke="rgb(0,0,0)" stroke-opacity="1" stroke-width="8" fill="rgb(0,0,0)" fill-opacity="1"></path></g></g></g><g><svg x="47.90625" overflow="visible" y="3.6875" height="47" width="8.5"><path d=" M 6.27 1.70 c 0.00 -0.06 -0.04 -0.08 -0.08 -0.08 c -0.03 0.00 -0.06 0.01 -0.08 0.02 c -2.55 1.34 -4.65 3.73 -4.65 9.40 v 0.60 h 1.53 v -0.60 c 0.00 -3.23 0.64 -7.03 3.31 -9.06 c 0.12 -0.09 0.13 -0.19 0.13 -0.28 z   M 1.44 11.64 v 23.72 h 1.53 v -23.72 z" style="fill:rgb(0,0,0);fill-opacity:1;stroke-width:1px;stroke:none;stroke-opacity:1;"></path><path d=" M 6.27 45.30 c 0.00 0.06 -0.04 0.08 -0.08 0.08 c -0.03 0.00 -0.06 -0.01 -0.08 -0.02 c -2.55 -1.34 -4.65 -3.73 -4.65 -9.40 v -0.60 h 1.53 v 0.60 c 0.00 3.23 0.64 7.03 3.31 9.06 c 0.12 0.09 0.13 0.19 0.13 0.28 z" style="fill:rgb(0,0,0);fill-opacity:1;stroke-width:1px;stroke:none;stroke-opacity:1;"></path></svg></g><g><g><g><g><g transform="matrix(1,0,0,1,56.40625,21.296875)"><path transform="matrix(0.017,0,0,-0.017,0,0)" d="M360 128C360 183 323 217 321 220C282 255 255 261 205 270C150 281 104 291 104 340C104 402 176 402 189 402C221 402 274 398 331 364L343 429C291 453 250 461 199 461C174 461 33 461 33 330C33 281 62 249 87 230C118 208 140 204 195 193C231 186 289 174 289 121C289 52 210 52 195 52C114 52 58 89 40 101L28 33C60 17 115 -11 196 -11C334 -11 360 75 360 128ZM796 219C796 421 689 461 618 461C507 461 417 355 417 226C417 94 513 -11 633 -11C696 -11 753 13 792 41L786 106C723 54 657 50 634 50C554 50 490 121 487 219ZM492 274C508 350 561 400 618 400C670 400 726 366 739 274ZM1260 298C1260 364 1245 455 1123 455C1033 455 984 387 978 379L978 450L906 450L906 0L984 0L984 245C984 311 1009 394 1085 394C1181 394 1182 323 1182 291L1182 0L1260 0Z" stroke="rgb(0,0,0)" stroke-opacity="1" stroke-width="8" fill="rgb(0,0,0)" fill-opacity="1"></path></g></g><g><g transform="matrix(1,0,0,1,79.1875,21.296875)"><path transform="matrix(0.017,0,0,-0.017,0,0)" d="M146 266C146 526 243 632 301 700L282 726C225 675 60 542 60 266C60 159 85 58 133 -32C168 -99 200 -138 282 -215L301 -194C255 -137 146 -15 146 266Z" stroke="rgb(0,0,0)" stroke-opacity="1" stroke-width="8" fill="rgb(0,0,0)" fill-opacity="1"></path></g></g><g><g transform="matrix(1,0,0,1,84.84375,21.296875)"><path transform="matrix(0.017,0,0,-0.017,0,0)" d="M320 361C409 390 443 457 443 511C443 607 358 689 250 689C138 689 56 605 56 511C56 457 90 390 179 361C107 335 42 271 42 183C42 72 134 -22 249 -22C368 -22 457 75 457 183C457 275 387 337 320 361ZM250 391C173 391 126 441 126 511C126 581 175 630 249 630C328 630 373 577 373 511C373 438 322 391 250 391ZM250 40C181 40 123 88 123 184C123 291 195 329 249 329C307 329 376 289 376 184C376 85 314 40 250 40ZM956 331C956 412 952 506 910 588C869 665 800 689 749 689C690 689 620 662 579 571C546 497 541 413 541 331C541 251 545 177 575 103C615 5 691 -22 748 -22C821 -22 884 19 916 89C946 155 956 223 956 331ZM749 40C697 40 656 78 636 151C620 209 619 264 619 343C619 407 619 468 636 524C642 544 667 627 748 627C826 627 852 550 859 531C878 475 878 406 878 343C878 276 878 212 860 148C834 56 781 40 749 40Z" stroke="rgb(0,0,0)" stroke-opacity="1" stroke-width="8" fill="rgb(0,0,0)" fill-opacity="1"></path></g></g><g><g transform="matrix(1,0,0,1,101.8125,21.296875)"><path transform="matrix(0.017,0,0,-0.017,0,0)" d="M51 726L32 700C87 636 187 526 187 266C187 -10 83 -131 32 -194L51 -215C104 -165 273 -23 273 265C273 542 108 675 51 726Z" stroke="rgb(0,0,0)" stroke-opacity="1" stroke-width="8" fill="rgb(0,0,0)" fill-opacity="1"></path></g></g><g><g transform="matrix(1,0,0,1,107.46875,21.296875)"><path transform="matrix(0.017,0,0,-0.017,0,0)" d="M417 267L286 213L281 204L317 153L327 153L433 241L451 99L461 95L529 121L529 131L461 253L599 233L608 241L608 303L602 307L463 283L532 408L529 423L467 442L458 438L432 295L337 393L327 393L283 341L286 331ZM1185 689L1165 689C1106 627 1023 624 975 622L975 563C1008 564 1056 566 1106 587L1106 59L981 59L981 0L1310 0L1310 59L1185 59ZM1538 602L1801 602L1801 667L1466 667L1466 292L1532 292C1549 332 1586 372 1644 372C1691 372 1745 330 1745 208C1745 40 1623 40 1614 40C1547 40 1486 79 1457 134L1424 77C1465 19 1534 -22 1615 -22C1734 -22 1834 78 1834 206C1834 333 1748 434 1645 434C1605 434 1567 419 1538 392Z" stroke="rgb(0,0,0)" stroke-opacity="1" stroke-width="8" fill="rgb(0,0,0)" fill-opacity="1"></path></g></g></g></g><g><g><g><g transform="matrix(1,0,0,1,89.46875,47.078125)"><path transform="matrix(0.017,0,0,-0.017,0,0)" d="M92 522C121 593 186 630 247 630C299 630 348 600 348 535C348 473 307 413 246 398C240 397 238 397 167 391L167 329L238 329C346 329 368 235 368 184C368 105 322 40 245 40C176 40 97 75 53 144L42 83C115 -12 207 -22 247 -22C369 -22 457 76 457 183C457 275 387 338 319 360C395 401 430 471 430 535C430 622 347 689 248 689C171 689 98 648 56 577ZM956 331C956 412 952 506 910 588C869 665 800 689 749 689C690 689 620 662 579 571C546 497 541 413 541 331C541 251 545 177 575 103C615 5 691 -22 748 -22C821 -22 884 19 916 89C946 155 956 223 956 331ZM749 40C697 40 656 78 636 151C620 209 619 264 619 343C619 407 619 468 636 524C642 544 667 627 748 627C826 627 852 550 859 531C878 475 878 406 878 343C878 276 878 212 860 148C834 56 781 40 749 40Z" stroke="rgb(0,0,0)" stroke-opacity="1" stroke-width="8" fill="rgb(0,0,0)" fill-opacity="1"></path></g></g></g></g><line style="fill:none;stroke-width:1px;stroke:rgb(0, 0, 0);" x1="56.40625" y1="29.4375" x2="139.5" y2="29.4375"></line></g><g><g transform="matrix(1,0,0,1,141.1875,33.6875)"><path transform="matrix(0.017,0,0,-0.017,0,0)" d="" stroke="rgb(0,0,0)" stroke-opacity="1" stroke-width="8" fill="rgb(0,0,0)" fill-opacity="1"></path></g></g><g><svg x="143.734375" overflow="visible" y="3.6875" height="47" width="8.5"><path d=" M 1.75 1.70 c 0.00 -0.06 0.04 -0.08 0.08 -0.08 c 0.03 0.00 0.06 0.01 0.08 0.02 c 2.55 1.34 4.65 3.73 4.65 9.40 v 0.60 h -1.53 v -0.60 c 0.00 -3.23 -0.64 -7.03 -3.31 -9.06 c -0.12 -0.09 -0.13 -0.19 -0.13 -0.28 z  M 6.58 11.64 v 23.72 h -1.53 v -23.72 z" style="fill:rgb(0,0,0);fill-opacity:1;stroke-width:1px;stroke:none;stroke-opacity:1;"></path><path d=" M 1.75 45.30 c 0.00 0.06 0.04 0.08 0.08 0.08 c 0.03 0.00 0.06 -0.01 0.08 -0.02 c 2.55 -1.34 4.65 -3.73 4.65 -9.40 v -0.60 h -1.53 v 0.60 c 0.00 3.23 -0.64 7.03 -3.31 9.06 c -0.12 0.09 -0.13 0.19 -0.13 0.28 z" style="fill:rgb(0,0,0);fill-opacity:1;stroke-width:1px;stroke:none;stroke-opacity:1;"></path></svg></g><g><g transform="matrix(1,0,0,1,158.515625,33.6875)"><path transform="matrix(0.017,0,0,-0.017,0,0)" d="M604 347L604 406L65 406L65 347ZM604 134L604 193L65 193L65 134Z" stroke="rgb(0,0,0)" stroke-opacity="1" stroke-width="8" fill="rgb(0,0,0)" fill-opacity="1"></path></g></g><g><g transform="matrix(1,0,0,1,174.96875,33.6875)"><path transform="matrix(0.017,0,0,-0.017,0,0)" d="M609 128C609 183 572 217 570 220C531 255 504 261 454 270C399 281 353 291 353 340C353 402 425 402 438 402C470 402 523 398 580 364L592 429C540 453 499 461 448 461C423 461 282 461 282 330C282 281 311 249 336 230C367 208 389 204 444 193C480 186 538 174 538 121C538 52 459 52 444 52C363 52 307 89 289 101L277 33C309 17 364 -11 445 -11C583 -11 609 75 609 128ZM1045 219C1045 421 938 461 867 461C756 461 666 355 666 226C666 94 762 -11 882 -11C945 -11 1002 13 1041 41L1035 106C972 54 906 50 883 50C803 50 739 121 736 219ZM741 274C757 350 810 400 867 400C919 400 975 366 988 274ZM1509 298C1509 364 1494 455 1372 455C1282 455 1233 387 1227 379L1227 450L1155 450L1155 0L1233 0L1233 245C1233 311 1258 394 1334 394C1430 394 1431 323 1431 291L1431 0L1509 0Z" stroke="rgb(0,0,0)" stroke-opacity="1" stroke-width="8" fill="rgb(0,0,0)" fill-opacity="1"></path></g></g><g><g transform="matrix(1,0,0,1,201.984375,33.6875)"><path transform="matrix(0.017,0,0,-0.017,0,0)" d="M146 266C146 526 243 632 301 700L282 726C225 675 60 542 60 266C60 159 85 58 133 -32C168 -99 200 -138 282 -215L301 -194C255 -137 146 -15 146 266Z" stroke="rgb(0,0,0)" stroke-opacity="1" stroke-width="8" fill="rgb(0,0,0)" fill-opacity="1"></path></g></g><g><g transform="matrix(1,0,0,1,207.640625,33.6875)"><path transform="matrix(0.017,0,0,-0.017,0,0)" d="M547 504C529 618 483 702 356 702C96 702 60 412 94 199C113 80 164 -16 300 -16C536 -16 576 316 547 504ZM478 381L162 381C169 485 213 676 342 676C428 676 461 585 472 517C479 472 478 426 478 381ZM478 349C473 237 454 13 311 13C209 13 181 125 169 203C161 252 162 301 162 349Z" stroke="rgb(0,0,0)" stroke-opacity="1" stroke-width="8" fill="rgb(0,0,0)" fill-opacity="1"></path></g></g><g><g transform="matrix(1,0,0,1,218.0625,33.6875)"><path transform="matrix(0.017,0,0,-0.017,0,0)" d="M51 726L32 700C87 636 187 526 187 266C187 -10 83 -131 32 -194L51 -215C104 -165 273 -23 273 265C273 542 108 675 51 726Z" stroke="rgb(0,0,0)" stroke-opacity="1" stroke-width="8" fill="rgb(0,0,0)" fill-opacity="1"></path></g></g></g></g></svg>