<svg xmlns="http://www.w3.org/2000/svg" xmlns:xlink="http://www.w3.org/1999/xlink" width="128.734375" height="47.171875" style="width:128.734375px;height:47.171875px;font-family:Asana-Math, Asana;background:#FFF;"><g><g><g><g><g><g><g transform="matrix(1,0,0,1,2,19)"><path transform="matrix(0.017,0,0,-0.017,0,0)" d="M360 128C360 183 323 217 321 220C282 255 255 261 205 270C150 281 104 291 104 340C104 402 176 402 189 402C221 402 274 398 331 364L343 429C291 453 250 461 199 461C174 461 33 461 33 330C33 281 62 249 87 230C118 208 140 204 195 193C231 186 289 174 289 121C289 52 210 52 195 52C114 52 58 89 40 101L28 33C60 17 115 -11 196 -11C334 -11 360 75 360 128ZM796 219C796 421 689 461 618 461C507 461 417 355 417 226C417 94 513 -11 633 -11C696 -11 753 13 792 41L786 106C723 54 657 50 634 50C554 50 490 121 487 219ZM492 274C508 350 561 400 618 400C670 400 726 366 739 274ZM1260 298C1260 364 1245 455 1123 455C1033 455 984 387 978 379L978 450L906 450L906 0L984 0L984 245C984 311 1009 394 1085 394C1181 394 1182 323 1182 291L1182 0L1260 0Z" stroke="rgb(0,0,0)" stroke-opacity="1" stroke-width="8" fill="rgb(0,0,0)" fill-opacity="1"></path></g></g><g><g transform="matrix(1,0,0,1,24.78125,19)"><path transform="matrix(0.017,0,0,-0.017,0,0)" d="M146 266C146 526 243 632 301 700L282 726C225 675 60 542 60 266C60 159 85 58 133 -32C168 -99 200 -138 282 -215L301 -194C255 -137 146 -15 146 266Z" stroke="rgb(0,0,0)" stroke-opacity="1" stroke-width="8" fill="rgb(0,0,0)" fill-opacity="1"></path></g></g><g><g transform="matrix(1,0,0,1,30.4375,19)"><path transform="matrix(0.017,0,0,-0.017,0,0)" d="M320 361C409 390 443 457 443 511C443 607 358 689 250 689C138 689 56 605 56 511C56 457 90 390 179 361C107 335 42 271 42 183C42 72 134 -22 249 -22C368 -22 457 75 457 183C457 275 387 337 320 361ZM250 391C173 391 126 441 126 511C126 581 175 630 249 630C328 630 373 577 373 511C373 438 322 391 250 391ZM250 40C181 40 123 88 123 184C123 291 195 329 249 329C307 329 376 289 376 184C376 85 314 40 250 40ZM956 331C956 412 952 506 910 588C869 665 800 689 749 689C690 689 620 662 579 571C546 497 541 413 541 331C541 251 545 177 575 103C615 5 691 -22 748 -22C821 -22 884 19 916 89C946 155 956 223 956 331ZM749 40C697 40 656 78 636 151C620 209 619 264 619 343C619 407 619 468 636 524C642 544 667 627 748 627C826 627 852 550 859 531C878 475 878 406 878 343C878 276 878 212 860 148C834 56 781 40 749 40Z" stroke="rgb(0,0,0)" stroke-opacity="1" stroke-width="8" fill="rgb(0,0,0)" fill-opacity="1"></path></g></g><g><g transform="matrix(1,0,0,1,47.40625,19)"><path transform="matrix(0.017,0,0,-0.017,0,0)" d="M51 726L32 700C87 636 187 526 187 266C187 -10 83 -131 32 -194L51 -215C104 -165 273 -23 273 265C273 542 108 675 51 726Z" stroke="rgb(0,0,0)" stroke-opacity="1" stroke-width="8" fill="rgb(0,0,0)" fill-opacity="1"></path></g></g></g></g><g><g><g><g transform="matrix(1,0,0,1,19.046875,44.78125)"><path transform="matrix(0.017,0,0,-0.017,0,0)" d="M92 522C121 593 186 630 247 630C299 630 348 600 348 535C348 473 307 413 246 398C240 397 238 397 167 391L167 329L238 329C346 329 368 235 368 184C368 105 322 40 245 40C176 40 97 75 53 144L42 83C115 -12 207 -22 247 -22C369 -22 457 76 457 183C457 275 387 338 319 360C395 401 430 471 430 535C430 622 347 689 248 689C171 689 98 648 56 577ZM956 331C956 412 952 506 910 588C869 665 800 689 749 689C690 689 620 662 579 571C546 497 541 413 541 331C541 251 545 177 575 103C615 5 691 -22 748 -22C821 -22 884 19 916 89C946 155 956 223 956 331ZM749 40C697 40 656 78 636 151C620 209 619 264 619 343C619 407 619 468 636 524C642 544 667 627 748 627C826 627 852 550 859 531C878 475 878 406 878 343C878 276 878 212 860 148C834 56 781 40 749 40Z" stroke="rgb(0,0,0)" stroke-opacity="1" stroke-width="8" fill="rgb(0,0,0)" fill-opacity="1"></path></g></g></g></g><line style="fill:none;stroke-width:1px;stroke:rgb(0, 0, 0);" x1="2" y1="27.140625" x2="53.0625" y2="27.140625"></line></g><g><g transform="matrix(1,0,0,1,54.75,31.390625)"><path transform="matrix(0.017,0,0,-0.017,0,0)" d="" stroke="rgb(0,0,0)" stroke-opacity="1" stroke-width="8" fill="rgb(0,0,0)" fill-opacity="1"></path></g></g><g><g transform="matrix(1,0,0,1,64.078125,31.390625)"><path transform="matrix(0.017,0,0,-0.017,0,0)" d="M604 347L604 406L65 406L65 347ZM604 134L604 193L65 193L65 134Z" stroke="rgb(0,0,0)" stroke-opacity="1" stroke-width="8" fill="rgb(0,0,0)" fill-opacity="1"></path></g></g><g><g><g><g><g transform="matrix(1,0,0,1,82.21875,19)"><path transform="matrix(0.017,0,0,-0.017,0,0)" d="M360 128C360 183 323 217 321 220C282 255 255 261 205 270C150 281 104 291 104 340C104 402 176 402 189 402C221 402 274 398 331 364L343 429C291 453 250 461 199 461C174 461 33 461 33 330C33 281 62 249 87 230C118 208 140 204 195 193C231 186 289 174 289 121C289 52 210 52 195 52C114 52 58 89 40 101L28 33C60 17 115 -11 196 -11C334 -11 360 75 360 128ZM796 219C796 421 689 461 618 461C507 461 417 355 417 226C417 94 513 -11 633 -11C696 -11 753 13 792 41L786 106C723 54 657 50 634 50C554 50 490 121 487 219ZM492 274C508 350 561 400 618 400C670 400 726 366 739 274ZM1260 298C1260 364 1245 455 1123 455C1033 455 984 387 978 379L978 450L906 450L906 0L984 0L984 245C984 311 1009 394 1085 394C1181 394 1182 323 1182 291L1182 0L1260 0Z" stroke="rgb(0,0,0)" stroke-opacity="1" stroke-width="8" fill="rgb(0,0,0)" fill-opacity="1"></path></g></g><g><g transform="matrix(1,0,0,1,105,19)"><path transform="matrix(0.017,0,0,-0.017,0,0)" d="M146 266C146 526 243 632 301 700L282 726C225 675 60 542 60 266C60 159 85 58 133 -32C168 -99 200 -138 282 -215L301 -194C255 -137 146 -15 146 266Z" stroke="rgb(0,0,0)" stroke-opacity="1" stroke-width="8" fill="rgb(0,0,0)" fill-opacity="1"></path></g></g><g><g transform="matrix(1,0,0,1,110.65625,19)"><path transform="matrix(0.017,0,0,-0.017,0,0)" d="M547 504C529 618 483 702 356 702C96 702 60 412 94 199C113 80 164 -16 300 -16C536 -16 576 316 547 504ZM478 381L162 381C169 485 213 676 342 676C428 676 461 585 472 517C479 472 478 426 478 381ZM478 349C473 237 454 13 311 13C209 13 181 125 169 203C161 252 162 301 162 349Z" stroke="rgb(0,0,0)" stroke-opacity="1" stroke-width="8" fill="rgb(0,0,0)" fill-opacity="1"></path></g></g><g><g transform="matrix(1,0,0,1,121.078125,19)"><path transform="matrix(0.017,0,0,-0.017,0,0)" d="M51 726L32 700C87 636 187 526 187 266C187 -10 83 -131 32 -194L51 -215C104 -165 273 -23 273 265C273 542 108 675 51 726Z" stroke="rgb(0,0,0)" stroke-opacity="1" stroke-width="8" fill="rgb(0,0,0)" fill-opacity="1"></path></g></g></g></g><g><g><g><g transform="matrix(1,0,0,1,95.984375,44.78125)"><path transform="matrix(0.017,0,0,-0.017,0,0)" d="M299 689L279 689C220 627 137 624 89 622L89 563C122 564 170 566 220 587L220 59L95 59L95 0L424 0L424 59L299 59ZM652 602L915 602L915 667L580 667L580 292L646 292C663 332 700 372 758 372C805 372 859 330 859 208C859 40 737 40 728 40C661 40 600 79 571 134L538 77C579 19 648 -22 729 -22C848 -22 948 78 948 206C948 333 862 434 759 434C719 434 681 419 652 392Z" stroke="rgb(0,0,0)" stroke-opacity="1" stroke-width="8" fill="rgb(0,0,0)" fill-opacity="1"></path></g></g></g></g><line style="fill:none;stroke-width:1px;stroke:rgb(0, 0, 0);" x1="82.21875" y1="27.140625" x2="126.734375" y2="27.140625"></line></g></g></g></svg>