<svg version="1.1" xmlns="http://www.w3.org/2000/svg" viewBox="0 0 174.75280602850762 81.21472126447225" width="349.50561205701524" height="162.4294425289445">
  <!-- svg-source:excalidraw -->
  
  <defs>
    <style class="style-fonts">
      @font-face {
        font-family: "Virgil";
        src: url("https://excalidraw.com/Virgil.woff2");
      }
      @font-face {
        font-family: "Cascadia";
        src: url("https://excalidraw.com/Cascadia.woff2");
      }
    </style>
  </defs>
  <g stroke-linecap="round"><g transform="translate(56.732117858085985 -36.80087616466517) rotate(270.0842389384637 30.644285156168735 77.3314319480287)"><path d="M0 0 C0 22.72, 0 45.45, 0 104.48 M0 0 C0 23.94, 0 47.89, 0 104.48 M0 104.48 C21.5 122.08, 42.99 139.68, 61.29 154.66 M0 104.48 C19.06 120.08, 38.12 135.69, 61.29 154.66" stroke="black" stroke-width="2" fill="none"></path></g></g><mask></mask><g stroke-linecap="round"><g transform="translate(56.67039721303627 -36.57936637609782) rotate(270.0842389384637 30.602032115803922 77.193614249657)"><path d="M0 0 C23.48 59.22, 46.95 118.44, 61.2 154.39 M0 0 C20.55 51.83, 41.09 103.65, 61.2 154.39" stroke="black" stroke-width="2" fill="none"></path></g></g><mask></mask><g stroke-linecap="round"><g transform="translate(28.112311649336334 64.57373503098097) rotate(0 1.0623465898670474 3.137881093083706)"><path d="M0 0 C0.35 0.44, 1.9 1.6, 2.1 2.65 C2.3 3.7, 1.34 5.67, 1.19 6.28 M0 0 C0.35 0.44, 1.9 1.6, 2.1 2.65 C2.3 3.7, 1.34 5.67, 1.19 6.28" stroke="black" stroke-width="2" fill="none"></path></g></g><mask></mask><g transform="translate(32.69052601417752 62.1418828355545) rotate(0 2.5 3.5)"><text x="2.5" y="6" font-family="Cascadia, Segoe UI Emoji" font-size="5.922741258791141px" fill="black" text-anchor="middle" style="white-space: pre;" direction="ltr">θ</text></g><g transform="translate(64.86363567380795 32.883020668075915) rotate(0 7.5 4.5)"><text x="7.5" y="7" font-family="Cascadia, Segoe UI Emoji" font-size="7.559700795716974px" fill="black" text-anchor="middle" style="white-space: pre;" direction="ltr">16m</text></g><g transform="translate(137.66514873232518 50.75288067159454) rotate(0 5.5 4.5)"><text x="5.5" y="7" font-family="Cascadia, Segoe UI Emoji" font-size="7.559700795716974px" fill="black" text-anchor="middle" style="white-space: pre;" direction="ltr">5m</text></g><g stroke-linecap="round"><g transform="translate(108.22195935786476 70.8440043393748) rotate(0 5.533463454894445 -2.915480745052264)"><path d="M0 0 C0.69 -0.75, 2.28 -3.5, 4.13 -4.48 C5.97 -5.45, 9.91 -5.61, 11.07 -5.83 M0 0 C0.69 -0.75, 2.28 -3.5, 4.13 -4.48 C5.97 -5.45, 9.91 -5.61, 11.07 -5.83" stroke="black" stroke-width="2" fill="none"></path></g></g><mask></mask><g transform="translate(100.10782851703698 58.1136392302833) rotate(0 8 3.5)"><text x="8" y="6" font-family="Cascadia, Segoe UI Emoji" font-size="5.922741258791141px" fill="black" text-anchor="middle" style="white-space: pre;" direction="ltr">110°</text></g></svg>