<svg xmlns="http://www.w3.org/2000/svg" xmlns:xlink="http://www.w3.org/1999/xlink" width="194.8125" height="47.171875" style="width:194.8125px;height:47.171875px;font-family:Asana-Math, Asana;background:#FFF;"><g><g><g><g><g><g><g transform="matrix(1,0,0,1,2,19)"><path transform="matrix(0.017,0,0,-0.017,0,0)" d="M83 466C103 545 131 624 222 624C316 624 367 548 367 468C367 382 310 324 251 263L174 191L50 65L50 0L449 0L449 72L267 72C255 72 243 71 231 71L122 71C154 100 230 176 261 205C333 274 449 347 449 471C449 587 368 689 236 689C122 689 66 610 42 522C66 487 59 501 83 466ZM956 331C956 412 952 506 910 588C869 665 800 689 749 689C690 689 620 662 579 571C546 497 541 413 541 331C541 251 545 177 575 103C615 5 691 -22 748 -22C821 -22 884 19 916 89C946 155 956 223 956 331ZM749 40C697 40 656 78 636 151C620 209 619 264 619 343C619 407 619 468 636 524C642 544 667 627 748 627C826 627 852 550 859 531C878 475 878 406 878 343C878 276 878 212 860 148C834 56 781 40 749 40ZM1415 267L1284 213L1279 204L1315 153L1325 153L1431 241L1449 99L1459 95L1527 121L1527 131L1459 253L1597 233L1606 241L1606 303L1600 307L1461 283L1530 408L1527 423L1465 442L1456 438L1430 295L1335 393L1325 393L1281 341L1284 331ZM2244 128C2244 183 2207 217 2205 220C2166 255 2139 261 2089 270C2034 281 1988 291 1988 340C1988 402 2060 402 2073 402C2105 402 2158 398 2215 364L2227 429C2175 453 2134 461 2083 461C2058 461 1917 461 1917 330C1917 281 1946 249 1971 230C2002 208 2024 204 2079 193C2115 186 2173 174 2173 121C2173 52 2094 52 2079 52C1998 52 1942 89 1924 101L1912 33C1944 17 1999 -11 2080 -11C2218 -11 2244 75 2244 128ZM2680 219C2680 421 2573 461 2502 461C2391 461 2301 355 2301 226C2301 94 2397 -11 2517 -11C2580 -11 2637 13 2676 41L2670 106C2607 54 2541 50 2518 50C2438 50 2374 121 2371 219ZM2376 274C2392 350 2445 400 2502 400C2554 400 2610 366 2623 274ZM3144 298C3144 364 3129 455 3007 455C2917 455 2868 387 2862 379L2862 450L2790 450L2790 0L2868 0L2868 245C2868 311 2893 394 2969 394C3065 394 3066 323 3066 291L3066 0L3144 0Z" stroke="rgb(0,0,0)" stroke-opacity="1" stroke-width="8" fill="rgb(0,0,0)" fill-opacity="1"></path></g></g><g><g transform="matrix(1,0,0,1,56.8125,19)"><path transform="matrix(0.017,0,0,-0.017,0,0)" d="M146 266C146 526 243 632 301 700L282 726C225 675 60 542 60 266C60 159 85 58 133 -32C168 -99 200 -138 282 -215L301 -194C255 -137 146 -15 146 266Z" stroke="rgb(0,0,0)" stroke-opacity="1" stroke-width="8" fill="rgb(0,0,0)" fill-opacity="1"></path></g></g><g><g transform="matrix(1,0,0,1,62.46875,19)"><path transform="matrix(0.017,0,0,-0.017,0,0)" d="M372 174L471 174L471 236L372 236L372 667L281 667L28 236L28 174L293 174L293 0L372 0ZM106 236C158 323 299 564 299 622L299 236ZM956 331C956 412 952 506 910 588C869 665 800 689 749 689C690 689 620 662 579 571C546 497 541 413 541 331C541 251 545 177 575 103C615 5 691 -22 748 -22C821 -22 884 19 916 89C946 155 956 223 956 331ZM749 40C697 40 656 78 636 151C620 209 619 264 619 343C619 407 619 468 636 524C642 544 667 627 748 627C826 627 852 550 859 531C878 475 878 406 878 343C878 276 878 212 860 148C834 56 781 40 749 40Z" stroke="rgb(0,0,0)" stroke-opacity="1" stroke-width="8" fill="rgb(0,0,0)" fill-opacity="1"></path></g></g><g><g transform="matrix(1,0,0,1,79.4375,19)"><path transform="matrix(0.017,0,0,-0.017,0,0)" d="M51 726L32 700C87 636 187 526 187 266C187 -10 83 -131 32 -194L51 -215C104 -165 273 -23 273 265C273 542 108 675 51 726Z" stroke="rgb(0,0,0)" stroke-opacity="1" stroke-width="8" fill="rgb(0,0,0)" fill-opacity="1"></path></g></g></g></g><g><g><g><g transform="matrix(1,0,0,1,18.015625,44.78125)"><path transform="matrix(0.017,0,0,-0.017,0,0)" d="M360 128C360 183 323 217 321 220C282 255 255 261 205 270C150 281 104 291 104 340C104 402 176 402 189 402C221 402 274 398 331 364L343 429C291 453 250 461 199 461C174 461 33 461 33 330C33 281 62 249 87 230C118 208 140 204 195 193C231 186 289 174 289 121C289 52 210 52 195 52C114 52 58 89 40 101L28 33C60 17 115 -11 196 -11C334 -11 360 75 360 128ZM796 219C796 421 689 461 618 461C507 461 417 355 417 226C417 94 513 -11 633 -11C696 -11 753 13 792 41L786 106C723 54 657 50 634 50C554 50 490 121 487 219ZM492 274C508 350 561 400 618 400C670 400 726 366 739 274ZM1260 298C1260 364 1245 455 1123 455C1033 455 984 387 978 379L978 450L906 450L906 0L984 0L984 245C984 311 1009 394 1085 394C1181 394 1182 323 1182 291L1182 0L1260 0Z" stroke="rgb(0,0,0)" stroke-opacity="1" stroke-width="8" fill="rgb(0,0,0)" fill-opacity="1"></path></g></g><g><g transform="matrix(1,0,0,1,40.796875,44.78125)"><path transform="matrix(0.017,0,0,-0.017,0,0)" d="M146 266C146 526 243 632 301 700L282 726C225 675 60 542 60 266C60 159 85 58 133 -32C168 -99 200 -138 282 -215L301 -194C255 -137 146 -15 146 266Z" stroke="rgb(0,0,0)" stroke-opacity="1" stroke-width="8" fill="rgb(0,0,0)" fill-opacity="1"></path></g></g><g><g transform="matrix(1,0,0,1,46.453125,44.78125)"><path transform="matrix(0.017,0,0,-0.017,0,0)" d="M320 361C409 390 443 457 443 511C443 607 358 689 250 689C138 689 56 605 56 511C56 457 90 390 179 361C107 335 42 271 42 183C42 72 134 -22 249 -22C368 -22 457 75 457 183C457 275 387 337 320 361ZM250 391C173 391 126 441 126 511C126 581 175 630 249 630C328 630 373 577 373 511C373 438 322 391 250 391ZM250 40C181 40 123 88 123 184C123 291 195 329 249 329C307 329 376 289 376 184C376 85 314 40 250 40ZM956 331C956 412 952 506 910 588C869 665 800 689 749 689C690 689 620 662 579 571C546 497 541 413 541 331C541 251 545 177 575 103C615 5 691 -22 748 -22C821 -22 884 19 916 89C946 155 956 223 956 331ZM749 40C697 40 656 78 636 151C620 209 619 264 619 343C619 407 619 468 636 524C642 544 667 627 748 627C826 627 852 550 859 531C878 475 878 406 878 343C878 276 878 212 860 148C834 56 781 40 749 40Z" stroke="rgb(0,0,0)" stroke-opacity="1" stroke-width="8" fill="rgb(0,0,0)" fill-opacity="1"></path></g></g><g><g transform="matrix(1,0,0,1,63.421875,44.78125)"><path transform="matrix(0.017,0,0,-0.017,0,0)" d="M51 726L32 700C87 636 187 526 187 266C187 -10 83 -131 32 -194L51 -215C104 -165 273 -23 273 265C273 542 108 675 51 726Z" stroke="rgb(0,0,0)" stroke-opacity="1" stroke-width="8" fill="rgb(0,0,0)" fill-opacity="1"></path></g></g></g></g><line style="fill:none;stroke-width:1px;stroke:rgb(0, 0, 0);" x1="2" y1="27.140625" x2="85.09375" y2="27.140625"></line></g><g><g transform="matrix(1,0,0,1,86.78125,31.390625)"><path transform="matrix(0.017,0,0,-0.017,0,0)" d="" stroke="rgb(0,0,0)" stroke-opacity="1" stroke-width="8" fill="rgb(0,0,0)" fill-opacity="1"></path></g></g><g><g transform="matrix(1,0,0,1,96.109375,31.390625)"><path transform="matrix(0.017,0,0,-0.017,0,0)" d="M604 347L604 406L65 406L65 347ZM604 134L604 193L65 193L65 134Z" stroke="rgb(0,0,0)" stroke-opacity="1" stroke-width="8" fill="rgb(0,0,0)" fill-opacity="1"></path></g></g><g><g transform="matrix(1,0,0,1,112.5625,31.390625)"><path transform="matrix(0.017,0,0,-0.017,0,0)" d="M509 229L692 444L610 444L476 279L338 444L255 444L443 229L249 0L331 0L476 188L626 0L709 0Z" stroke="rgb(0,0,0)" stroke-opacity="1" stroke-width="8" fill="rgb(0,0,0)" fill-opacity="1"></path></g></g><g><g transform="matrix(1,0,0,1,133.953125,31.390625)"><path transform="matrix(0.017,0,0,-0.017,0,0)" d="M604 347L604 406L65 406L65 347ZM604 134L604 193L65 193L65 134Z" stroke="rgb(0,0,0)" stroke-opacity="1" stroke-width="8" fill="rgb(0,0,0)" fill-opacity="1"></path></g></g><g><g transform="matrix(1,0,0,1,150.40625,31.390625)"><path transform="matrix(0.017,0,0,-0.017,0,0)" d="M548 689L528 689C469 627 386 624 338 622L338 563C371 564 419 566 469 587L469 59L344 59L344 0L673 0L673 59L548 59ZM840 522C869 593 934 630 995 630C1047 630 1096 600 1096 535C1096 473 1055 413 994 398C988 397 986 397 915 391L915 329L986 329C1094 329 1116 235 1116 184C1116 105 1070 40 993 40C924 40 845 75 801 144L790 83C863 -12 955 -22 995 -22C1117 -22 1205 76 1205 183C1205 275 1135 338 1067 360C1143 401 1178 471 1178 535C1178 622 1095 689 996 689C919 689 846 648 804 577ZM1371 111C1341 111 1314 83 1314 53C1314 23 1341 -5 1370 -5C1402 -5 1430 22 1430 53C1430 83 1402 111 1371 111ZM1953 331C1953 412 1949 506 1907 588C1866 665 1797 689 1746 689C1687 689 1617 662 1576 571C1543 497 1538 413 1538 331C1538 251 1542 177 1572 103C1612 5 1688 -22 1745 -22C1818 -22 1881 19 1913 89C1943 155 1953 223 1953 331ZM1746 40C1694 40 1653 78 1633 151C1617 209 1616 264 1616 343C1616 407 1616 468 1633 524C1639 544 1664 627 1745 627C1823 627 1849 550 1856 531C1875 475 1875 406 1875 343C1875 276 1875 212 1857 148C1831 56 1778 40 1746 40ZM2148 602L2411 602L2411 667L2076 667L2076 292L2142 292C2159 332 2196 372 2254 372C2301 372 2355 330 2355 208C2355 40 2233 40 2224 40C2157 40 2096 79 2067 134L2034 77C2075 19 2144 -22 2225 -22C2344 -22 2444 78 2444 206C2444 333 2358 434 2255 434C2215 434 2177 419 2148 392Z" stroke="rgb(0,0,0)" stroke-opacity="1" stroke-width="8" fill="rgb(0,0,0)" fill-opacity="1"></path></g></g></g></g></svg>