<svg xmlns="http://www.w3.org/2000/svg" xmlns:xlink="http://www.w3.org/1999/xlink" width="204.203125" height="47.171875" style="width:204.203125px;height:47.171875px;font-family:Asana-Math, Asana;background:#FFF;"><g><g><g><g><g><g><g transform="matrix(1,0,0,1,2,19)"><path transform="matrix(0.017,0,0,-0.017,0,0)" d="M360 128C360 183 323 217 321 220C282 255 255 261 205 270C150 281 104 291 104 340C104 402 176 402 189 402C221 402 274 398 331 364L343 429C291 453 250 461 199 461C174 461 33 461 33 330C33 281 62 249 87 230C118 208 140 204 195 193C231 186 289 174 289 121C289 52 210 52 195 52C114 52 58 89 40 101L28 33C60 17 115 -11 196 -11C334 -11 360 75 360 128ZM796 219C796 421 689 461 618 461C507 461 417 355 417 226C417 94 513 -11 633 -11C696 -11 753 13 792 41L786 106C723 54 657 50 634 50C554 50 490 121 487 219ZM492 274C508 350 561 400 618 400C670 400 726 366 739 274ZM1260 298C1260 364 1245 455 1123 455C1033 455 984 387 978 379L978 450L906 450L906 0L984 0L984 245C984 311 1009 394 1085 394C1181 394 1182 323 1182 291L1182 0L1260 0Z" stroke="rgb(0,0,0)" stroke-opacity="1" stroke-width="8" fill="rgb(0,0,0)" fill-opacity="1"></path></g></g><g><g transform="matrix(1,0,0,1,24.78125,19)"><path transform="matrix(0.017,0,0,-0.017,0,0)" d="M146 266C146 526 243 632 301 700L282 726C225 675 60 542 60 266C60 159 85 58 133 -32C168 -99 200 -138 282 -215L301 -194C255 -137 146 -15 146 266Z" stroke="rgb(0,0,0)" stroke-opacity="1" stroke-width="8" fill="rgb(0,0,0)" fill-opacity="1"></path></g></g><g><g transform="matrix(1,0,0,1,30.4375,19)"><path transform="matrix(0.017,0,0,-0.017,0,0)" d="M320 361C409 390 443 457 443 511C443 607 358 689 250 689C138 689 56 605 56 511C56 457 90 390 179 361C107 335 42 271 42 183C42 72 134 -22 249 -22C368 -22 457 75 457 183C457 275 387 337 320 361ZM250 391C173 391 126 441 126 511C126 581 175 630 249 630C328 630 373 577 373 511C373 438 322 391 250 391ZM250 40C181 40 123 88 123 184C123 291 195 329 249 329C307 329 376 289 376 184C376 85 314 40 250 40ZM956 331C956 412 952 506 910 588C869 665 800 689 749 689C690 689 620 662 579 571C546 497 541 413 541 331C541 251 545 177 575 103C615 5 691 -22 748 -22C821 -22 884 19 916 89C946 155 956 223 956 331ZM749 40C697 40 656 78 636 151C620 209 619 264 619 343C619 407 619 468 636 524C642 544 667 627 748 627C826 627 852 550 859 531C878 475 878 406 878 343C878 276 878 212 860 148C834 56 781 40 749 40Z" stroke="rgb(0,0,0)" stroke-opacity="1" stroke-width="8" fill="rgb(0,0,0)" fill-opacity="1"></path></g></g><g><g transform="matrix(1,0,0,1,47.40625,19)"><path transform="matrix(0.017,0,0,-0.017,0,0)" d="M51 726L32 700C87 636 187 526 187 266C187 -10 83 -131 32 -194L51 -215C104 -165 273 -23 273 265C273 542 108 675 51 726Z" stroke="rgb(0,0,0)" stroke-opacity="1" stroke-width="8" fill="rgb(0,0,0)" fill-opacity="1"></path></g></g><g><g transform="matrix(1,0,0,1,53.0625,19)"><path transform="matrix(0.017,0,0,-0.017,0,0)" d="M417 267L286 213L281 204L317 153L327 153L433 241L451 99L461 95L529 121L529 131L461 253L599 233L608 241L608 303L602 307L463 283L532 408L529 423L467 442L458 438L432 295L337 393L327 393L283 341L286 331ZM1185 689L1165 689C1106 627 1023 624 975 622L975 563C1008 564 1056 566 1106 587L1106 59L981 59L981 0L1310 0L1310 59L1185 59ZM1538 602L1801 602L1801 667L1466 667L1466 292L1532 292C1549 332 1586 372 1644 372C1691 372 1745 330 1745 208C1745 40 1623 40 1614 40C1547 40 1486 79 1457 134L1424 77C1465 19 1534 -22 1615 -22C1734 -22 1834 78 1834 206C1834 333 1748 434 1645 434C1605 434 1567 419 1538 392Z" stroke="rgb(0,0,0)" stroke-opacity="1" stroke-width="8" fill="rgb(0,0,0)" fill-opacity="1"></path></g></g></g></g><g><g><g><g transform="matrix(1,0,0,1,35.0625,44.78125)"><path transform="matrix(0.017,0,0,-0.017,0,0)" d="M92 522C121 593 186 630 247 630C299 630 348 600 348 535C348 473 307 413 246 398C240 397 238 397 167 391L167 329L238 329C346 329 368 235 368 184C368 105 322 40 245 40C176 40 97 75 53 144L42 83C115 -12 207 -22 247 -22C369 -22 457 76 457 183C457 275 387 338 319 360C395 401 430 471 430 535C430 622 347 689 248 689C171 689 98 648 56 577ZM956 331C956 412 952 506 910 588C869 665 800 689 749 689C690 689 620 662 579 571C546 497 541 413 541 331C541 251 545 177 575 103C615 5 691 -22 748 -22C821 -22 884 19 916 89C946 155 956 223 956 331ZM749 40C697 40 656 78 636 151C620 209 619 264 619 343C619 407 619 468 636 524C642 544 667 627 748 627C826 627 852 550 859 531C878 475 878 406 878 343C878 276 878 212 860 148C834 56 781 40 749 40Z" stroke="rgb(0,0,0)" stroke-opacity="1" stroke-width="8" fill="rgb(0,0,0)" fill-opacity="1"></path></g></g></g></g><line style="fill:none;stroke-width:1px;stroke:rgb(0, 0, 0);" x1="2" y1="27.140625" x2="85.09375" y2="27.140625"></line></g><g><g transform="matrix(1,0,0,1,86.78125,31.390625)"><path transform="matrix(0.017,0,0,-0.017,0,0)" d="" stroke="rgb(0,0,0)" stroke-opacity="1" stroke-width="8" fill="rgb(0,0,0)" fill-opacity="1"></path></g></g><g><g transform="matrix(1,0,0,1,96.109375,31.390625)"><path transform="matrix(0.017,0,0,-0.017,0,0)" d="M604 347L604 406L65 406L65 347ZM604 134L604 193L65 193L65 134Z" stroke="rgb(0,0,0)" stroke-opacity="1" stroke-width="8" fill="rgb(0,0,0)" fill-opacity="1"></path></g></g><g><g transform="matrix(1,0,0,1,112.5625,31.390625)"><path transform="matrix(0.017,0,0,-0.017,0,0)" d="M796 504C778 618 732 702 605 702C345 702 309 412 343 199C362 80 413 -16 549 -16C785 -16 825 316 796 504ZM727 381L411 381C418 485 462 676 591 676C677 676 710 585 721 517C728 472 727 426 727 381ZM727 349C722 237 703 13 560 13C458 13 430 125 418 203C410 252 411 301 411 349Z" stroke="rgb(0,0,0)" stroke-opacity="1" stroke-width="8" fill="rgb(0,0,0)" fill-opacity="1"></path></g></g><g><g transform="matrix(1,0,0,1,136.546875,31.390625)"><path transform="matrix(0.017,0,0,-0.017,0,0)" d="M604 347L604 406L65 406L65 347ZM604 134L604 193L65 193L65 134Z" stroke="rgb(0,0,0)" stroke-opacity="1" stroke-width="8" fill="rgb(0,0,0)" fill-opacity="1"></path></g></g><g><g transform="matrix(1,0,0,1,153,31.390625)"><path transform="matrix(0.017,0,0,-0.017,0,0)" d="M332 466C352 545 380 624 471 624C565 624 616 548 616 468C616 382 559 324 500 263L423 191L299 65L299 0L698 0L698 72L516 72C504 72 492 71 480 71L371 71C403 100 479 176 510 205C582 274 698 347 698 471C698 587 617 689 485 689C371 689 315 610 291 522C315 487 308 501 332 466ZM820 24C854 -1 891 -22 953 -22C1084 -22 1205 119 1205 340C1205 625 1086 689 1001 689C931 689 890 658 855 621C792 552 790 485 790 441C790 311 856 197 952 197C1014 197 1078 227 1121 281C1110 118 1033 40 954 40C920 40 887 48 851 78ZM1119 418C1119 334 1070 259 991 259C944 259 916 283 895 320C873 360 872 397 872 441C872 486 873 527 901 572C921 602 949 630 1001 630C1108 630 1119 467 1119 418ZM1371 111C1341 111 1314 83 1314 53C1314 23 1341 -5 1370 -5C1402 -5 1430 22 1430 53C1430 83 1402 111 1371 111ZM1868 174L1967 174L1967 236L1868 236L1868 667L1777 667L1524 236L1524 174L1789 174L1789 0L1868 0ZM1602 236C1654 323 1795 564 1795 622L1795 236ZM2067 24C2101 -1 2138 -22 2200 -22C2331 -22 2452 119 2452 340C2452 625 2333 689 2248 689C2178 689 2137 658 2102 621C2039 552 2037 485 2037 441C2037 311 2103 197 2199 197C2261 197 2325 227 2368 281C2357 118 2280 40 2201 40C2167 40 2134 48 2098 78ZM2366 418C2366 334 2317 259 2238 259C2191 259 2163 283 2142 320C2120 360 2119 397 2119 441C2119 486 2120 527 2148 572C2168 602 2196 630 2248 630C2355 630 2366 467 2366 418ZM2693 689C2611 689 2544 622 2544 539C2544 456 2611 389 2694 389C2775 389 2844 457 2844 537C2844 621 2777 689 2693 689ZM2693 649C2754 649 2804 599 2804 537C2804 479 2754 429 2694 429C2633 429 2584 478 2584 539C2584 600 2633 649 2693 649Z" stroke="rgb(0,0,0)" stroke-opacity="1" stroke-width="8" fill="rgb(0,0,0)" fill-opacity="1"></path></g></g></g></g></svg>