<svg version="1.1" xmlns="http://www.w3.org/2000/svg" viewBox="0 0 429.0632362979086 443.4669391585612" width="858.1264725958172" height="886.9338783171224">
  <!-- svg-source:excalidraw -->
  
  <defs>
    <style class="style-fonts">
      @font-face {
        font-family: "Virgil";
        src: url("https://excalidraw.com/Virgil.woff2");
      }
      @font-face {
        font-family: "Cascadia";
        src: url("https://excalidraw.com/Cascadia.woff2");
      }
    </style>
  </defs>
  <g stroke-linecap="round" transform="translate(219.33078019194363 401.4735028036812) rotate(0 6.507609660511662 6.507609660511662)"><path d="M0 0 L13.02 0 L13.02 13.02 L0 13.02" stroke="none" stroke-width="0" fill="white"></path><path d="M0 0 C2.82 0, 5.65 0, 13.02 0 M0 0 C3.65 0, 7.29 0, 13.02 0 M13.02 0 C13.02 4.41, 13.02 8.83, 13.02 13.02 M13.02 0 C13.02 4.2, 13.02 8.4, 13.02 13.02 M13.02 13.02 C8.19 13.02, 3.36 13.02, 0 13.02 M13.02 13.02 C9.84 13.02, 6.67 13.02, 0 13.02 M0 13.02 C0 8.93, 0 4.85, 0 0 M0 13.02 C0 8.88, 0 4.74, 0 0" stroke="white" stroke-width="4" fill="none"></path></g><g stroke-linecap="round" transform="translate(306.7110498160182 98.39296960432694) rotate(31.43726459080737 56.1441854748864 4.088234135782841)"><path d="M0 0 L112.29 0 L112.29 8.18 L0 8.18" stroke="none" stroke-width="0" fill="white"></path><path d="M0 0 C31.81 0, 63.62 0, 112.29 0 M0 0 C31 0, 62.01 0, 112.29 0 M112.29 0 C112.29 2.98, 112.29 5.96, 112.29 8.18 M112.29 0 C112.29 2.36, 112.29 4.73, 112.29 8.18 M112.29 8.18 C69.66 8.18, 27.03 8.18, 0 8.18 M112.29 8.18 C73.84 8.18, 35.38 8.18, 0 8.18 M0 8.18 C0 5.86, 0 3.53, 0 0 M0 8.18 C0 5.38, 0 2.58, 0 0" stroke="white" stroke-width="4" fill="none"></path></g><g stroke-linecap="round" transform="translate(195.42312583505372 208.15619086532024) rotate(328.5358563691311 113.11272153635673 23.888108443751662)"><path d="M0 0 L226.23 0 L226.23 47.78 L0 47.78" stroke="none" stroke-width="0" fill="white"></path><path d="M0 0 C81.18 0, 162.36 0, 226.23 0 M0 0 C80.04 0, 160.07 0, 226.23 0 M226.23 0 C226.23 11.1, 226.23 22.19, 226.23 47.78 M226.23 0 C226.23 15, 226.23 30.01, 226.23 47.78 M226.23 47.78 C152.3 47.78, 78.37 47.78, 0 47.78 M226.23 47.78 C168.93 47.78, 111.63 47.78, 0 47.78 M0 47.78 C0 34.3, 0 20.82, 0 0 M0 47.78 C0 30.36, 0 12.94, 0 0" stroke="white" stroke-width="4" fill="none"></path></g><g stroke-linecap="round" transform="translate(202.27891997240476 320.61747705921516) rotate(328.5358563691311 109.84644831105015 23.52521637328846)"><path d="M0 0 L219.69 0 L219.69 47.05 L0 47.05" stroke="none" stroke-width="0" fill="white"></path><path d="M0 0 C77.39 0, 154.77 0, 219.69 0 M0 0 C67.98 0, 135.96 0, 219.69 0 M219.69 0 C219.69 16.61, 219.69 33.23, 219.69 47.05 M219.69 0 C219.69 15.5, 219.69 31, 219.69 47.05 M219.69 47.05 C140.25 47.05, 60.82 47.05, 0 47.05 M219.69 47.05 C143.89 47.05, 68.08 47.05, 0 47.05 M0 47.05 C0 30.06, 0 13.07, 0 0 M0 47.05 C0 32.67, 0 18.3, 0 0" stroke="white" stroke-width="4" fill="none"></path></g><g stroke-linecap="round" transform="translate(30.710682472499684 65.83426950435933) rotate(327.4259428654263 106.75603738252357 11.520685313899776)"><path d="M0 0 L213.51 0 L213.51 23.04 L0 23.04" stroke="none" stroke-width="0" fill="white"></path><path d="M0 0 C65.08 0, 130.16 0, 213.51 0 M0 0 C67.75 0, 135.51 0, 213.51 0 M213.51 0 C213.51 5.16, 213.51 10.31, 213.51 23.04 M213.51 0 C213.51 8.13, 213.51 16.26, 213.51 23.04 M213.51 23.04 C161.53 23.04, 109.55 23.04, 0 23.04 M213.51 23.04 C149.97 23.04, 86.42 23.04, 0 23.04 M0 23.04 C0 14.02, 0 5.01, 0 0 M0 23.04 C0 15.75, 0 8.45, 0 0" stroke="white" stroke-width="4" fill="none"></path></g><g stroke-linecap="round" transform="translate(41.853669950134645 14.173228708983515) rotate(0 186.83980863139368 119.35000784204203)"><path d="M187 0 L373.68 120 L187 238.7 L0 120" stroke="none" stroke-width="0" fill="white" fill-rule="evenodd"></path><path d="M187 0 C231.75 28.77, 276.51 57.54, 373.68 120 M187 0 C258.57 46.01, 330.15 92.02, 373.68 120 M373.68 120 C323.55 151.87, 273.43 183.74, 187 238.7 M373.68 120 C308.12 161.69, 242.55 203.38, 187 238.7 M187 238.7 C128.78 201.74, 70.56 164.79, 0 120 M187 238.7 C118.28 195.08, 49.55 151.45, 0 120 M0 120 C52.91 86.05, 105.83 52.09, 187 0 M0 120 C65.52 77.96, 131.04 35.91, 187 0" stroke="white" stroke-width="4" fill="none"></path></g><g stroke-linecap="round"><g transform="translate(239.62223362372242 400.5297065941322) rotate(0 73.99084922467682 -44.34576282840953)"><path d="M0.6 -0.74 C13.24 -7.69, 50.4 -26.84, 75.05 -41.75 C99.71 -56.65, 136.29 -82.15, 148.53 -90.18 M-0.54 1.48 C11.96 -5.78, 49.2 -28.23, 73.88 -43.34 C98.56 -58.45, 135.1 -81.58, 147.53 -89.18" stroke="gray" stroke-width="1" fill="none"></path></g></g><g stroke-linecap="round"><g transform="translate(221.2466791007937 10) rotate(0 -83.56635105969235 116.04276339693479)"><path d="M0 0 C-26.94 16.46, -132.75 80.97, -161.66 98.76 C-190.57 116.56, -170.3 104.67, -173.46 106.78 C-176.62 108.89, -179.17 109.76, -180.63 111.44 C-182.08 113.12, -184.74 113.87, -182.2 116.86 C-179.67 119.85, -170 126.17, -165.41 129.39 C-160.83 132.61, -160.36 132.98, -154.69 136.17 C-149.01 139.37, -142.75 142.56, -131.36 148.56 C-119.97 154.55, -110.93 158.23, -86.35 172.15 C-61.77 186.07, -0.96 222.1, 16.12 232.09 M0 0 C-26.94 16.46, -132.75 80.97, -161.66 98.76 C-190.57 116.56, -170.3 104.67, -173.46 106.78 C-176.62 108.89, -179.17 109.76, -180.63 111.44 C-182.08 113.12, -184.74 113.87, -182.2 116.86 C-179.67 119.85, -170 126.17, -165.41 129.39 C-160.83 132.61, -160.36 132.98, -154.69 136.17 C-149.01 139.37, -142.75 142.56, -131.36 148.56 C-119.97 154.55, -110.93 158.23, -86.35 172.15 C-61.77 186.07, -0.96 222.1, 16.12 232.09" stroke="black" stroke-width="4" fill="none"></path></g></g><g stroke-linecap="round"><g transform="translate(38.611398153934715 122.50212823520997) rotate(0 176.09315767109547 91.01124216800599)"><path d="M0 0 C-2.08 1.23, -8.01 3.2, -12.5 7.37 C-16.99 11.54, -25.1 17.52, -26.92 25 C-28.74 32.48, -29.64 44.12, -23.4 52.24 C-17.15 60.36, -6.2 63.29, 10.58 73.71 C27.35 84.13, 52.13 99.35, 77.24 114.73 C102.34 130.11, 143.25 155.17, 161.2 166.01 C179.15 176.85, 177.39 177.71, 184.92 179.79 C192.45 181.87, 194.16 184.06, 206.39 178.51 C218.62 172.95, 239.4 157.94, 258.31 146.46 C277.22 134.98, 302.21 120.07, 319.84 109.6 C337.47 99.14, 353.97 90.75, 364.07 83.65 C374.16 76.54, 381.06 73.2, 380.41 66.98 C379.76 60.76, 363.55 49.75, 360.17 46.31 M0 0 C-2.08 1.23, -8.01 3.2, -12.5 7.37 C-16.99 11.54, -25.1 17.52, -26.92 25 C-28.74 32.48, -29.64 44.12, -23.4 52.24 C-17.15 60.36, -6.2 63.29, 10.58 73.71 C27.35 84.13, 52.13 99.35, 77.24 114.73 C102.34 130.11, 143.25 155.17, 161.2 166.01 C179.15 176.85, 177.39 177.71, 184.92 179.79 C192.45 181.87, 194.16 184.06, 206.39 178.51 C218.62 172.95, 239.4 157.94, 258.31 146.46 C277.22 134.98, 302.21 120.07, 319.84 109.6 C337.47 99.14, 353.97 90.75, 364.07 83.65 C374.16 76.54, 381.06 73.2, 380.41 66.98 C379.76 60.76, 363.55 49.75, 360.17 46.31" stroke="black" stroke-width="4" fill="none"></path></g></g><g stroke-linecap="round"><g transform="translate(221.82824878472456 10.013678208344572) rotate(0 96.96144460418418 78.99829895048879)"><path d="M0 0 C25.22 14.85, 122.01 71.7, 151.31 89.12 C180.61 106.54, 169.05 100, 175.8 104.51 C182.55 109.02, 189.73 111.92, 191.8 116.19 C193.87 120.46, 196.56 123.15, 188.22 130.11 C179.88 137.08, 149.49 153.35, 141.75 158 M0 0 C25.22 14.85, 122.01 71.7, 151.31 89.12 C180.61 106.54, 169.05 100, 175.8 104.51 C182.55 109.02, 189.73 111.92, 191.8 116.19 C193.87 120.46, 196.56 123.15, 188.22 130.11 C179.88 137.08, 149.49 153.35, 141.75 158" stroke="black" stroke-width="4" fill="none"></path></g></g><g stroke-linecap="round"><g transform="translate(363.8574884445079 167.713973158734) rotate(0 -70.23360542440241 62.54829694927048)"><path d="M0 0 C0 0, 19.27 -11.69, 0 0 C-19.27 11.69, -91.76 55.23, -115.6 70.17 C-139.44 85.11, -137.46 79.62, -143.03 89.64 C-148.6 99.66, -148.03 123.52, -149.03 130.29 M0 0 C0 0, 19.27 -11.69, 0 0 C-19.27 11.69, -91.76 55.23, -115.6 70.17 C-139.44 85.11, -137.46 79.62, -143.03 89.64 C-148.6 99.66, -148.03 123.52, -149.03 130.29" stroke="black" stroke-width="4" fill="none"></path></g></g><g stroke-linecap="round"><g transform="translate(213.96786547620286 410.49284876056845) rotate(0 -101.98393273810052 -98.57713631053957)"><path d="M0 0 C-29.3 -17.49, -142.45 -80.6, -175.83 -104.94 C-209.21 -129.29, -206.15 -130.72, -200.28 -146.09 C-194.41 -161.46, -150.57 -188.64, -140.62 -197.15 M0 0 C-29.3 -17.49, -142.45 -80.6, -175.83 -104.94 C-209.21 -129.29, -206.15 -130.72, -200.28 -146.09 C-194.41 -161.46, -150.57 -188.64, -140.62 -197.15" stroke="black" stroke-width="4" fill="none"></path></g></g><g stroke-linecap="round"><g transform="translate(214.44027002387702 408.41996500095956) rotate(0 22.429738852368246 -31.169425144981687)"><path d="M0 0 C0.35 -5.12, -5.71 -20.32, 2.09 -30.71 C9.88 -41.1, 39.33 -57.07, 46.77 -62.34 M0 0 C0.35 -5.12, -5.71 -20.32, 2.09 -30.71 C9.88 -41.1, 39.33 -57.07, 46.77 -62.34" stroke="black" stroke-width="4" fill="none"></path></g></g><g stroke-linecap="round"><g transform="translate(261.5524357012746 345.82166109283025) rotate(0 71.8996593724205 -52.73046482339396)"><path d="M0 0 C-0.05 0.05, -23.9 14.66, -0.3 0.3 C23.31 -14.06, 116.8 -67.44, 141.63 -86.17 C166.47 -104.9, 147.55 -107.76, 148.73 -112.08 M0 0 C-0.05 0.05, -23.9 14.66, -0.3 0.3 C23.31 -14.06, 116.8 -67.44, 141.63 -86.17 C166.47 -104.9, 147.55 -107.76, 148.73 -112.08" stroke="black" stroke-width="4" fill="none"></path></g></g><g stroke-linecap="round"><g transform="translate(213.84391349631187 409.6126780560844) rotate(0 32.20325248834797 -1.0376334156690064)"><path d="M0 0 C0.94 1.04, 2.44 4.32, 5.67 6.26 C8.9 8.2, 14.31 11.88, 19.38 11.63 C24.45 11.38, 28.58 9, 36.08 4.77 C43.58 0.55, 59.69 -10.64, 64.41 -13.72 M0 0 C0.94 1.04, 2.44 4.32, 5.67 6.26 C8.9 8.2, 14.31 11.88, 19.38 11.63 C24.45 11.38, 28.58 9, 36.08 4.77 C43.58 0.55, 59.69 -10.64, 64.41 -13.72" stroke="black" stroke-width="4" fill="none"></path></g></g><g stroke-linecap="round"><g transform="translate(408.1142678871747 287.5098993655265) rotate(0 -47.45394338685492 38.76978250587672)"><path d="M0 0 C1.65 3.13, 12.22 12.41, 9.9 18.78 C7.58 25.15, 1.07 28.56, -13.9 38.23 C-28.87 47.89, -64.7 72.51, -79.9 76.78 C-95.11 81.05, -100.93 66.01, -105.14 63.86 M0 0 C1.65 3.13, 12.22 12.41, 9.9 18.78 C7.58 25.15, 1.07 28.56, -13.9 38.23 C-28.87 47.89, -64.7 72.51, -79.9 76.78 C-95.11 81.05, -100.93 66.01, -105.14 63.86" stroke="black" stroke-width="4" fill="none"></path></g></g><g stroke-linecap="round"><g transform="translate(315.52270144563226 364.58776022515303) rotate(0 -15.350588665618488 34.29050033481417)"><path d="M0 0 C-0.05 7.9, 2.25 37.98, -0.3 47.41 C-2.85 56.84, -10.08 53.04, -15.3 56.57 C-20.52 60.1, -28.89 66.58, -31.61 68.58 M0 0 C-0.05 7.9, 2.25 37.98, -0.3 47.41 C-2.85 56.84, -10.08 53.04, -15.3 56.57 C-20.52 60.1, -28.89 66.58, -31.61 68.58" stroke="black" stroke-width="4" fill="none"></path></g></g><g stroke-linecap="round"><g transform="translate(278.83213383617476 395.42086319117334) rotate(0 2.5418358243368857 19.02303798369394)"><path d="M0 0 C0.51 3.17, 2.19 12.68, 3.04 19.02 C3.89 25.36, 4.74 34.88, 5.08 38.05 M0 0 C0.51 3.17, 2.19 12.68, 3.04 19.02 C3.89 25.36, 4.74 34.88, 5.08 38.05" stroke="black" stroke-width="4" fill="none"></path></g></g><g stroke-linecap="round"><g transform="translate(36.00833424096709 127.92526967864433) rotate(0 98.74947878360581 57.350145676290595)"><path d="M0 0 C0.91 0.75, 3.4 3.12, 5.44 4.48 C7.48 5.84, 9 6.27, 12.23 8.14 C15.47 10.01, 21.13 13.46, 24.84 15.68 C28.54 17.9, 31.13 19.5, 34.46 21.45 C37.8 23.4, 38.77 23.87, 44.83 27.4 C50.9 30.92, 63.28 38.42, 70.84 42.58 C78.41 46.75, 83.76 48.97, 90.24 52.4 C96.71 55.82, 100.21 57.82, 109.67 63.11 C119.13 68.41, 132.34 75.54, 146.98 84.14 C161.62 92.74, 189.08 109.61, 197.5 114.7 M0 0 C0.91 0.75, 3.4 3.12, 5.44 4.48 C7.48 5.84, 9 6.27, 12.23 8.14 C15.47 10.01, 21.13 13.46, 24.84 15.68 C28.54 17.9, 31.13 19.5, 34.46 21.45 C37.8 23.4, 38.77 23.87, 44.83 27.4 C50.9 30.92, 63.28 38.42, 70.84 42.58 C78.41 46.75, 83.76 48.97, 90.24 52.4 C96.71 55.82, 100.21 57.82, 109.67 63.11 C119.13 68.41, 132.34 75.54, 146.98 84.14 C161.62 92.74, 189.08 109.61, 197.5 114.7" stroke="#d4d4ce" stroke-width="4" fill="none"></path></g></g><g stroke-linecap="round"><g transform="translate(232.86981690594075 243.66645275426345) rotate(0 -10.103192870251405 24.10578415875716)"><path d="M0 0 C-2 1.38, -9.16 4.4, -11.98 8.25 C-14.81 12.1, -15.84 19.18, -16.97 23.09 C-18.09 27.01, -18.29 29.05, -18.72 31.74 C-19.16 34.43, -19.38 37.19, -19.58 39.22 C-19.78 41.25, -19.81 42.42, -19.91 43.92 C-20.01 45.42, -20.16 47.5, -20.21 48.21 M0 0 C-2 1.38, -9.16 4.4, -11.98 8.25 C-14.81 12.1, -15.84 19.18, -16.97 23.09 C-18.09 27.01, -18.29 29.05, -18.72 31.74 C-19.16 34.43, -19.38 37.19, -19.58 39.22 C-19.78 41.25, -19.81 42.42, -19.91 43.92 C-20.01 45.42, -20.16 47.5, -20.21 48.21" stroke="#d4d4ce" stroke-width="4" fill="none"></path></g></g><g stroke-linecap="round"><g transform="translate(212.1670644331225 292.05994276563433) rotate(0 -98.94389290347681 -82.05012121953041)"><path d="M0 0 C-13.11 -8.03, -55.91 -34.25, -78.66 -48.19 C-101.42 -62.13, -119.82 -73.6, -136.52 -83.65 C-153.22 -93.7, -170.11 -103.36, -178.87 -108.51 C-187.62 -113.66, -186.2 -112.04, -189.04 -114.52 C-191.87 -117.01, -194.41 -120.01, -195.88 -123.42 C-197.35 -126.82, -198.04 -130.86, -197.86 -134.96 C-197.67 -139.06, -196.76 -144.31, -194.76 -148.01 C-192.77 -151.7, -188.87 -154.46, -185.89 -157.14 C-182.91 -159.83, -178.38 -162.94, -176.87 -164.1 M0 0 C-13.11 -8.03, -55.91 -34.25, -78.66 -48.19 C-101.42 -62.13, -119.82 -73.6, -136.52 -83.65 C-153.22 -93.7, -170.11 -103.36, -178.87 -108.51 C-187.62 -113.66, -186.2 -112.04, -189.04 -114.52 C-191.87 -117.01, -194.41 -120.01, -195.88 -123.42 C-197.35 -126.82, -198.04 -130.86, -197.86 -134.96 C-197.67 -139.06, -196.76 -144.31, -194.76 -148.01 C-192.77 -151.7, -188.87 -154.46, -185.89 -157.14 C-182.91 -159.83, -178.38 -162.94, -176.87 -164.1" stroke="#d4d4ce" stroke-width="4" fill="none"></path></g></g><g stroke-linecap="round"><g transform="translate(75.48149665780511 216.16417824098244) rotate(0 36.60602302644838 94.17829690425879)"><path d="M0 0 C-8.23 6.01, -39.04 26.06, -49.4 36.03 C-59.76 46.01, -61.83 53.54, -62.16 59.86 C-62.49 66.18, -57.68 68.27, -51.38 73.96 C-45.09 79.65, -34.72 86.9, -24.38 94 C-14.05 101.09, -1.23 109.18, 10.64 116.54 C22.52 123.9, 29.14 127.82, 46.86 138.16 C64.58 148.5, 102.21 170.23, 116.96 178.59 C131.72 186.96, 132.32 186.73, 135.39 188.36 M0 0 C-8.23 6.01, -39.04 26.06, -49.4 36.03 C-59.76 46.01, -61.83 53.54, -62.16 59.86 C-62.49 66.18, -57.68 68.27, -51.38 73.96 C-45.09 79.65, -34.72 86.9, -24.38 94 C-14.05 101.09, -1.23 109.18, 10.64 116.54 C22.52 123.9, 29.14 127.82, 46.86 138.16 C64.58 148.5, 102.21 170.23, 116.96 178.59 C131.72 186.96, 132.32 186.73, 135.39 188.36" stroke="#033043" stroke-width="4" fill="none"></path></g></g><g stroke-linecap="round"><g transform="translate(211.28945139435382 404.5053779578211) rotate(0 100.87322773800315 -83.62396738727602)"><path d="M0 0 C0.05 -3.85, -1.65 -17.06, 0.28 -23.08 C2.21 -29.1, 8.24 -32.87, 11.58 -36.14 C14.92 -39.4, 16.8 -40.23, 20.32 -42.67 C23.83 -45.11, 27.74 -47.65, 32.69 -50.77 C37.64 -53.89, 39.01 -54.83, 50.04 -61.37 C61.06 -67.92, 81.11 -79.5, 98.83 -90.06 C116.56 -100.62, 143.49 -116.87, 156.37 -124.71 C169.25 -132.54, 169.84 -132.85, 176.12 -137.06 C182.4 -141.28, 189.67 -146.17, 194.04 -150.01 C198.42 -153.86, 201.88 -157.28, 202.36 -160.15 C202.84 -163.02, 197.83 -166.07, 196.93 -167.25 M0 0 C0.05 -3.85, -1.65 -17.06, 0.28 -23.08 C2.21 -29.1, 8.24 -32.87, 11.58 -36.14 C14.92 -39.4, 16.8 -40.23, 20.32 -42.67 C23.83 -45.11, 27.74 -47.65, 32.69 -50.77 C37.64 -53.89, 39.01 -54.83, 50.04 -61.37 C61.06 -67.92, 81.11 -79.5, 98.83 -90.06 C116.56 -100.62, 143.49 -116.87, 156.37 -124.71 C169.25 -132.54, 169.84 -132.85, 176.12 -137.06 C182.4 -141.28, 189.67 -146.17, 194.04 -150.01 C198.42 -153.86, 201.88 -157.28, 202.36 -160.15 C202.84 -163.02, 197.83 -166.07, 196.93 -167.25" stroke="#033043" stroke-width="4" fill="none"></path></g></g><g stroke-linecap="round"><g transform="translate(84.03451977973236 221.4498188588077) rotate(0 149.71684331715733 40.5550417595332)"><path d="M0 0 C-0.68 -0.41, -15.33 -9.36, -4.09 -2.49 C7.15 4.39, 50.16 30.72, 67.45 41.25 C84.74 51.78, 91.59 55.81, 99.64 60.66 C107.68 65.51, 111.52 67.73, 115.72 70.35 C119.93 72.97, 121.98 74.5, 124.87 76.37 C127.75 78.25, 130.38 80.28, 133.05 81.63 C135.71 82.97, 138.15 83.72, 140.86 84.46 C143.57 85.2, 146.35 86.08, 149.32 86.09 C152.29 86.09, 153.36 86.78, 158.66 84.48 C163.96 82.19, 171.68 77.99, 181.13 72.31 C190.58 66.64, 204.1 57.48, 215.35 50.44 C226.6 43.39, 236.89 37.07, 248.63 30.06 C260.37 23.04, 275.92 14.04, 285.77 8.33 C295.63 2.63, 304.09 -2.11, 307.75 -4.2 M0 0 C-0.68 -0.41, -15.33 -9.36, -4.09 -2.49 C7.15 4.39, 50.16 30.72, 67.45 41.25 C84.74 51.78, 91.59 55.81, 99.64 60.66 C107.68 65.51, 111.52 67.73, 115.72 70.35 C119.93 72.97, 121.98 74.5, 124.87 76.37 C127.75 78.25, 130.38 80.28, 133.05 81.63 C135.71 82.97, 138.15 83.72, 140.86 84.46 C143.57 85.2, 146.35 86.08, 149.32 86.09 C152.29 86.09, 153.36 86.78, 158.66 84.48 C163.96 82.19, 171.68 77.99, 181.13 72.31 C190.58 66.64, 204.1 57.48, 215.35 50.44 C226.6 43.39, 236.89 37.07, 248.63 30.06 C260.37 23.04, 275.92 14.04, 285.77 8.33 C295.63 2.63, 304.09 -2.11, 307.75 -4.2" stroke="#033043" stroke-width="4" fill="none"></path></g></g><g stroke-linecap="round"><g transform="translate(392.15329774776365 217.15517887115857) rotate(0 8.32732494744505 7.838660931092818)"><path d="M0 0 C2.78 2.61, 13.88 13.06, 16.65 15.68 M0 0 C2.78 2.61, 13.88 13.06, 16.65 15.68" stroke="#033043" stroke-width="4" fill="none"></path></g></g><g stroke-linecap="round"><g transform="translate(301.3401704278349 352.7961179536105) rotate(0 -11.18787593927209 36.92023308706757)"><path d="M0 0 C-3.56 3, -18.23 10.2, -21.34 18 C-24.44 25.8, -19.68 37.47, -18.63 46.78 C-17.58 56.09, -15.63 69.33, -15.03 73.84 M0 0 C-3.56 3, -18.23 10.2, -21.34 18 C-24.44 25.8, -19.68 37.47, -18.63 46.78 C-17.58 56.09, -15.63 69.33, -15.03 73.84" stroke="#8f0100" stroke-width="4" fill="none"></path></g></g><g stroke-linecap="round"><g transform="translate(302.57826945188026 353.6438209991975) rotate(0 -2.3354911016594997 36.91584511398469)"><path d="M0 0 C0.83 1.01, 3.26 4.03, 4.95 6.08 C6.65 8.14, 9.17 8.28, 10.16 12.35 C11.15 16.43, 10.74 25.23, 10.89 30.53 C11.05 35.82, 11.2 39.74, 11.08 44.14 C10.96 48.54, 10.69 54.1, 10.19 56.95 C9.68 59.8, 9.15 60.14, 8.05 61.22 C6.95 62.31, 5.62 62.62, 3.59 63.46 C1.56 64.31, -1.84 65.11, -4.12 66.26 C-6.41 67.42, -8.18 69.12, -10.13 70.38 C-12.07 71.64, -14.85 73.26, -15.8 73.83 M0 0 C0.83 1.01, 3.26 4.03, 4.95 6.08 C6.65 8.14, 9.17 8.28, 10.16 12.35 C11.15 16.43, 10.74 25.23, 10.89 30.53 C11.05 35.82, 11.2 39.74, 11.08 44.14 C10.96 48.54, 10.69 54.1, 10.19 56.95 C9.68 59.8, 9.15 60.14, 8.05 61.22 C6.95 62.31, 5.62 62.62, 3.59 63.46 C1.56 64.31, -1.84 65.11, -4.12 66.26 C-6.41 67.42, -8.18 69.12, -10.13 70.38 C-12.07 71.64, -14.85 73.26, -15.8 73.83" stroke="#8f0100" stroke-width="4" fill="none"></path></g></g><g stroke-linecap="round"><g transform="translate(316.7005337428709 365.9786013054454) rotate(0 -0.8364271595282844 -1.012517087850938)"><path d="M0 0 C-0.28 -0.34, -1.39 -1.69, -1.67 -2.03 M0 0 C-0.28 -0.34, -1.39 -1.69, -1.67 -2.03" stroke="black" stroke-width="2" fill="none"></path></g></g><g stroke-linecap="round"><g transform="translate(211.31071164228706 408.24018410266945) rotate(0 1.1005620520109005 -0.5282697849643228)"><path d="M0 0 C0.37 -0.18, 1.83 -0.88, 2.2 -1.06 M0 0 C0.37 -0.18, 1.83 -0.88, 2.2 -1.06" stroke="black" stroke-width="2" fill="none"></path></g></g><g stroke-linecap="round"><g transform="translate(213.9520605671114 405.5988351778451) rotate(0 -1.4087194265748622 0.8804496416087204)"><path d="M0 0 C-0.47 0.29, -2.35 1.47, -2.82 1.76 M0 0 C-0.47 0.29, -2.35 1.47, -2.82 1.76" stroke="black" stroke-width="2" fill="none"></path></g></g><g stroke-linecap="round"><g transform="translate(213.6879256746306 400.8444071131562) rotate(0 -0.17608992832174408 3.169618709792303)"><path d="M0 0 C-0.06 1.06, -0.29 5.28, -0.35 6.34 M0 0 C-0.06 1.06, -0.29 5.28, -0.35 6.34" stroke="black" stroke-width="2" fill="none"></path></g></g><g transform="translate(212.63138610469832 409.20867870844086) rotate(0 0.00004379339316074038 0.00004379339316074038)" stroke="none"><path fill="black" d="M 1.57,-1.57 Q 1.57,-1.57 1.77,-1.27 1.98,-0.98 2.09,-0.64 2.20,-0.29 2.19,0.05 2.18,0.41 2.05,0.75 1.93,1.09 1.70,1.37 1.48,1.65 1.18,1.84 0.87,2.04 0.52,2.12 0.18,2.21 -0.17,2.18 -0.53,2.15 -0.86,2.01 -1.19,1.87 -1.46,1.63 -1.73,1.39 -1.90,1.07 -2.08,0.76 -2.15,0.41 -2.21,0.05 -2.17,-0.29 -2.12,-0.65 -1.96,-0.97 -1.80,-1.29 -1.54,-1.54 -1.29,-1.80 -0.97,-1.96 -0.65,-2.12 -0.29,-2.17 0.06,-2.21 0.41,-2.15 0.76,-2.08 1.07,-1.90 1.39,-1.73 1.63,-1.46 1.87,-1.19 2.01,-0.86 2.15,-0.53 2.18,-0.17 2.21,0.18 2.12,0.52 2.03,0.87 1.84,1.18 1.65,1.48 1.37,1.70 1.09,1.93 0.75,2.05 0.41,2.18 0.05,2.19 -0.30,2.20 -0.64,2.09 -0.98,1.98 -1.27,1.77 -1.57,1.56 -1.57,1.57 -1.57,1.57 -1.73,1.35 -1.90,1.14 -2.01,0.90 -2.12,0.66 -2.16,0.39 -2.21,0.13 -2.20,-0.13 -2.18,-0.40 -2.10,-0.65 -2.02,-0.91 -1.88,-1.14 -1.74,-1.36 -1.55,-1.55 -1.36,-1.74 -1.14,-1.88 -0.91,-2.02 -0.65,-2.10 -0.40,-2.18 -0.13,-2.20 0.13,-2.21 0.39,-2.16 0.66,-2.12 0.90,-2.01 1.14,-1.90 1.35,-1.73 1.57,-1.57 1.57,-1.57 L 1.57,-1.57 Z"></path></g><g transform="translate(212.27920624805665 407.7999592818669) rotate(0 0.00004379339316074038 0.00004379339316074038)" stroke="none"><path fill="black" d="M 1.57,-1.57 Q 1.57,-1.57 1.77,-1.27 1.98,-0.98 2.09,-0.64 2.20,-0.29 2.19,0.05 2.18,0.41 2.05,0.75 1.93,1.09 1.70,1.37 1.48,1.65 1.18,1.84 0.87,2.04 0.52,2.12 0.18,2.21 -0.17,2.18 -0.53,2.15 -0.86,2.01 -1.19,1.87 -1.46,1.63 -1.73,1.39 -1.90,1.07 -2.08,0.76 -2.15,0.41 -2.21,0.05 -2.17,-0.29 -2.12,-0.65 -1.96,-0.97 -1.80,-1.29 -1.54,-1.54 -1.29,-1.80 -0.97,-1.96 -0.65,-2.12 -0.29,-2.17 0.06,-2.21 0.41,-2.15 0.76,-2.08 1.07,-1.90 1.39,-1.73 1.63,-1.46 1.87,-1.19 2.01,-0.86 2.15,-0.53 2.18,-0.17 2.21,0.18 2.12,0.52 2.03,0.87 1.84,1.18 1.65,1.48 1.37,1.70 1.09,1.93 0.75,2.05 0.41,2.18 0.05,2.19 -0.30,2.20 -0.64,2.09 -0.98,1.98 -1.27,1.77 -1.57,1.56 -1.57,1.57 -1.57,1.57 -1.73,1.35 -1.90,1.14 -2.01,0.90 -2.12,0.66 -2.16,0.39 -2.21,0.13 -2.20,-0.13 -2.18,-0.40 -2.10,-0.65 -2.02,-0.91 -1.88,-1.14 -1.74,-1.36 -1.55,-1.55 -1.36,-1.74 -1.14,-1.88 -0.91,-2.02 -0.65,-2.10 -0.40,-2.18 -0.13,-2.20 0.13,-2.21 0.39,-2.16 0.66,-2.12 0.90,-2.01 1.14,-1.90 1.35,-1.73 1.57,-1.57 1.57,-1.57 L 1.57,-1.57 Z"></path></g><g transform="translate(213.77597063879148 406.8314646760973) rotate(0 0.00004379339316074038 0.00004379339316074038)" stroke="none"><path fill="black" d="M 1.57,-1.57 Q 1.57,-1.57 1.77,-1.27 1.98,-0.98 2.09,-0.64 2.20,-0.29 2.19,0.05 2.18,0.41 2.05,0.75 1.93,1.09 1.70,1.37 1.48,1.65 1.18,1.84 0.87,2.04 0.52,2.12 0.18,2.21 -0.17,2.18 -0.53,2.15 -0.86,2.01 -1.19,1.87 -1.46,1.63 -1.73,1.39 -1.90,1.07 -2.08,0.76 -2.15,0.41 -2.21,0.05 -2.17,-0.29 -2.12,-0.65 -1.96,-0.97 -1.80,-1.29 -1.54,-1.54 -1.29,-1.80 -0.97,-1.96 -0.65,-2.12 -0.29,-2.17 0.06,-2.21 0.41,-2.15 0.76,-2.08 1.07,-1.90 1.39,-1.73 1.63,-1.46 1.87,-1.19 2.01,-0.86 2.15,-0.53 2.18,-0.17 2.21,0.18 2.12,0.52 2.03,0.87 1.84,1.18 1.65,1.48 1.37,1.70 1.09,1.93 0.75,2.05 0.41,2.18 0.05,2.19 -0.30,2.20 -0.64,2.09 -0.98,1.98 -1.27,1.77 -1.57,1.56 -1.57,1.57 -1.57,1.57 -1.73,1.35 -1.90,1.14 -2.01,0.90 -2.12,0.66 -2.16,0.39 -2.21,0.13 -2.20,-0.13 -2.18,-0.40 -2.10,-0.65 -2.02,-0.91 -1.88,-1.14 -1.74,-1.36 -1.55,-1.55 -1.36,-1.74 -1.14,-1.88 -0.91,-2.02 -0.65,-2.10 -0.40,-2.18 -0.13,-2.20 0.13,-2.21 0.39,-2.16 0.66,-2.12 0.90,-2.01 1.14,-1.90 1.35,-1.73 1.57,-1.57 1.57,-1.57 L 1.57,-1.57 Z"></path></g><g transform="translate(215.09664510120274 296.07089976169664) rotate(0 0.00004379339316074038 0.00004379339316074038)" stroke="none"><path fill="black" d="M 1.57,-1.57 Q 1.57,-1.57 1.77,-1.27 1.98,-0.98 2.09,-0.64 2.20,-0.29 2.19,0.05 2.18,0.41 2.05,0.75 1.93,1.09 1.70,1.37 1.48,1.65 1.18,1.84 0.87,2.04 0.52,2.12 0.18,2.21 -0.17,2.18 -0.53,2.15 -0.86,2.01 -1.19,1.87 -1.46,1.63 -1.73,1.39 -1.90,1.07 -2.08,0.76 -2.15,0.41 -2.21,0.05 -2.17,-0.29 -2.12,-0.65 -1.96,-0.97 -1.80,-1.29 -1.54,-1.54 -1.29,-1.80 -0.97,-1.96 -0.65,-2.12 -0.29,-2.17 0.06,-2.21 0.41,-2.15 0.76,-2.08 1.07,-1.90 1.39,-1.73 1.63,-1.46 1.87,-1.19 2.01,-0.86 2.15,-0.53 2.18,-0.17 2.21,0.18 2.12,0.52 2.03,0.87 1.84,1.18 1.65,1.48 1.37,1.70 1.09,1.93 0.75,2.05 0.41,2.18 0.05,2.19 -0.30,2.20 -0.64,2.09 -0.98,1.98 -1.27,1.77 -1.57,1.56 -1.57,1.57 -1.57,1.57 -1.73,1.35 -1.90,1.14 -2.01,0.90 -2.12,0.66 -2.16,0.39 -2.21,0.13 -2.20,-0.13 -2.18,-0.40 -2.10,-0.65 -2.02,-0.91 -1.88,-1.14 -1.74,-1.36 -1.55,-1.55 -1.36,-1.74 -1.14,-1.88 -0.91,-2.02 -0.65,-2.10 -0.40,-2.18 -0.13,-2.20 0.13,-2.21 0.39,-2.16 0.66,-2.12 0.90,-2.01 1.14,-1.90 1.35,-1.73 1.57,-1.57 1.57,-1.57 L 1.57,-1.57 Z"></path></g><g transform="translate(214.3042404237549 295.366540048406) rotate(0 0.00004379339316074038 0.00004379339316074038)" stroke="none"><path fill="black" d="M 1.57,-1.57 Q 1.57,-1.57 1.77,-1.27 1.98,-0.98 2.09,-0.64 2.20,-0.29 2.19,0.05 2.18,0.41 2.05,0.75 1.93,1.09 1.70,1.37 1.48,1.65 1.18,1.84 0.87,2.04 0.52,2.12 0.18,2.21 -0.17,2.18 -0.53,2.15 -0.86,2.01 -1.19,1.87 -1.46,1.63 -1.73,1.39 -1.90,1.07 -2.08,0.76 -2.15,0.41 -2.21,0.05 -2.17,-0.29 -2.12,-0.65 -1.96,-0.97 -1.80,-1.29 -1.54,-1.54 -1.29,-1.80 -0.97,-1.96 -0.65,-2.12 -0.29,-2.17 0.06,-2.21 0.41,-2.15 0.76,-2.08 1.07,-1.90 1.39,-1.73 1.63,-1.46 1.87,-1.19 2.01,-0.86 2.15,-0.53 2.18,-0.17 2.21,0.18 2.12,0.52 2.03,0.87 1.84,1.18 1.65,1.48 1.37,1.70 1.09,1.93 0.75,2.05 0.41,2.18 0.05,2.19 -0.30,2.20 -0.64,2.09 -0.98,1.98 -1.27,1.77 -1.57,1.56 -1.57,1.57 -1.57,1.57 -1.73,1.35 -1.90,1.14 -2.01,0.90 -2.12,0.66 -2.16,0.39 -2.21,0.13 -2.20,-0.13 -2.18,-0.40 -2.10,-0.65 -2.02,-0.91 -1.88,-1.14 -1.74,-1.36 -1.55,-1.55 -1.36,-1.74 -1.14,-1.88 -0.91,-2.02 -0.65,-2.10 -0.40,-2.18 -0.13,-2.20 0.13,-2.21 0.39,-2.16 0.66,-2.12 0.90,-2.01 1.14,-1.90 1.35,-1.73 1.57,-1.57 1.57,-1.57 L 1.57,-1.57 Z"></path></g><g transform="translate(285.90649056228904 431.3340553381822) rotate(0 0 0.05997450567338092)" stroke="none"><path d="M0 0 L0 0.12 L0 0" stroke="none" stroke-width="0" fill="white" fill-rule="evenodd"></path><path fill="black" d="M 2.12,-0.66 Q 2.12,-0.66 2.15,-0.13 2.18,0.40 1.96,0.88 1.74,1.36 1.32,1.69 0.91,2.02 0.38,2.12 -0.13,2.21 -0.64,2.05 -1.14,1.90 -1.52,1.52 -1.90,1.14 -2.05,0.64 -2.21,0.13 -2.12,-0.38 -2.02,-0.91 -1.69,-1.32 -1.36,-1.74 -0.88,-1.96 -0.39,-2.18 0.13,-2.15 0.66,-2.11 1.11,-1.84 1.57,-1.56 1.84,-1.11 L 2.12,-0.66 Z"></path></g><g transform="translate(286.1463885849844 430.7343102814448) rotate(0 0.00004379339316074038 0.00004379339316074038)" stroke="none"><path fill="black" d="M 1.57,-1.57 Q 1.57,-1.57 1.77,-1.27 1.98,-0.98 2.09,-0.64 2.20,-0.29 2.19,0.05 2.18,0.41 2.05,0.75 1.93,1.09 1.70,1.37 1.48,1.65 1.18,1.84 0.87,2.04 0.52,2.12 0.18,2.21 -0.17,2.18 -0.53,2.15 -0.86,2.01 -1.19,1.87 -1.46,1.63 -1.73,1.39 -1.90,1.07 -2.08,0.76 -2.15,0.41 -2.21,0.05 -2.17,-0.29 -2.12,-0.65 -1.96,-0.97 -1.80,-1.29 -1.54,-1.54 -1.29,-1.80 -0.97,-1.96 -0.65,-2.12 -0.29,-2.17 0.06,-2.21 0.41,-2.15 0.76,-2.08 1.07,-1.90 1.39,-1.73 1.63,-1.46 1.87,-1.19 2.01,-0.86 2.15,-0.53 2.18,-0.17 2.21,0.18 2.12,0.52 2.03,0.87 1.84,1.18 1.65,1.48 1.37,1.70 1.09,1.93 0.75,2.05 0.41,2.18 0.05,2.19 -0.30,2.20 -0.64,2.09 -0.98,1.98 -1.27,1.77 -1.57,1.56 -1.57,1.57 -1.57,1.57 -1.73,1.35 -1.90,1.14 -2.01,0.90 -2.12,0.66 -2.16,0.39 -2.21,0.13 -2.20,-0.13 -2.18,-0.40 -2.10,-0.65 -2.02,-0.91 -1.88,-1.14 -1.74,-1.36 -1.55,-1.55 -1.36,-1.74 -1.14,-1.88 -0.91,-2.02 -0.65,-2.10 -0.40,-2.18 -0.13,-2.20 0.13,-2.21 0.39,-2.16 0.66,-2.12 0.90,-2.01 1.14,-1.90 1.35,-1.73 1.57,-1.57 1.57,-1.57 L 1.57,-1.57 Z"></path></g><g transform="translate(286.7461336417218 430.6143612700962) rotate(0 0.00004379339316074038 0.00004379339316074038)" stroke="none"><path fill="black" d="M 1.57,-1.57 Q 1.57,-1.57 1.77,-1.27 1.98,-0.98 2.09,-0.64 2.20,-0.29 2.19,0.05 2.18,0.41 2.05,0.75 1.93,1.09 1.70,1.37 1.48,1.65 1.18,1.84 0.87,2.04 0.52,2.12 0.18,2.21 -0.17,2.18 -0.53,2.15 -0.86,2.01 -1.19,1.87 -1.46,1.63 -1.73,1.39 -1.90,1.07 -2.08,0.76 -2.15,0.41 -2.21,0.05 -2.17,-0.29 -2.12,-0.65 -1.96,-0.97 -1.80,-1.29 -1.54,-1.54 -1.29,-1.80 -0.97,-1.96 -0.65,-2.12 -0.29,-2.17 0.06,-2.21 0.41,-2.15 0.76,-2.08 1.07,-1.90 1.39,-1.73 1.63,-1.46 1.87,-1.19 2.01,-0.86 2.15,-0.53 2.18,-0.17 2.21,0.18 2.12,0.52 2.03,0.87 1.84,1.18 1.65,1.48 1.37,1.70 1.09,1.93 0.75,2.05 0.41,2.18 0.05,2.19 -0.30,2.20 -0.64,2.09 -0.98,1.98 -1.27,1.77 -1.57,1.56 -1.57,1.57 -1.57,1.57 -1.73,1.35 -1.90,1.14 -2.01,0.90 -2.12,0.66 -2.16,0.39 -2.21,0.13 -2.20,-0.13 -2.18,-0.40 -2.10,-0.65 -2.02,-0.91 -1.88,-1.14 -1.74,-1.36 -1.55,-1.55 -1.36,-1.74 -1.14,-1.88 -0.91,-2.02 -0.65,-2.10 -0.40,-2.18 -0.13,-2.20 0.13,-2.21 0.39,-2.16 0.66,-2.12 0.90,-2.01 1.14,-1.90 1.35,-1.73 1.57,-1.57 1.57,-1.57 L 1.57,-1.57 Z"></path></g><g stroke-linecap="round"><g transform="translate(234.08673550095955 380.4129014290884) rotate(0 74.63110282068374 -45.15464305442492)"><path d="M1.2 0.68 C13.71 -6.82, 51.16 -29.26, 75.78 -44.2 C100.4 -59.15, 136.82 -81.33, 148.89 -88.96 M0.37 0 C12.63 -7.45, 50.01 -27.9, 74.63 -43.07 C99.25 -58.23, 135.86 -83.32, 148.1 -90.99" stroke="gray" stroke-width="1" fill="none"></path></g></g><g stroke-linecap="round" transform="translate(292.0544372331551 355.10687975510336) rotate(332.7004277886746 8.012253295963092 12.678389148742099)"><path d="M0 0 L16.02 0 L16.02 25.36 L0 25.36" stroke="none" stroke-width="0" fill="#8f0100"></path><path d="M0 0 C3.3 0, 6.6 0, 16.02 0 M0 0 C5.63 0, 11.27 0, 16.02 0 M16.02 0 C16.02 8.19, 16.02 16.37, 16.02 25.36 M16.02 0 C16.02 6.27, 16.02 12.54, 16.02 25.36 M16.02 25.36 C11.77 25.36, 7.51 25.36, 0 25.36 M16.02 25.36 C11.67 25.36, 7.32 25.36, 0 25.36 M0 25.36 C0 19.51, 0 13.66, 0 0 M0 25.36 C0 18.26, 0 11.17, 0 0" stroke="#8f0100" stroke-width="2" fill="none"></path></g><g stroke-linecap="round" transform="translate(295.7579654022611 362.77390073179413) rotate(359.534190917244 8.012253295963092 13.29016618139849)"><path d="M0 0 L16.02 0 L16.02 26.58 L0 26.58" stroke="none" stroke-width="0" fill="#8f0100"></path><path d="M0 0 C5.53 0, 11.05 0, 16.02 0 M0 0 C4.2 0, 8.4 0, 16.02 0 M16.02 0 C16.02 9.47, 16.02 18.94, 16.02 26.58 M16.02 0 C16.02 6.1, 16.02 12.19, 16.02 26.58 M16.02 26.58 C11.41 26.58, 6.8 26.58, 0 26.58 M16.02 26.58 C10.68 26.58, 5.34 26.58, 0 26.58 M0 26.58 C0 19.06, 0 11.55, 0 0 M0 26.58 C0 19.81, 0 13.03, 0 0" stroke="#8f0100" stroke-width="2" fill="none"></path></g><g stroke-linecap="round" transform="translate(296.0123226497526 388.4639827283718) rotate(357.79740183824237 8.012253295963092 13.29016618139849)"><path d="M0 0 L16.02 0 L16.02 26.58 L0 26.58" stroke="none" stroke-width="0" fill="#8f0100"></path><path d="M0 0 C4.02 0, 8.03 0, 16.02 0 M0 0 C6.33 0, 12.66 0, 16.02 0 M16.02 0 C16.02 7.49, 16.02 14.99, 16.02 26.58 M16.02 0 C16.02 8.12, 16.02 16.24, 16.02 26.58 M16.02 26.58 C10.44 26.58, 4.86 26.58, 0 26.58 M16.02 26.58 C12.41 26.58, 8.79 26.58, 0 26.58 M0 26.58 C0 20.87, 0 15.16, 0 0 M0 26.58 C0 17.47, 0 8.36, 0 0" stroke="#8f0100" stroke-width="2" fill="none"></path></g><g stroke-linecap="round" transform="translate(287.3641762350653 392.533698688223) rotate(353.0080746533372 8.012253295963092 13.29016618139849)"><path d="M0 0 L16.02 0 L16.02 26.58 L0 26.58" stroke="none" stroke-width="0" fill="#8f0100"></path><path d="M0 0 C4.35 0, 8.7 0, 16.02 0 M0 0 C3.22 0, 6.45 0, 16.02 0 M16.02 0 C16.02 9.49, 16.02 18.97, 16.02 26.58 M16.02 0 C16.02 5.7, 16.02 11.39, 16.02 26.58 M16.02 26.58 C10.55 26.58, 5.07 26.58, 0 26.58 M16.02 26.58 C10.15 26.58, 4.27 26.58, 0 26.58 M0 26.58 C0 18.5, 0 10.42, 0 0 M0 26.58 C0 17.74, 0 8.91, 0 0" stroke="#8f0100" stroke-width="2" fill="none"></path></g><g stroke-linecap="round" transform="translate(284.0575320176813 389.99012621331167) rotate(350.9806775686201 8.012253295963092 13.29016618139849)"><path d="M0 0 L16.02 0 L16.02 26.58 L0 26.58" stroke="none" stroke-width="0" fill="#8f0100"></path><path d="M0 0 C3.6 0, 7.2 0, 16.02 0 M0 0 C3.83 0, 7.66 0, 16.02 0 M16.02 0 C16.02 8.37, 16.02 16.73, 16.02 26.58 M16.02 0 C16.02 8.43, 16.02 16.86, 16.02 26.58 M16.02 26.58 C10.56 26.58, 5.09 26.58, 0 26.58 M16.02 26.58 C12.5 26.58, 8.98 26.58, 0 26.58 M0 26.58 C0 16.26, 0 5.94, 0 0 M0 26.58 C0 18.23, 0 9.88, 0 0" stroke="#8f0100" stroke-width="2" fill="none"></path></g><g stroke-linecap="round" transform="translate(281.29205836588517 369.51733772362786) rotate(359.534190917244 8.377567168249698 13.29016618139849)"><path d="M0 0 L16.76 0 L16.76 26.58 L0 26.58" stroke="none" stroke-width="0" fill="#8f0100"></path><path d="M0 0 C4.04 0, 8.08 0, 16.76 0 M0 0 C4.49 0, 8.99 0, 16.76 0 M16.76 0 C16.76 6.31, 16.76 12.62, 16.76 26.58 M16.76 0 C16.76 7.02, 16.76 14.04, 16.76 26.58 M16.76 26.58 C13.35 26.58, 9.94 26.58, 0 26.58 M16.76 26.58 C12.24 26.58, 7.73 26.58, 0 26.58 M0 26.58 C0 18.92, 0 11.27, 0 0 M0 26.58 C0 19.71, 0 12.85, 0 0" stroke="#8f0100" stroke-width="2" fill="none"></path></g><g stroke-linecap="round" transform="translate(284.48114095345954 362.8408729646817) rotate(359.534190917244 6.488505106818593 4.737223798377272)"><path d="M0 0 L12.98 0 L12.98 9.47 L0 9.47" stroke="none" stroke-width="0" fill="#8f0100"></path><path d="M0 0 C4.08 0, 8.16 0, 12.98 0 M0 0 C4.08 0, 8.17 0, 12.98 0 M12.98 0 C12.98 3.51, 12.98 7.02, 12.98 9.47 M12.98 0 C12.98 3.16, 12.98 6.33, 12.98 9.47 M12.98 9.47 C10.34 9.47, 7.7 9.47, 0 9.47 M12.98 9.47 C8.64 9.47, 4.31 9.47, 0 9.47 M0 9.47 C0 6.11, 0 2.74, 0 0 M0 9.47 C0 5.73, 0 1.99, 0 0" stroke="#8f0100" stroke-width="2" fill="none"></path></g><g stroke-linecap="round" transform="translate(285.7882460471974 418.0636800926568) rotate(359.534190917244 4.311787831810761 3.0174714009826857)"><path d="M0 0 L8.62 0 L8.62 6.03 L0 6.03" stroke="none" stroke-width="0" fill="#8f0100"></path><path d="M0 0 C1.91 0, 3.83 0, 8.62 0 M0 0 C1.74 0, 3.48 0, 8.62 0 M8.62 0 C8.62 1.29, 8.62 2.58, 8.62 6.03 M8.62 0 C8.62 1.53, 8.62 3.05, 8.62 6.03 M8.62 6.03 C5.24 6.03, 1.85 6.03, 0 6.03 M8.62 6.03 C5.84 6.03, 3.06 6.03, 0 6.03 M0 6.03 C0 4.05, 0 2.07, 0 0 M0 6.03 C0 4.74, 0 3.45, 0 0" stroke="#8f0100" stroke-width="2" fill="none"></path></g><g stroke-linecap="round" transform="translate(55.74012944949027 229.7595543742973) rotate(31.95417329031506 31.536418794647034 27.177726766118212)"><path d="M0 0 L63.07 0 L63.07 54.36 L0 54.36" stroke="none" stroke-width="0" fill="#033043"></path><path d="M0 0 C17.07 0, 34.13 0, 63.07 0 M0 0 C19.3 0, 38.59 0, 63.07 0 M63.07 0 C63.07 19.53, 63.07 39.05, 63.07 54.36 M63.07 0 C63.07 11.96, 63.07 23.92, 63.07 54.36 M63.07 54.36 C42.6 54.36, 22.13 54.36, 0 54.36 M63.07 54.36 C47.33 54.36, 31.59 54.36, 0 54.36 M0 54.36 C0 38.7, 0 23.04, 0 0 M0 54.36 C0 36.72, 0 19.08, 0 0" stroke="#033043" stroke-width="2" fill="none"></path></g><g stroke-linecap="round" transform="translate(106.66430050001327 260.4292090745348) rotate(31.95417329031506 31.536418794647034 27.177726766118212)"><path d="M0 0 L63.07 0 L63.07 54.36 L0 54.36" stroke="none" stroke-width="0" fill="#033043"></path><path d="M0 0 C22.08 0, 44.17 0, 63.07 0 M0 0 C17.89 0, 35.78 0, 63.07 0 M63.07 0 C63.07 15.84, 63.07 31.68, 63.07 54.36 M63.07 0 C63.07 18.89, 63.07 37.79, 63.07 54.36 M63.07 54.36 C44.52 54.36, 25.96 54.36, 0 54.36 M63.07 54.36 C40.64 54.36, 18.21 54.36, 0 54.36 M0 54.36 C0 36.46, 0 18.56, 0 0 M0 54.36 C0 37.48, 0 20.61, 0 0" stroke="#033043" stroke-width="2" fill="none"></path></g><g stroke-linecap="round" transform="translate(143.97871536776802 282.9998795311294) rotate(31.95417329031506 31.536418794647034 27.5)"><path d="M0 0 L63.07 0 L63.07 55 L0 55" stroke="none" stroke-width="0" fill="#033043"></path><path d="M0 0 C22.28 0, 44.55 0, 63.07 0 M0 0 C22.21 0, 44.42 0, 63.07 0 M63.07 0 C63.07 21.43, 63.07 42.85, 63.07 55 M63.07 0 C63.07 17.69, 63.07 35.39, 63.07 55 M63.07 55 C47.69 55, 32.31 55, 0 55 M63.07 55 C41.74 55, 20.4 55, 0 55 M0 55 C0 43, 0 30.99, 0 0 M0 55 C0 34.47, 0 13.94, 0 0" stroke="#033043" stroke-width="2" fill="none"></path></g><g stroke-linecap="round" transform="translate(136.86081297692726 320.49631593482445) rotate(31.95417329031506 31.536418794647034 27.177726766118212)"><path d="M0 0 L63.07 0 L63.07 54.36 L0 54.36" stroke="none" stroke-width="0" fill="#033043"></path><path d="M0 0 C13.85 0, 27.7 0, 63.07 0 M0 0 C19.37 0, 38.75 0, 63.07 0 M63.07 0 C63.07 10.91, 63.07 21.82, 63.07 54.36 M63.07 0 C63.07 12.24, 63.07 24.49, 63.07 54.36 M63.07 54.36 C40.55 54.36, 18.02 54.36, 0 54.36 M63.07 54.36 C40.06 54.36, 17.06 54.36, 0 54.36 M0 54.36 C0 42.08, 0 29.81, 0 0 M0 54.36 C0 33.14, 0 11.92, 0 0" stroke="#033043" stroke-width="2" fill="none"></path></g><g stroke-linecap="round" transform="translate(105.39014974843303 302.1121408048566) rotate(31.95417329031506 31.536418794647034 27.177726766118212)"><path d="M0 0 L63.07 0 L63.07 54.36 L0 54.36" stroke="none" stroke-width="0" fill="#033043"></path><path d="M0 0 C17.77 0, 35.53 0, 63.07 0 M0 0 C14.51 0, 29.02 0, 63.07 0 M63.07 0 C63.07 14.38, 63.07 28.76, 63.07 54.36 M63.07 0 C63.07 17.05, 63.07 34.09, 63.07 54.36 M63.07 54.36 C45.82 54.36, 28.57 54.36, 0 54.36 M63.07 54.36 C45.1 54.36, 27.13 54.36, 0 54.36 M0 54.36 C0 41.52, 0 28.68, 0 0 M0 54.36 C0 34.36, 0 14.36, 0 0" stroke="#033043" stroke-width="2" fill="none"></path></g><g stroke-linecap="round" transform="translate(60.61285190712988 275.42282162615993) rotate(31.95417329031506 31.536418794647034 27.177726766118212)"><path d="M0 0 L63.07 0 L63.07 54.36 L0 54.36" stroke="none" stroke-width="0" fill="#033043"></path><path d="M0 0 C16.78 0, 33.56 0, 63.07 0 M0 0 C19.59 0, 39.18 0, 63.07 0 M63.07 0 C63.07 14.35, 63.07 28.7, 63.07 54.36 M63.07 0 C63.07 16.61, 63.07 33.23, 63.07 54.36 M63.07 54.36 C38.51 54.36, 13.95 54.36, 0 54.36 M63.07 54.36 C50.28 54.36, 37.49 54.36, 0 54.36 M0 54.36 C0 38.66, 0 22.96, 0 0 M0 54.36 C0 43.1, 0 31.84, 0 0" stroke="#033043" stroke-width="2" fill="none"></path></g><g stroke-linecap="round" transform="translate(33.855686123910345 257.334842963548) rotate(31.95417329031506 31.536418794647034 27.177726766118212)"><path d="M0 0 L63.07 0 L63.07 54.36 L0 54.36" stroke="none" stroke-width="0" fill="#033043"></path><path d="M0 0 C13.07 0, 26.13 0, 63.07 0 M0 0 C23.98 0, 47.96 0, 63.07 0 M63.07 0 C63.07 10.98, 63.07 21.96, 63.07 54.36 M63.07 0 C63.07 19.24, 63.07 38.48, 63.07 54.36 M63.07 54.36 C47.37 54.36, 31.68 54.36, 0 54.36 M63.07 54.36 C45.92 54.36, 28.77 54.36, 0 54.36 M0 54.36 C0 38.74, 0 23.13, 0 0 M0 54.36 C0 39.78, 0 25.21, 0 0" stroke="#033043" stroke-width="2" fill="none"></path></g><g stroke-linecap="round" transform="translate(37.31409530677411 233.85406482725557) rotate(52.317007232328066 31.536418794647034 27.177726766118212)"><path d="M0 0 L63.07 0 L63.07 54.36 L0 54.36" stroke="none" stroke-width="0" fill="#033043"></path><path d="M0 0 C24.38 0, 48.75 0, 63.07 0 M0 0 C17.81 0, 35.62 0, 63.07 0 M63.07 0 C63.07 15.91, 63.07 31.83, 63.07 54.36 M63.07 0 C63.07 12.95, 63.07 25.9, 63.07 54.36 M63.07 54.36 C50.17 54.36, 37.27 54.36, 0 54.36 M63.07 54.36 C47.08 54.36, 31.08 54.36, 0 54.36 M0 54.36 C0 42.19, 0 30.03, 0 0 M0 54.36 C0 38.05, 0 21.75, 0 0" stroke="#033043" stroke-width="2" fill="none"></path></g><g stroke-linecap="round" transform="translate(14.968434320755478 275.8050774467447) rotate(51.07245640719514 7.866647182809174 5.096999381768001)"><path d="M0 0 L15.73 0 L15.73 10.19 L0 10.19" stroke="none" stroke-width="0" fill="#033043"></path><path d="M0 0 C5.71 0, 11.41 0, 15.73 0 M0 0 C4.22 0, 8.45 0, 15.73 0 M15.73 0 C15.73 2.36, 15.73 4.72, 15.73 10.19 M15.73 0 C15.73 2.61, 15.73 5.21, 15.73 10.19 M15.73 10.19 C9.76 10.19, 3.78 10.19, 0 10.19 M15.73 10.19 C9.65 10.19, 3.56 10.19, 0 10.19 M0 10.19 C0 6.46, 0 2.72, 0 0 M0 10.19 C0 6.58, 0 2.97, 0 0" stroke="#033043" stroke-width="2" fill="none"></path></g><g stroke-linecap="round" transform="translate(19.257401114922686 258.71469526217516) rotate(31.95417329031506 12.991398177511655 12.571015757102941)"><path d="M0 0 L25.98 0 L25.98 25.14 L0 25.14" stroke="none" stroke-width="0" fill="#033043"></path><path d="M0 0 C6.58 0, 13.16 0, 25.98 0 M0 0 C7.66 0, 15.32 0, 25.98 0 M25.98 0 C25.98 6.18, 25.98 12.35, 25.98 25.14 M25.98 0 C25.98 5.04, 25.98 10.09, 25.98 25.14 M25.98 25.14 C17.18 25.14, 8.37 25.14, 0 25.14 M25.98 25.14 C18.7 25.14, 11.42 25.14, 0 25.14 M0 25.14 C0 18.51, 0 11.88, 0 0 M0 25.14 C0 17.48, 0 9.81, 0 0" stroke="#033043" stroke-width="2" fill="none"></path></g><g stroke-linecap="round" transform="translate(19.968151457573185 254.01862683878426) rotate(31.95417329031506 4.97425357913562 10.79570694299764)"><path d="M0 0 L9.95 0 L9.95 21.59 L0 21.59" stroke="none" stroke-width="0" fill="#033043"></path><path d="M0 0 C2.35 0, 4.7 0, 9.95 0 M0 0 C3.3 0, 6.59 0, 9.95 0 M9.95 0 C9.95 4.6, 9.95 9.2, 9.95 21.59 M9.95 0 C9.95 6.72, 9.95 13.44, 9.95 21.59 M9.95 21.59 C6.89 21.59, 3.83 21.59, 0 21.59 M9.95 21.59 C6.04 21.59, 2.12 21.59, 0 21.59 M0 21.59 C0 14.36, 0 7.13, 0 0 M0 21.59 C0 14.81, 0 8.03, 0 0" stroke="#033043" stroke-width="2" fill="none"></path></g><g stroke-linecap="round" transform="translate(360.2327984897129 228.17536481362913) rotate(328.90194797338745 21.32373088517943 18.600647362560267)"><path d="M0 0 L42.65 0 L42.65 37.2 L0 37.2" stroke="none" stroke-width="0" fill="#033043"></path><path d="M0 0 C13.43 0, 26.87 0, 42.65 0 M0 0 C14.71 0, 29.42 0, 42.65 0 M42.65 0 C42.65 7.58, 42.65 15.15, 42.65 37.2 M42.65 0 C42.65 12, 42.65 23.99, 42.65 37.2 M42.65 37.2 C29.12 37.2, 15.59 37.2, 0 37.2 M42.65 37.2 C25.68 37.2, 8.72 37.2, 0 37.2 M0 37.2 C0 29.13, 0 21.05, 0 0 M0 37.2 C0 24.81, 0 12.42, 0 0" stroke="#033043" stroke-width="2" fill="none"></path></g><g stroke-linecap="round" transform="translate(328.7398718185468 246.70373290195857) rotate(328.90194797338745 21.32373088517943 19.408219919489966)"><path d="M0 0 L42.65 0 L42.65 38.82 L0 38.82" stroke="none" stroke-width="0" fill="#033043"></path><path d="M0 0 C13.39 0, 26.78 0, 42.65 0 M0 0 C16.67 0, 33.35 0, 42.65 0 M42.65 0 C42.65 13.04, 42.65 26.09, 42.65 38.82 M42.65 0 C42.65 10.95, 42.65 21.9, 42.65 38.82 M42.65 38.82 C29.82 38.82, 16.99 38.82, 0 38.82 M42.65 38.82 C33.62 38.82, 24.6 38.82, 0 38.82 M0 38.82 C0 30.03, 0 21.24, 0 0 M0 38.82 C0 28.61, 0 18.4, 0 0" stroke="#033043" stroke-width="2" fill="none"></path></g><g stroke-linecap="round" transform="translate(295.9624976022351 265.79042063629277) rotate(328.90194797338745 21.32373088517943 19.408219919489966)"><path d="M0 0 L42.65 0 L42.65 38.82 L0 38.82" stroke="none" stroke-width="0" fill="#033043"></path><path d="M0 0 C12.54 0, 25.08 0, 42.65 0 M0 0 C16.5 0, 33.01 0, 42.65 0 M42.65 0 C42.65 10.88, 42.65 21.76, 42.65 38.82 M42.65 0 C42.65 10.43, 42.65 20.85, 42.65 38.82 M42.65 38.82 C28.79 38.82, 14.94 38.82, 0 38.82 M42.65 38.82 C33.13 38.82, 23.62 38.82, 0 38.82 M0 38.82 C0 25.39, 0 11.96, 0 0 M0 38.82 C0 29.75, 0 20.68, 0 0" stroke="#033043" stroke-width="2" fill="none"></path></g><g stroke-linecap="round" transform="translate(259.7561415907712 288.8669991930492) rotate(328.90194797338745 21.32373088517943 19.408219919489966)"><path d="M0 0 L42.65 0 L42.65 38.82 L0 38.82" stroke="none" stroke-width="0" fill="#033043"></path><path d="M0 0 C15.76 0, 31.51 0, 42.65 0 M0 0 C8.91 0, 17.81 0, 42.65 0 M42.65 0 C42.65 15, 42.65 30, 42.65 38.82 M42.65 0 C42.65 8.52, 42.65 17.05, 42.65 38.82 M42.65 38.82 C32.94 38.82, 23.22 38.82, 0 38.82 M42.65 38.82 C26.82 38.82, 10.99 38.82, 0 38.82 M0 38.82 C0 23.47, 0 8.13, 0 0 M0 38.82 C0 29.7, 0 20.58, 0 0" stroke="#033043" stroke-width="2" fill="none"></path></g><g stroke-linecap="round" transform="translate(224.47815368216288 309.55634548531816) rotate(328.90194797338745 21.32373088517943 19.408219919489966)"><path d="M0 0 L42.65 0 L42.65 38.82 L0 38.82" stroke="none" stroke-width="0" fill="#033043"></path><path d="M0 0 C10.48 0, 20.96 0, 42.65 0 M0 0 C16.93 0, 33.86 0, 42.65 0 M42.65 0 C42.65 9.32, 42.65 18.64, 42.65 38.82 M42.65 0 C42.65 8.05, 42.65 16.1, 42.65 38.82 M42.65 38.82 C29.81 38.82, 16.98 38.82, 0 38.82 M42.65 38.82 C31.74 38.82, 20.83 38.82, 0 38.82 M0 38.82 C0 26.21, 0 13.61, 0 0 M0 38.82 C0 27.27, 0 15.72, 0 0" stroke="#033043" stroke-width="2" fill="none"></path></g><g stroke-linecap="round" transform="translate(201.26895111070917 324.01236308696025) rotate(328.90194797338745 21.32373088517943 19.408219919490875)"><path d="M0 0 L42.65 0 L42.65 38.82 L0 38.82" stroke="none" stroke-width="0" fill="#033043"></path><path d="M0 0 C8.89 0, 17.77 0, 42.65 0 M0 0 C15.19 0, 30.38 0, 42.65 0 M42.65 0 C42.65 15, 42.65 30.01, 42.65 38.82 M42.65 0 C42.65 9.29, 42.65 18.58, 42.65 38.82 M42.65 38.82 C31.68 38.82, 20.71 38.82, 0 38.82 M42.65 38.82 C28.52 38.82, 14.39 38.82, 0 38.82 M0 38.82 C0 24.33, 0 9.85, 0 0 M0 38.82 C0 29.84, 0 20.87, 0 0" stroke="#033043" stroke-width="2" fill="none"></path></g><g stroke-linecap="round" transform="translate(198.88171884621443 305.57762504449056) rotate(10.804394597546391 21.32373088517943 19.408219919489966)"><path d="M0 0 L42.65 0 L42.65 38.82 L0 38.82" stroke="none" stroke-width="0" fill="#033043"></path><path d="M0 0 C14.13 0, 28.26 0, 42.65 0 M0 0 C15.91 0, 31.82 0, 42.65 0 M42.65 0 C42.65 8.97, 42.65 17.94, 42.65 38.82 M42.65 0 C42.65 10.04, 42.65 20.08, 42.65 38.82 M42.65 38.82 C33.44 38.82, 24.24 38.82, 0 38.82 M42.65 38.82 C29.42 38.82, 16.18 38.82, 0 38.82 M0 38.82 C0 25.6, 0 12.38, 0 0 M0 38.82 C0 27.32, 0 15.82, 0 0" stroke="#033043" stroke-width="2" fill="none"></path></g><g stroke-linecap="round" transform="translate(174.74414817190882 351.59815814330614) rotate(293.9272733800382 21.32373088517943 19.408219919489966)"><path d="M0 0 L42.65 0 L42.65 38.82 L0 38.82" stroke="none" stroke-width="0" fill="#033043"></path><path d="M0 0 C11.38 0, 22.77 0, 42.65 0 M0 0 C13.62 0, 27.25 0, 42.65 0 M42.65 0 C42.65 15.45, 42.65 30.89, 42.65 38.82 M42.65 0 C42.65 14.29, 42.65 28.58, 42.65 38.82 M42.65 38.82 C33.87 38.82, 25.09 38.82, 0 38.82 M42.65 38.82 C33.62 38.82, 24.59 38.82, 0 38.82 M0 38.82 C0 28.05, 0 17.28, 0 0 M0 38.82 C0 28.54, 0 18.26, 0 0" stroke="#033043" stroke-width="2" fill="none"></path></g><g stroke-linecap="round" transform="translate(201.8384259360846 394.6729828703792) rotate(274.6354634269356 5.635118384683665 1.7972060136853543)"><path d="M0 0 L11.27 0 L11.27 3.59 L0 3.59" stroke="none" stroke-width="0" fill="#033043"></path><path d="M0 0 C3.66 0, 7.32 0, 11.27 0 M0 0 C2.61 0, 5.21 0, 11.27 0 M11.27 0 C11.27 0.94, 11.27 1.88, 11.27 3.59 M11.27 0 C11.27 0.92, 11.27 1.84, 11.27 3.59 M11.27 3.59 C7.57 3.59, 3.87 3.59, 0 3.59 M11.27 3.59 C7.97 3.59, 4.67 3.59, 0 3.59 M0 3.59 C0 2.79, 0 1.99, 0 0 M0 3.59 C0 2.81, 0 2.02, 0 0" stroke="#033043" stroke-width="2" fill="none"></path></g><g stroke-linecap="round" transform="translate(200.3441607298846 392.2655537845967) rotate(293.9272733800382 2.0896710325077947 5.162909041039711)"><path d="M0 0 L4.18 0 L4.18 10.33 L0 10.33" stroke="none" stroke-width="0" fill="#033043"></path><path d="M0 0 C1.31 0, 2.62 0, 4.18 0 M0 0 C1.59 0, 3.18 0, 4.18 0 M4.18 0 C4.18 3.39, 4.18 6.78, 4.18 10.33 M4.18 0 C4.18 3.94, 4.18 7.87, 4.18 10.33 M4.18 10.33 C3.22 10.33, 2.26 10.33, 0 10.33 M4.18 10.33 C3.25 10.33, 2.33 10.33, 0 10.33 M0 10.33 C0 6.99, 0 3.64, 0 0 M0 10.33 C0 8.06, 0 5.8, 0 0" stroke="#033043" stroke-width="2" fill="none"></path></g><g stroke-linecap="round" transform="translate(213.34131416990022 361.2016285074769) rotate(293.9272733800382 2.0896710325077947 5.162909041039711)"><path d="M0 0 L4.18 0 L4.18 10.33 L0 10.33" stroke="none" stroke-width="0" fill="#033043"></path><path d="M0 0 C0.87 0, 1.75 0, 4.18 0 M0 0 C1.39 0, 2.78 0, 4.18 0 M4.18 0 C4.18 2.57, 4.18 5.15, 4.18 10.33 M4.18 0 C4.18 3.43, 4.18 6.85, 4.18 10.33 M4.18 10.33 C2.61 10.33, 1.05 10.33, 0 10.33 M4.18 10.33 C3.3 10.33, 2.41 10.33, 0 10.33 M0 10.33 C0 7.39, 0 4.45, 0 0 M0 10.33 C0 7.5, 0 4.67, 0 0" stroke="#033043" stroke-width="2" fill="none"></path></g><g stroke-linecap="round" transform="translate(393.37688822288874 218.4898638223549) rotate(328.90194797338745 3.8080338925647084 12.509048990021256)"><path d="M0 0 L7.62 0 L7.62 25.02 L0 25.02" stroke="none" stroke-width="0" fill="#033043"></path><path d="M0 0 C1.55 0, 3.09 0, 7.62 0 M0 0 C2.03 0, 4.06 0, 7.62 0 M7.62 0 C7.62 8.54, 7.62 17.09, 7.62 25.02 M7.62 0 C7.62 6.87, 7.62 13.74, 7.62 25.02 M7.62 25.02 C6.04 25.02, 4.47 25.02, 0 25.02 M7.62 25.02 C4.92 25.02, 2.22 25.02, 0 25.02 M0 25.02 C0 19.78, 0 14.54, 0 0 M0 25.02 C0 19.59, 0 14.16, 0 0" stroke="#033043" stroke-width="2" fill="none"></path></g><g stroke-linecap="round" transform="translate(399.91113979073816 223.34301431851782) rotate(328.90194797338745 3.3337784519471825 13.471539938535898)"><path d="M0 0 L6.67 0 L6.67 26.94 L0 26.94" stroke="none" stroke-width="0" fill="#033043"></path><path d="M0 0 C1.48 0, 2.97 0, 6.67 0 M0 0 C2.38 0, 4.76 0, 6.67 0 M6.67 0 C6.67 9.5, 6.67 19, 6.67 26.94 M6.67 0 C6.67 5.87, 6.67 11.75, 6.67 26.94 M6.67 26.94 C4.96 26.94, 3.25 26.94, 0 26.94 M6.67 26.94 C4.05 26.94, 1.43 26.94, 0 26.94 M0 26.94 C0 20.43, 0 13.92, 0 0 M0 26.94 C0 17.63, 0 8.32, 0 0" stroke="#033043" stroke-width="2" fill="none"></path></g><g stroke-linecap="round" transform="translate(407.32738632223845 231.44277811191205) rotate(328.90194797338745 0.492418303831073 3.380297358859025)"><path d="M0 0 L0.98 0 L0.98 6.76 L0 6.76" stroke="none" stroke-width="0" fill="#033043"></path><path d="M0 0 C0.22 0, 0.44 0, 0.98 0 M0 0 C0.38 0, 0.75 0, 0.98 0 M0.98 0 C0.98 2.47, 0.98 4.94, 0.98 6.76 M0.98 0 C0.98 1.91, 0.98 3.83, 0.98 6.76 M0.98 6.76 C0.73 6.76, 0.47 6.76, 0 6.76 M0.98 6.76 C0.75 6.76, 0.51 6.76, 0 6.76 M0 6.76 C0 4.63, 0 2.5, 0 0 M0 6.76 C0 4.98, 0 3.2, 0 0" stroke="#033043" stroke-width="2" fill="none"></path></g><g stroke-linecap="round" transform="translate(25.559068125608974 143.6274004132265) rotate(29.366372987463514 24.450561632346762 21.839212370596215)"><path d="M0 0 L48.9 0 L48.9 43.68 L0 43.68" stroke="none" stroke-width="0" fill="#d4d4ce"></path><path d="M0 0 C13.83 0, 27.66 0, 48.9 0 M0 0 C13.09 0, 26.19 0, 48.9 0 M48.9 0 C48.9 12.56, 48.9 25.11, 48.9 43.68 M48.9 0 C48.9 11.9, 48.9 23.8, 48.9 43.68 M48.9 43.68 C36.43 43.68, 23.96 43.68, 0 43.68 M48.9 43.68 C35.68 43.68, 22.46 43.68, 0 43.68 M0 43.68 C0 32.6, 0 21.52, 0 0 M0 43.68 C0 30.81, 0 17.94, 0 0" stroke="#d4d4ce" stroke-width="2" fill="none"></path></g><g stroke-linecap="round" transform="translate(66.87416550095986 165.74007553135561) rotate(29.53328520694519 21.277236664051998 22.271737325258073)"><path d="M0 0 L42.55 0 L42.55 44.54 L0 44.54" stroke="none" stroke-width="0" fill="#d4d4ce"></path><path d="M0 0 C10.6 0, 21.19 0, 42.55 0 M0 0 C12.69 0, 25.37 0, 42.55 0 M42.55 0 C42.55 13.94, 42.55 27.88, 42.55 44.54 M42.55 0 C42.55 17, 42.55 34, 42.55 44.54 M42.55 44.54 C31.55 44.54, 20.54 44.54, 0 44.54 M42.55 44.54 C33.84 44.54, 25.12 44.54, 0 44.54 M0 44.54 C0 27.82, 0 11.1, 0 0 M0 44.54 C0 28.89, 0 13.24, 0 0" stroke="#d4d4ce" stroke-width="2" fill="none"></path></g><g stroke-linecap="round" transform="translate(103.06029308026336 184.84786955767413) rotate(29.53328520694519 21.277236664051998 24.086366242145232)"><path d="M0 0 L42.55 0 L42.55 48.17 L0 48.17" stroke="none" stroke-width="0" fill="#d4d4ce"></path><path d="M0 0 C14.4 0, 28.79 0, 42.55 0 M0 0 C14.71 0, 29.43 0, 42.55 0 M42.55 0 C42.55 13.56, 42.55 27.11, 42.55 48.17 M42.55 0 C42.55 14.19, 42.55 28.38, 42.55 48.17 M42.55 48.17 C32.54 48.17, 22.53 48.17, 0 48.17 M42.55 48.17 C30.62 48.17, 18.69 48.17, 0 48.17 M0 48.17 C0 33.17, 0 18.16, 0 0 M0 48.17 C0 32.99, 0 17.81, 0 0" stroke="#d4d4ce" stroke-width="2" fill="none"></path></g><g stroke-linecap="round" transform="translate(140.14012148811707 205.68450534625117) rotate(29.53328520694519 21.277236664051998 24.93336551459379)"><path d="M0 0 L42.55 0 L42.55 49.87 L0 49.87" stroke="none" stroke-width="0" fill="#d4d4ce"></path><path d="M0 0 C15.98 0, 31.96 0, 42.55 0 M0 0 C8.53 0, 17.05 0, 42.55 0 M42.55 0 C42.55 17.7, 42.55 35.4, 42.55 49.87 M42.55 0 C42.55 13.88, 42.55 27.76, 42.55 49.87 M42.55 49.87 C32.04 49.87, 21.52 49.87, 0 49.87 M42.55 49.87 C28.94 49.87, 15.33 49.87, 0 49.87 M0 49.87 C0 37.16, 0 24.45, 0 0 M0 49.87 C0 36.21, 0 22.54, 0 0" stroke="#d4d4ce" stroke-width="2" fill="none"></path></g><g stroke-linecap="round" transform="translate(176.3090352807285 226.9915033235975) rotate(29.53328520694519 21.277236664051998 24.93336551459379)"><path d="M0 0 L42.55 0 L42.55 49.87 L0 49.87" stroke="none" stroke-width="0" fill="#d4d4ce"></path><path d="M0 0 C15.48 0, 30.96 0, 42.55 0 M0 0 C10.94 0, 21.89 0, 42.55 0 M42.55 0 C42.55 14.41, 42.55 28.83, 42.55 49.87 M42.55 0 C42.55 15.62, 42.55 31.24, 42.55 49.87 M42.55 49.87 C34.03 49.87, 25.51 49.87, 0 49.87 M42.55 49.87 C29.33 49.87, 16.11 49.87, 0 49.87 M0 49.87 C0 36.18, 0 22.49, 0 0 M0 49.87 C0 32.6, 0 15.33, 0 0" stroke="#d4d4ce" stroke-width="2" fill="none"></path></g><g transform="translate(209.83408783173763 271.70980219404373) rotate(0 -0.39255820150447107 5.495814821069871)" stroke="none"><path fill="#d4d4ce" d="M 4.73,-0.88 Q 4.73,-0.88 4.95,-0.17 5.16,0.53 5.31,1.59 5.45,2.65 5.39,3.27 5.34,3.89 5.13,4.47 4.93,5.06 4.59,5.58 4.25,6.10 3.80,6.52 3.34,6.95 2.80,7.25 2.26,7.55 1.66,7.72 1.06,7.88 0.44,7.90 -0.17,7.92 -0.77,7.78 -1.38,7.65 -1.94,7.38 -2.49,7.10 -2.97,6.70 -3.44,6.31 -3.81,5.81 -4.18,5.30 -4.41,4.73 -4.65,4.16 -4.74,3.54 -4.83,2.93 -4.55,0.76 -4.27,-1.39 -4.26,-1.95 -4.24,-2.52 -4.12,-3.19 -4.00,-3.86 -3.71,-4.48 -3.43,-5.10 -3.01,-5.64 -2.59,-6.18 -2.05,-6.60 -1.52,-7.02 -0.89,-7.30 -0.27,-7.58 0.39,-7.70 1.06,-7.82 1.74,-7.78 2.43,-7.74 3.08,-7.54 3.73,-7.33 4.31,-6.98 4.90,-6.63 5.38,-6.14 5.86,-5.66 6.21,-5.08 6.57,-4.49 6.77,-3.84 6.97,-3.19 7.01,-2.51 7.05,-1.82 6.57,0.52 6.09,2.88 6.21,5.50 6.33,8.11 5.03,10.80 3.72,13.49 3.98,11.53 4.24,9.58 4.68,10.56 5.13,11.54 5.24,12.61 5.36,13.68 5.12,14.73 4.88,15.79 4.32,16.71 3.76,17.63 2.94,18.32 2.12,19.02 1.11,19.41 0.11,19.81 -0.96,19.86 -2.03,19.91 -3.07,19.62 -4.11,19.33 -5.00,18.72 -5.89,18.11 -6.53,17.25 -7.18,16.39 -7.52,15.36 -7.86,14.34 -7.86,13.26 -7.85,12.19 -7.50,11.17 -7.15,10.15 -6.50,9.29 -5.84,8.44 -4.95,7.84 -4.05,7.24 -3.01,6.95 -1.97,6.67 -0.90,6.73 0.17,6.79 1.17,7.20 2.17,7.60 2.98,8.30 3.80,9.00 4.35,9.93 4.91,10.86 5.13,11.91 5.36,12.96 5.24,14.03 5.12,15.11 4.66,16.08 4.20,17.06 3.46,17.84 2.71,18.62 1.76,19.12 0.80,19.62 -0.25,19.79 -1.31,19.95 -2.38,19.78 -3.44,19.60 -4.39,19.09 -5.34,18.58 -6.08,17.79 -6.81,17.01 -6.81,17.01 -6.81,17.01 -6.86,11.64 -6.90,6.27 -6.31,4.17 -5.72,2.07 -4.98,-0.22 -4.24,-2.51 -4.12,-3.19 -4.00,-3.86 -3.72,-4.48 -3.43,-5.10 -3.01,-5.64 -2.59,-6.18 -2.05,-6.60 -1.52,-7.02 -0.89,-7.30 -0.27,-7.58 0.39,-7.70 1.06,-7.82 1.74,-7.78 2.43,-7.74 3.08,-7.54 3.73,-7.33 4.31,-6.98 4.90,-6.63 5.38,-6.14 5.86,-5.66 6.21,-5.08 6.57,-4.49 6.77,-3.84 6.97,-3.19 7.01,-2.51 7.05,-1.82 7.04,-1.70 7.02,-1.58 6.24,0.53 5.45,2.65 5.39,3.27 5.34,3.89 5.13,4.47 4.93,5.06 4.59,5.58 4.25,6.10 3.80,6.52 3.34,6.95 2.80,7.25 2.26,7.55 1.66,7.72 1.06,7.88 0.44,7.90 -0.17,7.92 -0.77,7.78 -1.38,7.65 -1.94,7.38 -2.49,7.10 -2.97,6.71 -3.44,6.31 -3.81,5.81 -4.18,5.30 -4.41,4.73 -4.65,4.16 -4.74,3.54 -4.83,2.93 -4.73,2.64 -4.62,2.35 -4.68,1.62 -4.73,0.88 -4.77,0.30 -4.81,-0.27 -4.70,-0.84 -4.60,-1.41 -4.36,-1.94 -4.13,-2.47 -3.77,-2.93 -3.42,-3.39 -2.96,-3.75 -2.50,-4.11 -1.98,-4.35 -1.45,-4.59 -0.88,-4.70 -0.31,-4.80 0.26,-4.77 0.84,-4.74 1.40,-4.57 1.95,-4.40 2.45,-4.10 2.95,-3.80 3.36,-3.39 3.78,-2.98 4.08,-2.49 4.38,-1.99 4.56,-1.44 4.73,-0.88 4.73,-0.88 L 4.73,-0.88 Z"></path></g><g transform="translate(227.10664869795983 243.2885884050811) rotate(0 0.00004379339316074038 0.00004379339316074038)" stroke="none"><path fill="#d4d4ce" d="M 3.14,-3.14 Q 3.14,-3.14 3.55,-2.55 3.97,-1.97 4.18,-1.28 4.40,-0.59 4.38,0.11 4.36,0.83 4.11,1.51 3.86,2.18 3.41,2.74 2.96,3.30 2.36,3.69 1.75,4.07 1.05,4.25 0.36,4.42 -0.35,4.36 -1.07,4.30 -1.73,4.02 -2.39,3.74 -2.92,3.26 -3.46,2.78 -3.81,2.15 -4.16,1.53 -4.30,0.82 -4.43,0.11 -4.34,-0.59 -4.24,-1.30 -3.92,-1.94 -3.60,-2.59 -3.09,-3.09 -2.59,-3.60 -1.94,-3.92 -1.30,-4.24 -0.59,-4.34 0.12,-4.43 0.82,-4.30 1.53,-4.16 2.15,-3.81 2.78,-3.46 3.26,-2.92 3.74,-2.39 4.02,-1.73 4.31,-1.07 4.36,-0.35 4.42,0.36 4.25,1.05 4.07,1.75 3.69,2.36 3.30,2.96 2.74,3.41 2.18,3.86 1.51,4.11 0.83,4.36 0.11,4.38 -0.60,4.40 -1.28,4.18 -1.97,3.97 -2.55,3.55 -3.14,3.13 -3.14,3.14 -3.14,3.14 -3.47,2.71 -3.80,2.29 -4.02,1.80 -4.24,1.32 -4.33,0.79 -4.43,0.26 -4.40,-0.26 -4.36,-0.80 -4.20,-1.31 -4.04,-1.82 -3.77,-2.28 -3.49,-2.73 -3.11,-3.11 -2.73,-3.49 -2.28,-3.77 -1.82,-4.05 -1.31,-4.20 -0.80,-4.36 -0.26,-4.40 0.26,-4.43 0.79,-4.33 1.32,-4.24 1.80,-4.02 2.29,-3.80 2.71,-3.47 3.14,-3.14 3.14,-3.14 L 3.14,-3.14 Z"></path></g><g transform="translate(228.67688150397044 243.13156512447313) rotate(0 0.00004379339316074038 0.00004379339316074038)" stroke="none"><path fill="#d4d4ce" d="M 3.14,-3.14 Q 3.14,-3.14 3.55,-2.55 3.97,-1.97 4.18,-1.28 4.40,-0.59 4.38,0.11 4.36,0.83 4.11,1.51 3.86,2.18 3.41,2.74 2.96,3.30 2.36,3.69 1.75,4.07 1.05,4.25 0.36,4.42 -0.35,4.36 -1.07,4.30 -1.73,4.02 -2.39,3.74 -2.92,3.26 -3.46,2.78 -3.81,2.15 -4.16,1.53 -4.30,0.82 -4.43,0.11 -4.34,-0.59 -4.24,-1.30 -3.92,-1.94 -3.60,-2.59 -3.09,-3.09 -2.59,-3.60 -1.94,-3.92 -1.30,-4.24 -0.59,-4.34 0.12,-4.43 0.82,-4.30 1.53,-4.16 2.15,-3.81 2.78,-3.46 3.26,-2.92 3.74,-2.39 4.02,-1.73 4.31,-1.07 4.36,-0.35 4.42,0.36 4.25,1.05 4.07,1.75 3.69,2.36 3.30,2.96 2.74,3.41 2.18,3.86 1.51,4.11 0.83,4.36 0.11,4.38 -0.60,4.40 -1.28,4.18 -1.97,3.97 -2.55,3.55 -3.14,3.13 -3.14,3.14 -3.14,3.14 -3.47,2.71 -3.80,2.29 -4.02,1.80 -4.24,1.32 -4.33,0.79 -4.43,0.26 -4.40,-0.26 -4.36,-0.80 -4.20,-1.31 -4.04,-1.82 -3.77,-2.28 -3.49,-2.73 -3.11,-3.11 -2.73,-3.49 -2.28,-3.77 -1.82,-4.05 -1.31,-4.20 -0.80,-4.36 -0.26,-4.40 0.26,-4.43 0.79,-4.33 1.32,-4.24 1.80,-4.02 2.29,-3.80 2.71,-3.47 3.14,-3.14 3.14,-3.14 L 3.14,-3.14 Z"></path></g><g transform="translate(228.67688150397044 243.13156512447313) rotate(0 0.00004379339316074038 0.00004379339316074038)" stroke="none"><path fill="#d4d4ce" d="M 3.14,-3.14 Q 3.14,-3.14 3.55,-2.55 3.97,-1.97 4.18,-1.28 4.40,-0.59 4.38,0.11 4.36,0.83 4.11,1.51 3.86,2.18 3.41,2.74 2.96,3.30 2.36,3.69 1.75,4.07 1.05,4.25 0.36,4.42 -0.35,4.36 -1.07,4.30 -1.73,4.02 -2.39,3.74 -2.92,3.26 -3.46,2.78 -3.81,2.15 -4.16,1.53 -4.30,0.82 -4.43,0.11 -4.34,-0.59 -4.24,-1.30 -3.92,-1.94 -3.60,-2.59 -3.09,-3.09 -2.59,-3.60 -1.94,-3.92 -1.30,-4.24 -0.59,-4.34 0.12,-4.43 0.82,-4.30 1.53,-4.16 2.15,-3.81 2.78,-3.46 3.26,-2.92 3.74,-2.39 4.02,-1.73 4.31,-1.07 4.36,-0.35 4.42,0.36 4.25,1.05 4.07,1.75 3.69,2.36 3.30,2.96 2.74,3.41 2.18,3.86 1.51,4.11 0.83,4.36 0.11,4.38 -0.60,4.40 -1.28,4.18 -1.97,3.97 -2.55,3.55 -3.14,3.13 -3.14,3.14 -3.14,3.14 -3.47,2.71 -3.80,2.29 -4.02,1.80 -4.24,1.32 -4.33,0.79 -4.43,0.26 -4.40,-0.26 -4.36,-0.80 -4.20,-1.31 -4.04,-1.82 -3.77,-2.28 -3.49,-2.73 -3.11,-3.11 -2.73,-3.49 -2.28,-3.77 -1.82,-4.05 -1.31,-4.20 -0.80,-4.36 -0.26,-4.40 0.26,-4.43 0.79,-4.33 1.32,-4.24 1.80,-4.02 2.29,-3.80 2.71,-3.47 3.14,-3.14 3.14,-3.14 L 3.14,-3.14 Z"></path></g><g stroke-linecap="round" transform="translate(23.440686414092852 131.72212902267347) rotate(36.34745820888347 7.929675670401593 15.749179362233917)"><path d="M0 0 L15.86 0 L15.86 31.5 L0 31.5" stroke="none" stroke-width="0" fill="#d4d4ce"></path><path d="M0 0 C5.26 0, 10.51 0, 15.86 0 M0 0 C5.93 0, 11.86 0, 15.86 0 M15.86 0 C15.86 6.58, 15.86 13.15, 15.86 31.5 M15.86 0 C15.86 11.69, 15.86 23.38, 15.86 31.5 M15.86 31.5 C11.63 31.5, 7.4 31.5, 0 31.5 M15.86 31.5 C11.85 31.5, 7.84 31.5, 0 31.5 M0 31.5 C0 24.98, 0 18.46, 0 0 M0 31.5 C0 19.2, 0 6.89, 0 0" stroke="#d4d4ce" stroke-width="2" fill="none"></path></g><g transform="translate(24.54661672135262 169.01657668032567) rotate(0 -3.140465612040316 -4.867721698662535)" stroke="none"><path d="M0 0 L-0.16 0 L-0.47 0 L-0.63 -0.16 L-0.79 -0.63 L-1.1 -0.79 L-1.26 -1.1 L-1.41 -1.26 L-1.41 -1.41 L-1.41 -1.57 L-1.41 -1.73 L-1.41 -1.88 L-1.41 -2.04 L-1.41 -2.2 L-1.41 -2.51 L-1.41 -2.67 L-1.57 -2.83 L-1.73 -3.14 L-1.73 -3.3 L-1.88 -3.45 L-2.04 -3.77 L-2.2 -4.08 L-2.51 -4.4 L-2.51 -4.71 L-2.67 -4.87 L-2.98 -5.34 L-2.98 -5.5 L-3.14 -5.65 L-3.3 -5.81 L-3.45 -5.97 L-4.4 -7.22 L-5.02 -7.85 L-5.18 -8.01 L-5.34 -8.01 L-5.34 -8.32 L-5.5 -8.48 L-5.65 -8.95 L-5.81 -9.11 L-5.97 -9.42 L-5.97 -9.58 L-6.12 -9.74 L-6.12 -9.58 L-6.12 -9.42 L-6.28 -7.54 L-5.97 -6.44 L-5.5 -5.65 L-5.34 -4.87 L-5.18 -4.24 L-4.87 -3.61 L-4.71 -3.3 L-4.71 -2.98 L-4.55 -2.51 L-4.4 -2.2 L-4.4 -1.88 L-4.24 -1.73 L-4.08 -0.94 L-4.08 -0.79 L-4.08 -0.79" stroke="none" stroke-width="0" fill="#d4d4ce" fill-rule="evenodd"></path><path fill="#d4d4ce" d="M -3.77,2.82 Q -3.77,2.82 -4.24,2.33 -4.71,1.83 -6.10,-0.45 -7.49,-2.75 -9.06,-4.33 -10.63,-5.91 -8.55,-5.26 -6.47,-4.61 -4.35,-5.40 -2.24,-6.20 -0.04,-4.11 2.14,-2.03 2.16,-1.00 2.18,0.02 1.87,1.00 1.56,1.98 0.95,2.81 0.35,3.64 -0.48,4.23 -1.32,4.82 -2.31,5.12 -3.29,5.41 -4.32,5.37 -5.35,5.34 -6.31,4.97 -7.27,4.61 -8.07,3.96 -8.86,3.31 -9.41,2.44 -9.95,1.57 -10.19,0.57 -10.43,-0.42 -10.34,-1.44 -10.25,-2.47 -9.83,-3.41 -9.42,-4.35 -8.73,-5.11 -8.03,-5.87 -7.13,-6.37 -6.24,-6.86 -5.22,-7.05 -4.21,-7.23 -3.20,-7.09 -2.18,-6.94 -1.26,-6.47 -0.35,-6.01 0.36,-5.28 1.08,-4.54 1.53,-3.62 1.98,-2.69 2.11,-1.67 2.24,-0.66 2.04,0.34 1.84,1.35 1.32,2.24 0.81,3.13 0.04,3.81 -0.72,4.49 -1.67,4.89 -2.62,5.29 -3.64,5.36 -4.67,5.43 -5.66,5.18 -6.66,4.92 -7.52,4.36 -8.38,3.80 -9.02,2.99 -9.65,2.19 -10.00,1.22 -10.35,0.25 -10.35,0.25 -10.34,0.25 -10.96,-1.99 -11.57,-4.25 -11.90,-6.56 -12.23,-8.87 -11.08,-10.92 -9.92,-12.97 -7.76,-13.78 -5.60,-14.59 -3.57,-13.41 -1.54,-12.23 -0.03,-10.42 1.48,-8.61 2.28,-6.30 3.08,-4.00 3.42,-3.41 3.77,-2.82 4.05,-2.33 4.33,-1.84 4.49,-1.29 4.65,-0.75 4.67,-0.18 4.69,0.38 4.58,0.94 4.46,1.49 4.22,2.00 3.98,2.52 3.62,2.96 3.26,3.40 2.80,3.74 2.35,4.08 1.82,4.30 1.30,4.52 0.74,4.61 0.18,4.70 -0.38,4.66 -0.94,4.61 -1.48,4.43 -2.02,4.25 -2.50,3.95 -2.98,3.64 -3.37,3.23 -3.77,2.82 -3.77,2.82 L -3.77,2.82 Z"></path></g><g transform="translate(19.678895022692814 154.25638830373646) rotate(0 6.594977785283845 -8.243722231605716)" stroke="none"><path fill="#d4d4ce" d="M -4.87,-0.64 Q -4.87,-0.64 -4.85,-1.33 -4.84,-2.02 -4.39,-4.45 -3.95,-6.88 -3.20,-9.12 -2.45,-11.35 -0.90,-13.64 0.64,-15.92 2.25,-17.33 3.87,-18.74 7.69,-20.74 11.52,-22.75 12.57,-22.87 13.62,-22.98 14.65,-22.76 15.68,-22.53 16.59,-21.99 17.49,-21.45 18.18,-20.65 18.86,-19.85 19.26,-18.87 19.65,-17.89 19.71,-16.83 19.77,-15.78 19.49,-14.76 19.21,-13.74 18.62,-12.87 18.03,-11.99 17.19,-11.35 16.36,-10.71 15.36,-10.37 14.36,-10.03 13.30,-10.03 12.25,-10.02 11.24,-10.36 10.24,-10.69 9.40,-11.33 8.56,-11.96 7.96,-12.84 7.37,-13.71 7.08,-14.72 6.80,-15.74 6.85,-16.80 6.90,-17.85 7.29,-18.83 7.68,-19.81 8.36,-20.62 9.04,-21.43 9.95,-21.97 10.85,-22.52 11.88,-22.75 12.91,-22.98 13.96,-22.87 15.01,-22.76 15.97,-22.32 16.93,-21.88 17.70,-21.15 18.47,-20.43 18.96,-19.50 19.46,-18.57 19.63,-17.53 19.81,-16.48 19.64,-15.44 19.47,-14.40 18.98,-13.46 18.49,-12.53 17.72,-11.80 16.96,-11.07 16.00,-10.63 15.04,-10.18 15.05,-10.18 15.05,-10.18 12.92,-9.17 10.79,-8.16 9.06,-6.47 7.33,-4.77 6.26,-2.73 5.20,-0.68 5.03,-0.01 4.87,0.64 4.72,1.22 4.57,1.79 4.29,2.31 4.01,2.84 3.61,3.27 3.21,3.71 2.72,4.04 2.23,4.38 1.67,4.58 1.12,4.78 0.53,4.85 -0.05,4.91 -0.64,4.83 -1.23,4.75 -1.78,4.54 -2.33,4.32 -2.81,3.98 -3.30,3.64 -3.69,3.19 -4.07,2.74 -4.34,2.21 -4.61,1.68 -4.75,1.11 -4.88,0.53 -4.88,-0.05 -4.87,-0.65 -4.87,-0.65 L -4.87,-0.64 Z"></path></g><g stroke-linecap="round"><g transform="translate(229.05212025154287 164.67876321368385) rotate(0 -37.56786706137609 -23.23398288619319)"><path d="M0 0 C-12.52 -7.74, -62.61 -38.72, -75.14 -46.47 M0 0 C-12.52 -7.74, -62.61 -38.72, -75.14 -46.47" stroke="black" stroke-width="4" fill="none"></path></g></g><g stroke-linecap="round"><g transform="translate(210.06524300138335 164.44142724805715) rotate(0 40.0695442646238 -24.773137841998505)"><path d="M0 0 C13.36 -8.26, 66.78 -41.29, 80.14 -49.55 M0 0 C13.36 -8.26, 66.78 -41.29, 80.14 -49.55" stroke="black" stroke-width="4" fill="none"></path></g></g><g stroke-linecap="round"><g transform="translate(174.46484815733675 129.55304030089064) rotate(0 12.222802229789522 -6.882743003182441)"><path d="M0 0 C1.19 -0.63, 3.92 -2.89, 7.12 -3.8 C10.32 -4.71, 16.34 -3.8, 19.22 -5.46 C22.11 -7.12, 23.58 -12.38, 24.45 -13.77 M0 0 C1.19 -0.63, 3.92 -2.89, 7.12 -3.8 C10.32 -4.71, 16.34 -3.8, 19.22 -5.46 C22.11 -7.12, 23.58 -12.38, 24.45 -13.77" stroke="black" stroke-width="4" fill="none"></path></g></g><g stroke-linecap="round"><g transform="translate(197.10361629566432 119.95394065794244) rotate(0 20.246299359224395 13.936984498112906)"><path d="M0 0 C6.75 4.65, 33.74 23.23, 40.49 27.87 M0 0 C6.75 4.65, 33.74 23.23, 40.49 27.87" stroke="black" stroke-width="4" fill="none"></path></g></g><g stroke-linecap="round"><g transform="translate(279.1300089988363 121.24628150394528) rotate(0 -35.88895602028606 -21.069267782705538)"><path d="M0 0 C-11.96 -7.02, -59.81 -35.12, -71.78 -42.14 M0 0 C-11.96 -7.02, -59.81 -35.12, -71.78 -42.14" stroke="black" stroke-width="4" fill="none"></path></g></g><g stroke-linecap="round"><g transform="translate(198.90438707959584 115.6343807760968) rotate(0 12.911375289310854 -22.945001906603466)"><path d="M0 0 C0.21 -0.6, 0.98 -2.32, 1.28 -3.62 C1.57 -4.93, 1.86 -6.25, 1.76 -7.82 C1.67 -9.38, 1.15 -11.33, 0.71 -13 C0.27 -14.66, -0.41 -16.21, -0.88 -17.81 C-1.35 -19.4, -2.06 -20.9, -2.12 -22.54 C-2.18 -24.18, -2.46 -25.34, -1.24 -27.65 C-0.02 -29.96, 1.22 -34.46, 5.23 -36.4 C9.23 -38.33, 18.99 -37.66, 22.79 -39.24 C26.59 -40.83, 27.14 -44.78, 28.01 -45.89 M0 0 C0.21 -0.6, 0.98 -2.32, 1.28 -3.62 C1.57 -4.93, 1.86 -6.25, 1.76 -7.82 C1.67 -9.38, 1.15 -11.33, 0.71 -13 C0.27 -14.66, -0.41 -16.21, -0.88 -17.81 C-1.35 -19.4, -2.06 -20.9, -2.12 -22.54 C-2.18 -24.18, -2.46 -25.34, -1.24 -27.65 C-0.02 -29.96, 1.22 -34.46, 5.23 -36.4 C9.23 -38.33, 18.99 -37.66, 22.79 -39.24 C26.59 -40.83, 27.14 -44.78, 28.01 -45.89" stroke="black" stroke-width="4" fill="none"></path></g></g><g stroke-linecap="round"><g transform="translate(172.56616043231952 76.62711996607322) rotate(341.49088061056085 0.5409689053449256 6.764075020368182)"><path d="M0 0 C-0.55 0.47, -4.07 0.59, -3.32 2.85 C-2.57 5.1, 3.2 11.75, 4.51 13.53 M0 0 C-0.55 0.47, -4.07 0.59, -3.32 2.85 C-2.57 5.1, 3.2 11.75, 4.51 13.53" stroke="black" stroke-width="4" fill="none"></path></g></g><g stroke-linecap="round"><g transform="translate(169.95546481042402 84.45920683176337) rotate(0 2.0173557078296653 -1.542683776575359)"><path d="M0 0 C0.67 -0.51, 3.36 -2.57, 4.03 -3.09 M0 0 C0.67 -0.51, 3.36 -2.57, 4.03 -3.09" stroke="black" stroke-width="4" fill="none"></path></g></g><g stroke-linecap="round"><g transform="translate(179.11948310862863 72.07943071170303) rotate(0 2.373359656269713 4.27204738128512)"><path d="M0 0 C0.16 0.75, 0.16 3.09, 0.95 4.51 C1.74 5.93, 4.11 7.87, 4.75 8.54 M0 0 C0.16 0.75, 0.16 3.09, 0.95 4.51 C1.74 5.93, 4.11 7.87, 4.75 8.54" stroke="black" stroke-width="4" fill="none"></path></g></g><g stroke-linecap="round"><g transform="translate(199.56903944946316 62.603697239623216) rotate(299.8989018386048 -2.373359656269713 4.27204738128512)"><path d="M0 0 C-0.16 0.75, -0.16 3.09, -0.95 4.51 C-1.74 5.93, -4.11 7.87, -4.75 8.54 M0 0 C-0.16 0.75, -0.16 3.09, -0.95 4.51 C-1.74 5.93, -4.11 7.87, -4.75 8.54" stroke="black" stroke-width="4" fill="none"></path></g></g><g stroke-linecap="round"><g transform="translate(188.94234206058172 66.78134969736129) rotate(0 0.26667547173656203 4.598275170825218)"><path d="M0 0 C0.09 1.53, 0.44 7.66, 0.53 9.2 M0 0 C0.09 1.53, 0.44 7.66, 0.53 9.2" stroke="black" stroke-width="4" fill="none"></path></g></g><g stroke-linecap="round"><g transform="translate(184.6702946792957 70.11300267431398) rotate(0 4.598275170824309 0.9795566742022856)"><path d="M0 0 C1.53 0.33, 7.66 1.63, 9.2 1.96 M0 0 C1.53 0.33, 7.66 1.63, 9.2 1.96" stroke="black" stroke-width="4" fill="none"></path></g></g><g stroke-linecap="round"><g transform="translate(293.1342025139129 111.50178710685395) rotate(0 -4.073722970359086 0.5613950357728754)"><path d="M0 0 C-1.36 0.19, -6.79 0.94, -8.15 1.12 M0 0 C-1.36 0.19, -6.79 0.94, -8.15 1.12" stroke="black" stroke-width="4" fill="none"></path></g></g><g stroke-linecap="round"><g transform="translate(293.5564517777475 111.64189526839618) rotate(0 -0.3243244480145222 3.6761082529219493)" fill-rule="evenodd"><path d="" stroke="none" stroke-width="0" fill="black" fill-rule="evenodd"></path><path d="M0 0 C0 0.48, 0.12 1.68, 0 2.91 C-0.12 4.13, -0.58 6.61, -0.7 7.35 M0 0 C0 0.48, 0.12 1.68, 0 2.91 C-0.12 4.13, -0.58 6.61, -0.7 7.35" stroke="black" stroke-width="4" fill="none"></path></g></g><g stroke-linecap="round"><g transform="translate(151.86355315444962 117.24814650929511) rotate(0 0.9372623756253233 2.6243346517503596)"><path d="M0 0 C0.31 0.87, 1.56 4.37, 1.87 5.25 M0 0 C0.31 0.87, 1.56 4.37, 1.87 5.25" stroke="black" stroke-width="4" fill="none"></path></g></g><g stroke-linecap="round"><g transform="translate(151.86355315444962 117.0606940341695) rotate(0 2.905513364438775 -0.09372623756189569)"><path d="M0 0 C0.97 -0.03, 4.84 -0.16, 5.81 -0.19 M0 0 C0.97 -0.03, 4.84 -0.16, 5.81 -0.19" stroke="black" stroke-width="4" fill="none"></path></g></g><g stroke-linecap="round"><g transform="translate(233.38484148094358 266.15772166432725) rotate(0 74.0236344591276 -45.704273095845565)"><path d="M0.05 -0.13 C12.82 -7.7, 50.57 -30.05, 75.47 -44.89 C100.36 -59.72, 137.12 -81.76, 149.43 -89.15 M-1.38 -1.25 C11.34 -8.67, 49.54 -28.4, 74.59 -43.4 C99.63 -58.41, 136.38 -83.86, 148.91 -91.28" stroke="gray" stroke-width="1" fill="none"></path></g></g><g stroke-linecap="round"><g transform="translate(238.05342150708566 275.96173971922326) rotate(0 74.11935488113068 -45.03922014795444)"><path d="M-0.72 0.65 C11.87 -6.9, 51.22 -29.1, 76.17 -44.33 C101.11 -59.56, 136.74 -83.19, 148.96 -90.73 M1.1 -0.06 C13.51 -7.58, 50.91 -28.36, 75.42 -43.35 C99.94 -58.34, 135.77 -82.51, 148.2 -90.02" stroke="gray" stroke-width="1" fill="none"></path></g></g><g stroke-linecap="round"><g transform="translate(242.25514353061408 285.7657577741211) rotate(0 74.76281770320384 -44.74238100610819)"><path d="M0.41 0.38 C13.16 -6.85, 51.77 -27.85, 76.36 -42.89 C100.95 -57.93, 135.94 -82.12, 147.97 -89.87 M-0.83 -0.46 C11.8 -8.09, 50.41 -30, 75.6 -44.71 C100.8 -59.41, 138.19 -81.46, 150.35 -88.71" stroke="gray" stroke-width="1" fill="none"></path></g></g><g stroke-linecap="round"><g transform="translate(278.397622696335 396.0401979467915) rotate(0 10.79053612027019 -22.346168594907795)"><path d="M0 0 C-0.17 -4.53, -5.07 -19.75, -1.03 -27.19 C3 -34.64, 20 -41.78, 24.2 -44.69 M0 0 C-0.17 -4.53, -5.07 -19.75, -1.03 -27.19 C3 -34.64, 20 -41.78, 24.2 -44.69" stroke="black" stroke-width="4" fill="none"></path></g></g><g stroke-linecap="round"><g transform="translate(236.6497079471883 390.34356670956913) rotate(0 74.3695880997675 -45.106228738653044)"><path d="M1.02 -0.43 C13.73 -7.56, 50.94 -28.35, 75.55 -43.24 C100.16 -58.13, 136.35 -82.23, 148.65 -89.78 M0.09 -1.7 C13.27 -8.63, 53.34 -27.48, 77.94 -41.96 C102.55 -56.44, 135.75 -80.47, 147.72 -88.58" stroke="gray" stroke-width="1" fill="none"></path></g></g><g stroke-linecap="round"><g transform="translate(37.39207879339665 124.61369949608161) rotate(0 100.40129151859401 58.806470746605555)"><path d="M0 0 C33.47 19.6, 167.34 98.01, 200.8 117.61 M0 0 C33.47 19.6, 167.34 98.01, 200.8 117.61" stroke="black" stroke-width="4" fill="none"></path></g></g><g stroke-linecap="round"><g transform="translate(240.90360948544003 243.37670514934507) rotate(0 -12.096028475933053 27.61926502004826)"><path d="M0 0 C-2.89 1.88, -13.31 2.08, -17.34 11.29 C-21.37 20.5, -23.05 47.91, -24.19 55.24 M0 0 C-2.89 1.88, -13.31 2.08, -17.34 11.29 C-21.37 20.5, -23.05 47.91, -24.19 55.24" stroke="black" stroke-width="4" fill="none"></path></g></g><g stroke-linecap="round"><g transform="translate(387.2655540442429 155.07569727502232) rotate(0 0 0)"><path d="M0 0 C0 0, 0 0, 0 0 M0 0 C0 0, 0 0, 0 0" stroke="black" stroke-width="4" fill="none"></path></g></g></svg>