<svg xmlns="http://www.w3.org/2000/svg" xmlns:xlink="http://www.w3.org/1999/xlink" width="212.0625" height="47.171875" style="width:212.0625px;height:47.171875px;font-family:Asana-Math, Asana;background:#FFF;"><g><g><g><g transform="matrix(1,0,0,1,2,31.390625)"><path transform="matrix(0.017,0,0,-0.017,0,0)" d="M237 -16C473 -16 572 316 576 504C578 618 546 702 419 702C159 702 72 412 69 199C67 80 101 -16 237 -16ZM401 676C536 676 506 491 485 381L169 381C194 485 272 676 401 676ZM253 13C102 13 147 261 163 349L479 349C454 237 396 13 253 13Z" stroke="rgb(0,0,0)" stroke-opacity="1" stroke-width="8" fill="rgb(0,0,0)" fill-opacity="1"></path></g></g><g><g transform="matrix(1,0,0,1,21.75,31.390625)"><path transform="matrix(0.017,0,0,-0.017,0,0)" d="M604 347L604 406L65 406L65 347ZM604 134L604 193L65 193L65 134Z" stroke="rgb(0,0,0)" stroke-opacity="1" stroke-width="8" fill="rgb(0,0,0)" fill-opacity="1"></path></g></g><g><g transform="matrix(1,0,0,1,38.203125,31.390625)"><path transform="matrix(0.017,0,0,-0.017,0,0)" d="M486 -16C722 -16 821 316 825 504C827 618 795 702 668 702C408 702 321 412 318 199C316 80 350 -16 486 -16ZM650 676C785 676 755 491 734 381L418 381C443 485 521 676 650 676ZM502 13C351 13 396 261 412 349L728 349C703 237 645 13 502 13Z" stroke="rgb(0,0,0)" stroke-opacity="1" stroke-width="8" fill="rgb(0,0,0)" fill-opacity="1"></path></g></g><g><g><g><g><g transform="matrix(1,0,0,1,53.359375,34.4)"><path transform="matrix(0.0119,0,0,-0.0119,0,0)" d="M457 331C457 412 453 506 411 588C370 665 301 689 250 689C191 689 121 662 80 571C47 497 42 413 42 331C42 251 46 177 76 103C116 5 192 -22 249 -22C322 -22 385 19 417 89C447 155 457 223 457 331ZM250 40C198 40 157 78 137 151C121 209 120 264 120 343C120 407 120 468 137 524C143 544 168 627 249 627C327 627 353 550 360 531C379 475 379 406 379 343C379 276 379 212 361 148C335 56 282 40 250 40Z" stroke="rgb(0,0,0)" stroke-opacity="1" stroke-width="8" fill="rgb(0,0,0)" fill-opacity="1"></path></g></g></g></g></g><g><g transform="matrix(1,0,0,1,60.328125,31.390625)"><path transform="matrix(0.017,0,0,-0.017,0,0)" d="" stroke="rgb(0,0,0)" stroke-opacity="1" stroke-width="8" fill="rgb(0,0,0)" fill-opacity="1"></path></g></g><g><g transform="matrix(1,0,0,1,67.953125,31.390625)"><path transform="matrix(0.017,0,0,-0.017,0,0)" d="M604 241L604 300L364 300L364 538L305 538L305 300L65 300L65 241L305 241L305 0L364 0L364 241Z" stroke="rgb(0,0,0)" stroke-opacity="1" stroke-width="8" fill="rgb(0,0,0)" fill-opacity="1"></path></g></g><g><g transform="matrix(1,0,0,1,82.703125,31.390625)"><path transform="matrix(0.017,0,0,-0.017,0,0)" d="M905 325C899 363 868 458 815 458C800 458 774 441 761 434L762 423C813 392 836 338 845 284C860 189 828 17 711 17C652 17 638 73 631 119C621 185 624 252 636 315L625 324C605 317 584 309 563 304C573 217 580 16 460 16C397 16 374 81 366 129C342 278 389 388 518 443L524 452L513 463C365 428 264 301 290 137C304 50 346 -12 443 -12C498 -12 535 11 570 47L575 47C604 3 635 -12 685 -12C845 -12 928 181 905 325ZM1381 267L1250 213L1245 204L1281 153L1291 153L1397 241L1415 99L1425 95L1493 121L1493 131L1425 253L1563 233L1572 241L1572 303L1566 307L1427 283L1496 408L1493 423L1431 442L1422 438L1396 295L1301 393L1291 393L1247 341L1250 331ZM2025 386L2166 386L2166 444L2025 444L2025 571L1956 571L1956 444L1869 444L1869 386L1953 386L1953 119C1953 59 1967 -11 2036 -11C2106 -11 2157 14 2182 27L2166 86C2140 65 2108 53 2076 53C2039 53 2025 83 2025 136Z" stroke="rgb(0,0,0)" stroke-opacity="1" stroke-width="8" fill="rgb(0,0,0)" fill-opacity="1"></path></g></g><g><g transform="matrix(1,0,0,1,127.90625,31.390625)"><path transform="matrix(0.017,0,0,-0.017,0,0)" d="M604 241L604 300L364 300L364 538L305 538L305 300L65 300L65 241L305 241L305 0L364 0L364 241Z" stroke="rgb(0,0,0)" stroke-opacity="1" stroke-width="8" fill="rgb(0,0,0)" fill-opacity="1"></path></g></g><g><g transform="matrix(1,0,0,1,142.65625,31.390625)"><path transform="matrix(0.017,0,0,-0.017,0,0)" d="" stroke="rgb(0,0,0)" stroke-opacity="1" stroke-width="8" fill="rgb(0,0,0)" fill-opacity="1"></path></g></g><g><g><g><g><g transform="matrix(1,0,0,1,148.578125,19)"><path transform="matrix(0.017,0,0,-0.017,0,0)" d="M299 689L279 689C220 627 137 624 89 622L89 563C122 564 170 566 220 587L220 59L95 59L95 0L424 0L424 59L299 59Z" stroke="rgb(0,0,0)" stroke-opacity="1" stroke-width="8" fill="rgb(0,0,0)" fill-opacity="1"></path></g></g></g></g><g><g><g><g transform="matrix(1,0,0,1,148.578125,44.78125)"><path transform="matrix(0.017,0,0,-0.017,0,0)" d="M83 466C103 545 131 624 222 624C316 624 367 548 367 468C367 382 310 324 251 263L174 191L50 65L50 0L449 0L449 72L267 72C255 72 243 71 231 71L122 71C154 100 230 176 261 205C333 274 449 347 449 471C449 587 368 689 236 689C122 689 66 610 42 522C66 487 59 501 83 466Z" stroke="rgb(0,0,0)" stroke-opacity="1" stroke-width="8" fill="rgb(0,0,0)" fill-opacity="1"></path></g></g></g></g><line style="fill:none;stroke-width:1px;stroke:rgb(0, 0, 0);" x1="148.578125" y1="27.140625" x2="157.0625" y2="27.140625"></line></g><g><g transform="matrix(1,0,0,1,158.75,31.390625)"><path transform="matrix(0.017,0,0,-0.017,0,0)" d="M417 267L286 213L281 204L317 153L327 153L433 241L451 99L461 95L529 121L529 131L461 253L599 233L608 241L608 303L602 307L463 283L532 408L529 423L467 442L458 438L432 295L337 393L327 393L283 341L286 331ZM1285 289C1285 391 1212 461 1120 461C1055 461 1010 445 963 418L969 352C1021 389 1071 402 1120 402C1167 402 1207 362 1207 288L1207 245C1057 243 930 201 930 113C930 70 957 -11 1044 -11C1058 -11 1152 -9 1210 36L1210 0L1285 0ZM1207 132C1207 113 1207 88 1173 69C1144 51 1106 50 1095 50C1047 50 1002 73 1002 115C1002 185 1164 192 1207 194ZM1782 267L1651 213L1646 204L1682 153L1692 153L1798 241L1816 99L1826 95L1894 121L1894 131L1826 253L1964 233L1973 241L1973 303L1967 307L1828 283L1897 408L1894 423L1832 442L1823 438L1797 295L1702 393L1692 393L1648 341L1651 331ZM2426 386L2567 386L2567 444L2426 444L2426 571L2357 571L2357 444L2270 444L2270 386L2354 386L2354 119C2354 59 2368 -11 2437 -11C2507 -11 2558 14 2583 27L2567 86C2541 65 2509 53 2477 53C2440 53 2426 83 2426 136Z" stroke="rgb(0,0,0)" stroke-opacity="1" stroke-width="8" fill="rgb(0,0,0)" fill-opacity="1"></path></g></g><g><g><g><g><g transform="matrix(1,0,0,1,204.109375,24.68125)"><path transform="matrix(0.0119,0,0,-0.0119,0,0)" d="M83 466C103 545 131 624 222 624C316 624 367 548 367 468C367 382 310 324 251 263L174 191L50 65L50 0L449 0L449 72L267 72C255 72 243 71 231 71L122 71C154 100 230 176 261 205C333 274 449 347 449 471C449 587 368 689 236 689C122 689 66 610 42 522C66 487 59 501 83 466Z" stroke="rgb(0,0,0)" stroke-opacity="1" stroke-width="8" fill="rgb(0,0,0)" fill-opacity="1"></path></g></g></g></g></g></g></g></svg>