<svg xmlns="http://www.w3.org/2000/svg" xmlns:xlink="http://www.w3.org/1999/xlink" width="121.734375" height="26.390625" style="width:121.734375px;height:26.390625px;font-family:Asana-Math, Asana;background:#FFF;"><g><g><g><g transform="matrix(1,0,0,1,2,19)"><path transform="matrix(0.017,0,0,-0.017,0,0)" d="M656 325C650 363 619 458 566 458C551 458 525 441 512 434L513 423C564 392 587 338 596 284C611 189 579 17 462 17C403 17 389 73 382 119C372 185 375 252 387 315L376 324C356 317 335 309 314 304C324 217 331 16 211 16C148 16 125 81 117 129C93 278 140 388 269 443L275 452L264 463C116 428 15 301 41 137C55 50 97 -12 194 -12C249 -12 286 11 321 47L326 47C355 3 386 -12 436 -12C596 -12 679 181 656 325Z" stroke="rgb(0,0,0)" stroke-opacity="1" stroke-width="8" fill="rgb(0,0,0)" fill-opacity="1"></path></g></g><g><g transform="matrix(1,0,0,1,23.484375,19)"><path transform="matrix(0.017,0,0,-0.017,0,0)" d="M604 347L604 406L65 406L65 347ZM604 134L604 193L65 193L65 134Z" stroke="rgb(0,0,0)" stroke-opacity="1" stroke-width="8" fill="rgb(0,0,0)" fill-opacity="1"></path></g></g><g><g transform="matrix(1,0,0,1,39.9375,19)"><path transform="matrix(0.017,0,0,-0.017,0,0)" d="M905 325C899 363 868 458 815 458C800 458 774 441 761 434L762 423C813 392 836 338 845 284C860 189 828 17 711 17C652 17 638 73 631 119C621 185 624 252 636 315L625 324C605 317 584 309 563 304C573 217 580 16 460 16C397 16 374 81 366 129C342 278 389 388 518 443L524 452L513 463C365 428 264 301 290 137C304 50 346 -12 443 -12C498 -12 535 11 570 47L575 47C604 3 635 -12 685 -12C845 -12 928 181 905 325Z" stroke="rgb(0,0,0)" stroke-opacity="1" stroke-width="8" fill="rgb(0,0,0)" fill-opacity="1"></path></g></g><g><g><g><g><g transform="matrix(1,0,0,1,56.828125,22.009375)"><path transform="matrix(0.0119,0,0,-0.0119,0,0)" d="M457 331C457 412 453 506 411 588C370 665 301 689 250 689C191 689 121 662 80 571C47 497 42 413 42 331C42 251 46 177 76 103C116 5 192 -22 249 -22C322 -22 385 19 417 89C447 155 457 223 457 331ZM250 40C198 40 157 78 137 151C121 209 120 264 120 343C120 407 120 468 137 524C143 544 168 627 249 627C327 627 353 550 360 531C379 475 379 406 379 343C379 276 379 212 361 148C335 56 282 40 250 40Z" stroke="rgb(0,0,0)" stroke-opacity="1" stroke-width="8" fill="rgb(0,0,0)" fill-opacity="1"></path></g></g></g></g></g><g><g transform="matrix(1,0,0,1,63.796875,19)"><path transform="matrix(0.017,0,0,-0.017,0,0)" d="" stroke="rgb(0,0,0)" stroke-opacity="1" stroke-width="8" fill="rgb(0,0,0)" fill-opacity="1"></path></g></g><g><g transform="matrix(1,0,0,1,71.421875,19)"><path transform="matrix(0.017,0,0,-0.017,0,0)" d="M604 241L604 300L364 300L364 538L305 538L305 300L65 300L65 241L305 241L305 0L364 0L364 241Z" stroke="rgb(0,0,0)" stroke-opacity="1" stroke-width="8" fill="rgb(0,0,0)" fill-opacity="1"></path></g></g><g><g transform="matrix(1,0,0,1,86.171875,19)"><path transform="matrix(0.017,0,0,-0.017,0,0)" d="M648 289C648 391 575 461 483 461C418 461 373 445 326 418L332 352C384 389 434 402 483 402C530 402 570 362 570 288L570 245C420 243 293 201 293 113C293 70 320 -11 407 -11C421 -11 515 -9 573 36L573 0L648 0ZM570 132C570 113 570 88 536 69C507 51 469 50 458 50C410 50 365 73 365 115C365 185 527 192 570 194ZM1145 267L1014 213L1009 204L1045 153L1055 153L1161 241L1179 99L1189 95L1257 121L1257 131L1189 253L1327 233L1336 241L1336 303L1330 307L1191 283L1260 408L1257 423L1195 442L1186 438L1160 295L1065 393L1055 393L1011 341L1014 331ZM1789 386L1930 386L1930 444L1789 444L1789 571L1720 571L1720 444L1633 444L1633 386L1717 386L1717 119C1717 59 1731 -11 1800 -11C1870 -11 1921 14 1946 27L1930 86C1904 65 1872 53 1840 53C1803 53 1789 83 1789 136Z" stroke="rgb(0,0,0)" stroke-opacity="1" stroke-width="8" fill="rgb(0,0,0)" fill-opacity="1"></path></g></g></g></g></svg>