<svg xmlns="http://www.w3.org/2000/svg" xmlns:xlink="http://www.w3.org/1999/xlink" width="122.28125" height="26.390625" style="width:122.28125px;height:26.390625px;font-family:Asana-Math, Asana;background:#FFF;"><g><g><g><g transform="matrix(1,0,0,1,2,19)"><path transform="matrix(0.017,0,0,-0.017,0,0)" d="M237 -16C473 -16 572 316 576 504C578 618 546 702 419 702C159 702 72 412 69 199C67 80 101 -16 237 -16ZM401 676C536 676 506 491 485 381L169 381C194 485 272 676 401 676ZM253 13C102 13 147 261 163 349L479 349C454 237 396 13 253 13Z" stroke="rgb(0,0,0)" stroke-opacity="1" stroke-width="8" fill="rgb(0,0,0)" fill-opacity="1"></path></g></g><g><g transform="matrix(1,0,0,1,21.75,19)"><path transform="matrix(0.017,0,0,-0.017,0,0)" d="M604 347L604 406L65 406L65 347ZM604 134L604 193L65 193L65 134Z" stroke="rgb(0,0,0)" stroke-opacity="1" stroke-width="8" fill="rgb(0,0,0)" fill-opacity="1"></path></g></g><g><g transform="matrix(1,0,0,1,38.203125,19)"><path transform="matrix(0.017,0,0,-0.017,0,0)" d="M486 -16C722 -16 821 316 825 504C827 618 795 702 668 702C408 702 321 412 318 199C316 80 350 -16 486 -16ZM650 676C785 676 755 491 734 381L418 381C443 485 521 676 650 676ZM502 13C351 13 396 261 412 349L728 349C703 237 645 13 502 13Z" stroke="rgb(0,0,0)" stroke-opacity="1" stroke-width="8" fill="rgb(0,0,0)" fill-opacity="1"></path></g></g><g><g><g><g><g transform="matrix(1,0,0,1,53.359375,22.009375)"><path transform="matrix(0.0119,0,0,-0.0119,0,0)" d="M457 331C457 412 453 506 411 588C370 665 301 689 250 689C191 689 121 662 80 571C47 497 42 413 42 331C42 251 46 177 76 103C116 5 192 -22 249 -22C322 -22 385 19 417 89C447 155 457 223 457 331ZM250 40C198 40 157 78 137 151C121 209 120 264 120 343C120 407 120 468 137 524C143 544 168 627 249 627C327 627 353 550 360 531C379 475 379 406 379 343C379 276 379 212 361 148C335 56 282 40 250 40Z" stroke="rgb(0,0,0)" stroke-opacity="1" stroke-width="8" fill="rgb(0,0,0)" fill-opacity="1"></path></g></g></g></g></g><g><g transform="matrix(1,0,0,1,60.328125,19)"><path transform="matrix(0.017,0,0,-0.017,0,0)" d="" stroke="rgb(0,0,0)" stroke-opacity="1" stroke-width="8" fill="rgb(0,0,0)" fill-opacity="1"></path></g></g><g><g transform="matrix(1,0,0,1,67.953125,19)"><path transform="matrix(0.017,0,0,-0.017,0,0)" d="M604 241L604 300L364 300L364 538L305 538L305 300L65 300L65 241L305 241L305 0L364 0L364 241Z" stroke="rgb(0,0,0)" stroke-opacity="1" stroke-width="8" fill="rgb(0,0,0)" fill-opacity="1"></path></g></g><g><g transform="matrix(1,0,0,1,82.703125,19)"><path transform="matrix(0.017,0,0,-0.017,0,0)" d="M905 325C899 363 868 458 815 458C800 458 774 441 761 434L762 423C813 392 836 338 845 284C860 189 828 17 711 17C652 17 638 73 631 119C621 185 624 252 636 315L625 324C605 317 584 309 563 304C573 217 580 16 460 16C397 16 374 81 366 129C342 278 389 388 518 443L524 452L513 463C365 428 264 301 290 137C304 50 346 -12 443 -12C498 -12 535 11 570 47L575 47C604 3 635 -12 685 -12C845 -12 928 181 905 325ZM1381 267L1250 213L1245 204L1281 153L1291 153L1397 241L1415 99L1425 95L1493 121L1493 131L1425 253L1563 233L1572 241L1572 303L1566 307L1427 283L1496 408L1493 423L1431 442L1422 438L1396 295L1301 393L1291 393L1247 341L1250 331ZM2025 386L2166 386L2166 444L2025 444L2025 571L1956 571L1956 444L1869 444L1869 386L1953 386L1953 119C1953 59 1967 -11 2036 -11C2106 -11 2157 14 2182 27L2166 86C2140 65 2108 53 2076 53C2039 53 2025 83 2025 136Z" stroke="rgb(0,0,0)" stroke-opacity="1" stroke-width="8" fill="rgb(0,0,0)" fill-opacity="1"></path></g></g></g></g></svg>