<svg xmlns="http://www.w3.org/2000/svg" xmlns:xlink="http://www.w3.org/1999/xlink" width="62.609375" height="47.171875" style="width:62.609375px;height:47.171875px;font-family:Asana-Math, Asana;background:#FFF;"><g><g><g><g transform="matrix(1,0,0,1,2,31.390625)"><path transform="matrix(0.017,0,0,-0.017,0,0)" d="M385 624L474 624C486 624 498 623 510 623L644 623L644 688L36 688L36 623L170 623C182 623 194 624 206 624L296 624L296 0L385 0Z" stroke="rgb(0,0,0)" stroke-opacity="1" stroke-width="8" fill="rgb(0,0,0)" fill-opacity="1"></path></g></g><g><g transform="matrix(1,0,0,1,22.875,31.390625)"><path transform="matrix(0.017,0,0,-0.017,0,0)" d="M604 347L604 406L65 406L65 347ZM604 134L604 193L65 193L65 134Z" stroke="rgb(0,0,0)" stroke-opacity="1" stroke-width="8" fill="rgb(0,0,0)" fill-opacity="1"></path></g></g><g><g><g><g><g transform="matrix(1,0,0,1,41.015625,19)"><path transform="matrix(0.017,0,0,-0.017,0,0)" d="M83 466C103 545 131 624 222 624C316 624 367 548 367 468C367 382 310 324 251 263L174 191L50 65L50 0L449 0L449 72L267 72C255 72 243 71 231 71L122 71C154 100 230 176 261 205C333 274 449 347 449 471C449 587 368 689 236 689C122 689 66 610 42 522C66 487 59 501 83 466ZM1024 42C968 42 963 125 964 166C965 251 993 333 1036 405L1098 418C1101 435 1107 452 1112 467C958 461 799 463 644 466C579 467 565 389 546 340C545 332 558 331 562 328L562 332C605 395 629 405 704 405L727 405C687 266 660 129 597 -2L597 -12C617 -6 652 1 669 13C710 141 739 274 767 405L994 405C937 318 896 213 894 108C894 59 909 -15 970 -15C1011 -15 1067 25 1097 51L1097 66L1085 66L1085 67C1067 56 1047 42 1024 42Z" stroke="rgb(0,0,0)" stroke-opacity="1" stroke-width="8" fill="rgb(0,0,0)" fill-opacity="1"></path></g></g></g></g><g><g><g><g transform="matrix(1,0,0,1,44.734375,44.78125)"><path transform="matrix(0.017,0,0,-0.017,0,0)" d="M656 325C650 363 619 458 566 458C551 458 525 441 512 434L513 423C564 392 587 338 596 284C611 189 579 17 462 17C403 17 389 73 382 119C372 185 375 252 387 315L376 324C356 317 335 309 314 304C324 217 331 16 211 16C148 16 125 81 117 129C93 278 140 388 269 443L275 452L264 463C116 428 15 301 41 137C55 50 97 -12 194 -12C249 -12 286 11 321 47L326 47C355 3 386 -12 436 -12C596 -12 679 181 656 325Z" stroke="rgb(0,0,0)" stroke-opacity="1" stroke-width="8" fill="rgb(0,0,0)" fill-opacity="1"></path></g></g></g></g><line style="fill:none;stroke-width:1px;stroke:rgb(0, 0, 0);" x1="41.015625" y1="27.140625" x2="60.609375" y2="27.140625"></line></g></g></g></svg>