<svg xmlns="http://www.w3.org/2000/svg" xmlns:xlink="http://www.w3.org/1999/xlink" width="156.375" height="90.34375" style="width:156.375px;height:90.34375px;font-family:Asana-Math, Asana;background:#FFF;"><g><g><g><g transform="matrix(1,0,0,1,22.1875,31.390625)"><path transform="matrix(0.017,0,0,-0.017,0,0)" d="M96 694L96 0L359 0C529 0 665 152 665 341C665 535 530 694 358 694ZM182 56L182 638L335 638C475 638 579 517 579 341C579 171 475 56 335 56Z" stroke="rgb(0,0,0)" stroke-opacity="1" stroke-width="8" fill="rgb(0,0,0)" fill-opacity="1"></path></g></g><g><g><g><g><g transform="matrix(1,0,0,1,34.953125,34.4)"><path transform="matrix(0.0119,0,0,-0.0119,0,0)" d="M281 272L449 444L359 444L156 236L156 694L84 694L84 0L153 0L153 141L233 224L389 0L471 0Z" stroke="rgb(0,0,0)" stroke-opacity="1" stroke-width="8" fill="rgb(0,0,0)" fill-opacity="1"></path></g></g></g></g></g><g><g transform="matrix(1,0,0,1,41.765625,31.390625)"><path transform="matrix(0.017,0,0,-0.017,0,0)" d="" stroke="rgb(0,0,0)" stroke-opacity="1" stroke-width="8" fill="rgb(0,0,0)" fill-opacity="1"></path></g></g><g><g transform="matrix(1,0,0,1,51.09375,31.390625)"><path transform="matrix(0.017,0,0,-0.017,0,0)" d="M604 347L604 406L65 406L65 347ZM604 134L604 193L65 193L65 134Z" stroke="rgb(0,0,0)" stroke-opacity="1" stroke-width="8" fill="rgb(0,0,0)" fill-opacity="1"></path></g></g><g><g transform="matrix(1,0,0,1,67.546875,31.390625)"><path transform="matrix(0.017,0,0,-0.017,0,0)" d="" stroke="rgb(0,0,0)" stroke-opacity="1" stroke-width="8" fill="rgb(0,0,0)" fill-opacity="1"></path></g></g><g><g><g><g><g transform="matrix(1,0,0,1,73.46875,19)"><path transform="matrix(0.017,0,0,-0.017,0,0)" d="M435 298C435 364 420 455 298 455C208 455 159 387 153 379L153 450L81 450L81 0L159 0L159 245C159 311 184 394 260 394C356 394 357 323 357 291L357 0L435 0ZM932 267L801 213L796 204L832 153L842 153L948 241L966 99L976 95L1044 121L1044 131L976 253L1114 233L1123 241L1123 303L1117 307L978 283L1047 408L1044 423L982 442L973 438L947 295L852 393L842 393L798 341L801 331ZM1682 272L1850 444L1760 444L1557 236L1557 694L1485 694L1485 0L1554 0L1554 141L1634 224L1790 0L1872 0Z" stroke="rgb(0,0,0)" stroke-opacity="1" stroke-width="8" fill="rgb(0,0,0)" fill-opacity="1"></path></g></g></g></g><g><g><g><g transform="matrix(1,0,0,1,81.03125,44.78125)"><path transform="matrix(0.017,0,0,-0.017,0,0)" d="M299 689L279 689C220 627 137 624 89 622L89 563C122 564 170 566 220 587L220 59L95 59L95 0L424 0L424 59L299 59ZM956 331C956 412 952 506 910 588C869 665 800 689 749 689C690 689 620 662 579 571C546 497 541 413 541 331C541 251 545 177 575 103C615 5 691 -22 748 -22C821 -22 884 19 916 89C946 155 956 223 956 331ZM749 40C697 40 656 78 636 151C620 209 619 264 619 343C619 407 619 468 636 524C642 544 667 627 748 627C826 627 852 550 859 531C878 475 878 406 878 343C878 276 878 212 860 148C834 56 781 40 749 40Z" stroke="rgb(0,0,0)" stroke-opacity="1" stroke-width="8" fill="rgb(0,0,0)" fill-opacity="1"></path></g></g></g></g><line style="fill:none;stroke-width:1px;stroke:rgb(0, 0, 0);" x1="73.46875" y1="27.140625" x2="105.578125" y2="27.140625"></line></g><g><g transform="matrix(1,0,0,1,107.265625,31.390625)"><path transform="matrix(0.017,0,0,-0.017,0,0)" d="M409 46C440 17 484 -11 544 -11C641 -11 729 87 729 223C729 343 666 455 570 455C510 455 452 434 406 395L406 444L331 444L331 -194L409 -194ZM409 333C433 368 472 391 515 391C591 391 651 315 651 223C651 120 580 50 505 50C466 50 439 70 419 97C409 112 409 114 409 132ZM1163 289C1163 391 1090 461 998 461C933 461 888 445 841 418L847 352C899 389 949 402 998 402C1045 402 1085 362 1085 288L1085 245C935 243 808 201 808 113C808 70 835 -11 922 -11C936 -11 1030 -9 1088 36L1088 0L1163 0ZM1085 132C1085 113 1085 88 1051 69C1022 51 984 50 973 50C925 50 880 73 880 115C880 185 1042 192 1085 194ZM1400 214C1400 314 1472 386 1570 388L1570 455C1481 454 1426 405 1395 359L1395 450L1325 450L1325 0L1400 0Z" stroke="rgb(0,0,0)" stroke-opacity="1" stroke-width="8" fill="rgb(0,0,0)" fill-opacity="1"></path></g></g></g><g><g><g transform="matrix(1,0,0,1,2,74.5625)"><path transform="matrix(0.017,0,0,-0.017,0,0)" d="M96 694L96 0L359 0C529 0 665 152 665 341C665 535 530 694 358 694ZM182 56L182 638L335 638C475 638 579 517 579 341C579 171 475 56 335 56Z" stroke="rgb(0,0,0)" stroke-opacity="1" stroke-width="8" fill="rgb(0,0,0)" fill-opacity="1"></path></g></g><g><g><g><g><g transform="matrix(1,0,0,1,14.765625,77.571875)"><path transform="matrix(0.0119,0,0,-0.0119,0,0)" d="M281 272L449 444L359 444L156 236L156 694L84 694L84 0L153 0L153 141L233 224L389 0L471 0Z" stroke="rgb(0,0,0)" stroke-opacity="1" stroke-width="8" fill="rgb(0,0,0)" fill-opacity="1"></path></g></g></g></g></g><g><g transform="matrix(1,0,0,1,21.578125,74.5625)"><path transform="matrix(0.017,0,0,-0.017,0,0)" d="" stroke="rgb(0,0,0)" stroke-opacity="1" stroke-width="8" fill="rgb(0,0,0)" fill-opacity="1"></path></g></g><g><g transform="matrix(1,0,0,1,30.90625,74.5625)"><path transform="matrix(0.017,0,0,-0.017,0,0)" d="M604 347L604 406L65 406L65 347ZM604 134L604 193L65 193L65 134Z" stroke="rgb(0,0,0)" stroke-opacity="1" stroke-width="8" fill="rgb(0,0,0)" fill-opacity="1"></path></g></g><g><g transform="matrix(1,0,0,1,47.359375,74.5625)"><path transform="matrix(0.017,0,0,-0.017,0,0)" d="" stroke="rgb(0,0,0)" stroke-opacity="1" stroke-width="8" fill="rgb(0,0,0)" fill-opacity="1"></path></g></g><g><g><g><g><g transform="matrix(1,0,0,1,53.28125,62.171875)"><path transform="matrix(0.017,0,0,-0.017,0,0)" d="M281 272L449 444L359 444L156 236L156 694L84 694L84 0L153 0L153 141L233 224L389 0L471 0Z" stroke="rgb(0,0,0)" stroke-opacity="1" stroke-width="8" fill="rgb(0,0,0)" fill-opacity="1"></path></g></g><g><g transform="matrix(1,0,0,1,61.5625,62.171875)"><path transform="matrix(0.017,0,0,-0.017,0,0)" d="M146 266C146 526 243 632 301 700L282 726C225 675 60 542 60 266C60 159 85 58 133 -32C168 -99 200 -138 282 -215L301 -194C255 -137 146 -15 146 266Z" stroke="rgb(0,0,0)" stroke-opacity="1" stroke-width="8" fill="rgb(0,0,0)" fill-opacity="1"></path></g></g><g><g transform="matrix(1,0,0,1,67.21875,62.171875)"><path transform="matrix(0.017,0,0,-0.017,0,0)" d="M435 298C435 364 420 455 298 455C208 455 159 387 153 379L153 450L81 450L81 0L159 0L159 245C159 311 184 394 260 394C356 394 357 323 357 291L357 0L435 0Z" stroke="rgb(0,0,0)" stroke-opacity="1" stroke-width="8" fill="rgb(0,0,0)" fill-opacity="1"></path></g></g><g><g transform="matrix(1,0,0,1,79.375,62.171875)"><path transform="matrix(0.017,0,0,-0.017,0,0)" d="M604 241L604 300L364 300L364 538L305 538L305 300L65 300L65 241L305 241L305 0L364 0L364 241Z" stroke="rgb(0,0,0)" stroke-opacity="1" stroke-width="8" fill="rgb(0,0,0)" fill-opacity="1"></path></g></g><g><g transform="matrix(1,0,0,1,94.125,62.171875)"><path transform="matrix(0.017,0,0,-0.017,0,0)" d="M299 689L279 689C220 627 137 624 89 622L89 563C122 564 170 566 220 587L220 59L95 59L95 0L424 0L424 59L299 59Z" stroke="rgb(0,0,0)" stroke-opacity="1" stroke-width="8" fill="rgb(0,0,0)" fill-opacity="1"></path></g></g><g><g transform="matrix(1,0,0,1,102.609375,62.171875)"><path transform="matrix(0.017,0,0,-0.017,0,0)" d="M51 726L32 700C87 636 187 526 187 266C187 -10 83 -131 32 -194L51 -215C104 -165 273 -23 273 265C273 542 108 675 51 726Z" stroke="rgb(0,0,0)" stroke-opacity="1" stroke-width="8" fill="rgb(0,0,0)" fill-opacity="1"></path></g></g></g></g><g><g><g><g transform="matrix(1,0,0,1,72.28125,87.953125)"><path transform="matrix(0.017,0,0,-0.017,0,0)" d="M299 689L279 689C220 627 137 624 89 622L89 563C122 564 170 566 220 587L220 59L95 59L95 0L424 0L424 59L299 59ZM956 331C956 412 952 506 910 588C869 665 800 689 749 689C690 689 620 662 579 571C546 497 541 413 541 331C541 251 545 177 575 103C615 5 691 -22 748 -22C821 -22 884 19 916 89C946 155 956 223 956 331ZM749 40C697 40 656 78 636 151C620 209 619 264 619 343C619 407 619 468 636 524C642 544 667 627 748 627C826 627 852 550 859 531C878 475 878 406 878 343C878 276 878 212 860 148C834 56 781 40 749 40Z" stroke="rgb(0,0,0)" stroke-opacity="1" stroke-width="8" fill="rgb(0,0,0)" fill-opacity="1"></path></g></g></g></g><line style="fill:none;stroke-width:1px;stroke:rgb(0, 0, 0);" x1="53.28125" y1="70.3125" x2="108.265625" y2="70.3125"></line></g><g><g transform="matrix(1,0,0,1,109.953125,74.5625)"><path transform="matrix(0.017,0,0,-0.017,0,0)" d="M412 680L323 680L323 591L412 591ZM405 444L330 444L330 0L405 0ZM1199 298C1199 365 1183 455 1062 455C1002 455 950 427 913 373C887 449 817 455 785 455C713 455 666 414 639 378L639 450L567 450L567 0L645 0L645 245C645 313 672 394 746 394C839 394 844 329 844 291L844 0L922 0L922 245C922 313 949 394 1023 394C1116 394 1121 329 1121 291L1121 0L1199 0ZM1439 46C1470 17 1514 -11 1574 -11C1671 -11 1759 87 1759 223C1759 343 1696 455 1600 455C1540 455 1482 434 1436 395L1436 444L1361 444L1361 -194L1439 -194ZM1439 333C1463 368 1502 391 1545 391C1621 391 1681 315 1681 223C1681 120 1610 50 1535 50C1496 50 1469 70 1449 97C1439 112 1439 114 1439 132ZM2193 289C2193 391 2120 461 2028 461C1963 461 1918 445 1871 418L1877 352C1929 389 1979 402 2028 402C2075 402 2115 362 2115 288L2115 245C1965 243 1838 201 1838 113C1838 70 1865 -11 1952 -11C1966 -11 2060 -9 2118 36L2118 0L2193 0ZM2115 132C2115 113 2115 88 2081 69C2052 51 2014 50 2003 50C1955 50 1910 73 1910 115C1910 185 2072 192 2115 194ZM2430 214C2430 314 2502 386 2600 388L2600 455C2511 454 2456 405 2425 359L2425 450L2355 450L2355 0L2430 0Z" stroke="rgb(0,0,0)" stroke-opacity="1" stroke-width="8" fill="rgb(0,0,0)" fill-opacity="1"></path></g></g></g></g></svg>