<svg version="1.1" xmlns="http://www.w3.org/2000/svg" viewBox="0 0 438.4034036727156 312.23850033470734" width="876.8068073454313" height="624.4770006694147">
  <!-- svg-source:excalidraw -->
  
  <defs>
    <style>
      @font-face {
        font-family: "Virgil";
        src: url("https://excalidraw.com/Virgil.woff2");
      }
      @font-face {
        font-family: "Cascadia";
        src: url("https://excalidraw.com/Cascadia.woff2");
      }
    </style>
  </defs>
  <g transform="translate(54.65904730083787 15.664443401631601) rotate(0 55 11.5)"><text x="55" y="18" font-family="Helvetica, Segoe UI Emoji" font-size="20px" fill="#000000" text-anchor="middle" style="white-space: pre;" direction="ltr">Cu + HNO3 </text></g><g transform="translate(200.15904730083787 16.6644434016316) rotate(0 104.5 11.5)"><text x="104.5" y="18" font-family="Helvetica, Segoe UI Emoji" font-size="20px" fill="#000000" text-anchor="middle" style="white-space: pre;" direction="ltr">Cu(NO3)2 + H2O + NO</text></g><g stroke-linecap="round"><g transform="translate(167.5335785848912 28.755519774752415) rotate(0 13.368675246882958 0)"><path d="M0 0 C4.46 0, 22.28 0, 26.74 0 M0 0 C4.46 0, 22.28 0, 26.74 0" stroke="#000000" stroke-width="1" fill="none"></path></g><g transform="translate(167.5335785848912 28.755519774752415) rotate(0 13.368675246882958 0)"><path d="M14.17 4.57 C19.11 2.78, 24.04 0.98, 26.74 0 M14.17 4.57 C17.5 3.36, 20.82 2.15, 26.74 0" stroke="#000000" stroke-width="1" fill="none"></path></g><g transform="translate(167.5335785848912 28.755519774752415) rotate(0 13.368675246882958 0)"><path d="M14.17 -4.57 C19.11 -2.78, 24.04 -0.98, 26.74 0 M14.17 -4.57 C17.5 -3.36, 20.82 -2.15, 26.74 0" stroke="#000000" stroke-width="1" fill="none"></path></g></g><g transform="translate(76.54047834818459 12.138684452786904) rotate(0 2.7919605448091147 5.025528980656418)"><text x="2.7919605448091196" y="8.051057961312836" font-family="Helvetica, Segoe UI Emoji" font-size="8.934273743389184px" fill="#000000" text-anchor="middle" style="white-space: pre;" direction="ltr">0</text></g><g transform="translate(105.34360620260315 10) rotate(0 21 5)"><text x="21" y="8" font-family="Helvetica, Segoe UI Emoji" font-size="8.934273743389184px" fill="#000000" text-anchor="middle" style="white-space: pre;" direction="ltr">+1  +5   -2</text></g><g transform="translate(216.23091066684913 12.890524377704395) rotate(0 5.5 5)"><text x="5.5" y="8" font-family="Helvetica, Segoe UI Emoji" font-size="8.934273743389184px" fill="#000000" text-anchor="middle" style="white-space: pre;" direction="ltr">+2</text></g><g transform="translate(236.13615444389347 10.722631094426077) rotate(0 14.5 5)"><text x="14.5" y="8" font-family="Helvetica, Segoe UI Emoji" font-size="8.934273743389184px" fill="#000000" text-anchor="middle" style="white-space: pre;" direction="ltr">+5    -2</text></g><g transform="translate(316.01609920846965 10.722631094426063) rotate(0 17 5)"><text x="17" y="8" font-family="Helvetica, Segoe UI Emoji" font-size="8.934273743389184px" fill="#000000" text-anchor="middle" style="white-space: pre;" direction="ltr">+1      -2</text></g><g transform="translate(379.21711114026255 10.748160075082495) rotate(0 14.5 5)"><text x="14.5" y="8" font-family="Helvetica, Segoe UI Emoji" font-size="8.934273743389184px" fill="#000000" text-anchor="middle" style="white-space: pre;" direction="ltr">+2    -2</text></g><g transform="translate(174.9972400229184 70.89443419572764) rotate(0 26.5 9)"><text x="26.5" y="14" font-family="Helvetica, Segoe UI Emoji" font-size="16px" fill="#000000" text-anchor="middle" style="white-space: pre;" direction="ltr">Cu - 2e</text></g><g transform="translate(261.09245618225066 72.33969638457985) rotate(0 10.5 9)"><text x="10.5" y="14" font-family="Helvetica, Segoe UI Emoji" font-size="16px" fill="#000000" text-anchor="middle" style="white-space: pre;" direction="ltr">Cu</text></g><g transform="translate(191.8294744997446 63.66812325146657) rotate(0 2.7919605448091147 5.025528980656418)"><text x="2.7919605448091196" y="8.051057961312836" font-family="Helvetica, Segoe UI Emoji" font-size="8.934273743389184px" fill="#000000" text-anchor="middle" style="white-space: pre;" direction="ltr">0</text></g><g transform="translate(268.9829805599551 66.39075434589269) rotate(0 5.5 5)"><text x="5.5" y="8" font-family="Helvetica, Segoe UI Emoji" font-size="8.934273743389184px" fill="#000000" text-anchor="middle" style="white-space: pre;" direction="ltr">+2</text></g><g stroke-linecap="round"><g transform="translate(232.57037708324094 80.06232747900596) rotate(0 10.597770450477753 0)"><path d="M0 0 C0 0, -3.82 0, 0 0 C3.82 0, 19.08 0, 22.89 0 M0 0 C0 0, -3.82 0, 0 0 C3.82 0, 19.08 0, 22.89 0" stroke="#000000" stroke-width="1" fill="none"></path></g><g transform="translate(232.57037708324094 80.06232747900596) rotate(0 10.597770450477753 0)"><path d="M12.14 3.91 C14.4 3.09, 16.67 2.27, 22.89 0 M12.14 3.91 C15.68 2.63, 19.22 1.34, 22.89 0" stroke="#000000" stroke-width="1" fill="none"></path></g><g transform="translate(232.57037708324094 80.06232747900596) rotate(0 10.597770450477753 0)"><path d="M12.14 -3.91 C14.4 -3.09, 16.67 -2.27, 22.89 0 M12.14 -3.91 C15.68 -2.63, 19.22 -1.34, 22.89 0" stroke="#000000" stroke-width="1" fill="none"></path></g></g><g transform="translate(174.80772757700686 116.61361540850704) rotate(0 54.5 9)"><text x="54.5" y="14" font-family="Helvetica, Segoe UI Emoji" font-size="16px" fill="#000000" text-anchor="middle" style="white-space: pre;" direction="ltr">NO3 + 3e + 4H</text></g><g transform="translate(178.2272308170144 111.38730446424599) rotate(0 7 5)"><text x="7" y="8" font-family="Helvetica, Segoe UI Emoji" font-size="8.934273743389184px" fill="#000000" text-anchor="middle" style="white-space: pre;" direction="ltr">+5 </text></g><g transform="translate(313.99080019600194 117.50413978621147) rotate(0 42.5 9)"><text x="42.5" y="14" font-family="Helvetica, Segoe UI Emoji" font-size="16px" fill="#000000" text-anchor="middle" style="white-space: pre;" direction="ltr">NO + 2H2O</text></g><g transform="translate(317.74976985240085 110.66467336981988) rotate(0 5.5 5)"><text x="5.5" y="8" font-family="Helvetica, Segoe UI Emoji" font-size="8.934273743389184px" fill="#000000" text-anchor="middle" style="white-space: pre;" direction="ltr">+2</text></g><g transform="translate(164.99356017308344 66.52575894884467) rotate(0 -0.3613155472130529 12.646044152456852)" stroke="none"><path fill="#000000" d="M 1.98,0.99 Q 1.98,0.99 0.83,3.01 -0.30,5.03 -0.97,6.98 -1.65,8.93 -1.92,10.74 -2.19,12.54 -2.26,14.12 -2.34,15.71 -1.94,16.72 -1.54,17.73 -0.85,18.87 -0.17,20.00 2.43,21.78 5.05,23.55 5.29,23.83 5.53,24.10 5.67,24.44 5.80,24.78 5.83,25.14 5.85,25.51 5.76,25.86 5.66,26.21 5.46,26.52 5.26,26.82 4.97,27.04 4.69,27.27 4.34,27.39 4.00,27.51 3.63,27.51 3.27,27.52 2.92,27.40 2.57,27.29 2.28,27.07 1.99,26.85 1.78,26.55 1.57,26.26 1.47,25.90 1.37,25.55 1.39,25.19 1.40,24.83 1.53,24.49 1.66,24.15 1.90,23.87 2.13,23.58 2.44,23.39 2.75,23.20 3.11,23.12 3.46,23.04 3.83,23.07 4.19,23.11 4.52,23.26 4.85,23.41 5.12,23.66 5.39,23.90 5.56,24.22 5.74,24.55 5.80,24.90 5.86,25.26 5.81,25.62 5.75,25.98 5.58,26.31 5.42,26.63 5.15,26.89 4.89,27.14 4.56,27.30 4.23,27.45 3.87,27.50 3.51,27.54 3.15,27.46 2.80,27.39 2.48,27.20 2.17,27.02 2.17,27.02 2.17,27.02 0.71,25.71 -0.74,24.39 -2.15,23.25 -3.57,22.11 -4.44,20.46 -5.32,18.80 -5.65,17.16 -5.98,15.52 -5.82,13.78 -5.66,12.05 -5.37,9.97 -5.09,7.89 -4.47,5.58 -3.84,3.27 -2.91,1.14 -1.98,-0.99 -1.83,-1.21 -1.68,-1.43 -1.49,-1.61 -1.29,-1.79 -1.06,-1.92 -0.82,-2.05 -0.56,-2.12 -0.31,-2.19 -0.04,-2.20 0.22,-2.20 0.48,-2.14 0.74,-2.08 0.98,-1.96 1.22,-1.84 1.42,-1.67 1.63,-1.50 1.78,-1.28 1.94,-1.06 2.04,-0.82 2.14,-0.57 2.17,-0.30 2.21,-0.04 2.18,0.22 2.16,0.48 2.07,0.74 1.98,0.99 1.98,0.99 L 1.98,0.99 Z"></path></g><g transform="translate(166.43882236193565 110.60625570883714) rotate(0 -3.2518399249174763 14.091306341309078)" stroke="none"><path fill="#000000" d="M 0,1.92 Q 0,1.92 -1.18,1.98 -2.37,2.03 -3.86,3.59 -5.34,5.14 -5.70,6.72 -6.06,8.31 -6.33,10.47 -6.59,12.64 -6.74,14.80 -6.89,16.97 -6.37,18.70 -5.86,20.43 -4.87,21.64 -3.88,22.86 -2.84,23.74 -1.80,24.62 0.46,25.37 2.73,26.12 3.05,26.26 3.36,26.41 3.61,26.65 3.86,26.88 4.03,27.19 4.19,27.49 4.24,27.84 4.30,28.18 4.24,28.52 4.19,28.86 4.03,29.16 3.86,29.47 3.61,29.71 3.36,29.95 3.05,30.09 2.74,30.24 2.39,30.27 2.05,30.31 1.71,30.24 1.37,30.16 1.08,29.98 0.78,29.81 0.56,29.54 0.33,29.28 0.20,28.96 0.08,28.64 0.06,28.29 0.04,27.95 0.13,27.61 0.22,27.28 0.42,26.99 0.61,26.71 0.89,26.50 1.16,26.29 1.49,26.18 1.82,26.07 2.16,26.07 2.51,26.07 2.84,26.18 3.16,26.29 3.44,26.50 3.71,26.71 3.91,26.99 4.10,27.28 4.19,27.61 4.29,27.95 4.27,28.29 4.25,28.64 4.12,28.96 3.99,29.28 3.77,29.54 3.55,29.81 3.25,29.98 2.95,30.16 2.62,30.24 2.28,30.31 1.94,30.27 1.59,30.24 1.59,30.24 1.59,30.24 -0.41,29.53 -2.42,28.83 -3.35,28.02 -4.28,27.22 -5.41,26.02 -6.53,24.82 -7.70,23.11 -8.88,21.39 -9.53,19.14 -10.19,16.90 -10.17,14.61 -10.15,12.33 -10.01,9.87 -9.87,7.42 -9.28,4.99 -8.70,2.56 -7.28,0.96 -5.87,-0.63 -4.24,-1.33 -2.61,-2.03 -1.30,-1.98 0,-1.92 0.23,-1.89 0.46,-1.87 0.67,-1.78 0.89,-1.70 1.08,-1.57 1.27,-1.44 1.43,-1.26 1.58,-1.09 1.69,-0.88 1.80,-0.68 1.85,-0.45 1.91,-0.23 1.91,0.00 1.91,0.23 1.85,0.45 1.80,0.68 1.69,0.88 1.58,1.09 1.43,1.26 1.27,1.44 1.08,1.57 0.89,1.70 0.67,1.78 0.46,1.87 0.23,1.89 -0.00,1.92 -0.00,1.92 L 0,1.92 Z"></path></g><g transform="translate(406.3523457114028 112.77414899211546) rotate(0 0.3613155472130529 13.729990794096025)" stroke="none"><path fill="#000000" d="M 1.43,-1.43 Q 1.43,-1.43 2.85,0.09 4.27,1.63 5.21,4.02 6.16,6.42 6.51,8.95 6.85,11.48 6.97,13.80 7.08,16.12 6.48,18.36 5.88,20.60 4.99,22.27 4.11,23.94 3.06,25.19 2.02,26.44 0.85,27.30 -0.31,28.16 -2.51,28.84 -4.70,29.52 -5.04,29.52 -5.38,29.52 -5.70,29.42 -6.02,29.31 -6.30,29.11 -6.57,28.90 -6.76,28.62 -6.95,28.34 -7.04,28.02 -7.13,27.69 -7.12,27.35 -7.10,27.02 -6.98,26.70 -6.85,26.38 -6.64,26.13 -6.42,25.87 -6.13,25.69 -5.84,25.51 -5.51,25.44 -5.18,25.36 -4.84,25.40 -4.50,25.43 -4.20,25.57 -3.89,25.72 -3.64,25.95 -3.39,26.18 -3.23,26.48 -3.07,26.78 -3.02,27.11 -2.96,27.44 -3.01,27.78 -3.07,28.11 -3.22,28.41 -3.38,28.71 -3.62,28.95 -3.87,29.18 -4.18,29.33 -4.48,29.47 -4.82,29.51 -5.16,29.55 -5.49,29.48 -5.82,29.40 -6.11,29.23 -6.40,29.06 -6.62,28.80 -6.84,28.54 -6.97,28.23 -7.10,27.92 -7.12,27.58 -7.14,27.24 -7.05,26.91 -6.96,26.59 -6.77,26.30 -6.58,26.02 -6.31,25.82 -6.04,25.61 -5.72,25.50 -5.40,25.39 -5.40,25.39 -5.40,25.39 -2.97,24.67 -0.54,23.95 0.38,23.12 1.32,22.29 2.16,21.02 3.00,19.76 3.51,18.01 4.03,16.27 3.85,14.11 3.66,11.96 3.30,9.82 2.95,7.68 2.25,5.93 1.54,4.18 0.05,2.81 -1.43,1.43 -1.58,1.24 -1.74,1.05 -1.84,0.82 -1.94,0.60 -1.98,0.36 -2.02,0.12 -2.01,-0.12 -2.00,-0.36 -1.92,-0.60 -1.85,-0.83 -1.72,-1.04 -1.60,-1.25 -1.42,-1.42 -1.25,-1.60 -1.04,-1.72 -0.83,-1.85 -0.60,-1.92 -0.36,-2.00 -0.12,-2.01 0.12,-2.02 0.36,-1.98 0.60,-1.94 0.82,-1.84 1.05,-1.74 1.24,-1.58 1.43,-1.43 1.43,-1.43 L 1.43,-1.43 Z"></path></g><g transform="translate(287.490340259625 63.441812307205524) rotate(0 3.974471019343582 17.343146266226555)" stroke="none"><path fill="#000000" d="M 1.54,-1.16 Q 1.54,-1.16 2.74,0.54 3.93,2.25 4.92,4.61 5.90,6.97 6.70,9.42 7.50,11.88 8.04,14.21 8.58,16.54 8.81,18.85 9.03,21.16 8.73,23.33 8.42,25.49 8.13,27.20 7.85,28.92 7.57,30.32 7.29,31.72 6.25,33.74 5.21,35.75 4.99,35.98 4.78,36.21 4.51,36.35 4.23,36.50 3.93,36.55 3.62,36.61 3.31,36.56 3.00,36.51 2.73,36.36 2.45,36.22 2.24,35.99 2.02,35.77 1.89,35.49 1.76,35.21 1.72,34.90 1.69,34.59 1.75,34.28 1.82,33.98 1.98,33.71 2.13,33.44 2.37,33.24 2.61,33.04 2.90,32.92 3.18,32.80 3.50,32.79 3.81,32.77 4.11,32.85 4.41,32.93 4.67,33.10 4.92,33.28 5.11,33.52 5.30,33.77 5.40,34.07 5.51,34.36 5.51,34.67 5.51,34.98 5.41,35.28 5.31,35.57 5.13,35.82 4.94,36.07 4.68,36.25 4.43,36.42 4.13,36.51 3.83,36.59 3.52,36.58 3.20,36.56 2.91,36.45 2.62,36.34 2.39,36.13 2.15,35.93 1.99,35.67 1.82,35.40 1.76,35.10 1.69,34.80 1.72,34.49 1.75,34.18 1.88,33.89 2.01,33.61 2.01,33.61 2.01,33.61 2.93,32.21 3.86,30.81 4.29,29.54 4.71,28.28 5.11,26.65 5.51,25.03 5.83,23.24 6.16,21.45 5.91,19.35 5.67,17.25 5.10,15.07 4.53,12.90 3.69,10.60 2.85,8.31 1.95,6.35 1.05,4.39 -0.24,2.77 -1.54,1.16 -1.66,0.95 -1.78,0.75 -1.84,0.53 -1.90,0.30 -1.91,0.07 -1.92,-0.15 -1.88,-0.38 -1.83,-0.61 -1.73,-0.82 -1.63,-1.03 -1.48,-1.21 -1.33,-1.39 -1.15,-1.53 -0.96,-1.67 -0.75,-1.76 -0.53,-1.85 -0.30,-1.89 -0.07,-1.93 0.15,-1.91 0.38,-1.89 0.60,-1.82 0.83,-1.74 1.02,-1.62 1.22,-1.49 1.38,-1.32 1.54,-1.16 1.54,-1.16 L 1.54,-1.16 Z"></path></g><g transform="translate(131.0883163960392 71.08785645966236) rotate(0 5 9)"><text x="5" y="14" font-family="Helvetica, Segoe UI Emoji" font-size="16px" fill="#000000" text-anchor="middle" style="white-space: pre;" direction="ltr">3</text></g><g transform="translate(129.643054207187 120.94940197506368) rotate(0 5 9)"><text x="5" y="14" font-family="Helvetica, Segoe UI Emoji" font-size="16px" fill="#000000" text-anchor="middle" style="white-space: pre;" direction="ltr">2</text></g><g transform="translate(160.93882236193565 162.66858318784318) rotate(0 35.5 9)"><text x="35.5" y="14" font-family="Helvetica, Segoe UI Emoji" font-size="16px" fill="#000000" text-anchor="middle" style="white-space: pre;" direction="ltr">3Cu  - 6e </text></g><g stroke-linecap="round"><g transform="translate(232.9316926304541 172.5591075655476) rotate(0 8.287761077411687 0)"><path d="M0 0 C0 0, -2.98 0, 0 0 C2.98 0, 14.92 0, 17.9 0 M0 0 C0 0, -2.98 0, 0 0 C2.98 0, 14.92 0, 17.9 0" stroke="#000000" stroke-width="1" fill="none"></path></g><g transform="translate(232.9316926304541 172.5591075655476) rotate(0 8.287761077411687 0)"><path d="M9.49 3.06 C11.56 2.31, 13.62 1.56, 17.9 0 M9.49 3.06 C12.08 2.12, 14.66 1.18, 17.9 0" stroke="#000000" stroke-width="1" fill="none"></path></g><g transform="translate(232.9316926304541 172.5591075655476) rotate(0 8.287761077411687 0)"><path d="M9.49 -3.06 C11.56 -2.31, 13.62 -1.56, 17.9 0 M9.49 -3.06 C12.08 -2.12, 14.66 -1.18, 17.9 0" stroke="#000000" stroke-width="1" fill="none"></path></g></g><g transform="translate(262.3735049376595 164.2817386599737) rotate(0 15 9)"><text x="15" y="14" font-family="Helvetica, Segoe UI Emoji" font-size="16px" fill="#000000" text-anchor="middle" style="white-space: pre;" direction="ltr">3Cu</text></g><g transform="translate(299.6018857750262 199.77460892849206) rotate(0 47 9)"><text x="47" y="14" font-family="Helvetica, Segoe UI Emoji" font-size="16px" fill="#000000" text-anchor="middle" style="white-space: pre;" direction="ltr">2NO + 4H2O</text></g><g transform="translate(192.20159962827415 161.75252982948234) rotate(0 2.7919605448091147 5.025528980656418)"><text x="2.7919605448091196" y="8.051057961312836" font-family="Helvetica, Segoe UI Emoji" font-size="8.934273743389184px" fill="#000000" text-anchor="middle" style="white-space: pre;" direction="ltr">0</text></g><g transform="translate(288.49402010946005 157.44227224358212) rotate(0 5.5 5)"><text x="5.5" y="8" font-family="Helvetica, Segoe UI Emoji" font-size="8.934273743389184px" fill="#000000" text-anchor="middle" style="white-space: pre;" direction="ltr">+2</text></g><g transform="translate(148.24884997964773 192.1285647760352) rotate(0 7 5)"><text x="7" y="8" font-family="Helvetica, Segoe UI Emoji" font-size="8.934273743389184px" fill="#000000" text-anchor="middle" style="white-space: pre;" direction="ltr">+5 </text></g><g transform="translate(314.50873950879986 190.683302587183) rotate(0 5.5 5)"><text x="5.5" y="8" font-family="Helvetica, Segoe UI Emoji" font-size="8.934273743389184px" fill="#000000" text-anchor="middle" style="white-space: pre;" direction="ltr">+2</text></g><g stroke-linecap="round"><g transform="translate(23.729990794096068 229.64696402521002) rotate(0 202.33670643930978 -0.7226310944261058)"><path d="M0 0 C67.45 -0.24, 337.23 -1.2, 404.67 -1.45 M0 0 C67.45 -0.24, 337.23 -1.2, 404.67 -1.45" stroke="#000000" stroke-width="1" fill="none"></path></g></g><g stroke-opacity="0.4" fill-opacity="0.4" transform="translate(192.82566688980512 210.85855557013122) rotate(0 9.394204227539376 -3.974471019343582)" stroke="none"><path fill="#000000" d="M -0.83,-1.88 Q -0.83,-1.88 1.06,-2.64 2.96,-3.40 5.01,-4.29 7.06,-5.19 9.26,-5.99 11.45,-6.79 13.14,-7.55 14.83,-8.32 16.51,-9.00 18.18,-9.69 18.47,-9.74 18.77,-9.79 19.06,-9.75 19.36,-9.70 19.62,-9.56 19.89,-9.42 20.10,-9.21 20.30,-8.99 20.43,-8.72 20.56,-8.45 20.60,-8.16 20.63,-7.86 20.57,-7.57 20.51,-7.27 20.35,-7.02 20.20,-6.76 19.98,-6.56 19.75,-6.37 19.47,-6.26 19.20,-6.14 18.90,-6.12 18.60,-6.10 18.31,-6.18 18.02,-6.26 17.77,-6.43 17.52,-6.59 17.34,-6.83 17.16,-7.06 17.06,-7.35 16.96,-7.63 16.96,-7.93 16.96,-8.23 17.05,-8.51 17.14,-8.80 17.32,-9.04 17.50,-9.28 17.75,-9.45 17.99,-9.62 18.28,-9.70 18.57,-9.78 18.87,-9.77 19.17,-9.75 19.44,-9.64 19.72,-9.54 19.95,-9.34 20.18,-9.15 20.34,-8.90 20.49,-8.64 20.56,-8.35 20.63,-8.06 20.60,-7.76 20.57,-7.46 20.45,-7.19 20.32,-6.92 20.12,-6.70 19.91,-6.48 19.65,-6.34 19.39,-6.20 19.39,-6.20 19.39,-6.20 17.78,-5.75 16.17,-5.30 14.41,-4.53 12.64,-3.75 10.61,-2.89 8.57,-2.03 6.54,-0.97 4.51,0.08 2.67,0.98 0.83,1.88 0.60,1.95 0.36,2.03 0.11,2.04 -0.13,2.05 -0.37,2.01 -0.62,1.96 -0.84,1.86 -1.07,1.76 -1.27,1.60 -1.46,1.45 -1.61,1.25 -1.77,1.05 -1.87,0.83 -1.97,0.60 -2.01,0.35 -2.06,0.11 -2.04,-0.13 -2.02,-0.38 -1.95,-0.61 -1.87,-0.85 -1.74,-1.06 -1.61,-1.28 -1.44,-1.45 -1.26,-1.63 -1.05,-1.75 -0.83,-1.88 -0.83,-1.88 L -0.83,-1.88 Z"></path></g><g stroke-opacity="0.4" fill-opacity="0.4" transform="translate(209.44618206160533 179.78541850980866) rotate(0 8.67157313311327 -5.781048755408847)" stroke="none"><path fill="#000000" d="M -1.65,-1.65 Q -1.65,-1.65 -0.62,-2.70 0.41,-3.74 2.07,-4.88 3.72,-6.02 5.48,-7.06 7.25,-8.10 8.84,-8.99 10.44,-9.87 11.67,-10.67 12.90,-11.47 15.24,-12.58 17.57,-13.70 17.93,-13.72 18.28,-13.74 18.63,-13.65 18.97,-13.56 19.27,-13.36 19.56,-13.16 19.78,-12.88 20.00,-12.60 20.11,-12.26 20.23,-11.93 20.23,-11.57 20.23,-11.22 20.12,-10.88 20.01,-10.54 19.80,-10.26 19.58,-9.97 19.29,-9.77 19.00,-9.57 18.65,-9.47 18.31,-9.37 17.96,-9.39 17.60,-9.41 17.27,-9.54 16.94,-9.67 16.67,-9.90 16.39,-10.12 16.21,-10.43 16.02,-10.73 15.95,-11.08 15.87,-11.42 15.90,-11.78 15.94,-12.13 16.09,-12.46 16.23,-12.78 16.48,-13.04 16.72,-13.30 17.03,-13.47 17.35,-13.64 17.70,-13.70 18.05,-13.75 18.40,-13.70 18.75,-13.64 19.06,-13.48 19.38,-13.31 19.63,-13.06 19.87,-12.80 20.02,-12.48 20.17,-12.16 20.22,-11.80 20.26,-11.45 20.18,-11.10 20.11,-10.76 19.93,-10.45 19.74,-10.14 19.47,-9.91 19.21,-9.68 18.88,-9.55 18.55,-9.41 18.55,-9.41 18.55,-9.41 16.83,-8.65 15.11,-7.88 13.78,-7.10 12.45,-6.32 10.97,-5.47 9.49,-4.61 7.92,-3.50 6.34,-2.38 5.04,-1.39 3.74,-0.40 2.70,0.62 1.65,1.65 1.43,1.83 1.21,2.00 0.95,2.12 0.69,2.24 0.41,2.29 0.14,2.34 -0.14,2.32 -0.42,2.30 -0.69,2.22 -0.96,2.13 -1.20,1.99 -1.44,1.84 -1.64,1.64 -1.84,1.44 -1.99,1.20 -2.14,0.96 -2.22,0.69 -2.30,0.42 -2.32,0.14 -2.34,-0.14 -2.29,-0.42 -2.24,-0.69 -2.12,-0.95 -2.00,-1.21 -1.83,-1.43 -1.65,-1.65 -1.65,-1.65 L -1.65,-1.65 Z"></path></g><g transform="translate(316.52610381142165 238.50287478176477) rotate(0 5.5 5)"><text x="5.5" y="8" font-family="Helvetica, Segoe UI Emoji" font-size="8.934273743389184px" fill="#000000" text-anchor="middle" style="white-space: pre;" direction="ltr">+2</text></g><g transform="translate(256.9576815474867 245.93905233012373) rotate(0 71 9)"><text x="71" y="14" font-family="Helvetica, Segoe UI Emoji" font-size="16px" fill="#000000" text-anchor="middle" style="white-space: pre;" direction="ltr">3Cu + 2NO + 4H2O</text></g><g transform="translate(280.54507807077243 239.82221700815825) rotate(0 5.5 5)"><text x="5.5" y="8" font-family="Helvetica, Segoe UI Emoji" font-size="8.934273743389184px" fill="#000000" text-anchor="middle" style="white-space: pre;" direction="ltr">+2</text></g><g transform="translate(106.00045993637639 241.24195021635404) rotate(0 3 5)"><text x="3" y="8" font-family="Helvetica, Segoe UI Emoji" font-size="8.934273743389184px" fill="#000000" text-anchor="middle" style="white-space: pre;" direction="ltr">0</text></g><g transform="translate(141.02253903538622 240.54484810258435) rotate(0 7 5)"><text x="7" y="8" font-family="Helvetica, Segoe UI Emoji" font-size="8.934273743389184px" fill="#000000" text-anchor="middle" style="white-space: pre;" direction="ltr">+5 </text></g><g transform="translate(59.613615408507144 284.23850033470734) rotate(0 53 9)"><text x="53" y="14" font-family="Helvetica, Segoe UI Emoji" font-size="16px" fill="#000000" text-anchor="middle" style="white-space: pre;" direction="ltr">3Cu + 8HNO3 </text></g><g transform="translate(215.7824285645387 283.5158692402813) rotate(0 97 9)"><text x="97" y="14" font-family="Helvetica, Segoe UI Emoji" font-size="16px" fill="#000000" text-anchor="middle" style="white-space: pre;" direction="ltr">3Cu(NO3)2 + 4H2O + 2NO</text></g><g stroke-linecap="round"><g transform="translate(166.08831639603898 291.7932381458551) rotate(0 21.317617285570122 0.3613155472130529)"><path d="M0 0 C4.03 0.06, 17.1 0.24, 24.21 0.36 C31.31 0.48, 39.56 0.66, 42.64 0.72 M0 0 C4.03 0.06, 17.1 0.24, 24.21 0.36 C31.31 0.48, 39.56 0.66, 42.64 0.72" stroke="#000000" stroke-width="1" fill="none"></path></g><g transform="translate(166.08831639603898 291.7932381458551) rotate(0 21.317617285570122 0.3613155472130529)"><path d="M33.91 3.7 C36.99 2.65, 40.08 1.6, 42.64 0.72 M33.91 3.7 C35.89 3.02, 37.87 2.35, 42.64 0.72" stroke="#000000" stroke-width="1" fill="none"></path></g><g transform="translate(166.08831639603898 291.7932381458551) rotate(0 21.317617285570122 0.3613155472130529)"><path d="M34.04 -2.61 C37.08 -1.43, 40.11 -0.25, 42.64 0.72 M34.04 -2.61 C35.99 -1.85, 37.94 -1.1, 42.64 0.72" stroke="#000000" stroke-width="1" fill="none"></path></g></g><g stroke-linecap="round"><g transform="translate(10 293.96113142913345) rotate(0 14.09130634130912 -0.18065777360652646)"><path d="M0 0 C1.14 -0.06, 2.17 -0.36, 6.86 -0.36 C11.56 -0.36, 24.63 -0.06, 28.18 0 M0 0 C1.14 -0.06, 2.17 -0.36, 6.86 -0.36 C11.56 -0.36, 24.63 -0.06, 28.18 0" stroke="#c92a2a" stroke-width="1" fill="none"></path></g><g transform="translate(10 293.96113142913345) rotate(0 14.09130634130912 -0.18065777360652646)"><path d="M18.09 3.45 C21.27 2.36, 24.44 1.28, 28.18 0 M18.09 3.45 C20.93 2.48, 23.76 1.51, 28.18 0" stroke="#c92a2a" stroke-width="1" fill="none"></path></g><g transform="translate(10 293.96113142913345) rotate(0 14.09130634130912 -0.18065777360652646)"><path d="M18.24 -3.84 C21.37 -2.63, 24.5 -1.42, 28.18 0 M18.24 -3.84 C21.03 -2.76, 23.82 -1.69, 28.18 0" stroke="#c92a2a" stroke-width="1" fill="none"></path></g></g><g transform="translate(133.27092907865733 197.52276900357458) rotate(0 61 9)"><text x="61" y="14" font-family="Helvetica, Segoe UI Emoji" font-size="16px" fill="#000000" text-anchor="middle" style="white-space: pre;" direction="ltr">2NO3 + 6e + 8H </text></g><g stroke-linecap="round"><g transform="translate(265.5321985963503 205.80013790914848) rotate(0 8.287761077411687 0)"><path d="M0 0 C0 0, -2.98 0, 0 0 C2.98 0, 14.92 0, 17.9 0 M0 0 C0 0, -2.98 0, 0 0 C2.98 0, 14.92 0, 17.9 0" stroke="#000000" stroke-width="1" fill="none"></path></g><g transform="translate(265.5321985963503 205.80013790914848) rotate(0 8.287761077411687 0)"><path d="M9.49 3.06 C12.23 2.07, 14.96 1.07, 17.9 0 M9.49 3.06 C11.4 2.37, 13.31 1.67, 17.9 0" stroke="#000000" stroke-width="1" fill="none"></path></g><g transform="translate(265.5321985963503 205.80013790914848) rotate(0 8.287761077411687 0)"><path d="M9.49 -3.06 C12.23 -2.07, 14.96 -1.07, 17.9 0 M9.49 -3.06 C11.4 -2.37, 13.31 -1.67, 17.9 0" stroke="#000000" stroke-width="1" fill="none"></path></g></g><g stroke-linecap="round"><g transform="translate(287.60684568392674 125.58808642785066) rotate(0 10.597770450477753 0)"><path d="M0 0 C0 0, -3.82 0, 0 0 C3.82 0, 19.08 0, 22.89 0 M0 0 C0 0, -3.82 0, 0 0 C3.82 0, 19.08 0, 22.89 0" stroke="#000000" stroke-width="1" fill="none"></path></g><g transform="translate(287.60684568392674 125.58808642785066) rotate(0 10.597770450477753 0)"><path d="M12.14 3.91 C16.1 2.47, 20.07 1.03, 22.89 0 M12.14 3.91 C15.1 2.83, 18.07 1.75, 22.89 0" stroke="#000000" stroke-width="1" fill="none"></path></g><g transform="translate(287.60684568392674 125.58808642785066) rotate(0 10.597770450477753 0)"><path d="M12.14 -3.91 C16.1 -2.47, 20.07 -1.03, 22.89 0 M12.14 -3.91 C15.1 -2.83, 18.07 -1.75, 22.89 0" stroke="#000000" stroke-width="1" fill="none"></path></g></g><g transform="translate(78.85464575210801 245.93905233012373) rotate(0 67 9)"><text x="67" y="14" font-family="Helvetica, Segoe UI Emoji" font-size="16px" fill="#000000" text-anchor="middle" style="white-space: pre;" direction="ltr">3Cu + 2NO3 + 8H </text></g><g stroke-linecap="round"><g transform="translate(216.86385899212644 255.46878575674162) rotate(0 14.261255902262064 0.181663220030174)"><path d="M0 0 C1.89 -0.02, 6.6 -0.17, 11.35 -0.09 C16.1 -0.01, 25.66 0.38, 28.52 0.48 M0 0 C1.89 -0.02, 6.6 -0.17, 11.35 -0.09 C16.1 -0.01, 25.66 0.38, 28.52 0.48" stroke="#000000" stroke-width="1" fill="none"></path></g><g transform="translate(216.86385899212644 255.46878575674162) rotate(0 14.261255902262064 0.181663220030174)"><path d="M20.35 3.12 C23.42 2.12, 26.5 1.13, 28.52 0.48 M20.35 3.12 C22.27 2.5, 24.19 1.88, 28.52 0.48" stroke="#000000" stroke-width="1" fill="none"></path></g><g transform="translate(216.86385899212644 255.46878575674162) rotate(0 14.261255902262064 0.181663220030174)"><path d="M20.56 -2.76 C23.56 -1.54, 26.55 -0.32, 28.52 0.48 M20.56 -2.76 C22.43 -2, 24.3 -1.24, 28.52 0.48" stroke="#000000" stroke-width="1" fill="none"></path></g></g></svg>