<svg version="1.1" xmlns="http://www.w3.org/2000/svg" viewBox="0 0 550.5 199" width="1101" height="398">
  <!-- svg-source:excalidraw -->
  
  <defs>
    <style>
      @font-face {
        font-family: "Virgil";
        src: url("https://excalidraw.com/Virgil.woff2");
      }
      @font-face {
        font-family: "Cascadia";
        src: url("https://excalidraw.com/Cascadia.woff2");
      }
    </style>
  </defs>
  <g transform="translate(19.5 10) rotate(0 40.5 12.5)"><text x="0" y="18" font-family="Virgil, Segoe UI Emoji" font-size="20px" fill="#000000" text-anchor="start" style="white-space: pre;" direction="ltr">4 mol Al</text></g><g stroke-linecap="round"><g transform="translate(15.5 37.5) rotate(0 57 0)"><path d="M0 0 C19 0, 95 0, 114 0 M0 0 C19 0, 95 0, 114 0" stroke="#000000" stroke-width="1" fill="none"></path></g></g><g transform="translate(10 44) rotate(0 62.5 12.5)"><text x="0" y="18" font-family="Virgil, Segoe UI Emoji" font-size="20px" fill="#000000" text-anchor="start" style="white-space: pre;" direction="ltr">2 mol Al2O3</text></g><g transform="translate(152.5 41.5) rotate(0 6 -6)" stroke="none"><path fill="#000000" d="M -1.50,-1.50 Q -1.50,-1.50 -0.00,-2.88 1.48,-4.26 3.01,-5.68 4.54,-7.10 5.72,-8.32 6.90,-9.54 8.73,-11.48 10.56,-13.43 10.83,-13.62 11.09,-13.81 11.41,-13.91 11.72,-14.01 12.05,-14.00 12.38,-13.99 12.69,-13.88 12.99,-13.76 13.25,-13.56 13.51,-13.35 13.68,-13.07 13.86,-12.80 13.94,-12.48 14.02,-12.16 13.99,-11.83 13.97,-11.50 13.84,-11.20 13.71,-10.90 13.49,-10.66 13.27,-10.41 12.98,-10.25 12.69,-10.09 12.37,-10.03 12.05,-9.97 11.72,-10.01 11.40,-10.05 11.10,-10.20 10.81,-10.35 10.58,-10.58 10.35,-10.81 10.20,-11.11 10.05,-11.40 10.01,-11.72 9.97,-12.05 10.03,-12.37 10.09,-12.70 10.25,-12.98 10.41,-13.27 10.66,-13.49 10.90,-13.71 11.20,-13.84 11.51,-13.97 11.83,-13.99 12.16,-14.02 12.48,-13.94 12.80,-13.86 13.07,-13.68 13.35,-13.51 13.56,-13.25 13.76,-12.99 13.88,-12.69 13.99,-12.38 14.00,-12.05 14.01,-11.72 13.91,-11.41 13.81,-11.09 13.62,-10.83 13.43,-10.56 13.43,-10.56 13.43,-10.56 11.48,-8.73 9.54,-6.90 8.32,-5.72 7.10,-4.54 5.68,-3.01 4.26,-1.48 2.88,0.00 1.50,1.50 1.30,1.66 1.10,1.82 0.86,1.92 0.63,2.03 0.38,2.07 0.12,2.12 -0.12,2.10 -0.38,2.09 -0.62,2.01 -0.87,1.94 -1.09,1.80 -1.31,1.67 -1.49,1.49 -1.67,1.31 -1.80,1.09 -1.94,0.87 -2.01,0.62 -2.09,0.38 -2.10,0.12 -2.12,-0.12 -2.07,-0.38 -2.03,-0.63 -1.92,-0.86 -1.82,-1.10 -1.66,-1.30 -1.50,-1.50 -1.50,-1.50 L -1.50,-1.50 Z"></path></g><g transform="translate(153.5 31.5) rotate(0 3.5 4.5)" stroke="none"><path fill="#000000" d="M 1.70,-1.42 Q 1.70,-1.42 3.05,0.37 4.39,2.17 5.55,3.46 6.71,4.74 7.77,6.32 8.82,7.90 8.95,8.22 9.08,8.54 9.10,8.89 9.11,9.23 9.02,9.56 8.93,9.90 8.73,10.18 8.54,10.47 8.26,10.67 7.99,10.88 7.66,10.99 7.33,11.10 6.99,11.10 6.64,11.10 6.32,10.99 5.99,10.88 5.72,10.67 5.44,10.46 5.25,10.17 5.06,9.88 4.97,9.55 4.88,9.22 4.89,8.87 4.91,8.53 5.04,8.21 5.17,7.89 5.40,7.63 5.62,7.37 5.92,7.19 6.21,7.01 6.55,6.94 6.89,6.87 7.23,6.90 7.57,6.94 7.88,7.09 8.20,7.23 8.45,7.47 8.70,7.71 8.86,8.02 9.02,8.32 9.07,8.66 9.13,9.00 9.07,9.34 9.01,9.68 8.85,9.99 8.69,10.29 8.44,10.53 8.19,10.76 7.87,10.91 7.56,11.05 7.22,11.09 6.87,11.12 6.54,11.05 6.20,10.97 5.90,10.79 5.61,10.62 5.39,10.35 5.16,10.09 5.16,10.09 5.17,10.09 4.47,8.73 3.78,7.38 2.56,6.05 1.35,4.72 -0.17,3.07 -1.70,1.42 -1.85,1.19 -2.00,0.97 -2.08,0.72 -2.17,0.46 -2.19,0.19 -2.22,-0.06 -2.18,-0.33 -2.14,-0.59 -2.04,-0.84 -1.93,-1.09 -1.77,-1.30 -1.61,-1.52 -1.41,-1.69 -1.20,-1.86 -0.96,-1.98 -0.72,-2.10 -0.46,-2.15 -0.20,-2.21 0.06,-2.20 0.33,-2.19 0.59,-2.12 0.85,-2.05 1.08,-1.92 1.31,-1.79 1.51,-1.60 1.70,-1.42 1.70,-1.42 L 1.70,-1.42 Z"></path></g><g transform="translate(160.5 40.5) rotate(0 1 0.5)" stroke="none"><path fill="#000000" d="M 2.12,-0.66 Q 2.12,-0.66 2.15,-0.13 2.18,0.40 1.96,0.88 1.74,1.36 1.32,1.69 0.91,2.02 0.38,2.12 -0.13,2.21 -0.64,2.05 -1.14,1.90 -1.52,1.52 -1.90,1.14 -2.05,0.64 -2.21,0.13 -2.12,-0.38 -2.02,-0.91 -1.69,-1.32 -1.36,-1.74 -0.88,-1.96 -0.39,-2.18 0.13,-2.15 0.66,-2.11 1.11,-1.84 1.57,-1.56 1.84,-1.11 L 2.12,-0.66 Z"></path></g><g transform="translate(352.5 43.5) rotate(0 18.5 1)" stroke="none"><path fill="#000000" d="M 0,-1.97 Q 0,-1.97 2.87,-1.88 5.75,-1.79 9.33,-1.44 12.92,-1.08 16.11,-0.91 19.29,-0.75 22.08,-0.66 24.87,-0.57 27.21,-0.52 29.55,-0.48 31.26,-0.25 32.97,-0.02 35.08,0.07 37.18,0.18 37.46,0.26 37.75,0.33 38.00,0.50 38.24,0.66 38.42,0.89 38.60,1.13 38.70,1.41 38.79,1.69 38.80,1.98 38.80,2.28 38.71,2.56 38.61,2.84 38.44,3.08 38.26,3.31 38.02,3.48 37.77,3.65 37.49,3.73 37.21,3.81 36.91,3.79 36.62,3.78 36.34,3.67 36.06,3.57 35.84,3.38 35.61,3.19 35.46,2.93 35.30,2.68 35.24,2.39 35.17,2.11 35.20,1.81 35.23,1.52 35.35,1.25 35.48,0.98 35.68,0.77 35.88,0.55 36.14,0.41 36.40,0.27 36.69,0.22 36.98,0.17 37.27,0.21 37.57,0.26 37.83,0.40 38.09,0.53 38.29,0.75 38.50,0.96 38.63,1.23 38.75,1.49 38.78,1.79 38.82,2.08 38.76,2.37 38.70,2.66 38.55,2.91 38.39,3.17 38.17,3.36 37.95,3.55 37.67,3.66 37.40,3.78 37.10,3.79 36.81,3.81 36.81,3.81 36.81,3.81 34.59,3.48 32.37,3.14 30.94,2.78 29.51,2.41 27.17,2.42 24.82,2.42 22.00,2.40 19.17,2.38 15.91,2.31 12.65,2.23 9.20,2.01 5.74,1.79 2.87,1.88 0,1.97 -0.23,1.94 -0.47,1.91 -0.69,1.83 -0.91,1.74 -1.11,1.61 -1.31,1.47 -1.46,1.30 -1.62,1.12 -1.73,0.91 -1.84,0.70 -1.90,0.46 -1.96,0.23 -1.96,-0.00 -1.96,-0.23 -1.90,-0.46 -1.84,-0.70 -1.73,-0.91 -1.62,-1.12 -1.46,-1.30 -1.31,-1.47 -1.11,-1.61 -0.91,-1.74 -0.69,-1.83 -0.47,-1.91 -0.23,-1.94 0.00,-1.97 0.00,-1.97 L 0,-1.97 Z"></path></g><g transform="translate(357.5 34.5) rotate(0 16 0.5)" stroke="none"><path fill="#000000" d="M 0,-1.99 Q 0,-1.99 2.01,-1.93 4.02,-1.87 6.60,-1.79 9.18,-1.72 12.00,-1.66 14.82,-1.61 17.75,-1.57 20.67,-1.53 23.15,-1.20 25.63,-0.88 27.20,-0.84 28.77,-0.80 30.43,-0.81 32.09,-0.82 32.38,-0.76 32.67,-0.69 32.92,-0.54 33.18,-0.39 33.37,-0.16 33.56,0.05 33.67,0.33 33.78,0.60 33.79,0.90 33.81,1.19 33.73,1.48 33.65,1.76 33.49,2.01 33.32,2.25 33.09,2.43 32.85,2.61 32.57,2.70 32.29,2.80 32.00,2.80 31.70,2.80 31.42,2.70 31.14,2.61 30.90,2.43 30.67,2.25 30.50,2.01 30.34,1.76 30.26,1.48 30.18,1.19 30.20,0.90 30.21,0.60 30.32,0.33 30.43,0.05 30.62,-0.16 30.81,-0.39 31.07,-0.54 31.32,-0.69 31.61,-0.76 31.90,-0.82 32.19,-0.79 32.48,-0.76 32.75,-0.63 33.02,-0.51 33.23,-0.30 33.45,-0.10 33.59,0.15 33.73,0.41 33.77,0.70 33.82,0.99 33.77,1.29 33.73,1.58 33.59,1.84 33.45,2.10 33.23,2.30 33.02,2.51 32.75,2.63 32.48,2.75 32.19,2.79 31.90,2.82 31.90,2.82 31.90,2.82 30.21,2.63 28.52,2.44 26.90,2.24 25.28,2.03 22.98,1.78 20.67,1.53 17.75,1.57 14.82,1.61 12.00,1.66 9.18,1.72 6.60,1.79 4.02,1.87 2.01,1.93 0,1.99 -0.23,1.96 -0.47,1.93 -0.70,1.85 -0.92,1.76 -1.12,1.63 -1.32,1.49 -1.48,1.31 -1.64,1.13 -1.75,0.92 -1.86,0.70 -1.92,0.47 -1.98,0.24 -1.98,-0.00 -1.98,-0.24 -1.92,-0.47 -1.86,-0.70 -1.75,-0.92 -1.64,-1.13 -1.48,-1.31 -1.32,-1.49 -1.12,-1.63 -0.92,-1.76 -0.70,-1.85 -0.47,-1.93 -0.23,-1.96 0.00,-1.99 0.00,-1.99 L 0,-1.99 Z"></path></g><g transform="translate(430.5 14) rotate(0 55 12.5)"><text x="0" y="18" font-family="Virgil, Segoe UI Emoji" font-size="20px" fill="#000000" text-anchor="start" style="white-space: pre;" direction="ltr">200 mol Al</text></g><g stroke-linecap="round"><g transform="translate(426.5 41.5) rotate(0 57 0)"><path d="M0 0 C19 0, 95 0, 114 0 M0 0 C19 0, 95 0, 114 0" stroke="#000000" stroke-width="1" fill="none"></path></g></g><g transform="translate(475 47) rotate(0 7.5 12.5)"><text x="0" y="18" font-family="Virgil, Segoe UI Emoji" font-size="20px" fill="#000000" text-anchor="start" style="white-space: pre;" direction="ltr">2</text></g><g transform="translate(354 102) rotate(0 18.5 1)" stroke="none"><path fill="#000000" d="M 0,-1.96 Q 0,-1.96 2.87,-1.87 5.75,-1.78 9.33,-1.43 12.92,-1.07 16.11,-0.91 19.29,-0.74 22.08,-0.65 24.87,-0.57 27.21,-0.52 29.55,-0.47 31.26,-0.25 32.97,-0.02 34.68,0.06 36.39,0.14 36.67,0.22 36.95,0.29 37.19,0.45 37.43,0.61 37.61,0.84 37.78,1.07 37.88,1.34 37.97,1.62 37.97,1.90 37.97,2.19 37.88,2.46 37.79,2.74 37.62,2.97 37.45,3.20 37.21,3.36 36.97,3.53 36.70,3.61 36.42,3.68 36.13,3.67 35.84,3.66 35.58,3.55 35.31,3.45 35.09,3.26 34.87,3.08 34.72,2.83 34.57,2.59 34.50,2.31 34.44,2.02 34.47,1.74 34.50,1.45 34.61,1.19 34.73,0.93 34.93,0.72 35.13,0.51 35.38,0.37 35.63,0.23 35.92,0.18 36.20,0.14 36.49,0.18 36.77,0.22 37.03,0.36 37.28,0.49 37.48,0.70 37.68,0.91 37.80,1.17 37.93,1.43 37.96,1.71 37.99,2.00 37.93,2.28 37.87,2.56 37.73,2.81 37.58,3.06 37.36,3.25 37.14,3.43 36.88,3.54 36.61,3.65 36.32,3.67 36.03,3.69 36.03,3.69 36.03,3.69 34.20,3.41 32.37,3.14 30.94,2.77 29.51,2.41 27.17,2.41 24.82,2.41 22.00,2.40 19.17,2.38 15.91,2.30 12.65,2.22 9.20,2.00 5.74,1.78 2.87,1.87 0,1.96 -0.23,1.93 -0.46,1.90 -0.69,1.82 -0.91,1.73 -1.10,1.60 -1.30,1.46 -1.45,1.29 -1.61,1.11 -1.72,0.90 -1.83,0.69 -1.89,0.46 -1.94,0.23 -1.94,-0.00 -1.94,-0.23 -1.89,-0.46 -1.83,-0.69 -1.72,-0.90 -1.61,-1.11 -1.45,-1.29 -1.30,-1.46 -1.10,-1.60 -0.91,-1.73 -0.69,-1.82 -0.46,-1.90 -0.23,-1.93 0.00,-1.96 0.00,-1.96 L 0,-1.96 Z"></path></g><g transform="translate(359 93) rotate(0 16 0.5)" stroke="none"><path fill="#000000" d="M 0,-1.97 Q 0,-1.97 2.01,-1.91 4.02,-1.85 6.60,-1.78 9.18,-1.71 12.00,-1.65 14.82,-1.60 17.75,-1.56 20.67,-1.52 23.15,-1.20 25.63,-0.88 28.55,-0.76 31.48,-0.64 31.73,-0.59 31.99,-0.53 32.21,-0.40 32.44,-0.26 32.61,-0.06 32.78,0.13 32.87,0.37 32.97,0.61 32.98,0.88 33.00,1.14 32.93,1.39 32.86,1.64 32.71,1.86 32.56,2.08 32.36,2.23 32.15,2.39 31.90,2.48 31.65,2.56 31.39,2.56 31.13,2.56 30.88,2.48 30.63,2.39 30.42,2.23 30.21,2.08 30.07,1.86 29.92,1.64 29.85,1.39 29.78,1.14 29.79,0.88 29.81,0.61 29.91,0.37 30.00,0.13 30.17,-0.06 30.34,-0.26 30.57,-0.40 30.79,-0.53 31.05,-0.59 31.30,-0.64 31.56,-0.62 31.82,-0.59 32.06,-0.48 32.30,-0.37 32.49,-0.19 32.68,-0.01 32.80,0.21 32.92,0.45 32.97,0.70 33.01,0.96 32.97,1.22 32.92,1.48 32.80,1.71 32.68,1.94 32.49,2.12 32.30,2.30 32.06,2.41 31.82,2.52 31.56,2.55 31.30,2.58 31.30,2.58 31.30,2.58 28.29,2.30 25.28,2.03 22.98,1.77 20.67,1.52 17.75,1.56 14.82,1.60 12.00,1.65 9.18,1.71 6.60,1.78 4.02,1.85 2.01,1.91 0,1.97 -0.23,1.94 -0.47,1.91 -0.69,1.83 -0.91,1.74 -1.11,1.61 -1.31,1.47 -1.46,1.30 -1.62,1.12 -1.73,0.91 -1.84,0.70 -1.90,0.46 -1.96,0.23 -1.96,-0.00 -1.96,-0.23 -1.90,-0.46 -1.84,-0.70 -1.73,-0.91 -1.62,-1.12 -1.46,-1.30 -1.30,-1.47 -1.11,-1.61 -0.91,-1.74 -0.69,-1.83 -0.47,-1.91 -0.23,-1.94 0.00,-1.97 0.00,-1.97 L 0,-1.97 Z"></path></g><g transform="translate(417.5 86) rotate(0 55.5 12.5)"><text x="0" y="18" font-family="Virgil, Segoe UI Emoji" font-size="20px" fill="#000000" text-anchor="start" style="white-space: pre;" direction="ltr"> 100 mol Al</text></g><g transform="translate(193.5 25) rotate(0 68.5 12.5)"><text x="0" y="18" font-family="Virgil, Segoe UI Emoji" font-size="20px" fill="#000000" text-anchor="start" style="white-space: pre;" direction="ltr">50 mol Al2O3</text></g><g transform="translate(154.5 181.5) rotate(0 6 -6)" stroke="none"><path fill="#000000" d="M -1.50,-1.50 Q -1.50,-1.50 -0.01,-2.88 1.48,-4.26 3.01,-5.68 4.53,-7.10 5.72,-8.32 6.90,-9.54 8.39,-11.14 9.88,-12.75 10.14,-12.94 10.41,-13.13 10.73,-13.23 11.04,-13.32 11.37,-13.32 11.70,-13.31 12.00,-13.19 12.31,-13.08 12.57,-12.87 12.82,-12.67 13.00,-12.39 13.18,-12.11 13.26,-11.80 13.34,-11.48 13.31,-11.15 13.28,-10.82 13.15,-10.52 13.02,-10.22 12.80,-9.98 12.58,-9.73 12.30,-9.57 12.01,-9.41 11.69,-9.35 11.37,-9.28 11.04,-9.33 10.72,-9.37 10.42,-9.52 10.13,-9.66 9.90,-9.90 9.66,-10.13 9.52,-10.42 9.37,-10.72 9.33,-11.04 9.28,-11.37 9.35,-11.69 9.41,-12.01 9.57,-12.30 9.73,-12.58 9.98,-12.80 10.22,-13.02 10.52,-13.15 10.82,-13.28 11.15,-13.31 11.48,-13.34 11.80,-13.26 12.12,-13.18 12.39,-13.00 12.67,-12.82 12.87,-12.57 13.08,-12.31 13.19,-12.00 13.31,-11.69 13.32,-11.37 13.32,-11.04 13.23,-10.72 13.13,-10.41 12.94,-10.14 12.75,-9.88 12.75,-9.88 12.75,-9.88 11.14,-8.39 9.54,-6.90 8.32,-5.72 7.10,-4.53 5.68,-3.01 4.26,-1.48 2.88,0.01 1.50,1.50 1.30,1.66 1.10,1.82 0.86,1.93 0.63,2.03 0.38,2.08 0.12,2.12 -0.12,2.11 -0.38,2.09 -0.63,2.02 -0.87,1.94 -1.09,1.81 -1.31,1.67 -1.49,1.49 -1.67,1.31 -1.81,1.09 -1.94,0.87 -2.02,0.62 -2.09,0.38 -2.11,0.12 -2.12,-0.12 -2.08,-0.38 -2.03,-0.63 -1.93,-0.86 -1.82,-1.10 -1.66,-1.30 -1.50,-1.50 -1.50,-1.50 L -1.50,-1.50 Z"></path></g><g transform="translate(155.5 171.5) rotate(0 3.5 4.5)" stroke="none"><path fill="#000000" d="M 1.69,-1.41 Q 1.69,-1.41 3.04,0.38 4.39,2.18 6.43,4.79 8.47,7.39 8.60,7.71 8.72,8.02 8.74,8.36 8.76,8.70 8.67,9.02 8.57,9.35 8.38,9.63 8.19,9.91 7.92,10.11 7.65,10.32 7.33,10.42 7.01,10.53 6.67,10.53 6.33,10.53 6.01,10.42 5.69,10.31 5.42,10.10 5.16,9.90 4.97,9.62 4.78,9.34 4.69,9.01 4.60,8.68 4.62,8.35 4.64,8.01 4.76,7.70 4.89,7.38 5.11,7.12 5.33,6.87 5.62,6.69 5.91,6.52 6.24,6.45 6.57,6.38 6.91,6.41 7.24,6.45 7.55,6.59 7.86,6.74 8.10,6.97 8.35,7.20 8.50,7.50 8.66,7.80 8.72,8.14 8.77,8.47 8.71,8.81 8.66,9.14 8.50,9.44 8.34,9.74 8.09,9.97 7.85,10.20 7.54,10.34 7.23,10.48 6.89,10.52 6.56,10.55 6.23,10.48 5.90,10.41 5.61,10.23 5.32,10.05 5.10,9.80 4.88,9.54 4.88,9.54 4.88,9.54 3.12,7.12 1.35,4.71 -0.16,3.06 -1.69,1.41 -1.84,1.19 -1.98,0.96 -2.07,0.71 -2.15,0.46 -2.18,0.19 -2.20,-0.06 -2.16,-0.33 -2.12,-0.59 -2.02,-0.83 -1.92,-1.08 -1.76,-1.29 -1.60,-1.51 -1.40,-1.68 -1.19,-1.85 -0.95,-1.97 -0.72,-2.08 -0.46,-2.14 -0.19,-2.19 0.06,-2.19 0.33,-2.18 0.58,-2.11 0.84,-2.04 1.07,-1.90 1.30,-1.77 1.50,-1.59 1.69,-1.41 1.69,-1.41 L 1.69,-1.41 Z"></path></g><g transform="translate(162.5 180.5) rotate(0 1 0.5)" stroke="none"><path fill="#000000" d="M 2.12,-0.66 Q 2.12,-0.66 2.15,-0.13 2.18,0.40 1.96,0.88 1.74,1.36 1.32,1.69 0.91,2.02 0.38,2.12 -0.13,2.21 -0.64,2.05 -1.14,1.90 -1.52,1.52 -1.90,1.14 -2.05,0.64 -2.21,0.13 -2.12,-0.38 -2.02,-0.91 -1.69,-1.32 -1.36,-1.74 -0.88,-1.96 -0.39,-2.18 0.13,-2.15 0.66,-2.11 1.11,-1.84 1.57,-1.56 1.84,-1.11 L 2.12,-0.66 Z"></path></g><g transform="translate(14.5 164) rotate(0 50.5 12.5)"><text x="0" y="18" font-family="Virgil, Segoe UI Emoji" font-size="20px" fill="#000000" text-anchor="start" style="white-space: pre;" direction="ltr">100 mol Al</text></g><g stroke-opacity="0.3" fill-opacity="0.3" transform="translate(44.5 61.5) rotate(0 41.5 -4)" stroke="none"><path fill="#000000" d="M 0,-1.63 Q 0,-1.63 2.58,-1.59 5.17,-1.54 8.28,-1.51 11.39,-1.48 14.67,-1.74 17.94,-2.00 21.64,-2.39 25.35,-2.78 28.63,-3.23 31.92,-3.68 35.04,-4.15 38.16,-4.63 40.69,-4.83 43.22,-5.03 45.16,-5.16 47.10,-5.29 48.97,-5.63 50.85,-5.96 52.91,-6.12 54.96,-6.27 56.68,-6.39 58.40,-6.51 60.32,-7.15 62.25,-7.78 63.94,-8.02 65.63,-8.25 66.89,-8.30 68.15,-8.35 69.83,-8.33 71.51,-8.30 72.88,-8.56 74.25,-8.82 75.57,-8.99 76.89,-9.16 79.88,-9.86 82.87,-10.55 83.28,-10.50 83.69,-10.46 84.06,-10.28 84.44,-10.10 84.74,-9.82 85.04,-9.53 85.23,-9.17 85.42,-8.80 85.49,-8.39 85.55,-7.98 85.48,-7.58 85.41,-7.17 85.22,-6.80 85.02,-6.44 84.72,-6.16 84.42,-5.87 84.04,-5.70 83.67,-5.53 83.26,-5.49 82.84,-5.44 82.44,-5.53 82.04,-5.62 81.68,-5.84 81.33,-6.05 81.06,-6.37 80.80,-6.69 80.65,-7.07 80.50,-7.46 80.48,-7.87 80.45,-8.28 80.57,-8.68 80.68,-9.08 80.91,-9.42 81.15,-9.76 81.48,-10.01 81.81,-10.26 82.20,-10.39 82.59,-10.52 83.01,-10.52 83.42,-10.52 83.81,-10.38 84.20,-10.25 84.53,-10.00 84.86,-9.74 85.09,-9.40 85.32,-9.06 85.43,-8.66 85.54,-8.26 85.51,-7.85 85.49,-7.43 85.33,-7.05 85.18,-6.67 84.91,-6.35 84.64,-6.04 84.29,-5.83 83.93,-5.62 83.53,-5.53 83.12,-5.44 83.12,-5.44 83.12,-5.44 81.43,-5.32 79.73,-5.20 78.58,-4.83 77.42,-4.46 76.25,-4.39 75.08,-4.31 73.31,-3.99 71.53,-3.68 69.86,-3.64 68.19,-3.61 66.15,-3.68 64.11,-3.76 62.57,-3.78 61.03,-3.79 59.79,-3.55 58.54,-3.30 56.85,-3.31 55.16,-3.31 53.25,-3.19 51.33,-3.07 49.28,-2.75 47.23,-2.44 45.33,-2.39 43.44,-2.35 41.01,-2.14 38.58,-1.93 35.44,-1.44 32.30,-0.95 28.98,-0.47 25.65,0.00 21.92,0.42 18.19,0.85 14.79,1.17 11.39,1.48 8.28,1.51 5.17,1.54 2.58,1.59 0,1.63 -0.19,1.61 -0.39,1.58 -0.57,1.51 -0.76,1.44 -0.92,1.33 -1.08,1.22 -1.21,1.07 -1.34,0.93 -1.43,0.75 -1.53,0.58 -1.57,0.38 -1.62,0.19 -1.62,-0.00 -1.62,-0.19 -1.57,-0.38 -1.53,-0.58 -1.43,-0.75 -1.34,-0.93 -1.21,-1.07 -1.08,-1.22 -0.92,-1.33 -0.76,-1.45 -0.57,-1.52 -0.39,-1.59 -0.19,-1.61 0.00,-1.63 0.00,-1.63 L 0,-1.63 Z"></path></g><g stroke-opacity="0.3" fill-opacity="0.3" transform="translate(237.5 40.5) rotate(0 38.5 -5)" stroke="none"><path fill="#000000" d="M 0,-1.56 Q 0,-1.56 2.58,-1.52 5.17,-1.49 7.71,-1.46 10.24,-1.44 13.62,-1.42 17.00,-1.40 21.22,-1.96 25.44,-2.52 29.62,-2.76 33.81,-2.99 37.55,-3.38 41.28,-3.76 44.59,-4.21 47.90,-4.65 50.50,-4.85 53.10,-5.04 55.59,-5.40 58.07,-5.76 60.56,-6.20 63.05,-6.64 64.93,-7.14 66.81,-7.63 68.77,-8.14 70.74,-8.64 71.71,-9.20 72.67,-9.77 74.36,-10.65 76.05,-11.54 76.32,-11.65 76.59,-11.76 76.88,-11.78 77.17,-11.80 77.46,-11.72 77.74,-11.65 77.98,-11.48 78.23,-11.32 78.41,-11.09 78.59,-10.86 78.68,-10.58 78.78,-10.31 78.78,-10.01 78.79,-9.72 78.69,-9.44 78.60,-9.16 78.43,-8.93 78.25,-8.69 78.01,-8.53 77.77,-8.36 77.49,-8.28 77.21,-8.20 76.92,-8.21 76.62,-8.22 76.35,-8.33 76.08,-8.43 75.85,-8.62 75.63,-8.81 75.47,-9.06 75.32,-9.31 75.25,-9.59 75.19,-9.88 75.22,-10.17 75.24,-10.46 75.37,-10.73 75.49,-11.00 75.69,-11.21 75.88,-11.43 76.14,-11.57 76.40,-11.71 76.69,-11.76 76.98,-11.81 77.27,-11.76 77.56,-11.72 77.82,-11.58 78.08,-11.45 78.28,-11.24 78.48,-11.03 78.61,-10.76 78.74,-10.50 78.77,-10.21 78.80,-9.91 78.74,-9.63 78.68,-9.34 78.54,-9.09 78.39,-8.84 78.17,-8.64 77.94,-8.45 77.94,-8.45 77.94,-8.45 75.97,-7.60 73.99,-6.76 72.71,-6.33 71.43,-5.90 69.45,-5.43 67.47,-4.95 65.49,-4.49 63.51,-4.03 60.98,-3.59 58.45,-3.14 55.88,-2.76 53.31,-2.38 50.78,-2.19 48.26,-2.00 44.91,-1.54 41.56,-1.07 37.77,-0.67 33.97,-0.27 29.89,-0.02 25.81,0.22 21.40,0.81 17.00,1.40 13.62,1.42 10.24,1.44 7.71,1.46 5.17,1.49 2.58,1.52 0,1.56 -0.18,1.53 -0.37,1.51 -0.54,1.45 -0.72,1.38 -0.88,1.27 -1.03,1.16 -1.16,1.02 -1.28,0.88 -1.37,0.72 -1.46,0.55 -1.50,0.37 -1.55,0.18 -1.55,-0.00 -1.55,-0.18 -1.50,-0.37 -1.46,-0.55 -1.37,-0.72 -1.28,-0.88 -1.16,-1.02 -1.03,-1.16 -0.88,-1.27 -0.72,-1.38 -0.54,-1.45 -0.37,-1.51 -0.18,-1.53 0.00,-1.56 0.00,-1.56 L 0,-1.56 Z"></path></g><g transform="translate(191.5 162) rotate(0 61 12.5)"><text x="0" y="18" font-family="Virgil, Segoe UI Emoji" font-size="20px" fill="#000000" text-anchor="start" style="white-space: pre;" direction="ltr">27 gr/mol Al</text></g><g transform="translate(334 180) rotate(0 18.5 1)" stroke="none"><path fill="#000000" d="M 0,-1.96 Q 0,-1.96 2.87,-1.87 5.75,-1.78 9.33,-1.43 12.92,-1.07 16.11,-0.91 19.29,-0.74 22.08,-0.65 24.87,-0.57 27.21,-0.52 29.55,-0.47 31.26,-0.25 32.97,-0.02 34.68,0.06 36.39,0.14 36.67,0.22 36.95,0.29 37.19,0.45 37.43,0.61 37.61,0.84 37.78,1.07 37.88,1.34 37.97,1.62 37.97,1.90 37.97,2.19 37.88,2.46 37.79,2.74 37.62,2.97 37.45,3.20 37.21,3.36 36.97,3.53 36.70,3.61 36.42,3.68 36.13,3.67 35.84,3.66 35.58,3.55 35.31,3.45 35.09,3.26 34.87,3.08 34.72,2.83 34.57,2.59 34.50,2.31 34.44,2.02 34.47,1.74 34.50,1.45 34.61,1.19 34.73,0.93 34.93,0.72 35.13,0.51 35.38,0.37 35.63,0.23 35.92,0.18 36.20,0.14 36.49,0.18 36.77,0.22 37.03,0.36 37.28,0.49 37.48,0.70 37.68,0.91 37.80,1.17 37.93,1.43 37.96,1.71 37.99,2.00 37.93,2.28 37.87,2.56 37.73,2.81 37.58,3.06 37.36,3.25 37.14,3.43 36.88,3.54 36.61,3.65 36.32,3.67 36.03,3.69 36.03,3.69 36.03,3.69 34.20,3.41 32.37,3.14 30.94,2.77 29.51,2.41 27.17,2.41 24.82,2.41 22.00,2.40 19.17,2.38 15.91,2.30 12.65,2.22 9.20,2.00 5.74,1.78 2.87,1.87 0,1.96 -0.23,1.93 -0.46,1.90 -0.69,1.82 -0.91,1.73 -1.10,1.60 -1.30,1.46 -1.45,1.29 -1.61,1.11 -1.72,0.90 -1.83,0.69 -1.89,0.46 -1.94,0.23 -1.94,-0.00 -1.94,-0.23 -1.89,-0.46 -1.83,-0.69 -1.72,-0.90 -1.61,-1.11 -1.45,-1.29 -1.30,-1.46 -1.10,-1.60 -0.91,-1.73 -0.69,-1.82 -0.46,-1.90 -0.23,-1.93 0.00,-1.96 0.00,-1.96 L 0,-1.96 Z"></path></g><g transform="translate(339 171) rotate(0 16 0.5)" stroke="none"><path fill="#000000" d="M 0,-1.97 Q 0,-1.97 2.01,-1.91 4.02,-1.85 6.60,-1.78 9.18,-1.71 12.00,-1.65 14.82,-1.60 17.75,-1.56 20.67,-1.52 23.15,-1.20 25.63,-0.88 28.55,-0.76 31.48,-0.64 31.73,-0.59 31.99,-0.53 32.21,-0.40 32.44,-0.26 32.61,-0.06 32.78,0.13 32.87,0.37 32.97,0.61 32.98,0.88 33.00,1.14 32.93,1.39 32.86,1.64 32.71,1.86 32.56,2.08 32.36,2.23 32.15,2.39 31.90,2.48 31.65,2.56 31.39,2.56 31.13,2.56 30.88,2.48 30.63,2.39 30.42,2.23 30.21,2.08 30.07,1.86 29.92,1.64 29.85,1.39 29.78,1.14 29.79,0.88 29.81,0.61 29.91,0.37 30.00,0.13 30.17,-0.06 30.34,-0.26 30.57,-0.40 30.79,-0.53 31.05,-0.59 31.30,-0.64 31.56,-0.62 31.82,-0.59 32.06,-0.48 32.30,-0.37 32.49,-0.19 32.68,-0.01 32.80,0.21 32.92,0.45 32.97,0.70 33.01,0.96 32.97,1.22 32.92,1.48 32.80,1.71 32.68,1.94 32.49,2.12 32.30,2.30 32.06,2.41 31.82,2.52 31.56,2.55 31.30,2.58 31.30,2.58 31.30,2.58 28.29,2.30 25.28,2.03 22.98,1.77 20.67,1.52 17.75,1.56 14.82,1.60 12.00,1.65 9.18,1.71 6.60,1.78 4.02,1.85 2.01,1.91 0,1.97 -0.23,1.94 -0.47,1.91 -0.69,1.83 -0.91,1.74 -1.11,1.61 -1.31,1.47 -1.46,1.30 -1.62,1.12 -1.73,0.91 -1.84,0.70 -1.90,0.46 -1.96,0.23 -1.96,-0.00 -1.96,-0.23 -1.90,-0.46 -1.84,-0.70 -1.73,-0.91 -1.62,-1.12 -1.46,-1.30 -1.30,-1.47 -1.11,-1.61 -0.91,-1.74 -0.69,-1.83 -0.47,-1.91 -0.23,-1.94 0.00,-1.97 0.00,-1.97 L 0,-1.97 Z"></path></g><g transform="translate(391.5 163) rotate(0 41 12.5)"><text x="0" y="18" font-family="Virgil, Segoe UI Emoji" font-size="20px" fill="#000000" text-anchor="start" style="white-space: pre;" direction="ltr">2700 gr</text></g><g stroke-opacity="0.3" fill-opacity="0.3" transform="translate(60.5 184.5) rotate(0 30 -8)" stroke="none"><path fill="#000000" d="M 0,-1.60 Q 0,-1.60 2.01,-1.59 4.02,-1.58 5.60,-1.90 7.18,-2.22 9.64,-2.58 12.10,-2.94 14.50,-3.64 16.89,-4.33 19.74,-4.92 22.58,-5.52 25.75,-6.33 28.92,-7.13 31.98,-8.04 35.04,-8.95 37.82,-9.63 40.60,-10.31 43.47,-11.16 46.33,-12.01 48.66,-12.93 50.98,-13.85 52.86,-14.57 54.74,-15.29 57.12,-16.40 59.50,-17.51 59.75,-17.55 60.01,-17.59 60.26,-17.54 60.51,-17.50 60.74,-17.38 60.97,-17.26 61.14,-17.07 61.32,-16.88 61.43,-16.65 61.53,-16.41 61.56,-16.15 61.58,-15.90 61.53,-15.65 61.47,-15.40 61.34,-15.18 61.20,-14.96 61.00,-14.79 60.81,-14.62 60.57,-14.53 60.33,-14.44 60.07,-14.43 59.81,-14.41 59.56,-14.48 59.32,-14.55 59.10,-14.70 58.89,-14.85 58.74,-15.05 58.58,-15.26 58.50,-15.50 58.42,-15.75 58.42,-16.01 58.43,-16.26 58.51,-16.51 58.59,-16.75 58.75,-16.95 58.91,-17.16 59.12,-17.30 59.34,-17.45 59.59,-17.51 59.83,-17.58 60.09,-17.56 60.35,-17.55 60.59,-17.45 60.83,-17.35 61.02,-17.19 61.22,-17.02 61.35,-16.80 61.48,-16.57 61.53,-16.32 61.59,-16.07 61.56,-15.81 61.53,-15.56 61.42,-15.33 61.31,-15.09 61.13,-14.91 60.95,-14.72 60.72,-14.60 60.49,-14.48 60.49,-14.48 60.49,-14.48 58.10,-13.58 55.71,-12.67 53.84,-12.01 51.97,-11.35 49.54,-10.39 47.11,-9.42 44.18,-8.54 41.26,-7.66 38.55,-6.98 35.84,-6.29 32.73,-5.35 29.63,-4.40 26.41,-3.54 23.20,-2.68 20.48,-2.06 17.76,-1.45 15.19,-0.64 12.63,0.15 10.18,0.61 7.73,1.07 5.88,1.32 4.02,1.58 2.01,1.59 0,1.60 -0.19,1.58 -0.38,1.55 -0.56,1.49 -0.74,1.42 -0.90,1.31 -1.06,1.20 -1.19,1.05 -1.32,0.91 -1.41,0.74 -1.50,0.56 -1.54,0.38 -1.59,0.19 -1.59,-0.00 -1.59,-0.19 -1.54,-0.38 -1.50,-0.56 -1.41,-0.74 -1.32,-0.91 -1.19,-1.05 -1.06,-1.20 -0.90,-1.31 -0.74,-1.42 -0.56,-1.49 -0.38,-1.55 -0.19,-1.58 0.00,-1.60 0.00,-1.60 L 0,-1.60 Z"></path></g><g stroke-opacity="0.3" fill-opacity="0.3" transform="translate(256.5 180.5) rotate(0 24.5 -5.5)" stroke="none"><path fill="#000000" d="M -0.51,-1.54 Q -0.51,-1.54 1.20,-2.14 2.91,-2.74 4.84,-3.27 6.76,-3.81 8.73,-4.31 10.70,-4.80 13.00,-5.28 15.31,-5.75 17.96,-6.50 20.61,-7.24 23.83,-7.86 27.05,-8.48 30.13,-9.02 33.21,-9.56 35.95,-10.06 38.69,-10.57 40.67,-11.08 42.66,-11.58 44.15,-11.91 45.63,-12.24 47.22,-12.51 48.81,-12.77 49.10,-12.75 49.39,-12.73 49.66,-12.62 49.92,-12.52 50.14,-12.33 50.36,-12.14 50.51,-11.89 50.65,-11.64 50.71,-11.36 50.77,-11.08 50.74,-10.79 50.71,-10.51 50.59,-10.25 50.46,-9.99 50.26,-9.78 50.06,-9.57 49.81,-9.44 49.55,-9.30 49.27,-9.26 48.98,-9.21 48.70,-9.26 48.42,-9.31 48.16,-9.45 47.91,-9.58 47.71,-9.79 47.51,-10.00 47.39,-10.27 47.27,-10.53 47.25,-10.82 47.22,-11.10 47.28,-11.38 47.34,-11.67 47.49,-11.91 47.64,-12.16 47.87,-12.34 48.09,-12.53 48.35,-12.63 48.62,-12.74 48.91,-12.75 49.20,-12.77 49.48,-12.69 49.75,-12.61 49.99,-12.44 50.23,-12.28 50.40,-12.05 50.57,-11.82 50.67,-11.55 50.76,-11.27 50.75,-10.98 50.75,-10.70 50.66,-10.42 50.56,-10.15 50.39,-9.92 50.21,-9.69 49.97,-9.53 49.73,-9.37 49.45,-9.30 49.18,-9.22 49.18,-9.22 49.18,-9.22 47.64,-9.16 46.11,-9.11 44.72,-9.01 43.33,-8.91 41.27,-8.39 39.20,-7.87 36.46,-7.34 33.71,-6.80 30.66,-6.24 27.61,-5.67 24.52,-5.04 21.44,-4.41 18.71,-3.58 15.98,-2.75 13.75,-2.21 11.52,-1.67 9.59,-1.14 7.66,-0.61 5.82,-0.08 3.98,0.44 2.24,0.99 0.51,1.54 0.32,1.58 0.13,1.62 -0.06,1.61 -0.26,1.60 -0.44,1.54 -0.63,1.49 -0.80,1.39 -0.97,1.29 -1.11,1.16 -1.25,1.02 -1.36,0.86 -1.46,0.69 -1.53,0.51 -1.59,0.32 -1.60,0.12 -1.62,-0.06 -1.59,-0.25 -1.56,-0.45 -1.48,-0.63 -1.40,-0.81 -1.28,-0.96 -1.17,-1.12 -1.01,-1.25 -0.86,-1.37 -0.69,-1.45 -0.51,-1.54 -0.51,-1.54 L -0.51,-1.54 Z"></path></g></svg>