<svg version="1.1" xmlns="http://www.w3.org/2000/svg" viewBox="0 0 551 127" width="1102" height="254">
  <!-- svg-source:excalidraw -->
  
  <defs>
    <style>
      @font-face {
        font-family: "Virgil";
        src: url("https://excalidraw.com/Virgil.woff2");
      }
      @font-face {
        font-family: "Cascadia";
        src: url("https://excalidraw.com/Cascadia.woff2");
      }
    </style>
  </defs>
  <g transform="translate(14 10) rotate(0 45.5 12.5)"><text x="0" y="18" font-family="Virgil, Segoe UI Emoji" font-size="20px" fill="#000000" text-anchor="start" style="white-space: pre;" direction="ltr">5 mol O2</text></g><g stroke-linecap="round"><g transform="translate(10 37.5) rotate(0 57 0)"><path d="M0 0 C19 0, 95 0, 114 0 M0 0 C19 0, 95 0, 114 0" stroke="#000000" stroke-width="1" fill="none"></path></g></g><g transform="translate(14.5 44) rotate(0 54 12.5)"><text x="0" y="18" font-family="Virgil, Segoe UI Emoji" font-size="20px" fill="#000000" text-anchor="start" style="white-space: pre;" direction="ltr">1 mol C3H8</text></g><g transform="translate(147 41.5) rotate(0 6 -6)" stroke="none"><path fill="#000000" d="M -1.50,-1.50 Q -1.50,-1.50 -0.00,-2.88 1.48,-4.26 3.01,-5.68 4.54,-7.10 5.72,-8.32 6.90,-9.54 8.73,-11.48 10.56,-13.43 10.83,-13.62 11.09,-13.81 11.41,-13.91 11.72,-14.01 12.05,-14.00 12.38,-13.99 12.69,-13.88 12.99,-13.76 13.25,-13.56 13.51,-13.35 13.68,-13.07 13.86,-12.80 13.94,-12.48 14.02,-12.16 13.99,-11.83 13.97,-11.50 13.84,-11.20 13.71,-10.90 13.49,-10.66 13.27,-10.41 12.98,-10.25 12.69,-10.09 12.37,-10.03 12.05,-9.97 11.72,-10.01 11.40,-10.05 11.10,-10.20 10.81,-10.35 10.58,-10.58 10.35,-10.81 10.20,-11.11 10.05,-11.40 10.01,-11.72 9.97,-12.05 10.03,-12.37 10.09,-12.70 10.25,-12.98 10.41,-13.27 10.66,-13.49 10.90,-13.71 11.20,-13.84 11.51,-13.97 11.83,-13.99 12.16,-14.02 12.48,-13.94 12.80,-13.86 13.07,-13.68 13.35,-13.51 13.56,-13.25 13.76,-12.99 13.88,-12.69 13.99,-12.38 14.00,-12.05 14.01,-11.72 13.91,-11.41 13.81,-11.09 13.62,-10.83 13.43,-10.56 13.43,-10.56 13.43,-10.56 11.48,-8.73 9.54,-6.90 8.32,-5.72 7.10,-4.54 5.68,-3.01 4.26,-1.48 2.88,0.00 1.50,1.50 1.30,1.66 1.10,1.82 0.86,1.92 0.63,2.03 0.38,2.07 0.12,2.12 -0.12,2.10 -0.38,2.09 -0.62,2.01 -0.87,1.94 -1.09,1.80 -1.31,1.67 -1.49,1.49 -1.67,1.31 -1.80,1.09 -1.94,0.87 -2.01,0.62 -2.09,0.38 -2.10,0.12 -2.12,-0.12 -2.07,-0.38 -2.03,-0.63 -1.92,-0.86 -1.82,-1.10 -1.66,-1.30 -1.50,-1.50 -1.50,-1.50 L -1.50,-1.50 Z"></path></g><g transform="translate(148 31.5) rotate(0 3.5 4.5)" stroke="none"><path fill="#000000" d="M 1.70,-1.42 Q 1.70,-1.42 3.05,0.37 4.39,2.17 5.55,3.46 6.71,4.74 7.77,6.32 8.82,7.90 8.95,8.22 9.08,8.54 9.10,8.89 9.11,9.23 9.02,9.56 8.93,9.90 8.73,10.18 8.54,10.47 8.26,10.67 7.99,10.88 7.66,10.99 7.33,11.10 6.99,11.10 6.64,11.10 6.32,10.99 5.99,10.88 5.72,10.67 5.44,10.46 5.25,10.17 5.06,9.88 4.97,9.55 4.88,9.22 4.89,8.87 4.91,8.53 5.04,8.21 5.17,7.89 5.40,7.63 5.62,7.37 5.92,7.19 6.21,7.01 6.55,6.94 6.89,6.87 7.23,6.90 7.57,6.94 7.88,7.09 8.20,7.23 8.45,7.47 8.70,7.71 8.86,8.02 9.02,8.32 9.07,8.66 9.13,9.00 9.07,9.34 9.01,9.68 8.85,9.99 8.69,10.29 8.44,10.53 8.19,10.76 7.87,10.91 7.56,11.05 7.22,11.09 6.87,11.12 6.54,11.05 6.20,10.97 5.90,10.79 5.61,10.62 5.39,10.35 5.16,10.09 5.16,10.09 5.17,10.09 4.47,8.73 3.78,7.38 2.56,6.05 1.35,4.72 -0.17,3.07 -1.70,1.42 -1.85,1.19 -2.00,0.97 -2.08,0.72 -2.17,0.46 -2.19,0.19 -2.22,-0.06 -2.18,-0.33 -2.14,-0.59 -2.04,-0.84 -1.93,-1.09 -1.77,-1.30 -1.61,-1.52 -1.41,-1.69 -1.20,-1.86 -0.96,-1.98 -0.72,-2.10 -0.46,-2.15 -0.20,-2.21 0.06,-2.20 0.33,-2.19 0.59,-2.12 0.85,-2.05 1.08,-1.92 1.31,-1.79 1.51,-1.60 1.70,-1.42 1.70,-1.42 L 1.70,-1.42 Z"></path></g><g transform="translate(155 40.5) rotate(0 1 0.5)" stroke="none"><path fill="#000000" d="M 2.12,-0.66 Q 2.12,-0.66 2.15,-0.13 2.18,0.40 1.96,0.88 1.74,1.36 1.32,1.69 0.91,2.02 0.38,2.12 -0.13,2.21 -0.64,2.05 -1.14,1.90 -1.52,1.52 -1.90,1.14 -2.05,0.64 -2.21,0.13 -2.12,-0.38 -2.02,-0.91 -1.69,-1.32 -1.36,-1.74 -0.88,-1.96 -0.39,-2.18 0.13,-2.15 0.66,-2.11 1.11,-1.84 1.57,-1.56 1.84,-1.11 L 2.12,-0.66 Z"></path></g><g transform="translate(179.5 16) rotate(0 67 12.5)"><text x="0" y="18" font-family="Virgil, Segoe UI Emoji" font-size="20px" fill="#000000" text-anchor="start" style="white-space: pre;" direction="ltr">4,3 mol C3H8</text></g><g stroke-opacity="0.4" fill-opacity="0.4" transform="translate(226 33.5) rotate(0 46 -7.5)" stroke="none"><path fill="#000000" d="M 0,-1.60 Q 0,-1.60 3.44,-1.56 6.89,-1.52 12.89,-2.06 18.89,-2.60 27.17,-3.97 35.45,-5.34 44.14,-7.06 52.84,-8.79 60.57,-10.38 68.29,-11.97 74.78,-12.94 81.26,-13.90 84.24,-14.59 87.22,-15.27 89.46,-15.78 91.69,-16.30 91.91,-16.31 92.13,-16.32 92.33,-16.27 92.54,-16.21 92.72,-16.09 92.90,-15.97 93.04,-15.80 93.17,-15.63 93.24,-15.43 93.31,-15.22 93.31,-15.01 93.32,-14.79 93.25,-14.59 93.18,-14.38 93.05,-14.21 92.92,-14.03 92.75,-13.91 92.57,-13.79 92.36,-13.73 92.15,-13.67 91.94,-13.68 91.72,-13.69 91.52,-13.77 91.32,-13.84 91.15,-13.98 90.99,-14.12 90.87,-14.30 90.76,-14.49 90.71,-14.70 90.66,-14.91 90.68,-15.12 90.70,-15.34 90.79,-15.54 90.88,-15.73 91.03,-15.89 91.18,-16.05 91.37,-16.15 91.56,-16.26 91.77,-16.29 91.98,-16.33 92.20,-16.30 92.41,-16.26 92.60,-16.17 92.79,-16.07 92.94,-15.91 93.09,-15.76 93.19,-15.56 93.28,-15.37 93.30,-15.15 93.33,-14.94 93.28,-14.72 93.24,-14.51 93.13,-14.33 93.02,-14.14 92.86,-14.00 92.69,-13.86 92.50,-13.78 92.30,-13.69 92.30,-13.69 92.30,-13.69 90.06,-13.17 87.82,-12.65 84.74,-11.94 81.67,-11.22 75.26,-10.25 68.85,-9.28 61.12,-7.67 53.39,-6.05 44.65,-4.29 35.92,-2.53 27.54,-1.11 19.17,0.30 13.03,0.91 6.90,1.52 3.45,1.56 0,1.60 -0.19,1.57 -0.38,1.55 -0.56,1.48 -0.74,1.41 -0.90,1.30 -1.06,1.19 -1.18,1.05 -1.31,0.90 -1.40,0.73 -1.49,0.56 -1.54,0.38 -1.58,0.19 -1.58,-0.00 -1.58,-0.19 -1.54,-0.38 -1.49,-0.56 -1.40,-0.73 -1.31,-0.90 -1.18,-1.05 -1.06,-1.19 -0.90,-1.30 -0.74,-1.41 -0.56,-1.48 -0.38,-1.55 -0.19,-1.57 0.00,-1.60 0.00,-1.60 L 0,-1.60 Z"></path></g><g stroke-opacity="0.4" fill-opacity="0.4" transform="translate(35 62.5) rotate(0 38 -7)" stroke="none"><path fill="#000000" d="M 0,-1.65 Q 0,-1.65 2.58,-1.60 5.17,-1.56 10.17,-2.38 15.17,-3.19 21.94,-4.40 28.72,-5.60 36.47,-7.25 44.22,-8.90 50.96,-10.46 57.70,-12.02 62.31,-12.97 66.93,-13.92 69.48,-14.32 72.04,-14.73 73.91,-15.07 75.77,-15.42 76.00,-15.42 76.23,-15.42 76.45,-15.34 76.67,-15.27 76.86,-15.13 77.05,-14.98 77.18,-14.79 77.31,-14.60 77.37,-14.37 77.43,-14.15 77.42,-13.91 77.40,-13.68 77.32,-13.46 77.23,-13.25 77.08,-13.07 76.93,-12.89 76.72,-12.77 76.52,-12.65 76.30,-12.60 76.07,-12.55 75.84,-12.58 75.60,-12.61 75.39,-12.71 75.18,-12.80 75.01,-12.96 74.84,-13.13 74.74,-13.33 74.63,-13.54 74.59,-13.77 74.55,-14.00 74.59,-14.23 74.63,-14.46 74.74,-14.67 74.85,-14.87 75.02,-15.03 75.19,-15.19 75.40,-15.29 75.61,-15.39 75.85,-15.41 76.08,-15.44 76.31,-15.38 76.53,-15.33 76.73,-15.21 76.93,-15.09 77.08,-14.91 77.23,-14.73 77.32,-14.52 77.40,-14.30 77.42,-14.07 77.43,-13.83 77.37,-13.61 77.30,-13.38 77.17,-13.19 77.04,-13.00 76.85,-12.86 76.67,-12.72 76.44,-12.64 76.22,-12.57 76.22,-12.57 76.22,-12.57 74.35,-12.32 72.47,-12.06 69.98,-11.65 67.48,-11.25 62.90,-10.28 58.33,-9.32 51.57,-7.73 44.81,-6.15 37.02,-4.45 29.23,-2.76 22.45,-1.50 15.67,-0.25 10.42,0.65 5.17,1.56 2.58,1.60 0,1.65 -0.19,1.63 -0.39,1.60 -0.58,1.53 -0.76,1.46 -0.93,1.35 -1.09,1.23 -1.23,1.09 -1.36,0.94 -1.45,0.76 -1.54,0.58 -1.59,0.39 -1.64,0.19 -1.64,-0.00 -1.64,-0.19 -1.59,-0.39 -1.54,-0.58 -1.45,-0.76 -1.36,-0.94 -1.23,-1.09 -1.09,-1.23 -0.93,-1.35 -0.76,-1.46 -0.58,-1.53 -0.39,-1.60 -0.19,-1.63 0.00,-1.65 0.00,-1.65 L 0,-1.65 Z"></path></g><g transform="translate(347 43.5) rotate(0 18.5 1)" stroke="none"><path fill="#000000" d="M 0,-1.97 Q 0,-1.97 2.87,-1.88 5.75,-1.79 9.33,-1.44 12.92,-1.08 16.11,-0.91 19.29,-0.75 22.08,-0.66 24.87,-0.57 27.21,-0.52 29.55,-0.48 31.26,-0.25 32.97,-0.02 35.08,0.07 37.18,0.18 37.46,0.26 37.75,0.33 38.00,0.50 38.24,0.66 38.42,0.89 38.60,1.13 38.70,1.41 38.79,1.69 38.80,1.98 38.80,2.28 38.71,2.56 38.61,2.84 38.44,3.08 38.26,3.31 38.02,3.48 37.77,3.65 37.49,3.73 37.21,3.81 36.91,3.79 36.62,3.78 36.34,3.67 36.06,3.57 35.84,3.38 35.61,3.19 35.46,2.93 35.30,2.68 35.24,2.39 35.17,2.11 35.20,1.81 35.23,1.52 35.35,1.25 35.48,0.98 35.68,0.77 35.88,0.55 36.14,0.41 36.40,0.27 36.69,0.22 36.98,0.17 37.27,0.21 37.57,0.26 37.83,0.40 38.09,0.53 38.29,0.75 38.50,0.96 38.63,1.23 38.75,1.49 38.78,1.79 38.82,2.08 38.76,2.37 38.70,2.66 38.55,2.91 38.39,3.17 38.17,3.36 37.95,3.55 37.67,3.66 37.40,3.78 37.10,3.79 36.81,3.81 36.81,3.81 36.81,3.81 34.59,3.48 32.37,3.14 30.94,2.78 29.51,2.41 27.17,2.42 24.82,2.42 22.00,2.40 19.17,2.38 15.91,2.31 12.65,2.23 9.20,2.01 5.74,1.79 2.87,1.88 0,1.97 -0.23,1.94 -0.47,1.91 -0.69,1.83 -0.91,1.74 -1.11,1.61 -1.31,1.47 -1.46,1.30 -1.62,1.12 -1.73,0.91 -1.84,0.70 -1.90,0.46 -1.96,0.23 -1.96,-0.00 -1.96,-0.23 -1.90,-0.46 -1.84,-0.70 -1.73,-0.91 -1.62,-1.12 -1.46,-1.30 -1.31,-1.47 -1.11,-1.61 -0.91,-1.74 -0.69,-1.83 -0.47,-1.91 -0.23,-1.94 0.00,-1.97 0.00,-1.97 L 0,-1.97 Z"></path></g><g transform="translate(352 34.5) rotate(0 16 0.5)" stroke="none"><path fill="#000000" d="M 0,-1.99 Q 0,-1.99 2.01,-1.93 4.02,-1.87 6.60,-1.79 9.18,-1.72 12.00,-1.66 14.82,-1.61 17.75,-1.57 20.67,-1.53 23.15,-1.20 25.63,-0.88 27.20,-0.84 28.77,-0.80 30.43,-0.81 32.09,-0.82 32.38,-0.76 32.67,-0.69 32.92,-0.54 33.18,-0.39 33.37,-0.16 33.56,0.05 33.67,0.33 33.78,0.60 33.79,0.90 33.81,1.19 33.73,1.48 33.65,1.76 33.49,2.01 33.32,2.25 33.09,2.43 32.85,2.61 32.57,2.70 32.29,2.80 32.00,2.80 31.70,2.80 31.42,2.70 31.14,2.61 30.90,2.43 30.67,2.25 30.50,2.01 30.34,1.76 30.26,1.48 30.18,1.19 30.20,0.90 30.21,0.60 30.32,0.33 30.43,0.05 30.62,-0.16 30.81,-0.39 31.07,-0.54 31.32,-0.69 31.61,-0.76 31.90,-0.82 32.19,-0.79 32.48,-0.76 32.75,-0.63 33.02,-0.51 33.23,-0.30 33.45,-0.10 33.59,0.15 33.73,0.41 33.77,0.70 33.82,0.99 33.77,1.29 33.73,1.58 33.59,1.84 33.45,2.10 33.23,2.30 33.02,2.51 32.75,2.63 32.48,2.75 32.19,2.79 31.90,2.82 31.90,2.82 31.90,2.82 30.21,2.63 28.52,2.44 26.90,2.24 25.28,2.03 22.98,1.78 20.67,1.53 17.75,1.57 14.82,1.61 12.00,1.66 9.18,1.72 6.60,1.79 4.02,1.87 2.01,1.93 0,1.99 -0.23,1.96 -0.47,1.93 -0.70,1.85 -0.92,1.76 -1.12,1.63 -1.32,1.49 -1.48,1.31 -1.64,1.13 -1.75,0.92 -1.86,0.70 -1.92,0.47 -1.98,0.24 -1.98,-0.00 -1.98,-0.24 -1.92,-0.47 -1.86,-0.70 -1.75,-0.92 -1.64,-1.13 -1.48,-1.31 -1.32,-1.49 -1.12,-1.63 -0.92,-1.76 -0.70,-1.85 -0.47,-1.93 -0.23,-1.96 0.00,-1.99 0.00,-1.99 L 0,-1.99 Z"></path></g><g transform="translate(425 14) rotate(0 58 12.5)"><text x="0" y="18" font-family="Virgil, Segoe UI Emoji" font-size="20px" fill="#000000" text-anchor="start" style="white-space: pre;" direction="ltr">21,5 mol O2</text></g><g stroke-linecap="round"><g transform="translate(421 41.5) rotate(0 57 0)"><path d="M0 0 C19 0, 95 0, 114 0 M0 0 C19 0, 95 0, 114 0" stroke="#000000" stroke-width="1" fill="none"></path></g></g><g transform="translate(469.5 47) rotate(0 3 12.5)"><text x="0" y="18" font-family="Virgil, Segoe UI Emoji" font-size="20px" fill="#000000" text-anchor="start" style="white-space: pre;" direction="ltr">1</text></g><g transform="translate(348.5 108) rotate(0 18.5 1)" stroke="none"><path fill="#000000" d="M 0,-1.96 Q 0,-1.96 2.87,-1.87 5.75,-1.78 9.33,-1.43 12.92,-1.07 16.11,-0.91 19.29,-0.74 22.08,-0.65 24.87,-0.57 27.21,-0.52 29.55,-0.47 31.26,-0.25 32.97,-0.02 34.68,0.06 36.39,0.14 36.67,0.22 36.95,0.29 37.19,0.45 37.43,0.61 37.61,0.84 37.78,1.07 37.88,1.34 37.97,1.62 37.97,1.90 37.97,2.19 37.88,2.46 37.79,2.74 37.62,2.97 37.45,3.20 37.21,3.36 36.97,3.53 36.70,3.61 36.42,3.68 36.13,3.67 35.84,3.66 35.58,3.55 35.31,3.45 35.09,3.26 34.87,3.08 34.72,2.83 34.57,2.59 34.50,2.31 34.44,2.02 34.47,1.74 34.50,1.45 34.61,1.19 34.73,0.93 34.93,0.72 35.13,0.51 35.38,0.37 35.63,0.23 35.92,0.18 36.20,0.14 36.49,0.18 36.77,0.22 37.03,0.36 37.28,0.49 37.48,0.70 37.68,0.91 37.80,1.17 37.93,1.43 37.96,1.71 37.99,2.00 37.93,2.28 37.87,2.56 37.73,2.81 37.58,3.06 37.36,3.25 37.14,3.43 36.88,3.54 36.61,3.65 36.32,3.67 36.03,3.69 36.03,3.69 36.03,3.69 34.20,3.41 32.37,3.14 30.94,2.77 29.51,2.41 27.17,2.41 24.82,2.41 22.00,2.40 19.17,2.38 15.91,2.30 12.65,2.22 9.20,2.00 5.74,1.78 2.87,1.87 0,1.96 -0.23,1.93 -0.46,1.90 -0.69,1.82 -0.91,1.73 -1.10,1.60 -1.30,1.46 -1.45,1.29 -1.61,1.11 -1.72,0.90 -1.83,0.69 -1.89,0.46 -1.94,0.23 -1.94,-0.00 -1.94,-0.23 -1.89,-0.46 -1.83,-0.69 -1.72,-0.90 -1.61,-1.11 -1.45,-1.29 -1.30,-1.46 -1.10,-1.60 -0.91,-1.73 -0.69,-1.82 -0.46,-1.90 -0.23,-1.93 0.00,-1.96 0.00,-1.96 L 0,-1.96 Z"></path></g><g transform="translate(353.5 99) rotate(0 16 0.5)" stroke="none"><path fill="#000000" d="M 0,-1.97 Q 0,-1.97 2.01,-1.91 4.02,-1.85 6.60,-1.78 9.18,-1.71 12.00,-1.65 14.82,-1.60 17.75,-1.56 20.67,-1.52 23.15,-1.20 25.63,-0.88 28.55,-0.76 31.48,-0.64 31.73,-0.59 31.99,-0.53 32.21,-0.40 32.44,-0.26 32.61,-0.06 32.78,0.13 32.87,0.37 32.97,0.61 32.98,0.88 33.00,1.14 32.93,1.39 32.86,1.64 32.71,1.86 32.56,2.08 32.36,2.23 32.15,2.39 31.90,2.48 31.65,2.56 31.39,2.56 31.13,2.56 30.88,2.48 30.63,2.39 30.42,2.23 30.21,2.08 30.07,1.86 29.92,1.64 29.85,1.39 29.78,1.14 29.79,0.88 29.81,0.61 29.91,0.37 30.00,0.13 30.17,-0.06 30.34,-0.26 30.57,-0.40 30.79,-0.53 31.05,-0.59 31.30,-0.64 31.56,-0.62 31.82,-0.59 32.06,-0.48 32.30,-0.37 32.49,-0.19 32.68,-0.01 32.80,0.21 32.92,0.45 32.97,0.70 33.01,0.96 32.97,1.22 32.92,1.48 32.80,1.71 32.68,1.94 32.49,2.12 32.30,2.30 32.06,2.41 31.82,2.52 31.56,2.55 31.30,2.58 31.30,2.58 31.30,2.58 28.29,2.30 25.28,2.03 22.98,1.77 20.67,1.52 17.75,1.56 14.82,1.60 12.00,1.65 9.18,1.71 6.60,1.78 4.02,1.85 2.01,1.91 0,1.97 -0.23,1.94 -0.47,1.91 -0.69,1.83 -0.91,1.74 -1.11,1.61 -1.31,1.47 -1.46,1.30 -1.62,1.12 -1.73,0.91 -1.84,0.70 -1.90,0.46 -1.96,0.23 -1.96,-0.00 -1.96,-0.23 -1.90,-0.46 -1.84,-0.70 -1.73,-0.91 -1.62,-1.12 -1.46,-1.30 -1.30,-1.47 -1.11,-1.61 -0.91,-1.74 -0.69,-1.83 -0.47,-1.91 -0.23,-1.94 0.00,-1.97 0.00,-1.97 L 0,-1.97 Z"></path></g><g transform="translate(412 92) rotate(0 58 12.5)"><text x="0" y="18" font-family="Virgil, Segoe UI Emoji" font-size="20px" fill="#000000" text-anchor="start" style="white-space: pre;" direction="ltr">21,5 mol O2</text></g></svg>