<svg xmlns="http://www.w3.org/2000/svg" xmlns:xlink="http://www.w3.org/1999/xlink" width="105.859375" height="51.171875" style="width:105.859375px;height:51.171875px;font-family:Asana-Math, Asana;background:#FFF;"><g><g><g><g transform="matrix(1,0,0,1,2,33.390625)"><path transform="matrix(0.017,0,0,-0.017,0,0)" d="M399 289C399 391 326 461 234 461C169 461 124 445 77 418L83 352C135 389 185 402 234 402C281 402 321 362 321 288L321 245C171 243 44 201 44 113C44 70 71 -11 158 -11C172 -11 266 -9 324 36L324 0L399 0ZM321 132C321 113 321 88 287 69C258 51 220 50 209 50C161 50 116 73 116 115C116 185 278 192 321 194Z" stroke="rgb(0,0,0)" stroke-opacity="1" stroke-width="8" fill="rgb(0,0,0)" fill-opacity="1"></path></g></g><g><g transform="matrix(1,0,0,1,19.484375,33.390625)"><path transform="matrix(0.017,0,0,-0.017,0,0)" d="M604 347L604 406L65 406L65 347ZM604 134L604 193L65 193L65 134Z" stroke="rgb(0,0,0)" stroke-opacity="1" stroke-width="8" fill="rgb(0,0,0)" fill-opacity="1"></path></g></g><g><g transform="matrix(1,0,0,1,35.9375,33.390625)"><path transform="matrix(0.017,0,0,-0.017,0,0)" d="" stroke="rgb(0,0,0)" stroke-opacity="1" stroke-width="8" fill="rgb(0,0,0)" fill-opacity="1"></path></g></g><g><g><g><g><g transform="matrix(1,0,0,1,41.859375,19)"><path transform="matrix(0.017,0,0,-0.017,0,0)" d="M146 266C146 526 243 632 301 700L282 726C225 675 60 542 60 266C60 159 85 58 133 -32C168 -99 200 -138 282 -215L301 -194C255 -137 146 -15 146 266Z" stroke="rgb(0,0,0)" stroke-opacity="1" stroke-width="8" fill="rgb(0,0,0)" fill-opacity="1"></path></g></g><g><g transform="matrix(1,0,0,1,47.515625,19)"><path transform="matrix(0.017,0,0,-0.017,0,0)" d="M446 444L371 444C319 299 228 47 232 53L231 53L92 444L14 444L186 0L274 0Z" stroke="rgb(0,0,0)" stroke-opacity="1" stroke-width="8" fill="rgb(0,0,0)" fill-opacity="1"></path></g></g><g><g><g><g><g transform="matrix(1,0,0,1,55.84375,22.009375)"><path transform="matrix(0.0119,0,0,-0.0119,0,0)" d="M176 386L286 386L286 444L173 444L173 563C173 637 240 644 266 644C286 644 313 642 347 627L347 694C335 697 304 705 267 705C173 705 101 634 101 534L101 444L27 444L27 386L101 386L101 0L176 0Z" stroke="rgb(0,0,0)" stroke-opacity="1" stroke-width="8" fill="rgb(0,0,0)" fill-opacity="1"></path></g></g></g></g></g><g><g transform="matrix(1,0,0,1,60.484375,19)"><path transform="matrix(0.017,0,0,-0.017,0,0)" d="" stroke="rgb(0,0,0)" stroke-opacity="1" stroke-width="8" fill="rgb(0,0,0)" fill-opacity="1"></path></g></g><g><g transform="matrix(1,0,0,1,68.109375,19)"><path transform="matrix(0.017,0,0,-0.017,0,0)" d="M555 243L555 299L51 299L51 243Z" stroke="rgb(0,0,0)" stroke-opacity="1" stroke-width="8" fill="rgb(0,0,0)" fill-opacity="1"></path></g></g><g><g transform="matrix(1,0,0,1,81.796875,19)"><path transform="matrix(0.017,0,0,-0.017,0,0)" d="M695 444L620 444C568 299 477 47 481 53L480 53L341 444L263 444L435 0L523 0Z" stroke="rgb(0,0,0)" stroke-opacity="1" stroke-width="8" fill="rgb(0,0,0)" fill-opacity="1"></path></g></g><g><g><g><g><g transform="matrix(1,0,0,1,94.359375,22.009375)"><path transform="matrix(0.0119,0,0,-0.0119,0,0)" d="M163 680L74 680L74 591L163 591ZM156 444L81 444L81 0L156 0Z" stroke="rgb(0,0,0)" stroke-opacity="1" stroke-width="8" fill="rgb(0,0,0)" fill-opacity="1"></path></g></g></g></g></g><g><g transform="matrix(1,0,0,1,98.203125,19)"><path transform="matrix(0.017,0,0,-0.017,0,0)" d="M51 726L32 700C87 636 187 526 187 266C187 -10 83 -131 32 -194L51 -215C104 -165 273 -23 273 265C273 542 108 675 51 726Z" stroke="rgb(0,0,0)" stroke-opacity="1" stroke-width="8" fill="rgb(0,0,0)" fill-opacity="1"></path></g></g></g></g><g><g><g><g transform="matrix(1,0,0,1,43.5625,46.78125)"><path transform="matrix(0.017,0,0,-0.017,0,0)" d="M146 266C146 526 243 632 301 700L282 726C225 675 60 542 60 266C60 159 85 58 133 -32C168 -99 200 -138 282 -215L301 -194C255 -137 146 -15 146 266Z" stroke="rgb(0,0,0)" stroke-opacity="1" stroke-width="8" fill="rgb(0,0,0)" fill-opacity="1"></path></g></g><g><g transform="matrix(1,0,0,1,49.21875,46.78125)"><path transform="matrix(0.017,0,0,-0.017,0,0)" d="M175 386L316 386L316 444L175 444L175 571L106 571L106 444L19 444L19 386L103 386L103 119C103 59 117 -11 186 -11C256 -11 307 14 332 27L316 86C290 65 258 53 226 53C189 53 175 83 175 136Z" stroke="rgb(0,0,0)" stroke-opacity="1" stroke-width="8" fill="rgb(0,0,0)" fill-opacity="1"></path></g></g><g><g><g><g><g transform="matrix(1,0,0,1,55.84375,49.790625)"><path transform="matrix(0.0119,0,0,-0.0119,0,0)" d="M176 386L286 386L286 444L173 444L173 563C173 637 240 644 266 644C286 644 313 642 347 627L347 694C335 697 304 705 267 705C173 705 101 634 101 534L101 444L27 444L27 386L101 386L101 0L176 0Z" stroke="rgb(0,0,0)" stroke-opacity="1" stroke-width="8" fill="rgb(0,0,0)" fill-opacity="1"></path></g></g></g></g></g><g><g transform="matrix(1,0,0,1,60.484375,46.78125)"><path transform="matrix(0.017,0,0,-0.017,0,0)" d="" stroke="rgb(0,0,0)" stroke-opacity="1" stroke-width="8" fill="rgb(0,0,0)" fill-opacity="1"></path></g></g><g><g transform="matrix(1,0,0,1,68.109375,46.78125)"><path transform="matrix(0.017,0,0,-0.017,0,0)" d="M555 243L555 299L51 299L51 243Z" stroke="rgb(0,0,0)" stroke-opacity="1" stroke-width="8" fill="rgb(0,0,0)" fill-opacity="1"></path></g></g><g><g transform="matrix(1,0,0,1,81.796875,46.78125)"><path transform="matrix(0.017,0,0,-0.017,0,0)" d="M424 386L565 386L565 444L424 444L424 571L355 571L355 444L268 444L268 386L352 386L352 119C352 59 366 -11 435 -11C505 -11 556 14 581 27L565 86C539 65 507 53 475 53C438 53 424 83 424 136Z" stroke="rgb(0,0,0)" stroke-opacity="1" stroke-width="8" fill="rgb(0,0,0)" fill-opacity="1"></path></g></g><g><g><g><g><g transform="matrix(1,0,0,1,92.65625,49.790625)"><path transform="matrix(0.0119,0,0,-0.0119,0,0)" d="M163 680L74 680L74 591L163 591ZM156 444L81 444L81 0L156 0Z" stroke="rgb(0,0,0)" stroke-opacity="1" stroke-width="8" fill="rgb(0,0,0)" fill-opacity="1"></path></g></g></g></g></g><g><g transform="matrix(1,0,0,1,96.5,46.78125)"><path transform="matrix(0.017,0,0,-0.017,0,0)" d="M51 726L32 700C87 636 187 526 187 266C187 -10 83 -131 32 -194L51 -215C104 -165 273 -23 273 265C273 542 108 675 51 726Z" stroke="rgb(0,0,0)" stroke-opacity="1" stroke-width="8" fill="rgb(0,0,0)" fill-opacity="1"></path></g></g></g></g><line style="fill:none;stroke-width:1px;stroke:rgb(0, 0, 0);" x1="41.859375" y1="29.140625" x2="103.859375" y2="29.140625"></line></g></g></g></svg>