<svg xmlns="http://www.w3.org/2000/svg" xmlns:xlink="http://www.w3.org/1999/xlink" width="112.765625" height="26.390625" style="width:112.765625px;height:26.390625px;font-family:Asana-Math, Asana;background:#FFF;"><g><g><g><g transform="matrix(1,0,0,1,2,19)"><path transform="matrix(0.017,0,0,-0.017,0,0)" d="M260 229L443 444L361 444L227 279L89 444L6 444L194 229L0 0L82 0L227 188L377 0L460 0Z" stroke="rgb(0,0,0)" stroke-opacity="1" stroke-width="8" fill="rgb(0,0,0)" fill-opacity="1"></path></g></g><g><g transform="matrix(1,0,0,1,19.15625,19)"><path transform="matrix(0.017,0,0,-0.017,0,0)" d="M604 347L604 406L65 406L65 347ZM604 134L604 193L65 193L65 134Z" stroke="rgb(0,0,0)" stroke-opacity="1" stroke-width="8" fill="rgb(0,0,0)" fill-opacity="1"></path></g></g><g><g transform="matrix(1,0,0,1,35.609375,19)"><path transform="matrix(0.017,0,0,-0.017,0,0)" d="M509 229L692 444L610 444L476 279L338 444L255 444L443 229L249 0L331 0L476 188L626 0L709 0Z" stroke="rgb(0,0,0)" stroke-opacity="1" stroke-width="8" fill="rgb(0,0,0)" fill-opacity="1"></path></g></g><g><g><g><g><g transform="matrix(1,0,0,1,48.171875,22.009375)"><path transform="matrix(0.0119,0,0,-0.0119,0,0)" d="M457 331C457 412 453 506 411 588C370 665 301 689 250 689C191 689 121 662 80 571C47 497 42 413 42 331C42 251 46 177 76 103C116 5 192 -22 249 -22C322 -22 385 19 417 89C447 155 457 223 457 331ZM250 40C198 40 157 78 137 151C121 209 120 264 120 343C120 407 120 468 137 524C143 544 168 627 249 627C327 627 353 550 360 531C379 475 379 406 379 343C379 276 379 212 361 148C335 56 282 40 250 40Z" stroke="rgb(0,0,0)" stroke-opacity="1" stroke-width="8" fill="rgb(0,0,0)" fill-opacity="1"></path></g></g></g></g></g><g><g transform="matrix(1,0,0,1,55.140625,19)"><path transform="matrix(0.017,0,0,-0.017,0,0)" d="" stroke="rgb(0,0,0)" stroke-opacity="1" stroke-width="8" fill="rgb(0,0,0)" fill-opacity="1"></path></g></g><g><g transform="matrix(1,0,0,1,62.765625,19)"><path transform="matrix(0.017,0,0,-0.017,0,0)" d="M604 241L604 300L364 300L364 538L305 538L305 300L65 300L65 241L305 241L305 0L364 0L364 241Z" stroke="rgb(0,0,0)" stroke-opacity="1" stroke-width="8" fill="rgb(0,0,0)" fill-opacity="1"></path></g></g><g><g transform="matrix(1,0,0,1,77.515625,19)"><path transform="matrix(0.017,0,0,-0.017,0,0)" d="M695 444L620 444C568 299 477 47 481 53L480 53L341 444L263 444L435 0L523 0ZM1126 267L995 213L990 204L1026 153L1036 153L1142 241L1160 99L1170 95L1238 121L1238 131L1170 253L1308 233L1317 241L1317 303L1311 307L1172 283L1241 408L1238 423L1176 442L1167 438L1141 295L1046 393L1036 393L992 341L995 331ZM1770 386L1911 386L1911 444L1770 444L1770 571L1701 571L1701 444L1614 444L1614 386L1698 386L1698 119C1698 59 1712 -11 1781 -11C1851 -11 1902 14 1927 27L1911 86C1885 65 1853 53 1821 53C1784 53 1770 83 1770 136Z" stroke="rgb(0,0,0)" stroke-opacity="1" stroke-width="8" fill="rgb(0,0,0)" fill-opacity="1"></path></g></g></g></g></svg>