<svg xmlns="http://www.w3.org/2000/svg" xmlns:xlink="http://www.w3.org/1999/xlink" width="74.328125" height="47.171875" style="width:74.328125px;height:47.171875px;font-family:Asana-Math, Asana;background:#FFF;"><g><g><g><g transform="matrix(1,0,0,1,2,31.390625)"><path transform="matrix(0.017,0,0,-0.017,0,0)" d="M220 694L96 694L96 0L174 0L174 623L175 623C194 582 236 497 242 486L487 0L611 0L611 694L533 694L533 71L532 71C513 112 471 197 465 208Z" stroke="rgb(0,0,0)" stroke-opacity="1" stroke-width="8" fill="rgb(0,0,0)" fill-opacity="1"></path></g></g><g><g><g><g><g transform="matrix(1,0,0,1,14.53125,34.4)"><path transform="matrix(0.0119,0,0,-0.0119,0,0)" d="M446 444L371 444C319 299 228 47 232 53L231 53L92 444L14 444L186 0L274 0Z" stroke="rgb(0,0,0)" stroke-opacity="1" stroke-width="8" fill="rgb(0,0,0)" fill-opacity="1"></path></g></g></g></g></g><g><g transform="matrix(1,0,0,1,21.03125,31.390625)"><path transform="matrix(0.017,0,0,-0.017,0,0)" d="" stroke="rgb(0,0,0)" stroke-opacity="1" stroke-width="8" fill="rgb(0,0,0)" fill-opacity="1"></path></g></g><g><g transform="matrix(1,0,0,1,30.359375,31.390625)"><path transform="matrix(0.017,0,0,-0.017,0,0)" d="M604 347L604 406L65 406L65 347ZM604 134L604 193L65 193L65 134Z" stroke="rgb(0,0,0)" stroke-opacity="1" stroke-width="8" fill="rgb(0,0,0)" fill-opacity="1"></path></g></g><g><g transform="matrix(1,0,0,1,46.8125,31.390625)"><path transform="matrix(0.017,0,0,-0.017,0,0)" d="" stroke="rgb(0,0,0)" stroke-opacity="1" stroke-width="8" fill="rgb(0,0,0)" fill-opacity="1"></path></g></g><g><g><g><g><g transform="matrix(1,0,0,1,57.3125,19)"><path transform="matrix(0.017,0,0,-0.017,0,0)" d="M237 -16C473 -16 572 316 576 504C578 618 546 702 419 702C159 702 72 412 69 199C67 80 101 -16 237 -16ZM401 676C536 676 506 491 485 381L169 381C194 485 272 676 401 676ZM253 13C102 13 147 261 163 349L479 349C454 237 396 13 253 13Z" stroke="rgb(0,0,0)" stroke-opacity="1" stroke-width="8" fill="rgb(0,0,0)" fill-opacity="1"></path></g></g></g></g><g><g><g><g transform="matrix(1,0,0,1,52.734375,44.78125)"><path transform="matrix(0.017,0,0,-0.017,0,0)" d="M83 466C103 545 131 624 222 624C316 624 367 548 367 468C367 382 310 324 251 263L174 191L50 65L50 0L449 0L449 72L267 72C255 72 243 71 231 71L122 71C154 100 230 176 261 205C333 274 449 347 449 471C449 587 368 689 236 689C122 689 66 610 42 522C66 487 59 501 83 466ZM1024 42C968 42 963 125 964 166C965 251 993 333 1036 405L1098 418C1101 435 1107 452 1112 467C958 461 799 463 644 466C579 467 565 389 546 340C545 332 558 331 562 328L562 332C605 395 629 405 704 405L727 405C687 266 660 129 597 -2L597 -12C617 -6 652 1 669 13C710 141 739 274 767 405L994 405C937 318 896 213 894 108C894 59 909 -15 970 -15C1011 -15 1067 25 1097 51L1097 66L1085 66L1085 67C1067 56 1047 42 1024 42Z" stroke="rgb(0,0,0)" stroke-opacity="1" stroke-width="8" fill="rgb(0,0,0)" fill-opacity="1"></path></g></g></g></g><line style="fill:none;stroke-width:1px;stroke:rgb(0, 0, 0);" x1="52.734375" y1="27.140625" x2="72.328125" y2="27.140625"></line></g></g></g></svg>