<svg xmlns="http://www.w3.org/2000/svg" xmlns:xlink="http://www.w3.org/1999/xlink" width="101.875" height="26.390625" style="width:101.875px;height:26.390625px;font-family:Asana-Math, Asana;background:#FFF;"><g><g><g><g transform="matrix(1,0,0,1,2,19)"><path transform="matrix(0.017,0,0,-0.017,0,0)" d="M96 694L96 0L359 0C529 0 665 152 665 341C665 535 530 694 358 694ZM182 56L182 638L335 638C475 638 579 517 579 341C579 171 475 56 335 56Z" stroke="rgb(0,0,0)" stroke-opacity="1" stroke-width="8" fill="rgb(0,0,0)" fill-opacity="1"></path></g></g><g><g><g><g><g transform="matrix(1,0,0,1,14.765625,22.009375)"><path transform="matrix(0.0119,0,0,-0.0119,0,0)" d="M435 298C435 364 420 455 298 455C236 455 188 424 156 383L156 694L81 694L81 0L159 0L159 245C159 311 184 394 260 394C356 394 357 323 357 291L357 0L435 0Z" stroke="rgb(0,0,0)" stroke-opacity="1" stroke-width="8" fill="rgb(0,0,0)" fill-opacity="1"></path></g></g></g></g></g><g><g transform="matrix(1,0,0,1,21.921875,19)"><path transform="matrix(0.017,0,0,-0.017,0,0)" d="" stroke="rgb(0,0,0)" stroke-opacity="1" stroke-width="8" fill="rgb(0,0,0)" fill-opacity="1"></path></g></g><g><g transform="matrix(1,0,0,1,31.25,19)"><path transform="matrix(0.017,0,0,-0.017,0,0)" d="M604 347L604 406L65 406L65 347ZM604 134L604 193L65 193L65 134Z" stroke="rgb(0,0,0)" stroke-opacity="1" stroke-width="8" fill="rgb(0,0,0)" fill-opacity="1"></path></g></g><g><g transform="matrix(1,0,0,1,47.703125,19)"><path transform="matrix(0.017,0,0,-0.017,0,0)" d="M695 444L620 444C568 299 477 47 481 53L480 53L341 444L263 444L435 0L523 0Z" stroke="rgb(0,0,0)" stroke-opacity="1" stroke-width="8" fill="rgb(0,0,0)" fill-opacity="1"></path></g></g><g><g><g><g><g transform="matrix(1,0,0,1,60.265625,22.009375)"><path transform="matrix(0.0119,0,0,-0.0119,0,0)" d="M469 220C469 354 369 461 250 461C127 461 30 351 30 220C30 88 132 -11 249 -11C369 -11 469 90 469 220ZM249 53C180 53 108 109 108 230C108 351 184 400 249 400C319 400 391 348 391 230C391 112 323 53 249 53ZM759 229L942 444L860 444L726 279L588 444L505 444L693 229L499 0L581 0L726 188L876 0L959 0Z" stroke="rgb(0,0,0)" stroke-opacity="1" stroke-width="8" fill="rgb(0,0,0)" fill-opacity="1"></path></g></g></g></g></g><g><g transform="matrix(1,0,0,1,72.703125,19)"><path transform="matrix(0.017,0,0,-0.017,0,0)" d="M417 267L286 213L281 204L317 153L327 153L433 241L451 99L461 95L529 121L529 131L461 253L599 233L608 241L608 303L602 307L463 283L532 408L529 423L467 442L458 438L432 295L337 393L327 393L283 341L286 331ZM1061 386L1202 386L1202 444L1061 444L1061 571L992 571L992 444L905 444L905 386L989 386L989 119C989 59 1003 -11 1072 -11C1142 -11 1193 14 1218 27L1202 86C1176 65 1144 53 1112 53C1075 53 1061 83 1061 136Z" stroke="rgb(0,0,0)" stroke-opacity="1" stroke-width="8" fill="rgb(0,0,0)" fill-opacity="1"></path></g></g><g><g><g><g><g transform="matrix(1,0,0,1,94.390625,22.009375)"><path transform="matrix(0.0119,0,0,-0.0119,0,0)" d="M446 444L371 444C319 299 228 47 232 53L231 53L92 444L14 444L186 0L274 0Z" stroke="rgb(0,0,0)" stroke-opacity="1" stroke-width="8" fill="rgb(0,0,0)" fill-opacity="1"></path></g></g></g></g></g></g></g></svg>