<svg xmlns="http://www.w3.org/2000/svg" xmlns:xlink="http://www.w3.org/1999/xlink" width="88.796875" height="56.171875" style="width:88.796875px;height:56.171875px;font-family:Asana-Math, Asana;background:#FFF;"><g><g><g><g transform="matrix(1,0,0,1,2,37.390625)"><path transform="matrix(0.017,0,0,-0.017,0,0)" d="M175 386L316 386L316 444L175 444L175 571L106 571L106 444L19 444L19 386L103 386L103 119C103 59 117 -11 186 -11C256 -11 307 14 332 27L316 86C290 65 258 53 226 53C189 53 175 83 175 136Z" stroke="rgb(0,0,0)" stroke-opacity="1" stroke-width="8" fill="rgb(0,0,0)" fill-opacity="1"></path></g></g><g><g><g><g><g transform="matrix(1,0,0,1,8.625,40.4)"><path transform="matrix(0.0119,0,0,-0.0119,0,0)" d="M410 418C351 452 317 461 256 461C117 461 36 340 36 222C36 98 127 -11 252 -11C306 -11 361 3 415 40L409 107C358 67 304 53 253 53C170 53 114 125 114 223C114 301 151 397 257 397C309 397 343 389 398 353Z" stroke="rgb(0,0,0)" stroke-opacity="1" stroke-width="8" fill="rgb(0,0,0)" fill-opacity="1"></path></g></g></g></g></g><g><g transform="matrix(1,0,0,1,14.921875,37.390625)"><path transform="matrix(0.017,0,0,-0.017,0,0)" d="" stroke="rgb(0,0,0)" stroke-opacity="1" stroke-width="8" fill="rgb(0,0,0)" fill-opacity="1"></path></g></g><g><g transform="matrix(1,0,0,1,24.25,37.390625)"><path transform="matrix(0.017,0,0,-0.017,0,0)" d="M604 347L604 406L65 406L65 347ZM604 134L604 193L65 193L65 134Z" stroke="rgb(0,0,0)" stroke-opacity="1" stroke-width="8" fill="rgb(0,0,0)" fill-opacity="1"></path></g></g><g><g transform="matrix(1,0,0,1,40.703125,37.390625)"><path transform="matrix(0.017,0,0,-0.017,0,0)" d="" stroke="rgb(0,0,0)" stroke-opacity="1" stroke-width="8" fill="rgb(0,0,0)" fill-opacity="1"></path></g></g><g><g><g><g><g><g><g><g transform="matrix(1,0,0,1,67.859375,25)"><path transform="matrix(0.017,0,0,-0.017,0,0)" d="M83 466C103 545 131 624 222 624C316 624 367 548 367 468C367 382 310 324 251 263L174 191L50 65L50 0L449 0L449 72L267 72C255 72 243 71 231 71L122 71C154 100 230 176 261 205C333 274 449 347 449 471C449 587 368 689 236 689C122 689 66 610 42 522C66 487 59 501 83 466ZM934 298C934 364 919 455 797 455C735 455 687 424 655 383L655 694L580 694L580 0L658 0L658 245C658 311 683 394 759 394C855 394 856 323 856 291L856 0L934 0Z" stroke="rgb(0,0,0)" stroke-opacity="1" stroke-width="8" fill="rgb(0,0,0)" fill-opacity="1"></path></g></g></g></g><g><g><g><g transform="matrix(1,0,0,1,72.234375,50.78125)"><path transform="matrix(0.017,0,0,-0.017,0,0)" d="M352 391C374 391 402 395 426 395C444 395 483 392 485 392L474 455C404 455 346 436 316 423C295 440 261 455 221 455C135 455 62 383 62 292C62 255 75 219 95 193C66 152 66 113 66 108C66 82 75 53 92 32C40 1 28 -45 28 -71C28 -146 127 -206 249 -206C372 -206 471 -147 471 -70C471 69 304 69 265 69L177 69C164 69 119 69 119 122C119 133 123 149 130 158C151 143 184 129 221 129C311 129 381 203 381 292C381 340 359 377 348 392ZM221 186C184 186 132 209 132 292C132 375 184 398 221 398C264 398 311 370 311 292C311 214 264 186 221 186ZM266 -3C288 -3 401 -3 401 -72C401 -116 332 -149 250 -149C169 -149 98 -118 98 -71C98 -68 98 -3 176 -3Z" stroke="rgb(0,0,0)" stroke-opacity="1" stroke-width="8" fill="rgb(0,0,0)" fill-opacity="1"></path></g></g></g></g><line style="fill:none;stroke-width:1px;stroke:rgb(0, 0, 0);" x1="67.859375" y1="33.140625" x2="85.109375" y2="33.140625"></line></g></g></g><svg x="49.171875" overflow="visible" y="6" height="17" width="37.625"><polygon points="0.35,36.06 4.79,33.69 9.06,42.75 16.36,0.00 37.63,0.00 37.63,1.05 17.19,1.05 9.18,48.36 3.10,35.62 0.64,36.54" style="fill:rgb(0,0,0);fill-opacity:1;stroke-width:1px;stroke:none;stroke-opacity:1;"></polygon></svg></g></g></g></svg>