<svg xmlns="http://www.w3.org/2000/svg" xmlns:xlink="http://www.w3.org/1999/xlink" width="74.78125" height="24.390625" style="width:74.78125px;height:24.390625px;font-family:Asana-Math, Asana;background:#FFF;"><g><g><g><g transform="matrix(1,0,0,1,2,19)"><path transform="matrix(0.017,0,0,-0.017,0,0)" d="M183 -16C340 -16 453 139 455 287C458 470 216 507 227 622C234 698 356 689 413 655L423 655C420 667 417 681 411 694C316 715 167 698 156 597C149 540 224 493 266 464L266 458C123 426 31 304 29 160C27 53 70 -16 183 -16ZM209 12C125 12 105 99 106 167C108 295 153 411 287 448C349 399 381 350 380 269C378 174 327 12 209 12Z" stroke="rgb(0,0,0)" stroke-opacity="1" stroke-width="8" fill="rgb(0,0,0)" fill-opacity="1"></path></g></g><g><g transform="matrix(1,0,0,1,19.78125,19)"><path transform="matrix(0.017,0,0,-0.017,0,0)" d="M604 347L604 406L65 406L65 347ZM604 134L604 193L65 193L65 134Z" stroke="rgb(0,0,0)" stroke-opacity="1" stroke-width="8" fill="rgb(0,0,0)" fill-opacity="1"></path></g></g><g><g transform="matrix(1,0,0,1,36.234375,19)"><path transform="matrix(0.017,0,0,-0.017,0,0)" d="M409 46C440 17 484 -11 544 -11C641 -11 729 87 729 223C729 343 666 455 570 455C510 455 452 434 406 395L406 444L331 444L331 -194L409 -194ZM409 333C433 368 472 391 515 391C591 391 651 315 651 223C651 120 580 50 505 50C466 50 439 70 419 97C409 112 409 114 409 132ZM1181 267L1050 213L1045 204L1081 153L1091 153L1197 241L1215 99L1225 95L1293 121L1293 131L1225 253L1363 233L1372 241L1372 303L1366 307L1227 283L1296 408L1293 423L1231 442L1222 438L1196 295L1101 393L1091 393L1047 341L1050 331ZM2002 391C2024 391 2052 395 2076 395C2094 395 2133 392 2135 392L2124 455C2054 455 1996 436 1966 423C1945 440 1911 455 1871 455C1785 455 1712 383 1712 292C1712 255 1725 219 1745 193C1716 152 1716 113 1716 108C1716 82 1725 53 1742 32C1690 1 1678 -45 1678 -71C1678 -146 1777 -206 1899 -206C2022 -206 2121 -147 2121 -70C2121 69 1954 69 1915 69L1827 69C1814 69 1769 69 1769 122C1769 133 1773 149 1780 158C1801 143 1834 129 1871 129C1961 129 2031 203 2031 292C2031 340 2009 377 1998 392ZM1871 186C1834 186 1782 209 1782 292C1782 375 1834 398 1871 398C1914 398 1961 370 1961 292C1961 214 1914 186 1871 186ZM1916 -3C1938 -3 2051 -3 2051 -72C2051 -116 1982 -149 1900 -149C1819 -149 1748 -118 1748 -71C1748 -68 1748 -3 1826 -3Z" stroke="rgb(0,0,0)" stroke-opacity="1" stroke-width="8" fill="rgb(0,0,0)" fill-opacity="1"></path></g></g></g></g></svg>