<svg version="1.1" xmlns="http://www.w3.org/2000/svg" viewBox="0 0 97.44995190722693 134.523401087632" width="194.89990381445386" height="269.046802175264">
  <!-- svg-source:excalidraw -->
  
  <defs>
    <style class="style-fonts">
      @font-face {
        font-family: "Virgil";
        src: url("https://excalidraw.com/Virgil.woff2");
      }
      @font-face {
        font-family: "Cascadia";
        src: url("https://excalidraw.com/Cascadia.woff2");
      }
    </style>
  </defs>
  <g stroke-linecap="round"><g transform="translate(21.7457082705223 10) rotate(0 32.78676934756004 52.239443566680166)"><path d="M0 0 C0 22.72, 0 45.45, 0 104.48 M0 0 C0 23.94, 0 47.89, 0 104.48 M0 104.48 C23 104.36, 46 104.24, 65.57 104.14 M0 104.48 C20.39 104.37, 40.78 104.27, 65.57 104.14" stroke="black" stroke-width="2" fill="none"></path></g></g><mask></mask><g stroke-linecap="round"><g transform="translate(21.9605422832974 10.03359016376271) rotate(0 32.744704811964766 52.06067744014217)"><path d="M0 0 C25.12 39.94, 50.24 79.88, 65.49 104.12 M0 0 C21.98 34.95, 43.97 69.9, 65.49 104.12" stroke="black" stroke-width="2" fill="none"></path></g></g><mask></mask><g transform="translate(40.78137998330203 114.90404685054637) rotate(0 10.420967090176418 4.809677118542822)"><text x="10.4209670901764" y="7.619354237085908" font-family="Cascadia, Segoe UI Emoji" font-size="7.559700795716974px" fill="black" text-anchor="middle" style="white-space: pre;" direction="ltr">50cm</text></g><g transform="translate(64.15573396940817 58.736263669239634) rotate(0 9.318976407838818 4.545842150165299)"><text x="9.318976407838587" y="7.091684300330327" font-family="Cascadia, Segoe UI Emoji" font-size="7.559700795716974px" fill="black" text-anchor="middle" style="white-space: pre;" direction="ltr">2.5m</text></g><g transform="translate(10 64.81671523717523) rotate(0 3.409381612624202 5.909594795214616)"><text x="3.4093816126238727" y="9.819189590429426" font-family="Cascadia, Segoe UI Emoji" font-size="9.71961530877897px" fill="black" text-anchor="middle" style="white-space: pre;" direction="ltr">X</text></g></svg>