<svg version="1.1" xmlns="http://www.w3.org/2000/svg" viewBox="0 0 938.5912143097303 241.26280737347975" width="1877.1824286194606" height="482.5256147469595">
  <!-- svg-source:excalidraw -->
  
  <defs>
    <style>
      @font-face {
        font-family: "Virgil";
        src: url("https://excalidraw.com/Virgil.woff2");
      }
      @font-face {
        font-family: "Cascadia";
        src: url("https://excalidraw.com/Cascadia.woff2");
      }
    </style>
  </defs>
  <g transform="translate(30.529159996425278 12.56599392632478) rotate(0 68 16)"><text x="68" y="25" font-family="Helvetica, Segoe UI Emoji" font-size="28px" fill="#000000" text-anchor="middle" style="white-space: pre;" direction="ltr">3 mol H2O</text></g><g transform="translate(13.778725378861509 56.41537179994418) rotate(0 85 16)"><text x="85" y="25" font-family="Helvetica, Segoe UI Emoji" font-size="28px" fill="#000000" text-anchor="middle" style="white-space: pre;" direction="ltr">2 mol H3PO4</text></g><g transform="translate(230.41614576820893 38.74068286313445) rotate(0 -7.653338394729417 10.71467375262128)" stroke="none"><path fill="#000000" d="M 2.10,0.70 Q 2.10,0.70 1.68,2.04 1.26,3.39 0.00,5.10 -1.25,6.82 -2.11,8.21 -2.96,9.60 -3.77,11.07 -4.58,12.54 -5.96,14.19 -7.35,15.83 -8.85,17.36 -10.36,18.89 -11.98,20.68 -13.60,22.47 -13.81,22.72 -14.02,22.96 -14.30,23.12 -14.58,23.29 -14.90,23.35 -15.21,23.42 -15.53,23.38 -15.86,23.34 -16.15,23.21 -16.44,23.07 -16.67,22.84 -16.90,22.62 -17.05,22.33 -17.20,22.04 -17.25,21.72 -17.30,21.40 -17.24,21.09 -17.19,20.77 -17.04,20.48 -16.88,20.20 -16.64,19.98 -16.41,19.76 -16.11,19.63 -15.82,19.49 -15.50,19.46 -15.17,19.43 -14.86,19.50 -14.54,19.58 -14.27,19.74 -13.99,19.91 -13.79,20.16 -13.58,20.41 -13.46,20.71 -13.35,21.01 -13.33,21.34 -13.32,21.66 -13.41,21.97 -13.50,22.28 -13.68,22.55 -13.86,22.81 -14.12,23.01 -14.38,23.20 -14.69,23.30 -15.00,23.40 -15.32,23.40 -15.64,23.39 -15.95,23.29 -16.26,23.18 -16.51,22.98 -16.77,22.78 -16.95,22.51 -17.12,22.25 -17.21,21.93 -17.29,21.62 -17.27,21.30 -17.25,20.98 -17.13,20.68 -17.00,20.38 -17.00,20.38 -17.00,20.38 -15.02,18.38 -13.04,16.38 -11.74,14.86 -10.44,13.33 -9.37,11.93 -8.29,10.52 -7.46,8.96 -6.63,7.40 -5.70,5.81 -4.77,4.22 -3.89,3.05 -3.02,1.89 -2.56,0.59 -2.10,-0.70 -1.98,-0.94 -1.87,-1.18 -1.70,-1.38 -1.53,-1.59 -1.32,-1.75 -1.10,-1.91 -0.86,-2.02 -0.61,-2.12 -0.35,-2.16 -0.09,-2.21 0.17,-2.19 0.44,-2.16 0.69,-2.08 0.94,-2.00 1.17,-1.85 1.39,-1.71 1.58,-1.52 1.76,-1.33 1.90,-1.09 2.03,-0.86 2.11,-0.61 2.18,-0.35 2.19,-0.08 2.20,0.17 2.15,0.43 2.10,0.70 2.10,0.70 L 2.10,0.70 Z"></path></g><g transform="translate(218.17080433664182 41.80201822102623) rotate(0 9.949339913148265 9.94933991314835)" stroke="none"><path fill="#000000" d="M 1.41,-1.41 Q 1.41,-1.41 2.71,-0.07 4.02,1.26 5.12,2.83 6.23,4.39 7.76,5.78 9.29,7.16 10.58,8.81 11.87,10.45 13.18,11.96 14.49,13.46 15.91,15.00 17.32,16.54 19.07,17.45 20.83,18.36 21.05,18.55 21.27,18.74 21.42,18.99 21.56,19.24 21.62,19.52 21.68,19.81 21.65,20.10 21.62,20.38 21.50,20.65 21.37,20.91 21.17,21.12 20.97,21.33 20.71,21.46 20.46,21.60 20.17,21.64 19.88,21.69 19.60,21.64 19.31,21.59 19.05,21.45 18.80,21.31 18.60,21.10 18.40,20.89 18.28,20.63 18.16,20.36 18.13,20.07 18.10,19.79 18.17,19.50 18.23,19.22 18.38,18.97 18.53,18.72 18.76,18.54 18.98,18.35 19.25,18.25 19.52,18.14 19.81,18.13 20.10,18.11 20.38,18.19 20.66,18.27 20.90,18.44 21.14,18.60 21.31,18.83 21.48,19.06 21.57,19.34 21.67,19.62 21.66,19.91 21.66,20.20 21.57,20.47 21.47,20.74 21.30,20.97 21.12,21.20 20.88,21.36 20.64,21.53 20.36,21.60 20.08,21.68 19.79,21.66 19.50,21.64 19.23,21.53 18.96,21.42 18.96,21.42 18.96,21.42 17.01,20.08 15.07,18.74 13.54,17.22 12.02,15.70 10.57,14.16 9.11,12.61 8.04,11.23 6.97,9.85 5.01,8.25 3.05,6.64 2.15,5.32 1.26,4.01 -0.07,2.71 -1.41,1.41 -1.56,1.22 -1.71,1.03 -1.81,0.81 -1.91,0.59 -1.95,0.35 -1.99,0.12 -1.98,-0.12 -1.97,-0.36 -1.89,-0.59 -1.82,-0.82 -1.70,-1.02 -1.57,-1.23 -1.40,-1.40 -1.23,-1.57 -1.02,-1.70 -0.82,-1.82 -0.59,-1.89 -0.36,-1.97 -0.11,-1.98 0.12,-1.99 0.35,-1.95 0.59,-1.91 0.81,-1.81 1.03,-1.71 1.22,-1.56 1.41,-1.41 1.41,-1.41 L 1.41,-1.41 Z"></path></g><g transform="translate(261.49732398566084 13.061335357891835) rotate(0 85 16)"><text x="85" y="25" font-family="Helvetica, Segoe UI Emoji" font-size="28px" fill="#000000" text-anchor="middle" style="white-space: pre;" direction="ltr">1 mol H3PO4</text></g><g transform="translate(264.2468893680971 56.910713231511295) rotate(0 82.5 16)"><text x="82.5" y="25" font-family="Helvetica, Segoe UI Emoji" font-size="28px" fill="#000000" text-anchor="middle" style="white-space: pre;" direction="ltr">98 gr H3PO4</text></g><g stroke-linecap="round"><g transform="translate(254.90682863134361 51.48136572626879) rotate(0 93.37072841569966 0)"><path d="M0 0 C59.09 0, 118.18 0, 186.74 0 M0 0 C47.14 0, 94.28 0, 186.74 0" stroke="#000000" stroke-width="1" fill="none"></path></g></g><g transform="translate(474.55764056008 37.97534902366158) rotate(0 -7.653338394729417 10.71467375262128)" stroke="none"><path fill="#000000" d="M 2.08,0.69 Q 2.08,0.69 1.66,2.04 1.24,3.38 -0.00,5.10 -1.26,6.81 -2.11,8.21 -2.97,9.60 -3.78,11.07 -4.59,12.54 -5.97,14.18 -7.35,15.82 -8.86,17.35 -10.36,18.89 -11.86,20.44 -13.37,21.99 -13.57,22.23 -13.78,22.47 -14.05,22.63 -14.32,22.79 -14.63,22.85 -14.94,22.92 -15.25,22.88 -15.56,22.84 -15.85,22.71 -16.13,22.57 -16.36,22.36 -16.59,22.14 -16.73,21.86 -16.88,21.58 -16.92,21.27 -16.97,20.96 -16.92,20.65 -16.86,20.33 -16.71,20.06 -16.56,19.78 -16.33,19.57 -16.10,19.35 -15.81,19.22 -15.53,19.09 -15.21,19.06 -14.90,19.03 -14.59,19.10 -14.29,19.17 -14.02,19.34 -13.75,19.50 -13.55,19.75 -13.35,19.99 -13.23,20.28 -13.12,20.57 -13.11,20.89 -13.09,21.20 -13.18,21.51 -13.27,21.81 -13.45,22.07 -13.63,22.33 -13.88,22.52 -14.13,22.70 -14.43,22.80 -14.73,22.90 -15.04,22.90 -15.36,22.89 -15.66,22.79 -15.95,22.69 -16.20,22.49 -16.45,22.30 -16.63,22.04 -16.80,21.77 -16.88,21.47 -16.96,21.17 -16.94,20.85 -16.92,20.54 -16.80,20.25 -16.68,19.95 -16.68,19.95 -16.68,19.95 -14.86,18.17 -13.03,16.39 -11.74,14.86 -10.44,13.33 -9.36,11.93 -8.28,10.52 -7.46,8.97 -6.63,7.41 -5.69,5.82 -4.76,4.22 -3.88,3.06 -3.00,1.89 -2.54,0.60 -2.08,-0.69 -1.97,-0.93 -1.85,-1.17 -1.68,-1.37 -1.52,-1.58 -1.31,-1.74 -1.09,-1.90 -0.85,-2.00 -0.61,-2.10 -0.35,-2.15 -0.08,-2.19 0.17,-2.17 0.43,-2.15 0.68,-2.06 0.94,-1.98 1.16,-1.84 1.38,-1.70 1.57,-1.51 1.75,-1.32 1.88,-1.09 2.02,-0.86 2.09,-0.60 2.16,-0.35 2.17,-0.08 2.18,0.17 2.13,0.43 2.08,0.69 2.08,0.69 L 2.08,0.69 Z"></path></g><g transform="translate(462.31229912851313 41.0366843815533) rotate(0 9.949339913148378 9.94933991314835)" stroke="none"><path fill="#000000" d="M 1.40,-1.40 Q 1.40,-1.40 2.71,-0.06 4.01,1.27 5.11,2.83 6.22,4.40 7.75,5.78 9.29,7.16 10.58,8.81 11.87,10.46 13.18,11.96 14.49,13.46 15.90,15.00 17.32,16.54 18.73,17.27 20.13,18.00 20.35,18.18 20.56,18.36 20.71,18.61 20.85,18.85 20.91,19.13 20.97,19.40 20.94,19.68 20.90,19.96 20.78,20.22 20.66,20.47 20.47,20.68 20.27,20.88 20.02,21.01 19.77,21.14 19.49,21.19 19.21,21.23 18.94,21.18 18.66,21.14 18.41,21.00 18.16,20.87 17.97,20.66 17.77,20.46 17.66,20.20 17.54,19.94 17.51,19.66 17.48,19.38 17.55,19.10 17.61,18.83 17.76,18.59 17.90,18.35 18.12,18.17 18.34,17.98 18.60,17.88 18.86,17.78 19.14,17.77 19.43,17.75 19.70,17.83 19.97,17.91 20.20,18.07 20.43,18.23 20.60,18.45 20.77,18.68 20.86,18.95 20.95,19.21 20.95,19.50 20.95,19.78 20.85,20.05 20.76,20.31 20.59,20.54 20.42,20.76 20.18,20.92 19.95,21.07 19.68,21.15 19.40,21.22 19.12,21.20 18.84,21.19 18.58,21.08 18.32,20.98 18.32,20.98 18.32,20.98 16.69,19.85 15.07,18.73 13.55,17.22 12.02,15.70 10.57,14.15 9.12,12.61 8.04,11.23 6.97,9.85 5.01,8.24 3.05,6.64 2.16,5.32 1.26,4.00 -0.06,2.70 -1.40,1.40 -1.55,1.21 -1.70,1.02 -1.80,0.81 -1.89,0.59 -1.94,0.35 -1.98,0.12 -1.97,-0.11 -1.95,-0.35 -1.88,-0.58 -1.81,-0.81 -1.69,-1.02 -1.56,-1.22 -1.39,-1.39 -1.22,-1.56 -1.02,-1.69 -0.81,-1.81 -0.58,-1.88 -0.35,-1.95 -0.11,-1.97 0.12,-1.98 0.35,-1.94 0.59,-1.89 0.81,-1.80 1.02,-1.70 1.21,-1.55 1.40,-1.40 1.40,-1.40 L 1.40,-1.40 Z"></path></g><g transform="translate(516.7201465433286 10) rotate(0 65.5 16)"><text x="65.5" y="25" font-family="Helvetica, Segoe UI Emoji" font-size="28px" fill="#000000" text-anchor="middle" style="white-space: pre;" direction="ltr">18 gr H2O</text></g><g transform="translate(514.4697119257648 53.84937787361946) rotate(0 68 16)"><text x="68" y="25" font-family="Helvetica, Segoe UI Emoji" font-size="28px" fill="#000000" text-anchor="middle" style="white-space: pre;" direction="ltr">1 mol H2O</text></g><g stroke-linecap="round"><g transform="translate(490.62965118901184 48.420030368376956) rotate(0 93.37072841569966 0)"><path d="M0 0 C43.53 0, 87.05 0, 186.74 0 M0 0 C71.34 0, 142.69 0, 186.74 0" stroke="#000000" stroke-width="1" fill="none"></path></g></g><g transform="translate(714.8724661545848 34.91401366576963) rotate(0 -7.653338394729417 10.71467375262128)" stroke="none"><path fill="#000000" d="M 2.08,0.69 Q 2.08,0.69 1.66,2.04 1.24,3.38 -0.00,5.10 -1.26,6.81 -2.11,8.21 -2.97,9.60 -3.78,11.07 -4.59,12.54 -5.97,14.18 -7.35,15.82 -8.86,17.35 -10.36,18.89 -11.86,20.44 -13.37,21.99 -13.57,22.23 -13.78,22.47 -14.05,22.63 -14.32,22.79 -14.63,22.85 -14.94,22.92 -15.25,22.88 -15.56,22.84 -15.85,22.71 -16.13,22.57 -16.36,22.36 -16.59,22.14 -16.73,21.86 -16.88,21.58 -16.92,21.27 -16.97,20.96 -16.92,20.65 -16.86,20.33 -16.71,20.06 -16.56,19.78 -16.33,19.57 -16.10,19.35 -15.81,19.22 -15.53,19.09 -15.21,19.06 -14.90,19.03 -14.59,19.10 -14.29,19.17 -14.02,19.34 -13.75,19.50 -13.55,19.75 -13.35,19.99 -13.23,20.28 -13.12,20.57 -13.11,20.89 -13.09,21.20 -13.18,21.51 -13.27,21.81 -13.45,22.07 -13.63,22.33 -13.88,22.52 -14.13,22.70 -14.43,22.80 -14.73,22.90 -15.04,22.90 -15.36,22.89 -15.66,22.79 -15.95,22.69 -16.20,22.49 -16.45,22.30 -16.63,22.04 -16.80,21.77 -16.88,21.47 -16.96,21.17 -16.94,20.85 -16.92,20.54 -16.80,20.25 -16.68,19.95 -16.68,19.95 -16.68,19.95 -14.86,18.17 -13.03,16.39 -11.74,14.86 -10.44,13.33 -9.36,11.93 -8.28,10.52 -7.46,8.97 -6.63,7.41 -5.69,5.82 -4.76,4.22 -3.88,3.06 -3.00,1.89 -2.54,0.60 -2.08,-0.69 -1.97,-0.93 -1.85,-1.17 -1.68,-1.37 -1.52,-1.58 -1.31,-1.74 -1.09,-1.90 -0.85,-2.00 -0.61,-2.10 -0.35,-2.15 -0.08,-2.19 0.17,-2.17 0.43,-2.15 0.68,-2.06 0.94,-1.98 1.16,-1.84 1.38,-1.70 1.57,-1.51 1.75,-1.32 1.88,-1.09 2.02,-0.86 2.09,-0.60 2.16,-0.35 2.17,-0.08 2.18,0.17 2.13,0.43 2.08,0.69 2.08,0.69 L 2.08,0.69 Z"></path></g><g transform="translate(702.6271247230179 37.97534902366135) rotate(0 9.949339913148151 9.94933991314835)" stroke="none"><path fill="#000000" d="M 1.40,-1.40 Q 1.40,-1.40 2.71,-0.06 4.01,1.27 5.11,2.83 6.22,4.40 7.75,5.78 9.29,7.16 10.58,8.81 11.87,10.46 13.18,11.96 14.49,13.46 15.90,15.00 17.32,16.54 18.73,17.27 20.13,18.00 20.35,18.18 20.56,18.36 20.71,18.61 20.85,18.85 20.91,19.13 20.97,19.40 20.94,19.68 20.90,19.96 20.78,20.22 20.66,20.47 20.47,20.68 20.27,20.88 20.02,21.01 19.77,21.14 19.49,21.19 19.21,21.23 18.94,21.18 18.66,21.14 18.41,21.00 18.16,20.87 17.97,20.66 17.77,20.46 17.66,20.20 17.54,19.94 17.51,19.66 17.48,19.38 17.55,19.10 17.61,18.83 17.76,18.59 17.90,18.35 18.12,18.17 18.34,17.98 18.60,17.88 18.86,17.78 19.14,17.77 19.43,17.75 19.70,17.83 19.97,17.91 20.20,18.07 20.43,18.23 20.60,18.45 20.77,18.68 20.86,18.95 20.95,19.21 20.95,19.50 20.95,19.78 20.85,20.05 20.76,20.31 20.59,20.54 20.42,20.76 20.18,20.92 19.95,21.07 19.68,21.15 19.40,21.22 19.12,21.20 18.84,21.19 18.58,21.08 18.32,20.98 18.32,20.98 18.32,20.98 16.69,19.85 15.07,18.73 13.55,17.22 12.02,15.70 10.57,14.15 9.12,12.61 8.04,11.23 6.97,9.85 5.01,8.24 3.05,6.64 2.16,5.32 1.26,4.00 -0.06,2.70 -1.40,1.40 -1.55,1.21 -1.70,1.02 -1.80,0.81 -1.89,0.59 -1.94,0.35 -1.98,0.12 -1.97,-0.11 -1.95,-0.35 -1.88,-0.58 -1.81,-0.81 -1.69,-1.02 -1.56,-1.22 -1.39,-1.39 -1.22,-1.56 -1.02,-1.69 -0.81,-1.81 -0.58,-1.88 -0.35,-1.95 -0.11,-1.97 0.12,-1.98 0.35,-1.94 0.59,-1.89 0.81,-1.80 1.02,-1.70 1.21,-1.55 1.40,-1.40 1.40,-1.40 L 1.40,-1.40 Z"></path></g><g transform="translate(747.5912143097303 30.832685899972205) rotate(0 90.5 16)"><text x="90.5" y="25" font-family="Helvetica, Segoe UI Emoji" font-size="28px" fill="#000000" text-anchor="middle" style="white-space: pre;" direction="ltr">500 gr H3PO4</text></g><g stroke-opacity="0.3" fill-opacity="0.3" transform="translate(43.674688936809616 75.47670715783596) rotate(0 64.28804251572762 -3.826669197364737)" stroke="none"><path fill="#000000" d="M 0,-1.61 Q 0,-1.61 1.32,-1.70 2.64,-1.80 6.28,-1.73 9.92,-1.66 17.19,-1.62 24.46,-1.57 33.27,-1.53 42.08,-1.50 51.07,-1.91 60.06,-2.32 68.27,-2.93 76.49,-3.54 83.90,-4.67 91.31,-5.79 98.46,-6.71 105.61,-7.63 111.32,-8.02 117.03,-8.41 119.89,-8.58 122.75,-8.74 125.63,-8.99 128.50,-9.24 128.76,-9.21 129.01,-9.17 129.25,-9.06 129.48,-8.95 129.66,-8.77 129.85,-8.60 129.96,-8.37 130.08,-8.14 130.12,-7.88 130.16,-7.63 130.12,-7.38 130.07,-7.12 129.95,-6.90 129.83,-6.67 129.64,-6.50 129.45,-6.32 129.21,-6.22 128.98,-6.11 128.72,-6.09 128.47,-6.06 128.22,-6.12 127.97,-6.18 127.75,-6.31 127.53,-6.45 127.36,-6.65 127.20,-6.84 127.11,-7.08 127.02,-7.32 127.00,-7.58 126.99,-7.84 127.06,-8.08 127.14,-8.33 127.28,-8.54 127.43,-8.75 127.64,-8.91 127.84,-9.06 128.09,-9.14 128.33,-9.22 128.59,-9.22 128.85,-9.21 129.09,-9.13 129.33,-9.04 129.53,-8.89 129.74,-8.73 129.88,-8.51 130.02,-8.30 130.09,-8.05 130.15,-7.80 130.14,-7.55 130.12,-7.29 130.02,-7.05 129.92,-6.81 129.75,-6.62 129.59,-6.43 129.36,-6.30 129.14,-6.17 128.89,-6.11 128.64,-6.06 128.64,-6.06 128.64,-6.06 125.77,-6.06 122.91,-6.06 120.06,-5.89 117.22,-5.72 111.59,-5.32 105.96,-4.92 98.85,-3.99 91.73,-3.05 84.22,-1.89 76.71,-0.72 68.45,-0.07 60.20,0.56 51.14,1.03 42.08,1.50 33.27,1.53 24.46,1.57 17.19,1.62 9.92,1.66 6.28,1.73 2.64,1.80 1.32,1.70 0,1.61 -0.19,1.59 -0.38,1.56 -0.56,1.49 -0.74,1.42 -0.91,1.31 -1.07,1.20 -1.19,1.06 -1.32,0.91 -1.41,0.74 -1.50,0.57 -1.55,0.38 -1.60,0.19 -1.60,-0.00 -1.60,-0.19 -1.55,-0.38 -1.50,-0.57 -1.41,-0.74 -1.32,-0.91 -1.19,-1.06 -1.07,-1.20 -0.90,-1.31 -0.74,-1.42 -0.56,-1.49 -0.38,-1.56 -0.19,-1.59 0.00,-1.61 0.00,-1.61 L 0,-1.61 Z"></path></g><g stroke-opacity="0.3" fill-opacity="0.3" transform="translate(288.58151756815323 34.1486798262967) rotate(0 66.58404403414647 -4.592003036837667)" stroke="none"><path fill="#000000" d="M 0,-1.56 Q 0,-1.56 3.08,-1.52 6.16,-1.49 9.23,-1.46 12.29,-1.44 14.92,-1.42 17.54,-1.40 20.77,-1.82 23.99,-2.25 28.55,-2.43 33.10,-2.61 39.43,-2.68 45.76,-2.76 53.72,-2.79 61.69,-2.82 69.88,-3.27 78.07,-3.72 86.40,-4.34 94.72,-4.97 102.65,-5.68 110.59,-6.39 116.14,-7.12 121.68,-7.86 124.95,-8.18 128.21,-8.49 130.39,-9.56 132.56,-10.63 132.81,-10.69 133.05,-10.75 133.31,-10.73 133.56,-10.70 133.80,-10.60 134.03,-10.50 134.22,-10.32 134.40,-10.15 134.53,-9.93 134.65,-9.70 134.69,-9.45 134.74,-9.20 134.70,-8.95 134.66,-8.70 134.55,-8.47 134.43,-8.24 134.25,-8.07 134.07,-7.89 133.84,-7.78 133.61,-7.67 133.35,-7.64 133.10,-7.60 132.85,-7.66 132.60,-7.71 132.38,-7.83 132.16,-7.96 131.99,-8.15 131.82,-8.35 131.73,-8.58 131.63,-8.82 131.61,-9.07 131.59,-9.33 131.66,-9.57 131.72,-9.82 131.86,-10.03 132.00,-10.25 132.20,-10.40 132.40,-10.56 132.65,-10.65 132.89,-10.73 133.14,-10.73 133.40,-10.74 133.64,-10.66 133.88,-10.58 134.09,-10.43 134.29,-10.28 134.44,-10.07 134.58,-9.86 134.66,-9.62 134.73,-9.37 134.72,-9.12 134.71,-8.86 134.62,-8.62 134.53,-8.39 134.36,-8.19 134.20,-7.99 133.98,-7.86 133.77,-7.72 133.77,-7.72 133.77,-7.72 131.14,-6.80 128.50,-5.87 125.27,-5.56 122.03,-5.24 116.43,-4.50 110.82,-3.75 102.87,-3.04 94.92,-2.33 86.57,-1.69 78.22,-1.05 69.96,-0.60 61.70,-0.14 53.75,-0.10 45.79,-0.06 39.50,0.02 33.21,0.10 28.78,0.29 24.36,0.49 20.95,0.94 17.55,1.40 14.92,1.42 12.29,1.44 9.23,1.46 6.16,1.49 3.08,1.52 0,1.56 -0.18,1.53 -0.37,1.51 -0.54,1.45 -0.72,1.38 -0.88,1.27 -1.03,1.16 -1.16,1.02 -1.28,0.88 -1.37,0.72 -1.46,0.55 -1.50,0.37 -1.55,0.18 -1.55,-0.00 -1.55,-0.18 -1.50,-0.37 -1.46,-0.55 -1.37,-0.72 -1.28,-0.88 -1.16,-1.02 -1.03,-1.16 -0.88,-1.27 -0.72,-1.38 -0.54,-1.45 -0.37,-1.51 -0.18,-1.53 0.00,-1.56 0.00,-1.56 L 0,-1.56 Z"></path></g><g stroke-opacity="0.3" fill-opacity="0.3" transform="translate(303.88819435761206 77.00737483678182) rotate(0 68.11471171309245 -7.653338394729474)" stroke="none"><path fill="#000000" d="M -0.17,-1.55 Q -0.17,-1.55 3.79,-1.95 7.75,-2.36 13.84,-2.96 19.94,-3.57 26.48,-4.25 33.03,-4.94 39.77,-5.67 46.51,-6.40 53.74,-7.58 60.97,-8.76 68.53,-9.27 76.08,-9.78 82.72,-10.86 89.36,-11.94 95.35,-12.41 101.33,-12.88 106.46,-13.51 111.60,-14.15 116.47,-14.42 121.35,-14.69 125.11,-15.24 128.86,-15.79 130.94,-16.04 133.02,-16.29 134.54,-16.56 136.05,-16.84 136.30,-16.82 136.55,-16.81 136.78,-16.72 137.01,-16.63 137.20,-16.47 137.40,-16.31 137.53,-16.10 137.66,-15.88 137.71,-15.64 137.77,-15.39 137.74,-15.15 137.72,-14.90 137.61,-14.67 137.51,-14.44 137.34,-14.26 137.17,-14.08 136.95,-13.96 136.73,-13.84 136.48,-13.80 136.23,-13.76 135.99,-13.80 135.74,-13.83 135.52,-13.95 135.30,-14.07 135.12,-14.25 134.95,-14.43 134.84,-14.65 134.74,-14.88 134.71,-15.13 134.68,-15.38 134.73,-15.62 134.79,-15.87 134.91,-16.08 135.04,-16.30 135.23,-16.46 135.42,-16.62 135.65,-16.72 135.88,-16.81 136.13,-16.82 136.38,-16.84 136.62,-16.77 136.87,-16.71 137.07,-16.57 137.28,-16.43 137.43,-16.23 137.59,-16.03 137.67,-15.80 137.75,-15.56 137.75,-15.31 137.75,-15.06 137.67,-14.82 137.59,-14.59 137.44,-14.39 137.29,-14.19 137.09,-14.04 136.88,-13.90 136.64,-13.83 136.40,-13.77 136.40,-13.77 136.40,-13.77 134.87,-13.69 133.33,-13.62 131.29,-13.40 129.25,-13.17 125.37,-12.61 121.50,-12.05 116.71,-11.78 111.92,-11.51 106.73,-10.87 101.54,-10.22 95.67,-9.76 89.79,-9.30 83.03,-8.19 76.26,-7.08 68.84,-6.57 61.42,-6.07 54.11,-4.86 46.81,-3.65 40.07,-2.90 33.33,-2.14 26.78,-1.42 20.23,-0.69 14.16,-0.04 8.08,0.60 4.12,1.07 0.17,1.55 -0.01,1.55 -0.20,1.54 -0.38,1.50 -0.56,1.45 -0.73,1.36 -0.90,1.27 -1.04,1.15 -1.17,1.02 -1.28,0.86 -1.39,0.71 -1.45,0.53 -1.52,0.35 -1.54,0.17 -1.56,-0.01 -1.53,-0.20 -1.51,-0.38 -1.44,-0.56 -1.37,-0.74 -1.26,-0.89 -1.15,-1.04 -1.01,-1.17 -0.87,-1.29 -0.70,-1.38 -0.53,-1.46 -0.35,-1.50 -0.17,-1.55 -0.17,-1.55 L -0.17,-1.55 Z"></path></g><g stroke-opacity="0.3" fill-opacity="0.3" transform="translate(805.9471930518662 50.98602429470168) rotate(0 49.746699565741665 -4.592003036837696)" stroke="none"><path fill="#000000" d="M -0.23,-1.67 Q -0.23,-1.67 2.84,-2.06 5.93,-2.45 11.29,-2.60 16.64,-2.76 23.70,-3.25 30.75,-3.74 39.96,-3.95 49.16,-4.15 57.84,-5.10 66.52,-6.06 73.30,-6.90 80.09,-7.74 84.32,-8.10 88.56,-8.46 90.67,-9.03 92.79,-9.60 94.21,-9.97 95.63,-10.35 97.47,-10.65 99.30,-10.95 99.59,-10.93 99.88,-10.91 100.14,-10.80 100.41,-10.70 100.63,-10.51 100.85,-10.32 100.99,-10.08 101.14,-9.83 101.20,-9.55 101.26,-9.27 101.23,-8.98 101.20,-8.70 101.08,-8.44 100.95,-8.18 100.76,-7.97 100.56,-7.76 100.30,-7.63 100.05,-7.49 99.76,-7.45 99.48,-7.40 99.20,-7.45 98.91,-7.50 98.66,-7.63 98.41,-7.77 98.21,-7.98 98.01,-8.19 97.89,-8.45 97.77,-8.71 97.74,-9.00 97.71,-9.28 97.78,-9.56 97.84,-9.84 97.99,-10.09 98.14,-10.34 98.36,-10.52 98.58,-10.71 98.85,-10.81 99.11,-10.92 99.40,-10.93 99.69,-10.94 99.97,-10.87 100.24,-10.79 100.48,-10.63 100.72,-10.46 100.89,-10.23 101.06,-10.00 101.15,-9.73 101.24,-9.46 101.24,-9.17 101.24,-8.88 101.15,-8.61 101.05,-8.34 100.88,-8.11 100.70,-7.88 100.47,-7.72 100.23,-7.56 99.95,-7.49 99.67,-7.41 99.67,-7.41 99.67,-7.41 97.93,-7.34 96.19,-7.26 94.83,-7.13 93.48,-7.00 91.14,-6.38 88.80,-5.76 84.61,-5.40 80.43,-5.03 73.63,-4.16 66.83,-3.30 58.03,-2.30 49.23,-1.31 40.10,-1.07 30.96,-0.83 23.86,-0.29 16.75,0.25 11.56,0.47 6.38,0.69 3.31,1.18 0.23,1.67 0.03,1.67 -0.16,1.68 -0.36,1.63 -0.56,1.59 -0.74,1.50 -0.92,1.40 -1.08,1.27 -1.24,1.14 -1.35,0.98 -1.47,0.81 -1.55,0.62 -1.63,0.43 -1.65,0.23 -1.68,0.03 -1.66,-0.16 -1.64,-0.36 -1.57,-0.56 -1.51,-0.75 -1.39,-0.92 -1.28,-1.09 -1.13,-1.23 -0.98,-1.36 -0.81,-1.46 -0.63,-1.56 -0.43,-1.61 -0.23,-1.67 -0.23,-1.67 L -0.23,-1.67 Z"></path></g><g stroke-opacity="0.3" fill-opacity="0.3" transform="translate(55.92003036837673 35.679347505242674) rotate(0 58.93070563941694 -9.184006073675391)" stroke="none"><path fill="#000000" d="M 0,-1.56 Q 0,-1.56 2.63,-1.52 5.27,-1.49 9.40,-1.90 13.53,-2.31 20.12,-3.36 26.71,-4.40 33.91,-5.72 41.12,-7.04 48.99,-8.91 56.87,-10.78 64.24,-12.02 71.60,-13.27 79.10,-14.67 86.61,-16.07 93.34,-17.11 100.08,-18.14 105.17,-18.59 110.27,-19.03 114.01,-19.36 117.74,-19.68 117.95,-19.67 118.17,-19.65 118.37,-19.57 118.56,-19.48 118.72,-19.34 118.88,-19.20 118.99,-19.01 119.10,-18.83 119.14,-18.62 119.18,-18.41 119.15,-18.19 119.12,-17.98 119.03,-17.79 118.94,-17.60 118.79,-17.44 118.63,-17.29 118.44,-17.20 118.25,-17.10 118.04,-17.07 117.83,-17.04 117.62,-17.08 117.41,-17.12 117.22,-17.22 117.03,-17.33 116.89,-17.49 116.75,-17.64 116.66,-17.84 116.57,-18.04 116.56,-18.25 116.54,-18.46 116.59,-18.67 116.64,-18.88 116.75,-19.06 116.87,-19.24 117.03,-19.38 117.20,-19.51 117.40,-19.59 117.60,-19.66 117.81,-19.67 118.03,-19.68 118.23,-19.61 118.44,-19.55 118.61,-19.43 118.79,-19.30 118.91,-19.13 119.04,-18.96 119.10,-18.75 119.17,-18.55 119.16,-18.33 119.16,-18.12 119.08,-17.92 119.01,-17.72 118.88,-17.55 118.75,-17.38 118.57,-17.27 118.39,-17.15 118.18,-17.10 117.97,-17.04 117.97,-17.04 117.97,-17.04 114.24,-16.72 110.50,-16.39 105.49,-15.95 100.48,-15.51 93.79,-14.47 87.10,-13.43 79.58,-12.02 72.05,-10.60 64.78,-9.36 57.50,-8.12 49.56,-6.22 41.62,-4.32 34.39,-2.97 27.16,-1.62 20.50,-0.53 13.83,0.55 9.55,1.02 5.28,1.49 2.64,1.52 0,1.56 -0.18,1.53 -0.37,1.51 -0.54,1.45 -0.72,1.38 -0.88,1.27 -1.03,1.16 -1.16,1.02 -1.28,0.88 -1.37,0.72 -1.46,0.55 -1.50,0.37 -1.55,0.18 -1.55,-0.00 -1.55,-0.18 -1.50,-0.37 -1.46,-0.55 -1.37,-0.72 -1.28,-0.88 -1.16,-1.02 -1.03,-1.16 -0.88,-1.27 -0.72,-1.38 -0.54,-1.45 -0.37,-1.51 -0.18,-1.53 0.00,-1.56 0.00,-1.56 L 0,-1.56 Z"></path></g><g stroke-opacity="0.3" fill-opacity="0.3" transform="translate(173.7814416472106 17.311335357891892) rotate(0 0.00004999999998744897 0.00004999999998744897)" stroke="none"><path fill="#000000" d="M 1.57,-1.57 Q 1.57,-1.57 1.77,-1.27 1.98,-0.98 2.09,-0.64 2.20,-0.29 2.19,0.05 2.18,0.41 2.05,0.75 1.93,1.09 1.70,1.37 1.48,1.65 1.18,1.84 0.87,2.04 0.52,2.12 0.18,2.21 -0.17,2.18 -0.53,2.15 -0.86,2.01 -1.19,1.87 -1.46,1.63 -1.73,1.39 -1.90,1.07 -2.08,0.76 -2.15,0.41 -2.21,0.05 -2.17,-0.29 -2.12,-0.65 -1.96,-0.97 -1.80,-1.29 -1.54,-1.54 -1.29,-1.80 -0.97,-1.96 -0.65,-2.12 -0.29,-2.17 0.06,-2.21 0.41,-2.15 0.76,-2.08 1.07,-1.90 1.39,-1.73 1.63,-1.46 1.87,-1.19 2.01,-0.86 2.15,-0.53 2.18,-0.17 2.21,0.18 2.12,0.52 2.03,0.87 1.84,1.18 1.65,1.48 1.37,1.70 1.09,1.93 0.75,2.05 0.41,2.18 0.05,2.19 -0.30,2.20 -0.64,2.09 -0.98,1.98 -1.27,1.77 -1.57,1.56 -1.57,1.57 -1.57,1.57 -1.73,1.35 -1.90,1.14 -2.01,0.90 -2.12,0.66 -2.16,0.39 -2.21,0.13 -2.20,-0.13 -2.18,-0.40 -2.10,-0.65 -2.02,-0.91 -1.88,-1.14 -1.74,-1.36 -1.55,-1.55 -1.36,-1.74 -1.14,-1.88 -0.91,-2.02 -0.65,-2.10 -0.40,-2.18 -0.13,-2.20 0.13,-2.21 0.39,-2.16 0.66,-2.12 0.90,-2.01 1.14,-1.90 1.35,-1.73 1.57,-1.57 1.57,-1.57 L 1.57,-1.57 Z"></path></g><g stroke-opacity="0.3" fill-opacity="0.3" transform="translate(544.2030199521178 77.00737483678182) rotate(0 53.57336876310637 -5.357336876310654)" stroke="none"><path fill="#000000" d="M -0.22,-1.54 Q -0.22,-1.54 2.86,-1.95 5.94,-2.35 10.34,-2.96 14.73,-3.56 20.63,-3.81 26.52,-4.07 33.38,-4.61 40.23,-5.15 48.43,-5.81 56.64,-6.48 64.07,-7.20 71.51,-7.92 77.30,-8.66 83.08,-9.40 87.28,-10.15 91.47,-10.90 94.19,-11.23 96.90,-11.55 99.40,-11.69 101.90,-11.83 104.49,-12.06 107.08,-12.29 107.33,-12.26 107.59,-12.23 107.82,-12.12 108.05,-12.00 108.23,-11.83 108.41,-11.65 108.53,-11.42 108.65,-11.19 108.68,-10.94 108.72,-10.69 108.68,-10.43 108.63,-10.18 108.51,-9.96 108.39,-9.73 108.20,-9.56 108.01,-9.39 107.78,-9.28 107.54,-9.18 107.29,-9.16 107.03,-9.13 106.78,-9.19 106.53,-9.25 106.32,-9.39 106.10,-9.52 105.94,-9.72 105.78,-9.92 105.68,-10.15 105.59,-10.39 105.58,-10.65 105.57,-10.90 105.65,-11.15 105.72,-11.39 105.86,-11.60 106.01,-11.81 106.22,-11.97 106.42,-12.12 106.67,-12.20 106.91,-12.27 107.17,-12.27 107.42,-12.27 107.66,-12.18 107.90,-12.09 108.10,-11.94 108.31,-11.78 108.45,-11.57 108.59,-11.35 108.65,-11.10 108.72,-10.86 108.70,-10.60 108.68,-10.35 108.58,-10.11 108.48,-9.87 108.31,-9.68 108.15,-9.49 107.93,-9.36 107.70,-9.23 107.45,-9.18 107.20,-9.13 107.20,-9.13 107.20,-9.13 104.63,-9.16 102.05,-9.19 99.64,-9.05 97.22,-8.92 94.58,-8.60 91.94,-8.28 87.68,-7.51 83.42,-6.74 77.60,-5.99 71.77,-5.23 64.32,-4.50 56.86,-3.76 48.66,-3.08 40.45,-2.39 33.55,-1.82 26.65,-1.26 20.90,-0.98 15.14,-0.70 10.75,-0.05 6.37,0.59 3.29,1.07 0.22,1.54 0.03,1.55 -0.15,1.55 -0.33,1.51 -0.52,1.47 -0.69,1.38 -0.86,1.30 -1.00,1.18 -1.14,1.06 -1.25,0.90 -1.36,0.75 -1.43,0.58 -1.50,0.40 -1.53,0.21 -1.56,0.03 -1.54,-0.15 -1.52,-0.34 -1.46,-0.51 -1.39,-0.69 -1.29,-0.85 -1.19,-1.01 -1.05,-1.13 -0.91,-1.26 -0.74,-1.35 -0.58,-1.44 -0.40,-1.49 -0.22,-1.54 -0.22,-1.54 L -0.22,-1.54 Z"></path></g><g transform="translate(21.774501427992845 155.4134294998604) rotate(0 89 16)"><text x="89" y="25" font-family="Helvetica, Segoe UI Emoji" font-size="28px" fill="#000000" text-anchor="middle" style="white-space: pre;" direction="ltr">27000 gr H2O</text></g><g transform="translate(86.52406681042885 199.26280737347975) rotate(0 24.5 16)"><text x="24.5" y="25" font-family="Helvetica, Segoe UI Emoji" font-size="28px" fill="#000000" text-anchor="middle" style="white-space: pre;" direction="ltr">196</text></g><g stroke-linecap="round"><g transform="translate(17.65333839472919 193.83345986823713) rotate(0 98.72806529201034 0)"><path d="M0 0 C60.13 0, 120.27 0, 197.46 0 M0 0 C63.63 0, 127.26 0, 197.46 0" stroke="#000000" stroke-width="1" fill="none"></path></g></g><g stroke-opacity="0.3" fill-opacity="0.3" transform="translate(186.02678307877818 160.1587709314275) rotate(0 0.00004999999998744897 0.00004999999998744897)" stroke="none"><path fill="#000000" d="M 1.57,-1.57 Q 1.57,-1.57 1.77,-1.27 1.98,-0.98 2.09,-0.64 2.20,-0.29 2.19,0.05 2.18,0.41 2.05,0.75 1.93,1.09 1.70,1.37 1.48,1.65 1.18,1.84 0.87,2.04 0.52,2.12 0.18,2.21 -0.17,2.18 -0.53,2.15 -0.86,2.01 -1.19,1.87 -1.46,1.63 -1.73,1.39 -1.90,1.07 -2.08,0.76 -2.15,0.41 -2.21,0.05 -2.17,-0.29 -2.12,-0.65 -1.96,-0.97 -1.80,-1.29 -1.54,-1.54 -1.29,-1.80 -0.97,-1.96 -0.65,-2.12 -0.29,-2.17 0.06,-2.21 0.41,-2.15 0.76,-2.08 1.07,-1.90 1.39,-1.73 1.63,-1.46 1.87,-1.19 2.01,-0.86 2.15,-0.53 2.18,-0.17 2.21,0.18 2.12,0.52 2.03,0.87 1.84,1.18 1.65,1.48 1.37,1.70 1.09,1.93 0.75,2.05 0.41,2.18 0.05,2.19 -0.30,2.20 -0.64,2.09 -0.98,1.98 -1.27,1.77 -1.57,1.56 -1.57,1.57 -1.57,1.57 -1.73,1.35 -1.90,1.14 -2.01,0.90 -2.12,0.66 -2.16,0.39 -2.21,0.13 -2.20,-0.13 -2.18,-0.40 -2.10,-0.65 -2.02,-0.91 -1.88,-1.14 -1.74,-1.36 -1.55,-1.55 -1.36,-1.74 -1.14,-1.88 -0.91,-2.02 -0.65,-2.10 -0.40,-2.18 -0.13,-2.20 0.13,-2.21 0.39,-2.16 0.66,-2.12 0.90,-2.01 1.14,-1.90 1.35,-1.73 1.57,-1.57 1.57,-1.57 L 1.57,-1.57 Z"></path></g><g transform="translate(230.41614576820893 187.21544772088646) rotate(0 10.714673752621366 0)" stroke="none"><path fill="#000000" d="M 0,-2.15 Q 0,-2.15 3.08,-2.04 6.16,-1.93 8.79,-1.85 11.41,-1.76 13.41,-1.73 15.41,-1.70 16.70,-1.79 17.99,-1.88 19.71,-1.96 21.42,-2.05 21.75,-1.99 22.08,-1.94 22.37,-1.78 22.67,-1.63 22.89,-1.39 23.12,-1.15 23.26,-0.85 23.40,-0.54 23.44,-0.21 23.47,0.11 23.40,0.43 23.33,0.75 23.16,1.04 22.99,1.32 22.74,1.54 22.48,1.75 22.17,1.88 21.87,2.00 21.53,2.02 21.20,2.03 20.88,1.95 20.56,1.86 20.29,1.67 20.01,1.48 19.81,1.22 19.61,0.96 19.51,0.64 19.40,0.33 19.40,-0.00 19.40,-0.33 19.51,-0.64 19.61,-0.96 19.81,-1.22 20.01,-1.48 20.29,-1.67 20.56,-1.86 20.88,-1.95 21.20,-2.03 21.53,-2.02 21.87,-2.00 22.17,-1.88 22.48,-1.75 22.74,-1.54 22.99,-1.32 23.16,-1.04 23.33,-0.75 23.40,-0.43 23.47,-0.11 23.44,0.21 23.40,0.54 23.26,0.85 23.12,1.15 22.89,1.39 22.67,1.63 22.37,1.78 22.08,1.94 21.75,1.99 21.42,2.05 21.42,2.05 21.42,2.05 19.71,1.96 17.99,1.88 16.70,1.79 15.41,1.70 13.41,1.73 11.41,1.76 8.79,1.85 6.16,1.93 3.08,2.04 0,2.15 -0.25,2.12 -0.51,2.09 -0.75,2.00 -1.00,1.91 -1.21,1.76 -1.43,1.61 -1.60,1.42 -1.77,1.22 -1.89,0.99 -2.01,0.76 -2.07,0.51 -2.14,0.25 -2.14,-0.00 -2.14,-0.26 -2.07,-0.51 -2.01,-0.76 -1.89,-0.99 -1.77,-1.22 -1.60,-1.42 -1.43,-1.61 -1.21,-1.76 -1.00,-1.91 -0.75,-2.00 -0.51,-2.09 -0.25,-2.12 0.00,-2.15 0.00,-2.15 L 0,-2.15 Z"></path></g><g transform="translate(230.41614576820893 196.39945379456185) rotate(0 11.480007592094239 0)" stroke="none"><path fill="#000000" d="M 0,-2.29 Q 0,-2.29 2.20,-2.16 4.40,-2.03 5.77,-2.08 7.15,-2.13 9.05,-2.08 10.96,-2.03 12.65,-2.03 14.33,-2.03 15.93,-2.05 17.53,-2.07 18.65,-2.14 19.77,-2.20 21.36,-2.27 22.96,-2.33 23.33,-2.27 23.70,-2.21 24.04,-2.03 24.37,-1.86 24.63,-1.58 24.89,-1.31 25.05,-0.96 25.21,-0.62 25.25,-0.24 25.29,0.12 25.21,0.49 25.13,0.86 24.93,1.18 24.74,1.51 24.45,1.75 24.16,2.00 23.81,2.14 23.46,2.28 23.08,2.30 22.70,2.32 22.34,2.22 21.97,2.12 21.66,1.90 21.35,1.69 21.12,1.39 20.89,1.09 20.77,0.73 20.65,0.37 20.65,-0.00 20.65,-0.37 20.77,-0.73 20.89,-1.09 21.12,-1.39 21.35,-1.69 21.66,-1.90 21.97,-2.12 22.34,-2.22 22.70,-2.32 23.08,-2.30 23.46,-2.28 23.81,-2.14 24.16,-2.00 24.45,-1.75 24.74,-1.51 24.93,-1.18 25.13,-0.86 25.21,-0.49 25.29,-0.12 25.25,0.24 25.21,0.62 25.05,0.96 24.89,1.31 24.63,1.58 24.37,1.86 24.03,2.03 23.70,2.21 23.33,2.27 22.95,2.33 22.95,2.33 22.96,2.33 21.36,2.27 19.77,2.20 18.65,2.14 17.53,2.07 15.93,2.05 14.33,2.03 12.65,2.03 10.96,2.03 9.05,2.08 7.15,2.13 5.77,2.08 4.40,2.03 2.20,2.16 0,2.29 -0.27,2.26 -0.54,2.23 -0.80,2.13 -1.06,2.03 -1.29,1.87 -1.52,1.71 -1.70,1.51 -1.89,1.30 -2.01,1.05 -2.14,0.81 -2.21,0.54 -2.28,0.27 -2.28,-0.00 -2.28,-0.27 -2.21,-0.54 -2.14,-0.81 -2.01,-1.06 -1.89,-1.30 -1.70,-1.51 -1.52,-1.71 -1.29,-1.87 -1.06,-2.03 -0.80,-2.13 -0.54,-2.23 -0.27,-2.26 0.00,-2.29 0.00,-2.29 L 0,-2.29 Z"></path></g><g transform="translate(275.17623687333935 174.27678307877824) rotate(0 93 16)"><text x="93" y="25" font-family="Helvetica, Segoe UI Emoji" font-size="28px" fill="#000000" text-anchor="middle" style="white-space: pre;" direction="ltr">137.75 gr H2O</text></g><g stroke-linecap="round"><g transform="translate(10 50.98602429470162) rotate(0 93.37072841569966 0)"><path d="M0 0 C67.75 0, 135.51 0, 186.74 0 M0 0 C72.04 0, 144.08 0, 186.74 0" stroke="#000000" stroke-width="1" fill="none"></path></g></g></svg>