<svg xmlns="http://www.w3.org/2000/svg" xmlns:xlink="http://www.w3.org/1999/xlink" width="111.78125" height="26.390625" style="width:111.78125px;height:26.390625px;font-family:Asana-Math, Asana;background:#FFF;"><g><g><g><g transform="matrix(1,0,0,1,2,19)"><path transform="matrix(0.017,0,0,-0.017,0,0)" d="M352 289C476 289 582 380 582 492C582 599 483 694 345 694L96 694L96 0L185 0L185 289ZM323 638C433 638 501 577 501 492C501 413 438 347 323 347L182 347L182 638Z" stroke="rgb(0,0,0)" stroke-opacity="1" stroke-width="8" fill="rgb(0,0,0)" fill-opacity="1"></path></g></g><g><g><g><g><g transform="matrix(1,0,0,1,13.34375,22.009375)"><path transform="matrix(0.0119,0,0,-0.0119,0,0)" d="M613 694L524 694L524 391L183 391L183 694L94 694L94 0L183 0L183 330L524 330L524 0L613 0Z" stroke="rgb(0,0,0)" stroke-opacity="1" stroke-width="8" fill="rgb(0,0,0)" fill-opacity="1"></path></g></g></g></g></g><g><g transform="matrix(1,0,0,1,22.78125,19)"><path transform="matrix(0.017,0,0,-0.017,0,0)" d="" stroke="rgb(0,0,0)" stroke-opacity="1" stroke-width="8" fill="rgb(0,0,0)" fill-opacity="1"></path></g></g><g><g transform="matrix(1,0,0,1,32.109375,19)"><path transform="matrix(0.017,0,0,-0.017,0,0)" d="M604 347L604 406L65 406L65 347ZM604 134L604 193L65 193L65 134Z" stroke="rgb(0,0,0)" stroke-opacity="1" stroke-width="8" fill="rgb(0,0,0)" fill-opacity="1"></path></g></g><g><g transform="matrix(1,0,0,1,48.5625,19)"><path transform="matrix(0.017,0,0,-0.017,0,0)" d="M402 29L406 29C436 -5 474 -15 515 -15C692 -15 759 168 734 325C719 420 664 473 568 473C449 473 348 395 336 277C331 234 333 188 335 144C343 1 340 -141 350 -284C378 -283 407 -277 431 -266C421 -223 402 -148 402 29ZM656 311C674 203 662 11 524 11C446 11 417 72 407 138C391 243 398 441 535 441C614 441 645 380 656 311ZM1232 267L1101 213L1096 204L1132 153L1142 153L1248 241L1266 99L1276 95L1344 121L1344 131L1276 253L1414 233L1423 241L1423 303L1417 307L1278 283L1347 408L1344 423L1282 442L1273 438L1247 295L1152 393L1142 393L1098 341L1101 331ZM2053 391C2075 391 2103 395 2127 395C2145 395 2184 392 2186 392L2175 455C2105 455 2047 436 2017 423C1996 440 1962 455 1922 455C1836 455 1763 383 1763 292C1763 255 1776 219 1796 193C1767 152 1767 113 1767 108C1767 82 1776 53 1793 32C1741 1 1729 -45 1729 -71C1729 -146 1828 -206 1950 -206C2073 -206 2172 -147 2172 -70C2172 69 2005 69 1966 69L1878 69C1865 69 1820 69 1820 122C1820 133 1824 149 1831 158C1852 143 1885 129 1922 129C2012 129 2082 203 2082 292C2082 340 2060 377 2049 392ZM1922 186C1885 186 1833 209 1833 292C1833 375 1885 398 1922 398C1965 398 2012 370 2012 292C2012 214 1965 186 1922 186ZM1967 -3C1989 -3 2102 -3 2102 -72C2102 -116 2033 -149 1951 -149C1870 -149 1799 -118 1799 -71C1799 -68 1799 -3 1877 -3ZM2617 267L2486 213L2481 204L2517 153L2527 153L2633 241L2651 99L2661 95L2729 121L2729 131L2661 253L2799 233L2808 241L2808 303L2802 307L2663 283L2732 408L2729 423L2667 442L2658 438L2632 295L2537 393L2527 393L2483 341L2486 331ZM3521 298C3521 364 3506 455 3384 455C3322 455 3274 424 3242 383L3242 694L3167 694L3167 0L3245 0L3245 245C3245 311 3270 394 3346 394C3442 394 3443 323 3443 291L3443 0L3521 0Z" stroke="rgb(0,0,0)" stroke-opacity="1" stroke-width="8" fill="rgb(0,0,0)" fill-opacity="1"></path></g></g></g></g></svg>