<svg xmlns="http://www.w3.org/2000/svg" xmlns:xlink="http://www.w3.org/1999/xlink" width="178.109375" height="26.390625" style="width:178.109375px;height:26.390625px;font-family:Asana-Math, Asana;background:#FFF;"><g><g><g><g transform="matrix(1,0,0,1,2,19)"><path transform="matrix(0.017,0,0,-0.017,0,0)" d="M352 289C476 289 582 380 582 492C582 599 483 694 345 694L96 694L96 0L185 0L185 289ZM323 638C433 638 501 577 501 492C501 413 438 347 323 347L182 347L182 638Z" stroke="rgb(0,0,0)" stroke-opacity="1" stroke-width="8" fill="rgb(0,0,0)" fill-opacity="1"></path></g></g><g><g><g><g><g transform="matrix(1,0,0,1,13.34375,22.009375)"><path transform="matrix(0.0119,0,0,-0.0119,0,0)" d="M399 289C399 391 326 461 234 461C169 461 124 445 77 418L83 352C135 389 185 402 234 402C281 402 321 362 321 288L321 245C171 243 44 201 44 113C44 70 71 -11 158 -11C172 -11 266 -9 324 36L324 0L399 0ZM321 132C321 113 321 88 287 69C258 51 220 50 209 50C161 50 116 73 116 115C116 185 278 192 321 194ZM636 694L561 694L561 0L639 0L639 46C663 24 706 -11 773 -11C873 -11 959 89 959 223C959 347 891 455 797 455C758 455 696 445 636 396ZM639 335C655 359 691 394 746 394C805 394 881 351 881 223C881 93 797 50 736 50C697 50 664 68 639 114ZM1354 128C1354 183 1317 217 1315 220C1276 255 1249 261 1199 270C1144 281 1098 291 1098 340C1098 402 1170 402 1183 402C1215 402 1268 398 1325 364L1337 429C1285 453 1244 461 1193 461C1168 461 1027 461 1027 330C1027 281 1056 249 1081 230C1112 208 1134 204 1189 193C1225 186 1283 174 1283 121C1283 52 1204 52 1189 52C1108 52 1052 89 1034 101L1022 33C1054 17 1109 -11 1190 -11C1328 -11 1354 75 1354 128Z" stroke="rgb(0,0,0)" stroke-opacity="1" stroke-width="8" fill="rgb(0,0,0)" fill-opacity="1"></path></g></g></g></g></g><g><g transform="matrix(1,0,0,1,30.734375,19)"><path transform="matrix(0.017,0,0,-0.017,0,0)" d="" stroke="rgb(0,0,0)" stroke-opacity="1" stroke-width="8" fill="rgb(0,0,0)" fill-opacity="1"></path></g></g><g><g transform="matrix(1,0,0,1,40.0625,19)"><path transform="matrix(0.017,0,0,-0.017,0,0)" d="M604 347L604 406L65 406L65 347ZM604 134L604 193L65 193L65 134Z" stroke="rgb(0,0,0)" stroke-opacity="1" stroke-width="8" fill="rgb(0,0,0)" fill-opacity="1"></path></g></g><g><g transform="matrix(1,0,0,1,56.515625,19)"><path transform="matrix(0.017,0,0,-0.017,0,0)" d="M601 289C725 289 831 380 831 492C831 599 732 694 594 694L345 694L345 0L434 0L434 289ZM572 638C682 638 750 577 750 492C750 413 687 347 572 347L431 347L431 638Z" stroke="rgb(0,0,0)" stroke-opacity="1" stroke-width="8" fill="rgb(0,0,0)" fill-opacity="1"></path></g></g><g><g><g><g><g transform="matrix(1,0,0,1,72.078125,22.009375)"><path transform="matrix(0.0119,0,0,-0.0119,0,0)" d="M399 289C399 391 326 461 234 461C169 461 124 445 77 418L83 352C135 389 185 402 234 402C281 402 321 362 321 288L321 245C171 243 44 201 44 113C44 70 71 -11 158 -11C172 -11 266 -9 324 36L324 0L399 0ZM321 132C321 113 321 88 287 69C258 51 220 50 209 50C161 50 116 73 116 115C116 185 278 192 321 194ZM654 386L795 386L795 444L654 444L654 571L585 571L585 444L498 444L498 386L582 386L582 119C582 59 596 -11 665 -11C735 -11 786 14 811 27L795 86C769 65 737 53 705 53C668 53 654 83 654 136ZM1552 298C1552 365 1536 455 1415 455C1355 455 1303 427 1266 373C1240 449 1170 455 1138 455C1066 455 1019 414 992 378L992 450L920 450L920 0L998 0L998 245C998 313 1025 394 1099 394C1192 394 1197 329 1197 291L1197 0L1275 0L1275 245C1275 313 1302 394 1376 394C1469 394 1474 329 1474 291L1474 0L1552 0Z" stroke="rgb(0,0,0)" stroke-opacity="1" stroke-width="8" fill="rgb(0,0,0)" fill-opacity="1"></path></g></g></g></g></g><g><g transform="matrix(1,0,0,1,92.515625,19)"><path transform="matrix(0.017,0,0,-0.017,0,0)" d="" stroke="rgb(0,0,0)" stroke-opacity="1" stroke-width="8" fill="rgb(0,0,0)" fill-opacity="1"></path></g></g><g><g transform="matrix(1,0,0,1,100.140625,19)"><path transform="matrix(0.017,0,0,-0.017,0,0)" d="M604 241L604 300L364 300L364 538L305 538L305 300L65 300L65 241L305 241L305 0L364 0L364 241Z" stroke="rgb(0,0,0)" stroke-opacity="1" stroke-width="8" fill="rgb(0,0,0)" fill-opacity="1"></path></g></g><g><g transform="matrix(1,0,0,1,114.890625,19)"><path transform="matrix(0.017,0,0,-0.017,0,0)" d="M402 29L406 29C436 -5 474 -15 515 -15C692 -15 759 168 734 325C719 420 664 473 568 473C449 473 348 395 336 277C331 234 333 188 335 144C343 1 340 -141 350 -284C378 -283 407 -277 431 -266C421 -223 402 -148 402 29ZM656 311C674 203 662 11 524 11C446 11 417 72 407 138C391 243 398 441 535 441C614 441 645 380 656 311ZM1232 267L1101 213L1096 204L1132 153L1142 153L1248 241L1266 99L1276 95L1344 121L1344 131L1276 253L1414 233L1423 241L1423 303L1417 307L1278 283L1347 408L1344 423L1282 442L1273 438L1247 295L1152 393L1142 393L1098 341L1101 331ZM2053 391C2075 391 2103 395 2127 395C2145 395 2184 392 2186 392L2175 455C2105 455 2047 436 2017 423C1996 440 1962 455 1922 455C1836 455 1763 383 1763 292C1763 255 1776 219 1796 193C1767 152 1767 113 1767 108C1767 82 1776 53 1793 32C1741 1 1729 -45 1729 -71C1729 -146 1828 -206 1950 -206C2073 -206 2172 -147 2172 -70C2172 69 2005 69 1966 69L1878 69C1865 69 1820 69 1820 122C1820 133 1824 149 1831 158C1852 143 1885 129 1922 129C2012 129 2082 203 2082 292C2082 340 2060 377 2049 392ZM1922 186C1885 186 1833 209 1833 292C1833 375 1885 398 1922 398C1965 398 2012 370 2012 292C2012 214 1965 186 1922 186ZM1967 -3C1989 -3 2102 -3 2102 -72C2102 -116 2033 -149 1951 -149C1870 -149 1799 -118 1799 -71C1799 -68 1799 -3 1877 -3ZM2617 267L2486 213L2481 204L2517 153L2527 153L2633 241L2651 99L2661 95L2729 121L2729 131L2661 253L2799 233L2808 241L2808 303L2802 307L2663 283L2732 408L2729 423L2667 442L2658 438L2632 295L2537 393L2527 393L2483 341L2486 331ZM3521 298C3521 364 3506 455 3384 455C3322 455 3274 424 3242 383L3242 694L3167 694L3167 0L3245 0L3245 245C3245 311 3270 394 3346 394C3442 394 3443 323 3443 291L3443 0L3521 0Z" stroke="rgb(0,0,0)" stroke-opacity="1" stroke-width="8" fill="rgb(0,0,0)" fill-opacity="1"></path></g></g></g></g></svg>