<svg xmlns="http://www.w3.org/2000/svg" xmlns:xlink="http://www.w3.org/1999/xlink" width="66.484375" height="54.171875" style="width:66.484375px;height:54.171875px;font-family:Asana-Math, Asana;background:#FFF;"><g><g><g><g><g><g><g transform="matrix(1,0,0,1,2.828125,19)"><path transform="matrix(0.017,0,0,-0.017,0,0)" d="M485 315L485 376L183 376L183 626L526 626L526 691L94 691L94 0L183 0L183 315Z" stroke="rgb(0,0,0)" stroke-opacity="1" stroke-width="8" fill="rgb(0,0,0)" fill-opacity="1"></path></g></g><g><g><g><g><g transform="matrix(1,0,0,1,12.984375,22.009375)"><path transform="matrix(0.0119,0,0,-0.0119,0,0)" d="M299 689L279 689C220 627 137 624 89 622L89 563C122 564 170 566 220 587L220 59L95 59L95 0L424 0L424 59L299 59Z" stroke="rgb(0,0,0)" stroke-opacity="1" stroke-width="8" fill="rgb(0,0,0)" fill-opacity="1"></path></g></g></g></g></g></g></g><g><g><g><g transform="matrix(1,0,0,1,2,46.78125)"><path transform="matrix(0.017,0,0,-0.017,0,0)" d="M377 694L289 694L28 0L102 0L179 204L470 204L546 0L638 0ZM448 260L200 260L265 441C286 500 317 585 324 622L325 622C327 608 334 583 357 517Z" stroke="rgb(0,0,0)" stroke-opacity="1" stroke-width="8" fill="rgb(0,0,0)" fill-opacity="1"></path></g></g><g><g><g><g><g transform="matrix(1,0,0,1,13.8125,49.790625)"><path transform="matrix(0.0119,0,0,-0.0119,0,0)" d="M299 689L279 689C220 627 137 624 89 622L89 563C122 564 170 566 220 587L220 59L95 59L95 0L424 0L424 59L299 59Z" stroke="rgb(0,0,0)" stroke-opacity="1" stroke-width="8" fill="rgb(0,0,0)" fill-opacity="1"></path></g></g></g></g></g></g></g><line style="fill:none;stroke-width:1px;stroke:rgb(0, 0, 0);" x1="2" y1="29.140625" x2="20.78125" y2="29.140625"></line></g><g><g transform="matrix(1,0,0,1,27.5625,33.390625)"><path transform="matrix(0.017,0,0,-0.017,0,0)" d="M604 347L604 406L65 406L65 347ZM604 134L604 193L65 193L65 134Z" stroke="rgb(0,0,0)" stroke-opacity="1" stroke-width="8" fill="rgb(0,0,0)" fill-opacity="1"></path></g></g><g><g><g><g><g transform="matrix(1,0,0,1,46.53125,19)"><path transform="matrix(0.017,0,0,-0.017,0,0)" d="M485 315L485 376L183 376L183 626L526 626L526 691L94 691L94 0L183 0L183 315Z" stroke="rgb(0,0,0)" stroke-opacity="1" stroke-width="8" fill="rgb(0,0,0)" fill-opacity="1"></path></g></g><g><g><g><g><g transform="matrix(1,0,0,1,56.6875,22.009375)"><path transform="matrix(0.0119,0,0,-0.0119,0,0)" d="M83 466C103 545 131 624 222 624C316 624 367 548 367 468C367 382 310 324 251 263L174 191L50 65L50 0L449 0L449 72L267 72C255 72 243 71 231 71L122 71C154 100 230 176 261 205C333 274 449 347 449 471C449 587 368 689 236 689C122 689 66 610 42 522C66 487 59 501 83 466Z" stroke="rgb(0,0,0)" stroke-opacity="1" stroke-width="8" fill="rgb(0,0,0)" fill-opacity="1"></path></g></g></g></g></g></g></g><g><g><g><g transform="matrix(1,0,0,1,45.703125,46.78125)"><path transform="matrix(0.017,0,0,-0.017,0,0)" d="M377 694L289 694L28 0L102 0L179 204L470 204L546 0L638 0ZM448 260L200 260L265 441C286 500 317 585 324 622L325 622C327 608 334 583 357 517Z" stroke="rgb(0,0,0)" stroke-opacity="1" stroke-width="8" fill="rgb(0,0,0)" fill-opacity="1"></path></g></g><g><g><g><g><g transform="matrix(1,0,0,1,57.515625,49.790625)"><path transform="matrix(0.0119,0,0,-0.0119,0,0)" d="M83 466C103 545 131 624 222 624C316 624 367 548 367 468C367 382 310 324 251 263L174 191L50 65L50 0L449 0L449 72L267 72C255 72 243 71 231 71L122 71C154 100 230 176 261 205C333 274 449 347 449 471C449 587 368 689 236 689C122 689 66 610 42 522C66 487 59 501 83 466Z" stroke="rgb(0,0,0)" stroke-opacity="1" stroke-width="8" fill="rgb(0,0,0)" fill-opacity="1"></path></g></g></g></g></g></g></g><line style="fill:none;stroke-width:1px;stroke:rgb(0, 0, 0);" x1="45.703125" y1="29.140625" x2="64.484375" y2="29.140625"></line></g></g></g></svg>