<svg xmlns="http://www.w3.org/2000/svg" xmlns:xlink="http://www.w3.org/1999/xlink" width="115.0625" height="26.390625" style="width:115.0625px;height:26.390625px;font-family:Asana-Math, Asana;background:#FFF;"><g><g><g><g transform="matrix(1,0,0,1,2,19)"><path transform="matrix(0.017,0,0,-0.017,0,0)" d="M485 315L485 376L183 376L183 626L526 626L526 691L94 691L94 0L183 0L183 315Z" stroke="rgb(0,0,0)" stroke-opacity="1" stroke-width="8" fill="rgb(0,0,0)" fill-opacity="1"></path></g></g><g><g><g><g><g transform="matrix(1,0,0,1,12.15625,22.009375)"><path transform="matrix(0.0119,0,0,-0.0119,0,0)" d="M414 219C414 421 307 461 236 461C125 461 35 355 35 226C35 94 131 -11 251 -11C314 -11 371 13 410 41L404 106C341 54 275 50 252 50C172 50 108 121 105 219ZM110 274C126 350 179 400 236 400C288 400 344 366 357 274Z" stroke="rgb(0,0,0)" stroke-opacity="1" stroke-width="8" fill="rgb(0,0,0)" fill-opacity="1"></path></g></g></g></g></g><g><g transform="matrix(1,0,0,1,18.453125,19)"><path transform="matrix(0.017,0,0,-0.017,0,0)" d="" stroke="rgb(0,0,0)" stroke-opacity="1" stroke-width="8" fill="rgb(0,0,0)" fill-opacity="1"></path></g></g><g><g transform="matrix(1,0,0,1,27.78125,19)"><path transform="matrix(0.017,0,0,-0.017,0,0)" d="M604 347L604 406L65 406L65 347ZM604 134L604 193L65 193L65 134Z" stroke="rgb(0,0,0)" stroke-opacity="1" stroke-width="8" fill="rgb(0,0,0)" fill-opacity="1"></path></g></g><g><g transform="matrix(1,0,0,1,44.234375,19)"><path transform="matrix(0.017,0,0,-0.017,0,0)" d="M402 29L406 29C436 -5 474 -15 515 -15C692 -15 759 168 734 325C719 420 664 473 568 473C449 473 348 395 336 277C331 234 333 188 335 144C343 1 340 -141 350 -284C378 -283 407 -277 431 -266C421 -223 402 -148 402 29ZM656 311C674 203 662 11 524 11C446 11 417 72 407 138C391 243 398 441 535 441C614 441 645 380 656 311ZM1232 267L1101 213L1096 204L1132 153L1142 153L1248 241L1266 99L1276 95L1344 121L1344 131L1276 253L1414 233L1423 241L1423 303L1417 307L1278 283L1347 408L1344 423L1282 442L1273 438L1247 295L1152 393L1142 393L1098 341L1101 331ZM2053 391C2075 391 2103 395 2127 395C2145 395 2184 392 2186 392L2175 455C2105 455 2047 436 2017 423C1996 440 1962 455 1922 455C1836 455 1763 383 1763 292C1763 255 1776 219 1796 193C1767 152 1767 113 1767 108C1767 82 1776 53 1793 32C1741 1 1729 -45 1729 -71C1729 -146 1828 -206 1950 -206C2073 -206 2172 -147 2172 -70C2172 69 2005 69 1966 69L1878 69C1865 69 1820 69 1820 122C1820 133 1824 149 1831 158C1852 143 1885 129 1922 129C2012 129 2082 203 2082 292C2082 340 2060 377 2049 392ZM1922 186C1885 186 1833 209 1833 292C1833 375 1885 398 1922 398C1965 398 2012 370 2012 292C2012 214 1965 186 1922 186ZM1967 -3C1989 -3 2102 -3 2102 -72C2102 -116 2033 -149 1951 -149C1870 -149 1799 -118 1799 -71C1799 -68 1799 -3 1877 -3ZM2617 267L2486 213L2481 204L2517 153L2527 153L2633 241L2651 99L2661 95L2729 121L2729 131L2661 253L2799 233L2808 241L2808 303L2802 307L2663 283L2732 408L2729 423L2667 442L2658 438L2632 295L2537 393L2527 393L2483 341L2486 331ZM3738 694L3660 694L3527 352C3511 311 3436 118 3427 72L3426 72C3418 112 3375 222 3366 246L3193 694L3100 694L3373 0L3465 0Z" stroke="rgb(0,0,0)" stroke-opacity="1" stroke-width="8" fill="rgb(0,0,0)" fill-opacity="1"></path></g></g><g><g><g><g><g transform="matrix(1,0,0,1,108.515625,22.009375)"><path transform="matrix(0.0119,0,0,-0.0119,0,0)" d="M360 128C360 183 323 217 321 220C282 255 255 261 205 270C150 281 104 291 104 340C104 402 176 402 189 402C221 402 274 398 331 364L343 429C291 453 250 461 199 461C174 461 33 461 33 330C33 281 62 249 87 230C118 208 140 204 195 193C231 186 289 174 289 121C289 52 210 52 195 52C114 52 58 89 40 101L28 33C60 17 115 -11 196 -11C334 -11 360 75 360 128Z" stroke="rgb(0,0,0)" stroke-opacity="1" stroke-width="8" fill="rgb(0,0,0)" fill-opacity="1"></path></g></g></g></g></g></g></g></svg>