<svg version="1.1" xmlns="http://www.w3.org/2000/svg" viewBox="0 0 685.5615387362641 160.4173566016011" width="685.5615387362641" height="160.4173566016011">
  <!-- svg-source:excalidraw -->
  
  <defs>
    <style>
      @font-face {
        font-family: "Virgil";
        src: url("https://excalidraw.com/Virgil.woff2");
      }
      @font-face {
        font-family: "Cascadia";
        src: url("https://excalidraw.com/Cascadia.woff2");
      }
    </style>
  </defs>
  <g stroke-linecap="round"><g transform="translate(80.49325116682849 45.54200043435094) rotate(0 93.37072841569966 0)"><path d="M0 0 C58.06 0, 116.11 0, 186.74 0 M0 0 C66.35 0, 132.71 0, 186.74 0" stroke="#000000" stroke-width="1" fill="none"></path></g></g><g transform="translate(78.22004465555437 10) rotate(0 104.5 16)"><text x="104.5" y="25" font-family="Helvetica, Segoe UI Emoji" font-size="28px" fill="#000000" text-anchor="middle" style="white-space: pre;" direction="ltr">12 gr P x 87.5% </text></g><g transform="translate(132.24464812897168 49.440680260647696) rotate(0 37 16)"><text x="37" y="25" font-family="Helvetica, Segoe UI Emoji" font-size="28px" fill="#000000" text-anchor="middle" style="white-space: pre;" direction="ltr">100%</text></g><g transform="translate(10 28.377324946738554) rotate(0 19.5 16)"><text x="0" y="25" font-family="Helvetica, Segoe UI Emoji" font-size="28px" fill="#000000" text-anchor="start" style="white-space: pre;" direction="ltr">SP</text></g><g transform="translate(57.61487580458015 46.9726172458013) rotate(0 5.357336876310455 0)" stroke="none"><path fill="#000000" d="M 0,-2.33 Q 0,-2.33 1.32,-2.36 2.64,-2.38 4.50,-2.48 6.37,-2.58 7.96,-2.66 9.55,-2.74 9.88,-2.70 10.21,-2.66 10.52,-2.54 10.83,-2.42 11.10,-2.24 11.37,-2.05 11.59,-1.80 11.81,-1.55 11.96,-1.26 12.12,-0.97 12.20,-0.65 12.28,-0.33 12.28,0.00 12.28,0.33 12.20,0.65 12.12,0.97 11.96,1.26 11.81,1.55 11.59,1.80 11.37,2.05 11.10,2.24 10.83,2.42 10.52,2.54 10.21,2.66 9.88,2.70 9.55,2.74 6.80,2.53 4.06,2.32 3.69,2.26 3.31,2.20 2.98,2.02 2.65,1.84 2.39,1.57 2.13,1.30 1.98,0.96 1.82,0.62 1.78,0.24 1.74,-0.12 1.82,-0.49 1.90,-0.85 2.09,-1.18 2.29,-1.50 2.57,-1.74 2.86,-1.99 3.21,-2.12 3.56,-2.26 3.93,-2.28 4.31,-2.30 4.67,-2.20 5.03,-2.10 5.34,-1.89 5.65,-1.68 5.88,-1.38 6.11,-1.08 6.23,-0.73 6.35,-0.37 6.35,0.00 6.35,0.37 6.23,0.73 6.11,1.08 5.88,1.38 5.65,1.68 5.34,1.89 5.03,2.10 4.67,2.20 4.31,2.30 3.93,2.28 3.56,2.26 3.21,2.12 2.86,1.98 2.57,1.74 2.29,1.50 2.09,1.18 1.90,0.85 1.82,0.49 1.74,0.12 1.78,-0.24 1.82,-0.62 1.98,-0.96 2.13,-1.30 2.39,-1.57 2.65,-1.84 2.98,-2.02 3.32,-2.20 3.69,-2.26 4.06,-2.32 4.06,-2.32 4.06,-2.32 6.80,-2.53 9.55,-2.74 9.88,-2.70 10.21,-2.66 10.52,-2.54 10.83,-2.42 11.10,-2.24 11.37,-2.05 11.59,-1.80 11.81,-1.55 11.96,-1.26 12.12,-0.97 12.20,-0.65 12.28,-0.33 12.28,-0.00 12.28,0.33 12.20,0.65 12.12,0.97 11.96,1.26 11.81,1.55 11.59,1.80 11.37,2.05 11.10,2.24 10.83,2.42 10.52,2.54 10.21,2.66 9.88,2.70 9.55,2.74 7.96,2.66 6.37,2.58 4.50,2.48 2.64,2.38 1.32,2.36 0,2.33 -0.27,2.30 -0.55,2.26 -0.82,2.16 -1.08,2.06 -1.31,1.90 -1.54,1.74 -1.73,1.53 -1.92,1.32 -2.05,1.07 -2.18,0.82 -2.25,0.55 -2.31,0.28 -2.31,-0.00 -2.31,-0.28 -2.25,-0.55 -2.18,-0.82 -2.05,-1.07 -1.92,-1.32 -1.73,-1.53 -1.54,-1.74 -1.31,-1.90 -1.08,-2.06 -0.82,-2.16 -0.55,-2.26 -0.27,-2.30 0.00,-2.33 0.00,-2.33 L 0,-2.33 Z"></path></g><g transform="translate(69.86021723614613 46.9726172458013) rotate(0 0.00004999999998744897 0.00004999999998744897)" stroke="none"><path fill="#000000" d="M 1.57,-1.57 Q 1.57,-1.57 1.77,-1.27 1.98,-0.98 2.09,-0.64 2.20,-0.29 2.19,0.05 2.18,0.41 2.05,0.75 1.93,1.09 1.70,1.37 1.48,1.65 1.18,1.84 0.87,2.04 0.52,2.12 0.18,2.21 -0.17,2.18 -0.53,2.15 -0.86,2.01 -1.19,1.87 -1.46,1.63 -1.73,1.39 -1.90,1.07 -2.08,0.76 -2.15,0.41 -2.21,0.05 -2.17,-0.29 -2.12,-0.65 -1.96,-0.97 -1.80,-1.29 -1.54,-1.54 -1.29,-1.80 -0.97,-1.96 -0.65,-2.12 -0.29,-2.17 0.06,-2.21 0.41,-2.15 0.76,-2.08 1.07,-1.90 1.39,-1.73 1.63,-1.46 1.87,-1.19 2.01,-0.86 2.15,-0.53 2.18,-0.17 2.21,0.18 2.12,0.52 2.03,0.87 1.84,1.18 1.65,1.48 1.37,1.70 1.09,1.93 0.75,2.05 0.41,2.18 0.05,2.19 -0.30,2.20 -0.64,2.09 -0.98,1.98 -1.27,1.77 -1.57,1.56 -1.57,1.57 -1.57,1.57 -1.73,1.35 -1.90,1.14 -2.01,0.90 -2.12,0.66 -2.16,0.39 -2.21,0.13 -2.20,-0.13 -2.18,-0.40 -2.10,-0.65 -2.02,-0.91 -1.88,-1.14 -1.74,-1.36 -1.55,-1.55 -1.36,-1.74 -1.14,-1.88 -0.91,-2.02 -0.65,-2.10 -0.40,-2.18 -0.13,-2.20 0.13,-2.21 0.39,-2.16 0.66,-2.12 0.90,-2.01 1.14,-1.90 1.35,-1.73 1.57,-1.57 1.57,-1.57 L 1.57,-1.57 Z"></path></g><g transform="translate(59.91087732300002 37.78861117212591) rotate(0 5.357336876310455 0)" stroke="none"><path fill="#000000" d="M 0,-2.33 Q 0,-2.33 1.32,-2.36 2.64,-2.38 4.50,-2.48 6.37,-2.58 7.96,-2.66 9.55,-2.74 9.88,-2.70 10.21,-2.66 10.52,-2.54 10.83,-2.42 11.10,-2.24 11.37,-2.05 11.59,-1.80 11.81,-1.55 11.96,-1.26 12.12,-0.97 12.20,-0.65 12.28,-0.33 12.28,0.00 12.28,0.33 12.20,0.65 12.12,0.97 11.96,1.26 11.81,1.55 11.59,1.80 11.37,2.05 11.10,2.24 10.83,2.42 10.52,2.54 10.21,2.66 9.88,2.70 9.55,2.74 6.80,2.53 4.06,2.32 3.69,2.26 3.31,2.20 2.98,2.02 2.65,1.84 2.39,1.57 2.13,1.30 1.98,0.96 1.82,0.62 1.78,0.24 1.74,-0.12 1.82,-0.49 1.90,-0.85 2.09,-1.18 2.29,-1.50 2.57,-1.74 2.86,-1.99 3.21,-2.12 3.56,-2.26 3.93,-2.28 4.31,-2.30 4.67,-2.20 5.03,-2.10 5.34,-1.89 5.65,-1.68 5.88,-1.38 6.11,-1.08 6.23,-0.73 6.35,-0.37 6.35,0.00 6.35,0.37 6.23,0.73 6.11,1.08 5.88,1.38 5.65,1.68 5.34,1.89 5.03,2.10 4.67,2.20 4.31,2.30 3.93,2.28 3.56,2.26 3.21,2.12 2.86,1.98 2.57,1.74 2.29,1.50 2.09,1.18 1.90,0.85 1.82,0.49 1.74,0.12 1.78,-0.24 1.82,-0.62 1.98,-0.96 2.13,-1.30 2.39,-1.57 2.65,-1.84 2.98,-2.02 3.32,-2.20 3.69,-2.26 4.06,-2.32 4.06,-2.32 4.06,-2.32 6.80,-2.53 9.55,-2.74 9.88,-2.70 10.21,-2.66 10.52,-2.54 10.83,-2.42 11.10,-2.24 11.37,-2.05 11.59,-1.80 11.81,-1.55 11.96,-1.26 12.12,-0.97 12.20,-0.65 12.28,-0.33 12.28,-0.00 12.28,0.33 12.20,0.65 12.12,0.97 11.96,1.26 11.81,1.55 11.59,1.80 11.37,2.05 11.10,2.24 10.83,2.42 10.52,2.54 10.21,2.66 9.88,2.70 9.55,2.74 7.96,2.66 6.37,2.58 4.50,2.48 2.64,2.38 1.32,2.36 0,2.33 -0.27,2.30 -0.55,2.26 -0.82,2.16 -1.08,2.06 -1.31,1.90 -1.54,1.74 -1.73,1.53 -1.92,1.32 -2.05,1.07 -2.18,0.82 -2.25,0.55 -2.31,0.28 -2.31,-0.00 -2.31,-0.28 -2.25,-0.55 -2.18,-0.82 -2.05,-1.07 -1.92,-1.32 -1.73,-1.53 -1.54,-1.74 -1.31,-1.90 -1.08,-2.06 -0.82,-2.16 -0.55,-2.26 -0.27,-2.30 0.00,-2.33 0.00,-2.33 L 0,-2.33 Z"></path></g><g stroke-opacity="0.3" fill-opacity="0.3" transform="translate(184.38735441810422 57.414056831213884) rotate(0 12.778383728912786 9.771705204462734)" stroke="none"><path fill="#000000" d="M 0.82,-2.05 Q 0.82,-2.05 2.93,-1.07 5.05,-0.10 7.34,1.25 9.62,2.62 11.50,4.13 13.37,5.64 15.03,7.18 16.68,8.71 17.58,9.85 18.49,10.99 19.70,11.79 20.91,12.59 21.91,13.28 22.91,13.97 23.57,14.99 24.23,16.01 25.19,16.56 26.15,17.11 26.48,17.33 26.81,17.55 27.05,17.87 27.30,18.18 27.42,18.56 27.55,18.93 27.56,19.33 27.56,19.73 27.43,20.11 27.31,20.49 27.07,20.80 26.83,21.12 26.50,21.35 26.17,21.57 25.79,21.68 25.41,21.79 25.01,21.77 24.61,21.75 24.24,21.60 23.87,21.46 23.57,21.20 23.26,20.95 23.06,20.61 22.85,20.27 22.76,19.88 22.67,19.49 22.72,19.10 22.76,18.70 22.92,18.34 23.09,17.98 23.36,17.69 23.63,17.40 23.98,17.21 24.33,17.02 24.72,16.95 25.12,16.89 25.51,16.95 25.90,17.01 26.25,17.20 26.61,17.38 26.88,17.67 27.16,17.96 27.33,18.32 27.49,18.68 27.54,19.07 27.58,19.47 27.50,19.85 27.42,20.24 27.21,20.59 27.01,20.93 26.71,21.19 26.41,21.45 26.04,21.60 25.67,21.74 25.27,21.77 24.88,21.79 24.49,21.69 24.11,21.58 24.11,21.58 24.11,21.58 21.55,18.97 18.99,16.36 18.00,15.69 17.01,15.02 16.27,13.98 15.53,12.95 15.05,11.99 14.57,11.03 12.96,9.66 11.34,8.28 9.61,7.02 7.87,5.76 5.73,4.66 3.58,3.56 1.38,2.80 -0.82,2.05 -1.05,1.92 -1.28,1.79 -1.48,1.61 -1.68,1.43 -1.82,1.21 -1.97,0.99 -2.06,0.74 -2.15,0.49 -2.18,0.22 -2.21,-0.03 -2.17,-0.30 -2.13,-0.56 -2.03,-0.81 -1.93,-1.06 -1.78,-1.27 -1.62,-1.49 -1.42,-1.66 -1.22,-1.84 -0.98,-1.96 -0.74,-2.08 -0.48,-2.14 -0.22,-2.19 0.03,-2.19 0.30,-2.19 0.56,-2.12 0.82,-2.05 0.82,-2.05 L 0.82,-2.05 Z"></path></g><g stroke-opacity="0.3" fill-opacity="0.3" transform="translate(243.01758564488046 13.817218226687828) rotate(0 11.27504446668786 7.516696311125173)" stroke="none"><path fill="#000000" d="M 0,-2.33 Q 0,-2.33 1.34,-2.35 2.68,-2.37 4.95,-1.29 7.21,-0.22 8.99,1.19 10.76,2.61 11.97,3.57 13.18,4.53 14.16,5.35 15.15,6.17 16.03,6.94 16.91,7.70 17.73,8.44 18.55,9.17 19.56,9.77 20.57,10.37 22.04,11.48 23.52,12.60 23.80,12.90 24.07,13.20 24.23,13.57 24.39,13.95 24.42,14.35 24.46,14.76 24.36,15.15 24.26,15.54 24.04,15.89 23.82,16.23 23.51,16.48 23.19,16.74 22.81,16.88 22.43,17.02 22.02,17.03 21.62,17.04 21.23,16.92 20.84,16.80 20.51,16.57 20.18,16.33 19.94,16.00 19.71,15.67 19.59,15.28 19.47,14.90 19.48,14.49 19.49,14.08 19.63,13.70 19.77,13.32 20.02,13.00 20.28,12.69 20.62,12.47 20.96,12.25 21.35,12.15 21.75,12.05 22.15,12.09 22.56,12.12 22.93,12.28 23.30,12.44 23.61,12.71 23.91,12.98 24.11,13.33 24.31,13.69 24.39,14.09 24.46,14.48 24.41,14.89 24.35,15.29 24.17,15.65 23.99,16.02 23.71,16.30 23.42,16.59 23.06,16.77 22.69,16.95 22.29,17.01 21.89,17.06 21.49,16.99 21.09,16.91 20.74,16.71 20.38,16.51 20.38,16.51 20.38,16.51 19.18,15.48 17.98,14.44 16.60,13.52 15.21,12.60 14.47,11.80 13.73,11.00 12.97,10.19 12.21,9.38 11.37,8.52 10.52,7.67 9.46,6.72 8.40,5.77 6.88,4.72 5.36,3.68 3.93,3.02 2.49,2.37 1.24,2.35 0,2.33 -0.27,2.30 -0.55,2.26 -0.82,2.16 -1.08,2.06 -1.31,1.90 -1.54,1.74 -1.73,1.53 -1.92,1.32 -2.05,1.07 -2.18,0.82 -2.25,0.55 -2.31,0.28 -2.31,-0.00 -2.31,-0.28 -2.25,-0.55 -2.18,-0.82 -2.05,-1.07 -1.92,-1.32 -1.73,-1.53 -1.54,-1.74 -1.31,-1.90 -1.08,-2.06 -0.82,-2.16 -0.55,-2.26 -0.27,-2.30 0.00,-2.33 0.00,-2.33 L 0,-2.33 Z"></path></g><g stroke-linecap="round"><g transform="translate(450.3147096741877 50.052018221026174) rotate(0 93.37072841569966 0)"><path d="M0 0 C67.47 0, 134.95 0, 186.74 0 M0 0 C73.67 0, 147.35 0, 186.74 0" stroke="#000000" stroke-width="1" fill="none"></path></g></g><g transform="translate(447.5615387362641 13.006678524450194) rotate(0 114 16)"><text x="114" y="25" font-family="Helvetica, Segoe UI Emoji" font-size="28px" fill="#000000" text-anchor="middle" style="white-space: pre;" direction="ltr">27 gr O2 x 82.5% </text></g><g transform="translate(502.0661066363309 53.95069804732293) rotate(0 37 16)"><text x="37" y="25" font-family="Helvetica, Segoe UI Emoji" font-size="28px" fill="#000000" text-anchor="middle" style="white-space: pre;" direction="ltr">100%</text></g><g transform="translate(379.82145850735924 32.88734273341379) rotate(0 19.5 16)"><text x="0" y="25" font-family="Helvetica, Segoe UI Emoji" font-size="28px" fill="#000000" text-anchor="start" style="white-space: pre;" direction="ltr">SP</text></g><g transform="translate(427.4363343119394 51.48263503247654) rotate(0 5.357336876310455 0)" stroke="none"><path fill="#000000" d="M 0,-2.33 Q 0,-2.33 1.32,-2.36 2.64,-2.38 4.50,-2.48 6.37,-2.58 7.96,-2.66 9.55,-2.74 9.88,-2.70 10.21,-2.66 10.52,-2.54 10.83,-2.42 11.10,-2.24 11.37,-2.05 11.59,-1.80 11.81,-1.55 11.96,-1.26 12.12,-0.97 12.20,-0.65 12.28,-0.33 12.28,0.00 12.28,0.33 12.20,0.65 12.12,0.97 11.96,1.26 11.81,1.55 11.59,1.80 11.37,2.05 11.10,2.24 10.83,2.42 10.52,2.54 10.21,2.66 9.88,2.70 9.55,2.74 6.80,2.53 4.06,2.32 3.69,2.26 3.31,2.20 2.98,2.02 2.65,1.84 2.39,1.57 2.13,1.30 1.98,0.96 1.82,0.62 1.78,0.24 1.74,-0.12 1.82,-0.49 1.90,-0.85 2.09,-1.18 2.29,-1.50 2.57,-1.74 2.86,-1.99 3.21,-2.12 3.56,-2.26 3.93,-2.28 4.31,-2.30 4.67,-2.20 5.03,-2.10 5.34,-1.89 5.65,-1.68 5.88,-1.38 6.11,-1.08 6.23,-0.73 6.35,-0.37 6.35,0.00 6.35,0.37 6.23,0.73 6.11,1.08 5.88,1.38 5.65,1.68 5.34,1.89 5.03,2.10 4.67,2.20 4.31,2.30 3.93,2.28 3.56,2.26 3.21,2.12 2.86,1.98 2.57,1.74 2.29,1.50 2.09,1.18 1.90,0.85 1.82,0.49 1.74,0.12 1.78,-0.24 1.82,-0.62 1.98,-0.96 2.13,-1.30 2.39,-1.57 2.65,-1.84 2.98,-2.02 3.32,-2.20 3.69,-2.26 4.06,-2.32 4.06,-2.32 4.06,-2.32 6.80,-2.53 9.55,-2.74 9.88,-2.70 10.21,-2.66 10.52,-2.54 10.83,-2.42 11.10,-2.24 11.37,-2.05 11.59,-1.80 11.81,-1.55 11.96,-1.26 12.12,-0.97 12.20,-0.65 12.28,-0.33 12.28,-0.00 12.28,0.33 12.20,0.65 12.12,0.97 11.96,1.26 11.81,1.55 11.59,1.80 11.37,2.05 11.10,2.24 10.83,2.42 10.52,2.54 10.21,2.66 9.88,2.70 9.55,2.74 7.96,2.66 6.37,2.58 4.50,2.48 2.64,2.38 1.32,2.36 0,2.33 -0.27,2.30 -0.55,2.26 -0.82,2.16 -1.08,2.06 -1.31,1.90 -1.54,1.74 -1.73,1.53 -1.92,1.32 -2.05,1.07 -2.18,0.82 -2.25,0.55 -2.31,0.28 -2.31,-0.00 -2.31,-0.28 -2.25,-0.55 -2.18,-0.82 -2.05,-1.07 -1.92,-1.32 -1.73,-1.53 -1.54,-1.74 -1.31,-1.90 -1.08,-2.06 -0.82,-2.16 -0.55,-2.26 -0.27,-2.30 0.00,-2.33 0.00,-2.33 L 0,-2.33 Z"></path></g><g transform="translate(439.68167574350537 51.48263503247654) rotate(0 0.00005000000010113581 0.00004999999998744897)" stroke="none"><path fill="#000000" d="M 1.57,-1.57 Q 1.57,-1.57 1.77,-1.27 1.98,-0.98 2.09,-0.64 2.20,-0.29 2.19,0.05 2.18,0.41 2.05,0.75 1.93,1.09 1.70,1.37 1.48,1.65 1.18,1.84 0.87,2.04 0.52,2.12 0.18,2.21 -0.17,2.18 -0.53,2.15 -0.86,2.01 -1.19,1.87 -1.46,1.63 -1.73,1.39 -1.90,1.07 -2.08,0.76 -2.15,0.41 -2.21,0.05 -2.17,-0.29 -2.12,-0.65 -1.96,-0.97 -1.80,-1.29 -1.54,-1.54 -1.29,-1.80 -0.97,-1.96 -0.65,-2.12 -0.29,-2.17 0.06,-2.21 0.41,-2.15 0.76,-2.08 1.07,-1.90 1.39,-1.73 1.63,-1.46 1.87,-1.19 2.01,-0.86 2.15,-0.53 2.18,-0.17 2.21,0.18 2.12,0.52 2.03,0.87 1.84,1.18 1.65,1.48 1.37,1.70 1.09,1.93 0.75,2.05 0.41,2.18 0.05,2.19 -0.30,2.20 -0.64,2.09 -0.98,1.98 -1.27,1.77 -1.57,1.56 -1.57,1.57 -1.57,1.57 -1.73,1.35 -1.90,1.14 -2.01,0.90 -2.12,0.66 -2.16,0.39 -2.21,0.13 -2.20,-0.13 -2.18,-0.40 -2.10,-0.65 -2.02,-0.91 -1.88,-1.14 -1.74,-1.36 -1.55,-1.55 -1.36,-1.74 -1.14,-1.88 -0.91,-2.02 -0.65,-2.10 -0.40,-2.18 -0.13,-2.20 0.13,-2.21 0.39,-2.16 0.66,-2.12 0.90,-2.01 1.14,-1.90 1.35,-1.73 1.57,-1.57 1.57,-1.57 L 1.57,-1.57 Z"></path></g><g transform="translate(429.73233583035926 42.298628958801146) rotate(0 5.357336876310455 0)" stroke="none"><path fill="#000000" d="M 0,-2.33 Q 0,-2.33 1.32,-2.36 2.64,-2.38 4.50,-2.48 6.37,-2.58 7.96,-2.66 9.55,-2.74 9.88,-2.70 10.21,-2.66 10.52,-2.54 10.83,-2.42 11.10,-2.24 11.37,-2.05 11.59,-1.80 11.81,-1.55 11.96,-1.26 12.12,-0.97 12.20,-0.65 12.28,-0.33 12.28,0.00 12.28,0.33 12.20,0.65 12.12,0.97 11.96,1.26 11.81,1.55 11.59,1.80 11.37,2.05 11.10,2.24 10.83,2.42 10.52,2.54 10.21,2.66 9.88,2.70 9.55,2.74 6.80,2.53 4.06,2.32 3.69,2.26 3.31,2.20 2.98,2.02 2.65,1.84 2.39,1.57 2.13,1.30 1.98,0.96 1.82,0.62 1.78,0.24 1.74,-0.12 1.82,-0.49 1.90,-0.85 2.09,-1.18 2.29,-1.50 2.57,-1.74 2.86,-1.99 3.21,-2.12 3.56,-2.26 3.93,-2.28 4.31,-2.30 4.67,-2.20 5.03,-2.10 5.34,-1.89 5.65,-1.68 5.88,-1.38 6.11,-1.08 6.23,-0.73 6.35,-0.37 6.35,0.00 6.35,0.37 6.23,0.73 6.11,1.08 5.88,1.38 5.65,1.68 5.34,1.89 5.03,2.10 4.67,2.20 4.31,2.30 3.93,2.28 3.56,2.26 3.21,2.12 2.86,1.98 2.57,1.74 2.29,1.50 2.09,1.18 1.90,0.85 1.82,0.49 1.74,0.12 1.78,-0.24 1.82,-0.62 1.98,-0.96 2.13,-1.30 2.39,-1.57 2.65,-1.84 2.98,-2.02 3.32,-2.20 3.69,-2.26 4.06,-2.32 4.06,-2.32 4.06,-2.32 6.80,-2.53 9.55,-2.74 9.88,-2.70 10.21,-2.66 10.52,-2.54 10.83,-2.42 11.10,-2.24 11.37,-2.05 11.59,-1.80 11.81,-1.55 11.96,-1.26 12.12,-0.97 12.20,-0.65 12.28,-0.33 12.28,-0.00 12.28,0.33 12.20,0.65 12.12,0.97 11.96,1.26 11.81,1.55 11.59,1.80 11.37,2.05 11.10,2.24 10.83,2.42 10.52,2.54 10.21,2.66 9.88,2.70 9.55,2.74 7.96,2.66 6.37,2.58 4.50,2.48 2.64,2.38 1.32,2.36 0,2.33 -0.27,2.30 -0.55,2.26 -0.82,2.16 -1.08,2.06 -1.31,1.90 -1.54,1.74 -1.73,1.53 -1.92,1.32 -2.05,1.07 -2.18,0.82 -2.25,0.55 -2.31,0.28 -2.31,-0.00 -2.31,-0.28 -2.25,-0.55 -2.18,-0.82 -2.05,-1.07 -1.92,-1.32 -1.73,-1.53 -1.54,-1.74 -1.31,-1.90 -1.08,-2.06 -0.82,-2.16 -0.55,-2.26 -0.27,-2.30 0.00,-2.33 0.00,-2.33 L 0,-2.33 Z"></path></g><g stroke-opacity="0.3" fill-opacity="0.3" transform="translate(554.2088129254635 61.92407461788912) rotate(0 12.778383728912786 9.771705204462734)" stroke="none"><path fill="#000000" d="M 0.82,-2.05 Q 0.82,-2.05 2.93,-1.07 5.05,-0.10 7.34,1.25 9.62,2.62 11.50,4.13 13.37,5.64 15.03,7.18 16.68,8.71 17.58,9.85 18.49,10.99 19.70,11.79 20.91,12.59 21.91,13.28 22.91,13.97 23.57,14.99 24.23,16.01 25.19,16.56 26.15,17.11 26.48,17.33 26.81,17.55 27.05,17.87 27.30,18.18 27.42,18.56 27.55,18.93 27.56,19.33 27.56,19.73 27.43,20.11 27.31,20.49 27.07,20.80 26.83,21.12 26.50,21.35 26.17,21.57 25.79,21.68 25.41,21.79 25.01,21.77 24.61,21.75 24.24,21.60 23.87,21.46 23.57,21.20 23.26,20.95 23.06,20.61 22.85,20.27 22.76,19.88 22.67,19.49 22.72,19.10 22.76,18.70 22.92,18.34 23.09,17.98 23.36,17.69 23.63,17.40 23.98,17.21 24.33,17.02 24.72,16.95 25.12,16.89 25.51,16.95 25.90,17.01 26.25,17.20 26.61,17.38 26.88,17.67 27.16,17.96 27.33,18.32 27.49,18.68 27.54,19.07 27.58,19.47 27.50,19.85 27.42,20.24 27.21,20.59 27.01,20.93 26.71,21.19 26.41,21.45 26.04,21.60 25.67,21.74 25.27,21.77 24.88,21.79 24.49,21.69 24.11,21.58 24.11,21.58 24.11,21.58 21.55,18.97 18.99,16.36 18.00,15.69 17.01,15.02 16.27,13.98 15.53,12.95 15.05,11.99 14.57,11.03 12.96,9.66 11.34,8.28 9.61,7.02 7.87,5.76 5.73,4.66 3.58,3.56 1.38,2.80 -0.82,2.05 -1.05,1.92 -1.28,1.79 -1.48,1.61 -1.68,1.43 -1.82,1.21 -1.97,0.99 -2.06,0.74 -2.15,0.49 -2.18,0.22 -2.21,-0.03 -2.17,-0.30 -2.13,-0.56 -2.03,-0.81 -1.93,-1.06 -1.78,-1.27 -1.62,-1.49 -1.42,-1.66 -1.22,-1.84 -0.98,-1.96 -0.74,-2.08 -0.48,-2.14 -0.22,-2.19 0.03,-2.19 0.30,-2.19 0.56,-2.12 0.82,-2.05 0.82,-2.05 L 0.82,-2.05 Z"></path></g><g stroke-opacity="0.3" fill-opacity="0.3" transform="translate(645.9125079211904 24.340593062263224) rotate(0 11.27504446668786 7.516696311125173)" stroke="none"><path fill="#000000" d="M 0,-2.33 Q 0,-2.33 1.34,-2.35 2.68,-2.37 4.95,-1.29 7.21,-0.22 8.99,1.19 10.76,2.61 11.97,3.57 13.18,4.53 14.16,5.35 15.15,6.17 16.03,6.94 16.91,7.70 17.73,8.44 18.55,9.17 19.56,9.77 20.57,10.37 22.04,11.48 23.52,12.60 23.80,12.90 24.07,13.20 24.23,13.57 24.39,13.95 24.42,14.35 24.46,14.76 24.36,15.15 24.26,15.54 24.04,15.89 23.82,16.23 23.51,16.48 23.19,16.74 22.81,16.88 22.43,17.02 22.02,17.03 21.62,17.04 21.23,16.92 20.84,16.80 20.51,16.57 20.18,16.33 19.94,16.00 19.71,15.67 19.59,15.28 19.47,14.90 19.48,14.49 19.49,14.08 19.63,13.70 19.77,13.32 20.02,13.00 20.28,12.69 20.62,12.47 20.96,12.25 21.35,12.15 21.75,12.05 22.15,12.09 22.56,12.12 22.93,12.28 23.30,12.44 23.61,12.71 23.91,12.98 24.11,13.33 24.31,13.69 24.39,14.09 24.46,14.48 24.41,14.89 24.35,15.29 24.17,15.65 23.99,16.02 23.71,16.30 23.42,16.59 23.06,16.77 22.69,16.95 22.29,17.01 21.89,17.06 21.49,16.99 21.09,16.91 20.74,16.71 20.38,16.51 20.38,16.51 20.38,16.51 19.18,15.48 17.98,14.44 16.60,13.52 15.21,12.60 14.47,11.80 13.73,11.00 12.97,10.19 12.21,9.38 11.37,8.52 10.52,7.67 9.46,6.72 8.40,5.77 6.88,4.72 5.36,3.68 3.93,3.02 2.49,2.37 1.24,2.35 0,2.33 -0.27,2.30 -0.55,2.26 -0.82,2.16 -1.08,2.06 -1.31,1.90 -1.54,1.74 -1.73,1.53 -1.92,1.32 -2.05,1.07 -2.18,0.82 -2.25,0.55 -2.31,0.28 -2.31,-0.00 -2.31,-0.28 -2.25,-0.55 -2.18,-0.82 -2.05,-1.07 -1.92,-1.32 -1.73,-1.53 -1.54,-1.74 -1.31,-1.90 -1.08,-2.06 -0.82,-2.16 -0.55,-2.26 -0.27,-2.30 0.00,-2.33 0.00,-2.33 L 0,-2.33 Z"></path></g><g transform="translate(11.560159171988744 118.41735660160111) rotate(0 19.5 16)"><text x="0" y="25" font-family="Helvetica, Segoe UI Emoji" font-size="28px" fill="#000000" text-anchor="start" style="white-space: pre;" direction="ltr">SP</text></g><g transform="translate(59.175034976568895 137.01264890066386) rotate(0 5.357336876310455 0)" stroke="none"><path fill="#000000" d="M 0,-2.33 Q 0,-2.33 1.32,-2.36 2.64,-2.38 4.50,-2.48 6.37,-2.58 7.96,-2.66 9.55,-2.74 9.88,-2.70 10.21,-2.66 10.52,-2.54 10.83,-2.42 11.10,-2.24 11.37,-2.05 11.59,-1.80 11.81,-1.55 11.96,-1.26 12.12,-0.97 12.20,-0.65 12.28,-0.33 12.28,0.00 12.28,0.33 12.20,0.65 12.12,0.97 11.96,1.26 11.81,1.55 11.59,1.80 11.37,2.05 11.10,2.24 10.83,2.42 10.52,2.54 10.21,2.66 9.88,2.70 9.55,2.74 6.80,2.53 4.06,2.32 3.69,2.26 3.31,2.20 2.98,2.02 2.65,1.84 2.39,1.57 2.13,1.30 1.98,0.96 1.82,0.62 1.78,0.24 1.74,-0.12 1.82,-0.49 1.90,-0.85 2.09,-1.18 2.29,-1.50 2.57,-1.74 2.86,-1.99 3.21,-2.12 3.56,-2.26 3.93,-2.28 4.31,-2.30 4.67,-2.20 5.03,-2.10 5.34,-1.89 5.65,-1.68 5.88,-1.38 6.11,-1.08 6.23,-0.73 6.35,-0.37 6.35,0.00 6.35,0.37 6.23,0.73 6.11,1.08 5.88,1.38 5.65,1.68 5.34,1.89 5.03,2.10 4.67,2.20 4.31,2.30 3.93,2.28 3.56,2.26 3.21,2.12 2.86,1.98 2.57,1.74 2.29,1.50 2.09,1.18 1.90,0.85 1.82,0.49 1.74,0.12 1.78,-0.24 1.82,-0.62 1.98,-0.96 2.13,-1.30 2.39,-1.57 2.65,-1.84 2.98,-2.02 3.32,-2.20 3.69,-2.26 4.06,-2.32 4.06,-2.32 4.06,-2.32 6.80,-2.53 9.55,-2.74 9.88,-2.70 10.21,-2.66 10.52,-2.54 10.83,-2.42 11.10,-2.24 11.37,-2.05 11.59,-1.80 11.81,-1.55 11.96,-1.26 12.12,-0.97 12.20,-0.65 12.28,-0.33 12.28,-0.00 12.28,0.33 12.20,0.65 12.12,0.97 11.96,1.26 11.81,1.55 11.59,1.80 11.37,2.05 11.10,2.24 10.83,2.42 10.52,2.54 10.21,2.66 9.88,2.70 9.55,2.74 7.96,2.66 6.37,2.58 4.50,2.48 2.64,2.38 1.32,2.36 0,2.33 -0.27,2.30 -0.55,2.26 -0.82,2.16 -1.08,2.06 -1.31,1.90 -1.54,1.74 -1.73,1.53 -1.92,1.32 -2.05,1.07 -2.18,0.82 -2.25,0.55 -2.31,0.28 -2.31,-0.00 -2.31,-0.28 -2.25,-0.55 -2.18,-0.82 -2.05,-1.07 -1.92,-1.32 -1.73,-1.53 -1.54,-1.74 -1.31,-1.90 -1.08,-2.06 -0.82,-2.16 -0.55,-2.26 -0.27,-2.30 0.00,-2.33 0.00,-2.33 L 0,-2.33 Z"></path></g><g transform="translate(71.42037640813487 137.01264890066386) rotate(0 0.00004999999998744897 0.00005000000000165983)" stroke="none"><path fill="#000000" d="M 1.57,-1.57 Q 1.57,-1.57 1.77,-1.27 1.98,-0.98 2.09,-0.64 2.20,-0.29 2.19,0.05 2.18,0.41 2.05,0.75 1.93,1.09 1.70,1.37 1.48,1.65 1.18,1.84 0.87,2.04 0.52,2.12 0.18,2.21 -0.17,2.18 -0.53,2.15 -0.86,2.01 -1.19,1.87 -1.46,1.63 -1.73,1.39 -1.90,1.07 -2.08,0.76 -2.15,0.41 -2.21,0.05 -2.17,-0.29 -2.12,-0.65 -1.96,-0.97 -1.80,-1.29 -1.54,-1.54 -1.29,-1.80 -0.97,-1.96 -0.65,-2.12 -0.29,-2.17 0.06,-2.21 0.41,-2.15 0.76,-2.08 1.07,-1.90 1.39,-1.73 1.63,-1.46 1.87,-1.19 2.01,-0.86 2.15,-0.53 2.18,-0.17 2.21,0.18 2.12,0.52 2.03,0.87 1.84,1.18 1.65,1.48 1.37,1.70 1.09,1.93 0.75,2.05 0.41,2.18 0.05,2.19 -0.30,2.20 -0.64,2.09 -0.98,1.98 -1.27,1.77 -1.57,1.56 -1.57,1.57 -1.57,1.57 -1.73,1.35 -1.90,1.14 -2.01,0.90 -2.12,0.66 -2.16,0.39 -2.21,0.13 -2.20,-0.13 -2.18,-0.40 -2.10,-0.65 -2.02,-0.91 -1.88,-1.14 -1.74,-1.36 -1.55,-1.55 -1.36,-1.74 -1.14,-1.88 -0.91,-2.02 -0.65,-2.10 -0.40,-2.18 -0.13,-2.20 0.13,-2.21 0.39,-2.16 0.66,-2.12 0.90,-2.01 1.14,-1.90 1.35,-1.73 1.57,-1.57 1.57,-1.57 L 1.57,-1.57 Z"></path></g><g transform="translate(61.471036494988766 127.82864282698847) rotate(0 5.357336876310455 0)" stroke="none"><path fill="#000000" d="M 0,-2.33 Q 0,-2.33 1.32,-2.36 2.64,-2.38 4.50,-2.48 6.37,-2.58 7.96,-2.66 9.55,-2.74 9.88,-2.70 10.21,-2.66 10.52,-2.54 10.83,-2.42 11.10,-2.24 11.37,-2.05 11.59,-1.80 11.81,-1.55 11.96,-1.26 12.12,-0.97 12.20,-0.65 12.28,-0.33 12.28,0.00 12.28,0.33 12.20,0.65 12.12,0.97 11.96,1.26 11.81,1.55 11.59,1.80 11.37,2.05 11.10,2.24 10.83,2.42 10.52,2.54 10.21,2.66 9.88,2.70 9.55,2.74 6.80,2.53 4.06,2.32 3.69,2.26 3.31,2.20 2.98,2.02 2.65,1.84 2.39,1.57 2.13,1.30 1.98,0.96 1.82,0.62 1.78,0.24 1.74,-0.12 1.82,-0.49 1.90,-0.85 2.09,-1.18 2.29,-1.50 2.57,-1.74 2.86,-1.99 3.21,-2.12 3.56,-2.26 3.93,-2.28 4.31,-2.30 4.67,-2.20 5.03,-2.10 5.34,-1.89 5.65,-1.68 5.88,-1.38 6.11,-1.08 6.23,-0.73 6.35,-0.37 6.35,0.00 6.35,0.37 6.23,0.73 6.11,1.08 5.88,1.38 5.65,1.68 5.34,1.89 5.03,2.10 4.67,2.20 4.31,2.30 3.93,2.28 3.56,2.26 3.21,2.12 2.86,1.98 2.57,1.74 2.29,1.50 2.09,1.18 1.90,0.85 1.82,0.49 1.74,0.12 1.78,-0.24 1.82,-0.62 1.98,-0.96 2.13,-1.30 2.39,-1.57 2.65,-1.84 2.98,-2.02 3.32,-2.20 3.69,-2.26 4.06,-2.32 4.06,-2.32 4.06,-2.32 6.80,-2.53 9.55,-2.74 9.88,-2.70 10.21,-2.66 10.52,-2.54 10.83,-2.42 11.10,-2.24 11.37,-2.05 11.59,-1.80 11.81,-1.55 11.96,-1.26 12.12,-0.97 12.20,-0.65 12.28,-0.33 12.28,-0.00 12.28,0.33 12.20,0.65 12.12,0.97 11.96,1.26 11.81,1.55 11.59,1.80 11.37,2.05 11.10,2.24 10.83,2.42 10.52,2.54 10.21,2.66 9.88,2.70 9.55,2.74 7.96,2.66 6.37,2.58 4.50,2.48 2.64,2.38 1.32,2.36 0,2.33 -0.27,2.30 -0.55,2.26 -0.82,2.16 -1.08,2.06 -1.31,1.90 -1.54,1.74 -1.73,1.53 -1.92,1.32 -2.05,1.07 -2.18,0.82 -2.25,0.55 -2.31,0.28 -2.31,-0.00 -2.31,-0.28 -2.25,-0.55 -2.18,-0.82 -2.05,-1.07 -1.92,-1.32 -1.73,-1.53 -1.54,-1.74 -1.31,-1.90 -1.08,-2.06 -0.82,-2.16 -0.55,-2.26 -0.27,-2.30 0.00,-2.33 0.00,-2.33 L 0,-2.33 Z"></path></g><g transform="translate(91.48313036322588 114.40066029047586) rotate(0 58 16)"><text x="0" y="25" font-family="Helvetica, Segoe UI Emoji" font-size="28px" fill="#000000" text-anchor="start" style="white-space: pre;" direction="ltr">10.5 gr P</text></g><g transform="translate(381.3831744216668 114.41234770826367) rotate(0 19.5 16)"><text x="0" y="25" font-family="Helvetica, Segoe UI Emoji" font-size="28px" fill="#000000" text-anchor="start" style="white-space: pre;" direction="ltr">SP</text></g><g transform="translate(428.99805022624696 133.00764000732642) rotate(0 5.357336876310455 0)" stroke="none"><path fill="#000000" d="M 0,-2.33 Q 0,-2.33 1.32,-2.36 2.64,-2.38 4.50,-2.48 6.37,-2.58 7.96,-2.66 9.55,-2.74 9.88,-2.70 10.21,-2.66 10.52,-2.54 10.83,-2.42 11.10,-2.24 11.37,-2.05 11.59,-1.80 11.81,-1.55 11.96,-1.26 12.12,-0.97 12.20,-0.65 12.28,-0.33 12.28,0.00 12.28,0.33 12.20,0.65 12.12,0.97 11.96,1.26 11.81,1.55 11.59,1.80 11.37,2.05 11.10,2.24 10.83,2.42 10.52,2.54 10.21,2.66 9.88,2.70 9.55,2.74 6.80,2.53 4.06,2.32 3.69,2.26 3.31,2.20 2.98,2.02 2.65,1.84 2.39,1.57 2.13,1.30 1.98,0.96 1.82,0.62 1.78,0.24 1.74,-0.12 1.82,-0.49 1.90,-0.85 2.09,-1.18 2.29,-1.50 2.57,-1.74 2.86,-1.99 3.21,-2.12 3.56,-2.26 3.93,-2.28 4.31,-2.30 4.67,-2.20 5.03,-2.10 5.34,-1.89 5.65,-1.68 5.88,-1.38 6.11,-1.08 6.23,-0.73 6.35,-0.37 6.35,0.00 6.35,0.37 6.23,0.73 6.11,1.08 5.88,1.38 5.65,1.68 5.34,1.89 5.03,2.10 4.67,2.20 4.31,2.30 3.93,2.28 3.56,2.26 3.21,2.12 2.86,1.98 2.57,1.74 2.29,1.50 2.09,1.18 1.90,0.85 1.82,0.49 1.74,0.12 1.78,-0.24 1.82,-0.62 1.98,-0.96 2.13,-1.30 2.39,-1.57 2.65,-1.84 2.98,-2.02 3.32,-2.20 3.69,-2.26 4.06,-2.32 4.06,-2.32 4.06,-2.32 6.80,-2.53 9.55,-2.74 9.88,-2.70 10.21,-2.66 10.52,-2.54 10.83,-2.42 11.10,-2.24 11.37,-2.05 11.59,-1.80 11.81,-1.55 11.96,-1.26 12.12,-0.97 12.20,-0.65 12.28,-0.33 12.28,-0.00 12.28,0.33 12.20,0.65 12.12,0.97 11.96,1.26 11.81,1.55 11.59,1.80 11.37,2.05 11.10,2.24 10.83,2.42 10.52,2.54 10.21,2.66 9.88,2.70 9.55,2.74 7.96,2.66 6.37,2.58 4.50,2.48 2.64,2.38 1.32,2.36 0,2.33 -0.27,2.30 -0.55,2.26 -0.82,2.16 -1.08,2.06 -1.31,1.90 -1.54,1.74 -1.73,1.53 -1.92,1.32 -2.05,1.07 -2.18,0.82 -2.25,0.55 -2.31,0.28 -2.31,-0.00 -2.31,-0.28 -2.25,-0.55 -2.18,-0.82 -2.05,-1.07 -1.92,-1.32 -1.73,-1.53 -1.54,-1.74 -1.31,-1.90 -1.08,-2.06 -0.82,-2.16 -0.55,-2.26 -0.27,-2.30 0.00,-2.33 0.00,-2.33 L 0,-2.33 Z"></path></g><g transform="translate(441.24339165781294 133.00764000732642) rotate(0 0.00005000000010113581 0.00005000000000165983)" stroke="none"><path fill="#000000" d="M 1.57,-1.57 Q 1.57,-1.57 1.77,-1.27 1.98,-0.98 2.09,-0.64 2.20,-0.29 2.19,0.05 2.18,0.41 2.05,0.75 1.93,1.09 1.70,1.37 1.48,1.65 1.18,1.84 0.87,2.04 0.52,2.12 0.18,2.21 -0.17,2.18 -0.53,2.15 -0.86,2.01 -1.19,1.87 -1.46,1.63 -1.73,1.39 -1.90,1.07 -2.08,0.76 -2.15,0.41 -2.21,0.05 -2.17,-0.29 -2.12,-0.65 -1.96,-0.97 -1.80,-1.29 -1.54,-1.54 -1.29,-1.80 -0.97,-1.96 -0.65,-2.12 -0.29,-2.17 0.06,-2.21 0.41,-2.15 0.76,-2.08 1.07,-1.90 1.39,-1.73 1.63,-1.46 1.87,-1.19 2.01,-0.86 2.15,-0.53 2.18,-0.17 2.21,0.18 2.12,0.52 2.03,0.87 1.84,1.18 1.65,1.48 1.37,1.70 1.09,1.93 0.75,2.05 0.41,2.18 0.05,2.19 -0.30,2.20 -0.64,2.09 -0.98,1.98 -1.27,1.77 -1.57,1.56 -1.57,1.57 -1.57,1.57 -1.73,1.35 -1.90,1.14 -2.01,0.90 -2.12,0.66 -2.16,0.39 -2.21,0.13 -2.20,-0.13 -2.18,-0.40 -2.10,-0.65 -2.02,-0.91 -1.88,-1.14 -1.74,-1.36 -1.55,-1.55 -1.36,-1.74 -1.14,-1.88 -0.91,-2.02 -0.65,-2.10 -0.40,-2.18 -0.13,-2.20 0.13,-2.21 0.39,-2.16 0.66,-2.12 0.90,-2.01 1.14,-1.90 1.35,-1.73 1.57,-1.57 1.57,-1.57 L 1.57,-1.57 Z"></path></g><g transform="translate(431.29405174466683 123.82363393365102) rotate(0 5.357336876310455 0)" stroke="none"><path fill="#000000" d="M 0,-2.33 Q 0,-2.33 1.32,-2.36 2.64,-2.38 4.50,-2.48 6.37,-2.58 7.96,-2.66 9.55,-2.74 9.88,-2.70 10.21,-2.66 10.52,-2.54 10.83,-2.42 11.10,-2.24 11.37,-2.05 11.59,-1.80 11.81,-1.55 11.96,-1.26 12.12,-0.97 12.20,-0.65 12.28,-0.33 12.28,0.00 12.28,0.33 12.20,0.65 12.12,0.97 11.96,1.26 11.81,1.55 11.59,1.80 11.37,2.05 11.10,2.24 10.83,2.42 10.52,2.54 10.21,2.66 9.88,2.70 9.55,2.74 6.80,2.53 4.06,2.32 3.69,2.26 3.31,2.20 2.98,2.02 2.65,1.84 2.39,1.57 2.13,1.30 1.98,0.96 1.82,0.62 1.78,0.24 1.74,-0.12 1.82,-0.49 1.90,-0.85 2.09,-1.18 2.29,-1.50 2.57,-1.74 2.86,-1.99 3.21,-2.12 3.56,-2.26 3.93,-2.28 4.31,-2.30 4.67,-2.20 5.03,-2.10 5.34,-1.89 5.65,-1.68 5.88,-1.38 6.11,-1.08 6.23,-0.73 6.35,-0.37 6.35,0.00 6.35,0.37 6.23,0.73 6.11,1.08 5.88,1.38 5.65,1.68 5.34,1.89 5.03,2.10 4.67,2.20 4.31,2.30 3.93,2.28 3.56,2.26 3.21,2.12 2.86,1.98 2.57,1.74 2.29,1.50 2.09,1.18 1.90,0.85 1.82,0.49 1.74,0.12 1.78,-0.24 1.82,-0.62 1.98,-0.96 2.13,-1.30 2.39,-1.57 2.65,-1.84 2.98,-2.02 3.32,-2.20 3.69,-2.26 4.06,-2.32 4.06,-2.32 4.06,-2.32 6.80,-2.53 9.55,-2.74 9.88,-2.70 10.21,-2.66 10.52,-2.54 10.83,-2.42 11.10,-2.24 11.37,-2.05 11.59,-1.80 11.81,-1.55 11.96,-1.26 12.12,-0.97 12.20,-0.65 12.28,-0.33 12.28,-0.00 12.28,0.33 12.20,0.65 12.12,0.97 11.96,1.26 11.81,1.55 11.59,1.80 11.37,2.05 11.10,2.24 10.83,2.42 10.52,2.54 10.21,2.66 9.88,2.70 9.55,2.74 7.96,2.66 6.37,2.58 4.50,2.48 2.64,2.38 1.32,2.36 0,2.33 -0.27,2.30 -0.55,2.26 -0.82,2.16 -1.08,2.06 -1.31,1.90 -1.54,1.74 -1.73,1.53 -1.92,1.32 -2.05,1.07 -2.18,0.82 -2.25,0.55 -2.31,0.28 -2.31,-0.00 -2.31,-0.28 -2.25,-0.55 -2.18,-0.82 -2.05,-1.07 -1.92,-1.32 -1.73,-1.53 -1.54,-1.74 -1.31,-1.90 -1.08,-2.06 -0.82,-2.16 -0.55,-2.26 -0.27,-2.30 0.00,-2.33 0.00,-2.33 L 0,-2.33 Z"></path></g><g transform="translate(459.80280635067857 111.89899065936339) rotate(0 75 16)"><text x="0" y="25" font-family="Helvetica, Segoe UI Emoji" font-size="28px" fill="#000000" text-anchor="start" style="white-space: pre;" direction="ltr">22.27 gr O2</text></g></svg>