<svg xmlns="http://www.w3.org/2000/svg" xmlns:xlink="http://www.w3.org/1999/xlink" width="418.609375" height="47.171875" style="width:418.609375px;height:47.171875px;font-family:Asana-Math, Asana;background:#FFF;"><g><g><g><g transform="matrix(1,0,0,1,2,31.390625)"><path transform="matrix(0.017,0,0,-0.017,0,0)" d="M465 666C410 699 355 716 282 716C143 716 56 618 56 519C56 476 70 434 110 392C152 347 196 335 255 321C340 300 350 297 378 272C398 255 420 222 420 179C420 113 365 47 274 47C233 47 143 57 59 128L44 47C132 -8 212 -22 275 -22C407 -22 499 79 499 189C499 254 468 302 446 326C399 376 366 385 274 408C256 412 135 429 135 531C135 590 189 650 281 650C365 650 413 617 450 586ZM989 444L911 444L911 154C911 79 855 44 791 44C720 44 713 70 713 113L713 444L635 444L635 109C635 37 658 -11 741 -11C794 -11 865 5 914 48L914 0L989 0ZM1429 128C1429 183 1392 217 1390 220C1351 255 1324 261 1274 270C1219 281 1173 291 1173 340C1173 402 1245 402 1258 402C1290 402 1343 398 1400 364L1412 429C1360 453 1319 461 1268 461C1243 461 1102 461 1102 330C1102 281 1131 249 1156 230C1187 208 1209 204 1264 193C1300 186 1358 174 1358 121C1358 52 1279 52 1264 52C1183 52 1127 89 1109 101L1097 33C1129 17 1184 -11 1265 -11C1403 -11 1429 75 1429 128ZM1626 386L1767 386L1767 444L1626 444L1626 571L1557 571L1557 444L1470 444L1470 386L1554 386L1554 119C1554 59 1568 -11 1637 -11C1707 -11 1758 14 1783 27L1767 86C1741 65 1709 53 1677 53C1640 53 1626 83 1626 136ZM2210 289C2210 391 2137 461 2045 461C1980 461 1935 445 1888 418L1894 352C1946 389 1996 402 2045 402C2092 402 2132 362 2132 288L2132 245C1982 243 1855 201 1855 113C1855 70 1882 -11 1969 -11C1983 -11 2077 -9 2135 36L2135 0L2210 0ZM2132 132C2132 113 2132 88 2098 69C2069 51 2031 50 2020 50C1972 50 1927 73 1927 115C1927 185 2089 192 2132 194ZM2725 298C2725 364 2710 455 2588 455C2498 455 2449 387 2443 379L2443 450L2371 450L2371 0L2449 0L2449 245C2449 311 2474 394 2550 394C2646 394 2647 323 2647 291L2647 0L2725 0ZM3215 418C3156 452 3122 461 3061 461C2922 461 2841 340 2841 222C2841 98 2932 -11 3057 -11C3111 -11 3166 3 3220 40L3214 107C3163 67 3109 53 3058 53C2975 53 2919 125 2919 223C2919 301 2956 397 3062 397C3114 397 3148 389 3203 353ZM3411 680L3322 680L3322 591L3411 591ZM3404 444L3329 444L3329 0L3404 0ZM3884 289C3884 391 3811 461 3719 461C3654 461 3609 445 3562 418L3568 352C3620 389 3670 402 3719 402C3766 402 3806 362 3806 288L3806 245C3656 243 3529 201 3529 113C3529 70 3556 -11 3643 -11C3657 -11 3751 -9 3809 36L3809 0L3884 0ZM3806 132C3806 113 3806 88 3772 69C3743 51 3705 50 3694 50C3646 50 3601 73 3601 115C3601 185 3763 192 3806 194ZM4373 46C4404 17 4448 -11 4508 -11C4605 -11 4693 87 4693 223C4693 343 4630 455 4534 455C4474 455 4416 434 4370 395L4370 444L4295 444L4295 -194L4373 -194ZM4373 333C4397 368 4436 391 4479 391C4555 391 4615 315 4615 223C4615 120 4544 50 4469 50C4430 50 4403 70 4383 97C4373 112 4373 114 4373 132ZM5163 444L5085 444L5085 154C5085 79 5029 44 4965 44C4894 44 4887 70 4887 113L4887 444L4809 444L4809 109C4809 37 4832 -11 4915 -11C4968 -11 5039 5 5088 48L5088 0L5163 0ZM5400 214C5400 314 5472 386 5570 388L5570 455C5481 454 5426 405 5395 359L5395 450L5325 450L5325 0L5400 0ZM5982 289C5982 391 5909 461 5817 461C5752 461 5707 445 5660 418L5666 352C5718 389 5768 402 5817 402C5864 402 5904 362 5904 288L5904 245C5754 243 5627 201 5627 113C5627 70 5654 -11 5741 -11C5755 -11 5849 -9 5907 36L5907 0L5982 0ZM5904 132C5904 113 5904 88 5870 69C5841 51 5803 50 5792 50C5744 50 5699 73 5699 115C5699 185 5861 192 5904 194Z" stroke="rgb(0,0,0)" stroke-opacity="1" stroke-width="8" fill="rgb(0,0,0)" fill-opacity="1"></path></g></g><g><g transform="matrix(1,0,0,1,114.390625,31.390625)"><path transform="matrix(0.017,0,0,-0.017,0,0)" d="M604 347L604 406L65 406L65 347ZM604 134L604 193L65 193L65 134Z" stroke="rgb(0,0,0)" stroke-opacity="1" stroke-width="8" fill="rgb(0,0,0)" fill-opacity="1"></path></g></g><g><g transform="matrix(1,0,0,1,130.84375,31.390625)"><path transform="matrix(0.017,0,0,-0.017,0,0)" d="" stroke="rgb(0,0,0)" stroke-opacity="1" stroke-width="8" fill="rgb(0,0,0)" fill-opacity="1"></path></g></g><g><g><g><g><g transform="matrix(1,0,0,1,136.765625,19)"><path transform="matrix(0.017,0,0,-0.017,0,0)" d="M465 666C410 699 355 716 282 716C143 716 56 618 56 519C56 476 70 434 110 392C152 347 196 335 255 321C340 300 350 297 378 272C398 255 420 222 420 179C420 113 365 47 274 47C233 47 143 57 59 128L44 47C132 -8 212 -22 275 -22C407 -22 499 79 499 189C499 254 468 302 446 326C399 376 366 385 274 408C256 412 135 429 135 531C135 590 189 650 281 650C365 650 413 617 450 586ZM989 444L911 444L911 154C911 79 855 44 791 44C720 44 713 70 713 113L713 444L635 444L635 109C635 37 658 -11 741 -11C794 -11 865 5 914 48L914 0L989 0ZM1429 128C1429 183 1392 217 1390 220C1351 255 1324 261 1274 270C1219 281 1173 291 1173 340C1173 402 1245 402 1258 402C1290 402 1343 398 1400 364L1412 429C1360 453 1319 461 1268 461C1243 461 1102 461 1102 330C1102 281 1131 249 1156 230C1187 208 1209 204 1264 193C1300 186 1358 174 1358 121C1358 52 1279 52 1264 52C1183 52 1127 89 1109 101L1097 33C1129 17 1184 -11 1265 -11C1403 -11 1429 75 1429 128ZM1626 386L1767 386L1767 444L1626 444L1626 571L1557 571L1557 444L1470 444L1470 386L1554 386L1554 119C1554 59 1568 -11 1637 -11C1707 -11 1758 14 1783 27L1767 86C1741 65 1709 53 1677 53C1640 53 1626 83 1626 136ZM2210 289C2210 391 2137 461 2045 461C1980 461 1935 445 1888 418L1894 352C1946 389 1996 402 2045 402C2092 402 2132 362 2132 288L2132 245C1982 243 1855 201 1855 113C1855 70 1882 -11 1969 -11C1983 -11 2077 -9 2135 36L2135 0L2210 0ZM2132 132C2132 113 2132 88 2098 69C2069 51 2031 50 2020 50C1972 50 1927 73 1927 115C1927 185 2089 192 2132 194ZM2725 298C2725 364 2710 455 2588 455C2498 455 2449 387 2443 379L2443 450L2371 450L2371 0L2449 0L2449 245C2449 311 2474 394 2550 394C2646 394 2647 323 2647 291L2647 0L2725 0ZM3215 418C3156 452 3122 461 3061 461C2922 461 2841 340 2841 222C2841 98 2932 -11 3057 -11C3111 -11 3166 3 3220 40L3214 107C3163 67 3109 53 3058 53C2975 53 2919 125 2919 223C2919 301 2956 397 3062 397C3114 397 3148 389 3203 353ZM3411 680L3322 680L3322 591L3411 591ZM3404 444L3329 444L3329 0L3404 0ZM3884 289C3884 391 3811 461 3719 461C3654 461 3609 445 3562 418L3568 352C3620 389 3670 402 3719 402C3766 402 3806 362 3806 288L3806 245C3656 243 3529 201 3529 113C3529 70 3556 -11 3643 -11C3657 -11 3751 -9 3809 36L3809 0L3884 0ZM3806 132C3806 113 3806 88 3772 69C3743 51 3705 50 3694 50C3646 50 3601 73 3601 115C3601 185 3763 192 3806 194ZM4376 680L4287 680L4287 591L4376 591ZM4369 444L4294 444L4294 0L4369 0ZM5163 298C5163 365 5147 455 5026 455C4966 455 4914 427 4877 373C4851 449 4781 455 4749 455C4677 455 4630 414 4603 378L4603 450L4531 450L4531 0L4609 0L4609 245C4609 313 4636 394 4710 394C4803 394 4808 329 4808 291L4808 0L4886 0L4886 245C4886 313 4913 394 4987 394C5080 394 5085 329 5085 291L5085 0L5163 0ZM5403 46C5434 17 5478 -11 5538 -11C5635 -11 5723 87 5723 223C5723 343 5660 455 5564 455C5504 455 5446 434 5400 395L5400 444L5325 444L5325 -194L5403 -194ZM5403 333C5427 368 5466 391 5509 391C5585 391 5645 315 5645 223C5645 120 5574 50 5499 50C5460 50 5433 70 5413 97C5403 112 5403 114 5403 132ZM6193 444L6115 444L6115 154C6115 79 6059 44 5995 44C5924 44 5917 70 5917 113L5917 444L5839 444L5839 109C5839 37 5862 -11 5945 -11C5998 -11 6069 5 6118 48L6118 0L6193 0ZM6430 214C6430 314 6502 386 6600 388L6600 455C6511 454 6456 405 6425 359L6425 450L6355 450L6355 0L6430 0ZM7012 289C7012 391 6939 461 6847 461C6782 461 6737 445 6690 418L6696 352C6748 389 6798 402 6847 402C6894 402 6934 362 6934 288L6934 245C6784 243 6657 201 6657 113C6657 70 6684 -11 6771 -11C6785 -11 6879 -9 6937 36L6937 0L7012 0ZM6934 132C6934 113 6934 88 6900 69C6871 51 6833 50 6822 50C6774 50 6729 73 6729 115C6729 185 6891 192 6934 194ZM7509 267L7378 213L7373 204L7409 153L7419 153L7525 241L7543 99L7553 95L7621 121L7621 131L7553 253L7691 233L7700 241L7700 303L7694 307L7555 283L7624 408L7621 423L7559 442L7550 438L7524 295L7429 393L7419 393L7375 341L7378 331ZM8138 46C8169 17 8213 -11 8273 -11C8370 -11 8458 87 8458 223C8458 343 8395 455 8299 455C8239 455 8181 434 8135 395L8135 444L8060 444L8060 -194L8138 -194ZM8138 333C8162 368 8201 391 8244 391C8320 391 8380 315 8380 223C8380 120 8309 50 8234 50C8195 50 8168 70 8148 97C8138 112 8138 114 8138 132ZM8962 220C8962 354 8862 461 8743 461C8620 461 8523 351 8523 220C8523 88 8625 -11 8742 -11C8862 -11 8962 90 8962 220ZM8742 53C8673 53 8601 109 8601 230C8601 351 8677 400 8742 400C8812 400 8884 348 8884 230C8884 112 8816 53 8742 53ZM9149 214C9149 314 9221 386 9319 388L9319 455C9230 454 9175 405 9144 359L9144 450L9074 450L9074 0L9149 0ZM9742 418C9683 452 9649 461 9588 461C9449 461 9368 340 9368 222C9368 98 9459 -11 9584 -11C9638 -11 9693 3 9747 40L9741 107C9690 67 9636 53 9585 53C9502 53 9446 125 9446 223C9446 301 9483 397 9589 397C9641 397 9675 389 9730 353ZM10189 219C10189 421 10082 461 10011 461C9900 461 9810 355 9810 226C9810 94 9906 -11 10026 -11C10089 -11 10146 13 10185 41L10179 106C10116 54 10050 50 10027 50C9947 50 9883 121 9880 219ZM9885 274C9901 350 9954 400 10011 400C10063 400 10119 366 10132 274ZM10653 298C10653 364 10638 455 10516 455C10426 455 10377 387 10371 379L10371 450L10299 450L10299 0L10377 0L10377 245C10377 311 10402 394 10478 394C10574 394 10575 323 10575 291L10575 0L10653 0ZM10908 386L11049 386L11049 444L10908 444L10908 571L10839 571L10839 444L10752 444L10752 386L10836 386L10836 119C10836 59 10850 -11 10919 -11C10989 -11 11040 14 11065 27L11049 86C11023 65 10991 53 10959 53C10922 53 10908 83 10908 136ZM11492 289C11492 391 11419 461 11327 461C11262 461 11217 445 11170 418L11176 352C11228 389 11278 402 11327 402C11374 402 11414 362 11414 288L11414 245C11264 243 11137 201 11137 113C11137 70 11164 -11 11251 -11C11265 -11 11359 -9 11417 36L11417 0L11492 0ZM11414 132C11414 113 11414 88 11380 69C11351 51 11313 50 11302 50C11254 50 11209 73 11209 115C11209 185 11371 192 11414 194ZM11756 680L11667 680L11667 591L11756 591ZM11511 -171C11559 -199 11605 -205 11631 -205C11694 -205 11756 -153 11756 -59L11756 444L11681 444L11681 -68C11681 -132 11631 -141 11603 -141C11574 -141 11548 -130 11526 -110ZM12251 219C12251 421 12144 461 12073 461C11962 461 11872 355 11872 226C11872 94 11968 -11 12088 -11C12151 -11 12208 13 12247 41L12241 106C12178 54 12112 50 12089 50C12009 50 11945 121 11942 219ZM11947 274C11963 350 12016 400 12073 400C12125 400 12181 366 12194 274ZM12963 694L12888 694L12888 400C12835 444 12779 455 12742 455C12643 455 12565 351 12565 222C12565 91 12642 -11 12737 -11C12770 -11 12829 -2 12885 52L12885 0L12963 0ZM12885 139C12885 125 12884 107 12852 78C12829 58 12804 50 12778 50C12716 50 12643 97 12643 221C12643 353 12729 394 12788 394C12833 394 12863 371 12885 339ZM13458 219C13458 421 13351 461 13280 461C13169 461 13079 355 13079 226C13079 94 13175 -11 13295 -11C13358 -11 13415 13 13454 41L13448 106C13385 54 13319 50 13296 50C13216 50 13152 121 13149 219ZM13154 274C13170 350 13223 400 13280 400C13332 400 13388 366 13401 274ZM13896 46C13927 17 13971 -11 14031 -11C14128 -11 14216 87 14216 223C14216 343 14153 455 14057 455C13997 455 13939 434 13893 395L13893 444L13818 444L13818 -194L13896 -194ZM13896 333C13920 368 13959 391 14002 391C14078 391 14138 315 14138 223C14138 120 14067 50 13992 50C13953 50 13926 70 13906 97C13896 112 13896 114 13896 132ZM14686 444L14608 444L14608 154C14608 79 14552 44 14488 44C14417 44 14410 70 14410 113L14410 444L14332 444L14332 109C14332 37 14355 -11 14438 -11C14491 -11 14562 5 14611 48L14611 0L14686 0ZM14923 214C14923 314 14995 386 15093 388L15093 455C15004 454 14949 405 14918 359L14918 450L14848 450L14848 0L14923 0ZM15520 219C15520 421 15413 461 15342 461C15231 461 15141 355 15141 226C15141 94 15237 -11 15357 -11C15420 -11 15477 13 15516 41L15510 106C15447 54 15381 50 15358 50C15278 50 15214 121 15211 219ZM15216 274C15232 350 15285 400 15342 400C15394 400 15450 366 15463 274ZM15949 405L15949 444L15591 444L15591 386L15844 386L15577 41L15577 0L15951 0L15951 61L15683 61ZM16381 289C16381 391 16308 461 16216 461C16151 461 16106 445 16059 418L16065 352C16117 389 16167 402 16216 402C16263 402 16303 362 16303 288L16303 245C16153 243 16026 201 16026 113C16026 70 16053 -11 16140 -11C16154 -11 16248 -9 16306 36L16306 0L16381 0ZM16303 132C16303 113 16303 88 16269 69C16240 51 16202 50 16191 50C16143 50 16098 73 16098 115C16098 185 16260 192 16303 194Z" stroke="rgb(0,0,0)" stroke-opacity="1" stroke-width="8" fill="rgb(0,0,0)" fill-opacity="1"></path></g></g></g></g><g><g><g><g transform="matrix(1,0,0,1,263.953125,44.78125)"><path transform="matrix(0.017,0,0,-0.017,0,0)" d="M299 689L279 689C220 627 137 624 89 622L89 563C122 564 170 566 220 587L220 59L95 59L95 0L424 0L424 59L299 59ZM956 331C956 412 952 506 910 588C869 665 800 689 749 689C690 689 620 662 579 571C546 497 541 413 541 331C541 251 545 177 575 103C615 5 691 -22 748 -22C821 -22 884 19 916 89C946 155 956 223 956 331ZM749 40C697 40 656 78 636 151C620 209 619 264 619 343C619 407 619 468 636 524C642 544 667 627 748 627C826 627 852 550 859 531C878 475 878 406 878 343C878 276 878 212 860 148C834 56 781 40 749 40ZM1455 331C1455 412 1451 506 1409 588C1368 665 1299 689 1248 689C1189 689 1119 662 1078 571C1045 497 1040 413 1040 331C1040 251 1044 177 1074 103C1114 5 1190 -22 1247 -22C1320 -22 1383 19 1415 89C1445 155 1455 223 1455 331ZM1248 40C1196 40 1155 78 1135 151C1119 209 1118 264 1118 343C1118 407 1118 468 1135 524C1141 544 1166 627 1247 627C1325 627 1351 550 1358 531C1377 475 1377 406 1377 343C1377 276 1377 212 1359 148C1333 56 1280 40 1248 40Z" stroke="rgb(0,0,0)" stroke-opacity="1" stroke-width="8" fill="rgb(0,0,0)" fill-opacity="1"></path></g></g></g></g><line style="fill:none;stroke-width:1px;stroke:rgb(0, 0, 0);" x1="136.765625" y1="27.140625" x2="416.609375" y2="27.140625"></line></g></g></g></svg>