<svg xmlns="http://www.w3.org/2000/svg" xmlns:xlink="http://www.w3.org/1999/xlink" width="114.453125" height="47.171875" style="width:114.453125px;height:47.171875px;font-family:Asana-Math, Asana;background:#FFF;"><g><g><g><g transform="matrix(1,0,0,1,2,31.390625)"><path transform="matrix(0.017,0,0,-0.017,0,0)" d="M465 666C410 699 355 716 282 716C143 716 56 618 56 519C56 476 70 434 110 392C152 347 196 335 255 321C340 300 350 297 378 272C398 255 420 222 420 179C420 113 365 47 274 47C233 47 143 57 59 128L44 47C132 -8 212 -22 275 -22C407 -22 499 79 499 189C499 254 468 302 446 326C399 376 366 385 274 408C256 412 135 429 135 531C135 590 189 650 281 650C365 650 413 617 450 586ZM906 289C1030 289 1136 380 1136 492C1136 599 1037 694 899 694L650 694L650 0L739 0L739 289ZM877 638C987 638 1055 577 1055 492C1055 413 992 347 877 347L736 347L736 638Z" stroke="rgb(0,0,0)" stroke-opacity="1" stroke-width="8" fill="rgb(0,0,0)" fill-opacity="1"></path></g></g><g><g transform="matrix(1,0,0,1,27.34375,31.390625)"><path transform="matrix(0.017,0,0,-0.017,0,0)" d="M604 347L604 406L65 406L65 347ZM604 134L604 193L65 193L65 134Z" stroke="rgb(0,0,0)" stroke-opacity="1" stroke-width="8" fill="rgb(0,0,0)" fill-opacity="1"></path></g></g><g><g transform="matrix(1,0,0,1,43.796875,31.390625)"><path transform="matrix(0.017,0,0,-0.017,0,0)" d="" stroke="rgb(0,0,0)" stroke-opacity="1" stroke-width="8" fill="rgb(0,0,0)" fill-opacity="1"></path></g></g><g><g><g><g><g transform="matrix(1,0,0,1,49.71875,19)"><path transform="matrix(0.017,0,0,-0.017,0,0)" d="M465 666C410 699 355 716 282 716C143 716 56 618 56 519C56 476 70 434 110 392C152 347 196 335 255 321C340 300 350 297 378 272C398 255 420 222 420 179C420 113 365 47 274 47C233 47 143 57 59 128L44 47C132 -8 212 -22 275 -22C407 -22 499 79 499 189C499 254 468 302 446 326C399 376 366 385 274 408C256 412 135 429 135 531C135 590 189 650 281 650C365 650 413 617 450 586ZM737 694L648 694L648 0L737 0ZM1247 267L1116 213L1111 204L1147 153L1157 153L1263 241L1281 99L1291 95L1359 121L1359 131L1291 253L1429 233L1438 241L1438 303L1432 307L1293 283L1362 408L1359 423L1297 442L1288 438L1262 295L1167 393L1157 393L1113 341L1116 331ZM1919 689C1824 689 1755 619 1755 522C1755 433 1820 368 1909 368C2002 368 2071 439 2071 535C2071 623 2006 689 1919 689ZM1916 666C1967 666 1999 615 1999 533C1999 447 1964 391 1910 391C1857 391 1827 440 1827 526C1827 612 1861 666 1916 666ZM2366 321C2271 321 2202 251 2202 154C2202 65 2267 0 2356 0C2449 0 2518 71 2518 167C2518 255 2453 321 2366 321ZM2363 298C2414 298 2446 247 2446 165C2446 79 2411 23 2357 23C2304 23 2274 72 2274 158C2274 244 2308 298 2363 298ZM1966 -20L2332 709L2292 709L1926 -20ZM3156 289C3280 289 3386 380 3386 492C3386 599 3287 694 3149 694L2900 694L2900 0L2989 0L2989 289ZM3127 638C3237 638 3305 577 3305 492C3305 413 3242 347 3127 347L2986 347L2986 638Z" stroke="rgb(0,0,0)" stroke-opacity="1" stroke-width="8" fill="rgb(0,0,0)" fill-opacity="1"></path></g></g></g></g><g><g><g><g transform="matrix(1,0,0,1,68.359375,44.78125)"><path transform="matrix(0.017,0,0,-0.017,0,0)" d="M299 689L279 689C220 627 137 624 89 622L89 563C122 564 170 566 220 587L220 59L95 59L95 0L424 0L424 59L299 59ZM956 331C956 412 952 506 910 588C869 665 800 689 749 689C690 689 620 662 579 571C546 497 541 413 541 331C541 251 545 177 575 103C615 5 691 -22 748 -22C821 -22 884 19 916 89C946 155 956 223 956 331ZM749 40C697 40 656 78 636 151C620 209 619 264 619 343C619 407 619 468 636 524C642 544 667 627 748 627C826 627 852 550 859 531C878 475 878 406 878 343C878 276 878 212 860 148C834 56 781 40 749 40ZM1455 331C1455 412 1451 506 1409 588C1368 665 1299 689 1248 689C1189 689 1119 662 1078 571C1045 497 1040 413 1040 331C1040 251 1044 177 1074 103C1114 5 1190 -22 1247 -22C1320 -22 1383 19 1415 89C1445 155 1455 223 1455 331ZM1248 40C1196 40 1155 78 1135 151C1119 209 1118 264 1118 343C1118 407 1118 468 1135 524C1141 544 1166 627 1247 627C1325 627 1351 550 1358 531C1377 475 1377 406 1377 343C1377 276 1377 212 1359 148C1333 56 1280 40 1248 40Z" stroke="rgb(0,0,0)" stroke-opacity="1" stroke-width="8" fill="rgb(0,0,0)" fill-opacity="1"></path></g></g></g></g><line style="fill:none;stroke-width:1px;stroke:rgb(0, 0, 0);" x1="49.71875" y1="27.140625" x2="112.453125" y2="27.140625"></line></g></g></g></svg>