<svg xmlns="http://www.w3.org/2000/svg" xmlns:xlink="http://www.w3.org/1999/xlink" width="355.75" height="317.03125" style="width:355.75px;height:317.03125px;font-family:Asana-Math, Asana;background:#FFF;"><g><g><g><g transform="matrix(1,0,0,1,5.734375,37.390625)"><path transform="matrix(0.017,0,0,-0.017,0,0)" d="" stroke="rgb(0,0,0)" stroke-opacity="1" stroke-width="8" fill="rgb(0,0,0)" fill-opacity="1"></path></g></g><g><g transform="matrix(1,0,0,1,22.671875,37.390625)"><path transform="matrix(0.017,0,0,-0.017,0,0)" d="M714 666C659 699 604 716 531 716C392 716 305 618 305 519C305 476 319 434 359 392C401 347 445 335 504 321C589 300 599 297 627 272C647 255 669 222 669 179C669 113 614 47 523 47C482 47 392 57 308 128L293 47C381 -8 461 -22 524 -22C656 -22 748 79 748 189C748 254 717 302 695 326C648 376 615 385 523 408C505 412 384 429 384 531C384 590 438 650 530 650C614 650 662 617 699 586ZM1217 219C1217 421 1110 461 1039 461C928 461 838 355 838 226C838 94 934 -11 1054 -11C1117 -11 1174 13 1213 41L1207 106C1144 54 1078 50 1055 50C975 50 911 121 908 219ZM913 274C929 350 982 400 1039 400C1091 400 1147 366 1160 274ZM1681 298C1681 364 1666 455 1544 455C1454 455 1405 387 1399 379L1399 450L1327 450L1327 0L1405 0L1405 245C1405 311 1430 394 1506 394C1602 394 1603 323 1603 291L1603 0L1681 0ZM1853 522C1882 593 1947 630 2008 630C2060 630 2109 600 2109 535C2109 473 2068 413 2007 398C2001 397 1999 397 1928 391L1928 329L1999 329C2107 329 2129 235 2129 184C2129 105 2083 40 2006 40C1937 40 1858 75 1814 144L1803 83C1876 -12 1968 -22 2008 -22C2130 -22 2218 76 2218 183C2218 275 2148 338 2080 360C2156 401 2191 471 2191 535C2191 622 2108 689 2009 689C1932 689 1859 648 1817 577ZM2717 331C2717 412 2713 506 2671 588C2630 665 2561 689 2510 689C2451 689 2381 662 2340 571C2307 497 2302 413 2302 331C2302 251 2306 177 2336 103C2376 5 2452 -22 2509 -22C2582 -22 2645 19 2677 89C2707 155 2717 223 2717 331ZM2510 40C2458 40 2417 78 2397 151C2381 209 2380 264 2380 343C2380 407 2380 468 2397 524C2403 544 2428 627 2509 627C2587 627 2613 550 2620 531C2639 475 2639 406 2639 343C2639 276 2639 212 2621 148C2595 56 2542 40 2510 40Z" stroke="rgb(0,0,0)" stroke-opacity="1" stroke-width="8" fill="rgb(0,0,0)" fill-opacity="1"></path></g></g><g><g transform="matrix(1,0,0,1,78.90625,37.390625)"><path transform="matrix(0.017,0,0,-0.017,0,0)" d="M604 347L604 406L65 406L65 347ZM604 134L604 193L65 193L65 134Z" stroke="rgb(0,0,0)" stroke-opacity="1" stroke-width="8" fill="rgb(0,0,0)" fill-opacity="1"></path></g></g><g><g transform="matrix(1,0,0,1,95.359375,37.390625)"><path transform="matrix(0.017,0,0,-0.017,0,0)" d="" stroke="rgb(0,0,0)" stroke-opacity="1" stroke-width="8" fill="rgb(0,0,0)" fill-opacity="1"></path></g></g><g><g><g><g><g transform="matrix(1,0,0,1,101.28125,25)"><path transform="matrix(0.017,0,0,-0.017,0,0)" d="M299 689L279 689C220 627 137 624 89 622L89 563C122 564 170 566 220 587L220 59L95 59L95 0L424 0L424 59L299 59Z" stroke="rgb(0,0,0)" stroke-opacity="1" stroke-width="8" fill="rgb(0,0,0)" fill-opacity="1"></path></g></g></g></g><g><g><g><g transform="matrix(1,0,0,1,101.28125,50.78125)"><path transform="matrix(0.017,0,0,-0.017,0,0)" d="M83 466C103 545 131 624 222 624C316 624 367 548 367 468C367 382 310 324 251 263L174 191L50 65L50 0L449 0L449 72L267 72C255 72 243 71 231 71L122 71C154 100 230 176 261 205C333 274 449 347 449 471C449 587 368 689 236 689C122 689 66 610 42 522C66 487 59 501 83 466Z" stroke="rgb(0,0,0)" stroke-opacity="1" stroke-width="8" fill="rgb(0,0,0)" fill-opacity="1"></path></g></g></g></g><line style="fill:none;stroke-width:1px;stroke:rgb(0, 0, 0);" x1="101.28125" y1="33.140625" x2="109.765625" y2="33.140625"></line></g><g><g transform="matrix(1,0,0,1,111.453125,37.390625)"><path transform="matrix(0.017,0,0,-0.017,0,0)" d="M1324 681C1261 705 1207 716 1141 716C949 716 814 543 814 347C814 154 947 -22 1142 -22C1225 -22 1264 -9 1335 34L1329 103C1257 52 1212 42 1143 42C992 42 903 194 903 347C903 510 1001 652 1140 652C1219 652 1267 627 1309 600ZM1853 220C1853 354 1753 461 1634 461C1511 461 1414 351 1414 220C1414 88 1516 -11 1633 -11C1753 -11 1853 90 1853 220ZM1633 53C1564 53 1492 109 1492 230C1492 351 1568 400 1633 400C1703 400 1775 348 1775 230C1775 112 1707 53 1633 53ZM2243 128C2243 183 2206 217 2204 220C2165 255 2138 261 2088 270C2033 281 1987 291 1987 340C1987 402 2059 402 2072 402C2104 402 2157 398 2214 364L2226 429C2174 453 2133 461 2082 461C2057 461 1916 461 1916 330C1916 281 1945 249 1970 230C2001 208 2023 204 2078 193C2114 186 2172 174 2172 121C2172 52 2093 52 2078 52C1997 52 1941 89 1923 101L1911 33C1943 17 1998 -11 2079 -11C2217 -11 2243 75 2243 128ZM2357 522C2386 593 2451 630 2512 630C2564 630 2613 600 2613 535C2613 473 2572 413 2511 398C2505 397 2503 397 2432 391L2432 329L2503 329C2611 329 2633 235 2633 184C2633 105 2587 40 2510 40C2441 40 2362 75 2318 144L2307 83C2380 -12 2472 -22 2512 -22C2634 -22 2722 76 2722 183C2722 275 2652 338 2584 360C2660 401 2695 471 2695 535C2695 622 2612 689 2513 689C2436 689 2363 648 2321 577ZM3221 331C3221 412 3217 506 3175 588C3134 665 3065 689 3014 689C2955 689 2885 662 2844 571C2811 497 2806 413 2806 331C2806 251 2810 177 2840 103C2880 5 2956 -22 3013 -22C3086 -22 3149 19 3181 89C3211 155 3221 223 3221 331ZM3014 40C2962 40 2921 78 2901 151C2885 209 2884 264 2884 343C2884 407 2884 468 2901 524C2907 544 2932 627 3013 627C3091 627 3117 550 3124 531C3143 475 3143 406 3143 343C3143 276 3143 212 3125 148C3099 56 3046 40 3014 40Z" stroke="rgb(0,0,0)" stroke-opacity="1" stroke-width="8" fill="rgb(0,0,0)" fill-opacity="1"></path></g></g><g><g transform="matrix(1,0,0,1,176.265625,37.390625)"><path transform="matrix(0.017,0,0,-0.017,0,0)" d="M604 347L604 406L65 406L65 347ZM604 134L604 193L65 193L65 134Z" stroke="rgb(0,0,0)" stroke-opacity="1" stroke-width="8" fill="rgb(0,0,0)" fill-opacity="1"></path></g></g><g><g transform="matrix(1,0,0,1,192.71875,37.390625)"><path transform="matrix(0.017,0,0,-0.017,0,0)" d="" stroke="rgb(0,0,0)" stroke-opacity="1" stroke-width="8" fill="rgb(0,0,0)" fill-opacity="1"></path></g></g><g><g><g><g><g><g><g><g transform="matrix(1,0,0,1,215.640625,25)"><path transform="matrix(0.017,0,0,-0.017,0,0)" d="M92 522C121 593 186 630 247 630C299 630 348 600 348 535C348 473 307 413 246 398C240 397 238 397 167 391L167 329L238 329C346 329 368 235 368 184C368 105 322 40 245 40C176 40 97 75 53 144L42 83C115 -12 207 -22 247 -22C369 -22 457 76 457 183C457 275 387 338 319 360C395 401 430 471 430 535C430 622 347 689 248 689C171 689 98 648 56 577Z" stroke="rgb(0,0,0)" stroke-opacity="1" stroke-width="8" fill="rgb(0,0,0)" fill-opacity="1"></path></g></g></g></g><svg x="198.640625" overflow="visible" y="6" height="17" width="25.5"><polygon points="0.35,10.28 4.79,7.91 9.66,18.23 16.36,0.00 25.50,0.00 25.50,1.05 17.09,1.05 9.18,22.58 3.10,9.84 0.64,10.76" style="fill:rgb(0,0,0);fill-opacity:1;stroke-width:1px;stroke:none;stroke-opacity:1;"></polygon></svg></g></g></g><g><g><g><g transform="matrix(1,0,0,1,207.140625,50.78125)"><path transform="matrix(0.017,0,0,-0.017,0,0)" d="M83 466C103 545 131 624 222 624C316 624 367 548 367 468C367 382 310 324 251 263L174 191L50 65L50 0L449 0L449 72L267 72C255 72 243 71 231 71L122 71C154 100 230 176 261 205C333 274 449 347 449 471C449 587 368 689 236 689C122 689 66 610 42 522C66 487 59 501 83 466Z" stroke="rgb(0,0,0)" stroke-opacity="1" stroke-width="8" fill="rgb(0,0,0)" fill-opacity="1"></path></g></g></g></g><line style="fill:none;stroke-width:1px;stroke:rgb(0, 0, 0);" x1="198.640625" y1="33.140625" x2="224.140625" y2="33.140625"></line></g><g><g transform="matrix(1,0,0,1,225.828125,37.390625)"><path transform="matrix(0.017,0,0,-0.017,0,0)" d="M1132 624L1221 624C1233 624 1245 623 1257 623L1391 623L1391 688L783 688L783 623L917 623C929 623 941 624 953 624L1043 624L1043 0L1132 0ZM1825 289C1825 391 1752 461 1660 461C1595 461 1550 445 1503 418L1509 352C1561 389 1611 402 1660 402C1707 402 1747 362 1747 288L1747 245C1597 243 1470 201 1470 113C1470 70 1497 -11 1584 -11C1598 -11 1692 -9 1750 36L1750 0L1825 0ZM1747 132C1747 113 1747 88 1713 69C1684 51 1646 50 1635 50C1587 50 1542 73 1542 115C1542 185 1704 192 1747 194ZM2340 298C2340 364 2325 455 2203 455C2113 455 2064 387 2058 379L2058 450L1986 450L1986 0L2064 0L2064 245C2064 311 2089 394 2165 394C2261 394 2262 323 2262 291L2262 0L2340 0ZM2512 522C2541 593 2606 630 2667 630C2719 630 2768 600 2768 535C2768 473 2727 413 2666 398C2660 397 2658 397 2587 391L2587 329L2658 329C2766 329 2788 235 2788 184C2788 105 2742 40 2665 40C2596 40 2517 75 2473 144L2462 83C2535 -12 2627 -22 2667 -22C2789 -22 2877 76 2877 183C2877 275 2807 338 2739 360C2815 401 2850 471 2850 535C2850 622 2767 689 2668 689C2591 689 2518 648 2476 577ZM3376 331C3376 412 3372 506 3330 588C3289 665 3220 689 3169 689C3110 689 3040 662 2999 571C2966 497 2961 413 2961 331C2961 251 2965 177 2995 103C3035 5 3111 -22 3168 -22C3241 -22 3304 19 3336 89C3366 155 3376 223 3376 331ZM3169 40C3117 40 3076 78 3056 151C3040 209 3039 264 3039 343C3039 407 3039 468 3056 524C3062 544 3087 627 3168 627C3246 627 3272 550 3279 531C3298 475 3298 406 3298 343C3298 276 3298 212 3280 148C3254 56 3201 40 3169 40Z" stroke="rgb(0,0,0)" stroke-opacity="1" stroke-width="8" fill="rgb(0,0,0)" fill-opacity="1"></path></g></g><g><g transform="matrix(1,0,0,1,293.265625,37.390625)"><path transform="matrix(0.017,0,0,-0.017,0,0)" d="M604 347L604 406L65 406L65 347ZM604 134L604 193L65 193L65 134Z" stroke="rgb(0,0,0)" stroke-opacity="1" stroke-width="8" fill="rgb(0,0,0)" fill-opacity="1"></path></g></g><g><g transform="matrix(1,0,0,1,309.71875,37.390625)"><path transform="matrix(0.017,0,0,-0.017,0,0)" d="" stroke="rgb(0,0,0)" stroke-opacity="1" stroke-width="8" fill="rgb(0,0,0)" fill-opacity="1"></path></g></g><g><g><g><g><g><g><g><g transform="matrix(1,0,0,1,332.640625,25)"><path transform="matrix(0.017,0,0,-0.017,0,0)" d="M92 522C121 593 186 630 247 630C299 630 348 600 348 535C348 473 307 413 246 398C240 397 238 397 167 391L167 329L238 329C346 329 368 235 368 184C368 105 322 40 245 40C176 40 97 75 53 144L42 83C115 -12 207 -22 247 -22C369 -22 457 76 457 183C457 275 387 338 319 360C395 401 430 471 430 535C430 622 347 689 248 689C171 689 98 648 56 577Z" stroke="rgb(0,0,0)" stroke-opacity="1" stroke-width="8" fill="rgb(0,0,0)" fill-opacity="1"></path></g></g></g></g><svg x="315.640625" overflow="visible" y="6" height="17" width="25.5"><polygon points="0.35,10.28 4.79,7.91 9.66,18.23 16.36,0.00 25.50,0.00 25.50,1.05 17.09,1.05 9.18,22.58 3.10,9.84 0.64,10.76" style="fill:rgb(0,0,0);fill-opacity:1;stroke-width:1px;stroke:none;stroke-opacity:1;"></polygon></svg></g></g></g><g><g><g><g transform="matrix(1,0,0,1,324.140625,50.78125)"><path transform="matrix(0.017,0,0,-0.017,0,0)" d="M92 522C121 593 186 630 247 630C299 630 348 600 348 535C348 473 307 413 246 398C240 397 238 397 167 391L167 329L238 329C346 329 368 235 368 184C368 105 322 40 245 40C176 40 97 75 53 144L42 83C115 -12 207 -22 247 -22C369 -22 457 76 457 183C457 275 387 338 319 360C395 401 430 471 430 535C430 622 347 689 248 689C171 689 98 648 56 577Z" stroke="rgb(0,0,0)" stroke-opacity="1" stroke-width="8" fill="rgb(0,0,0)" fill-opacity="1"></path></g></g></g></g><line style="fill:none;stroke-width:1px;stroke:rgb(0, 0, 0);" x1="315.640625" y1="33.140625" x2="341.140625" y2="33.140625"></line></g><g><g transform="matrix(1,0,0,1,342.828125,37.390625)"><path transform="matrix(0.017,0,0,-0.017,0,0)" d="" stroke="rgb(0,0,0)" stroke-opacity="1" stroke-width="8" fill="rgb(0,0,0)" fill-opacity="1"></path></g></g></g><g><g><g transform="matrix(1,0,0,1,12.140625,86.5625)"><path transform="matrix(0.017,0,0,-0.017,0,0)" d="M1324 681C1261 705 1207 716 1141 716C949 716 814 543 814 347C814 154 947 -22 1142 -22C1225 -22 1264 -9 1335 34L1329 103C1257 52 1212 42 1143 42C992 42 903 194 903 347C903 510 1001 652 1140 652C1219 652 1267 627 1309 600ZM1853 220C1853 354 1753 461 1634 461C1511 461 1414 351 1414 220C1414 88 1516 -11 1633 -11C1753 -11 1853 90 1853 220ZM1633 53C1564 53 1492 109 1492 230C1492 351 1568 400 1633 400C1703 400 1775 348 1775 230C1775 112 1707 53 1633 53ZM2058 386L2199 386L2199 444L2058 444L2058 571L1989 571L1989 444L1902 444L1902 386L1986 386L1986 119C1986 59 2000 -11 2069 -11C2139 -11 2190 14 2215 27L2199 86C2173 65 2141 53 2109 53C2072 53 2058 83 2058 136ZM2335 522C2364 593 2429 630 2490 630C2542 630 2591 600 2591 535C2591 473 2550 413 2489 398C2483 397 2481 397 2410 391L2410 329L2481 329C2589 329 2611 235 2611 184C2611 105 2565 40 2488 40C2419 40 2340 75 2296 144L2285 83C2358 -12 2450 -22 2490 -22C2612 -22 2700 76 2700 183C2700 275 2630 338 2562 360C2638 401 2673 471 2673 535C2673 622 2590 689 2491 689C2414 689 2341 648 2299 577ZM3199 331C3199 412 3195 506 3153 588C3112 665 3043 689 2992 689C2933 689 2863 662 2822 571C2789 497 2784 413 2784 331C2784 251 2788 177 2818 103C2858 5 2934 -22 2991 -22C3064 -22 3127 19 3159 89C3189 155 3199 223 3199 331ZM2992 40C2940 40 2899 78 2879 151C2863 209 2862 264 2862 343C2862 407 2862 468 2879 524C2885 544 2910 627 2991 627C3069 627 3095 550 3102 531C3121 475 3121 406 3121 343C3121 276 3121 212 3103 148C3077 56 3024 40 2992 40Z" stroke="rgb(0,0,0)" stroke-opacity="1" stroke-width="8" fill="rgb(0,0,0)" fill-opacity="1"></path></g></g><g><g transform="matrix(1,0,0,1,76.578125,86.5625)"><path transform="matrix(0.017,0,0,-0.017,0,0)" d="M604 347L604 406L65 406L65 347ZM604 134L604 193L65 193L65 134Z" stroke="rgb(0,0,0)" stroke-opacity="1" stroke-width="8" fill="rgb(0,0,0)" fill-opacity="1"></path></g></g><g><g transform="matrix(1,0,0,1,93.03125,86.5625)"><path transform="matrix(0.017,0,0,-0.017,0,0)" d="" stroke="rgb(0,0,0)" stroke-opacity="1" stroke-width="8" fill="rgb(0,0,0)" fill-opacity="1"></path></g></g><g><g><g><g><g transform="matrix(1,0,0,1,114.265625,86.5625)"><path transform="matrix(0.017,0,0,-0.017,0,0)" d="M92 522C121 593 186 630 247 630C299 630 348 600 348 535C348 473 307 413 246 398C240 397 238 397 167 391L167 329L238 329C346 329 368 235 368 184C368 105 322 40 245 40C176 40 97 75 53 144L42 83C115 -12 207 -22 247 -22C369 -22 457 76 457 183C457 275 387 338 319 360C395 401 430 471 430 535C430 622 347 689 248 689C171 689 98 648 56 577Z" stroke="rgb(0,0,0)" stroke-opacity="1" stroke-width="8" fill="rgb(0,0,0)" fill-opacity="1"></path></g></g></g></g><svg x="97.265625" overflow="visible" y="67.5625" height="17" width="25.5"><polygon points="0.35,10.28 4.79,7.91 9.66,18.23 16.36,0.00 25.50,0.00 25.50,1.05 17.09,1.05 9.18,22.58 3.10,9.84 0.64,10.76" style="fill:rgb(0,0,0);fill-opacity:1;stroke-width:1px;stroke:none;stroke-opacity:1;"></polygon></svg></g><g><g transform="matrix(1,0,0,1,122.765625,86.5625)"><path transform="matrix(0.017,0,0,-0.017,0,0)" d="M1212 666C1157 699 1102 716 1029 716C890 716 803 618 803 519C803 476 817 434 857 392C899 347 943 335 1002 321C1087 300 1097 297 1125 272C1145 255 1167 222 1167 179C1167 113 1112 47 1021 47C980 47 890 57 806 128L791 47C879 -8 959 -22 1022 -22C1154 -22 1246 79 1246 189C1246 254 1215 302 1193 326C1146 376 1113 385 1021 408C1003 412 882 429 882 531C882 590 936 650 1028 650C1112 650 1160 617 1197 586ZM1715 219C1715 421 1608 461 1537 461C1426 461 1336 355 1336 226C1336 94 1432 -11 1552 -11C1615 -11 1672 13 1711 41L1705 106C1642 54 1576 50 1553 50C1473 50 1409 121 1406 219ZM1411 274C1427 350 1480 400 1537 400C1589 400 1645 366 1658 274ZM2154 418C2095 452 2061 461 2000 461C1861 461 1780 340 1780 222C1780 98 1871 -11 1996 -11C2050 -11 2105 3 2159 40L2153 107C2102 67 2048 53 1997 53C1914 53 1858 125 1858 223C1858 301 1895 397 2001 397C2053 397 2087 389 2142 353ZM2279 522C2308 593 2373 630 2434 630C2486 630 2535 600 2535 535C2535 473 2494 413 2433 398C2427 397 2425 397 2354 391L2354 329L2425 329C2533 329 2555 235 2555 184C2555 105 2509 40 2432 40C2363 40 2284 75 2240 144L2229 83C2302 -12 2394 -22 2434 -22C2556 -22 2644 76 2644 183C2644 275 2574 338 2506 360C2582 401 2617 471 2617 535C2617 622 2534 689 2435 689C2358 689 2285 648 2243 577ZM3143 331C3143 412 3139 506 3097 588C3056 665 2987 689 2936 689C2877 689 2807 662 2766 571C2733 497 2728 413 2728 331C2728 251 2732 177 2762 103C2802 5 2878 -22 2935 -22C3008 -22 3071 19 3103 89C3133 155 3143 223 3143 331ZM2936 40C2884 40 2843 78 2823 151C2807 209 2806 264 2806 343C2806 407 2806 468 2823 524C2829 544 2854 627 2935 627C3013 627 3039 550 3046 531C3065 475 3065 406 3065 343C3065 276 3065 212 3047 148C3021 56 2968 40 2936 40Z" stroke="rgb(0,0,0)" stroke-opacity="1" stroke-width="8" fill="rgb(0,0,0)" fill-opacity="1"></path></g></g><g><g transform="matrix(1,0,0,1,182.015625,86.5625)"><path transform="matrix(0.017,0,0,-0.017,0,0)" d="M604 347L604 406L65 406L65 347ZM604 134L604 193L65 193L65 134Z" stroke="rgb(0,0,0)" stroke-opacity="1" stroke-width="8" fill="rgb(0,0,0)" fill-opacity="1"></path></g></g><g><g transform="matrix(1,0,0,1,198.46875,86.5625)"><path transform="matrix(0.017,0,0,-0.017,0,0)" d="" stroke="rgb(0,0,0)" stroke-opacity="1" stroke-width="8" fill="rgb(0,0,0)" fill-opacity="1"></path></g></g><g><g><g><g><g transform="matrix(1,0,0,1,204.390625,74.171875)"><path transform="matrix(0.017,0,0,-0.017,0,0)" d="M83 466C103 545 131 624 222 624C316 624 367 548 367 468C367 382 310 324 251 263L174 191L50 65L50 0L449 0L449 72L267 72C255 72 243 71 231 71L122 71C154 100 230 176 261 205C333 274 449 347 449 471C449 587 368 689 236 689C122 689 66 610 42 522C66 487 59 501 83 466Z" stroke="rgb(0,0,0)" stroke-opacity="1" stroke-width="8" fill="rgb(0,0,0)" fill-opacity="1"></path></g></g><g><g><g><g><g transform="matrix(1,0,0,1,229.875,74.171875)"><path transform="matrix(0.017,0,0,-0.017,0,0)" d="M92 522C121 593 186 630 247 630C299 630 348 600 348 535C348 473 307 413 246 398C240 397 238 397 167 391L167 329L238 329C346 329 368 235 368 184C368 105 322 40 245 40C176 40 97 75 53 144L42 83C115 -12 207 -22 247 -22C369 -22 457 76 457 183C457 275 387 338 319 360C395 401 430 471 430 535C430 622 347 689 248 689C171 689 98 648 56 577Z" stroke="rgb(0,0,0)" stroke-opacity="1" stroke-width="8" fill="rgb(0,0,0)" fill-opacity="1"></path></g></g></g></g><svg x="212.875" overflow="visible" y="55.171875" height="17" width="25.5"><polygon points="0.35,10.28 4.79,7.91 9.66,18.23 16.36,0.00 25.50,0.00 25.50,1.05 17.09,1.05 9.18,22.58 3.10,9.84 0.64,10.76" style="fill:rgb(0,0,0);fill-opacity:1;stroke-width:1px;stroke:none;stroke-opacity:1;"></polygon></svg></g></g></g><g><g><g><g transform="matrix(1,0,0,1,217.140625,99.953125)"><path transform="matrix(0.017,0,0,-0.017,0,0)" d="M92 522C121 593 186 630 247 630C299 630 348 600 348 535C348 473 307 413 246 398C240 397 238 397 167 391L167 329L238 329C346 329 368 235 368 184C368 105 322 40 245 40C176 40 97 75 53 144L42 83C115 -12 207 -22 247 -22C369 -22 457 76 457 183C457 275 387 338 319 360C395 401 430 471 430 535C430 622 347 689 248 689C171 689 98 648 56 577Z" stroke="rgb(0,0,0)" stroke-opacity="1" stroke-width="8" fill="rgb(0,0,0)" fill-opacity="1"></path></g></g></g></g><line style="fill:none;stroke-width:1px;stroke:rgb(0, 0, 0);" x1="204.390625" y1="82.3125" x2="238.375" y2="82.3125"></line></g><g><g transform="matrix(1,0,0,1,240.0625,86.5625)"><path transform="matrix(0.017,0,0,-0.017,0,0)" d="M1324 681C1261 705 1207 716 1141 716C949 716 814 543 814 347C814 154 947 -22 1142 -22C1225 -22 1264 -9 1335 34L1329 103C1257 52 1212 42 1143 42C992 42 903 194 903 347C903 510 1001 652 1140 652C1219 652 1267 627 1309 600ZM1853 220C1853 354 1753 461 1634 461C1511 461 1414 351 1414 220C1414 88 1516 -11 1633 -11C1753 -11 1853 90 1853 220ZM1633 53C1564 53 1492 109 1492 230C1492 351 1568 400 1633 400C1703 400 1775 348 1775 230C1775 112 1707 53 1633 53ZM2243 128C2243 183 2206 217 2204 220C2165 255 2138 261 2088 270C2033 281 1987 291 1987 340C1987 402 2059 402 2072 402C2104 402 2157 398 2214 364L2226 429C2174 453 2133 461 2082 461C2057 461 1916 461 1916 330C1916 281 1945 249 1970 230C2001 208 2023 204 2078 193C2114 186 2172 174 2172 121C2172 52 2093 52 2078 52C1997 52 1941 89 1923 101L1911 33C1943 17 1998 -11 2079 -11C2217 -11 2243 75 2243 128ZM2679 219C2679 421 2572 461 2501 461C2390 461 2300 355 2300 226C2300 94 2396 -11 2516 -11C2579 -11 2636 13 2675 41L2669 106C2606 54 2540 50 2517 50C2437 50 2373 121 2370 219ZM2375 274C2391 350 2444 400 2501 400C2553 400 2609 366 2622 274ZM3118 418C3059 452 3025 461 2964 461C2825 461 2744 340 2744 222C2744 98 2835 -11 2960 -11C3014 -11 3069 3 3123 40L3117 107C3066 67 3012 53 2961 53C2878 53 2822 125 2822 223C2822 301 2859 397 2965 397C3017 397 3051 389 3106 353ZM3243 522C3272 593 3337 630 3398 630C3450 630 3499 600 3499 535C3499 473 3458 413 3397 398C3391 397 3389 397 3318 391L3318 329L3389 329C3497 329 3519 235 3519 184C3519 105 3473 40 3396 40C3327 40 3248 75 3204 144L3193 83C3266 -12 3358 -22 3398 -22C3520 -22 3608 76 3608 183C3608 275 3538 338 3470 360C3546 401 3581 471 3581 535C3581 622 3498 689 3399 689C3322 689 3249 648 3207 577ZM4107 331C4107 412 4103 506 4061 588C4020 665 3951 689 3900 689C3841 689 3771 662 3730 571C3697 497 3692 413 3692 331C3692 251 3696 177 3726 103C3766 5 3842 -22 3899 -22C3972 -22 4035 19 4067 89C4097 155 4107 223 4107 331ZM3900 40C3848 40 3807 78 3787 151C3771 209 3770 264 3770 343C3770 407 3770 468 3787 524C3793 544 3818 627 3899 627C3977 627 4003 550 4010 531C4029 475 4029 406 4029 343C4029 276 4029 212 4011 148C3985 56 3932 40 3900 40Z" stroke="rgb(0,0,0)" stroke-opacity="1" stroke-width="8" fill="rgb(0,0,0)" fill-opacity="1"></path></g></g><g><g transform="matrix(1,0,0,1,315.703125,86.5625)"><path transform="matrix(0.017,0,0,-0.017,0,0)" d="M604 347L604 406L65 406L65 347ZM604 134L604 193L65 193L65 134Z" stroke="rgb(0,0,0)" stroke-opacity="1" stroke-width="8" fill="rgb(0,0,0)" fill-opacity="1"></path></g></g><g><g transform="matrix(1,0,0,1,332.15625,86.5625)"><path transform="matrix(0.017,0,0,-0.017,0,0)" d="M332 466C352 545 380 624 471 624C565 624 616 548 616 468C616 382 559 324 500 263L423 191L299 65L299 0L698 0L698 72L516 72C504 72 492 71 480 71L371 71C403 100 479 176 510 205C582 274 698 347 698 471C698 587 617 689 485 689C371 689 315 610 291 522C315 487 308 501 332 466Z" stroke="rgb(0,0,0)" stroke-opacity="1" stroke-width="8" fill="rgb(0,0,0)" fill-opacity="1"></path></g></g></g><g></g><g><g><g transform="matrix(1,0,0,1,24.359375,156.125)"><path transform="matrix(0.017,0,0,-0.017,0,0)" d="M465 666C410 699 355 716 282 716C143 716 56 618 56 519C56 476 70 434 110 392C152 347 196 335 255 321C340 300 350 297 378 272C398 255 420 222 420 179C420 113 365 47 274 47C233 47 143 57 59 128L44 47C132 -8 212 -22 275 -22C407 -22 499 79 499 189C499 254 468 302 446 326C399 376 366 385 274 408C256 412 135 429 135 531C135 590 189 650 281 650C365 650 413 617 450 586ZM968 219C968 421 861 461 790 461C679 461 589 355 589 226C589 94 685 -11 805 -11C868 -11 925 13 964 41L958 106C895 54 829 50 806 50C726 50 662 121 659 219ZM664 274C680 350 733 400 790 400C842 400 898 366 911 274ZM1432 298C1432 364 1417 455 1295 455C1205 455 1156 387 1150 379L1150 450L1078 450L1078 0L1156 0L1156 245C1156 311 1181 394 1257 394C1353 394 1354 323 1354 291L1354 0L1432 0ZM1927 669C1876 689 1835 689 1821 689C1680 689 1554 546 1554 327C1554 40 1678 -22 1763 -22C1823 -22 1866 1 1905 47C1950 99 1969 145 1969 226C1969 356 1903 469 1807 469C1775 469 1699 461 1638 385C1651 549 1730 630 1822 630C1860 630 1892 623 1927 609ZM1639 223C1639 237 1639 239 1640 251C1640 326 1685 407 1768 407C1816 407 1844 382 1864 344C1885 307 1887 271 1887 226C1887 191 1887 144 1863 103C1846 74 1820 40 1763 40C1657 40 1642 189 1639 223ZM2468 331C2468 412 2464 506 2422 588C2381 665 2312 689 2261 689C2202 689 2132 662 2091 571C2058 497 2053 413 2053 331C2053 251 2057 177 2087 103C2127 5 2203 -22 2260 -22C2333 -22 2396 19 2428 89C2458 155 2468 223 2468 331ZM2261 40C2209 40 2168 78 2148 151C2132 209 2131 264 2131 343C2131 407 2131 468 2148 524C2154 544 2179 627 2260 627C2338 627 2364 550 2371 531C2390 475 2390 406 2390 343C2390 276 2390 212 2372 148C2346 56 2293 40 2261 40Z" stroke="rgb(0,0,0)" stroke-opacity="1" stroke-width="8" fill="rgb(0,0,0)" fill-opacity="1"></path></g></g><g><g transform="matrix(1,0,0,1,76.359375,156.125)"><path transform="matrix(0.017,0,0,-0.017,0,0)" d="M604 347L604 406L65 406L65 347ZM604 134L604 193L65 193L65 134Z" stroke="rgb(0,0,0)" stroke-opacity="1" stroke-width="8" fill="rgb(0,0,0)" fill-opacity="1"></path></g></g><g><g transform="matrix(1,0,0,1,92.8125,156.125)"><path transform="matrix(0.017,0,0,-0.017,0,0)" d="" stroke="rgb(0,0,0)" stroke-opacity="1" stroke-width="8" fill="rgb(0,0,0)" fill-opacity="1"></path></g></g><g><g><g><g><g><g><g><g transform="matrix(1,0,0,1,115.734375,143.734375)"><path transform="matrix(0.017,0,0,-0.017,0,0)" d="M92 522C121 593 186 630 247 630C299 630 348 600 348 535C348 473 307 413 246 398C240 397 238 397 167 391L167 329L238 329C346 329 368 235 368 184C368 105 322 40 245 40C176 40 97 75 53 144L42 83C115 -12 207 -22 247 -22C369 -22 457 76 457 183C457 275 387 338 319 360C395 401 430 471 430 535C430 622 347 689 248 689C171 689 98 648 56 577Z" stroke="rgb(0,0,0)" stroke-opacity="1" stroke-width="8" fill="rgb(0,0,0)" fill-opacity="1"></path></g></g></g></g><svg x="98.734375" overflow="visible" y="124.734375" height="17" width="25.5"><polygon points="0.35,10.28 4.79,7.91 9.66,18.23 16.36,0.00 25.50,0.00 25.50,1.05 17.09,1.05 9.18,22.58 3.10,9.84 0.64,10.76" style="fill:rgb(0,0,0);fill-opacity:1;stroke-width:1px;stroke:none;stroke-opacity:1;"></polygon></svg></g></g></g><g><g><g><g transform="matrix(1,0,0,1,107.234375,169.515625)"><path transform="matrix(0.017,0,0,-0.017,0,0)" d="M83 466C103 545 131 624 222 624C316 624 367 548 367 468C367 382 310 324 251 263L174 191L50 65L50 0L449 0L449 72L267 72C255 72 243 71 231 71L122 71C154 100 230 176 261 205C333 274 449 347 449 471C449 587 368 689 236 689C122 689 66 610 42 522C66 487 59 501 83 466Z" stroke="rgb(0,0,0)" stroke-opacity="1" stroke-width="8" fill="rgb(0,0,0)" fill-opacity="1"></path></g></g></g></g><line style="fill:none;stroke-width:1px;stroke:rgb(0, 0, 0);" x1="98.734375" y1="151.875" x2="124.234375" y2="151.875"></line></g><g><g transform="matrix(1,0,0,1,125.921875,156.125)"><path transform="matrix(0.017,0,0,-0.017,0,0)" d="M1324 681C1261 705 1207 716 1141 716C949 716 814 543 814 347C814 154 947 -22 1142 -22C1225 -22 1264 -9 1335 34L1329 103C1257 52 1212 42 1143 42C992 42 903 194 903 347C903 510 1001 652 1140 652C1219 652 1267 627 1309 600ZM1853 220C1853 354 1753 461 1634 461C1511 461 1414 351 1414 220C1414 88 1516 -11 1633 -11C1753 -11 1853 90 1853 220ZM1633 53C1564 53 1492 109 1492 230C1492 351 1568 400 1633 400C1703 400 1775 348 1775 230C1775 112 1707 53 1633 53ZM2243 128C2243 183 2206 217 2204 220C2165 255 2138 261 2088 270C2033 281 1987 291 1987 340C1987 402 2059 402 2072 402C2104 402 2157 398 2214 364L2226 429C2174 453 2133 461 2082 461C2057 461 1916 461 1916 330C1916 281 1945 249 1970 230C2001 208 2023 204 2078 193C2114 186 2172 174 2172 121C2172 52 2093 52 2078 52C1997 52 1941 89 1923 101L1911 33C1943 17 1998 -11 2079 -11C2217 -11 2243 75 2243 128ZM2680 669C2629 689 2588 689 2574 689C2433 689 2307 546 2307 327C2307 40 2431 -22 2516 -22C2576 -22 2619 1 2658 47C2703 99 2722 145 2722 226C2722 356 2656 469 2560 469C2528 469 2452 461 2391 385C2404 549 2483 630 2575 630C2613 630 2645 623 2680 609ZM2392 223C2392 237 2392 239 2393 251C2393 326 2438 407 2521 407C2569 407 2597 382 2617 344C2638 307 2640 271 2640 226C2640 191 2640 144 2616 103C2599 74 2573 40 2516 40C2410 40 2395 189 2392 223ZM3221 331C3221 412 3217 506 3175 588C3134 665 3065 689 3014 689C2955 689 2885 662 2844 571C2811 497 2806 413 2806 331C2806 251 2810 177 2840 103C2880 5 2956 -22 3013 -22C3086 -22 3149 19 3181 89C3211 155 3221 223 3221 331ZM3014 40C2962 40 2921 78 2901 151C2885 209 2884 264 2884 343C2884 407 2884 468 2901 524C2907 544 2932 627 3013 627C3091 627 3117 550 3124 531C3143 475 3143 406 3143 343C3143 276 3143 212 3125 148C3099 56 3046 40 3014 40Z" stroke="rgb(0,0,0)" stroke-opacity="1" stroke-width="8" fill="rgb(0,0,0)" fill-opacity="1"></path></g></g><g><g transform="matrix(1,0,0,1,190.734375,156.125)"><path transform="matrix(0.017,0,0,-0.017,0,0)" d="M604 347L604 406L65 406L65 347ZM604 134L604 193L65 193L65 134Z" stroke="rgb(0,0,0)" stroke-opacity="1" stroke-width="8" fill="rgb(0,0,0)" fill-opacity="1"></path></g></g><g><g transform="matrix(1,0,0,1,207.1875,156.125)"><path transform="matrix(0.017,0,0,-0.017,0,0)" d="" stroke="rgb(0,0,0)" stroke-opacity="1" stroke-width="8" fill="rgb(0,0,0)" fill-opacity="1"></path></g></g><g><g><g><g><g transform="matrix(1,0,0,1,213.109375,143.734375)"><path transform="matrix(0.017,0,0,-0.017,0,0)" d="M299 689L279 689C220 627 137 624 89 622L89 563C122 564 170 566 220 587L220 59L95 59L95 0L424 0L424 59L299 59Z" stroke="rgb(0,0,0)" stroke-opacity="1" stroke-width="8" fill="rgb(0,0,0)" fill-opacity="1"></path></g></g></g></g><g><g><g><g transform="matrix(1,0,0,1,213.109375,169.515625)"><path transform="matrix(0.017,0,0,-0.017,0,0)" d="M83 466C103 545 131 624 222 624C316 624 367 548 367 468C367 382 310 324 251 263L174 191L50 65L50 0L449 0L449 72L267 72C255 72 243 71 231 71L122 71C154 100 230 176 261 205C333 274 449 347 449 471C449 587 368 689 236 689C122 689 66 610 42 522C66 487 59 501 83 466Z" stroke="rgb(0,0,0)" stroke-opacity="1" stroke-width="8" fill="rgb(0,0,0)" fill-opacity="1"></path></g></g></g></g><line style="fill:none;stroke-width:1px;stroke:rgb(0, 0, 0);" x1="213.109375" y1="151.875" x2="221.59375" y2="151.875"></line></g><g><g transform="matrix(1,0,0,1,223.28125,156.125)"><path transform="matrix(0.017,0,0,-0.017,0,0)" d="M1132 624L1221 624C1233 624 1245 623 1257 623L1391 623L1391 688L783 688L783 623L917 623C929 623 941 624 953 624L1043 624L1043 0L1132 0ZM1825 289C1825 391 1752 461 1660 461C1595 461 1550 445 1503 418L1509 352C1561 389 1611 402 1660 402C1707 402 1747 362 1747 288L1747 245C1597 243 1470 201 1470 113C1470 70 1497 -11 1584 -11C1598 -11 1692 -9 1750 36L1750 0L1825 0ZM1747 132C1747 113 1747 88 1713 69C1684 51 1646 50 1635 50C1587 50 1542 73 1542 115C1542 185 1704 192 1747 194ZM2340 298C2340 364 2325 455 2203 455C2113 455 2064 387 2058 379L2058 450L1986 450L1986 0L2064 0L2064 245C2064 311 2089 394 2165 394C2261 394 2262 323 2262 291L2262 0L2340 0ZM2835 669C2784 689 2743 689 2729 689C2588 689 2462 546 2462 327C2462 40 2586 -22 2671 -22C2731 -22 2774 1 2813 47C2858 99 2877 145 2877 226C2877 356 2811 469 2715 469C2683 469 2607 461 2546 385C2559 549 2638 630 2730 630C2768 630 2800 623 2835 609ZM2547 223C2547 237 2547 239 2548 251C2548 326 2593 407 2676 407C2724 407 2752 382 2772 344C2793 307 2795 271 2795 226C2795 191 2795 144 2771 103C2754 74 2728 40 2671 40C2565 40 2550 189 2547 223ZM3376 331C3376 412 3372 506 3330 588C3289 665 3220 689 3169 689C3110 689 3040 662 2999 571C2966 497 2961 413 2961 331C2961 251 2965 177 2995 103C3035 5 3111 -22 3168 -22C3241 -22 3304 19 3336 89C3366 155 3376 223 3376 331ZM3169 40C3117 40 3076 78 3056 151C3040 209 3039 264 3039 343C3039 407 3039 468 3056 524C3062 544 3087 627 3168 627C3246 627 3272 550 3279 531C3298 475 3298 406 3298 343C3298 276 3298 212 3280 148C3254 56 3201 40 3169 40Z" stroke="rgb(0,0,0)" stroke-opacity="1" stroke-width="8" fill="rgb(0,0,0)" fill-opacity="1"></path></g></g><g><g transform="matrix(1,0,0,1,286.484375,156.125)"><path transform="matrix(0.017,0,0,-0.017,0,0)" d="M604 347L604 406L65 406L65 347ZM604 134L604 193L65 193L65 134Z" stroke="rgb(0,0,0)" stroke-opacity="1" stroke-width="8" fill="rgb(0,0,0)" fill-opacity="1"></path></g></g><g><g transform="matrix(1,0,0,1,302.9375,156.125)"><path transform="matrix(0.017,0,0,-0.017,0,0)" d="" stroke="rgb(0,0,0)" stroke-opacity="1" stroke-width="8" fill="rgb(0,0,0)" fill-opacity="1"></path></g></g><g><g><g><g><g transform="matrix(1,0,0,1,324.171875,156.125)"><path transform="matrix(0.017,0,0,-0.017,0,0)" d="M92 522C121 593 186 630 247 630C299 630 348 600 348 535C348 473 307 413 246 398C240 397 238 397 167 391L167 329L238 329C346 329 368 235 368 184C368 105 322 40 245 40C176 40 97 75 53 144L42 83C115 -12 207 -22 247 -22C369 -22 457 76 457 183C457 275 387 338 319 360C395 401 430 471 430 535C430 622 347 689 248 689C171 689 98 648 56 577Z" stroke="rgb(0,0,0)" stroke-opacity="1" stroke-width="8" fill="rgb(0,0,0)" fill-opacity="1"></path></g></g></g></g><svg x="307.171875" overflow="visible" y="137.125" height="17" width="25.5"><polygon points="0.35,10.28 4.79,7.91 9.66,18.23 16.36,0.00 25.50,0.00 25.50,1.05 17.09,1.05 9.18,22.58 3.10,9.84 0.64,10.76" style="fill:rgb(0,0,0);fill-opacity:1;stroke-width:1px;stroke:none;stroke-opacity:1;"></polygon></svg></g></g><g><g><g transform="matrix(1,0,0,1,2,205.296875)"><path transform="matrix(0.017,0,0,-0.017,0,0)" d="M1822 681C1759 705 1705 716 1639 716C1447 716 1312 543 1312 347C1312 154 1445 -22 1640 -22C1723 -22 1762 -9 1833 34L1827 103C1755 52 1710 42 1641 42C1490 42 1401 194 1401 347C1401 510 1499 652 1638 652C1717 652 1765 627 1807 600ZM2351 220C2351 354 2251 461 2132 461C2009 461 1912 351 1912 220C1912 88 2014 -11 2131 -11C2251 -11 2351 90 2351 220ZM2131 53C2062 53 1990 109 1990 230C1990 351 2066 400 2131 400C2201 400 2273 348 2273 230C2273 112 2205 53 2131 53ZM2556 386L2697 386L2697 444L2556 444L2556 571L2487 571L2487 444L2400 444L2400 386L2484 386L2484 119C2484 59 2498 -11 2567 -11C2637 -11 2688 14 2713 27L2697 86C2671 65 2639 53 2607 53C2570 53 2556 83 2556 136ZM3156 669C3105 689 3064 689 3050 689C2909 689 2783 546 2783 327C2783 40 2907 -22 2992 -22C3052 -22 3095 1 3134 47C3179 99 3198 145 3198 226C3198 356 3132 469 3036 469C3004 469 2928 461 2867 385C2880 549 2959 630 3051 630C3089 630 3121 623 3156 609ZM2868 223C2868 237 2868 239 2869 251C2869 326 2914 407 2997 407C3045 407 3073 382 3093 344C3114 307 3116 271 3116 226C3116 191 3116 144 3092 103C3075 74 3049 40 2992 40C2886 40 2871 189 2868 223ZM3697 331C3697 412 3693 506 3651 588C3610 665 3541 689 3490 689C3431 689 3361 662 3320 571C3287 497 3282 413 3282 331C3282 251 3286 177 3316 103C3356 5 3432 -22 3489 -22C3562 -22 3625 19 3657 89C3687 155 3697 223 3697 331ZM3490 40C3438 40 3397 78 3377 151C3361 209 3360 264 3360 343C3360 407 3360 468 3377 524C3383 544 3408 627 3489 627C3567 627 3593 550 3600 531C3619 475 3619 406 3619 343C3619 276 3619 212 3601 148C3575 56 3522 40 3490 40Z" stroke="rgb(0,0,0)" stroke-opacity="1" stroke-width="8" fill="rgb(0,0,0)" fill-opacity="1"></path></g></g><g><g transform="matrix(1,0,0,1,74.890625,205.296875)"><path transform="matrix(0.017,0,0,-0.017,0,0)" d="M604 347L604 406L65 406L65 347ZM604 134L604 193L65 193L65 134Z" stroke="rgb(0,0,0)" stroke-opacity="1" stroke-width="8" fill="rgb(0,0,0)" fill-opacity="1"></path></g></g><g><g transform="matrix(1,0,0,1,91.34375,205.296875)"><path transform="matrix(0.017,0,0,-0.017,0,0)" d="" stroke="rgb(0,0,0)" stroke-opacity="1" stroke-width="8" fill="rgb(0,0,0)" fill-opacity="1"></path></g></g><g><g><g><g><g><g><g><g transform="matrix(1,0,0,1,114.265625,192.90625)"><path transform="matrix(0.017,0,0,-0.017,0,0)" d="M92 522C121 593 186 630 247 630C299 630 348 600 348 535C348 473 307 413 246 398C240 397 238 397 167 391L167 329L238 329C346 329 368 235 368 184C368 105 322 40 245 40C176 40 97 75 53 144L42 83C115 -12 207 -22 247 -22C369 -22 457 76 457 183C457 275 387 338 319 360C395 401 430 471 430 535C430 622 347 689 248 689C171 689 98 648 56 577Z" stroke="rgb(0,0,0)" stroke-opacity="1" stroke-width="8" fill="rgb(0,0,0)" fill-opacity="1"></path></g></g></g></g><svg x="97.265625" overflow="visible" y="173.90625" height="17" width="25.5"><polygon points="0.35,10.28 4.79,7.91 9.66,18.23 16.36,0.00 25.50,0.00 25.50,1.05 17.09,1.05 9.18,22.58 3.10,9.84 0.64,10.76" style="fill:rgb(0,0,0);fill-opacity:1;stroke-width:1px;stroke:none;stroke-opacity:1;"></polygon></svg></g></g></g><g><g><g><g transform="matrix(1,0,0,1,105.765625,218.6875)"><path transform="matrix(0.017,0,0,-0.017,0,0)" d="M92 522C121 593 186 630 247 630C299 630 348 600 348 535C348 473 307 413 246 398C240 397 238 397 167 391L167 329L238 329C346 329 368 235 368 184C368 105 322 40 245 40C176 40 97 75 53 144L42 83C115 -12 207 -22 247 -22C369 -22 457 76 457 183C457 275 387 338 319 360C395 401 430 471 430 535C430 622 347 689 248 689C171 689 98 648 56 577Z" stroke="rgb(0,0,0)" stroke-opacity="1" stroke-width="8" fill="rgb(0,0,0)" fill-opacity="1"></path></g></g></g></g><line style="fill:none;stroke-width:1px;stroke:rgb(0, 0, 0);" x1="97.265625" y1="201.046875" x2="122.765625" y2="201.046875"></line></g><g><g transform="matrix(1,0,0,1,124.453125,205.296875)"><path transform="matrix(0.017,0,0,-0.017,0,0)" d="M1212 666C1157 699 1102 716 1029 716C890 716 803 618 803 519C803 476 817 434 857 392C899 347 943 335 1002 321C1087 300 1097 297 1125 272C1145 255 1167 222 1167 179C1167 113 1112 47 1021 47C980 47 890 57 806 128L791 47C879 -8 959 -22 1022 -22C1154 -22 1246 79 1246 189C1246 254 1215 302 1193 326C1146 376 1113 385 1021 408C1003 412 882 429 882 531C882 590 936 650 1028 650C1112 650 1160 617 1197 586ZM1715 219C1715 421 1608 461 1537 461C1426 461 1336 355 1336 226C1336 94 1432 -11 1552 -11C1615 -11 1672 13 1711 41L1705 106C1642 54 1576 50 1553 50C1473 50 1409 121 1406 219ZM1411 274C1427 350 1480 400 1537 400C1589 400 1645 366 1658 274ZM2154 418C2095 452 2061 461 2000 461C1861 461 1780 340 1780 222C1780 98 1871 -11 1996 -11C2050 -11 2105 3 2159 40L2153 107C2102 67 2048 53 1997 53C1914 53 1858 125 1858 223C1858 301 1895 397 2001 397C2053 397 2087 389 2142 353ZM2602 669C2551 689 2510 689 2496 689C2355 689 2229 546 2229 327C2229 40 2353 -22 2438 -22C2498 -22 2541 1 2580 47C2625 99 2644 145 2644 226C2644 356 2578 469 2482 469C2450 469 2374 461 2313 385C2326 549 2405 630 2497 630C2535 630 2567 623 2602 609ZM2314 223C2314 237 2314 239 2315 251C2315 326 2360 407 2443 407C2491 407 2519 382 2539 344C2560 307 2562 271 2562 226C2562 191 2562 144 2538 103C2521 74 2495 40 2438 40C2332 40 2317 189 2314 223ZM3143 331C3143 412 3139 506 3097 588C3056 665 2987 689 2936 689C2877 689 2807 662 2766 571C2733 497 2728 413 2728 331C2728 251 2732 177 2762 103C2802 5 2878 -22 2935 -22C3008 -22 3071 19 3103 89C3133 155 3143 223 3143 331ZM2936 40C2884 40 2843 78 2823 151C2807 209 2806 264 2806 343C2806 407 2806 468 2823 524C2829 544 2854 627 2935 627C3013 627 3039 550 3046 531C3065 475 3065 406 3065 343C3065 276 3065 212 3047 148C3021 56 2968 40 2936 40Z" stroke="rgb(0,0,0)" stroke-opacity="1" stroke-width="8" fill="rgb(0,0,0)" fill-opacity="1"></path></g></g><g><g transform="matrix(1,0,0,1,187.9375,205.296875)"><path transform="matrix(0.017,0,0,-0.017,0,0)" d="M604 347L604 406L65 406L65 347ZM604 134L604 193L65 193L65 134Z" stroke="rgb(0,0,0)" stroke-opacity="1" stroke-width="8" fill="rgb(0,0,0)" fill-opacity="1"></path></g></g><g><g transform="matrix(1,0,0,1,204.390625,205.296875)"><path transform="matrix(0.017,0,0,-0.017,0,0)" d="M332 466C352 545 380 624 471 624C565 624 616 548 616 468C616 382 559 324 500 263L423 191L299 65L299 0L698 0L698 72L516 72C504 72 492 71 480 71L371 71C403 100 479 176 510 205C582 274 698 347 698 471C698 587 617 689 485 689C371 689 315 610 291 522C315 487 308 501 332 466ZM2072 681C2009 705 1955 716 1889 716C1697 716 1562 543 1562 347C1562 154 1695 -22 1890 -22C1973 -22 2012 -9 2083 34L2077 103C2005 52 1960 42 1891 42C1740 42 1651 194 1651 347C1651 510 1749 652 1888 652C1967 652 2015 627 2057 600ZM2601 220C2601 354 2501 461 2382 461C2259 461 2162 351 2162 220C2162 88 2264 -11 2381 -11C2501 -11 2601 90 2601 220ZM2381 53C2312 53 2240 109 2240 230C2240 351 2316 400 2381 400C2451 400 2523 348 2523 230C2523 112 2455 53 2381 53ZM2991 128C2991 183 2954 217 2952 220C2913 255 2886 261 2836 270C2781 281 2735 291 2735 340C2735 402 2807 402 2820 402C2852 402 2905 398 2962 364L2974 429C2922 453 2881 461 2830 461C2805 461 2664 461 2664 330C2664 281 2693 249 2718 230C2749 208 2771 204 2826 193C2862 186 2920 174 2920 121C2920 52 2841 52 2826 52C2745 52 2689 89 2671 101L2659 33C2691 17 2746 -11 2827 -11C2965 -11 2991 75 2991 128ZM3427 219C3427 421 3320 461 3249 461C3138 461 3048 355 3048 226C3048 94 3144 -11 3264 -11C3327 -11 3384 13 3423 41L3417 106C3354 54 3288 50 3265 50C3185 50 3121 121 3118 219ZM3123 274C3139 350 3192 400 3249 400C3301 400 3357 366 3370 274ZM3866 418C3807 452 3773 461 3712 461C3573 461 3492 340 3492 222C3492 98 3583 -11 3708 -11C3762 -11 3817 3 3871 40L3865 107C3814 67 3760 53 3709 53C3626 53 3570 125 3570 223C3570 301 3607 397 3713 397C3765 397 3799 389 3854 353ZM4314 669C4263 689 4222 689 4208 689C4067 689 3941 546 3941 327C3941 40 4065 -22 4150 -22C4210 -22 4253 1 4292 47C4337 99 4356 145 4356 226C4356 356 4290 469 4194 469C4162 469 4086 461 4025 385C4038 549 4117 630 4209 630C4247 630 4279 623 4314 609ZM4026 223C4026 237 4026 239 4027 251C4027 326 4072 407 4155 407C4203 407 4231 382 4251 344C4272 307 4274 271 4274 226C4274 191 4274 144 4250 103C4233 74 4207 40 4150 40C4044 40 4029 189 4026 223ZM4855 331C4855 412 4851 506 4809 588C4768 665 4699 689 4648 689C4589 689 4519 662 4478 571C4445 497 4440 413 4440 331C4440 251 4444 177 4474 103C4514 5 4590 -22 4647 -22C4720 -22 4783 19 4815 89C4845 155 4855 223 4855 331ZM4648 40C4596 40 4555 78 4535 151C4519 209 4518 264 4518 343C4518 407 4518 468 4535 524C4541 544 4566 627 4647 627C4725 627 4751 550 4758 531C4777 475 4777 406 4777 343C4777 276 4777 212 4759 148C4733 56 4680 40 4648 40Z" stroke="rgb(0,0,0)" stroke-opacity="1" stroke-width="8" fill="rgb(0,0,0)" fill-opacity="1"></path></g></g><g><g transform="matrix(1,0,0,1,296.96875,205.296875)"><path transform="matrix(0.017,0,0,-0.017,0,0)" d="M604 347L604 406L65 406L65 347ZM604 134L604 193L65 193L65 134Z" stroke="rgb(0,0,0)" stroke-opacity="1" stroke-width="8" fill="rgb(0,0,0)" fill-opacity="1"></path></g></g><g><g transform="matrix(1,0,0,1,313.421875,205.296875)"><path transform="matrix(0.017,0,0,-0.017,0,0)" d="" stroke="rgb(0,0,0)" stroke-opacity="1" stroke-width="8" fill="rgb(0,0,0)" fill-opacity="1"></path></g></g><g><g><g><g><g transform="matrix(1,0,0,1,319.34375,192.90625)"><path transform="matrix(0.017,0,0,-0.017,0,0)" d="M83 466C103 545 131 624 222 624C316 624 367 548 367 468C367 382 310 324 251 263L174 191L50 65L50 0L449 0L449 72L267 72C255 72 243 71 231 71L122 71C154 100 230 176 261 205C333 274 449 347 449 471C449 587 368 689 236 689C122 689 66 610 42 522C66 487 59 501 83 466Z" stroke="rgb(0,0,0)" stroke-opacity="1" stroke-width="8" fill="rgb(0,0,0)" fill-opacity="1"></path></g></g><g><g><g><g><g transform="matrix(1,0,0,1,344.828125,192.90625)"><path transform="matrix(0.017,0,0,-0.017,0,0)" d="M92 522C121 593 186 630 247 630C299 630 348 600 348 535C348 473 307 413 246 398C240 397 238 397 167 391L167 329L238 329C346 329 368 235 368 184C368 105 322 40 245 40C176 40 97 75 53 144L42 83C115 -12 207 -22 247 -22C369 -22 457 76 457 183C457 275 387 338 319 360C395 401 430 471 430 535C430 622 347 689 248 689C171 689 98 648 56 577Z" stroke="rgb(0,0,0)" stroke-opacity="1" stroke-width="8" fill="rgb(0,0,0)" fill-opacity="1"></path></g></g></g></g><svg x="327.828125" overflow="visible" y="173.90625" height="17" width="25.5"><polygon points="0.35,10.28 4.79,7.91 9.66,18.23 16.36,0.00 25.50,0.00 25.50,1.05 17.09,1.05 9.18,22.58 3.10,9.84 0.64,10.76" style="fill:rgb(0,0,0);fill-opacity:1;stroke-width:1px;stroke:none;stroke-opacity:1;"></polygon></svg></g></g></g><g><g><g><g transform="matrix(1,0,0,1,332.09375,218.6875)"><path transform="matrix(0.017,0,0,-0.017,0,0)" d="M92 522C121 593 186 630 247 630C299 630 348 600 348 535C348 473 307 413 246 398C240 397 238 397 167 391L167 329L238 329C346 329 368 235 368 184C368 105 322 40 245 40C176 40 97 75 53 144L42 83C115 -12 207 -22 247 -22C369 -22 457 76 457 183C457 275 387 338 319 360C395 401 430 471 430 535C430 622 347 689 248 689C171 689 98 648 56 577Z" stroke="rgb(0,0,0)" stroke-opacity="1" stroke-width="8" fill="rgb(0,0,0)" fill-opacity="1"></path></g></g></g></g><line style="fill:none;stroke-width:1px;stroke:rgb(0, 0, 0);" x1="319.34375" y1="201.046875" x2="353.328125" y2="201.046875"></line></g></g><g></g><g><g><g transform="matrix(1,0,0,1,22.234375,274.859375)"><path transform="matrix(0.017,0,0,-0.017,0,0)" d="M465 666C410 699 355 716 282 716C143 716 56 618 56 519C56 476 70 434 110 392C152 347 196 335 255 321C340 300 350 297 378 272C398 255 420 222 420 179C420 113 365 47 274 47C233 47 143 57 59 128L44 47C132 -8 212 -22 275 -22C407 -22 499 79 499 189C499 254 468 302 446 326C399 376 366 385 274 408C256 412 135 429 135 531C135 590 189 650 281 650C365 650 413 617 450 586ZM968 219C968 421 861 461 790 461C679 461 589 355 589 226C589 94 685 -11 805 -11C868 -11 925 13 964 41L958 106C895 54 829 50 806 50C726 50 662 121 659 219ZM664 274C680 350 733 400 790 400C842 400 898 366 911 274ZM1432 298C1432 364 1417 455 1295 455C1205 455 1156 387 1150 379L1150 450L1078 450L1078 0L1156 0L1156 245C1156 311 1181 394 1257 394C1353 394 1354 323 1354 291L1354 0L1432 0ZM1884 174L1983 174L1983 236L1884 236L1884 667L1793 667L1540 236L1540 174L1805 174L1805 0L1884 0ZM1618 236C1670 323 1811 564 1811 622L1811 236ZM2164 602L2427 602L2427 667L2092 667L2092 292L2158 292C2175 332 2212 372 2270 372C2317 372 2371 330 2371 208C2371 40 2249 40 2240 40C2173 40 2112 79 2083 134L2050 77C2091 19 2160 -22 2241 -22C2360 -22 2460 78 2460 206C2460 333 2374 434 2271 434C2231 434 2193 419 2164 392Z" stroke="rgb(0,0,0)" stroke-opacity="1" stroke-width="8" fill="rgb(0,0,0)" fill-opacity="1"></path></g></g><g><g transform="matrix(1,0,0,1,74.234375,274.859375)"><path transform="matrix(0.017,0,0,-0.017,0,0)" d="M604 347L604 406L65 406L65 347ZM604 134L604 193L65 193L65 134Z" stroke="rgb(0,0,0)" stroke-opacity="1" stroke-width="8" fill="rgb(0,0,0)" fill-opacity="1"></path></g></g><g><g transform="matrix(1,0,0,1,90.6875,274.859375)"><path transform="matrix(0.017,0,0,-0.017,0,0)" d="" stroke="rgb(0,0,0)" stroke-opacity="1" stroke-width="8" fill="rgb(0,0,0)" fill-opacity="1"></path></g></g><g><g><g><g><g><g><g><g transform="matrix(1,0,0,1,113.609375,262.46875)"><path transform="matrix(0.017,0,0,-0.017,0,0)" d="M83 466C103 545 131 624 222 624C316 624 367 548 367 468C367 382 310 324 251 263L174 191L50 65L50 0L449 0L449 72L267 72C255 72 243 71 231 71L122 71C154 100 230 176 261 205C333 274 449 347 449 471C449 587 368 689 236 689C122 689 66 610 42 522C66 487 59 501 83 466Z" stroke="rgb(0,0,0)" stroke-opacity="1" stroke-width="8" fill="rgb(0,0,0)" fill-opacity="1"></path></g></g></g></g><svg x="96.609375" overflow="visible" y="243.46875" height="17" width="25.5"><polygon points="0.35,10.28 4.79,7.91 9.66,18.23 16.36,0.00 25.50,0.00 25.50,1.05 17.09,1.05 9.18,22.58 3.10,9.84 0.64,10.76" style="fill:rgb(0,0,0);fill-opacity:1;stroke-width:1px;stroke:none;stroke-opacity:1;"></polygon></svg></g></g></g><g><g><g><g transform="matrix(1,0,0,1,105.109375,288.25)"><path transform="matrix(0.017,0,0,-0.017,0,0)" d="M83 466C103 545 131 624 222 624C316 624 367 548 367 468C367 382 310 324 251 263L174 191L50 65L50 0L449 0L449 72L267 72C255 72 243 71 231 71L122 71C154 100 230 176 261 205C333 274 449 347 449 471C449 587 368 689 236 689C122 689 66 610 42 522C66 487 59 501 83 466Z" stroke="rgb(0,0,0)" stroke-opacity="1" stroke-width="8" fill="rgb(0,0,0)" fill-opacity="1"></path></g></g></g></g><line style="fill:none;stroke-width:1px;stroke:rgb(0, 0, 0);" x1="96.609375" y1="270.609375" x2="122.109375" y2="270.609375"></line></g><g><g transform="matrix(1,0,0,1,123.796875,274.859375)"><path transform="matrix(0.017,0,0,-0.017,0,0)" d="M1324 681C1261 705 1207 716 1141 716C949 716 814 543 814 347C814 154 947 -22 1142 -22C1225 -22 1264 -9 1335 34L1329 103C1257 52 1212 42 1143 42C992 42 903 194 903 347C903 510 1001 652 1140 652C1219 652 1267 627 1309 600ZM1853 220C1853 354 1753 461 1634 461C1511 461 1414 351 1414 220C1414 88 1516 -11 1633 -11C1753 -11 1853 90 1853 220ZM1633 53C1564 53 1492 109 1492 230C1492 351 1568 400 1633 400C1703 400 1775 348 1775 230C1775 112 1707 53 1633 53ZM2243 128C2243 183 2206 217 2204 220C2165 255 2138 261 2088 270C2033 281 1987 291 1987 340C1987 402 2059 402 2072 402C2104 402 2157 398 2214 364L2226 429C2174 453 2133 461 2082 461C2057 461 1916 461 1916 330C1916 281 1945 249 1970 230C2001 208 2023 204 2078 193C2114 186 2172 174 2172 121C2172 52 2093 52 2078 52C1997 52 1941 89 1923 101L1911 33C1943 17 1998 -11 2079 -11C2217 -11 2243 75 2243 128ZM2637 174L2736 174L2736 236L2637 236L2637 667L2546 667L2293 236L2293 174L2558 174L2558 0L2637 0ZM2371 236C2423 323 2564 564 2564 622L2564 236ZM2917 602L3180 602L3180 667L2845 667L2845 292L2911 292C2928 332 2965 372 3023 372C3070 372 3124 330 3124 208C3124 40 3002 40 2993 40C2926 40 2865 79 2836 134L2803 77C2844 19 2913 -22 2994 -22C3113 -22 3213 78 3213 206C3213 333 3127 434 3024 434C2984 434 2946 419 2917 392Z" stroke="rgb(0,0,0)" stroke-opacity="1" stroke-width="8" fill="rgb(0,0,0)" fill-opacity="1"></path></g></g><g><g transform="matrix(1,0,0,1,188.609375,274.859375)"><path transform="matrix(0.017,0,0,-0.017,0,0)" d="M604 347L604 406L65 406L65 347ZM604 134L604 193L65 193L65 134Z" stroke="rgb(0,0,0)" stroke-opacity="1" stroke-width="8" fill="rgb(0,0,0)" fill-opacity="1"></path></g></g><g><g transform="matrix(1,0,0,1,205.0625,274.859375)"><path transform="matrix(0.017,0,0,-0.017,0,0)" d="" stroke="rgb(0,0,0)" stroke-opacity="1" stroke-width="8" fill="rgb(0,0,0)" fill-opacity="1"></path></g></g><g><g><g><g><g><g><g><g transform="matrix(1,0,0,1,227.984375,262.46875)"><path transform="matrix(0.017,0,0,-0.017,0,0)" d="M83 466C103 545 131 624 222 624C316 624 367 548 367 468C367 382 310 324 251 263L174 191L50 65L50 0L449 0L449 72L267 72C255 72 243 71 231 71L122 71C154 100 230 176 261 205C333 274 449 347 449 471C449 587 368 689 236 689C122 689 66 610 42 522C66 487 59 501 83 466Z" stroke="rgb(0,0,0)" stroke-opacity="1" stroke-width="8" fill="rgb(0,0,0)" fill-opacity="1"></path></g></g></g></g><svg x="210.984375" overflow="visible" y="243.46875" height="17" width="25.5"><polygon points="0.35,10.28 4.79,7.91 9.66,18.23 16.36,0.00 25.50,0.00 25.50,1.05 17.09,1.05 9.18,22.58 3.10,9.84 0.64,10.76" style="fill:rgb(0,0,0);fill-opacity:1;stroke-width:1px;stroke:none;stroke-opacity:1;"></polygon></svg></g></g></g><g><g><g><g transform="matrix(1,0,0,1,219.484375,288.25)"><path transform="matrix(0.017,0,0,-0.017,0,0)" d="M83 466C103 545 131 624 222 624C316 624 367 548 367 468C367 382 310 324 251 263L174 191L50 65L50 0L449 0L449 72L267 72C255 72 243 71 231 71L122 71C154 100 230 176 261 205C333 274 449 347 449 471C449 587 368 689 236 689C122 689 66 610 42 522C66 487 59 501 83 466Z" stroke="rgb(0,0,0)" stroke-opacity="1" stroke-width="8" fill="rgb(0,0,0)" fill-opacity="1"></path></g></g></g></g><line style="fill:none;stroke-width:1px;stroke:rgb(0, 0, 0);" x1="210.984375" y1="270.609375" x2="236.484375" y2="270.609375"></line></g><g><g transform="matrix(1,0,0,1,238.171875,274.859375)"><path transform="matrix(0.017,0,0,-0.017,0,0)" d="M1132 624L1221 624C1233 624 1245 623 1257 623L1391 623L1391 688L783 688L783 623L917 623C929 623 941 624 953 624L1043 624L1043 0L1132 0ZM1825 289C1825 391 1752 461 1660 461C1595 461 1550 445 1503 418L1509 352C1561 389 1611 402 1660 402C1707 402 1747 362 1747 288L1747 245C1597 243 1470 201 1470 113C1470 70 1497 -11 1584 -11C1598 -11 1692 -9 1750 36L1750 0L1825 0ZM1747 132C1747 113 1747 88 1713 69C1684 51 1646 50 1635 50C1587 50 1542 73 1542 115C1542 185 1704 192 1747 194ZM2340 298C2340 364 2325 455 2203 455C2113 455 2064 387 2058 379L2058 450L1986 450L1986 0L2064 0L2064 245C2064 311 2089 394 2165 394C2261 394 2262 323 2262 291L2262 0L2340 0ZM2792 174L2891 174L2891 236L2792 236L2792 667L2701 667L2448 236L2448 174L2713 174L2713 0L2792 0ZM2526 236C2578 323 2719 564 2719 622L2719 236ZM3072 602L3335 602L3335 667L3000 667L3000 292L3066 292C3083 332 3120 372 3178 372C3225 372 3279 330 3279 208C3279 40 3157 40 3148 40C3081 40 3020 79 2991 134L2958 77C2999 19 3068 -22 3149 -22C3268 -22 3368 78 3368 206C3368 333 3282 434 3179 434C3139 434 3101 419 3072 392Z" stroke="rgb(0,0,0)" stroke-opacity="1" stroke-width="8" fill="rgb(0,0,0)" fill-opacity="1"></path></g></g><g><g transform="matrix(1,0,0,1,305.609375,274.859375)"><path transform="matrix(0.017,0,0,-0.017,0,0)" d="M604 347L604 406L65 406L65 347ZM604 134L604 193L65 193L65 134Z" stroke="rgb(0,0,0)" stroke-opacity="1" stroke-width="8" fill="rgb(0,0,0)" fill-opacity="1"></path></g></g><g><g transform="matrix(1,0,0,1,322.0625,274.859375)"><path transform="matrix(0.017,0,0,-0.017,0,0)" d="M548 689L528 689C469 627 386 624 338 622L338 563C371 564 419 566 469 587L469 59L344 59L344 0L673 0L673 59L548 59Z" stroke="rgb(0,0,0)" stroke-opacity="1" stroke-width="8" fill="rgb(0,0,0)" fill-opacity="1"></path></g></g></g><g><g><g transform="matrix(1,0,0,1,3.28125,311.640625)"><path transform="matrix(0.017,0,0,-0.017,0,0)" d="M1573 681C1510 705 1456 716 1390 716C1198 716 1063 543 1063 347C1063 154 1196 -22 1391 -22C1474 -22 1513 -9 1584 34L1578 103C1506 52 1461 42 1392 42C1241 42 1152 194 1152 347C1152 510 1250 652 1389 652C1468 652 1516 627 1558 600ZM2102 220C2102 354 2002 461 1883 461C1760 461 1663 351 1663 220C1663 88 1765 -11 1882 -11C2002 -11 2102 90 2102 220ZM1882 53C1813 53 1741 109 1741 230C1741 351 1817 400 1882 400C1952 400 2024 348 2024 230C2024 112 1956 53 1882 53ZM2307 386L2448 386L2448 444L2307 444L2307 571L2238 571L2238 444L2151 444L2151 386L2235 386L2235 119C2235 59 2249 -11 2318 -11C2388 -11 2439 14 2464 27L2448 86C2422 65 2390 53 2358 53C2321 53 2307 83 2307 136ZM2891 289C2891 391 2818 461 2726 461C2661 461 2616 445 2569 418L2575 352C2627 389 2677 402 2726 402C2773 402 2813 362 2813 288L2813 245C2663 243 2536 201 2536 113C2536 70 2563 -11 2650 -11C2664 -11 2758 -9 2816 36L2816 0L2891 0ZM2813 132C2813 113 2813 88 2779 69C2750 51 2712 50 2701 50C2653 50 2608 73 2608 115C2608 185 2770 192 2813 194ZM3406 298C3406 364 3391 455 3269 455C3179 455 3130 387 3124 379L3124 450L3052 450L3052 0L3130 0L3130 245C3130 311 3155 394 3231 394C3327 394 3328 323 3328 291L3328 0L3406 0ZM3858 174L3957 174L3957 236L3858 236L3858 667L3767 667L3514 236L3514 174L3779 174L3779 0L3858 0ZM3592 236C3644 323 3785 564 3785 622L3785 236ZM4138 602L4401 602L4401 667L4066 667L4066 292L4132 292C4149 332 4186 372 4244 372C4291 372 4345 330 4345 208C4345 40 4223 40 4214 40C4147 40 4086 79 4057 134L4024 77C4065 19 4134 -22 4215 -22C4334 -22 4434 78 4434 206C4434 333 4348 434 4245 434C4205 434 4167 419 4138 392Z" stroke="rgb(0,0,0)" stroke-opacity="1" stroke-width="8" fill="rgb(0,0,0)" fill-opacity="1"></path></g></g><g><g transform="matrix(1,0,0,1,88.84375,311.640625)"><path transform="matrix(0.017,0,0,-0.017,0,0)" d="M604 347L604 406L65 406L65 347ZM604 134L604 193L65 193L65 134Z" stroke="rgb(0,0,0)" stroke-opacity="1" stroke-width="8" fill="rgb(0,0,0)" fill-opacity="1"></path></g></g><g><g transform="matrix(1,0,0,1,105.296875,311.640625)"><path transform="matrix(0.017,0,0,-0.017,0,0)" d="M548 689L528 689C469 627 386 624 338 622L338 563C371 564 419 566 469 587L469 59L344 59L344 0L673 0L673 59L548 59ZM1960 666C1905 699 1850 716 1777 716C1638 716 1551 618 1551 519C1551 476 1565 434 1605 392C1647 347 1691 335 1750 321C1835 300 1845 297 1873 272C1893 255 1915 222 1915 179C1915 113 1860 47 1769 47C1728 47 1638 57 1554 128L1539 47C1627 -8 1707 -22 1770 -22C1902 -22 1994 79 1994 189C1994 254 1963 302 1941 326C1894 376 1861 385 1769 408C1751 412 1630 429 1630 531C1630 590 1684 650 1776 650C1860 650 1908 617 1945 586ZM2463 219C2463 421 2356 461 2285 461C2174 461 2084 355 2084 226C2084 94 2180 -11 2300 -11C2363 -11 2420 13 2459 41L2453 106C2390 54 2324 50 2301 50C2221 50 2157 121 2154 219ZM2159 274C2175 350 2228 400 2285 400C2337 400 2393 366 2406 274ZM2902 418C2843 452 2809 461 2748 461C2609 461 2528 340 2528 222C2528 98 2619 -11 2744 -11C2798 -11 2853 3 2907 40L2901 107C2850 67 2796 53 2745 53C2662 53 2606 125 2606 223C2606 301 2643 397 2749 397C2801 397 2835 389 2890 353ZM3307 174L3406 174L3406 236L3307 236L3307 667L3216 667L2963 236L2963 174L3228 174L3228 0L3307 0ZM3041 236C3093 323 3234 564 3234 622L3234 236ZM3587 602L3850 602L3850 667L3515 667L3515 292L3581 292C3598 332 3635 372 3693 372C3740 372 3794 330 3794 208C3794 40 3672 40 3663 40C3596 40 3535 79 3506 134L3473 77C3514 19 3583 -22 3664 -22C3783 -22 3883 78 3883 206C3883 333 3797 434 3694 434C3654 434 3616 419 3587 392Z" stroke="rgb(0,0,0)" stroke-opacity="1" stroke-width="8" fill="rgb(0,0,0)" fill-opacity="1"></path></g></g><g><g transform="matrix(1,0,0,1,181.5,311.640625)"><path transform="matrix(0.017,0,0,-0.017,0,0)" d="M604 347L604 406L65 406L65 347ZM604 134L604 193L65 193L65 134Z" stroke="rgb(0,0,0)" stroke-opacity="1" stroke-width="8" fill="rgb(0,0,0)" fill-opacity="1"></path></g></g><g><g transform="matrix(1,0,0,1,197.953125,311.640625)"><path transform="matrix(0.017,0,0,-0.017,0,0)" d="" stroke="rgb(0,0,0)" stroke-opacity="1" stroke-width="8" fill="rgb(0,0,0)" fill-opacity="1"></path></g></g><g><g><g><g><g transform="matrix(1,0,0,1,219.1875,311.640625)"><path transform="matrix(0.017,0,0,-0.017,0,0)" d="M83 466C103 545 131 624 222 624C316 624 367 548 367 468C367 382 310 324 251 263L174 191L50 65L50 0L449 0L449 72L267 72C255 72 243 71 231 71L122 71C154 100 230 176 261 205C333 274 449 347 449 471C449 587 368 689 236 689C122 689 66 610 42 522C66 487 59 501 83 466Z" stroke="rgb(0,0,0)" stroke-opacity="1" stroke-width="8" fill="rgb(0,0,0)" fill-opacity="1"></path></g></g></g></g><svg x="202.1875" overflow="visible" y="292.640625" height="17" width="25.5"><polygon points="0.35,10.28 4.79,7.91 9.66,18.23 16.36,0.00 25.50,0.00 25.50,1.05 17.09,1.05 9.18,22.58 3.10,9.84 0.64,10.76" style="fill:rgb(0,0,0);fill-opacity:1;stroke-width:1px;stroke:none;stroke-opacity:1;"></polygon></svg></g><g><g transform="matrix(1,0,0,1,227.6875,311.640625)"><path transform="matrix(0.017,0,0,-0.017,0,0)" d="M1324 681C1261 705 1207 716 1141 716C949 716 814 543 814 347C814 154 947 -22 1142 -22C1225 -22 1264 -9 1335 34L1329 103C1257 52 1212 42 1143 42C992 42 903 194 903 347C903 510 1001 652 1140 652C1219 652 1267 627 1309 600ZM1853 220C1853 354 1753 461 1634 461C1511 461 1414 351 1414 220C1414 88 1516 -11 1633 -11C1753 -11 1853 90 1853 220ZM1633 53C1564 53 1492 109 1492 230C1492 351 1568 400 1633 400C1703 400 1775 348 1775 230C1775 112 1707 53 1633 53ZM2243 128C2243 183 2206 217 2204 220C2165 255 2138 261 2088 270C2033 281 1987 291 1987 340C1987 402 2059 402 2072 402C2104 402 2157 398 2214 364L2226 429C2174 453 2133 461 2082 461C2057 461 1916 461 1916 330C1916 281 1945 249 1970 230C2001 208 2023 204 2078 193C2114 186 2172 174 2172 121C2172 52 2093 52 2078 52C1997 52 1941 89 1923 101L1911 33C1943 17 1998 -11 2079 -11C2217 -11 2243 75 2243 128ZM2679 219C2679 421 2572 461 2501 461C2390 461 2300 355 2300 226C2300 94 2396 -11 2516 -11C2579 -11 2636 13 2675 41L2669 106C2606 54 2540 50 2517 50C2437 50 2373 121 2370 219ZM2375 274C2391 350 2444 400 2501 400C2553 400 2609 366 2622 274ZM3118 418C3059 452 3025 461 2964 461C2825 461 2744 340 2744 222C2744 98 2835 -11 2960 -11C3014 -11 3069 3 3123 40L3117 107C3066 67 3012 53 2961 53C2878 53 2822 125 2822 223C2822 301 2859 397 2965 397C3017 397 3051 389 3106 353ZM3523 174L3622 174L3622 236L3523 236L3523 667L3432 667L3179 236L3179 174L3444 174L3444 0L3523 0ZM3257 236C3309 323 3450 564 3450 622L3450 236ZM3803 602L4066 602L4066 667L3731 667L3731 292L3797 292C3814 332 3851 372 3909 372C3956 372 4010 330 4010 208C4010 40 3888 40 3879 40C3812 40 3751 79 3722 134L3689 77C3730 19 3799 -22 3880 -22C3999 -22 4099 78 4099 206C4099 333 4013 434 3910 434C3870 434 3832 419 3803 392Z" stroke="rgb(0,0,0)" stroke-opacity="1" stroke-width="8" fill="rgb(0,0,0)" fill-opacity="1"></path></g></g><g><g transform="matrix(1,0,0,1,307.5625,311.640625)"><path transform="matrix(0.017,0,0,-0.017,0,0)" d="M604 347L604 406L65 406L65 347ZM604 134L604 193L65 193L65 134Z" stroke="rgb(0,0,0)" stroke-opacity="1" stroke-width="8" fill="rgb(0,0,0)" fill-opacity="1"></path></g></g><g><g transform="matrix(1,0,0,1,324.015625,311.640625)"><path transform="matrix(0.017,0,0,-0.017,0,0)" d="" stroke="rgb(0,0,0)" stroke-opacity="1" stroke-width="8" fill="rgb(0,0,0)" fill-opacity="1"></path></g></g><g><g><g><g><g transform="matrix(1,0,0,1,345.25,311.640625)"><path transform="matrix(0.017,0,0,-0.017,0,0)" d="M83 466C103 545 131 624 222 624C316 624 367 548 367 468C367 382 310 324 251 263L174 191L50 65L50 0L449 0L449 72L267 72C255 72 243 71 231 71L122 71C154 100 230 176 261 205C333 274 449 347 449 471C449 587 368 689 236 689C122 689 66 610 42 522C66 487 59 501 83 466Z" stroke="rgb(0,0,0)" stroke-opacity="1" stroke-width="8" fill="rgb(0,0,0)" fill-opacity="1"></path></g></g></g></g><svg x="328.25" overflow="visible" y="292.640625" height="17" width="25.5"><polygon points="0.35,10.28 4.79,7.91 9.66,18.23 16.36,0.00 25.50,0.00 25.50,1.05 17.09,1.05 9.18,22.58 3.10,9.84 0.64,10.76" style="fill:rgb(0,0,0);fill-opacity:1;stroke-width:1px;stroke:none;stroke-opacity:1;"></polygon></svg></g></g></g></svg>