<svg xmlns="http://www.w3.org/2000/svg" xmlns:xlink="http://www.w3.org/1999/xlink" width="210.25" height="382.984375" style="width:210.25px;height:382.984375px;font-family:Asana-Math, Asana;background:#FFF;"><g><g><g><g transform="matrix(1,0,0,1,18.15625,31.390625)"><path transform="matrix(0.017,0,0,-0.017,0,0)" d="M465 666C410 699 355 716 282 716C143 716 56 618 56 519C56 476 70 434 110 392C152 347 196 335 255 321C340 300 350 297 378 272C398 255 420 222 420 179C420 113 365 47 274 47C233 47 143 57 59 128L44 47C132 -8 212 -22 275 -22C407 -22 499 79 499 189C499 254 468 302 446 326C399 376 366 385 274 408C256 412 135 429 135 531C135 590 189 650 281 650C365 650 413 617 450 586ZM968 219C968 421 861 461 790 461C679 461 589 355 589 226C589 94 685 -11 805 -11C868 -11 925 13 964 41L958 106C895 54 829 50 806 50C726 50 662 121 659 219ZM664 274C680 350 733 400 790 400C842 400 898 366 911 274ZM1432 298C1432 364 1417 455 1295 455C1205 455 1156 387 1150 379L1150 450L1078 450L1078 0L1156 0L1156 245C1156 311 1181 394 1257 394C1353 394 1354 323 1354 291L1354 0L1432 0ZM2059 504C2041 618 1995 702 1868 702C1608 702 1572 412 1606 199C1625 80 1676 -16 1812 -16C2048 -16 2088 316 2059 504ZM1990 381L1674 381C1681 485 1725 676 1854 676C1940 676 1973 585 1984 517C1991 472 1990 426 1990 381ZM1990 349C1985 237 1966 13 1823 13C1721 13 1693 125 1681 203C1673 252 1674 301 1674 349Z" stroke="rgb(0,0,0)" stroke-opacity="1" stroke-width="8" fill="rgb(0,0,0)" fill-opacity="1"></path></g></g><g><g transform="matrix(1,0,0,1,63.609375,31.390625)"><path transform="matrix(0.017,0,0,-0.017,0,0)" d="M604 347L604 406L65 406L65 347ZM604 134L604 193L65 193L65 134Z" stroke="rgb(0,0,0)" stroke-opacity="1" stroke-width="8" fill="rgb(0,0,0)" fill-opacity="1"></path></g></g><g><g transform="matrix(1,0,0,1,80.0625,31.390625)"><path transform="matrix(0.017,0,0,-0.017,0,0)" d="" stroke="rgb(0,0,0)" stroke-opacity="1" stroke-width="8" fill="rgb(0,0,0)" fill-opacity="1"></path></g></g><g><g><g><g><g transform="matrix(1,0,0,1,85.984375,19)"><path transform="matrix(0.017,0,0,-0.017,0,0)" d="M577 681C514 705 460 716 394 716C202 716 67 543 67 347C67 154 200 -22 395 -22C478 -22 517 -9 588 34L582 103C510 52 465 42 396 42C245 42 156 194 156 347C156 510 254 652 393 652C472 652 520 627 562 600ZM1036 289C1036 391 963 461 871 461C806 461 761 445 714 418L720 352C772 389 822 402 871 402C918 402 958 362 958 288L958 245C808 243 681 201 681 113C681 70 708 -11 795 -11C809 -11 903 -9 961 36L961 0L1036 0ZM958 132C958 113 958 88 924 69C895 51 857 50 846 50C798 50 753 73 753 115C753 185 915 192 958 194ZM1291 386L1432 386L1432 444L1291 444L1291 571L1222 571L1222 444L1135 444L1135 386L1219 386L1219 119C1219 59 1233 -11 1302 -11C1372 -11 1423 14 1448 27L1432 86C1406 65 1374 53 1342 53C1305 53 1291 83 1291 136ZM1890 219C1890 421 1783 461 1712 461C1601 461 1511 355 1511 226C1511 94 1607 -11 1727 -11C1790 -11 1847 13 1886 41L1880 106C1817 54 1751 50 1728 50C1648 50 1584 121 1581 219ZM1586 274C1602 350 1655 400 1712 400C1764 400 1820 366 1833 274ZM2094 386L2235 386L2235 444L2094 444L2094 571L2025 571L2025 444L1938 444L1938 386L2022 386L2022 119C2022 59 2036 -11 2105 -11C2175 -11 2226 14 2251 27L2235 86C2209 65 2177 53 2145 53C2108 53 2094 83 2094 136ZM2748 220C2748 354 2648 461 2529 461C2406 461 2309 351 2309 220C2309 88 2411 -11 2528 -11C2648 -11 2748 90 2748 220ZM2528 53C2459 53 2387 109 2387 230C2387 351 2463 400 2528 400C2598 400 2670 348 2670 230C2670 112 2602 53 2528 53ZM3496 220C3496 354 3396 461 3277 461C3154 461 3057 351 3057 220C3057 88 3159 -11 3276 -11C3396 -11 3496 90 3496 220ZM3276 53C3207 53 3135 109 3135 230C3135 351 3211 400 3276 400C3346 400 3418 348 3418 230C3418 112 3350 53 3276 53ZM3686 46C3717 17 3761 -11 3821 -11C3918 -11 4006 87 4006 223C4006 343 3943 455 3847 455C3787 455 3729 434 3683 395L3683 444L3608 444L3608 -194L3686 -194ZM3686 333C3710 368 3749 391 3792 391C3868 391 3928 315 3928 223C3928 120 3857 50 3782 50C3743 50 3716 70 3696 97C3686 112 3686 114 3686 132ZM4476 444L4398 444L4398 154C4398 79 4342 44 4278 44C4207 44 4200 70 4200 113L4200 444L4122 444L4122 109C4122 37 4145 -11 4228 -11C4281 -11 4352 5 4401 48L4401 0L4476 0ZM4970 219C4970 421 4863 461 4792 461C4681 461 4591 355 4591 226C4591 94 4687 -11 4807 -11C4870 -11 4927 13 4966 41L4960 106C4897 54 4831 50 4808 50C4728 50 4664 121 4661 219ZM4666 274C4682 350 4735 400 4792 400C4844 400 4900 366 4913 274ZM5359 128C5359 183 5322 217 5320 220C5281 255 5254 261 5204 270C5149 281 5103 291 5103 340C5103 402 5175 402 5188 402C5220 402 5273 398 5330 364L5342 429C5290 453 5249 461 5198 461C5173 461 5032 461 5032 330C5032 281 5061 249 5086 230C5117 208 5139 204 5194 193C5230 186 5288 174 5288 121C5288 52 5209 52 5194 52C5113 52 5057 89 5039 101L5027 33C5059 17 5114 -11 5195 -11C5333 -11 5359 75 5359 128ZM5556 386L5697 386L5697 444L5556 444L5556 571L5487 571L5487 444L5400 444L5400 386L5484 386L5484 119C5484 59 5498 -11 5567 -11C5637 -11 5688 14 5713 27L5697 86C5671 65 5639 53 5607 53C5570 53 5556 83 5556 136ZM6210 220C6210 354 6110 461 5991 461C5868 461 5771 351 5771 220C5771 88 5873 -11 5990 -11C6110 -11 6210 90 6210 220ZM5990 53C5921 53 5849 109 5849 230C5849 351 5925 400 5990 400C6060 400 6132 348 6132 230C6132 112 6064 53 5990 53Z" stroke="rgb(0,0,0)" stroke-opacity="1" stroke-width="8" fill="rgb(0,0,0)" fill-opacity="1"></path></g></g></g></g><g><g><g><g transform="matrix(1,0,0,1,99.484375,44.78125)"><path transform="matrix(0.017,0,0,-0.017,0,0)" d="M613 694L524 694L524 391L183 391L183 694L94 694L94 0L183 0L183 330L524 330L524 0L613 0ZM870 680L781 680L781 591L870 591ZM863 444L788 444L788 0L863 0ZM1104 46C1135 17 1179 -11 1239 -11C1336 -11 1424 87 1424 223C1424 343 1361 455 1265 455C1205 455 1147 434 1101 395L1101 444L1026 444L1026 -194L1104 -194ZM1104 333C1128 368 1167 391 1210 391C1286 391 1346 315 1346 223C1346 120 1275 50 1200 50C1161 50 1134 70 1114 97C1104 112 1104 114 1104 132ZM1928 220C1928 354 1828 461 1709 461C1586 461 1489 351 1489 220C1489 88 1591 -11 1708 -11C1828 -11 1928 90 1928 220ZM1708 53C1639 53 1567 109 1567 230C1567 351 1643 400 1708 400C1778 400 1850 348 1850 230C1850 112 1782 53 1708 53ZM2133 386L2274 386L2274 444L2133 444L2133 571L2064 571L2064 444L1977 444L1977 386L2061 386L2061 119C2061 59 2075 -11 2144 -11C2214 -11 2265 14 2290 27L2274 86C2248 65 2216 53 2184 53C2147 53 2133 83 2133 136ZM2732 219C2732 421 2625 461 2554 461C2443 461 2353 355 2353 226C2353 94 2449 -11 2569 -11C2632 -11 2689 13 2728 41L2722 106C2659 54 2593 50 2570 50C2490 50 2426 121 2423 219ZM2428 274C2444 350 2497 400 2554 400C2606 400 2662 366 2675 274ZM3196 298C3196 364 3181 455 3059 455C2969 455 2920 387 2914 379L2914 450L2842 450L2842 0L2920 0L2920 245C2920 311 2945 394 3021 394C3117 394 3118 323 3118 291L3118 0L3196 0ZM3711 444L3633 444L3633 154C3633 79 3577 44 3513 44C3442 44 3435 70 3435 113L3435 444L3357 444L3357 109C3357 37 3380 -11 3463 -11C3516 -11 3587 5 3636 48L3636 0L3711 0ZM4151 128C4151 183 4114 217 4112 220C4073 255 4046 261 3996 270C3941 281 3895 291 3895 340C3895 402 3967 402 3980 402C4012 402 4065 398 4122 364L4134 429C4082 453 4041 461 3990 461C3965 461 3824 461 3824 330C3824 281 3853 249 3878 230C3909 208 3931 204 3986 193C4022 186 4080 174 4080 121C4080 52 4001 52 3986 52C3905 52 3849 89 3831 101L3819 33C3851 17 3906 -11 3987 -11C4125 -11 4151 75 4151 128ZM4572 289C4572 391 4499 461 4407 461C4342 461 4297 445 4250 418L4256 352C4308 389 4358 402 4407 402C4454 402 4494 362 4494 288L4494 245C4344 243 4217 201 4217 113C4217 70 4244 -11 4331 -11C4345 -11 4439 -9 4497 36L4497 0L4572 0ZM4494 132C4494 113 4494 88 4460 69C4431 51 4393 50 4382 50C4334 50 4289 73 4289 115C4289 185 4451 192 4494 194Z" stroke="rgb(0,0,0)" stroke-opacity="1" stroke-width="8" fill="rgb(0,0,0)" fill-opacity="1"></path></g></g></g></g><line style="fill:none;stroke-width:1px;stroke:rgb(0, 0, 0);" x1="85.984375" y1="27.140625" x2="192.078125" y2="27.140625"></line></g></g><g></g><g><g><g transform="matrix(1,0,0,1,10.25,97.953125)"><path transform="matrix(0.017,0,0,-0.017,0,0)" d="M577 681C514 705 460 716 394 716C202 716 67 543 67 347C67 154 200 -22 395 -22C478 -22 517 -9 588 34L582 103C510 52 465 42 396 42C245 42 156 194 156 347C156 510 254 652 393 652C472 652 520 627 562 600ZM1106 220C1106 354 1006 461 887 461C764 461 667 351 667 220C667 88 769 -11 886 -11C1006 -11 1106 90 1106 220ZM886 53C817 53 745 109 745 230C745 351 821 400 886 400C956 400 1028 348 1028 230C1028 112 960 53 886 53ZM1496 128C1496 183 1459 217 1457 220C1418 255 1391 261 1341 270C1286 281 1240 291 1240 340C1240 402 1312 402 1325 402C1357 402 1410 398 1467 364L1479 429C1427 453 1386 461 1335 461C1310 461 1169 461 1169 330C1169 281 1198 249 1223 230C1254 208 1276 204 1331 193C1367 186 1425 174 1425 121C1425 52 1346 52 1331 52C1250 52 1194 89 1176 101L1164 33C1196 17 1251 -11 1332 -11C1470 -11 1496 75 1496 128ZM2065 504C2047 618 2001 702 1874 702C1614 702 1578 412 1612 199C1631 80 1682 -16 1818 -16C2054 -16 2094 316 2065 504ZM1996 381L1680 381C1687 485 1731 676 1860 676C1946 676 1979 585 1990 517C1997 472 1996 426 1996 381ZM1996 349C1991 237 1972 13 1829 13C1727 13 1699 125 1687 203C1679 252 1680 301 1680 349Z" stroke="rgb(0,0,0)" stroke-opacity="1" stroke-width="8" fill="rgb(0,0,0)" fill-opacity="1"></path></g></g><g><g transform="matrix(1,0,0,1,55.8125,97.953125)"><path transform="matrix(0.017,0,0,-0.017,0,0)" d="M604 347L604 406L65 406L65 347ZM604 134L604 193L65 193L65 134Z" stroke="rgb(0,0,0)" stroke-opacity="1" stroke-width="8" fill="rgb(0,0,0)" fill-opacity="1"></path></g></g><g><g transform="matrix(1,0,0,1,72.265625,97.953125)"><path transform="matrix(0.017,0,0,-0.017,0,0)" d="" stroke="rgb(0,0,0)" stroke-opacity="1" stroke-width="8" fill="rgb(0,0,0)" fill-opacity="1"></path></g></g><g><g><g><g><g transform="matrix(1,0,0,1,78.1875,85.5625)"><path transform="matrix(0.017,0,0,-0.017,0,0)" d="M577 681C514 705 460 716 394 716C202 716 67 543 67 347C67 154 200 -22 395 -22C478 -22 517 -9 588 34L582 103C510 52 465 42 396 42C245 42 156 194 156 347C156 510 254 652 393 652C472 652 520 627 562 600ZM1036 289C1036 391 963 461 871 461C806 461 761 445 714 418L720 352C772 389 822 402 871 402C918 402 958 362 958 288L958 245C808 243 681 201 681 113C681 70 708 -11 795 -11C809 -11 903 -9 961 36L961 0L1036 0ZM958 132C958 113 958 88 924 69C895 51 857 50 846 50C798 50 753 73 753 115C753 185 915 192 958 194ZM1291 386L1432 386L1432 444L1291 444L1291 571L1222 571L1222 444L1135 444L1135 386L1219 386L1219 119C1219 59 1233 -11 1302 -11C1372 -11 1423 14 1448 27L1432 86C1406 65 1374 53 1342 53C1305 53 1291 83 1291 136ZM1890 219C1890 421 1783 461 1712 461C1601 461 1511 355 1511 226C1511 94 1607 -11 1727 -11C1790 -11 1847 13 1886 41L1880 106C1817 54 1751 50 1728 50C1648 50 1584 121 1581 219ZM1586 274C1602 350 1655 400 1712 400C1764 400 1820 366 1833 274ZM2094 386L2235 386L2235 444L2094 444L2094 571L2025 571L2025 444L1938 444L1938 386L2022 386L2022 119C2022 59 2036 -11 2105 -11C2175 -11 2226 14 2251 27L2235 86C2209 65 2177 53 2145 53C2108 53 2094 83 2094 136ZM2748 220C2748 354 2648 461 2529 461C2406 461 2309 351 2309 220C2309 88 2411 -11 2528 -11C2648 -11 2748 90 2748 220ZM2528 53C2459 53 2387 109 2387 230C2387 351 2463 400 2528 400C2598 400 2670 348 2670 230C2670 112 2602 53 2528 53ZM3426 289C3426 391 3353 461 3261 461C3196 461 3151 445 3104 418L3110 352C3162 389 3212 402 3261 402C3308 402 3348 362 3348 288L3348 245C3198 243 3071 201 3071 113C3071 70 3098 -11 3185 -11C3199 -11 3293 -9 3351 36L3351 0L3426 0ZM3348 132C3348 113 3348 88 3314 69C3285 51 3247 50 3236 50C3188 50 3143 73 3143 115C3143 185 3305 192 3348 194ZM3940 694L3865 694L3865 400C3812 444 3756 455 3719 455C3620 455 3542 351 3542 222C3542 91 3619 -11 3714 -11C3747 -11 3806 -2 3862 52L3862 0L3940 0ZM3862 139C3862 125 3861 107 3829 78C3806 58 3781 50 3755 50C3693 50 3620 97 3620 221C3620 353 3706 394 3765 394C3810 394 3840 371 3862 339ZM4467 444L4392 444L4259 57L4114 444L4035 444L4229 0C4185 -113 4172 -148 4136 -148C4120 -148 4088 -144 4058 -132L4064 -197C4086 -202 4114 -205 4136 -205C4171 -205 4208 -193 4249 -91ZM4880 289C4880 391 4807 461 4715 461C4650 461 4605 445 4558 418L4564 352C4616 389 4666 402 4715 402C4762 402 4802 362 4802 288L4802 245C4652 243 4525 201 4525 113C4525 70 4552 -11 4639 -11C4653 -11 4747 -9 4805 36L4805 0L4880 0ZM4802 132C4802 113 4802 88 4768 69C4739 51 4701 50 4690 50C4642 50 4597 73 4597 115C4597 185 4759 192 4802 194ZM5370 418C5311 452 5277 461 5216 461C5077 461 4996 340 4996 222C4996 98 5087 -11 5212 -11C5266 -11 5321 3 5375 40L5369 107C5318 67 5264 53 5213 53C5130 53 5074 125 5074 223C5074 301 5111 397 5217 397C5269 397 5303 389 5358 353ZM5817 219C5817 421 5710 461 5639 461C5528 461 5438 355 5438 226C5438 94 5534 -11 5654 -11C5717 -11 5774 13 5813 41L5807 106C5744 54 5678 50 5655 50C5575 50 5511 121 5508 219ZM5513 274C5529 350 5582 400 5639 400C5691 400 5747 366 5760 274ZM6281 298C6281 364 6266 455 6144 455C6054 455 6005 387 5999 379L5999 450L5927 450L5927 0L6005 0L6005 245C6005 311 6030 394 6106 394C6202 394 6203 323 6203 291L6203 0L6281 0ZM6536 386L6677 386L6677 444L6536 444L6536 571L6467 571L6467 444L6380 444L6380 386L6464 386L6464 119C6464 59 6478 -11 6547 -11C6617 -11 6668 14 6693 27L6677 86C6651 65 6619 53 6587 53C6550 53 6536 83 6536 136ZM7135 219C7135 421 7028 461 6957 461C6846 461 6756 355 6756 226C6756 94 6852 -11 6972 -11C7035 -11 7092 13 7131 41L7125 106C7062 54 6996 50 6973 50C6893 50 6829 121 6826 219ZM6831 274C6847 350 6900 400 6957 400C7009 400 7065 366 7078 274Z" stroke="rgb(0,0,0)" stroke-opacity="1" stroke-width="8" fill="rgb(0,0,0)" fill-opacity="1"></path></g></g></g></g><g><g><g><g transform="matrix(1,0,0,1,99.53125,111.34375)"><path transform="matrix(0.017,0,0,-0.017,0,0)" d="M613 694L524 694L524 391L183 391L183 694L94 694L94 0L183 0L183 330L524 330L524 0L613 0ZM870 680L781 680L781 591L870 591ZM863 444L788 444L788 0L863 0ZM1104 46C1135 17 1179 -11 1239 -11C1336 -11 1424 87 1424 223C1424 343 1361 455 1265 455C1205 455 1147 434 1101 395L1101 444L1026 444L1026 -194L1104 -194ZM1104 333C1128 368 1167 391 1210 391C1286 391 1346 315 1346 223C1346 120 1275 50 1200 50C1161 50 1134 70 1114 97C1104 112 1104 114 1104 132ZM1928 220C1928 354 1828 461 1709 461C1586 461 1489 351 1489 220C1489 88 1591 -11 1708 -11C1828 -11 1928 90 1928 220ZM1708 53C1639 53 1567 109 1567 230C1567 351 1643 400 1708 400C1778 400 1850 348 1850 230C1850 112 1782 53 1708 53ZM2133 386L2274 386L2274 444L2133 444L2133 571L2064 571L2064 444L1977 444L1977 386L2061 386L2061 119C2061 59 2075 -11 2144 -11C2214 -11 2265 14 2290 27L2274 86C2248 65 2216 53 2184 53C2147 53 2133 83 2133 136ZM2732 219C2732 421 2625 461 2554 461C2443 461 2353 355 2353 226C2353 94 2449 -11 2569 -11C2632 -11 2689 13 2728 41L2722 106C2659 54 2593 50 2570 50C2490 50 2426 121 2423 219ZM2428 274C2444 350 2497 400 2554 400C2606 400 2662 366 2675 274ZM3196 298C3196 364 3181 455 3059 455C2969 455 2920 387 2914 379L2914 450L2842 450L2842 0L2920 0L2920 245C2920 311 2945 394 3021 394C3117 394 3118 323 3118 291L3118 0L3196 0ZM3711 444L3633 444L3633 154C3633 79 3577 44 3513 44C3442 44 3435 70 3435 113L3435 444L3357 444L3357 109C3357 37 3380 -11 3463 -11C3516 -11 3587 5 3636 48L3636 0L3711 0ZM4151 128C4151 183 4114 217 4112 220C4073 255 4046 261 3996 270C3941 281 3895 291 3895 340C3895 402 3967 402 3980 402C4012 402 4065 398 4122 364L4134 429C4082 453 4041 461 3990 461C3965 461 3824 461 3824 330C3824 281 3853 249 3878 230C3909 208 3931 204 3986 193C4022 186 4080 174 4080 121C4080 52 4001 52 3986 52C3905 52 3849 89 3831 101L3819 33C3851 17 3906 -11 3987 -11C4125 -11 4151 75 4151 128ZM4572 289C4572 391 4499 461 4407 461C4342 461 4297 445 4250 418L4256 352C4308 389 4358 402 4407 402C4454 402 4494 362 4494 288L4494 245C4344 243 4217 201 4217 113C4217 70 4244 -11 4331 -11C4345 -11 4439 -9 4497 36L4497 0L4572 0ZM4494 132C4494 113 4494 88 4460 69C4431 51 4393 50 4382 50C4334 50 4289 73 4289 115C4289 185 4451 192 4494 194Z" stroke="rgb(0,0,0)" stroke-opacity="1" stroke-width="8" fill="rgb(0,0,0)" fill-opacity="1"></path></g></g></g></g><line style="fill:none;stroke-width:1px;stroke:rgb(0, 0, 0);" x1="78.1875" y1="93.703125" x2="199.984375" y2="93.703125"></line></g></g><g></g><g><g><g transform="matrix(1,0,0,1,8.9375,164.515625)"><path transform="matrix(0.017,0,0,-0.017,0,0)" d="M385 624L474 624C486 624 498 623 510 623L644 623L644 688L36 688L36 623L170 623C182 623 194 624 206 624L296 624L296 0L385 0ZM1078 289C1078 391 1005 461 913 461C848 461 803 445 756 418L762 352C814 389 864 402 913 402C960 402 1000 362 1000 288L1000 245C850 243 723 201 723 113C723 70 750 -11 837 -11C851 -11 945 -9 1003 36L1003 0L1078 0ZM1000 132C1000 113 1000 88 966 69C937 51 899 50 888 50C840 50 795 73 795 115C795 185 957 192 1000 194ZM1593 298C1593 364 1578 455 1456 455C1366 455 1317 387 1311 379L1311 450L1239 450L1239 0L1317 0L1317 245C1317 311 1342 394 1418 394C1514 394 1515 323 1515 291L1515 0L1593 0ZM2220 504C2202 618 2156 702 2029 702C1769 702 1733 412 1767 199C1786 80 1837 -16 1973 -16C2209 -16 2249 316 2220 504ZM2151 381L1835 381C1842 485 1886 676 2015 676C2101 676 2134 585 2145 517C2152 472 2151 426 2151 381ZM2151 349C2146 237 2127 13 1984 13C1882 13 1854 125 1842 203C1834 252 1835 301 1835 349Z" stroke="rgb(0,0,0)" stroke-opacity="1" stroke-width="8" fill="rgb(0,0,0)" fill-opacity="1"></path></g></g><g><g transform="matrix(1,0,0,1,57.140625,164.515625)"><path transform="matrix(0.017,0,0,-0.017,0,0)" d="M604 347L604 406L65 406L65 347ZM604 134L604 193L65 193L65 134Z" stroke="rgb(0,0,0)" stroke-opacity="1" stroke-width="8" fill="rgb(0,0,0)" fill-opacity="1"></path></g></g><g><g transform="matrix(1,0,0,1,73.59375,164.515625)"><path transform="matrix(0.017,0,0,-0.017,0,0)" d="" stroke="rgb(0,0,0)" stroke-opacity="1" stroke-width="8" fill="rgb(0,0,0)" fill-opacity="1"></path></g></g><g><g><g><g><g transform="matrix(1,0,0,1,87.359375,152.125)"><path transform="matrix(0.017,0,0,-0.017,0,0)" d="M577 681C514 705 460 716 394 716C202 716 67 543 67 347C67 154 200 -22 395 -22C478 -22 517 -9 588 34L582 103C510 52 465 42 396 42C245 42 156 194 156 347C156 510 254 652 393 652C472 652 520 627 562 600ZM1036 289C1036 391 963 461 871 461C806 461 761 445 714 418L720 352C772 389 822 402 871 402C918 402 958 362 958 288L958 245C808 243 681 201 681 113C681 70 708 -11 795 -11C809 -11 903 -9 961 36L961 0L1036 0ZM958 132C958 113 958 88 924 69C895 51 857 50 846 50C798 50 753 73 753 115C753 185 915 192 958 194ZM1291 386L1432 386L1432 444L1291 444L1291 571L1222 571L1222 444L1135 444L1135 386L1219 386L1219 119C1219 59 1233 -11 1302 -11C1372 -11 1423 14 1448 27L1432 86C1406 65 1374 53 1342 53C1305 53 1291 83 1291 136ZM1890 219C1890 421 1783 461 1712 461C1601 461 1511 355 1511 226C1511 94 1607 -11 1727 -11C1790 -11 1847 13 1886 41L1880 106C1817 54 1751 50 1728 50C1648 50 1584 121 1581 219ZM1586 274C1602 350 1655 400 1712 400C1764 400 1820 366 1833 274ZM2094 386L2235 386L2235 444L2094 444L2094 571L2025 571L2025 444L1938 444L1938 386L2022 386L2022 119C2022 59 2036 -11 2105 -11C2175 -11 2226 14 2251 27L2235 86C2209 65 2177 53 2145 53C2108 53 2094 83 2094 136ZM2748 220C2748 354 2648 461 2529 461C2406 461 2309 351 2309 220C2309 88 2411 -11 2528 -11C2648 -11 2748 90 2748 220ZM2528 53C2459 53 2387 109 2387 230C2387 351 2463 400 2528 400C2598 400 2670 348 2670 230C2670 112 2602 53 2528 53ZM3496 220C3496 354 3396 461 3277 461C3154 461 3057 351 3057 220C3057 88 3159 -11 3276 -11C3396 -11 3496 90 3496 220ZM3276 53C3207 53 3135 109 3135 230C3135 351 3211 400 3276 400C3346 400 3418 348 3418 230C3418 112 3350 53 3276 53ZM3686 46C3717 17 3761 -11 3821 -11C3918 -11 4006 87 4006 223C4006 343 3943 455 3847 455C3787 455 3729 434 3683 395L3683 444L3608 444L3608 -194L3686 -194ZM3686 333C3710 368 3749 391 3792 391C3868 391 3928 315 3928 223C3928 120 3857 50 3782 50C3743 50 3716 70 3696 97C3686 112 3686 114 3686 132ZM4476 444L4398 444L4398 154C4398 79 4342 44 4278 44C4207 44 4200 70 4200 113L4200 444L4122 444L4122 109C4122 37 4145 -11 4228 -11C4281 -11 4352 5 4401 48L4401 0L4476 0ZM4970 219C4970 421 4863 461 4792 461C4681 461 4591 355 4591 226C4591 94 4687 -11 4807 -11C4870 -11 4927 13 4966 41L4960 106C4897 54 4831 50 4808 50C4728 50 4664 121 4661 219ZM4666 274C4682 350 4735 400 4792 400C4844 400 4900 366 4913 274ZM5359 128C5359 183 5322 217 5320 220C5281 255 5254 261 5204 270C5149 281 5103 291 5103 340C5103 402 5175 402 5188 402C5220 402 5273 398 5330 364L5342 429C5290 453 5249 461 5198 461C5173 461 5032 461 5032 330C5032 281 5061 249 5086 230C5117 208 5139 204 5194 193C5230 186 5288 174 5288 121C5288 52 5209 52 5194 52C5113 52 5057 89 5039 101L5027 33C5059 17 5114 -11 5195 -11C5333 -11 5359 75 5359 128ZM5556 386L5697 386L5697 444L5556 444L5556 571L5487 571L5487 444L5400 444L5400 386L5484 386L5484 119C5484 59 5498 -11 5567 -11C5637 -11 5688 14 5713 27L5697 86C5671 65 5639 53 5607 53C5570 53 5556 83 5556 136ZM6210 220C6210 354 6110 461 5991 461C5868 461 5771 351 5771 220C5771 88 5873 -11 5990 -11C6110 -11 6210 90 6210 220ZM5990 53C5921 53 5849 109 5849 230C5849 351 5925 400 5990 400C6060 400 6132 348 6132 230C6132 112 6064 53 5990 53Z" stroke="rgb(0,0,0)" stroke-opacity="1" stroke-width="8" fill="rgb(0,0,0)" fill-opacity="1"></path></g></g></g></g><g><g><g><g transform="matrix(1,0,0,1,79.515625,177.90625)"><path transform="matrix(0.017,0,0,-0.017,0,0)" d="M577 681C514 705 460 716 394 716C202 716 67 543 67 347C67 154 200 -22 395 -22C478 -22 517 -9 588 34L582 103C510 52 465 42 396 42C245 42 156 194 156 347C156 510 254 652 393 652C472 652 520 627 562 600ZM1036 289C1036 391 963 461 871 461C806 461 761 445 714 418L720 352C772 389 822 402 871 402C918 402 958 362 958 288L958 245C808 243 681 201 681 113C681 70 708 -11 795 -11C809 -11 903 -9 961 36L961 0L1036 0ZM958 132C958 113 958 88 924 69C895 51 857 50 846 50C798 50 753 73 753 115C753 185 915 192 958 194ZM1291 386L1432 386L1432 444L1291 444L1291 571L1222 571L1222 444L1135 444L1135 386L1219 386L1219 119C1219 59 1233 -11 1302 -11C1372 -11 1423 14 1448 27L1432 86C1406 65 1374 53 1342 53C1305 53 1291 83 1291 136ZM1890 219C1890 421 1783 461 1712 461C1601 461 1511 355 1511 226C1511 94 1607 -11 1727 -11C1790 -11 1847 13 1886 41L1880 106C1817 54 1751 50 1728 50C1648 50 1584 121 1581 219ZM1586 274C1602 350 1655 400 1712 400C1764 400 1820 366 1833 274ZM2094 386L2235 386L2235 444L2094 444L2094 571L2025 571L2025 444L1938 444L1938 386L2022 386L2022 119C2022 59 2036 -11 2105 -11C2175 -11 2226 14 2251 27L2235 86C2209 65 2177 53 2145 53C2108 53 2094 83 2094 136ZM2748 220C2748 354 2648 461 2529 461C2406 461 2309 351 2309 220C2309 88 2411 -11 2528 -11C2648 -11 2748 90 2748 220ZM2528 53C2459 53 2387 109 2387 230C2387 351 2463 400 2528 400C2598 400 2670 348 2670 230C2670 112 2602 53 2528 53ZM3426 289C3426 391 3353 461 3261 461C3196 461 3151 445 3104 418L3110 352C3162 389 3212 402 3261 402C3308 402 3348 362 3348 288L3348 245C3198 243 3071 201 3071 113C3071 70 3098 -11 3185 -11C3199 -11 3293 -9 3351 36L3351 0L3426 0ZM3348 132C3348 113 3348 88 3314 69C3285 51 3247 50 3236 50C3188 50 3143 73 3143 115C3143 185 3305 192 3348 194ZM3940 694L3865 694L3865 400C3812 444 3756 455 3719 455C3620 455 3542 351 3542 222C3542 91 3619 -11 3714 -11C3747 -11 3806 -2 3862 52L3862 0L3940 0ZM3862 139C3862 125 3861 107 3829 78C3806 58 3781 50 3755 50C3693 50 3620 97 3620 221C3620 353 3706 394 3765 394C3810 394 3840 371 3862 339ZM4467 444L4392 444L4259 57L4114 444L4035 444L4229 0C4185 -113 4172 -148 4136 -148C4120 -148 4088 -144 4058 -132L4064 -197C4086 -202 4114 -205 4136 -205C4171 -205 4208 -193 4249 -91ZM4880 289C4880 391 4807 461 4715 461C4650 461 4605 445 4558 418L4564 352C4616 389 4666 402 4715 402C4762 402 4802 362 4802 288L4802 245C4652 243 4525 201 4525 113C4525 70 4552 -11 4639 -11C4653 -11 4747 -9 4805 36L4805 0L4880 0ZM4802 132C4802 113 4802 88 4768 69C4739 51 4701 50 4690 50C4642 50 4597 73 4597 115C4597 185 4759 192 4802 194ZM5370 418C5311 452 5277 461 5216 461C5077 461 4996 340 4996 222C4996 98 5087 -11 5212 -11C5266 -11 5321 3 5375 40L5369 107C5318 67 5264 53 5213 53C5130 53 5074 125 5074 223C5074 301 5111 397 5217 397C5269 397 5303 389 5358 353ZM5817 219C5817 421 5710 461 5639 461C5528 461 5438 355 5438 226C5438 94 5534 -11 5654 -11C5717 -11 5774 13 5813 41L5807 106C5744 54 5678 50 5655 50C5575 50 5511 121 5508 219ZM5513 274C5529 350 5582 400 5639 400C5691 400 5747 366 5760 274ZM6281 298C6281 364 6266 455 6144 455C6054 455 6005 387 5999 379L5999 450L5927 450L5927 0L6005 0L6005 245C6005 311 6030 394 6106 394C6202 394 6203 323 6203 291L6203 0L6281 0ZM6536 386L6677 386L6677 444L6536 444L6536 571L6467 571L6467 444L6380 444L6380 386L6464 386L6464 119C6464 59 6478 -11 6547 -11C6617 -11 6668 14 6693 27L6677 86C6651 65 6619 53 6587 53C6550 53 6536 83 6536 136ZM7135 219C7135 421 7028 461 6957 461C6846 461 6756 355 6756 226C6756 94 6852 -11 6972 -11C7035 -11 7092 13 7131 41L7125 106C7062 54 6996 50 6973 50C6893 50 6829 121 6826 219ZM6831 274C6847 350 6900 400 6957 400C7009 400 7065 366 7078 274Z" stroke="rgb(0,0,0)" stroke-opacity="1" stroke-width="8" fill="rgb(0,0,0)" fill-opacity="1"></path></g></g></g></g><line style="fill:none;stroke-width:1px;stroke:rgb(0, 0, 0);" x1="79.515625" y1="160.265625" x2="201.3125" y2="160.265625"></line></g></g><g></g><g><g><g transform="matrix(1,0,0,1,2,231.078125)"><path transform="matrix(0.017,0,0,-0.017,0,0)" d="M577 681C514 705 460 716 394 716C202 716 67 543 67 347C67 154 200 -22 395 -22C478 -22 517 -9 588 34L582 103C510 52 465 42 396 42C245 42 156 194 156 347C156 510 254 652 393 652C472 652 520 627 562 600ZM1106 220C1106 354 1006 461 887 461C764 461 667 351 667 220C667 88 769 -11 886 -11C1006 -11 1106 90 1106 220ZM886 53C817 53 745 109 745 230C745 351 821 400 886 400C956 400 1028 348 1028 230C1028 112 960 53 886 53ZM1311 386L1452 386L1452 444L1311 444L1311 571L1242 571L1242 444L1155 444L1155 386L1239 386L1239 119C1239 59 1253 -11 1322 -11C1392 -11 1443 14 1468 27L1452 86C1426 65 1394 53 1362 53C1325 53 1311 83 1311 136ZM1895 289C1895 391 1822 461 1730 461C1665 461 1620 445 1573 418L1579 352C1631 389 1681 402 1730 402C1777 402 1817 362 1817 288L1817 245C1667 243 1540 201 1540 113C1540 70 1567 -11 1654 -11C1668 -11 1762 -9 1820 36L1820 0L1895 0ZM1817 132C1817 113 1817 88 1783 69C1754 51 1716 50 1705 50C1657 50 1612 73 1612 115C1612 185 1774 192 1817 194ZM2410 298C2410 364 2395 455 2273 455C2183 455 2134 387 2128 379L2128 450L2056 450L2056 0L2134 0L2134 245C2134 311 2159 394 2235 394C2331 394 2332 323 2332 291L2332 0L2410 0ZM3037 504C3019 618 2973 702 2846 702C2586 702 2550 412 2584 199C2603 80 2654 -16 2790 -16C3026 -16 3066 316 3037 504ZM2968 381L2652 381C2659 485 2703 676 2832 676C2918 676 2951 585 2962 517C2969 472 2968 426 2968 381ZM2968 349C2963 237 2944 13 2801 13C2699 13 2671 125 2659 203C2651 252 2652 301 2652 349Z" stroke="rgb(0,0,0)" stroke-opacity="1" stroke-width="8" fill="rgb(0,0,0)" fill-opacity="1"></path></g></g><g><g transform="matrix(1,0,0,1,64.078125,231.078125)"><path transform="matrix(0.017,0,0,-0.017,0,0)" d="M604 347L604 406L65 406L65 347ZM604 134L604 193L65 193L65 134Z" stroke="rgb(0,0,0)" stroke-opacity="1" stroke-width="8" fill="rgb(0,0,0)" fill-opacity="1"></path></g></g><g><g transform="matrix(1,0,0,1,80.53125,231.078125)"><path transform="matrix(0.017,0,0,-0.017,0,0)" d="" stroke="rgb(0,0,0)" stroke-opacity="1" stroke-width="8" fill="rgb(0,0,0)" fill-opacity="1"></path></g></g><g><g><g><g><g transform="matrix(1,0,0,1,86.453125,218.6875)"><path transform="matrix(0.017,0,0,-0.017,0,0)" d="M577 681C514 705 460 716 394 716C202 716 67 543 67 347C67 154 200 -22 395 -22C478 -22 517 -9 588 34L582 103C510 52 465 42 396 42C245 42 156 194 156 347C156 510 254 652 393 652C472 652 520 627 562 600ZM1036 289C1036 391 963 461 871 461C806 461 761 445 714 418L720 352C772 389 822 402 871 402C918 402 958 362 958 288L958 245C808 243 681 201 681 113C681 70 708 -11 795 -11C809 -11 903 -9 961 36L961 0L1036 0ZM958 132C958 113 958 88 924 69C895 51 857 50 846 50C798 50 753 73 753 115C753 185 915 192 958 194ZM1291 386L1432 386L1432 444L1291 444L1291 571L1222 571L1222 444L1135 444L1135 386L1219 386L1219 119C1219 59 1233 -11 1302 -11C1372 -11 1423 14 1448 27L1432 86C1406 65 1374 53 1342 53C1305 53 1291 83 1291 136ZM1890 219C1890 421 1783 461 1712 461C1601 461 1511 355 1511 226C1511 94 1607 -11 1727 -11C1790 -11 1847 13 1886 41L1880 106C1817 54 1751 50 1728 50C1648 50 1584 121 1581 219ZM1586 274C1602 350 1655 400 1712 400C1764 400 1820 366 1833 274ZM2094 386L2235 386L2235 444L2094 444L2094 571L2025 571L2025 444L1938 444L1938 386L2022 386L2022 119C2022 59 2036 -11 2105 -11C2175 -11 2226 14 2251 27L2235 86C2209 65 2177 53 2145 53C2108 53 2094 83 2094 136ZM2748 220C2748 354 2648 461 2529 461C2406 461 2309 351 2309 220C2309 88 2411 -11 2528 -11C2648 -11 2748 90 2748 220ZM2528 53C2459 53 2387 109 2387 230C2387 351 2463 400 2528 400C2598 400 2670 348 2670 230C2670 112 2602 53 2528 53ZM3426 289C3426 391 3353 461 3261 461C3196 461 3151 445 3104 418L3110 352C3162 389 3212 402 3261 402C3308 402 3348 362 3348 288L3348 245C3198 243 3071 201 3071 113C3071 70 3098 -11 3185 -11C3199 -11 3293 -9 3351 36L3351 0L3426 0ZM3348 132C3348 113 3348 88 3314 69C3285 51 3247 50 3236 50C3188 50 3143 73 3143 115C3143 185 3305 192 3348 194ZM3940 694L3865 694L3865 400C3812 444 3756 455 3719 455C3620 455 3542 351 3542 222C3542 91 3619 -11 3714 -11C3747 -11 3806 -2 3862 52L3862 0L3940 0ZM3862 139C3862 125 3861 107 3829 78C3806 58 3781 50 3755 50C3693 50 3620 97 3620 221C3620 353 3706 394 3765 394C3810 394 3840 371 3862 339ZM4467 444L4392 444L4259 57L4114 444L4035 444L4229 0C4185 -113 4172 -148 4136 -148C4120 -148 4088 -144 4058 -132L4064 -197C4086 -202 4114 -205 4136 -205C4171 -205 4208 -193 4249 -91ZM4880 289C4880 391 4807 461 4715 461C4650 461 4605 445 4558 418L4564 352C4616 389 4666 402 4715 402C4762 402 4802 362 4802 288L4802 245C4652 243 4525 201 4525 113C4525 70 4552 -11 4639 -11C4653 -11 4747 -9 4805 36L4805 0L4880 0ZM4802 132C4802 113 4802 88 4768 69C4739 51 4701 50 4690 50C4642 50 4597 73 4597 115C4597 185 4759 192 4802 194ZM5370 418C5311 452 5277 461 5216 461C5077 461 4996 340 4996 222C4996 98 5087 -11 5212 -11C5266 -11 5321 3 5375 40L5369 107C5318 67 5264 53 5213 53C5130 53 5074 125 5074 223C5074 301 5111 397 5217 397C5269 397 5303 389 5358 353ZM5817 219C5817 421 5710 461 5639 461C5528 461 5438 355 5438 226C5438 94 5534 -11 5654 -11C5717 -11 5774 13 5813 41L5807 106C5744 54 5678 50 5655 50C5575 50 5511 121 5508 219ZM5513 274C5529 350 5582 400 5639 400C5691 400 5747 366 5760 274ZM6281 298C6281 364 6266 455 6144 455C6054 455 6005 387 5999 379L5999 450L5927 450L5927 0L6005 0L6005 245C6005 311 6030 394 6106 394C6202 394 6203 323 6203 291L6203 0L6281 0ZM6536 386L6677 386L6677 444L6536 444L6536 571L6467 571L6467 444L6380 444L6380 386L6464 386L6464 119C6464 59 6478 -11 6547 -11C6617 -11 6668 14 6693 27L6677 86C6651 65 6619 53 6587 53C6550 53 6536 83 6536 136ZM7135 219C7135 421 7028 461 6957 461C6846 461 6756 355 6756 226C6756 94 6852 -11 6972 -11C7035 -11 7092 13 7131 41L7125 106C7062 54 6996 50 6973 50C6893 50 6829 121 6826 219ZM6831 274C6847 350 6900 400 6957 400C7009 400 7065 366 7078 274Z" stroke="rgb(0,0,0)" stroke-opacity="1" stroke-width="8" fill="rgb(0,0,0)" fill-opacity="1"></path></g></g></g></g><g><g><g><g transform="matrix(1,0,0,1,94.296875,244.46875)"><path transform="matrix(0.017,0,0,-0.017,0,0)" d="M577 681C514 705 460 716 394 716C202 716 67 543 67 347C67 154 200 -22 395 -22C478 -22 517 -9 588 34L582 103C510 52 465 42 396 42C245 42 156 194 156 347C156 510 254 652 393 652C472 652 520 627 562 600ZM1036 289C1036 391 963 461 871 461C806 461 761 445 714 418L720 352C772 389 822 402 871 402C918 402 958 362 958 288L958 245C808 243 681 201 681 113C681 70 708 -11 795 -11C809 -11 903 -9 961 36L961 0L1036 0ZM958 132C958 113 958 88 924 69C895 51 857 50 846 50C798 50 753 73 753 115C753 185 915 192 958 194ZM1291 386L1432 386L1432 444L1291 444L1291 571L1222 571L1222 444L1135 444L1135 386L1219 386L1219 119C1219 59 1233 -11 1302 -11C1372 -11 1423 14 1448 27L1432 86C1406 65 1374 53 1342 53C1305 53 1291 83 1291 136ZM1890 219C1890 421 1783 461 1712 461C1601 461 1511 355 1511 226C1511 94 1607 -11 1727 -11C1790 -11 1847 13 1886 41L1880 106C1817 54 1751 50 1728 50C1648 50 1584 121 1581 219ZM1586 274C1602 350 1655 400 1712 400C1764 400 1820 366 1833 274ZM2094 386L2235 386L2235 444L2094 444L2094 571L2025 571L2025 444L1938 444L1938 386L2022 386L2022 119C2022 59 2036 -11 2105 -11C2175 -11 2226 14 2251 27L2235 86C2209 65 2177 53 2145 53C2108 53 2094 83 2094 136ZM2748 220C2748 354 2648 461 2529 461C2406 461 2309 351 2309 220C2309 88 2411 -11 2528 -11C2648 -11 2748 90 2748 220ZM2528 53C2459 53 2387 109 2387 230C2387 351 2463 400 2528 400C2598 400 2670 348 2670 230C2670 112 2602 53 2528 53ZM3496 220C3496 354 3396 461 3277 461C3154 461 3057 351 3057 220C3057 88 3159 -11 3276 -11C3396 -11 3496 90 3496 220ZM3276 53C3207 53 3135 109 3135 230C3135 351 3211 400 3276 400C3346 400 3418 348 3418 230C3418 112 3350 53 3276 53ZM3686 46C3717 17 3761 -11 3821 -11C3918 -11 4006 87 4006 223C4006 343 3943 455 3847 455C3787 455 3729 434 3683 395L3683 444L3608 444L3608 -194L3686 -194ZM3686 333C3710 368 3749 391 3792 391C3868 391 3928 315 3928 223C3928 120 3857 50 3782 50C3743 50 3716 70 3696 97C3686 112 3686 114 3686 132ZM4476 444L4398 444L4398 154C4398 79 4342 44 4278 44C4207 44 4200 70 4200 113L4200 444L4122 444L4122 109C4122 37 4145 -11 4228 -11C4281 -11 4352 5 4401 48L4401 0L4476 0ZM4970 219C4970 421 4863 461 4792 461C4681 461 4591 355 4591 226C4591 94 4687 -11 4807 -11C4870 -11 4927 13 4966 41L4960 106C4897 54 4831 50 4808 50C4728 50 4664 121 4661 219ZM4666 274C4682 350 4735 400 4792 400C4844 400 4900 366 4913 274ZM5359 128C5359 183 5322 217 5320 220C5281 255 5254 261 5204 270C5149 281 5103 291 5103 340C5103 402 5175 402 5188 402C5220 402 5273 398 5330 364L5342 429C5290 453 5249 461 5198 461C5173 461 5032 461 5032 330C5032 281 5061 249 5086 230C5117 208 5139 204 5194 193C5230 186 5288 174 5288 121C5288 52 5209 52 5194 52C5113 52 5057 89 5039 101L5027 33C5059 17 5114 -11 5195 -11C5333 -11 5359 75 5359 128ZM5556 386L5697 386L5697 444L5556 444L5556 571L5487 571L5487 444L5400 444L5400 386L5484 386L5484 119C5484 59 5498 -11 5567 -11C5637 -11 5688 14 5713 27L5697 86C5671 65 5639 53 5607 53C5570 53 5556 83 5556 136ZM6210 220C6210 354 6110 461 5991 461C5868 461 5771 351 5771 220C5771 88 5873 -11 5990 -11C6110 -11 6210 90 6210 220ZM5990 53C5921 53 5849 109 5849 230C5849 351 5925 400 5990 400C6060 400 6132 348 6132 230C6132 112 6064 53 5990 53Z" stroke="rgb(0,0,0)" stroke-opacity="1" stroke-width="8" fill="rgb(0,0,0)" fill-opacity="1"></path></g></g></g></g><line style="fill:none;stroke-width:1px;stroke:rgb(0, 0, 0);" x1="86.453125" y1="226.828125" x2="208.25" y2="226.828125"></line></g></g><g></g><g><g><g transform="matrix(1,0,0,1,10.921875,297.640625)"><path transform="matrix(0.017,0,0,-0.017,0,0)" d="M465 666C410 699 355 716 282 716C143 716 56 618 56 519C56 476 70 434 110 392C152 347 196 335 255 321C340 300 350 297 378 272C398 255 420 222 420 179C420 113 365 47 274 47C233 47 143 57 59 128L44 47C132 -8 212 -22 275 -22C407 -22 499 79 499 189C499 254 468 302 446 326C399 376 366 385 274 408C256 412 135 429 135 531C135 590 189 650 281 650C365 650 413 617 450 586ZM968 219C968 421 861 461 790 461C679 461 589 355 589 226C589 94 685 -11 805 -11C868 -11 925 13 964 41L958 106C895 54 829 50 806 50C726 50 662 121 659 219ZM664 274C680 350 733 400 790 400C842 400 898 366 911 274ZM1407 418C1348 452 1314 461 1253 461C1114 461 1033 340 1033 222C1033 98 1124 -11 1249 -11C1303 -11 1358 3 1412 40L1406 107C1355 67 1301 53 1250 53C1167 53 1111 125 1111 223C1111 301 1148 397 1254 397C1306 397 1340 389 1395 353ZM1987 504C1969 618 1923 702 1796 702C1536 702 1500 412 1534 199C1553 80 1604 -16 1740 -16C1976 -16 2016 316 1987 504ZM1918 381L1602 381C1609 485 1653 676 1782 676C1868 676 1901 585 1912 517C1919 472 1918 426 1918 381ZM1918 349C1913 237 1894 13 1751 13C1649 13 1621 125 1609 203C1601 252 1602 301 1602 349Z" stroke="rgb(0,0,0)" stroke-opacity="1" stroke-width="8" fill="rgb(0,0,0)" fill-opacity="1"></path></g></g><g><g transform="matrix(1,0,0,1,55.15625,297.640625)"><path transform="matrix(0.017,0,0,-0.017,0,0)" d="M604 347L604 406L65 406L65 347ZM604 134L604 193L65 193L65 134Z" stroke="rgb(0,0,0)" stroke-opacity="1" stroke-width="8" fill="rgb(0,0,0)" fill-opacity="1"></path></g></g><g><g transform="matrix(1,0,0,1,71.609375,297.640625)"><path transform="matrix(0.017,0,0,-0.017,0,0)" d="" stroke="rgb(0,0,0)" stroke-opacity="1" stroke-width="8" fill="rgb(0,0,0)" fill-opacity="1"></path></g></g><g><g><g><g><g transform="matrix(1,0,0,1,98.875,285.25)"><path transform="matrix(0.017,0,0,-0.017,0,0)" d="M613 694L524 694L524 391L183 391L183 694L94 694L94 0L183 0L183 330L524 330L524 0L613 0ZM870 680L781 680L781 591L870 591ZM863 444L788 444L788 0L863 0ZM1104 46C1135 17 1179 -11 1239 -11C1336 -11 1424 87 1424 223C1424 343 1361 455 1265 455C1205 455 1147 434 1101 395L1101 444L1026 444L1026 -194L1104 -194ZM1104 333C1128 368 1167 391 1210 391C1286 391 1346 315 1346 223C1346 120 1275 50 1200 50C1161 50 1134 70 1114 97C1104 112 1104 114 1104 132ZM1928 220C1928 354 1828 461 1709 461C1586 461 1489 351 1489 220C1489 88 1591 -11 1708 -11C1828 -11 1928 90 1928 220ZM1708 53C1639 53 1567 109 1567 230C1567 351 1643 400 1708 400C1778 400 1850 348 1850 230C1850 112 1782 53 1708 53ZM2133 386L2274 386L2274 444L2133 444L2133 571L2064 571L2064 444L1977 444L1977 386L2061 386L2061 119C2061 59 2075 -11 2144 -11C2214 -11 2265 14 2290 27L2274 86C2248 65 2216 53 2184 53C2147 53 2133 83 2133 136ZM2732 219C2732 421 2625 461 2554 461C2443 461 2353 355 2353 226C2353 94 2449 -11 2569 -11C2632 -11 2689 13 2728 41L2722 106C2659 54 2593 50 2570 50C2490 50 2426 121 2423 219ZM2428 274C2444 350 2497 400 2554 400C2606 400 2662 366 2675 274ZM3196 298C3196 364 3181 455 3059 455C2969 455 2920 387 2914 379L2914 450L2842 450L2842 0L2920 0L2920 245C2920 311 2945 394 3021 394C3117 394 3118 323 3118 291L3118 0L3196 0ZM3711 444L3633 444L3633 154C3633 79 3577 44 3513 44C3442 44 3435 70 3435 113L3435 444L3357 444L3357 109C3357 37 3380 -11 3463 -11C3516 -11 3587 5 3636 48L3636 0L3711 0ZM4151 128C4151 183 4114 217 4112 220C4073 255 4046 261 3996 270C3941 281 3895 291 3895 340C3895 402 3967 402 3980 402C4012 402 4065 398 4122 364L4134 429C4082 453 4041 461 3990 461C3965 461 3824 461 3824 330C3824 281 3853 249 3878 230C3909 208 3931 204 3986 193C4022 186 4080 174 4080 121C4080 52 4001 52 3986 52C3905 52 3849 89 3831 101L3819 33C3851 17 3906 -11 3987 -11C4125 -11 4151 75 4151 128ZM4572 289C4572 391 4499 461 4407 461C4342 461 4297 445 4250 418L4256 352C4308 389 4358 402 4407 402C4454 402 4494 362 4494 288L4494 245C4344 243 4217 201 4217 113C4217 70 4244 -11 4331 -11C4345 -11 4439 -9 4497 36L4497 0L4572 0ZM4494 132C4494 113 4494 88 4460 69C4431 51 4393 50 4382 50C4334 50 4289 73 4289 115C4289 185 4451 192 4494 194Z" stroke="rgb(0,0,0)" stroke-opacity="1" stroke-width="8" fill="rgb(0,0,0)" fill-opacity="1"></path></g></g></g></g><g><g><g><g transform="matrix(1,0,0,1,77.53125,311.03125)"><path transform="matrix(0.017,0,0,-0.017,0,0)" d="M577 681C514 705 460 716 394 716C202 716 67 543 67 347C67 154 200 -22 395 -22C478 -22 517 -9 588 34L582 103C510 52 465 42 396 42C245 42 156 194 156 347C156 510 254 652 393 652C472 652 520 627 562 600ZM1036 289C1036 391 963 461 871 461C806 461 761 445 714 418L720 352C772 389 822 402 871 402C918 402 958 362 958 288L958 245C808 243 681 201 681 113C681 70 708 -11 795 -11C809 -11 903 -9 961 36L961 0L1036 0ZM958 132C958 113 958 88 924 69C895 51 857 50 846 50C798 50 753 73 753 115C753 185 915 192 958 194ZM1291 386L1432 386L1432 444L1291 444L1291 571L1222 571L1222 444L1135 444L1135 386L1219 386L1219 119C1219 59 1233 -11 1302 -11C1372 -11 1423 14 1448 27L1432 86C1406 65 1374 53 1342 53C1305 53 1291 83 1291 136ZM1890 219C1890 421 1783 461 1712 461C1601 461 1511 355 1511 226C1511 94 1607 -11 1727 -11C1790 -11 1847 13 1886 41L1880 106C1817 54 1751 50 1728 50C1648 50 1584 121 1581 219ZM1586 274C1602 350 1655 400 1712 400C1764 400 1820 366 1833 274ZM2094 386L2235 386L2235 444L2094 444L2094 571L2025 571L2025 444L1938 444L1938 386L2022 386L2022 119C2022 59 2036 -11 2105 -11C2175 -11 2226 14 2251 27L2235 86C2209 65 2177 53 2145 53C2108 53 2094 83 2094 136ZM2748 220C2748 354 2648 461 2529 461C2406 461 2309 351 2309 220C2309 88 2411 -11 2528 -11C2648 -11 2748 90 2748 220ZM2528 53C2459 53 2387 109 2387 230C2387 351 2463 400 2528 400C2598 400 2670 348 2670 230C2670 112 2602 53 2528 53ZM3426 289C3426 391 3353 461 3261 461C3196 461 3151 445 3104 418L3110 352C3162 389 3212 402 3261 402C3308 402 3348 362 3348 288L3348 245C3198 243 3071 201 3071 113C3071 70 3098 -11 3185 -11C3199 -11 3293 -9 3351 36L3351 0L3426 0ZM3348 132C3348 113 3348 88 3314 69C3285 51 3247 50 3236 50C3188 50 3143 73 3143 115C3143 185 3305 192 3348 194ZM3940 694L3865 694L3865 400C3812 444 3756 455 3719 455C3620 455 3542 351 3542 222C3542 91 3619 -11 3714 -11C3747 -11 3806 -2 3862 52L3862 0L3940 0ZM3862 139C3862 125 3861 107 3829 78C3806 58 3781 50 3755 50C3693 50 3620 97 3620 221C3620 353 3706 394 3765 394C3810 394 3840 371 3862 339ZM4467 444L4392 444L4259 57L4114 444L4035 444L4229 0C4185 -113 4172 -148 4136 -148C4120 -148 4088 -144 4058 -132L4064 -197C4086 -202 4114 -205 4136 -205C4171 -205 4208 -193 4249 -91ZM4880 289C4880 391 4807 461 4715 461C4650 461 4605 445 4558 418L4564 352C4616 389 4666 402 4715 402C4762 402 4802 362 4802 288L4802 245C4652 243 4525 201 4525 113C4525 70 4552 -11 4639 -11C4653 -11 4747 -9 4805 36L4805 0L4880 0ZM4802 132C4802 113 4802 88 4768 69C4739 51 4701 50 4690 50C4642 50 4597 73 4597 115C4597 185 4759 192 4802 194ZM5370 418C5311 452 5277 461 5216 461C5077 461 4996 340 4996 222C4996 98 5087 -11 5212 -11C5266 -11 5321 3 5375 40L5369 107C5318 67 5264 53 5213 53C5130 53 5074 125 5074 223C5074 301 5111 397 5217 397C5269 397 5303 389 5358 353ZM5817 219C5817 421 5710 461 5639 461C5528 461 5438 355 5438 226C5438 94 5534 -11 5654 -11C5717 -11 5774 13 5813 41L5807 106C5744 54 5678 50 5655 50C5575 50 5511 121 5508 219ZM5513 274C5529 350 5582 400 5639 400C5691 400 5747 366 5760 274ZM6281 298C6281 364 6266 455 6144 455C6054 455 6005 387 5999 379L5999 450L5927 450L5927 0L6005 0L6005 245C6005 311 6030 394 6106 394C6202 394 6203 323 6203 291L6203 0L6281 0ZM6536 386L6677 386L6677 444L6536 444L6536 571L6467 571L6467 444L6380 444L6380 386L6464 386L6464 119C6464 59 6478 -11 6547 -11C6617 -11 6668 14 6693 27L6677 86C6651 65 6619 53 6587 53C6550 53 6536 83 6536 136ZM7135 219C7135 421 7028 461 6957 461C6846 461 6756 355 6756 226C6756 94 6852 -11 6972 -11C7035 -11 7092 13 7131 41L7125 106C7062 54 6996 50 6973 50C6893 50 6829 121 6826 219ZM6831 274C6847 350 6900 400 6957 400C7009 400 7065 366 7078 274Z" stroke="rgb(0,0,0)" stroke-opacity="1" stroke-width="8" fill="rgb(0,0,0)" fill-opacity="1"></path></g></g></g></g><line style="fill:none;stroke-width:1px;stroke:rgb(0, 0, 0);" x1="77.53125" y1="293.390625" x2="199.328125" y2="293.390625"></line></g></g><g></g><g><g><g transform="matrix(1,0,0,1,10.578125,364.203125)"><path transform="matrix(0.017,0,0,-0.017,0,0)" d="M577 681C514 705 460 716 394 716C202 716 67 543 67 347C67 154 200 -22 395 -22C478 -22 517 -9 588 34L582 103C510 52 465 42 396 42C245 42 156 194 156 347C156 510 254 652 393 652C472 652 520 627 562 600ZM1106 220C1106 354 1006 461 887 461C764 461 667 351 667 220C667 88 769 -11 886 -11C1006 -11 1106 90 1106 220ZM886 53C817 53 745 109 745 230C745 351 821 400 886 400C956 400 1028 348 1028 230C1028 112 960 53 886 53ZM1496 128C1496 183 1459 217 1457 220C1418 255 1391 261 1341 270C1286 281 1240 291 1240 340C1240 402 1312 402 1325 402C1357 402 1410 398 1467 364L1479 429C1427 453 1386 461 1335 461C1310 461 1169 461 1169 330C1169 281 1198 249 1223 230C1254 208 1276 204 1331 193C1367 186 1425 174 1425 121C1425 52 1346 52 1331 52C1250 52 1194 89 1176 101L1164 33C1196 17 1251 -11 1332 -11C1470 -11 1496 75 1496 128ZM1932 219C1932 421 1825 461 1754 461C1643 461 1553 355 1553 226C1553 94 1649 -11 1769 -11C1832 -11 1889 13 1928 41L1922 106C1859 54 1793 50 1770 50C1690 50 1626 121 1623 219ZM1628 274C1644 350 1697 400 1754 400C1806 400 1862 366 1875 274ZM2371 418C2312 452 2278 461 2217 461C2078 461 1997 340 1997 222C1997 98 2088 -11 2213 -11C2267 -11 2322 3 2376 40L2370 107C2319 67 2265 53 2214 53C2131 53 2075 125 2075 223C2075 301 2112 397 2218 397C2270 397 2304 389 2359 353ZM2951 504C2933 618 2887 702 2760 702C2500 702 2464 412 2498 199C2517 80 2568 -16 2704 -16C2940 -16 2980 316 2951 504ZM2882 381L2566 381C2573 485 2617 676 2746 676C2832 676 2865 585 2876 517C2883 472 2882 426 2882 381ZM2882 349C2877 237 2858 13 2715 13C2613 13 2585 125 2573 203C2565 252 2566 301 2566 349Z" stroke="rgb(0,0,0)" stroke-opacity="1" stroke-width="8" fill="rgb(0,0,0)" fill-opacity="1"></path></g></g><g><g transform="matrix(1,0,0,1,71.203125,364.203125)"><path transform="matrix(0.017,0,0,-0.017,0,0)" d="M604 347L604 406L65 406L65 347ZM604 134L604 193L65 193L65 134Z" stroke="rgb(0,0,0)" stroke-opacity="1" stroke-width="8" fill="rgb(0,0,0)" fill-opacity="1"></path></g></g><g><g transform="matrix(1,0,0,1,87.65625,364.203125)"><path transform="matrix(0.017,0,0,-0.017,0,0)" d="" stroke="rgb(0,0,0)" stroke-opacity="1" stroke-width="8" fill="rgb(0,0,0)" fill-opacity="1"></path></g></g><g><g><g><g><g transform="matrix(1,0,0,1,93.578125,351.8125)"><path transform="matrix(0.017,0,0,-0.017,0,0)" d="M577 681C514 705 460 716 394 716C202 716 67 543 67 347C67 154 200 -22 395 -22C478 -22 517 -9 588 34L582 103C510 52 465 42 396 42C245 42 156 194 156 347C156 510 254 652 393 652C472 652 520 627 562 600ZM1036 289C1036 391 963 461 871 461C806 461 761 445 714 418L720 352C772 389 822 402 871 402C918 402 958 362 958 288L958 245C808 243 681 201 681 113C681 70 708 -11 795 -11C809 -11 903 -9 961 36L961 0L1036 0ZM958 132C958 113 958 88 924 69C895 51 857 50 846 50C798 50 753 73 753 115C753 185 915 192 958 194ZM1291 386L1432 386L1432 444L1291 444L1291 571L1222 571L1222 444L1135 444L1135 386L1219 386L1219 119C1219 59 1233 -11 1302 -11C1372 -11 1423 14 1448 27L1432 86C1406 65 1374 53 1342 53C1305 53 1291 83 1291 136ZM1890 219C1890 421 1783 461 1712 461C1601 461 1511 355 1511 226C1511 94 1607 -11 1727 -11C1790 -11 1847 13 1886 41L1880 106C1817 54 1751 50 1728 50C1648 50 1584 121 1581 219ZM1586 274C1602 350 1655 400 1712 400C1764 400 1820 366 1833 274ZM2094 386L2235 386L2235 444L2094 444L2094 571L2025 571L2025 444L1938 444L1938 386L2022 386L2022 119C2022 59 2036 -11 2105 -11C2175 -11 2226 14 2251 27L2235 86C2209 65 2177 53 2145 53C2108 53 2094 83 2094 136ZM2748 220C2748 354 2648 461 2529 461C2406 461 2309 351 2309 220C2309 88 2411 -11 2528 -11C2648 -11 2748 90 2748 220ZM2528 53C2459 53 2387 109 2387 230C2387 351 2463 400 2528 400C2598 400 2670 348 2670 230C2670 112 2602 53 2528 53ZM3496 220C3496 354 3396 461 3277 461C3154 461 3057 351 3057 220C3057 88 3159 -11 3276 -11C3396 -11 3496 90 3496 220ZM3276 53C3207 53 3135 109 3135 230C3135 351 3211 400 3276 400C3346 400 3418 348 3418 230C3418 112 3350 53 3276 53ZM3686 46C3717 17 3761 -11 3821 -11C3918 -11 4006 87 4006 223C4006 343 3943 455 3847 455C3787 455 3729 434 3683 395L3683 444L3608 444L3608 -194L3686 -194ZM3686 333C3710 368 3749 391 3792 391C3868 391 3928 315 3928 223C3928 120 3857 50 3782 50C3743 50 3716 70 3696 97C3686 112 3686 114 3686 132ZM4476 444L4398 444L4398 154C4398 79 4342 44 4278 44C4207 44 4200 70 4200 113L4200 444L4122 444L4122 109C4122 37 4145 -11 4228 -11C4281 -11 4352 5 4401 48L4401 0L4476 0ZM4970 219C4970 421 4863 461 4792 461C4681 461 4591 355 4591 226C4591 94 4687 -11 4807 -11C4870 -11 4927 13 4966 41L4960 106C4897 54 4831 50 4808 50C4728 50 4664 121 4661 219ZM4666 274C4682 350 4735 400 4792 400C4844 400 4900 366 4913 274ZM5359 128C5359 183 5322 217 5320 220C5281 255 5254 261 5204 270C5149 281 5103 291 5103 340C5103 402 5175 402 5188 402C5220 402 5273 398 5330 364L5342 429C5290 453 5249 461 5198 461C5173 461 5032 461 5032 330C5032 281 5061 249 5086 230C5117 208 5139 204 5194 193C5230 186 5288 174 5288 121C5288 52 5209 52 5194 52C5113 52 5057 89 5039 101L5027 33C5059 17 5114 -11 5195 -11C5333 -11 5359 75 5359 128ZM5556 386L5697 386L5697 444L5556 444L5556 571L5487 571L5487 444L5400 444L5400 386L5484 386L5484 119C5484 59 5498 -11 5567 -11C5637 -11 5688 14 5713 27L5697 86C5671 65 5639 53 5607 53C5570 53 5556 83 5556 136ZM6210 220C6210 354 6110 461 5991 461C5868 461 5771 351 5771 220C5771 88 5873 -11 5990 -11C6110 -11 6210 90 6210 220ZM5990 53C5921 53 5849 109 5849 230C5849 351 5925 400 5990 400C6060 400 6132 348 6132 230C6132 112 6064 53 5990 53Z" stroke="rgb(0,0,0)" stroke-opacity="1" stroke-width="8" fill="rgb(0,0,0)" fill-opacity="1"></path></g></g></g></g><g><g><g><g transform="matrix(1,0,0,1,107.078125,377.59375)"><path transform="matrix(0.017,0,0,-0.017,0,0)" d="M613 694L524 694L524 391L183 391L183 694L94 694L94 0L183 0L183 330L524 330L524 0L613 0ZM870 680L781 680L781 591L870 591ZM863 444L788 444L788 0L863 0ZM1104 46C1135 17 1179 -11 1239 -11C1336 -11 1424 87 1424 223C1424 343 1361 455 1265 455C1205 455 1147 434 1101 395L1101 444L1026 444L1026 -194L1104 -194ZM1104 333C1128 368 1167 391 1210 391C1286 391 1346 315 1346 223C1346 120 1275 50 1200 50C1161 50 1134 70 1114 97C1104 112 1104 114 1104 132ZM1928 220C1928 354 1828 461 1709 461C1586 461 1489 351 1489 220C1489 88 1591 -11 1708 -11C1828 -11 1928 90 1928 220ZM1708 53C1639 53 1567 109 1567 230C1567 351 1643 400 1708 400C1778 400 1850 348 1850 230C1850 112 1782 53 1708 53ZM2133 386L2274 386L2274 444L2133 444L2133 571L2064 571L2064 444L1977 444L1977 386L2061 386L2061 119C2061 59 2075 -11 2144 -11C2214 -11 2265 14 2290 27L2274 86C2248 65 2216 53 2184 53C2147 53 2133 83 2133 136ZM2732 219C2732 421 2625 461 2554 461C2443 461 2353 355 2353 226C2353 94 2449 -11 2569 -11C2632 -11 2689 13 2728 41L2722 106C2659 54 2593 50 2570 50C2490 50 2426 121 2423 219ZM2428 274C2444 350 2497 400 2554 400C2606 400 2662 366 2675 274ZM3196 298C3196 364 3181 455 3059 455C2969 455 2920 387 2914 379L2914 450L2842 450L2842 0L2920 0L2920 245C2920 311 2945 394 3021 394C3117 394 3118 323 3118 291L3118 0L3196 0ZM3711 444L3633 444L3633 154C3633 79 3577 44 3513 44C3442 44 3435 70 3435 113L3435 444L3357 444L3357 109C3357 37 3380 -11 3463 -11C3516 -11 3587 5 3636 48L3636 0L3711 0ZM4151 128C4151 183 4114 217 4112 220C4073 255 4046 261 3996 270C3941 281 3895 291 3895 340C3895 402 3967 402 3980 402C4012 402 4065 398 4122 364L4134 429C4082 453 4041 461 3990 461C3965 461 3824 461 3824 330C3824 281 3853 249 3878 230C3909 208 3931 204 3986 193C4022 186 4080 174 4080 121C4080 52 4001 52 3986 52C3905 52 3849 89 3831 101L3819 33C3851 17 3906 -11 3987 -11C4125 -11 4151 75 4151 128ZM4572 289C4572 391 4499 461 4407 461C4342 461 4297 445 4250 418L4256 352C4308 389 4358 402 4407 402C4454 402 4494 362 4494 288L4494 245C4344 243 4217 201 4217 113C4217 70 4244 -11 4331 -11C4345 -11 4439 -9 4497 36L4497 0L4572 0ZM4494 132C4494 113 4494 88 4460 69C4431 51 4393 50 4382 50C4334 50 4289 73 4289 115C4289 185 4451 192 4494 194Z" stroke="rgb(0,0,0)" stroke-opacity="1" stroke-width="8" fill="rgb(0,0,0)" fill-opacity="1"></path></g></g></g></g><line style="fill:none;stroke-width:1px;stroke:rgb(0, 0, 0);" x1="93.578125" y1="359.953125" x2="199.671875" y2="359.953125"></line></g></g></g></svg>