<svg version="1.1" xmlns="http://www.w3.org/2000/svg" viewBox="0 0 826.4561987022848 219.72598079642586" width="826.4561987022848" height="219.72598079642586">
  <!-- svg-source:excalidraw -->
  
  <defs>
    <style>
      @font-face {
        font-family: "Virgil";
        src: url("https://excalidraw.com/Virgil.woff2");
      }
      @font-face {
        font-family: "Cascadia";
        src: url("https://excalidraw.com/Cascadia.woff2");
      }
    </style>
  </defs>
  <g stroke-linecap="round"><g transform="translate(164.45939219031197 50.05201822102612) rotate(0 93.37072841569966 0)"><path d="M0 0 C42.27 0, 84.53 0, 186.74 0 M0 0 C72.3 0, 144.61 0, 186.74 0" stroke="#000000" stroke-width="1" fill="none"></path></g></g><g transform="translate(10 29.8986798262967) rotate(0 58 16)"><text x="58" y="25" font-family="Helvetica, Segoe UI Emoji" font-size="28px" fill="#000000" text-anchor="middle" style="white-space: pre;" direction="ltr">10.5 gr P</text></g><g transform="translate(201.6494537945614 10) rotate(0 48.5 16)"><text x="48.5" y="25" font-family="Helvetica, Segoe UI Emoji" font-size="28px" fill="#000000" text-anchor="middle" style="white-space: pre;" direction="ltr">1 mol P</text></g><g transform="translate(207.2107891524538 53.950698047322874) rotate(0 46 16)"><text x="46" y="25" font-family="Helvetica, Segoe UI Emoji" font-size="28px" fill="#000000" text-anchor="middle" style="white-space: pre;" direction="ltr">31 gr P</text></g><g transform="translate(135.34937787361923 53.11335357891795) rotate(0 6.122670715783443 -6.122670715783585)" stroke="none"><path fill="#000000" d="M -1.05,-2.10 Q -1.05,-2.10 0.73,-2.88 2.51,-3.67 3.43,-4.70 4.34,-5.73 5.27,-6.74 6.20,-7.76 7.63,-8.75 9.06,-9.73 9.47,-11.07 9.87,-12.41 10.03,-12.75 10.20,-13.09 10.46,-13.35 10.72,-13.62 11.06,-13.79 11.39,-13.96 11.76,-14.02 12.14,-14.07 12.50,-14.00 12.87,-13.94 13.20,-13.75 13.53,-13.57 13.79,-13.30 14.04,-13.02 14.19,-12.68 14.34,-12.33 14.38,-11.96 14.41,-11.58 14.32,-11.22 14.24,-10.85 14.04,-10.53 13.84,-10.22 13.55,-9.98 13.26,-9.74 12.91,-9.61 12.55,-9.47 12.18,-9.46 11.80,-9.45 11.44,-9.55 11.08,-9.66 10.78,-9.88 10.47,-10.09 10.25,-10.40 10.03,-10.70 9.91,-11.06 9.80,-11.41 9.80,-11.79 9.81,-12.16 9.94,-12.52 10.06,-12.87 10.30,-13.17 10.53,-13.46 10.84,-13.67 11.16,-13.87 11.52,-13.97 11.88,-14.06 12.26,-14.03 12.63,-14.01 12.98,-13.86 13.33,-13.72 13.61,-13.47 13.89,-13.22 14.08,-12.90 14.27,-12.57 14.34,-12.20 14.41,-11.83 14.37,-11.46 14.32,-11.09 14.32,-11.09 14.32,-11.09 12.97,-8.60 11.63,-6.10 10.50,-5.38 9.36,-4.66 8.40,-3.73 7.44,-2.80 5.98,-1.32 4.52,0.15 2.78,1.12 1.05,2.10 0.78,2.20 0.51,2.29 0.23,2.32 -0.04,2.35 -0.32,2.31 -0.60,2.27 -0.87,2.16 -1.13,2.06 -1.36,1.89 -1.59,1.73 -1.77,1.51 -1.96,1.29 -2.09,1.04 -2.21,0.79 -2.28,0.51 -2.34,0.23 -2.33,-0.04 -2.33,-0.32 -2.25,-0.60 -2.18,-0.87 -2.04,-1.12 -1.91,-1.37 -1.71,-1.58 -1.52,-1.79 -1.28,-1.94 -1.05,-2.10 -1.05,-2.10 L -1.05,-2.10 Z"></path></g><g transform="translate(133.81871019467326 40.86801214735078) rotate(0 6.88800455525643 6.888004555256515)" stroke="none"><path fill="#000000" d="M 1.29,-1.94 Q 1.29,-1.94 2.61,-1.04 3.94,-0.14 5.51,1.83 7.08,3.82 8.13,4.94 9.17,6.06 10.08,6.94 10.99,7.82 11.84,8.60 12.68,9.39 13.83,10.49 14.99,11.58 15.21,11.90 15.44,12.21 15.55,12.59 15.66,12.96 15.65,13.35 15.64,13.74 15.50,14.10 15.37,14.47 15.12,14.77 14.87,15.07 14.55,15.28 14.22,15.49 13.84,15.58 13.46,15.67 13.07,15.64 12.68,15.60 12.33,15.45 11.97,15.29 11.68,15.03 11.39,14.77 11.20,14.43 11.01,14.09 10.94,13.71 10.87,13.32 10.92,12.94 10.98,12.55 11.15,12.20 11.33,11.86 11.61,11.58 11.88,11.31 12.23,11.14 12.58,10.97 12.97,10.92 13.35,10.87 13.74,10.94 14.12,11.02 14.46,11.21 14.79,11.40 15.05,11.69 15.31,11.99 15.46,12.34 15.62,12.70 15.65,13.09 15.67,13.48 15.58,13.86 15.48,14.23 15.27,14.56 15.06,14.89 14.75,15.13 14.45,15.37 14.08,15.51 13.72,15.64 13.33,15.65 12.94,15.65 12.57,15.54 12.19,15.42 11.88,15.19 11.56,14.96 11.57,14.96 11.57,14.96 10.47,13.79 9.38,12.61 8.59,11.73 7.80,10.85 6.94,9.86 6.07,8.87 5.01,7.67 3.96,6.47 2.65,5.07 1.33,3.66 0.02,2.80 -1.29,1.94 -1.50,1.75 -1.72,1.57 -1.88,1.34 -2.04,1.11 -2.15,0.85 -2.25,0.59 -2.29,0.31 -2.33,0.03 -2.30,-0.24 -2.27,-0.52 -2.17,-0.78 -2.08,-1.05 -1.92,-1.28 -1.77,-1.51 -1.56,-1.70 -1.35,-1.89 -1.10,-2.03 -0.86,-2.16 -0.59,-2.23 -0.31,-2.31 -0.03,-2.31 0.24,-2.31 0.51,-2.25 0.79,-2.19 1.04,-2.06 1.29,-1.94 1.29,-1.94 L 1.29,-1.94 Z"></path></g><g transform="translate(381.7868741839088 57.70535661575565) rotate(0 5.357336876310455 0)" stroke="none"><path fill="#000000" d="M 0,-2.33 Q 0,-2.33 1.32,-2.36 2.64,-2.38 4.50,-2.48 6.37,-2.58 7.96,-2.66 9.55,-2.74 9.88,-2.70 10.21,-2.66 10.52,-2.54 10.83,-2.42 11.10,-2.24 11.37,-2.05 11.59,-1.80 11.81,-1.55 11.96,-1.26 12.12,-0.97 12.20,-0.65 12.28,-0.33 12.28,0.00 12.28,0.33 12.20,0.65 12.12,0.97 11.96,1.26 11.81,1.55 11.59,1.80 11.37,2.05 11.10,2.24 10.83,2.42 10.52,2.54 10.21,2.66 9.88,2.70 9.55,2.74 6.80,2.53 4.06,2.32 3.69,2.26 3.31,2.20 2.98,2.02 2.65,1.84 2.39,1.57 2.13,1.30 1.98,0.96 1.82,0.62 1.78,0.24 1.74,-0.12 1.82,-0.49 1.90,-0.85 2.09,-1.18 2.29,-1.50 2.57,-1.74 2.86,-1.99 3.21,-2.12 3.56,-2.26 3.93,-2.28 4.31,-2.30 4.67,-2.20 5.03,-2.10 5.34,-1.89 5.65,-1.68 5.88,-1.38 6.11,-1.08 6.23,-0.73 6.35,-0.37 6.35,0.00 6.35,0.37 6.23,0.73 6.11,1.08 5.88,1.38 5.65,1.68 5.34,1.89 5.03,2.10 4.67,2.20 4.31,2.30 3.93,2.28 3.56,2.26 3.21,2.12 2.86,1.98 2.57,1.74 2.29,1.50 2.09,1.18 1.90,0.85 1.82,0.49 1.74,0.12 1.78,-0.24 1.82,-0.62 1.98,-0.96 2.13,-1.30 2.39,-1.57 2.65,-1.84 2.98,-2.02 3.32,-2.20 3.69,-2.26 4.06,-2.32 4.06,-2.32 4.06,-2.32 6.80,-2.53 9.55,-2.74 9.88,-2.70 10.21,-2.66 10.52,-2.54 10.83,-2.42 11.10,-2.24 11.37,-2.05 11.59,-1.80 11.81,-1.55 11.96,-1.26 12.12,-0.97 12.20,-0.65 12.28,-0.33 12.28,-0.00 12.28,0.33 12.20,0.65 12.12,0.97 11.96,1.26 11.81,1.55 11.59,1.80 11.37,2.05 11.10,2.24 10.83,2.42 10.52,2.54 10.21,2.66 9.88,2.70 9.55,2.74 7.96,2.66 6.37,2.58 4.50,2.48 2.64,2.38 1.32,2.36 0,2.33 -0.27,2.30 -0.55,2.26 -0.82,2.16 -1.08,2.06 -1.31,1.90 -1.54,1.74 -1.73,1.53 -1.92,1.32 -2.05,1.07 -2.18,0.82 -2.25,0.55 -2.31,0.28 -2.31,-0.00 -2.31,-0.28 -2.25,-0.55 -2.18,-0.82 -2.05,-1.07 -1.92,-1.32 -1.73,-1.53 -1.54,-1.74 -1.31,-1.90 -1.08,-2.06 -0.82,-2.16 -0.55,-2.26 -0.27,-2.30 0.00,-2.33 0.00,-2.33 L 0,-2.33 Z"></path></g><g transform="translate(394.0322156154757 57.70535661575565) rotate(0 0.00005000000010113581 0.00005000000000165983)" stroke="none"><path fill="#000000" d="M 1.57,-1.57 Q 1.57,-1.57 1.77,-1.27 1.98,-0.98 2.09,-0.64 2.20,-0.29 2.19,0.05 2.18,0.41 2.05,0.75 1.93,1.09 1.70,1.37 1.48,1.65 1.18,1.84 0.87,2.04 0.52,2.12 0.18,2.21 -0.17,2.18 -0.53,2.15 -0.86,2.01 -1.19,1.87 -1.46,1.63 -1.73,1.39 -1.90,1.07 -2.08,0.76 -2.15,0.41 -2.21,0.05 -2.17,-0.29 -2.12,-0.65 -1.96,-0.97 -1.80,-1.29 -1.54,-1.54 -1.29,-1.80 -0.97,-1.96 -0.65,-2.12 -0.29,-2.17 0.06,-2.21 0.41,-2.15 0.76,-2.08 1.07,-1.90 1.39,-1.73 1.63,-1.46 1.87,-1.19 2.01,-0.86 2.15,-0.53 2.18,-0.17 2.21,0.18 2.12,0.52 2.03,0.87 1.84,1.18 1.65,1.48 1.37,1.70 1.09,1.93 0.75,2.05 0.41,2.18 0.05,2.19 -0.30,2.20 -0.64,2.09 -0.98,1.98 -1.27,1.77 -1.57,1.56 -1.57,1.57 -1.57,1.57 -1.73,1.35 -1.90,1.14 -2.01,0.90 -2.12,0.66 -2.16,0.39 -2.21,0.13 -2.20,-0.13 -2.18,-0.40 -2.10,-0.65 -2.02,-0.91 -1.88,-1.14 -1.74,-1.36 -1.55,-1.55 -1.36,-1.74 -1.14,-1.88 -0.91,-2.02 -0.65,-2.10 -0.40,-2.18 -0.13,-2.20 0.13,-2.21 0.39,-2.16 0.66,-2.12 0.90,-2.01 1.14,-1.90 1.35,-1.73 1.57,-1.57 1.57,-1.57 L 1.57,-1.57 Z"></path></g><g transform="translate(384.08287570232824 48.521350542080256) rotate(0 5.357336876310455 0)" stroke="none"><path fill="#000000" d="M 0,-2.33 Q 0,-2.33 1.32,-2.36 2.64,-2.38 4.50,-2.48 6.37,-2.58 7.96,-2.66 9.55,-2.74 9.88,-2.70 10.21,-2.66 10.52,-2.54 10.83,-2.42 11.10,-2.24 11.37,-2.05 11.59,-1.80 11.81,-1.55 11.96,-1.26 12.12,-0.97 12.20,-0.65 12.28,-0.33 12.28,0.00 12.28,0.33 12.20,0.65 12.12,0.97 11.96,1.26 11.81,1.55 11.59,1.80 11.37,2.05 11.10,2.24 10.83,2.42 10.52,2.54 10.21,2.66 9.88,2.70 9.55,2.74 6.80,2.53 4.06,2.32 3.69,2.26 3.31,2.20 2.98,2.02 2.65,1.84 2.39,1.57 2.13,1.30 1.98,0.96 1.82,0.62 1.78,0.24 1.74,-0.12 1.82,-0.49 1.90,-0.85 2.09,-1.18 2.29,-1.50 2.57,-1.74 2.86,-1.99 3.21,-2.12 3.56,-2.26 3.93,-2.28 4.31,-2.30 4.67,-2.20 5.03,-2.10 5.34,-1.89 5.65,-1.68 5.88,-1.38 6.11,-1.08 6.23,-0.73 6.35,-0.37 6.35,0.00 6.35,0.37 6.23,0.73 6.11,1.08 5.88,1.38 5.65,1.68 5.34,1.89 5.03,2.10 4.67,2.20 4.31,2.30 3.93,2.28 3.56,2.26 3.21,2.12 2.86,1.98 2.57,1.74 2.29,1.50 2.09,1.18 1.90,0.85 1.82,0.49 1.74,0.12 1.78,-0.24 1.82,-0.62 1.98,-0.96 2.13,-1.30 2.39,-1.57 2.65,-1.84 2.98,-2.02 3.32,-2.20 3.69,-2.26 4.06,-2.32 4.06,-2.32 4.06,-2.32 6.80,-2.53 9.55,-2.74 9.88,-2.70 10.21,-2.66 10.52,-2.54 10.83,-2.42 11.10,-2.24 11.37,-2.05 11.59,-1.80 11.81,-1.55 11.96,-1.26 12.12,-0.97 12.20,-0.65 12.28,-0.33 12.28,-0.00 12.28,0.33 12.20,0.65 12.12,0.97 11.96,1.26 11.81,1.55 11.59,1.80 11.37,2.05 11.10,2.24 10.83,2.42 10.52,2.54 10.21,2.66 9.88,2.70 9.55,2.74 7.96,2.66 6.37,2.58 4.50,2.48 2.64,2.38 1.32,2.36 0,2.33 -0.27,2.30 -0.55,2.26 -0.82,2.16 -1.08,2.06 -1.31,1.90 -1.54,1.74 -1.73,1.53 -1.92,1.32 -2.05,1.07 -2.18,0.82 -2.25,0.55 -2.31,0.28 -2.31,-0.00 -2.31,-0.28 -2.25,-0.55 -2.18,-0.82 -2.05,-1.07 -1.92,-1.32 -1.73,-1.53 -1.54,-1.74 -1.31,-1.90 -1.08,-2.06 -0.82,-2.16 -0.55,-2.26 -0.27,-2.30 0.00,-2.33 0.00,-2.33 L 0,-2.33 Z"></path></g><g transform="translate(422.3202537937259 21.042047937273253) rotate(0 68 16)"><text x="68" y="25" font-family="Helvetica, Segoe UI Emoji" font-size="28px" fill="#000000" text-anchor="middle" style="white-space: pre;" direction="ltr">0.33 mol P</text></g><g stroke-opacity="0.3" fill-opacity="0.3" transform="translate(72.97690553659345 60.95216129397289) rotate(0 24.05342819560076 -11.275044466687774)" stroke="none"><path fill="#000000" d="M 0,-2.07 Q 0,-2.07 1.28,-2.12 2.56,-2.17 3.66,-2.58 4.77,-2.99 6.13,-3.56 7.49,-4.14 9.49,-4.76 11.50,-5.39 13.51,-6.40 15.53,-7.41 17.22,-8.63 18.91,-9.86 20.59,-10.92 22.27,-11.97 23.49,-12.56 24.72,-13.14 26.45,-14.19 28.19,-15.24 29.41,-15.82 30.64,-16.39 31.89,-17.08 33.15,-17.78 34.54,-18.47 35.94,-19.17 36.78,-19.83 37.63,-20.48 39.04,-21.28 40.45,-22.09 41.29,-22.77 42.14,-23.46 44.66,-24.24 47.17,-25.01 47.59,-25.02 48.01,-25.02 48.40,-24.89 48.80,-24.76 49.14,-24.51 49.47,-24.25 49.71,-23.91 49.95,-23.56 50.06,-23.16 50.18,-22.76 50.16,-22.34 50.14,-21.92 49.98,-21.53 49.83,-21.14 49.56,-20.82 49.29,-20.50 48.93,-20.28 48.58,-20.06 48.17,-19.97 47.76,-19.87 47.34,-19.92 46.93,-19.96 46.54,-20.13 46.16,-20.31 45.86,-20.59 45.55,-20.88 45.35,-21.25 45.15,-21.62 45.08,-22.03 45.01,-22.44 45.08,-22.86 45.14,-23.27 45.34,-23.64 45.53,-24.02 45.83,-24.31 46.14,-24.60 46.52,-24.77 46.90,-24.95 47.31,-25.00 47.73,-25.05 48.14,-24.96 48.55,-24.87 48.91,-24.66 49.27,-24.44 49.54,-24.13 49.82,-23.81 49.97,-23.42 50.13,-23.03 50.16,-22.61 50.18,-22.20 50.07,-21.79 49.96,-21.39 49.73,-21.04 49.49,-20.69 49.16,-20.43 48.83,-20.18 48.43,-20.04 48.04,-19.91 48.04,-19.91 48.04,-19.91 46.59,-19.66 45.14,-19.42 44.02,-18.61 42.91,-17.80 41.73,-17.12 40.54,-16.43 39.36,-15.63 38.18,-14.82 36.83,-14.12 35.49,-13.41 34.36,-12.83 33.24,-12.24 32.03,-11.66 30.82,-11.08 29.58,-10.99 28.35,-10.91 26.20,-10.00 24.06,-9.09 22.52,-8.13 20.98,-7.17 19.14,-5.68 17.30,-4.19 15.09,-2.88 12.88,-1.57 11.05,-0.81 9.21,-0.04 7.64,0.60 6.07,1.26 4.34,1.71 2.62,2.17 1.31,2.12 0,2.07 -0.24,2.04 -0.49,2.01 -0.73,1.92 -0.96,1.83 -1.17,1.69 -1.37,1.55 -1.54,1.36 -1.70,1.17 -1.82,0.95 -1.94,0.73 -2.00,0.49 -2.06,0.25 -2.06,-0.00 -2.06,-0.25 -2.00,-0.49 -1.94,-0.73 -1.82,-0.95 -1.70,-1.17 -1.54,-1.36 -1.37,-1.55 -1.17,-1.69 -0.96,-1.83 -0.73,-1.92 -0.49,-2.01 -0.24,-2.04 0.00,-2.07 0.00,-2.07 L 0,-2.07 Z"></path></g><g stroke-opacity="0.3" fill-opacity="0.3" transform="translate(242.85424216802267 85.00558948957354) rotate(0 32.321794137838424 -12.778383728912843)" stroke="none"><path fill="#000000" d="M -1.28,-0.96 Q -1.28,-0.96 0.06,-2.69 1.42,-4.41 3.03,-5.41 4.65,-6.41 8.80,-8.01 12.96,-9.61 16.01,-10.69 19.06,-11.78 21.77,-12.27 24.48,-12.75 27.73,-13.36 30.99,-13.98 33.63,-14.65 36.27,-15.33 38.22,-16.03 40.16,-16.74 42.32,-17.48 44.48,-18.21 46.70,-18.96 48.91,-19.70 51.53,-20.86 54.14,-22.01 56.04,-23.32 57.94,-24.63 60.50,-25.65 63.06,-26.67 63.31,-26.71 63.56,-26.75 63.81,-26.71 64.06,-26.67 64.28,-26.55 64.51,-26.43 64.68,-26.25 64.86,-26.07 64.96,-25.84 65.07,-25.61 65.10,-25.36 65.13,-25.10 65.07,-24.86 65.02,-24.61 64.89,-24.39 64.76,-24.18 64.56,-24.01 64.37,-23.85 64.14,-23.75 63.90,-23.66 63.65,-23.64 63.40,-23.63 63.15,-23.70 62.91,-23.76 62.70,-23.91 62.49,-24.05 62.33,-24.25 62.18,-24.45 62.10,-24.69 62.02,-24.93 62.02,-25.18 62.02,-25.44 62.10,-25.68 62.18,-25.92 62.33,-26.12 62.48,-26.32 62.69,-26.46 62.90,-26.61 63.15,-26.67 63.39,-26.74 63.64,-26.73 63.90,-26.72 64.13,-26.62 64.37,-26.53 64.56,-26.37 64.75,-26.20 64.88,-25.99 65.02,-25.77 65.07,-25.52 65.13,-25.27 65.10,-25.02 65.07,-24.77 64.97,-24.54 64.86,-24.31 64.69,-24.13 64.51,-23.94 64.29,-23.82 64.06,-23.70 64.06,-23.70 64.06,-23.70 61.74,-23.07 59.42,-22.43 57.32,-21.00 55.23,-19.58 52.50,-18.37 49.78,-17.16 47.57,-16.41 45.37,-15.66 43.23,-14.91 41.10,-14.17 39.04,-13.41 36.97,-12.65 34.25,-11.93 31.53,-11.20 28.27,-10.55 25.01,-9.89 22.55,-9.43 20.10,-8.96 17.11,-7.82 14.12,-6.67 10.15,-5.06 6.19,-3.44 4.97,-2.96 3.76,-2.49 2.52,-0.76 1.28,0.96 1.15,1.10 1.01,1.24 0.85,1.34 0.68,1.45 0.50,1.51 0.32,1.57 0.12,1.58 -0.06,1.60 -0.25,1.57 -0.44,1.54 -0.62,1.46 -0.80,1.39 -0.95,1.27 -1.11,1.15 -1.23,1.00 -1.35,0.85 -1.43,0.68 -1.52,0.50 -1.56,0.32 -1.60,0.13 -1.59,-0.06 -1.58,-0.25 -1.53,-0.44 -1.47,-0.62 -1.38,-0.79 -1.28,-0.96 -1.28,-0.96 L -1.28,-0.96 Z"></path></g><g stroke-linecap="round"><g transform="translate(204.33382762162364 154.7325254870648) rotate(0 93.37072841569966 0)"><path d="M0 0 C57.96 0, 115.93 0, 186.74 0 M0 0 C66.74 0, 133.47 0, 186.74 0" stroke="#000000" stroke-width="1" fill="none"></path></g></g><g transform="translate(14.834364284610956 139.0892048790105) rotate(0 74.99999999999989 16)"><text x="75" y="25" font-family="Helvetica, Segoe UI Emoji" font-size="28px" fill="#000000" text-anchor="middle" style="white-space: pre;" direction="ltr">22.27 gr O2</text></g><g transform="translate(232.02388922587306 114.68050726603869) rotate(0 58 16)"><text x="58" y="25" font-family="Helvetica, Segoe UI Emoji" font-size="28px" fill="#000000" text-anchor="middle" style="white-space: pre;" direction="ltr">1 mol O2</text></g><g transform="translate(234.57854605931516 160.1345445755866) rotate(0 55.5 16)"><text x="55.5" y="25" font-family="Helvetica, Segoe UI Emoji" font-size="28px" fill="#000000" text-anchor="middle" style="white-space: pre;" direction="ltr">32 gr O2</text></g><g transform="translate(175.22381330493045 157.79386084495664) rotate(0 6.122670715783443 -6.122670715783585)" stroke="none"><path fill="#000000" d="M -1.05,-2.10 Q -1.05,-2.10 0.73,-2.88 2.51,-3.67 3.43,-4.70 4.34,-5.73 5.27,-6.74 6.20,-7.76 7.63,-8.75 9.06,-9.73 9.47,-11.07 9.87,-12.41 10.03,-12.75 10.20,-13.09 10.46,-13.35 10.72,-13.62 11.06,-13.79 11.39,-13.96 11.76,-14.02 12.14,-14.07 12.50,-14.00 12.87,-13.94 13.20,-13.75 13.53,-13.57 13.79,-13.30 14.04,-13.02 14.19,-12.68 14.34,-12.33 14.38,-11.96 14.41,-11.58 14.32,-11.22 14.24,-10.85 14.04,-10.53 13.84,-10.22 13.55,-9.98 13.26,-9.74 12.91,-9.61 12.55,-9.47 12.18,-9.46 11.80,-9.45 11.44,-9.55 11.08,-9.66 10.78,-9.88 10.47,-10.09 10.25,-10.40 10.03,-10.70 9.91,-11.06 9.80,-11.41 9.80,-11.79 9.81,-12.16 9.94,-12.52 10.06,-12.87 10.30,-13.17 10.53,-13.46 10.84,-13.67 11.16,-13.87 11.52,-13.97 11.88,-14.06 12.26,-14.03 12.63,-14.01 12.98,-13.86 13.33,-13.72 13.61,-13.47 13.89,-13.22 14.08,-12.90 14.27,-12.57 14.34,-12.20 14.41,-11.83 14.37,-11.46 14.32,-11.09 14.32,-11.09 14.32,-11.09 12.97,-8.60 11.63,-6.10 10.50,-5.38 9.36,-4.66 8.40,-3.73 7.44,-2.80 5.98,-1.32 4.52,0.15 2.78,1.12 1.05,2.10 0.78,2.20 0.51,2.29 0.23,2.32 -0.04,2.35 -0.32,2.31 -0.60,2.27 -0.87,2.16 -1.13,2.06 -1.36,1.89 -1.59,1.73 -1.77,1.51 -1.96,1.29 -2.09,1.04 -2.21,0.79 -2.28,0.51 -2.34,0.23 -2.33,-0.04 -2.33,-0.32 -2.25,-0.60 -2.18,-0.87 -2.04,-1.12 -1.91,-1.37 -1.71,-1.58 -1.52,-1.79 -1.28,-1.94 -1.05,-2.10 -1.05,-2.10 L -1.05,-2.10 Z"></path></g><g transform="translate(173.69314562598447 145.54851941338947) rotate(0 6.88800455525643 6.888004555256515)" stroke="none"><path fill="#000000" d="M 1.29,-1.94 Q 1.29,-1.94 2.61,-1.04 3.94,-0.14 5.51,1.83 7.08,3.82 8.13,4.94 9.17,6.06 10.08,6.94 10.99,7.82 11.84,8.60 12.68,9.39 13.83,10.49 14.99,11.58 15.21,11.90 15.44,12.21 15.55,12.59 15.66,12.96 15.65,13.35 15.64,13.74 15.50,14.10 15.37,14.47 15.12,14.77 14.87,15.07 14.55,15.28 14.22,15.49 13.84,15.58 13.46,15.67 13.07,15.64 12.68,15.60 12.33,15.45 11.97,15.29 11.68,15.03 11.39,14.77 11.20,14.43 11.01,14.09 10.94,13.71 10.87,13.32 10.92,12.94 10.98,12.55 11.15,12.20 11.33,11.86 11.61,11.58 11.88,11.31 12.23,11.14 12.58,10.97 12.97,10.92 13.35,10.87 13.74,10.94 14.12,11.02 14.46,11.21 14.79,11.40 15.05,11.69 15.31,11.99 15.46,12.34 15.62,12.70 15.65,13.09 15.67,13.48 15.58,13.86 15.48,14.23 15.27,14.56 15.06,14.89 14.75,15.13 14.45,15.37 14.08,15.51 13.72,15.64 13.33,15.65 12.94,15.65 12.57,15.54 12.19,15.42 11.88,15.19 11.56,14.96 11.57,14.96 11.57,14.96 10.47,13.79 9.38,12.61 8.59,11.73 7.80,10.85 6.94,9.86 6.07,8.87 5.01,7.67 3.96,6.47 2.65,5.07 1.33,3.66 0.02,2.80 -1.29,1.94 -1.50,1.75 -1.72,1.57 -1.88,1.34 -2.04,1.11 -2.15,0.85 -2.25,0.59 -2.29,0.31 -2.33,0.03 -2.30,-0.24 -2.27,-0.52 -2.17,-0.78 -2.08,-1.05 -1.92,-1.28 -1.77,-1.51 -1.56,-1.70 -1.35,-1.89 -1.10,-2.03 -0.86,-2.16 -0.59,-2.23 -0.31,-2.31 -0.03,-2.31 0.24,-2.31 0.51,-2.25 0.79,-2.19 1.04,-2.06 1.29,-1.94 1.29,-1.94 L 1.29,-1.94 Z"></path></g><g transform="translate(421.6613096152205 162.38586388179434) rotate(0 5.357336876310455 0)" stroke="none"><path fill="#000000" d="M 0,-2.33 Q 0,-2.33 1.32,-2.36 2.64,-2.38 4.50,-2.48 6.37,-2.58 7.96,-2.66 9.55,-2.74 9.88,-2.70 10.21,-2.66 10.52,-2.54 10.83,-2.42 11.10,-2.24 11.37,-2.05 11.59,-1.80 11.81,-1.55 11.96,-1.26 12.12,-0.97 12.20,-0.65 12.28,-0.33 12.28,0.00 12.28,0.33 12.20,0.65 12.12,0.97 11.96,1.26 11.81,1.55 11.59,1.80 11.37,2.05 11.10,2.24 10.83,2.42 10.52,2.54 10.21,2.66 9.88,2.70 9.55,2.74 6.80,2.53 4.06,2.32 3.69,2.26 3.31,2.20 2.98,2.02 2.65,1.84 2.39,1.57 2.13,1.30 1.98,0.96 1.82,0.62 1.78,0.24 1.74,-0.12 1.82,-0.49 1.90,-0.85 2.09,-1.18 2.29,-1.50 2.57,-1.74 2.86,-1.99 3.21,-2.12 3.56,-2.26 3.93,-2.28 4.31,-2.30 4.67,-2.20 5.03,-2.10 5.34,-1.89 5.65,-1.68 5.88,-1.38 6.11,-1.08 6.23,-0.73 6.35,-0.37 6.35,0.00 6.35,0.37 6.23,0.73 6.11,1.08 5.88,1.38 5.65,1.68 5.34,1.89 5.03,2.10 4.67,2.20 4.31,2.30 3.93,2.28 3.56,2.26 3.21,2.12 2.86,1.98 2.57,1.74 2.29,1.50 2.09,1.18 1.90,0.85 1.82,0.49 1.74,0.12 1.78,-0.24 1.82,-0.62 1.98,-0.96 2.13,-1.30 2.39,-1.57 2.65,-1.84 2.98,-2.02 3.32,-2.20 3.69,-2.26 4.06,-2.32 4.06,-2.32 4.06,-2.32 6.80,-2.53 9.55,-2.74 9.88,-2.70 10.21,-2.66 10.52,-2.54 10.83,-2.42 11.10,-2.24 11.37,-2.05 11.59,-1.80 11.81,-1.55 11.96,-1.26 12.12,-0.97 12.20,-0.65 12.28,-0.33 12.28,-0.00 12.28,0.33 12.20,0.65 12.12,0.97 11.96,1.26 11.81,1.55 11.59,1.80 11.37,2.05 11.10,2.24 10.83,2.42 10.52,2.54 10.21,2.66 9.88,2.70 9.55,2.74 7.96,2.66 6.37,2.58 4.50,2.48 2.64,2.38 1.32,2.36 0,2.33 -0.27,2.30 -0.55,2.26 -0.82,2.16 -1.08,2.06 -1.31,1.90 -1.54,1.74 -1.73,1.53 -1.92,1.32 -2.05,1.07 -2.18,0.82 -2.25,0.55 -2.31,0.28 -2.31,-0.00 -2.31,-0.28 -2.25,-0.55 -2.18,-0.82 -2.05,-1.07 -1.92,-1.32 -1.73,-1.53 -1.54,-1.74 -1.31,-1.90 -1.08,-2.06 -0.82,-2.16 -0.55,-2.26 -0.27,-2.30 0.00,-2.33 0.00,-2.33 L 0,-2.33 Z"></path></g><g transform="translate(433.9066510467874 162.38586388179434) rotate(0 0.00005000000010113581 0.00004999999999988347)" stroke="none"><path fill="#000000" d="M 1.57,-1.57 Q 1.57,-1.57 1.77,-1.27 1.98,-0.98 2.09,-0.64 2.20,-0.29 2.19,0.05 2.18,0.41 2.05,0.75 1.93,1.09 1.70,1.37 1.48,1.65 1.18,1.84 0.87,2.04 0.52,2.12 0.18,2.21 -0.17,2.18 -0.53,2.15 -0.86,2.01 -1.19,1.87 -1.46,1.63 -1.73,1.39 -1.90,1.07 -2.08,0.76 -2.15,0.41 -2.21,0.05 -2.17,-0.29 -2.12,-0.65 -1.96,-0.97 -1.80,-1.29 -1.54,-1.54 -1.29,-1.80 -0.97,-1.96 -0.65,-2.12 -0.29,-2.17 0.06,-2.21 0.41,-2.15 0.76,-2.08 1.07,-1.90 1.39,-1.73 1.63,-1.46 1.87,-1.19 2.01,-0.86 2.15,-0.53 2.18,-0.17 2.21,0.18 2.12,0.52 2.03,0.87 1.84,1.18 1.65,1.48 1.37,1.70 1.09,1.93 0.75,2.05 0.41,2.18 0.05,2.19 -0.30,2.20 -0.64,2.09 -0.98,1.98 -1.27,1.77 -1.57,1.56 -1.57,1.57 -1.57,1.57 -1.73,1.35 -1.90,1.14 -2.01,0.90 -2.12,0.66 -2.16,0.39 -2.21,0.13 -2.20,-0.13 -2.18,-0.40 -2.10,-0.65 -2.02,-0.91 -1.88,-1.14 -1.74,-1.36 -1.55,-1.55 -1.36,-1.74 -1.14,-1.88 -0.91,-2.02 -0.65,-2.10 -0.40,-2.18 -0.13,-2.20 0.13,-2.21 0.39,-2.16 0.66,-2.12 0.90,-2.01 1.14,-1.90 1.35,-1.73 1.57,-1.57 1.57,-1.57 L 1.57,-1.57 Z"></path></g><g transform="translate(423.95731113363945 153.20185780811894) rotate(0 5.357336876310455 0)" stroke="none"><path fill="#000000" d="M 0,-2.33 Q 0,-2.33 1.32,-2.36 2.64,-2.38 4.50,-2.48 6.37,-2.58 7.96,-2.66 9.55,-2.74 9.88,-2.70 10.21,-2.66 10.52,-2.54 10.83,-2.42 11.10,-2.24 11.37,-2.05 11.59,-1.80 11.81,-1.55 11.96,-1.26 12.12,-0.97 12.20,-0.65 12.28,-0.33 12.28,0.00 12.28,0.33 12.20,0.65 12.12,0.97 11.96,1.26 11.81,1.55 11.59,1.80 11.37,2.05 11.10,2.24 10.83,2.42 10.52,2.54 10.21,2.66 9.88,2.70 9.55,2.74 6.80,2.53 4.06,2.32 3.69,2.26 3.31,2.20 2.98,2.02 2.65,1.84 2.39,1.57 2.13,1.30 1.98,0.96 1.82,0.62 1.78,0.24 1.74,-0.12 1.82,-0.49 1.90,-0.85 2.09,-1.18 2.29,-1.50 2.57,-1.74 2.86,-1.99 3.21,-2.12 3.56,-2.26 3.93,-2.28 4.31,-2.30 4.67,-2.20 5.03,-2.10 5.34,-1.89 5.65,-1.68 5.88,-1.38 6.11,-1.08 6.23,-0.73 6.35,-0.37 6.35,0.00 6.35,0.37 6.23,0.73 6.11,1.08 5.88,1.38 5.65,1.68 5.34,1.89 5.03,2.10 4.67,2.20 4.31,2.30 3.93,2.28 3.56,2.26 3.21,2.12 2.86,1.98 2.57,1.74 2.29,1.50 2.09,1.18 1.90,0.85 1.82,0.49 1.74,0.12 1.78,-0.24 1.82,-0.62 1.98,-0.96 2.13,-1.30 2.39,-1.57 2.65,-1.84 2.98,-2.02 3.32,-2.20 3.69,-2.26 4.06,-2.32 4.06,-2.32 4.06,-2.32 6.80,-2.53 9.55,-2.74 9.88,-2.70 10.21,-2.66 10.52,-2.54 10.83,-2.42 11.10,-2.24 11.37,-2.05 11.59,-1.80 11.81,-1.55 11.96,-1.26 12.12,-0.97 12.20,-0.65 12.28,-0.33 12.28,-0.00 12.28,0.33 12.20,0.65 12.12,0.97 11.96,1.26 11.81,1.55 11.59,1.80 11.37,2.05 11.10,2.24 10.83,2.42 10.52,2.54 10.21,2.66 9.88,2.70 9.55,2.74 7.96,2.66 6.37,2.58 4.50,2.48 2.64,2.38 1.32,2.36 0,2.33 -0.27,2.30 -0.55,2.26 -0.82,2.16 -1.08,2.06 -1.31,1.90 -1.54,1.74 -1.73,1.53 -1.92,1.32 -2.05,1.07 -2.18,0.82 -2.25,0.55 -2.31,0.28 -2.31,-0.00 -2.31,-0.28 -2.25,-0.55 -2.18,-0.82 -2.05,-1.07 -1.92,-1.32 -1.73,-1.53 -1.54,-1.74 -1.31,-1.90 -1.08,-2.06 -0.82,-2.16 -0.55,-2.26 -0.27,-2.30 0.00,-2.33 0.00,-2.33 L 0,-2.33 Z"></path></g><g transform="translate(457.2047070117128 124.2192159410869) rotate(0 77.5 16)"><text x="77.5" y="25" font-family="Helvetica, Segoe UI Emoji" font-size="28px" fill="#000000" text-anchor="middle" style="white-space: pre;" direction="ltr">0.69 mol O2</text></g><g stroke-opacity="0.3" fill-opacity="0.3" transform="translate(99.3212876078801 164.12932929778654) rotate(0 28.56344598227588 -10.523374835575254)" stroke="none"><path fill="#000000" d="M 0,-0.42 Q 0,-0.42 1.53,-0.46 3.06,-0.50 4.48,-0.92 5.91,-1.34 7.57,-1.95 9.23,-2.55 11.58,-3.22 13.93,-3.90 16.34,-5.03 18.76,-6.16 20.78,-7.51 22.79,-8.86 24.79,-9.95 26.78,-11.03 28.20,-11.64 29.61,-12.24 30.49,-12.90 31.36,-13.56 32.53,-14.02 33.70,-14.48 35.25,-15.14 36.79,-15.79 38.27,-16.50 39.75,-17.21 41.42,-17.92 43.08,-18.64 44.13,-19.36 45.19,-20.09 46.83,-20.91 48.48,-21.73 49.53,-22.49 50.57,-23.24 53.37,-24.01 56.17,-24.78 56.55,-24.78 56.94,-24.78 57.30,-24.65 57.66,-24.52 57.96,-24.29 58.26,-24.06 58.47,-23.74 58.68,-23.42 58.78,-23.05 58.88,-22.68 58.85,-22.30 58.83,-21.92 58.68,-21.57 58.54,-21.22 58.29,-20.93 58.04,-20.64 57.71,-20.45 57.38,-20.26 57.01,-20.18 56.63,-20.10 56.25,-20.15 55.87,-20.19 55.53,-20.35 55.19,-20.52 54.91,-20.78 54.64,-21.05 54.46,-21.39 54.29,-21.73 54.23,-22.10 54.17,-22.48 54.24,-22.86 54.30,-23.23 54.49,-23.57 54.67,-23.90 54.95,-24.16 55.23,-24.42 55.58,-24.58 55.92,-24.73 56.30,-24.77 56.68,-24.81 57.05,-24.72 57.43,-24.63 57.75,-24.43 58.08,-24.23 58.32,-23.94 58.56,-23.65 58.70,-23.29 58.84,-22.94 58.85,-22.55 58.87,-22.17 58.76,-21.81 58.66,-21.44 58.44,-21.13 58.22,-20.82 57.92,-20.59 57.61,-20.36 57.25,-20.24 56.89,-20.12 56.89,-20.12 56.89,-20.12 54.98,-19.81 53.08,-19.49 51.79,-18.65 50.50,-17.81 49.07,-17.05 47.64,-16.29 46.29,-15.45 44.94,-14.62 43.34,-13.83 41.75,-13.05 40.41,-12.40 39.07,-11.75 37.76,-11.17 36.45,-10.59 34.87,-10.47 33.28,-10.35 32.00,-9.70 30.72,-9.05 29.48,-8.74 28.24,-8.43 26.40,-7.36 24.57,-6.29 22.40,-4.75 20.23,-3.20 17.63,-1.86 15.03,-0.52 12.82,0.28 10.61,1.09 8.79,1.80 6.97,2.51 5.03,3.01 3.09,3.51 1.54,3.47 0,3.43 -0.23,3.40 -0.46,3.38 -0.68,3.29 -0.89,3.21 -1.09,3.08 -1.28,2.95 -1.43,2.77 -1.59,2.60 -1.69,2.39 -1.80,2.18 -1.86,1.96 -1.91,1.73 -1.91,1.50 -1.91,1.27 -1.86,1.04 -1.80,0.81 -1.69,0.61 -1.59,0.40 -1.43,0.23 -1.28,0.05 -1.09,-0.07 -0.89,-0.20 -0.68,-0.29 -0.46,-0.37 -0.23,-0.40 0.00,-0.42 0.00,-0.42 L 0,-0.42 Z"></path></g><g stroke-opacity="0.3" fill-opacity="0.3" transform="translate(279.721999074884 191.18943601783727) rotate(0 32.321794137838424 -12.778383728912843)" stroke="none"><path fill="#000000" d="M -1.28,-0.96 Q -1.28,-0.96 0.06,-2.69 1.42,-4.41 3.03,-5.41 4.65,-6.41 8.80,-8.01 12.96,-9.61 16.01,-10.69 19.06,-11.78 21.77,-12.27 24.48,-12.75 27.73,-13.36 30.99,-13.98 33.63,-14.65 36.27,-15.33 38.22,-16.03 40.16,-16.74 42.32,-17.48 44.48,-18.21 46.70,-18.96 48.91,-19.70 51.53,-20.86 54.14,-22.01 56.04,-23.32 57.94,-24.63 60.50,-25.65 63.06,-26.67 63.31,-26.71 63.56,-26.75 63.81,-26.71 64.06,-26.67 64.28,-26.55 64.51,-26.43 64.68,-26.25 64.86,-26.07 64.96,-25.84 65.07,-25.61 65.10,-25.36 65.13,-25.10 65.07,-24.86 65.02,-24.61 64.89,-24.39 64.76,-24.18 64.56,-24.01 64.37,-23.85 64.14,-23.75 63.90,-23.66 63.65,-23.64 63.40,-23.63 63.15,-23.70 62.91,-23.76 62.70,-23.91 62.49,-24.05 62.33,-24.25 62.18,-24.45 62.10,-24.69 62.02,-24.93 62.02,-25.18 62.02,-25.44 62.10,-25.68 62.18,-25.92 62.33,-26.12 62.48,-26.32 62.69,-26.46 62.90,-26.61 63.15,-26.67 63.39,-26.74 63.64,-26.73 63.90,-26.72 64.13,-26.62 64.37,-26.53 64.56,-26.37 64.75,-26.20 64.88,-25.99 65.02,-25.77 65.07,-25.52 65.13,-25.27 65.10,-25.02 65.07,-24.77 64.97,-24.54 64.86,-24.31 64.69,-24.13 64.51,-23.94 64.29,-23.82 64.06,-23.70 64.06,-23.70 64.06,-23.70 61.74,-23.07 59.42,-22.43 57.32,-21.00 55.23,-19.58 52.50,-18.37 49.78,-17.16 47.57,-16.41 45.37,-15.66 43.23,-14.91 41.10,-14.17 39.04,-13.41 36.97,-12.65 34.25,-11.93 31.53,-11.20 28.27,-10.55 25.01,-9.89 22.55,-9.43 20.10,-8.96 17.11,-7.82 14.12,-6.67 10.15,-5.06 6.19,-3.44 4.97,-2.96 3.76,-2.49 2.52,-0.76 1.28,0.96 1.15,1.10 1.01,1.24 0.85,1.34 0.68,1.45 0.50,1.51 0.32,1.57 0.12,1.58 -0.06,1.60 -0.25,1.57 -0.44,1.54 -0.62,1.46 -0.80,1.39 -0.95,1.27 -1.11,1.15 -1.23,1.00 -1.35,0.85 -1.43,0.68 -1.52,0.50 -1.56,0.32 -1.60,0.13 -1.59,-0.06 -1.58,-0.25 -1.53,-0.44 -1.47,-0.62 -1.38,-0.79 -1.28,-0.96 -1.28,-0.96 L -1.28,-0.96 Z"></path></g><g stroke-linecap="round"><g transform="translate(450.15136619733084 161.67589186305037) rotate(0 83.59902321123673 0)"><path d="M0 0 C61.02 0, 122.04 0, 167.2 0 M0 0 C35.45 0, 70.9 0, 167.2 0" stroke="#000000" stroke-width="1" fill="none"></path></g></g><g transform="translate(511.95197010630454 167.72598079642586) rotate(0 11 21)"><text x="0" y="33" font-family="Helvetica, Segoe UI Emoji" font-size="36px" fill="#000000" text-anchor="start" style="white-space: pre;" direction="ltr">3</text></g><g stroke-linecap="round"><g transform="translate(408.8095364861424 56.44214350729777) rotate(0 83.59902321123673 0)"><path d="M0 0 C63.56 0, 127.12 0, 167.2 0 M0 0 C56.51 0, 113.01 0, 167.2 0" stroke="#000000" stroke-width="1" fill="none"></path></g></g><g transform="translate(477.3751670751285 60.988893178448336) rotate(0 11 21)"><text x="0" y="33" font-family="Helvetica, Segoe UI Emoji" font-size="36px" fill="#000000" text-anchor="start" style="white-space: pre;" direction="ltr">4</text></g><g transform="translate(598.6536667287369 58.0274180196854) rotate(0 5.357336876310455 0)" stroke="none"><path fill="#000000" d="M 0,-2.33 Q 0,-2.33 1.32,-2.36 2.64,-2.38 4.50,-2.48 6.37,-2.58 7.96,-2.66 9.55,-2.74 9.88,-2.70 10.21,-2.66 10.52,-2.54 10.83,-2.42 11.10,-2.24 11.37,-2.05 11.59,-1.80 11.81,-1.55 11.96,-1.26 12.12,-0.97 12.20,-0.65 12.28,-0.33 12.28,0.00 12.28,0.33 12.20,0.65 12.12,0.97 11.96,1.26 11.81,1.55 11.59,1.80 11.37,2.05 11.10,2.24 10.83,2.42 10.52,2.54 10.21,2.66 9.88,2.70 9.55,2.74 6.80,2.53 4.06,2.32 3.69,2.26 3.31,2.20 2.98,2.02 2.65,1.84 2.39,1.57 2.13,1.30 1.98,0.96 1.82,0.62 1.78,0.24 1.74,-0.12 1.82,-0.49 1.90,-0.85 2.09,-1.18 2.29,-1.50 2.57,-1.74 2.86,-1.99 3.21,-2.12 3.56,-2.26 3.93,-2.28 4.31,-2.30 4.67,-2.20 5.03,-2.10 5.34,-1.89 5.65,-1.68 5.88,-1.38 6.11,-1.08 6.23,-0.73 6.35,-0.37 6.35,0.00 6.35,0.37 6.23,0.73 6.11,1.08 5.88,1.38 5.65,1.68 5.34,1.89 5.03,2.10 4.67,2.20 4.31,2.30 3.93,2.28 3.56,2.26 3.21,2.12 2.86,1.98 2.57,1.74 2.29,1.50 2.09,1.18 1.90,0.85 1.82,0.49 1.74,0.12 1.78,-0.24 1.82,-0.62 1.98,-0.96 2.13,-1.30 2.39,-1.57 2.65,-1.84 2.98,-2.02 3.32,-2.20 3.69,-2.26 4.06,-2.32 4.06,-2.32 4.06,-2.32 6.80,-2.53 9.55,-2.74 9.88,-2.70 10.21,-2.66 10.52,-2.54 10.83,-2.42 11.10,-2.24 11.37,-2.05 11.59,-1.80 11.81,-1.55 11.96,-1.26 12.12,-0.97 12.20,-0.65 12.28,-0.33 12.28,-0.00 12.28,0.33 12.20,0.65 12.12,0.97 11.96,1.26 11.81,1.55 11.59,1.80 11.37,2.05 11.10,2.24 10.83,2.42 10.52,2.54 10.21,2.66 9.88,2.70 9.55,2.74 7.96,2.66 6.37,2.58 4.50,2.48 2.64,2.38 1.32,2.36 0,2.33 -0.27,2.30 -0.55,2.26 -0.82,2.16 -1.08,2.06 -1.31,1.90 -1.54,1.74 -1.73,1.53 -1.92,1.32 -2.05,1.07 -2.18,0.82 -2.25,0.55 -2.31,0.28 -2.31,-0.00 -2.31,-0.28 -2.25,-0.55 -2.18,-0.82 -2.05,-1.07 -1.92,-1.32 -1.73,-1.53 -1.54,-1.74 -1.31,-1.90 -1.08,-2.06 -0.82,-2.16 -0.55,-2.26 -0.27,-2.30 0.00,-2.33 0.00,-2.33 L 0,-2.33 Z"></path></g><g transform="translate(610.8990081603038 58.0274180196854) rotate(0 0.00005000000010113581 0.00005000000000165983)" stroke="none"><path fill="#000000" d="M 1.57,-1.57 Q 1.57,-1.57 1.77,-1.27 1.98,-0.98 2.09,-0.64 2.20,-0.29 2.19,0.05 2.18,0.41 2.05,0.75 1.93,1.09 1.70,1.37 1.48,1.65 1.18,1.84 0.87,2.04 0.52,2.12 0.18,2.21 -0.17,2.18 -0.53,2.15 -0.86,2.01 -1.19,1.87 -1.46,1.63 -1.73,1.39 -1.90,1.07 -2.08,0.76 -2.15,0.41 -2.21,0.05 -2.17,-0.29 -2.12,-0.65 -1.96,-0.97 -1.80,-1.29 -1.54,-1.54 -1.29,-1.80 -0.97,-1.96 -0.65,-2.12 -0.29,-2.17 0.06,-2.21 0.41,-2.15 0.76,-2.08 1.07,-1.90 1.39,-1.73 1.63,-1.46 1.87,-1.19 2.01,-0.86 2.15,-0.53 2.18,-0.17 2.21,0.18 2.12,0.52 2.03,0.87 1.84,1.18 1.65,1.48 1.37,1.70 1.09,1.93 0.75,2.05 0.41,2.18 0.05,2.19 -0.30,2.20 -0.64,2.09 -0.98,1.98 -1.27,1.77 -1.57,1.56 -1.57,1.57 -1.57,1.57 -1.73,1.35 -1.90,1.14 -2.01,0.90 -2.12,0.66 -2.16,0.39 -2.21,0.13 -2.20,-0.13 -2.18,-0.40 -2.10,-0.65 -2.02,-0.91 -1.88,-1.14 -1.74,-1.36 -1.55,-1.55 -1.36,-1.74 -1.14,-1.88 -0.91,-2.02 -0.65,-2.10 -0.40,-2.18 -0.13,-2.20 0.13,-2.21 0.39,-2.16 0.66,-2.12 0.90,-2.01 1.14,-1.90 1.35,-1.73 1.57,-1.57 1.57,-1.57 L 1.57,-1.57 Z"></path></g><g transform="translate(600.9496682471568 48.84341194601001) rotate(0 5.357336876310455 0)" stroke="none"><path fill="#000000" d="M 0,-2.33 Q 0,-2.33 1.32,-2.36 2.64,-2.38 4.50,-2.48 6.37,-2.58 7.96,-2.66 9.55,-2.74 9.88,-2.70 10.21,-2.66 10.52,-2.54 10.83,-2.42 11.10,-2.24 11.37,-2.05 11.59,-1.80 11.81,-1.55 11.96,-1.26 12.12,-0.97 12.20,-0.65 12.28,-0.33 12.28,0.00 12.28,0.33 12.20,0.65 12.12,0.97 11.96,1.26 11.81,1.55 11.59,1.80 11.37,2.05 11.10,2.24 10.83,2.42 10.52,2.54 10.21,2.66 9.88,2.70 9.55,2.74 6.80,2.53 4.06,2.32 3.69,2.26 3.31,2.20 2.98,2.02 2.65,1.84 2.39,1.57 2.13,1.30 1.98,0.96 1.82,0.62 1.78,0.24 1.74,-0.12 1.82,-0.49 1.90,-0.85 2.09,-1.18 2.29,-1.50 2.57,-1.74 2.86,-1.99 3.21,-2.12 3.56,-2.26 3.93,-2.28 4.31,-2.30 4.67,-2.20 5.03,-2.10 5.34,-1.89 5.65,-1.68 5.88,-1.38 6.11,-1.08 6.23,-0.73 6.35,-0.37 6.35,0.00 6.35,0.37 6.23,0.73 6.11,1.08 5.88,1.38 5.65,1.68 5.34,1.89 5.03,2.10 4.67,2.20 4.31,2.30 3.93,2.28 3.56,2.26 3.21,2.12 2.86,1.98 2.57,1.74 2.29,1.50 2.09,1.18 1.90,0.85 1.82,0.49 1.74,0.12 1.78,-0.24 1.82,-0.62 1.98,-0.96 2.13,-1.30 2.39,-1.57 2.65,-1.84 2.98,-2.02 3.32,-2.20 3.69,-2.26 4.06,-2.32 4.06,-2.32 4.06,-2.32 6.80,-2.53 9.55,-2.74 9.88,-2.70 10.21,-2.66 10.52,-2.54 10.83,-2.42 11.10,-2.24 11.37,-2.05 11.59,-1.80 11.81,-1.55 11.96,-1.26 12.12,-0.97 12.20,-0.65 12.28,-0.33 12.28,-0.00 12.28,0.33 12.20,0.65 12.12,0.97 11.96,1.26 11.81,1.55 11.59,1.80 11.37,2.05 11.10,2.24 10.83,2.42 10.52,2.54 10.21,2.66 9.88,2.70 9.55,2.74 7.96,2.66 6.37,2.58 4.50,2.48 2.64,2.38 1.32,2.36 0,2.33 -0.27,2.30 -0.55,2.26 -0.82,2.16 -1.08,2.06 -1.31,1.90 -1.54,1.74 -1.73,1.53 -1.92,1.32 -2.05,1.07 -2.18,0.82 -2.25,0.55 -2.31,0.28 -2.31,-0.00 -2.31,-0.28 -2.25,-0.55 -2.18,-0.82 -2.05,-1.07 -1.92,-1.32 -1.73,-1.53 -1.54,-1.74 -1.31,-1.90 -1.08,-2.06 -0.82,-2.16 -0.55,-2.26 -0.27,-2.30 0.00,-2.33 0.00,-2.33 L 0,-2.33 Z"></path></g><g transform="translate(637.7404875465882 163.261166375438) rotate(0 5.357336876310455 0)" stroke="none"><path fill="#000000" d="M 0,-2.33 Q 0,-2.33 1.32,-2.36 2.64,-2.38 4.50,-2.48 6.37,-2.58 7.96,-2.66 9.55,-2.74 9.88,-2.70 10.21,-2.66 10.52,-2.54 10.83,-2.42 11.10,-2.24 11.37,-2.05 11.59,-1.80 11.81,-1.55 11.96,-1.26 12.12,-0.97 12.20,-0.65 12.28,-0.33 12.28,0.00 12.28,0.33 12.20,0.65 12.12,0.97 11.96,1.26 11.81,1.55 11.59,1.80 11.37,2.05 11.10,2.24 10.83,2.42 10.52,2.54 10.21,2.66 9.88,2.70 9.55,2.74 6.80,2.53 4.06,2.32 3.69,2.26 3.31,2.20 2.98,2.02 2.65,1.84 2.39,1.57 2.13,1.30 1.98,0.96 1.82,0.62 1.78,0.24 1.74,-0.12 1.82,-0.49 1.90,-0.85 2.09,-1.18 2.29,-1.50 2.57,-1.74 2.86,-1.99 3.21,-2.12 3.56,-2.26 3.93,-2.28 4.31,-2.30 4.67,-2.20 5.03,-2.10 5.34,-1.89 5.65,-1.68 5.88,-1.38 6.11,-1.08 6.23,-0.73 6.35,-0.37 6.35,0.00 6.35,0.37 6.23,0.73 6.11,1.08 5.88,1.38 5.65,1.68 5.34,1.89 5.03,2.10 4.67,2.20 4.31,2.30 3.93,2.28 3.56,2.26 3.21,2.12 2.86,1.98 2.57,1.74 2.29,1.50 2.09,1.18 1.90,0.85 1.82,0.49 1.74,0.12 1.78,-0.24 1.82,-0.62 1.98,-0.96 2.13,-1.30 2.39,-1.57 2.65,-1.84 2.98,-2.02 3.32,-2.20 3.69,-2.26 4.06,-2.32 4.06,-2.32 4.06,-2.32 6.80,-2.53 9.55,-2.74 9.88,-2.70 10.21,-2.66 10.52,-2.54 10.83,-2.42 11.10,-2.24 11.37,-2.05 11.59,-1.80 11.81,-1.55 11.96,-1.26 12.12,-0.97 12.20,-0.65 12.28,-0.33 12.28,-0.00 12.28,0.33 12.20,0.65 12.12,0.97 11.96,1.26 11.81,1.55 11.59,1.80 11.37,2.05 11.10,2.24 10.83,2.42 10.52,2.54 10.21,2.66 9.88,2.70 9.55,2.74 7.96,2.66 6.37,2.58 4.50,2.48 2.64,2.38 1.32,2.36 0,2.33 -0.27,2.30 -0.55,2.26 -0.82,2.16 -1.08,2.06 -1.31,1.90 -1.54,1.74 -1.73,1.53 -1.92,1.32 -2.05,1.07 -2.18,0.82 -2.25,0.55 -2.31,0.28 -2.31,-0.00 -2.31,-0.28 -2.25,-0.55 -2.18,-0.82 -2.05,-1.07 -1.92,-1.32 -1.73,-1.53 -1.54,-1.74 -1.31,-1.90 -1.08,-2.06 -0.82,-2.16 -0.55,-2.26 -0.27,-2.30 0.00,-2.33 0.00,-2.33 L 0,-2.33 Z"></path></g><g transform="translate(649.9858289781541 163.261166375438) rotate(0 0.00005000000010113581 0.00004999999999988347)" stroke="none"><path fill="#000000" d="M 1.57,-1.57 Q 1.57,-1.57 1.77,-1.27 1.98,-0.98 2.09,-0.64 2.20,-0.29 2.19,0.05 2.18,0.41 2.05,0.75 1.93,1.09 1.70,1.37 1.48,1.65 1.18,1.84 0.87,2.04 0.52,2.12 0.18,2.21 -0.17,2.18 -0.53,2.15 -0.86,2.01 -1.19,1.87 -1.46,1.63 -1.73,1.39 -1.90,1.07 -2.08,0.76 -2.15,0.41 -2.21,0.05 -2.17,-0.29 -2.12,-0.65 -1.96,-0.97 -1.80,-1.29 -1.54,-1.54 -1.29,-1.80 -0.97,-1.96 -0.65,-2.12 -0.29,-2.17 0.06,-2.21 0.41,-2.15 0.76,-2.08 1.07,-1.90 1.39,-1.73 1.63,-1.46 1.87,-1.19 2.01,-0.86 2.15,-0.53 2.18,-0.17 2.21,0.18 2.12,0.52 2.03,0.87 1.84,1.18 1.65,1.48 1.37,1.70 1.09,1.93 0.75,2.05 0.41,2.18 0.05,2.19 -0.30,2.20 -0.64,2.09 -0.98,1.98 -1.27,1.77 -1.57,1.56 -1.57,1.57 -1.57,1.57 -1.73,1.35 -1.90,1.14 -2.01,0.90 -2.12,0.66 -2.16,0.39 -2.21,0.13 -2.20,-0.13 -2.18,-0.40 -2.10,-0.65 -2.02,-0.91 -1.88,-1.14 -1.74,-1.36 -1.55,-1.55 -1.36,-1.74 -1.14,-1.88 -0.91,-2.02 -0.65,-2.10 -0.40,-2.18 -0.13,-2.20 0.13,-2.21 0.39,-2.16 0.66,-2.12 0.90,-2.01 1.14,-1.90 1.35,-1.73 1.57,-1.57 1.57,-1.57 L 1.57,-1.57 Z"></path></g><g transform="translate(640.0364890650062 154.0771603017626) rotate(0 5.357336876310455 0)" stroke="none"><path fill="#000000" d="M 0,-2.33 Q 0,-2.33 1.32,-2.36 2.64,-2.38 4.50,-2.48 6.37,-2.58 7.96,-2.66 9.55,-2.74 9.88,-2.70 10.21,-2.66 10.52,-2.54 10.83,-2.42 11.10,-2.24 11.37,-2.05 11.59,-1.80 11.81,-1.55 11.96,-1.26 12.12,-0.97 12.20,-0.65 12.28,-0.33 12.28,0.00 12.28,0.33 12.20,0.65 12.12,0.97 11.96,1.26 11.81,1.55 11.59,1.80 11.37,2.05 11.10,2.24 10.83,2.42 10.52,2.54 10.21,2.66 9.88,2.70 9.55,2.74 6.80,2.53 4.06,2.32 3.69,2.26 3.31,2.20 2.98,2.02 2.65,1.84 2.39,1.57 2.13,1.30 1.98,0.96 1.82,0.62 1.78,0.24 1.74,-0.12 1.82,-0.49 1.90,-0.85 2.09,-1.18 2.29,-1.50 2.57,-1.74 2.86,-1.99 3.21,-2.12 3.56,-2.26 3.93,-2.28 4.31,-2.30 4.67,-2.20 5.03,-2.10 5.34,-1.89 5.65,-1.68 5.88,-1.38 6.11,-1.08 6.23,-0.73 6.35,-0.37 6.35,0.00 6.35,0.37 6.23,0.73 6.11,1.08 5.88,1.38 5.65,1.68 5.34,1.89 5.03,2.10 4.67,2.20 4.31,2.30 3.93,2.28 3.56,2.26 3.21,2.12 2.86,1.98 2.57,1.74 2.29,1.50 2.09,1.18 1.90,0.85 1.82,0.49 1.74,0.12 1.78,-0.24 1.82,-0.62 1.98,-0.96 2.13,-1.30 2.39,-1.57 2.65,-1.84 2.98,-2.02 3.32,-2.20 3.69,-2.26 4.06,-2.32 4.06,-2.32 4.06,-2.32 6.80,-2.53 9.55,-2.74 9.88,-2.70 10.21,-2.66 10.52,-2.54 10.83,-2.42 11.10,-2.24 11.37,-2.05 11.59,-1.80 11.81,-1.55 11.96,-1.26 12.12,-0.97 12.20,-0.65 12.28,-0.33 12.28,-0.00 12.28,0.33 12.20,0.65 12.12,0.97 11.96,1.26 11.81,1.55 11.59,1.80 11.37,2.05 11.10,2.24 10.83,2.42 10.52,2.54 10.21,2.66 9.88,2.70 9.55,2.74 7.96,2.66 6.37,2.58 4.50,2.48 2.64,2.38 1.32,2.36 0,2.33 -0.27,2.30 -0.55,2.26 -0.82,2.16 -1.08,2.06 -1.31,1.90 -1.54,1.74 -1.73,1.53 -1.92,1.32 -2.05,1.07 -2.18,0.82 -2.25,0.55 -2.31,0.28 -2.31,-0.00 -2.31,-0.28 -2.25,-0.55 -2.18,-0.82 -2.05,-1.07 -1.92,-1.32 -1.73,-1.53 -1.54,-1.74 -1.31,-1.90 -1.08,-2.06 -0.82,-2.16 -0.55,-2.26 -0.27,-2.30 0.00,-2.33 0.00,-2.33 L 0,-2.33 Z"></path></g><g transform="translate(628.8626993599837 41.94548276952281) rotate(0 68 16)"><text x="68" y="25" font-family="Helvetica, Segoe UI Emoji" font-size="28px" fill="#000000" text-anchor="middle" style="white-space: pre;" direction="ltr">0.08 mol P</text></g><g transform="translate(661.4561987022848 144.17255260082533) rotate(0 77.5 16)"><text x="77.5" y="25" font-family="Helvetica, Segoe UI Emoji" font-size="28px" fill="#000000" text-anchor="middle" style="white-space: pre;" direction="ltr">0.23 mol O2</text></g></svg>