<svg xmlns="http://www.w3.org/2000/svg" xmlns:xlink="http://www.w3.org/1999/xlink" width="98.53125" height="24.390625" style="width:98.53125px;height:24.390625px;font-family:Asana-Math, Asana;background:#FFF;"><g><g><g><g transform="matrix(1,0,0,1,2,19)"><path transform="matrix(0.017,0,0,-0.017,0,0)" d="M446 444L371 444L238 57L93 444L14 444L208 0C164 -113 151 -148 115 -148C99 -148 67 -144 37 -132L43 -197C65 -202 93 -205 115 -205C150 -205 187 -193 228 -91Z" stroke="rgb(0,0,0)" stroke-opacity="1" stroke-width="8" fill="rgb(0,0,0)" fill-opacity="1"></path></g></g><g><g transform="matrix(1,0,0,1,19.15625,19)"><path transform="matrix(0.017,0,0,-0.017,0,0)" d="M604 347L604 406L65 406L65 347ZM604 134L604 193L65 193L65 134Z" stroke="rgb(0,0,0)" stroke-opacity="1" stroke-width="8" fill="rgb(0,0,0)" fill-opacity="1"></path></g></g><g><g transform="matrix(1,0,0,1,35.609375,19)"><path transform="matrix(0.017,0,0,-0.017,0,0)" d="M962 298C962 365 946 455 825 455C765 455 713 427 676 373C650 449 580 455 548 455C476 455 429 414 402 378L402 450L330 450L330 0L408 0L408 245C408 313 435 394 509 394C602 394 607 329 607 291L607 0L685 0L685 245C685 313 712 394 786 394C879 394 884 329 884 291L884 0L962 0ZM1302 229L1485 444L1403 444L1269 279L1131 444L1048 444L1236 229L1042 0L1124 0L1269 188L1419 0L1502 0Z" stroke="rgb(0,0,0)" stroke-opacity="1" stroke-width="8" fill="rgb(0,0,0)" fill-opacity="1"></path></g></g><g><g transform="matrix(1,0,0,1,68.78125,19)"><path transform="matrix(0.017,0,0,-0.017,0,0)" d="M604 241L604 300L364 300L364 538L305 538L305 300L65 300L65 241L305 241L305 0L364 0L364 241Z" stroke="rgb(0,0,0)" stroke-opacity="1" stroke-width="8" fill="rgb(0,0,0)" fill-opacity="1"></path></g></g><g><g transform="matrix(1,0,0,1,83.53125,19)"><path transform="matrix(0.017,0,0,-0.017,0,0)" d="M406 694L331 694L331 0L409 0L409 46C433 24 476 -11 543 -11C643 -11 729 89 729 223C729 347 661 455 567 455C528 455 466 445 406 396ZM409 335C425 359 461 394 516 394C575 394 651 351 651 223C651 93 567 50 506 50C467 50 434 68 409 114Z" stroke="rgb(0,0,0)" stroke-opacity="1" stroke-width="8" fill="rgb(0,0,0)" fill-opacity="1"></path></g></g></g></g></svg>