<svg xmlns="http://www.w3.org/2000/svg" xmlns:xlink="http://www.w3.org/1999/xlink" width="144.796875" height="24.390625" style="width:144.796875px;height:24.390625px;font-family:Asana-Math, Asana;background:#FFF;"><g><g><g><g transform="matrix(1,0,0,1,2,19)"><path transform="matrix(0.017,0,0,-0.017,0,0)" d="M377 694L289 694L28 0L102 0L179 204L470 204L546 0L638 0ZM448 260L200 260L265 441C286 500 317 585 324 622L325 622C327 608 334 583 357 517ZM925 229L1108 444L1026 444L892 279L754 444L671 444L859 229L665 0L747 0L892 188L1042 0L1125 0Z" stroke="rgb(0,0,0)" stroke-opacity="1" stroke-width="8" fill="rgb(0,0,0)" fill-opacity="1"></path></g></g><g><g transform="matrix(1,0,0,1,28.75,19)"><path transform="matrix(0.017,0,0,-0.017,0,0)" d="M604 241L604 300L364 300L364 538L305 538L305 300L65 300L65 241L305 241L305 0L364 0L364 241Z" stroke="rgb(0,0,0)" stroke-opacity="1" stroke-width="8" fill="rgb(0,0,0)" fill-opacity="1"></path></g></g><g><g transform="matrix(1,0,0,1,43.5,19)"><path transform="matrix(0.017,0,0,-0.017,0,0)" d="M346 694L346 0L610 0C754 0 859 90 859 188C859 275 772 346 666 363C757 386 832 444 832 520C832 612 725 694 583 694ZM429 391L429 638L555 638C666 638 754 585 754 519C754 459 683 391 545 391ZM429 56L429 330L574 330C680 330 778 269 778 189C778 114 690 56 582 56ZM1360 444L1285 444L1152 57L1007 444L928 444L1122 0C1078 -113 1065 -148 1029 -148C1013 -148 981 -144 951 -132L957 -197C979 -202 1007 -205 1029 -205C1064 -205 1101 -193 1142 -91Z" stroke="rgb(0,0,0)" stroke-opacity="1" stroke-width="8" fill="rgb(0,0,0)" fill-opacity="1"></path></g></g><g><g transform="matrix(1,0,0,1,74.484375,19)"><path transform="matrix(0.017,0,0,-0.017,0,0)" d="M604 241L604 300L364 300L364 538L305 538L305 300L65 300L65 241L305 241L305 0L364 0L364 241Z" stroke="rgb(0,0,0)" stroke-opacity="1" stroke-width="8" fill="rgb(0,0,0)" fill-opacity="1"></path></g></g><g><g transform="matrix(1,0,0,1,89.234375,19)"><path transform="matrix(0.017,0,0,-0.017,0,0)" d="M826 681C763 705 709 716 643 716C451 716 316 543 316 347C316 154 449 -22 644 -22C727 -22 766 -9 837 34L831 103C759 52 714 42 645 42C494 42 405 194 405 347C405 510 503 652 642 652C721 652 769 627 811 600Z" stroke="rgb(0,0,0)" stroke-opacity="1" stroke-width="8" fill="rgb(0,0,0)" fill-opacity="1"></path></g></g><g><g transform="matrix(1,0,0,1,113.625,19)"><path transform="matrix(0.017,0,0,-0.017,0,0)" d="M604 347L604 406L65 406L65 347ZM604 134L604 193L65 193L65 134Z" stroke="rgb(0,0,0)" stroke-opacity="1" stroke-width="8" fill="rgb(0,0,0)" fill-opacity="1"></path></g></g><g><g transform="matrix(1,0,0,1,130.078125,19)"><path transform="matrix(0.017,0,0,-0.017,0,0)" d="M706 331C706 412 702 506 660 588C619 665 550 689 499 689C440 689 370 662 329 571C296 497 291 413 291 331C291 251 295 177 325 103C365 5 441 -22 498 -22C571 -22 634 19 666 89C696 155 706 223 706 331ZM499 40C447 40 406 78 386 151C370 209 369 264 369 343C369 407 369 468 386 524C392 544 417 627 498 627C576 627 602 550 609 531C628 475 628 406 628 343C628 276 628 212 610 148C584 56 531 40 499 40Z" stroke="rgb(0,0,0)" stroke-opacity="1" stroke-width="8" fill="rgb(0,0,0)" fill-opacity="1"></path></g></g></g></g></svg>