<svg xmlns="http://www.w3.org/2000/svg" xmlns:xlink="http://www.w3.org/1999/xlink" width="41.203125" height="47.171875" style="width:41.203125px;height:47.171875px;font-family:Asana-Math, Asana;background:#FFF;"><g><g><g><g><g><g><g transform="matrix(1,0,0,1,2,19)"><path transform="matrix(0.017,0,0,-0.017,0,0)" d="M577 681C514 705 460 716 394 716C202 716 67 543 67 347C67 154 200 -22 395 -22C478 -22 517 -9 588 34L582 103C510 52 465 42 396 42C245 42 156 194 156 347C156 510 254 652 393 652C472 652 520 627 562 600ZM1054 267L923 213L918 204L954 153L964 153L1070 241L1088 99L1098 95L1166 121L1166 131L1098 253L1236 233L1245 241L1245 303L1239 307L1100 283L1169 408L1166 423L1104 442L1095 438L1069 295L974 393L964 393L920 341L923 331ZM1620 694L1620 0L1884 0C2028 0 2133 90 2133 188C2133 275 2046 346 1940 363C2031 386 2106 444 2106 520C2106 612 1999 694 1857 694ZM1703 391L1703 638L1829 638C1940 638 2028 585 2028 519C2028 459 1957 391 1819 391ZM1703 56L1703 330L1848 330C1954 330 2052 269 2052 189C2052 114 1964 56 1856 56Z" stroke="rgb(0,0,0)" stroke-opacity="1" stroke-width="8" fill="rgb(0,0,0)" fill-opacity="1"></path></g></g></g></g><g><g><g><g transform="matrix(1,0,0,1,14.9375,44.78125)"><path transform="matrix(0.017,0,0,-0.017,0,0)" d="M377 694L289 694L28 0L102 0L179 204L470 204L546 0L638 0ZM448 260L200 260L265 441C286 500 317 585 324 622L325 622C327 608 334 583 357 517Z" stroke="rgb(0,0,0)" stroke-opacity="1" stroke-width="8" fill="rgb(0,0,0)" fill-opacity="1"></path></g></g></g></g><line style="fill:none;stroke-width:1px;stroke:rgb(0, 0, 0);" x1="2" y1="27.140625" x2="39.203125" y2="27.140625"></line></g></g></g></svg>