<svg xmlns="http://www.w3.org/2000/svg" xmlns:xlink="http://www.w3.org/1999/xlink" width="41.6875" height="47.171875" style="width:41.6875px;height:47.171875px;font-family:Asana-Math, Asana;background:#FFF;"><g><g><g><g><g><g><g transform="matrix(1,0,0,1,2,19)"><path transform="matrix(0.017,0,0,-0.017,0,0)" d="M377 694L289 694L28 0L102 0L179 204L470 204L546 0L638 0ZM448 260L200 260L265 441C286 500 317 585 324 622L325 622C327 608 334 583 357 517ZM1082 267L951 213L946 204L982 153L992 153L1098 241L1116 99L1126 95L1194 121L1194 131L1126 253L1264 233L1273 241L1273 303L1267 307L1128 283L1197 408L1194 423L1132 442L1123 438L1097 295L1002 393L992 393L948 341L951 331ZM1648 694L1648 0L1912 0C2056 0 2161 90 2161 188C2161 275 2074 346 1968 363C2059 386 2134 444 2134 520C2134 612 2027 694 1885 694ZM1731 391L1731 638L1857 638C1968 638 2056 585 2056 519C2056 459 1985 391 1847 391ZM1731 56L1731 330L1876 330C1982 330 2080 269 2080 189C2080 114 1992 56 1884 56Z" stroke="rgb(0,0,0)" stroke-opacity="1" stroke-width="8" fill="rgb(0,0,0)" fill-opacity="1"></path></g></g></g></g><g><g><g><g transform="matrix(1,0,0,1,15.421875,44.78125)"><path transform="matrix(0.017,0,0,-0.017,0,0)" d="M577 681C514 705 460 716 394 716C202 716 67 543 67 347C67 154 200 -22 395 -22C478 -22 517 -9 588 34L582 103C510 52 465 42 396 42C245 42 156 194 156 347C156 510 254 652 393 652C472 652 520 627 562 600Z" stroke="rgb(0,0,0)" stroke-opacity="1" stroke-width="8" fill="rgb(0,0,0)" fill-opacity="1"></path></g></g></g></g><line style="fill:none;stroke-width:1px;stroke:rgb(0, 0, 0);" x1="2" y1="27.140625" x2="39.6875" y2="27.140625"></line></g></g></g></svg>