<svg xmlns="http://www.w3.org/2000/svg" xmlns:xlink="http://www.w3.org/1999/xlink" width="76.21875" height="47.171875" style="width:76.21875px;height:47.171875px;font-family:Asana-Math, Asana;background:#FFF;"><g><g><g><g><g><g><g transform="matrix(1,0,0,1,2,19)"><path transform="matrix(0.017,0,0,-0.017,0,0)" d="M92 522C121 593 186 630 247 630C299 630 348 600 348 535C348 473 307 413 246 398C240 397 238 397 167 391L167 329L238 329C346 329 368 235 368 184C368 105 322 40 245 40C176 40 97 75 53 144L42 83C115 -12 207 -22 247 -22C369 -22 457 76 457 183C457 275 387 338 319 360C395 401 430 471 430 535C430 622 347 689 248 689C171 689 98 648 56 577ZM916 267L785 213L780 204L816 153L826 153L932 241L950 99L960 95L1028 121L1028 131L960 253L1098 233L1107 241L1107 303L1101 307L962 283L1031 408L1028 423L966 442L957 438L931 295L836 393L826 393L782 341L785 331ZM1757 174L1856 174L1856 236L1757 236L1757 667L1666 667L1413 236L1413 174L1678 174L1678 0L1757 0ZM1491 236C1543 323 1684 564 1684 622L1684 236Z" stroke="rgb(0,0,0)" stroke-opacity="1" stroke-width="8" fill="rgb(0,0,0)" fill-opacity="1"></path></g></g></g></g><g><g><g><g transform="matrix(1,0,0,1,13.765625,44.78125)"><path transform="matrix(0.017,0,0,-0.017,0,0)" d="M415 669C364 689 323 689 309 689C168 689 42 546 42 327C42 40 166 -22 251 -22C311 -22 354 1 393 47C438 99 457 145 457 226C457 356 391 469 295 469C263 469 187 461 126 385C139 549 218 630 310 630C348 630 380 623 415 609ZM127 223C127 237 127 239 128 251C128 326 173 407 256 407C304 407 332 382 352 344C373 307 375 271 375 226C375 191 375 144 351 103C334 74 308 40 251 40C145 40 130 189 127 223Z" stroke="rgb(0,0,0)" stroke-opacity="1" stroke-width="8" fill="rgb(0,0,0)" fill-opacity="1"></path></g></g></g></g><line style="fill:none;stroke-width:1px;stroke:rgb(0, 0, 0);" x1="2" y1="27.140625" x2="34.03125" y2="27.140625"></line></g><g><g transform="matrix(1,0,0,1,35.71875,31.390625)"><path transform="matrix(0.017,0,0,-0.017,0,0)" d="" stroke="rgb(0,0,0)" stroke-opacity="1" stroke-width="8" fill="rgb(0,0,0)" fill-opacity="1"></path></g></g><g><g transform="matrix(1,0,0,1,45.046875,31.390625)"><path transform="matrix(0.017,0,0,-0.017,0,0)" d="M604 347L604 406L65 406L65 347ZM604 134L604 193L65 193L65 134Z" stroke="rgb(0,0,0)" stroke-opacity="1" stroke-width="8" fill="rgb(0,0,0)" fill-opacity="1"></path></g></g><g><g transform="matrix(1,0,0,1,61.5,31.390625)"><path transform="matrix(0.017,0,0,-0.017,0,0)" d="M332 466C352 545 380 624 471 624C565 624 616 548 616 468C616 382 559 324 500 263L423 191L299 65L299 0L698 0L698 72L516 72C504 72 492 71 480 71L371 71C403 100 479 176 510 205C582 274 698 347 698 471C698 587 617 689 485 689C371 689 315 610 291 522C315 487 308 501 332 466Z" stroke="rgb(0,0,0)" stroke-opacity="1" stroke-width="8" fill="rgb(0,0,0)" fill-opacity="1"></path></g></g></g></g></svg>