<svg xmlns="http://www.w3.org/2000/svg" xmlns:xlink="http://www.w3.org/1999/xlink" width="110.15625" height="47.171875" style="width:110.15625px;height:47.171875px;font-family:Asana-Math, Asana;background:#FFF;"><g><g><g><g><g><g><g transform="matrix(1,0,0,1,2,19)"><path transform="matrix(0.017,0,0,-0.017,0,0)" d="M320 361C409 390 443 457 443 511C443 607 358 689 250 689C138 689 56 605 56 511C56 457 90 390 179 361C107 335 42 271 42 183C42 72 134 -22 249 -22C368 -22 457 75 457 183C457 275 387 337 320 361ZM250 391C173 391 126 441 126 511C126 581 175 630 249 630C328 630 373 577 373 511C373 438 322 391 250 391ZM250 40C181 40 123 88 123 184C123 291 195 329 249 329C307 329 376 289 376 184C376 85 314 40 250 40ZM916 267L785 213L780 204L816 153L826 153L932 241L950 99L960 95L1028 121L1028 131L960 253L1098 233L1107 241L1107 303L1101 307L962 283L1031 408L1028 423L966 442L957 438L931 295L836 393L826 393L782 341L785 331ZM1800 669C1749 689 1708 689 1694 689C1553 689 1427 546 1427 327C1427 40 1551 -22 1636 -22C1696 -22 1739 1 1778 47C1823 99 1842 145 1842 226C1842 356 1776 469 1680 469C1648 469 1572 461 1511 385C1524 549 1603 630 1695 630C1733 630 1765 623 1800 609ZM1512 223C1512 237 1512 239 1513 251C1513 326 1558 407 1641 407C1689 407 1717 382 1737 344C1758 307 1760 271 1760 226C1760 191 1760 144 1736 103C1719 74 1693 40 1636 40C1530 40 1515 189 1512 223ZM2341 331C2341 412 2337 506 2295 588C2254 665 2185 689 2134 689C2075 689 2005 662 1964 571C1931 497 1926 413 1926 331C1926 251 1930 177 1960 103C2000 5 2076 -22 2133 -22C2206 -22 2269 19 2301 89C2331 155 2341 223 2341 331ZM2134 40C2082 40 2041 78 2021 151C2005 209 2004 264 2004 343C2004 407 2004 468 2021 524C2027 544 2052 627 2133 627C2211 627 2237 550 2244 531C2263 475 2263 406 2263 343C2263 276 2263 212 2245 148C2219 56 2166 40 2134 40ZM2840 331C2840 412 2836 506 2794 588C2753 665 2684 689 2633 689C2574 689 2504 662 2463 571C2430 497 2425 413 2425 331C2425 251 2429 177 2459 103C2499 5 2575 -22 2632 -22C2705 -22 2768 19 2800 89C2830 155 2840 223 2840 331ZM2633 40C2581 40 2540 78 2520 151C2504 209 2503 264 2503 343C2503 407 2503 468 2520 524C2526 544 2551 627 2632 627C2710 627 2736 550 2743 531C2762 475 2762 406 2762 343C2762 276 2762 212 2744 148C2718 56 2665 40 2633 40Z" stroke="rgb(0,0,0)" stroke-opacity="1" stroke-width="8" fill="rgb(0,0,0)" fill-opacity="1"></path></g></g></g></g><g><g><g><g transform="matrix(1,0,0,1,22.25,44.78125)"><path transform="matrix(0.017,0,0,-0.017,0,0)" d="M153 602L416 602L416 667L81 667L81 292L147 292C164 332 201 372 259 372C306 372 360 330 360 208C360 40 238 40 229 40C162 40 101 79 72 134L39 77C80 19 149 -22 230 -22C349 -22 449 78 449 206C449 333 363 434 260 434C220 434 182 419 153 392Z" stroke="rgb(0,0,0)" stroke-opacity="1" stroke-width="8" fill="rgb(0,0,0)" fill-opacity="1"></path></g></g></g></g><line style="fill:none;stroke-width:1px;stroke:rgb(0, 0, 0);" x1="2" y1="27.140625" x2="51" y2="27.140625"></line></g><g><g transform="matrix(1,0,0,1,52.6875,31.390625)"><path transform="matrix(0.017,0,0,-0.017,0,0)" d="" stroke="rgb(0,0,0)" stroke-opacity="1" stroke-width="8" fill="rgb(0,0,0)" fill-opacity="1"></path></g></g><g><g transform="matrix(1,0,0,1,62.015625,31.390625)"><path transform="matrix(0.017,0,0,-0.017,0,0)" d="M604 347L604 406L65 406L65 347ZM604 134L604 193L65 193L65 134Z" stroke="rgb(0,0,0)" stroke-opacity="1" stroke-width="8" fill="rgb(0,0,0)" fill-opacity="1"></path></g></g><g><g transform="matrix(1,0,0,1,78.46875,31.390625)"><path transform="matrix(0.017,0,0,-0.017,0,0)" d="M321 24C355 -1 392 -22 454 -22C585 -22 706 119 706 340C706 625 587 689 502 689C432 689 391 658 356 621C293 552 291 485 291 441C291 311 357 197 453 197C515 197 579 227 622 281C611 118 534 40 455 40C421 40 388 48 352 78ZM620 418C620 334 571 259 492 259C445 259 417 283 396 320C374 360 373 397 373 441C373 486 374 527 402 572C422 602 450 630 502 630C609 630 620 467 620 418ZM1163 669C1112 689 1071 689 1057 689C916 689 790 546 790 327C790 40 914 -22 999 -22C1059 -22 1102 1 1141 47C1186 99 1205 145 1205 226C1205 356 1139 469 1043 469C1011 469 935 461 874 385C887 549 966 630 1058 630C1096 630 1128 623 1163 609ZM875 223C875 237 875 239 876 251C876 326 921 407 1004 407C1052 407 1080 382 1100 344C1121 307 1123 271 1123 226C1123 191 1123 144 1099 103C1082 74 1056 40 999 40C893 40 878 189 875 223ZM1704 331C1704 412 1700 506 1658 588C1617 665 1548 689 1497 689C1438 689 1368 662 1327 571C1294 497 1289 413 1289 331C1289 251 1293 177 1323 103C1363 5 1439 -22 1496 -22C1569 -22 1632 19 1664 89C1694 155 1704 223 1704 331ZM1497 40C1445 40 1404 78 1384 151C1368 209 1367 264 1367 343C1367 407 1367 468 1384 524C1390 544 1415 627 1496 627C1574 627 1600 550 1607 531C1626 475 1626 406 1626 343C1626 276 1626 212 1608 148C1582 56 1529 40 1497 40Z" stroke="rgb(0,0,0)" stroke-opacity="1" stroke-width="8" fill="rgb(0,0,0)" fill-opacity="1"></path></g></g></g></g></svg>