<svg xmlns="http://www.w3.org/2000/svg" xmlns:xlink="http://www.w3.org/1999/xlink" width="231.5" height="26.390625" style="width:231.5px;height:26.390625px;font-family:Asana-Math, Asana;background:#FFF;"><g><g><g><g transform="matrix(1,0,0,1,2,19)"><path transform="matrix(0.017,0,0,-0.017,0,0)" d="M83 466C103 545 131 624 222 624C316 624 367 548 367 468C367 382 310 324 251 263L174 191L50 65L50 0L449 0L449 72L267 72C255 72 243 71 231 71L122 71C154 100 230 176 261 205C333 274 449 347 449 471C449 587 368 689 236 689C122 689 66 610 42 522C66 487 59 501 83 466ZM1076 681C1013 705 959 716 893 716C701 716 566 543 566 347C566 154 699 -22 894 -22C977 -22 1016 -9 1087 34L1081 103C1009 52 964 42 895 42C744 42 655 194 655 347C655 510 753 652 892 652C971 652 1019 627 1061 600Z" stroke="rgb(0,0,0)" stroke-opacity="1" stroke-width="8" fill="rgb(0,0,0)" fill-opacity="1"></path></g></g><g><g><g><g><g transform="matrix(1,0,0,1,21.8125,22.009375)"><path transform="matrix(0.0119,0,0,-0.0119,0,0)" d="M83 466C103 545 131 624 222 624C316 624 367 548 367 468C367 382 310 324 251 263L174 191L50 65L50 0L449 0L449 72L267 72C255 72 243 71 231 71L122 71C154 100 230 176 261 205C333 274 449 347 449 471C449 587 368 689 236 689C122 689 66 610 42 522C66 487 59 501 83 466Z" stroke="rgb(0,0,0)" stroke-opacity="1" stroke-width="8" fill="rgb(0,0,0)" fill-opacity="1"></path></g></g></g></g></g><g><g transform="matrix(1,0,0,1,28.78125,19)"><path transform="matrix(0.017,0,0,-0.017,0,0)" d="M613 694L524 694L524 391L183 391L183 694L94 694L94 0L183 0L183 330L524 330L524 0L613 0Z" stroke="rgb(0,0,0)" stroke-opacity="1" stroke-width="8" fill="rgb(0,0,0)" fill-opacity="1"></path></g></g><g><g><g><g><g transform="matrix(1,0,0,1,41.3125,22.009375)"><path transform="matrix(0.0119,0,0,-0.0119,0,0)" d="M83 466C103 545 131 624 222 624C316 624 367 548 367 468C367 382 310 324 251 263L174 191L50 65L50 0L449 0L449 72L267 72C255 72 243 71 231 71L122 71C154 100 230 176 261 205C333 274 449 347 449 471C449 587 368 689 236 689C122 689 66 610 42 522C66 487 59 501 83 466Z" stroke="rgb(0,0,0)" stroke-opacity="1" stroke-width="8" fill="rgb(0,0,0)" fill-opacity="1"></path></g></g></g></g></g><g><g transform="matrix(1,0,0,1,48.28125,19)"><path transform="matrix(0.017,0,0,-0.017,0,0)" d="" stroke="rgb(0,0,0)" stroke-opacity="1" stroke-width="8" fill="rgb(0,0,0)" fill-opacity="1"></path></g></g><g><g transform="matrix(1,0,0,1,55.90625,19)"><path transform="matrix(0.017,0,0,-0.017,0,0)" d="M604 241L604 300L364 300L364 538L305 538L305 300L65 300L65 241L305 241L305 0L364 0L364 241Z" stroke="rgb(0,0,0)" stroke-opacity="1" stroke-width="8" fill="rgb(0,0,0)" fill-opacity="1"></path></g></g><g><g transform="matrix(1,0,0,1,70.65625,19)"><path transform="matrix(0.017,0,0,-0.017,0,0)" d="M402 602L665 602L665 667L330 667L330 292L396 292C413 332 450 372 508 372C555 372 609 330 609 208C609 40 487 40 478 40C411 40 350 79 321 134L288 77C329 19 398 -22 479 -22C598 -22 698 78 698 206C698 333 612 434 509 434C469 434 431 419 402 392ZM1427 345C1427 555 1282 716 1116 716C946 716 804 553 804 345C804 133 952 -22 1115 -22C1282 -22 1427 135 1427 345ZM1116 43C998 43 893 168 893 360C893 543 1003 652 1115 652C1231 652 1338 539 1338 360C1338 165 1230 43 1116 43Z" stroke="rgb(0,0,0)" stroke-opacity="1" stroke-width="8" fill="rgb(0,0,0)" fill-opacity="1"></path></g></g><g><g><g><g><g transform="matrix(1,0,0,1,96.375,22.009375)"><path transform="matrix(0.0119,0,0,-0.0119,0,0)" d="M83 466C103 545 131 624 222 624C316 624 367 548 367 468C367 382 310 324 251 263L174 191L50 65L50 0L449 0L449 72L267 72C255 72 243 71 231 71L122 71C154 100 230 176 261 205C333 274 449 347 449 471C449 587 368 689 236 689C122 689 66 610 42 522C66 487 59 501 83 466Z" stroke="rgb(0,0,0)" stroke-opacity="1" stroke-width="8" fill="rgb(0,0,0)" fill-opacity="1"></path></g></g></g></g></g><g><g transform="matrix(1,0,0,1,103.34375,19)"><path transform="matrix(0.017,0,0,-0.017,0,0)" d="" stroke="rgb(0,0,0)" stroke-opacity="1" stroke-width="8" fill="rgb(0,0,0)" fill-opacity="1"></path></g></g><g><g><g transform="matrix(1,0,0,1,110.96875,19)"><path transform="matrix(0.017,0,0,-0.017,0,0)" d="M949 272L743 486L711 452L836 300L65 300L65 241L836 241L711 89L743 55Z" stroke="rgb(0,0,0)" stroke-opacity="1" stroke-width="8" fill="rgb(0,0,0)" fill-opacity="1"></path></g></g></g><g><g transform="matrix(1,0,0,1,131.59375,19)"><path transform="matrix(0.017,0,0,-0.017,0,0)" d="M372 174L471 174L471 236L372 236L372 667L281 667L28 236L28 174L293 174L293 0L372 0ZM106 236C158 323 299 564 299 622L299 236ZM1076 681C1013 705 959 716 893 716C701 716 566 543 566 347C566 154 699 -22 894 -22C977 -22 1016 -9 1087 34L1081 103C1009 52 964 42 895 42C744 42 655 194 655 347C655 510 753 652 892 652C971 652 1019 627 1061 600ZM1815 345C1815 555 1670 716 1504 716C1334 716 1192 553 1192 345C1192 133 1340 -22 1503 -22C1670 -22 1815 135 1815 345ZM1504 43C1386 43 1281 168 1281 360C1281 543 1391 652 1503 652C1619 652 1726 539 1726 360C1726 165 1618 43 1504 43Z" stroke="rgb(0,0,0)" stroke-opacity="1" stroke-width="8" fill="rgb(0,0,0)" fill-opacity="1"></path></g></g><g><g><g><g><g transform="matrix(1,0,0,1,163.90625,22.009375)"><path transform="matrix(0.0119,0,0,-0.0119,0,0)" d="M83 466C103 545 131 624 222 624C316 624 367 548 367 468C367 382 310 324 251 263L174 191L50 65L50 0L449 0L449 72L267 72C255 72 243 71 231 71L122 71C154 100 230 176 261 205C333 274 449 347 449 471C449 587 368 689 236 689C122 689 66 610 42 522C66 487 59 501 83 466Z" stroke="rgb(0,0,0)" stroke-opacity="1" stroke-width="8" fill="rgb(0,0,0)" fill-opacity="1"></path></g></g></g></g></g><g><g transform="matrix(1,0,0,1,174.265625,19)"><path transform="matrix(0.017,0,0,-0.017,0,0)" d="M604 241L604 300L364 300L364 538L305 538L305 300L65 300L65 241L305 241L305 0L364 0L364 241Z" stroke="rgb(0,0,0)" stroke-opacity="1" stroke-width="8" fill="rgb(0,0,0)" fill-opacity="1"></path></g></g><g><g transform="matrix(1,0,0,1,189.015625,19)"><path transform="matrix(0.017,0,0,-0.017,0,0)" d="M83 466C103 545 131 624 222 624C316 624 367 548 367 468C367 382 310 324 251 263L174 191L50 65L50 0L449 0L449 72L267 72C255 72 243 71 231 71L122 71C154 100 230 176 261 205C333 274 449 347 449 471C449 587 368 689 236 689C122 689 66 610 42 522C66 487 59 501 83 466ZM1112 694L1023 694L1023 391L682 391L682 694L593 694L593 0L682 0L682 330L1023 330L1023 0L1112 0Z" stroke="rgb(0,0,0)" stroke-opacity="1" stroke-width="8" fill="rgb(0,0,0)" fill-opacity="1"></path></g></g><g><g><g><g><g transform="matrix(1,0,0,1,210.03125,22.009375)"><path transform="matrix(0.0119,0,0,-0.0119,0,0)" d="M83 466C103 545 131 624 222 624C316 624 367 548 367 468C367 382 310 324 251 263L174 191L50 65L50 0L449 0L449 72L267 72C255 72 243 71 231 71L122 71C154 100 230 176 261 205C333 274 449 347 449 471C449 587 368 689 236 689C122 689 66 610 42 522C66 487 59 501 83 466Z" stroke="rgb(0,0,0)" stroke-opacity="1" stroke-width="8" fill="rgb(0,0,0)" fill-opacity="1"></path></g></g></g></g></g><g><g transform="matrix(1,0,0,1,217,19)"><path transform="matrix(0.017,0,0,-0.017,0,0)" d="M679 345C679 555 534 716 368 716C198 716 56 553 56 345C56 133 204 -22 367 -22C534 -22 679 135 679 345ZM368 43C250 43 145 168 145 360C145 543 255 652 367 652C483 652 590 539 590 360C590 165 482 43 368 43Z" stroke="rgb(0,0,0)" stroke-opacity="1" stroke-width="8" fill="rgb(0,0,0)" fill-opacity="1"></path></g></g></g></g></svg>