<svg xmlns="http://www.w3.org/2000/svg" xmlns:xlink="http://www.w3.org/1999/xlink" width="221.90625" height="54.171875" style="width:221.90625px;height:54.171875px;font-family:Asana-Math, Asana;background:#FFF;"><g><g><g><g><g><g><g transform="matrix(1,0,0,1,6.234375,19)"><path transform="matrix(0.017,0,0,-0.017,0,0)" d="M415 669C364 689 323 689 309 689C168 689 42 546 42 327C42 40 166 -22 251 -22C311 -22 354 1 393 47C438 99 457 145 457 226C457 356 391 469 295 469C263 469 187 461 126 385C139 549 218 630 310 630C348 630 380 623 415 609ZM127 223C127 237 127 239 128 251C128 326 173 407 256 407C304 407 332 382 352 344C373 307 375 271 375 226C375 191 375 144 351 103C334 74 308 40 251 40C145 40 130 189 127 223ZM871 174L970 174L970 236L871 236L871 667L780 667L527 236L527 174L792 174L792 0L871 0ZM605 236C657 323 798 564 798 622L798 236ZM1599 391C1621 391 1649 395 1673 395C1691 395 1730 392 1732 392L1721 455C1651 455 1593 436 1563 423C1542 440 1508 455 1468 455C1382 455 1309 383 1309 292C1309 255 1322 219 1342 193C1313 152 1313 113 1313 108C1313 82 1322 53 1339 32C1287 1 1275 -45 1275 -71C1275 -146 1374 -206 1496 -206C1619 -206 1718 -147 1718 -70C1718 69 1551 69 1512 69L1424 69C1411 69 1366 69 1366 122C1366 133 1370 149 1377 158C1398 143 1431 129 1468 129C1558 129 1628 203 1628 292C1628 340 1606 377 1595 392ZM1468 186C1431 186 1379 209 1379 292C1379 375 1431 398 1468 398C1511 398 1558 370 1558 292C1558 214 1511 186 1468 186ZM1513 -3C1535 -3 1648 -3 1648 -72C1648 -116 1579 -149 1497 -149C1416 -149 1345 -118 1345 -71C1345 -68 1345 -3 1423 -3ZM1903 214C1903 314 1975 386 2073 388L2073 455C1984 454 1929 405 1898 359L1898 450L1828 450L1828 0L1903 0ZM2912 681C2849 705 2795 716 2729 716C2537 716 2402 543 2402 347C2402 154 2535 -22 2730 -22C2813 -22 2852 -9 2923 34L2917 103C2845 52 2800 42 2731 42C2580 42 2491 194 2491 347C2491 510 2589 652 2728 652C2807 652 2855 627 2897 600ZM3651 345C3651 555 3506 716 3340 716C3170 716 3028 553 3028 345C3028 133 3176 -22 3339 -22C3506 -22 3651 135 3651 345ZM3340 43C3222 43 3117 168 3117 360C3117 543 3227 652 3339 652C3455 652 3562 539 3562 360C3562 165 3454 43 3340 43Z" stroke="rgb(0,0,0)" stroke-opacity="1" stroke-width="8" fill="rgb(0,0,0)" fill-opacity="1"></path></g></g><g><g><g><g><g transform="matrix(1,0,0,1,69.765625,22.009375)"><path transform="matrix(0.0119,0,0,-0.0119,0,0)" d="M83 466C103 545 131 624 222 624C316 624 367 548 367 468C367 382 310 324 251 263L174 191L50 65L50 0L449 0L449 72L267 72C255 72 243 71 231 71L122 71C154 100 230 176 261 205C333 274 449 347 449 471C449 587 368 689 236 689C122 689 66 610 42 522C66 487 59 501 83 466Z" stroke="rgb(0,0,0)" stroke-opacity="1" stroke-width="8" fill="rgb(0,0,0)" fill-opacity="1"></path></g></g></g></g></g></g></g><g><g><g><g transform="matrix(1,0,0,1,2,46.78125)"><path transform="matrix(0.017,0,0,-0.017,0,0)" d="M299 689L279 689C220 627 137 624 89 622L89 563C122 564 170 566 220 587L220 59L95 59L95 0L424 0L424 59L299 59ZM541 594L888 594C740 429 651 227 651 -11L735 -11C735 294 878 511 956 601L956 667L541 667ZM1413 669C1362 689 1321 689 1307 689C1166 689 1040 546 1040 327C1040 40 1164 -22 1249 -22C1309 -22 1352 1 1391 47C1436 99 1455 145 1455 226C1455 356 1389 469 1293 469C1261 469 1185 461 1124 385C1137 549 1216 630 1308 630C1346 630 1378 623 1413 609ZM1125 223C1125 237 1125 239 1126 251C1126 326 1171 407 1254 407C1302 407 1330 382 1350 344C1371 307 1373 271 1373 226C1373 191 1373 144 1349 103C1332 74 1306 40 1249 40C1143 40 1128 189 1125 223ZM2098 391C2120 391 2148 395 2172 395C2190 395 2229 392 2231 392L2220 455C2150 455 2092 436 2062 423C2041 440 2007 455 1967 455C1881 455 1808 383 1808 292C1808 255 1821 219 1841 193C1812 152 1812 113 1812 108C1812 82 1821 53 1838 32C1786 1 1774 -45 1774 -71C1774 -146 1873 -206 1995 -206C2118 -206 2217 -147 2217 -70C2217 69 2050 69 2011 69L1923 69C1910 69 1865 69 1865 122C1865 133 1869 149 1876 158C1897 143 1930 129 1967 129C2057 129 2127 203 2127 292C2127 340 2105 377 2094 392ZM1967 186C1930 186 1878 209 1878 292C1878 375 1930 398 1967 398C2010 398 2057 370 2057 292C2057 214 2010 186 1967 186ZM2012 -3C2034 -3 2147 -3 2147 -72C2147 -116 2078 -149 1996 -149C1915 -149 1844 -118 1844 -71C1844 -68 1844 -3 1922 -3ZM2402 214C2402 314 2474 386 2572 388L2572 455C2483 454 2428 405 2397 359L2397 450L2327 450L2327 0L2402 0ZM3411 681C3348 705 3294 716 3228 716C3036 716 2901 543 2901 347C2901 154 3034 -22 3229 -22C3312 -22 3351 -9 3422 34L3416 103C3344 52 3299 42 3230 42C3079 42 2990 194 2990 347C2990 510 3088 652 3227 652C3306 652 3354 627 3396 600ZM4150 345C4150 555 4005 716 3839 716C3669 716 3527 553 3527 345C3527 133 3675 -22 3838 -22C4005 -22 4150 135 4150 345ZM3839 43C3721 43 3616 168 3616 360C3616 543 3726 652 3838 652C3954 652 4061 539 4061 360C4061 165 3953 43 3839 43Z" stroke="rgb(0,0,0)" stroke-opacity="1" stroke-width="8" fill="rgb(0,0,0)" fill-opacity="1"></path></g></g><g><g><g><g><g transform="matrix(1,0,0,1,74.015625,49.790625)"><path transform="matrix(0.0119,0,0,-0.0119,0,0)" d="M83 466C103 545 131 624 222 624C316 624 367 548 367 468C367 382 310 324 251 263L174 191L50 65L50 0L449 0L449 72L267 72C255 72 243 71 231 71L122 71C154 100 230 176 261 205C333 274 449 347 449 471C449 587 368 689 236 689C122 689 66 610 42 522C66 487 59 501 83 466Z" stroke="rgb(0,0,0)" stroke-opacity="1" stroke-width="8" fill="rgb(0,0,0)" fill-opacity="1"></path></g></g></g></g></g></g></g><line style="fill:none;stroke-width:1px;stroke:rgb(0, 0, 0);" x1="2" y1="29.140625" x2="80.984375" y2="29.140625"></line></g><g><g transform="matrix(1,0,0,1,82.671875,33.390625)"><path transform="matrix(0.017,0,0,-0.017,0,0)" d="M417 267L286 213L281 204L317 153L327 153L433 241L451 99L461 95L529 121L529 131L461 253L599 233L608 241L608 303L602 307L463 283L532 408L529 423L467 442L458 438L432 295L337 393L327 393L283 341L286 331ZM1185 689L1165 689C1106 627 1023 624 975 622L975 563C1008 564 1056 566 1106 587L1106 59L981 59L981 0L1310 0L1310 59L1185 59ZM1842 331C1842 412 1838 506 1796 588C1755 665 1686 689 1635 689C1576 689 1506 662 1465 571C1432 497 1427 413 1427 331C1427 251 1431 177 1461 103C1501 5 1577 -22 1634 -22C1707 -22 1770 19 1802 89C1832 155 1842 223 1842 331ZM1635 40C1583 40 1542 78 1522 151C1506 209 1505 264 1505 343C1505 407 1505 468 1522 524C1528 544 1553 627 1634 627C1712 627 1738 550 1745 531C1764 475 1764 406 1764 343C1764 276 1764 212 1746 148C1720 56 1667 40 1635 40ZM2341 331C2341 412 2337 506 2295 588C2254 665 2185 689 2134 689C2075 689 2005 662 1964 571C1931 497 1926 413 1926 331C1926 251 1930 177 1960 103C2000 5 2076 -22 2133 -22C2206 -22 2269 19 2301 89C2331 155 2341 223 2341 331ZM2134 40C2082 40 2041 78 2021 151C2005 209 2004 264 2004 343C2004 407 2004 468 2021 524C2027 544 2052 627 2133 627C2211 627 2237 550 2244 531C2263 475 2263 406 2263 343C2263 276 2263 212 2245 148C2219 56 2166 40 2134 40ZM2586 689C2491 689 2422 619 2422 522C2422 433 2487 368 2576 368C2669 368 2738 439 2738 535C2738 623 2673 689 2586 689ZM2583 666C2634 666 2666 615 2666 533C2666 447 2631 391 2577 391C2524 391 2494 440 2494 526C2494 612 2528 666 2583 666ZM3033 321C2938 321 2869 251 2869 154C2869 65 2934 0 3023 0C3116 0 3185 71 3185 167C3185 255 3120 321 3033 321ZM3030 298C3081 298 3113 247 3113 165C3113 79 3078 23 3024 23C2971 23 2941 72 2941 158C2941 244 2975 298 3030 298ZM2633 -20L2999 709L2959 709L2593 -20Z" stroke="rgb(0,0,0)" stroke-opacity="1" stroke-width="8" fill="rgb(0,0,0)" fill-opacity="1"></path></g></g><g><g transform="matrix(1,0,0,1,146.78125,33.390625)"><path transform="matrix(0.017,0,0,-0.017,0,0)" d="M604 347L604 406L65 406L65 347ZM604 134L604 193L65 193L65 134Z" stroke="rgb(0,0,0)" stroke-opacity="1" stroke-width="8" fill="rgb(0,0,0)" fill-opacity="1"></path></g></g><g><g transform="matrix(1,0,0,1,163.234375,33.390625)"><path transform="matrix(0.017,0,0,-0.017,0,0)" d="M341 522C370 593 435 630 496 630C548 630 597 600 597 535C597 473 556 413 495 398C489 397 487 397 416 391L416 329L487 329C595 329 617 235 617 184C617 105 571 40 494 40C425 40 346 75 302 144L291 83C364 -12 456 -22 496 -22C618 -22 706 76 706 183C706 275 636 338 568 360C644 401 679 471 679 535C679 622 596 689 497 689C420 689 347 648 305 577ZM1163 669C1112 689 1071 689 1057 689C916 689 790 546 790 327C790 40 914 -22 999 -22C1059 -22 1102 1 1141 47C1186 99 1205 145 1205 226C1205 356 1139 469 1043 469C1011 469 935 461 874 385C887 549 966 630 1058 630C1096 630 1128 623 1163 609ZM875 223C875 237 875 239 876 251C876 326 921 407 1004 407C1052 407 1080 382 1100 344C1121 307 1123 271 1123 226C1123 191 1123 144 1099 103C1082 74 1056 40 999 40C893 40 878 189 875 223ZM1371 111C1341 111 1314 83 1314 53C1314 23 1341 -5 1370 -5C1402 -5 1430 22 1430 53C1430 83 1402 111 1371 111ZM1588 522C1617 593 1682 630 1743 630C1795 630 1844 600 1844 535C1844 473 1803 413 1742 398C1736 397 1734 397 1663 391L1663 329L1734 329C1842 329 1864 235 1864 184C1864 105 1818 40 1741 40C1672 40 1593 75 1549 144L1538 83C1611 -12 1703 -22 1743 -22C1865 -22 1953 76 1953 183C1953 275 1883 338 1815 360C1891 401 1926 471 1926 535C1926 622 1843 689 1744 689C1667 689 1594 648 1552 577ZM2410 669C2359 689 2318 689 2304 689C2163 689 2037 546 2037 327C2037 40 2161 -22 2246 -22C2306 -22 2349 1 2388 47C2433 99 2452 145 2452 226C2452 356 2386 469 2290 469C2258 469 2182 461 2121 385C2134 549 2213 630 2305 630C2343 630 2375 623 2410 609ZM2122 223C2122 237 2122 239 2123 251C2123 326 2168 407 2251 407C2299 407 2327 382 2347 344C2368 307 2370 271 2370 226C2370 191 2370 144 2346 103C2329 74 2303 40 2246 40C2140 40 2125 189 2122 223ZM2697 689C2602 689 2533 619 2533 522C2533 433 2598 368 2687 368C2780 368 2849 439 2849 535C2849 623 2784 689 2697 689ZM2694 666C2745 666 2777 615 2777 533C2777 447 2742 391 2688 391C2635 391 2605 440 2605 526C2605 612 2639 666 2694 666ZM3144 321C3049 321 2980 251 2980 154C2980 65 3045 0 3134 0C3227 0 3296 71 3296 167C3296 255 3231 321 3144 321ZM3141 298C3192 298 3224 247 3224 165C3224 79 3189 23 3135 23C3082 23 3052 72 3052 158C3052 244 3086 298 3141 298ZM2744 -20L3110 709L3070 709L2704 -20Z" stroke="rgb(0,0,0)" stroke-opacity="1" stroke-width="8" fill="rgb(0,0,0)" fill-opacity="1"></path></g></g></g></g></svg>