<svg xmlns="http://www.w3.org/2000/svg" xmlns:xlink="http://www.w3.org/1999/xlink" width="132.140625" height="54.171875" style="width:132.140625px;height:54.171875px;font-family:Asana-Math, Asana;background:#FFF;"><g><g><g><g transform="matrix(1,0,0,1,2,33.390625)"><path transform="matrix(0.017,0,0,-0.017,0,0)" d="M203 689C108 689 39 619 39 522C39 433 104 368 193 368C286 368 355 439 355 535C355 623 290 689 203 689ZM200 666C251 666 283 615 283 533C283 447 248 391 194 391C141 391 111 440 111 526C111 612 145 666 200 666ZM650 321C555 321 486 251 486 154C486 65 551 0 640 0C733 0 802 71 802 167C802 255 737 321 650 321ZM647 298C698 298 730 247 730 165C730 79 695 23 641 23C588 23 558 72 558 158C558 244 592 298 647 298ZM250 -20L616 709L576 709L210 -20ZM1601 329L1601 390L1271 390L1271 626L1628 626L1628 691L1182 691L1182 0L1642 0L1642 71L1271 71L1271 329Z" stroke="rgb(0,0,0)" stroke-opacity="1" stroke-width="8" fill="rgb(0,0,0)" fill-opacity="1"></path></g></g><g><g><g><g><g transform="matrix(1,0,0,1,31.140625,36.4)"><path transform="matrix(0.0119,0,0,-0.0119,0,0)" d="M176 386L286 386L286 444L173 444L173 563C173 637 240 644 266 644C286 644 313 642 347 627L347 694C335 697 304 705 267 705C173 705 101 634 101 534L101 444L27 444L27 386L101 386L101 0L176 0Z" stroke="rgb(0,0,0)" stroke-opacity="1" stroke-width="8" fill="rgb(0,0,0)" fill-opacity="1"></path></g></g></g></g></g><g><g transform="matrix(1,0,0,1,35.78125,33.390625)"><path transform="matrix(0.017,0,0,-0.017,0,0)" d="" stroke="rgb(0,0,0)" stroke-opacity="1" stroke-width="8" fill="rgb(0,0,0)" fill-opacity="1"></path></g></g><g><g transform="matrix(1,0,0,1,45.109375,33.390625)"><path transform="matrix(0.017,0,0,-0.017,0,0)" d="M604 347L604 406L65 406L65 347ZM604 134L604 193L65 193L65 134Z" stroke="rgb(0,0,0)" stroke-opacity="1" stroke-width="8" fill="rgb(0,0,0)" fill-opacity="1"></path></g></g><g><g transform="matrix(1,0,0,1,61.5625,33.390625)"><path transform="matrix(0.017,0,0,-0.017,0,0)" d="" stroke="rgb(0,0,0)" stroke-opacity="1" stroke-width="8" fill="rgb(0,0,0)" fill-opacity="1"></path></g></g><g><g><g><g><g transform="matrix(1,0,0,1,67.6875,19)"><path transform="matrix(0.017,0,0,-0.017,0,0)" d="M352 289C476 289 582 380 582 492C582 599 483 694 345 694L96 694L96 0L185 0L185 289ZM323 638C433 638 501 577 501 492C501 413 438 347 323 347L182 347L182 638Z" stroke="rgb(0,0,0)" stroke-opacity="1" stroke-width="8" fill="rgb(0,0,0)" fill-opacity="1"></path></g></g><g><g><g><g><g transform="matrix(1,0,0,1,79.03125,22.009375)"><path transform="matrix(0.0119,0,0,-0.0119,0,0)" d="M419 326C522 356 589 427 589 508C589 607 480 694 337 694L96 694L96 0L182 0L182 317L340 317L528 0L617 0ZM182 378L182 638L326 638C442 638 508 579 508 508C508 437 444 378 326 378Z" stroke="rgb(0,0,0)" stroke-opacity="1" stroke-width="8" fill="rgb(0,0,0)" fill-opacity="1"></path></g></g></g></g></g></g></g><g><g><g><g transform="matrix(1,0,0,1,67.484375,46.78125)"><path transform="matrix(0.017,0,0,-0.017,0,0)" d="M352 289C476 289 582 380 582 492C582 599 483 694 345 694L96 694L96 0L185 0L185 289ZM323 638C433 638 501 577 501 492C501 413 438 347 323 347L182 347L182 638Z" stroke="rgb(0,0,0)" stroke-opacity="1" stroke-width="8" fill="rgb(0,0,0)" fill-opacity="1"></path></g></g><g><g><g><g><g transform="matrix(1,0,0,1,78.828125,49.790625)"><path transform="matrix(0.0119,0,0,-0.0119,0,0)" d="M385 624L474 624C486 624 498 623 510 623L644 623L644 688L36 688L36 623L170 623C182 623 194 624 206 624L296 624L296 0L385 0Z" stroke="rgb(0,0,0)" stroke-opacity="1" stroke-width="8" fill="rgb(0,0,0)" fill-opacity="1"></path></g></g></g></g></g></g></g><line style="fill:none;stroke-width:1px;stroke:rgb(0, 0, 0);" x1="67.484375" y1="29.140625" x2="87.9375" y2="29.140625"></line></g><g><g transform="matrix(1,0,0,1,89.625,33.390625)"><path transform="matrix(0.017,0,0,-0.017,0,0)" d="M417 267L286 213L281 204L317 153L327 153L433 241L451 99L461 95L529 121L529 131L461 253L599 233L608 241L608 303L602 307L463 283L532 408L529 423L467 442L458 438L432 295L337 393L327 393L283 341L286 331ZM1185 689L1165 689C1106 627 1023 624 975 622L975 563C1008 564 1056 566 1106 587L1106 59L981 59L981 0L1310 0L1310 59L1185 59ZM1842 331C1842 412 1838 506 1796 588C1755 665 1686 689 1635 689C1576 689 1506 662 1465 571C1432 497 1427 413 1427 331C1427 251 1431 177 1461 103C1501 5 1577 -22 1634 -22C1707 -22 1770 19 1802 89C1832 155 1842 223 1842 331ZM1635 40C1583 40 1542 78 1522 151C1506 209 1505 264 1505 343C1505 407 1505 468 1522 524C1528 544 1553 627 1634 627C1712 627 1738 550 1745 531C1764 475 1764 406 1764 343C1764 276 1764 212 1746 148C1720 56 1667 40 1635 40ZM2341 331C2341 412 2337 506 2295 588C2254 665 2185 689 2134 689C2075 689 2005 662 1964 571C1931 497 1926 413 1926 331C1926 251 1930 177 1960 103C2000 5 2076 -22 2133 -22C2206 -22 2269 19 2301 89C2331 155 2341 223 2341 331ZM2134 40C2082 40 2041 78 2021 151C2005 209 2004 264 2004 343C2004 407 2004 468 2021 524C2027 544 2052 627 2133 627C2211 627 2237 550 2244 531C2263 475 2263 406 2263 343C2263 276 2263 212 2245 148C2219 56 2166 40 2134 40Z" stroke="rgb(0,0,0)" stroke-opacity="1" stroke-width="8" fill="rgb(0,0,0)" fill-opacity="1"></path></g></g></g></g></svg>