<svg xmlns="http://www.w3.org/2000/svg" xmlns:xlink="http://www.w3.org/1999/xlink" width="332.4375" height="47.171875" style="width:332.4375px;height:47.171875px;font-family:Asana-Math, Asana;background:#FFF;"><g><g><g><g transform="matrix(1,0,0,1,2,31.390625)"><path transform="matrix(0.017,0,0,-0.017,0,0)" d="M153 29L157 29C187 -5 225 -15 266 -15C443 -15 510 168 485 325C470 420 415 473 319 473C200 473 99 395 87 277C82 234 84 188 86 144C94 1 91 -141 101 -284C129 -283 158 -277 182 -266C172 -223 153 -148 153 29ZM407 311C425 203 413 11 275 11C197 11 168 72 158 138C142 243 149 441 286 441C365 441 396 380 407 311ZM918 391C940 391 968 395 992 395C1010 395 1049 392 1051 392L1040 455C970 455 912 436 882 423C861 440 827 455 787 455C701 455 628 383 628 292C628 255 641 219 661 193C632 152 632 113 632 108C632 82 641 53 658 32C606 1 594 -45 594 -71C594 -146 693 -206 815 -206C938 -206 1037 -147 1037 -70C1037 69 870 69 831 69L743 69C730 69 685 69 685 122C685 133 689 149 696 158C717 143 750 129 787 129C877 129 947 203 947 292C947 340 925 377 914 392ZM787 186C750 186 698 209 698 292C698 375 750 398 787 398C830 398 877 370 877 292C877 214 830 186 787 186ZM832 -3C854 -3 967 -3 967 -72C967 -116 898 -149 816 -149C735 -149 664 -118 664 -71C664 -68 664 -3 742 -3ZM1500 298C1500 364 1485 455 1363 455C1301 455 1253 424 1221 383L1221 694L1146 694L1146 0L1224 0L1224 245C1224 311 1249 394 1325 394C1421 394 1422 323 1422 291L1422 0L1500 0Z" stroke="rgb(0,0,0)" stroke-opacity="1" stroke-width="8" fill="rgb(0,0,0)" fill-opacity="1"></path></g></g><g><g><g><g><g transform="matrix(1,0,0,1,29.375,34.4)"><path transform="matrix(0.0119,0,0,-0.0119,0,0)" d="M299 689L279 689C220 627 137 624 89 622L89 563C122 564 170 566 220 587L220 59L95 59L95 0L424 0L424 59L299 59Z" stroke="rgb(0,0,0)" stroke-opacity="1" stroke-width="8" fill="rgb(0,0,0)" fill-opacity="1"></path></g></g></g></g></g><g><g transform="matrix(1,0,0,1,36.34375,31.390625)"><path transform="matrix(0.017,0,0,-0.017,0,0)" d="" stroke="rgb(0,0,0)" stroke-opacity="1" stroke-width="8" fill="rgb(0,0,0)" fill-opacity="1"></path></g></g><g><g transform="matrix(1,0,0,1,43.96875,31.390625)"><path transform="matrix(0.017,0,0,-0.017,0,0)" d="M604 241L604 300L364 300L364 538L305 538L305 300L65 300L65 241L305 241L305 0L364 0L364 241Z" stroke="rgb(0,0,0)" stroke-opacity="1" stroke-width="8" fill="rgb(0,0,0)" fill-opacity="1"></path></g></g><g><g transform="matrix(1,0,0,1,58.71875,31.390625)"><path transform="matrix(0.017,0,0,-0.017,0,0)" d="" stroke="rgb(0,0,0)" stroke-opacity="1" stroke-width="8" fill="rgb(0,0,0)" fill-opacity="1"></path></g></g><g><g><g><g><g transform="matrix(1,0,0,1,64.640625,19)"><path transform="matrix(0.017,0,0,-0.017,0,0)" d="M299 689L279 689C220 627 137 624 89 622L89 563C122 564 170 566 220 587L220 59L95 59L95 0L424 0L424 59L299 59Z" stroke="rgb(0,0,0)" stroke-opacity="1" stroke-width="8" fill="rgb(0,0,0)" fill-opacity="1"></path></g></g></g></g><g><g><g><g transform="matrix(1,0,0,1,64.640625,44.78125)"><path transform="matrix(0.017,0,0,-0.017,0,0)" d="M83 466C103 545 131 624 222 624C316 624 367 548 367 468C367 382 310 324 251 263L174 191L50 65L50 0L449 0L449 72L267 72C255 72 243 71 231 71L122 71C154 100 230 176 261 205C333 274 449 347 449 471C449 587 368 689 236 689C122 689 66 610 42 522C66 487 59 501 83 466Z" stroke="rgb(0,0,0)" stroke-opacity="1" stroke-width="8" fill="rgb(0,0,0)" fill-opacity="1"></path></g></g></g></g><line style="fill:none;stroke-width:1px;stroke:rgb(0, 0, 0);" x1="64.640625" y1="27.140625" x2="73.125" y2="27.140625"></line></g><g><g transform="matrix(1,0,0,1,74.8125,31.390625)"><path transform="matrix(0.017,0,0,-0.017,0,0)" d="M153 29L157 29C187 -5 225 -15 266 -15C443 -15 510 168 485 325C470 420 415 473 319 473C200 473 99 395 87 277C82 234 84 188 86 144C94 1 91 -141 101 -284C129 -283 158 -277 182 -266C172 -223 153 -148 153 29ZM407 311C425 203 413 11 275 11C197 11 168 72 158 138C142 243 149 441 286 441C365 441 396 380 407 311ZM1218 694L1140 694L1007 352C991 311 916 118 907 72L906 72C898 112 855 222 846 246L673 694L580 694L853 0L945 0Z" stroke="rgb(0,0,0)" stroke-opacity="1" stroke-width="8" fill="rgb(0,0,0)" fill-opacity="1"></path></g></g><g><g><g><g><g transform="matrix(1,0,0,1,96.71875,24.540625)"><path transform="matrix(0.0119,0,0,-0.0119,0,0)" d="M83 466C103 545 131 624 222 624C316 624 367 548 367 468C367 382 310 324 251 263L174 191L50 65L50 0L449 0L449 72L267 72C255 72 243 71 231 71L122 71C154 100 230 176 261 205C333 274 449 347 449 471C449 587 368 689 236 689C122 689 66 610 42 522C66 487 59 501 83 466Z" stroke="rgb(0,0,0)" stroke-opacity="1" stroke-width="8" fill="rgb(0,0,0)" fill-opacity="1"></path></g></g></g></g><g><g><g><g transform="matrix(1,0,0,1,96.25,36.05625)"><path transform="matrix(0.0119,0,0,-0.0119,0,0)" d="M299 689L279 689C220 627 137 624 89 622L89 563C122 564 170 566 220 587L220 59L95 59L95 0L424 0L424 59L299 59Z" stroke="rgb(0,0,0)" stroke-opacity="1" stroke-width="8" fill="rgb(0,0,0)" fill-opacity="1"></path></g></g></g></g></g><g><g transform="matrix(1,0,0,1,103.6875,31.390625)"><path transform="matrix(0.017,0,0,-0.017,0,0)" d="" stroke="rgb(0,0,0)" stroke-opacity="1" stroke-width="8" fill="rgb(0,0,0)" fill-opacity="1"></path></g></g><g><g transform="matrix(1,0,0,1,111.3125,31.390625)"><path transform="matrix(0.017,0,0,-0.017,0,0)" d="M604 241L604 300L364 300L364 538L305 538L305 300L65 300L65 241L305 241L305 0L364 0L364 241Z" stroke="rgb(0,0,0)" stroke-opacity="1" stroke-width="8" fill="rgb(0,0,0)" fill-opacity="1"></path></g></g><g><g transform="matrix(1,0,0,1,126.0625,31.390625)"><path transform="matrix(0.017,0,0,-0.017,0,0)" d="M601 289C725 289 831 380 831 492C831 599 732 694 594 694L345 694L345 0L434 0L434 289ZM572 638C682 638 750 577 750 492C750 413 687 347 572 347L431 347L431 638Z" stroke="rgb(0,0,0)" stroke-opacity="1" stroke-width="8" fill="rgb(0,0,0)" fill-opacity="1"></path></g></g><g><g><g><g><g transform="matrix(1,0,0,1,141.625,34.4)"><path transform="matrix(0.0119,0,0,-0.0119,0,0)" d="M299 689L279 689C220 627 137 624 89 622L89 563C122 564 170 566 220 587L220 59L95 59L95 0L424 0L424 59L299 59Z" stroke="rgb(0,0,0)" stroke-opacity="1" stroke-width="8" fill="rgb(0,0,0)" fill-opacity="1"></path></g></g></g></g></g><g><g transform="matrix(1,0,0,1,148.59375,31.390625)"><path transform="matrix(0.017,0,0,-0.017,0,0)" d="" stroke="rgb(0,0,0)" stroke-opacity="1" stroke-width="8" fill="rgb(0,0,0)" fill-opacity="1"></path></g></g><g><g transform="matrix(1,0,0,1,157.921875,31.390625)"><path transform="matrix(0.017,0,0,-0.017,0,0)" d="M604 347L604 406L65 406L65 347ZM604 134L604 193L65 193L65 134Z" stroke="rgb(0,0,0)" stroke-opacity="1" stroke-width="8" fill="rgb(0,0,0)" fill-opacity="1"></path></g></g><g><g transform="matrix(1,0,0,1,174.375,31.390625)"><path transform="matrix(0.017,0,0,-0.017,0,0)" d="M402 29L406 29C436 -5 474 -15 515 -15C692 -15 759 168 734 325C719 420 664 473 568 473C449 473 348 395 336 277C331 234 333 188 335 144C343 1 340 -141 350 -284C378 -283 407 -277 431 -266C421 -223 402 -148 402 29ZM656 311C674 203 662 11 524 11C446 11 417 72 407 138C391 243 398 441 535 441C614 441 645 380 656 311ZM1167 391C1189 391 1217 395 1241 395C1259 395 1298 392 1300 392L1289 455C1219 455 1161 436 1131 423C1110 440 1076 455 1036 455C950 455 877 383 877 292C877 255 890 219 910 193C881 152 881 113 881 108C881 82 890 53 907 32C855 1 843 -45 843 -71C843 -146 942 -206 1064 -206C1187 -206 1286 -147 1286 -70C1286 69 1119 69 1080 69L992 69C979 69 934 69 934 122C934 133 938 149 945 158C966 143 999 129 1036 129C1126 129 1196 203 1196 292C1196 340 1174 377 1163 392ZM1036 186C999 186 947 209 947 292C947 375 999 398 1036 398C1079 398 1126 370 1126 292C1126 214 1079 186 1036 186ZM1081 -3C1103 -3 1216 -3 1216 -72C1216 -116 1147 -149 1065 -149C984 -149 913 -118 913 -71C913 -68 913 -3 991 -3ZM1749 298C1749 364 1734 455 1612 455C1550 455 1502 424 1470 383L1470 694L1395 694L1395 0L1473 0L1473 245C1473 311 1498 394 1574 394C1670 394 1671 323 1671 291L1671 0L1749 0Z" stroke="rgb(0,0,0)" stroke-opacity="1" stroke-width="8" fill="rgb(0,0,0)" fill-opacity="1"></path></g></g><g><g><g><g><g transform="matrix(1,0,0,1,205.96875,34.4)"><path transform="matrix(0.0119,0,0,-0.0119,0,0)" d="M83 466C103 545 131 624 222 624C316 624 367 548 367 468C367 382 310 324 251 263L174 191L50 65L50 0L449 0L449 72L267 72C255 72 243 71 231 71L122 71C154 100 230 176 261 205C333 274 449 347 449 471C449 587 368 689 236 689C122 689 66 610 42 522C66 487 59 501 83 466Z" stroke="rgb(0,0,0)" stroke-opacity="1" stroke-width="8" fill="rgb(0,0,0)" fill-opacity="1"></path></g></g></g></g></g><g><g transform="matrix(1,0,0,1,212.9375,31.390625)"><path transform="matrix(0.017,0,0,-0.017,0,0)" d="" stroke="rgb(0,0,0)" stroke-opacity="1" stroke-width="8" fill="rgb(0,0,0)" fill-opacity="1"></path></g></g><g><g transform="matrix(1,0,0,1,220.5625,31.390625)"><path transform="matrix(0.017,0,0,-0.017,0,0)" d="M604 241L604 300L364 300L364 538L305 538L305 300L65 300L65 241L305 241L305 0L364 0L364 241Z" stroke="rgb(0,0,0)" stroke-opacity="1" stroke-width="8" fill="rgb(0,0,0)" fill-opacity="1"></path></g></g><g><g transform="matrix(1,0,0,1,235.3125,31.390625)"><path transform="matrix(0.017,0,0,-0.017,0,0)" d="" stroke="rgb(0,0,0)" stroke-opacity="1" stroke-width="8" fill="rgb(0,0,0)" fill-opacity="1"></path></g></g><g><g><g><g><g transform="matrix(1,0,0,1,241.234375,19)"><path transform="matrix(0.017,0,0,-0.017,0,0)" d="M299 689L279 689C220 627 137 624 89 622L89 563C122 564 170 566 220 587L220 59L95 59L95 0L424 0L424 59L299 59Z" stroke="rgb(0,0,0)" stroke-opacity="1" stroke-width="8" fill="rgb(0,0,0)" fill-opacity="1"></path></g></g></g></g><g><g><g><g transform="matrix(1,0,0,1,241.234375,44.78125)"><path transform="matrix(0.017,0,0,-0.017,0,0)" d="M83 466C103 545 131 624 222 624C316 624 367 548 367 468C367 382 310 324 251 263L174 191L50 65L50 0L449 0L449 72L267 72C255 72 243 71 231 71L122 71C154 100 230 176 261 205C333 274 449 347 449 471C449 587 368 689 236 689C122 689 66 610 42 522C66 487 59 501 83 466Z" stroke="rgb(0,0,0)" stroke-opacity="1" stroke-width="8" fill="rgb(0,0,0)" fill-opacity="1"></path></g></g></g></g><line style="fill:none;stroke-width:1px;stroke:rgb(0, 0, 0);" x1="241.234375" y1="27.140625" x2="249.71875" y2="27.140625"></line></g><g><g transform="matrix(1,0,0,1,251.40625,31.390625)"><path transform="matrix(0.017,0,0,-0.017,0,0)" d="M402 29L406 29C436 -5 474 -15 515 -15C692 -15 759 168 734 325C719 420 664 473 568 473C449 473 348 395 336 277C331 234 333 188 335 144C343 1 340 -141 350 -284C378 -283 407 -277 431 -266C421 -223 402 -148 402 29ZM656 311C674 203 662 11 524 11C446 11 417 72 407 138C391 243 398 441 535 441C614 441 645 380 656 311ZM1467 694L1389 694L1256 352C1240 311 1165 118 1156 72L1155 72C1147 112 1104 222 1095 246L922 694L829 694L1102 0L1194 0Z" stroke="rgb(0,0,0)" stroke-opacity="1" stroke-width="8" fill="rgb(0,0,0)" fill-opacity="1"></path></g></g><g><g><g><g><g transform="matrix(1,0,0,1,277.546875,24.540625)"><path transform="matrix(0.0119,0,0,-0.0119,0,0)" d="M83 466C103 545 131 624 222 624C316 624 367 548 367 468C367 382 310 324 251 263L174 191L50 65L50 0L449 0L449 72L267 72C255 72 243 71 231 71L122 71C154 100 230 176 261 205C333 274 449 347 449 471C449 587 368 689 236 689C122 689 66 610 42 522C66 487 59 501 83 466Z" stroke="rgb(0,0,0)" stroke-opacity="1" stroke-width="8" fill="rgb(0,0,0)" fill-opacity="1"></path></g></g></g></g><g><g><g><g transform="matrix(1,0,0,1,277.078125,36.05625)"><path transform="matrix(0.0119,0,0,-0.0119,0,0)" d="M83 466C103 545 131 624 222 624C316 624 367 548 367 468C367 382 310 324 251 263L174 191L50 65L50 0L449 0L449 72L267 72C255 72 243 71 231 71L122 71C154 100 230 176 261 205C333 274 449 347 449 471C449 587 368 689 236 689C122 689 66 610 42 522C66 487 59 501 83 466Z" stroke="rgb(0,0,0)" stroke-opacity="1" stroke-width="8" fill="rgb(0,0,0)" fill-opacity="1"></path></g></g></g></g></g><g><g transform="matrix(1,0,0,1,284.515625,31.390625)"><path transform="matrix(0.017,0,0,-0.017,0,0)" d="" stroke="rgb(0,0,0)" stroke-opacity="1" stroke-width="8" fill="rgb(0,0,0)" fill-opacity="1"></path></g></g><g><g transform="matrix(1,0,0,1,292.140625,31.390625)"><path transform="matrix(0.017,0,0,-0.017,0,0)" d="M604 241L604 300L364 300L364 538L305 538L305 300L65 300L65 241L305 241L305 0L364 0L364 241Z" stroke="rgb(0,0,0)" stroke-opacity="1" stroke-width="8" fill="rgb(0,0,0)" fill-opacity="1"></path></g></g><g><g transform="matrix(1,0,0,1,306.890625,31.390625)"><path transform="matrix(0.017,0,0,-0.017,0,0)" d="M601 289C725 289 831 380 831 492C831 599 732 694 594 694L345 694L345 0L434 0L434 289ZM572 638C682 638 750 577 750 492C750 413 687 347 572 347L431 347L431 638ZM969 466C989 545 1017 624 1108 624C1202 624 1253 548 1253 468C1253 382 1196 324 1137 263L1060 191L936 65L936 0L1335 0L1335 72L1153 72C1141 72 1129 71 1117 71L1008 71C1040 100 1116 176 1147 205C1219 274 1335 347 1335 471C1335 587 1254 689 1122 689C1008 689 952 610 928 522C952 487 945 501 969 466Z" stroke="rgb(0,0,0)" stroke-opacity="1" stroke-width="8" fill="rgb(0,0,0)" fill-opacity="1"></path></g></g></g></g></svg>