<svg xmlns="http://www.w3.org/2000/svg" xmlns:xlink="http://www.w3.org/1999/xlink" width="112.65625" height="32" style="width:112.65625px;height:32px;font-family:Asana-Math, Asana;background:#FFF;"><g><g><g><g><g><g><g transform="matrix(1,0,0,1,19,26.609375)"><path transform="matrix(0.017,0,0,-0.017,0,0)" d="M410 418C351 452 317 461 256 461C117 461 36 340 36 222C36 98 127 -11 252 -11C306 -11 361 3 415 40L409 107C358 67 304 53 253 53C170 53 114 125 114 223C114 301 151 397 257 397C309 397 343 389 398 353Z" stroke="rgb(0,0,0)" stroke-opacity="1" stroke-width="8" fill="rgb(0,0,0)" fill-opacity="1"></path></g></g><g><g><g><g><g transform="matrix(1,0,0,1,27.5,19.9)"><path transform="matrix(0.0119,0,0,-0.0119,0,0)" d="M83 466C103 545 131 624 222 624C316 624 367 548 367 468C367 382 310 324 251 263L174 191L50 65L50 0L449 0L449 72L267 72C255 72 243 71 231 71L122 71C154 100 230 176 261 205C333 274 449 347 449 471C449 587 368 689 236 689C122 689 66 610 42 522C66 487 59 501 83 466Z" stroke="rgb(0,0,0)" stroke-opacity="1" stroke-width="8" fill="rgb(0,0,0)" fill-opacity="1"></path></g></g></g></g></g><g><g transform="matrix(1,0,0,1,34.46875,26.609375)"><path transform="matrix(0.017,0,0,-0.017,0,0)" d="" stroke="rgb(0,0,0)" stroke-opacity="1" stroke-width="8" fill="rgb(0,0,0)" fill-opacity="1"></path></g></g><g><g transform="matrix(1,0,0,1,42.09375,26.609375)"><path transform="matrix(0.017,0,0,-0.017,0,0)" d="M555 243L555 299L51 299L51 243Z" stroke="rgb(0,0,0)" stroke-opacity="1" stroke-width="8" fill="rgb(0,0,0)" fill-opacity="1"></path></g></g><g><g transform="matrix(1,0,0,1,55.78125,26.609375)"><path transform="matrix(0.017,0,0,-0.017,0,0)" d="M406 694L331 694L331 0L409 0L409 46C433 24 476 -11 543 -11C643 -11 729 89 729 223C729 347 661 455 567 455C528 455 466 445 406 396ZM409 335C425 359 461 394 516 394C575 394 651 351 651 223C651 93 567 50 506 50C467 50 434 68 409 114Z" stroke="rgb(0,0,0)" stroke-opacity="1" stroke-width="8" fill="rgb(0,0,0)" fill-opacity="1"></path></g></g><g><g><g><g><g transform="matrix(1,0,0,1,69.75,19.9)"><path transform="matrix(0.0119,0,0,-0.0119,0,0)" d="M83 466C103 545 131 624 222 624C316 624 367 548 367 468C367 382 310 324 251 263L174 191L50 65L50 0L449 0L449 72L267 72C255 72 243 71 231 71L122 71C154 100 230 176 261 205C333 274 449 347 449 471C449 587 368 689 236 689C122 689 66 610 42 522C66 487 59 501 83 466Z" stroke="rgb(0,0,0)" stroke-opacity="1" stroke-width="8" fill="rgb(0,0,0)" fill-opacity="1"></path></g></g></g></g></g></g></g><svg x="2" overflow="visible" y="6" height="17" width="74.71875"><polygon points="0.35,11.89 4.79,9.52 9.60,19.72 16.36,0.00 74.72,0.00 74.72,1.05 17.09,1.05 9.18,24.19 3.10,11.45 0.64,12.37" style="fill:rgb(0,0,0);fill-opacity:1;stroke-width:1px;stroke:none;stroke-opacity:1;"></polygon></svg></g><g><g transform="matrix(1,0,0,1,76.71875,26.609375)"><path transform="matrix(0.017,0,0,-0.017,0,0)" d="" stroke="rgb(0,0,0)" stroke-opacity="1" stroke-width="8" fill="rgb(0,0,0)" fill-opacity="1"></path></g></g><g><g transform="matrix(1,0,0,1,86.046875,26.609375)"><path transform="matrix(0.017,0,0,-0.017,0,0)" d="M604 347L604 406L65 406L65 347ZM604 134L604 193L65 193L65 134Z" stroke="rgb(0,0,0)" stroke-opacity="1" stroke-width="8" fill="rgb(0,0,0)" fill-opacity="1"></path></g></g><g><g transform="matrix(1,0,0,1,102.5,26.609375)"><path transform="matrix(0.017,0,0,-0.017,0,0)" d="M399 289C399 391 326 461 234 461C169 461 124 445 77 418L83 352C135 389 185 402 234 402C281 402 321 362 321 288L321 245C171 243 44 201 44 113C44 70 71 -11 158 -11C172 -11 266 -9 324 36L324 0L399 0ZM321 132C321 113 321 88 287 69C258 51 220 50 209 50C161 50 116 73 116 115C116 185 278 192 321 194Z" stroke="rgb(0,0,0)" stroke-opacity="1" stroke-width="8" fill="rgb(0,0,0)" fill-opacity="1"></path></g></g></g></g></svg>