<svg version="1.1" xmlns="http://www.w3.org/2000/svg" viewBox="0 0 254.4928931603563 113.7352791111025" width="508.9857863207126" height="227.470558222205">
  <!-- svg-source:excalidraw -->
  
  <defs>
    <style class="style-fonts">
      @font-face {
        font-family: "Virgil";
        src: url("https://excalidraw.com/Virgil.woff2");
      }
      @font-face {
        font-family: "Cascadia";
        src: url("https://excalidraw.com/Cascadia.woff2");
      }
    </style>
  </defs>
  <g stroke-linecap="round"><g transform="translate(10 69.52783605857985) rotate(0 117.24644658017814 -0.41494320566562237)"><path d="M0 0 C39.08 -0.14, 195.41 -0.69, 234.49 -0.83 M0 0 C39.08 -0.14, 195.41 -0.69, 234.49 -0.83" stroke="black" stroke-width="2" fill="none"></path></g></g><mask></mask><g stroke-linecap="round"><g transform="translate(136.03915103318832 69.52783605857985) rotate(0 -10.061949032060966 16.946440475050622)"><path d="M0 0 C-3.35 5.65, -16.77 28.24, -20.12 33.89 M0 0 C-3.35 5.65, -16.77 28.24, -20.12 33.89" stroke="black" stroke-width="2" fill="none"></path></g></g><mask></mask><g stroke-linecap="round"><g transform="translate(136.5687272980349 70.58698858827302) rotate(0 9.751703020698642 16.38799765459771)"><path d="M0 0 C3.25 5.46, 16.25 27.31, 19.5 32.78 M0 0 C3.25 5.46, 16.25 27.31, 19.5 32.78" stroke="black" stroke-width="2" fill="none"></path></g></g><mask></mask><g stroke-linecap="round"><g transform="translate(116.00616872694445 103.48708230201373) rotate(0 20.111622831847853 0.12409840454438381)"><path d="M0 0 C14.02 0.09, 28.05 0.17, 40.22 0.25 M0 0 C8.85 0.05, 17.69 0.11, 40.22 0.25" stroke="black" stroke-width="2" fill="none"></path></g></g><mask></mask><g transform="translate(63.81001571687102 74.22668685418284) rotate(0 14.519676853547026 7.259838426773058)"><text x="14.519676853547026" y="11.519676853547026" font-family="Cascadia, Segoe UI Emoji" font-size="11.957380938215197px" fill="black" text-anchor="middle" style="white-space: pre;" direction="ltr">0.3m</text></g><g transform="translate(169.64696079600435 73.35189502156027) rotate(0 18.5 7.5)"><text x="18.5" y="12" font-family="Cascadia, Segoe UI Emoji" font-size="11.957380938215197px" fill="black" text-anchor="middle" style="white-space: pre;" direction="ltr">0.25m</text></g><g stroke-linecap="round"><g transform="translate(19.356624642725365 10.646611964537442) rotate(0 0.21553732151187432 26.511090545976003)"><path d="M0 0 C0.17 20.46, 0.33 40.92, 0.43 53.02 M0 0 C0.16 19.48, 0.32 38.95, 0.43 53.02" stroke="black" stroke-width="2" fill="none"></path></g><g transform="translate(19.356624642725365 10.646611964537442) rotate(0 0.21553732151187432 26.511090545976003)"><path d="M0.43 53.02 L-6.02 39.48 L6.66 39.38 L0.43 53.02" stroke="none" stroke-width="0" fill="black" fill-rule="evenodd"></path><path d="M0.43 53.02 C-2.06 47.8, -4.55 42.57, -6.02 39.48 M0.43 53.02 C-1.94 48.05, -4.31 43.07, -6.02 39.48 M-6.02 39.48 C-1.51 39.44, 3 39.41, 6.66 39.38 M-6.02 39.48 C-2.76 39.45, 0.5 39.43, 6.66 39.38 M6.66 39.38 C5.15 42.69, 3.64 46, 0.43 53.02 M6.66 39.38 C5.32 42.31, 3.98 45.25, 0.43 53.02 M0.43 53.02 C0.43 53.02, 0.43 53.02, 0.43 53.02 M0.43 53.02 C0.43 53.02, 0.43 53.02, 0.43 53.02" stroke="black" stroke-width="2" fill="none"></path></g></g><mask></mask><g stroke-linecap="round"><g transform="translate(232.52303561808912 10) rotate(0 0.21553732151187432 26.511090545976003)"><path d="M0 0 C0.1 12.27, 0.2 24.54, 0.43 53.02 M0 0 C0.12 14.8, 0.24 29.6, 0.43 53.02" stroke="black" stroke-width="2" fill="none"></path></g><g transform="translate(232.52303561808912 10) rotate(0 0.21553732151187432 26.511090545976003)"><path d="M0.43 53.02 L-6.02 39.48 L6.66 39.38 L0.43 53.02" stroke="none" stroke-width="0" fill="black" fill-rule="evenodd"></path><path d="M0.43 53.02 C-1.06 49.89, -2.55 46.75, -6.02 39.48 M0.43 53.02 C-1.37 49.24, -3.17 45.46, -6.02 39.48 M-6.02 39.48 C-3.16 39.46, -0.31 39.43, 6.66 39.38 M-6.02 39.48 C-3.17 39.46, -0.32 39.43, 6.66 39.38 M6.66 39.38 C4.31 44.52, 1.96 49.66, 0.43 53.02 M6.66 39.38 C5.21 42.56, 3.75 45.74, 0.43 53.02 M0.43 53.02 C0.43 53.02, 0.43 53.02, 0.43 53.02 M0.43 53.02 C0.43 53.02, 0.43 53.02, 0.43 53.02" stroke="black" stroke-width="2" fill="none"></path></g></g><mask></mask></svg>