<svg version="1.1" xmlns="http://www.w3.org/2000/svg" viewBox="0 0 165.78307298506616 120.34909785198352" width="331.5661459701323" height="240.69819570396703">
  <!-- svg-source:excalidraw -->
  
  <defs>
    <style>
      @font-face {
        font-family: "Virgil";
        src: url("https://excalidraw.com/Virgil.woff2");
      }
      @font-face {
        font-family: "Cascadia";
        src: url("https://excalidraw.com/Cascadia.woff2");
      }
    </style>
  </defs>
  <g stroke-linecap="round"><g transform="translate(11.731269278102218 110.34909785198352) rotate(0 71.3127741123584 0)"><path d="M0 0 C34.03 0, 68.07 0, 142.63 0 M0 0 C56.17 0, 112.35 0, 142.63 0" stroke="#000000" stroke-width="1" fill="none"></path></g></g><g stroke-linecap="round"><g stroke-opacity="0.4" fill-opacity="0.4" transform="translate(10 110.34909785198306) rotate(0 36.57142844374482 -50.17454892599153)"><path d="M0 0 C12.87 -18.23, 25.74 -36.46, 34.23 -48.49 M0 0 C11.63 -16.48, 23.27 -32.96, 34.23 -48.49 M34.23 -48.49 C49.11 -68.32, 63.98 -88.14, 73.14 -100.35 M34.23 -48.49 C46.89 -65.37, 59.56 -82.24, 73.14 -100.35" stroke="#000000" stroke-width="1" fill="none"></path></g></g><g stroke-linecap="round"><g transform="translate(155.78307298506616 110.34909785198306) rotate(0 -35.65638705617914 -49.9189418786508)"><path d="M0 0 C-27.47 -38.45, -54.94 -76.91, -71.31 -99.84 M0 0 C-16.75 -23.44, -33.49 -46.89, -71.31 -99.84" stroke="#000000" stroke-width="1" fill="none"></path></g></g><g stroke-opacity="0.4" fill-opacity="0.4" transform="translate(77.28270808722323 21.425410492347282) rotate(0 6.405289712960098 0.7625344896381421)" stroke="none"><path fill="#000000" d="M 0.89,-2.50 Q 0.89,-2.50 2.12,-2.06 3.34,-1.62 4.46,-1.50 5.58,-1.37 6.77,-1.40 7.95,-1.42 10.03,-2.02 12.11,-2.63 12.60,-2.66 13.08,-2.70 13.56,-2.57 14.03,-2.45 14.44,-2.18 14.85,-1.91 15.15,-1.53 15.45,-1.15 15.61,-0.69 15.78,-0.23 15.78,0.25 15.79,0.74 15.64,1.21 15.49,1.67 15.20,2.06 14.92,2.46 14.52,2.74 14.12,3.02 13.65,3.16 13.18,3.29 12.69,3.28 12.20,3.26 11.75,3.08 11.29,2.91 10.91,2.60 10.54,2.29 10.28,1.88 10.02,1.46 9.91,0.99 9.80,0.51 9.84,0.02 9.89,-0.45 10.08,-0.90 10.28,-1.34 10.61,-1.70 10.94,-2.06 11.37,-2.30 11.80,-2.53 12.28,-2.62 12.76,-2.71 13.24,-2.64 13.72,-2.56 14.16,-2.34 14.59,-2.12 14.94,-1.77 15.28,-1.42 15.49,-0.98 15.70,-0.54 15.76,-0.06 15.82,0.42 15.72,0.89 15.63,1.37 15.38,1.80 15.14,2.22 14.77,2.54 14.40,2.86 13.95,3.05 13.50,3.24 13.50,3.24 13.50,3.24 10.66,3.83 7.83,4.43 6.34,4.31 4.84,4.19 3.20,3.78 1.56,3.38 0.33,2.94 -0.89,2.50 -1.18,2.36 -1.46,2.21 -1.71,2.00 -1.95,1.80 -2.14,1.54 -2.33,1.28 -2.44,0.98 -2.56,0.68 -2.61,0.36 -2.65,0.05 -2.62,-0.26 -2.59,-0.58 -2.48,-0.88 -2.37,-1.18 -2.20,-1.45 -2.02,-1.72 -1.78,-1.94 -1.55,-2.15 -1.27,-2.31 -0.99,-2.46 -0.68,-2.55 -0.37,-2.63 -0.05,-2.63 0.26,-2.64 0.58,-2.57 0.89,-2.50 0.89,-2.50 L 0.89,-2.50 Z"></path></g><g stroke-opacity="0.4" fill-opacity="0.4" transform="translate(19.33008687472784 102.25406639398602) rotate(0 1.5250689792761705 3.3551517544076432)" stroke="none"><path fill="#000000" d="M 1.95,-1.59 Q 1.95,-1.59 2.75,-0.64 3.56,0.31 4.64,3.41 5.73,6.51 5.69,6.95 5.65,7.38 5.47,7.78 5.30,8.18 5.00,8.50 4.71,8.82 4.33,9.03 3.95,9.24 3.52,9.32 3.09,9.40 2.66,9.33 2.23,9.27 1.84,9.07 1.45,8.88 1.15,8.56 0.84,8.25 0.65,7.86 0.46,7.47 0.41,7.04 0.36,6.60 0.44,6.18 0.53,5.75 0.75,5.37 0.96,5.00 1.29,4.71 1.62,4.42 2.02,4.25 2.42,4.09 2.86,4.06 3.29,4.02 3.71,4.13 4.13,4.24 4.50,4.48 4.86,4.72 5.13,5.06 5.40,5.41 5.55,5.82 5.69,6.23 5.70,6.66 5.71,7.10 5.58,7.51 5.44,7.93 5.19,8.28 4.93,8.63 4.57,8.88 4.22,9.13 3.80,9.25 3.38,9.38 2.94,9.36 2.51,9.34 2.10,9.19 1.70,9.03 1.36,8.76 1.02,8.48 0.79,8.11 0.56,7.74 0.46,7.32 0.36,6.90 0.36,6.90 0.36,6.90 -0.02,5.22 -0.40,3.54 -1.18,2.57 -1.95,1.59 -2.11,1.34 -2.27,1.08 -2.37,0.79 -2.47,0.50 -2.49,0.20 -2.52,-0.09 -2.47,-0.39 -2.42,-0.69 -2.30,-0.97 -2.18,-1.25 -2.00,-1.50 -1.82,-1.74 -1.58,-1.93 -1.35,-2.13 -1.07,-2.26 -0.80,-2.39 -0.50,-2.45 -0.20,-2.51 0.09,-2.50 0.40,-2.49 0.69,-2.40 0.98,-2.32 1.25,-2.17 1.51,-2.01 1.73,-1.80 1.95,-1.59 1.95,-1.59 L 1.95,-1.59 Z"></path></g><g stroke-opacity="0.4" fill-opacity="0.4" transform="translate(141.33560521682398 98.59390084372308) rotate(0 2.3569247861540816 5.185234529539116)" stroke="none"><path fill="#000000" d="M 6.65,1.69 Q 6.65,1.69 5.69,2.77 4.73,3.84 4.04,5.06 3.35,6.28 3.08,8.28 2.81,10.28 2.71,10.72 2.62,11.16 2.38,11.55 2.15,11.94 1.80,12.24 1.46,12.53 1.04,12.70 0.62,12.87 0.16,12.89 -0.28,12.92 -0.72,12.80 -1.16,12.68 -1.53,12.42 -1.91,12.17 -2.18,11.81 -2.46,11.45 -2.61,11.02 -2.75,10.59 -2.75,10.13 -2.75,9.68 -2.61,9.25 -2.46,8.82 -2.19,8.46 -1.92,8.10 -1.54,7.84 -1.16,7.58 -0.73,7.46 -0.29,7.34 0.15,7.36 0.61,7.39 1.03,7.56 1.45,7.72 1.80,8.02 2.14,8.31 2.38,8.70 2.61,9.09 2.71,9.53 2.81,9.97 2.76,10.42 2.71,10.88 2.52,11.29 2.33,11.70 2.02,12.03 1.71,12.36 1.31,12.57 0.91,12.79 0.46,12.86 0.01,12.93 -0.43,12.86 -0.87,12.79 -1.28,12.58 -1.68,12.37 -1.99,12.04 -2.30,11.71 -2.49,11.30 -2.69,10.88 -2.73,10.43 -2.78,9.98 -2.78,9.98 -2.78,9.98 -2.50,7.77 -2.21,5.56 -1.41,3.94 -0.60,2.31 0.14,1.40 0.89,0.48 1.83,-0.60 2.77,-1.69 3.00,-1.90 3.23,-2.11 3.51,-2.25 3.78,-2.40 4.08,-2.47 4.38,-2.55 4.69,-2.55 5.00,-2.55 5.31,-2.48 5.61,-2.41 5.88,-2.27 6.16,-2.12 6.39,-1.92 6.63,-1.71 6.80,-1.46 6.98,-1.21 7.09,-0.92 7.21,-0.63 7.24,-0.32 7.28,-0.01 7.25,0.29 7.21,0.60 7.10,0.89 7.00,1.18 6.82,1.43 6.65,1.69 6.65,1.69 L 6.65,1.69 Z"></path></g></svg>