<svg version="1.1" xmlns="http://www.w3.org/2000/svg" viewBox="0 0 162.6255482247168 97.0511337050466" width="325.2510964494336" height="194.1022674100932">
  <!-- svg-source:excalidraw -->
  
  <defs>
    <style>
      @font-face {
        font-family: "Virgil";
        src: url("https://excalidraw.com/Virgil.woff2");
      }
      @font-face {
        font-family: "Cascadia";
        src: url("https://excalidraw.com/Cascadia.woff2");
      }
    </style>
  </defs>
  <g stroke-linecap="round"><g transform="translate(10 87.04789159964298) rotate(0 71.3127741123584 0)"><path d="M0 0 C34.03 0, 68.07 0, 142.63 0 M0 0 C56.17 0, 112.35 0, 142.63 0" stroke="#000000" stroke-width="1" fill="none"></path></g></g><g stroke-linecap="round"><g transform="translate(10.277380808523503 87.0511337050466) rotate(0 0.19713555301336783 -38.5255668525233)"><path d="M0 0 C0.15 -29.45, 0.3 -58.9, 0.39 -77.05 M0 0 C0.09 -18.29, 0.19 -36.58, 0.39 -77.05" stroke="#000000" stroke-width="1" fill="none"></path></g></g><g stroke-linecap="round"><g transform="translate(152.60254375958561 86.72783533026904) rotate(0 -70.80379673512914 -38.33975984941242)"><path d="M0 0 C-28.58 -15.47, -57.15 -30.95, -141.61 -76.68 M0 0 C-28.52 -15.45, -57.05 -30.89, -141.61 -76.68" stroke="#000000" stroke-width="1" fill="none"></path></g></g><g stroke-opacity="0.4" fill-opacity="0.4" transform="translate(13.554571236702941 72.09508769560125) rotate(0 6.1316311026574795 5.945824099546371)" stroke="none"><path fill="#000000" d="M 0,-2.61 Q 0,-2.61 1.53,-2.58 3.07,-2.56 4.35,-2.57 5.64,-2.59 6.73,-2.62 7.82,-2.65 9.20,-2.81 10.58,-2.96 12.05,-2.72 13.51,-2.49 14.33,-0.65 15.15,1.17 15.19,3.19 15.23,5.20 15.27,6.87 15.30,8.54 15.32,10.40 15.33,12.26 15.25,12.75 15.17,13.24 14.94,13.68 14.70,14.12 14.34,14.46 13.98,14.80 13.53,15.01 13.08,15.22 12.59,15.27 12.09,15.33 11.61,15.22 11.12,15.11 10.70,14.86 10.27,14.60 9.95,14.22 9.63,13.84 9.44,13.38 9.26,12.92 9.23,12.42 9.20,11.93 9.34,11.45 9.47,10.97 9.75,10.56 10.03,10.15 10.42,9.84 10.82,9.54 11.29,9.39 11.76,9.23 12.26,9.23 12.76,9.23 13.23,9.39 13.70,9.54 14.09,9.84 14.49,10.15 14.77,10.56 15.05,10.97 15.18,11.45 15.31,11.93 15.29,12.42 15.26,12.92 15.07,13.38 14.89,13.84 14.57,14.22 14.25,14.60 13.82,14.86 13.40,15.11 12.91,15.22 12.42,15.33 11.93,15.27 11.44,15.22 10.98,15.01 10.53,14.80 10.17,14.46 9.81,14.12 9.58,13.68 9.35,13.24 9.27,12.75 9.19,12.26 9.19,12.26 9.19,12.26 9.20,10.40 9.21,8.55 9.24,6.89 9.27,5.23 9.28,3.34 9.28,1.45 10.32,1.97 11.35,2.49 9.59,2.52 7.82,2.55 6.73,2.52 5.64,2.49 4.35,2.48 3.07,2.46 1.53,2.49 0,2.51 -0.30,2.47 -0.61,2.44 -0.90,2.33 -1.19,2.22 -1.44,2.04 -1.69,1.87 -1.90,1.63 -2.10,1.40 -2.25,1.13 -2.39,0.86 -2.47,0.56 -2.54,0.26 -2.54,-0.04 -2.54,-0.35 -2.47,-0.65 -2.39,-0.95 -2.25,-1.23 -2.10,-1.50 -1.90,-1.73 -1.69,-1.96 -1.44,-2.14 -1.19,-2.31 -0.90,-2.42 -0.61,-2.53 -0.30,-2.57 0.00,-2.61 0.00,-2.61 L 0,-2.61 Z"></path></g></svg>