<svg version="1.1" xmlns="http://www.w3.org/2000/svg" viewBox="0 0 164.0518037069637 121.97726698067277" width="328.1036074139274" height="243.95453396134553">
  <!-- svg-source:excalidraw -->
  
  <defs>
    <style>
      @font-face {
        font-family: "Virgil";
        src: url("https://excalidraw.com/Virgil.woff2");
      }
      @font-face {
        font-family: "Cascadia";
        src: url("https://excalidraw.com/Cascadia.woff2");
      }
    </style>
  </defs>
  <g stroke-linecap="round"><g transform="translate(11.426255482246916 111.2641392395492) rotate(0 71.3127741123584 0)"><path d="M0 0 C34.03 0, 68.07 0, 142.63 0 M0 0 C56.17 0, 112.35 0, 142.63 0" stroke="#000000" stroke-width="1" fill="none"></path></g></g><g stroke-linecap="round"><g transform="translate(10 111.26413923954874) rotate(0 35.65638705617914 -50.63206961977437)"><path d="M0 0 C12.87 -18.23, 25.74 -36.46, 34.23 -48.49 M0 0 C11.63 -16.48, 23.27 -32.96, 34.23 -48.49 M34.23 -48.49 C48.41 -68.67, 62.58 -88.84, 71.31 -101.26 M34.23 -48.49 C46.3 -65.67, 58.36 -82.84, 71.31 -101.26" stroke="#000000" stroke-width="1" fill="none"></path></g></g><g stroke-linecap="round"><g transform="translate(154.0518037069637 111.97726698067277) rotate(0 -36.36951479730283 -50.63206961977437)"><path d="M0 0 C-14.05 -19.11, -28.1 -38.21, -35.66 -48.49 M0 0 C-11 -14.96, -22 -29.91, -35.66 -48.49 M-35.66 -48.49 C-47.71 -65.65, -59.77 -82.81, -72.74 -101.26 M-35.66 -48.49 C-47 -64.64, -58.35 -80.79, -72.74 -101.26" stroke="#000000" stroke-width="1" fill="none"></path></g></g></svg>