<svg version="1.1" xmlns="http://www.w3.org/2000/svg" viewBox="0 0 267.4692696119864 121.57765811567629" width="534.9385392239728" height="243.15531623135257">
  <!-- svg-source:excalidraw -->
  
  <defs>
    <style>
      @font-face {
        font-family: "Virgil";
        src: url("https://excalidraw.com/Virgil.woff2");
      }
      @font-face {
        font-family: "Cascadia";
        src: url("https://excalidraw.com/Cascadia.woff2");
      }
    </style>
  </defs>
  <g stroke-linecap="round"><g transform="translate(112.26542780884961 110.78287236638516) rotate(0 71.3127741123584 0)"><path d="M0 0 C34.03 0, 68.07 0, 142.63 0 M0 0 C56.17 0, 112.35 0, 142.63 0" stroke="#000000" stroke-width="1" fill="none"></path></g></g><g stroke-linecap="round"><g transform="translate(112.54280861737311 110.78611447178878) rotate(0 -51.271404308686556 -50.231408048505614)"><path d="M0 0 C-39.2 -38.4, -78.39 -76.8, -102.54 -100.46 M0 0 C-24.34 -23.85, -48.68 -47.69, -102.54 -100.46" stroke="#000000" stroke-width="1" fill="none"></path></g></g><g stroke-linecap="round"><g transform="translate(257.4692696119864 111.57765811567629) rotate(0 -123.57298561860466 -50.78882905783814)"><path d="M0 0 C-49.87 -20.5, -99.75 -41, -247.15 -101.58 M0 0 C-49.78 -20.46, -99.56 -40.92, -247.15 -101.58" stroke="#000000" stroke-width="1" fill="none"></path></g></g><g stroke-opacity="0.4" fill-opacity="0.4" transform="translate(96.12445671580508 92.85715641257002) rotate(0 17.465858292418034 8.361315139987369)" stroke="none"><path fill="#000000" d="M 0,-2.07 Q 0,-2.07 1.54,-2.09 3.09,-2.11 4.81,-1.99 6.54,-1.87 8.43,-1.53 10.32,-1.20 12.12,-0.81 13.92,-0.42 15.78,0.01 17.63,0.44 19.44,1.14 21.26,1.83 22.96,2.77 24.67,3.71 26.15,4.56 27.63,5.42 28.97,6.25 30.31,7.09 31.44,7.96 32.56,8.83 33.40,9.54 34.24,10.26 35.75,13.15 37.27,16.05 37.31,16.44 37.36,16.83 37.28,17.21 37.19,17.60 36.99,17.94 36.79,18.28 36.50,18.54 36.20,18.79 35.83,18.94 35.47,19.09 35.08,19.11 34.68,19.14 34.30,19.04 33.92,18.93 33.60,18.72 33.27,18.50 33.03,18.19 32.79,17.87 32.66,17.50 32.53,17.13 32.53,16.74 32.52,16.34 32.65,15.97 32.77,15.59 33.00,15.28 33.24,14.96 33.56,14.74 33.89,14.52 34.27,14.41 34.64,14.30 35.04,14.32 35.43,14.34 35.80,14.48 36.16,14.62 36.47,14.88 36.77,15.13 36.97,15.46 37.18,15.80 37.27,16.18 37.36,16.57 37.32,16.96 37.28,17.35 37.11,17.71 36.95,18.07 36.68,18.36 36.41,18.64 36.07,18.83 35.72,19.02 35.33,19.08 34.95,19.15 34.56,19.09 34.17,19.03 33.82,18.85 33.47,18.67 33.20,18.38 32.92,18.10 32.76,17.74 32.59,17.39 32.59,17.39 32.59,17.39 32.23,16.05 31.87,14.71 30.83,13.40 29.78,12.09 28.93,11.28 28.08,10.47 26.87,9.62 25.65,8.77 24.24,7.92 22.82,7.06 21.34,6.25 19.86,5.43 18.33,4.84 16.81,4.24 14.96,3.88 13.11,3.52 11.39,3.18 9.67,2.85 7.95,2.60 6.23,2.35 4.66,2.23 3.08,2.11 1.54,2.09 0,2.07 -0.24,2.04 -0.49,2.01 -0.73,1.92 -0.96,1.83 -1.16,1.69 -1.37,1.55 -1.54,1.36 -1.70,1.17 -1.82,0.95 -1.93,0.73 -1.99,0.49 -2.05,0.24 -2.05,-0.00 -2.05,-0.25 -1.99,-0.49 -1.93,-0.73 -1.82,-0.95 -1.70,-1.17 -1.54,-1.36 -1.37,-1.55 -1.16,-1.69 -0.96,-1.83 -0.72,-1.92 -0.49,-2.01 -0.24,-2.04 0.00,-2.07 0.00,-2.07 L 0,-2.07 Z"></path></g></svg>