<svg version="1.1" xmlns="http://www.w3.org/2000/svg" viewBox="0 0 325.2186732008938 145.51048243775085" width="650.4373464017876" height="291.0209648755017">
  <!-- svg-source:excalidraw -->
  
  <defs>
    <style>
      @font-face {
        font-family: "Virgil";
        src: url("https://excalidraw.com/Virgil.woff2");
      }
      @font-face {
        font-family: "Cascadia";
        src: url("https://excalidraw.com/Cascadia.woff2");
      }
    </style>
  </defs>
  <g stroke-linecap="round"><g transform="translate(134.0842269555037 135.51048243775085) rotate(0 90.56722312269505 0)"><path d="M0 0 C43.22 0, 86.44 0, 181.13 0 M0 0 C71.34 0, 142.68 0, 181.13 0" stroke="#000000" stroke-width="1" fill="none"></path></g></g><g stroke-linecap="round"><g transform="translate(135.51048243775085 135.51048243775085) rotate(0 26.3857264215726 -62.755241218875426)"><path d="M0 0 C-49.53 -49.53, -99.07 -99.07, -125.51 -125.51 M0 0 C-43.25 -43.25, -86.5 -86.5, -125.51 -125.51 M-125.51 -125.51 C-4.65 -75.58, 116.21 -25.65, 178.28 0 M-125.51 -125.51 C-56.21 -96.88, 13.08 -68.25, 178.28 0" stroke="#000000" stroke-width="1" fill="none"></path></g></g></svg>