<svg xmlns="http://www.w3.org/2000/svg" xmlns:xlink="http://www.w3.org/1999/xlink" width="225.78125" height="181.921875" style="width:225.78125px;height:181.921875px;font-family:Asana-Math, Asana;background:#FFF;"><g><g><g><text x="36.328125" y="4" style="white-space:pre;stroke:none;fill:rgb(0,0,0);fill-opacity:1;font-size:17px;font-family:Arial, Helvetica, sans-serif;font-weight:400;font-style:normal;dominant-baseline:text-before-edge;text-decoration:none solid rgb(0, 0, 0);">Datos no agrupados</text></g></g><g></g><g><g><text x="7.671875" y="64.46875" style="white-space:pre;stroke:none;fill:rgb(0,0,0);fill-opacity:1;font-size:17px;font-family:Arial, Helvetica, sans-serif;font-weight:400;font-style:normal;dominant-baseline:text-before-edge;text-decoration:none solid rgb(0, 0, 0);">S</text></g><g><g><g><g><g><g><g><text x="20.65625" y="62.03125" style="white-space:pre;stroke:none;fill:rgb(0,0,0);fill-opacity:1;font-size:8.33px;font-family:arial, verdana, geneva, lucida, &quot;lucida grande&quot;, arial, helvetica, sans-serif;font-weight:400;font-style:normal;dominant-baseline:text-before-edge;text-decoration:none solid rgb(0, 0, 0);">2</text></g></g></g></g></g></g></g><g><text x="27.015625" y="64.46875" style="white-space:pre;stroke:none;fill:rgb(0,0,0);fill-opacity:1;font-size:17px;font-family:Arial, Helvetica, sans-serif;font-weight:400;font-style:normal;dominant-baseline:text-before-edge;text-decoration:none solid rgb(0, 0, 0);"> </text></g><g><text x="36.84375" y="64.46875" style="white-space:pre;stroke:none;fill:rgb(0,0,0);fill-opacity:1;font-size:17px;font-family:Arial, Helvetica, sans-serif;font-weight:400;font-style:normal;dominant-baseline:text-before-edge;text-decoration:none solid rgb(0, 0, 0);">=</text></g><g><text x="51.875" y="64.46875" style="white-space:pre;stroke:none;fill:rgb(0,0,0);fill-opacity:1;font-size:17px;font-family:Arial, Helvetica, sans-serif;font-weight:400;font-style:normal;dominant-baseline:text-before-edge;text-decoration:none solid rgb(0, 0, 0);">  </text></g><g><svg x="62.515625" overflow="visible" y="51.46875" height="49" width="8.5"><path d=" M 6.27 1.70 c 0.00 -0.06 -0.04 -0.08 -0.08 -0.08 c -0.03 0.00 -0.06 0.01 -0.08 0.02 c -2.55 1.34 -4.65 3.73 -4.65 9.40 v 0.60 h 1.53 v -0.60 c 0.00 -3.23 0.64 -7.03 3.31 -9.06 c 0.12 -0.09 0.13 -0.19 0.13 -0.28 z   M 1.44 11.64 v 25.72 h 1.53 v -25.72 z" style="fill:rgb(0,0,0);fill-opacity:1;stroke-width:1px;stroke:none;stroke-opacity:1;"></path><path d=" M 6.27 47.30 c 0.00 0.06 -0.04 0.08 -0.08 0.08 c -0.03 0.00 -0.06 -0.01 -0.08 -0.02 c -2.55 -1.34 -4.65 -3.73 -4.65 -9.40 v -0.60 h 1.53 v 0.60 c 0.00 3.23 0.64 7.03 3.31 9.06 c 0.12 0.09 0.13 0.19 0.13 0.28 z" style="fill:rgb(0,0,0);fill-opacity:1;stroke-width:1px;stroke:none;stroke-opacity:1;"></path></svg></g><g><g><g><g><text x="71.015625" y="50.078125" style="white-space:pre;stroke:none;fill:rgb(0,0,0);fill-opacity:1;font-size:17px;font-family:arial, verdana, geneva, lucida, &quot;lucida grande&quot;, arial, helvetica, sans-serif;font-weight:400;font-style:normal;dominant-baseline:text-before-edge;text-decoration:none solid rgb(0, 0, 0);">X̅ </text></g><g><text x="90.46875" y="50.078125" style="white-space:pre;stroke:none;fill:rgb(0,0,0);fill-opacity:1;font-size:17px;font-family:arial, verdana, geneva, lucida, &quot;lucida grande&quot;, arial, helvetica, sans-serif;font-weight:400;font-style:normal;dominant-baseline:text-before-edge;text-decoration:none solid rgb(0, 0, 0);">-</text></g><g><text x="99.53125" y="50.078125" style="white-space:pre;stroke:none;fill:rgb(0,0,0);fill-opacity:1;font-size:17px;font-family:arial, verdana, geneva, lucida, &quot;lucida grande&quot;, arial, helvetica, sans-serif;font-weight:400;font-style:normal;dominant-baseline:text-before-edge;text-decoration:none solid rgb(0, 0, 0);"> X</text></g><g><g><g><g><text x="116.09375" y="58.1875" style="white-space:pre;stroke:none;fill:rgb(0,0,0);fill-opacity:1;font-size:11.9px;font-family:arial, verdana, geneva, lucida, &quot;lucida grande&quot;, arial, helvetica, sans-serif;font-weight:400;font-style:normal;dominant-baseline:text-before-edge;text-decoration:none solid rgb(0, 0, 0);">i</text></g></g></g></g></g></g><g><g><g><text x="90.65625" y="77.859375" style="white-space:pre;stroke:none;fill:rgb(0,0,0);fill-opacity:1;font-size:17px;font-family:arial, verdana, geneva, lucida, &quot;lucida grande&quot;, arial, helvetica, sans-serif;font-weight:400;font-style:normal;dominant-baseline:text-before-edge;text-decoration:none solid rgb(0, 0, 0);">n</text></g></g></g><line style="fill:none;stroke-width:1px;stroke:rgb(0, 0, 0);" x1="71.015625" y1="75.21875" x2="119.765625" y2="75.21875"></line></g><g><svg x="119.765625" overflow="visible" y="51.46875" height="49" width="8.5"><path d=" M 1.75 1.70 c 0.00 -0.06 0.04 -0.08 0.08 -0.08 c 0.03 0.00 0.06 0.01 0.08 0.02 c 2.55 1.34 4.65 3.73 4.65 9.40 v 0.60 h -1.53 v -0.60 c 0.00 -3.23 -0.64 -7.03 -3.31 -9.06 c -0.12 -0.09 -0.13 -0.19 -0.13 -0.28 z  M 6.58 11.64 v 25.72 h -1.53 v -25.72 z" style="fill:rgb(0,0,0);fill-opacity:1;stroke-width:1px;stroke:none;stroke-opacity:1;"></path><path d=" M 1.75 47.30 c 0.00 0.06 0.04 0.08 0.08 0.08 c 0.03 0.00 0.06 -0.01 0.08 -0.02 c 2.55 -1.34 4.65 -3.73 4.65 -9.40 v -0.60 h -1.53 v 0.60 c 0.00 3.23 -0.64 7.03 -3.31 9.06 c -0.12 0.09 -0.13 0.19 -0.13 0.28 z" style="fill:rgb(0,0,0);fill-opacity:1;stroke-width:1px;stroke:none;stroke-opacity:1;"></path></svg></g><g><g><g><g><text x="128.234375" y="44.78125" style="white-space:pre;stroke:none;fill:rgb(0,0,0);fill-opacity:1;font-size:11.9px;font-family:arial, verdana, geneva, lucida, &quot;lucida grande&quot;, arial, helvetica, sans-serif;font-weight:400;font-style:normal;dominant-baseline:text-before-edge;text-decoration:none solid rgb(0, 0, 0);">2</text></g></g></g></g><g><text x="135.875" y="64.46875" style="white-space:pre;stroke:none;fill:rgb(0,0,0);fill-opacity:1;font-size:17px;font-family:Arial, Helvetica, sans-serif;font-weight:400;font-style:normal;dominant-baseline:text-before-edge;text-decoration:none solid rgb(0, 0, 0);">  </text></g><g><text x="145.328125" y="64.46875" style="white-space:pre;stroke:none;fill:rgb(0,0,0);fill-opacity:1;font-size:17px;font-family:arial, verdana, geneva, lucida, &quot;lucida grande&quot;, arial, helvetica, sans-serif;font-weight:400;font-style:normal;dominant-baseline:text-before-edge;text-decoration:none solid rgb(0, 0, 0);">(</text></g><g><text x="151" y="64.46875" style="white-space:pre;stroke:none;fill:rgb(0,0,0);fill-opacity:1;font-size:17px;font-family:Arial, Helvetica, sans-serif;font-weight:400;font-style:normal;dominant-baseline:text-before-edge;text-decoration:none solid rgb(0, 0, 0);">muestra</text></g><g><text x="212.421875" y="64.46875" style="white-space:pre;stroke:none;fill:rgb(0,0,0);fill-opacity:1;font-size:17px;font-family:arial, verdana, geneva, lucida, &quot;lucida grande&quot;, arial, helvetica, sans-serif;font-weight:400;font-style:normal;dominant-baseline:text-before-edge;text-decoration:none solid rgb(0, 0, 0);">)</text></g></g><g></g><g><g><text x="2" y="142.234375" style="white-space:pre;stroke:none;fill:rgb(0,0,0);fill-opacity:1;font-size:17px;font-family:Arial, Helvetica, sans-serif;font-weight:400;font-style:normal;dominant-baseline:text-before-edge;text-decoration:none solid rgb(0, 0, 0);">S</text></g><g><g><g><g><g><g><g><text x="14.984375" y="139.796875" style="white-space:pre;stroke:none;fill:rgb(0,0,0);fill-opacity:1;font-size:8.33px;font-family:arial, verdana, geneva, lucida, &quot;lucida grande&quot;, arial, helvetica, sans-serif;font-weight:400;font-style:normal;dominant-baseline:text-before-edge;text-decoration:none solid rgb(0, 0, 0);">2</text></g></g></g></g></g></g></g><g><text x="21.34375" y="142.234375" style="white-space:pre;stroke:none;fill:rgb(0,0,0);fill-opacity:1;font-size:17px;font-family:Arial, Helvetica, sans-serif;font-weight:400;font-style:normal;dominant-baseline:text-before-edge;text-decoration:none solid rgb(0, 0, 0);"> </text></g><g><text x="31.171875" y="142.234375" style="white-space:pre;stroke:none;fill:rgb(0,0,0);fill-opacity:1;font-size:17px;font-family:Arial, Helvetica, sans-serif;font-weight:400;font-style:normal;dominant-baseline:text-before-edge;text-decoration:none solid rgb(0, 0, 0);">=</text></g><g><text x="46.203125" y="142.234375" style="white-space:pre;stroke:none;fill:rgb(0,0,0);fill-opacity:1;font-size:17px;font-family:Arial, Helvetica, sans-serif;font-weight:400;font-style:normal;dominant-baseline:text-before-edge;text-decoration:none solid rgb(0, 0, 0);">  </text></g><g><svg x="56.84375" overflow="visible" y="129.234375" height="49" width="8.5"><path d=" M 6.27 1.70 c 0.00 -0.06 -0.04 -0.08 -0.08 -0.08 c -0.03 0.00 -0.06 0.01 -0.08 0.02 c -2.55 1.34 -4.65 3.73 -4.65 9.40 v 0.60 h 1.53 v -0.60 c 0.00 -3.23 0.64 -7.03 3.31 -9.06 c 0.12 -0.09 0.13 -0.19 0.13 -0.28 z   M 1.44 11.64 v 25.72 h 1.53 v -25.72 z" style="fill:rgb(0,0,0);fill-opacity:1;stroke-width:1px;stroke:none;stroke-opacity:1;"></path><path d=" M 6.27 47.30 c 0.00 0.06 -0.04 0.08 -0.08 0.08 c -0.03 0.00 -0.06 -0.01 -0.08 -0.02 c -2.55 -1.34 -4.65 -3.73 -4.65 -9.40 v -0.60 h 1.53 v 0.60 c 0.00 3.23 0.64 7.03 3.31 9.06 c 0.12 0.09 0.13 0.19 0.13 0.28 z" style="fill:rgb(0,0,0);fill-opacity:1;stroke-width:1px;stroke:none;stroke-opacity:1;"></path></svg></g><g><g><g><g><text x="65.34375" y="127.84375" style="white-space:pre;stroke:none;fill:rgb(0,0,0);fill-opacity:1;font-size:17px;font-family:arial, verdana, geneva, lucida, &quot;lucida grande&quot;, arial, helvetica, sans-serif;font-weight:400;font-style:normal;dominant-baseline:text-before-edge;text-decoration:none solid rgb(0, 0, 0);">X̅ </text></g><g><text x="84.796875" y="127.84375" style="white-space:pre;stroke:none;fill:rgb(0,0,0);fill-opacity:1;font-size:17px;font-family:arial, verdana, geneva, lucida, &quot;lucida grande&quot;, arial, helvetica, sans-serif;font-weight:400;font-style:normal;dominant-baseline:text-before-edge;text-decoration:none solid rgb(0, 0, 0);">-</text></g><g><text x="93.859375" y="127.84375" style="white-space:pre;stroke:none;fill:rgb(0,0,0);fill-opacity:1;font-size:17px;font-family:arial, verdana, geneva, lucida, &quot;lucida grande&quot;, arial, helvetica, sans-serif;font-weight:400;font-style:normal;dominant-baseline:text-before-edge;text-decoration:none solid rgb(0, 0, 0);"> X</text></g><g><g><g><g><text x="110.421875" y="135.953125" style="white-space:pre;stroke:none;fill:rgb(0,0,0);fill-opacity:1;font-size:11.9px;font-family:arial, verdana, geneva, lucida, &quot;lucida grande&quot;, arial, helvetica, sans-serif;font-weight:400;font-style:normal;dominant-baseline:text-before-edge;text-decoration:none solid rgb(0, 0, 0);">i</text></g></g></g></g></g></g><g><g><g><text x="83.578125" y="155.625" style="white-space:pre;stroke:none;fill:rgb(0,0,0);fill-opacity:1;font-size:17px;font-family:arial, verdana, geneva, lucida, &quot;lucida grande&quot;, arial, helvetica, sans-serif;font-weight:400;font-style:normal;dominant-baseline:text-before-edge;text-decoration:none solid rgb(0, 0, 0);">N</text></g></g></g><line style="fill:none;stroke-width:1px;stroke:rgb(0, 0, 0);" x1="65.34375" y1="152.984375" x2="114.09375" y2="152.984375"></line></g><g><svg x="114.09375" overflow="visible" y="129.234375" height="49" width="8.5"><path d=" M 1.75 1.70 c 0.00 -0.06 0.04 -0.08 0.08 -0.08 c 0.03 0.00 0.06 0.01 0.08 0.02 c 2.55 1.34 4.65 3.73 4.65 9.40 v 0.60 h -1.53 v -0.60 c 0.00 -3.23 -0.64 -7.03 -3.31 -9.06 c -0.12 -0.09 -0.13 -0.19 -0.13 -0.28 z  M 6.58 11.64 v 25.72 h -1.53 v -25.72 z" style="fill:rgb(0,0,0);fill-opacity:1;stroke-width:1px;stroke:none;stroke-opacity:1;"></path><path d=" M 1.75 47.30 c 0.00 0.06 0.04 0.08 0.08 0.08 c 0.03 0.00 0.06 -0.01 0.08 -0.02 c 2.55 -1.34 4.65 -3.73 4.65 -9.40 v -0.60 h -1.53 v 0.60 c 0.00 3.23 -0.64 7.03 -3.31 9.06 c -0.12 0.09 -0.13 0.19 -0.13 0.28 z" style="fill:rgb(0,0,0);fill-opacity:1;stroke-width:1px;stroke:none;stroke-opacity:1;"></path></svg></g><g><g><g><g><text x="122.5625" y="122.546875" style="white-space:pre;stroke:none;fill:rgb(0,0,0);fill-opacity:1;font-size:11.9px;font-family:arial, verdana, geneva, lucida, &quot;lucida grande&quot;, arial, helvetica, sans-serif;font-weight:400;font-style:normal;dominant-baseline:text-before-edge;text-decoration:none solid rgb(0, 0, 0);">2</text></g></g></g></g><g><text x="130.203125" y="142.234375" style="white-space:pre;stroke:none;fill:rgb(0,0,0);fill-opacity:1;font-size:17px;font-family:Arial, Helvetica, sans-serif;font-weight:400;font-style:normal;dominant-baseline:text-before-edge;text-decoration:none solid rgb(0, 0, 0);">  </text></g><g><text x="139.65625" y="142.234375" style="white-space:pre;stroke:none;fill:rgb(0,0,0);fill-opacity:1;font-size:17px;font-family:arial, verdana, geneva, lucida, &quot;lucida grande&quot;, arial, helvetica, sans-serif;font-weight:400;font-style:normal;dominant-baseline:text-before-edge;text-decoration:none solid rgb(0, 0, 0);">(</text></g><g><text x="145.328125" y="142.234375" style="white-space:pre;stroke:none;fill:rgb(0,0,0);fill-opacity:1;font-size:17px;font-family:Arial, Helvetica, sans-serif;font-weight:400;font-style:normal;dominant-baseline:text-before-edge;text-decoration:none solid rgb(0, 0, 0);">población</text></g><g><text x="218.109375" y="142.234375" style="white-space:pre;stroke:none;fill:rgb(0,0,0);fill-opacity:1;font-size:17px;font-family:arial, verdana, geneva, lucida, &quot;lucida grande&quot;, arial, helvetica, sans-serif;font-weight:400;font-style:normal;dominant-baseline:text-before-edge;text-decoration:none solid rgb(0, 0, 0);">)</text></g></g></g></svg>