<svg version="1.1" xmlns="http://www.w3.org/2000/svg" viewBox="0 0 387.88335564158206 385.6487648065049" width="387.88335564158206" height="385.6487648065049">
  <!-- svg-source:excalidraw -->
  
  <defs>
    <style class="style-fonts">
      @font-face {
        font-family: "Virgil";
        src: url("https://excalidraw.com/Virgil.woff2");
      }
      @font-face {
        font-family: "Cascadia";
        src: url("https://excalidraw.com/Cascadia.woff2");
      }
    </style>
  </defs>
  <rect x="0" y="0" width="387.88335564158206" height="385.6487648065049" fill="#ffffff"></rect><g stroke-linecap="round"><g transform="translate(186.6759690613335 10) rotate(0 0.8304188450628089 182.82438240325246)"><path d="M0 0 C0 0, 0 0, 0 0 M0 0 C0 0, 0 0, 0 0 M0 0 C0.46 100.41, 0.91 200.82, 1.66 365.65 M0 0 C0.34 74.23, 0.67 148.46, 1.66 365.65" stroke="black" stroke-width="2" fill="none"></path></g></g><mask></mask><g stroke-linecap="round"><g transform="translate(10 181.0068785806252) rotate(0 183.94167782079103 -0.5095337335751537)"><path d="M0 0 C0 0, 0 0, 0 0 M0 0 C0 0, 0 0, 0 0 M0 0 C88.97 -0.25, 177.94 -0.49, 367.88 -1.02 M0 0 C94.99 -0.26, 189.98 -0.53, 367.88 -1.02" stroke="black" stroke-width="2" fill="none"></path></g></g><mask></mask><g stroke-linecap="round"><g transform="translate(187.62584010823343 181.0068785806252) rotate(0 60.989997617109225 -58.08684562761846)"><path d="M0 0 C27.11 -25.82, 54.23 -51.65, 121.98 -116.17 M0 0 C31.97 -30.45, 63.94 -60.9, 121.98 -116.17" stroke="black" stroke-width="2" fill="none"></path></g><g transform="translate(187.62584010823343 181.0068785806252) rotate(0 60.989997617109225 -58.08684562761846)"><path d="M121.98 -116.17 L116.51 -102.21 L107.76 -111.39 L121.98 -116.17" stroke="none" stroke-width="0" fill="black" fill-rule="evenodd"></path><path d="M121.98 -116.17 C120.76 -113.07, 119.55 -109.96, 116.51 -102.21 M121.98 -116.17 C120.55 -112.51, 119.11 -108.85, 116.51 -102.21 M116.51 -102.21 C114.24 -104.59, 111.96 -106.98, 107.76 -111.39 M116.51 -102.21 C113.63 -105.22, 110.76 -108.24, 107.76 -111.39 M107.76 -111.39 C111.12 -112.52, 114.48 -113.65, 121.98 -116.17 M107.76 -111.39 C113.13 -113.2, 118.5 -115, 121.98 -116.17 M121.98 -116.17 C121.98 -116.17, 121.98 -116.17, 121.98 -116.17 M121.98 -116.17 C121.98 -116.17, 121.98 -116.17, 121.98 -116.17" stroke="black" stroke-width="2" fill="none"></path></g></g><mask></mask><g stroke-linecap="round"><g transform="translate(187.93394093215852 179.98781111347307) rotate(0 45.90193767204414 57.66625077433673)"><path d="M0 0 C19.55 24.56, 39.09 49.11, 91.8 115.33 M0 0 C26.81 33.68, 53.62 67.36, 91.8 115.33" stroke="black" stroke-width="2" fill="none"></path></g><g transform="translate(187.93394093215852 179.98781111347307) rotate(0 45.90193767204414 57.66625077433673)"><path d="M91.8 115.33 L78.38 108.64 L88.3 100.75 L91.8 115.33" stroke="none" stroke-width="0" fill="black" fill-rule="evenodd"></path><path d="M91.8 115.33 C88.95 113.91, 86.09 112.48, 78.38 108.64 M91.8 115.33 C87.88 113.38, 83.96 111.43, 78.38 108.64 M78.38 108.64 C82.26 105.55, 86.15 102.46, 88.3 100.75 M78.38 108.64 C81.41 106.23, 84.44 103.82, 88.3 100.75 M88.3 100.75 C89.2 104.49, 90.1 108.23, 91.8 115.33 M88.3 100.75 C89.45 105.55, 90.6 110.35, 91.8 115.33 M91.8 115.33 C91.8 115.33, 91.8 115.33, 91.8 115.33 M91.8 115.33 C91.8 115.33, 91.8 115.33, 91.8 115.33" stroke="black" stroke-width="2" fill="none"></path></g></g><mask></mask><g transform="translate(253.30393479539111 37.37597198364165) rotate(0 9.424797058105469 19.304675604539625)"><text x="9.424797058105469" y="0" font-family="Cascadia, Segoe UI Emoji" font-size="32.17445934089987px" fill="black" text-anchor="middle" style="white-space: pre;" direction="ltr" dominant-baseline="text-before-edge">A</text></g><g stroke-linecap="round"><g transform="translate(194.94981306881778 173.89502568072385) rotate(0 2.2132183549673528 3.2599920267884954)"><path d="M0 0 C0.63 0.43, 3.06 1.52, 3.79 2.61 C4.53 3.69, 4.32 5.87, 4.43 6.52 M0 0 C0.63 0.43, 3.06 1.52, 3.79 2.61 C4.53 3.69, 4.32 5.87, 4.43 6.52" stroke="black" stroke-width="2" fill="none"></path></g></g><mask></mask><g transform="translate(215.22219596407558 159.97635599390924) rotate(0 12.0322265625 8.217953669603958)"><text x="12.0322265625" y="0" font-family="Cascadia, Segoe UI Emoji" font-size="13.696589449340475px" fill="black" text-anchor="middle" style="white-space: pre;" direction="ltr" dominant-baseline="text-before-edge">30°</text></g><g transform="translate(285.6155897780368 107.17250013799821) rotate(0 15.46875 10.564556988809272)"><text x="15.46875" y="0" font-family="Cascadia, Segoe UI Emoji" font-size="17.60759498134879px" fill="black" text-anchor="middle" style="white-space: pre;" direction="ltr" dominant-baseline="text-before-edge">44N</text></g><g transform="translate(298.7862929825251 243.61339124773622) rotate(0 9.424797058105469 19.304675604539625)"><text x="9.424797058105469" y="0" font-family="Cascadia, Segoe UI Emoji" font-size="32.17445934089987px" fill="black" text-anchor="middle" style="white-space: pre;" direction="ltr" dominant-baseline="text-before-edge">B</text></g><g transform="translate(208.0512023803342 266.7079399753766) rotate(0 15.46875 10.564556988809272)"><text x="15.46875" y="0" font-family="Cascadia, Segoe UI Emoji" font-size="17.60759498134879px" fill="black" text-anchor="middle" style="white-space: pre;" direction="ltr" dominant-baseline="text-before-edge">20N</text></g><g stroke-linecap="round"><g transform="translate(198.6714817465229 180.80770258467237) rotate(0 -1.968216393339162 3.012472287826313)"><path d="M0 0 C0.11 -0.03, 0.8 -0.77, 0.66 -0.16 C0.52 0.44, 0.05 2.53, -0.82 3.62 C-1.7 4.72, -3.98 5.96, -4.61 6.43 M0 0 C0.11 -0.03, 0.8 -0.77, 0.66 -0.16 C0.52 0.44, 0.05 2.53, -0.82 3.62 C-1.7 4.72, -3.98 5.96, -4.61 6.43" stroke="black" stroke-width="2" fill="none"></path></g></g><mask></mask><g transform="translate(211.5196997458197 184.94758561794697) rotate(0 12.0322265625 8.217953669603958)"><text x="12.0322265625" y="0" font-family="Cascadia, Segoe UI Emoji" font-size="13.696589449340475px" fill="black" text-anchor="middle" style="white-space: pre;" direction="ltr" dominant-baseline="text-before-edge">40°</text></g></svg>