<svg xmlns="http://www.w3.org/2000/svg" xmlns:xlink="http://www.w3.org/1999/xlink" width="253.1875" height="93.5625" style="width:253.1875px;height:93.5625px;font-family:Asana-Math, Asana;background:#FFF;"><g><g><g><g transform="matrix(1,0,0,1,14.90625,19)"><path transform="matrix(0.017,0,0,-0.017,0,0)" d="M377 694L289 694L28 0L102 0L179 204L470 204L546 0L638 0ZM448 260L200 260L265 441C286 500 317 585 324 622L325 622C327 608 334 583 357 517Z" stroke="rgb(0,0,0)" stroke-opacity="1" stroke-width="8" fill="rgb(0,0,0)" fill-opacity="1"></path></g></g><g><g><g><g><g transform="matrix(1,0,0,1,26.71875,22.009375)"><path transform="matrix(0.0119,0,0,-0.0119,0,0)" d="M260 229L443 444L361 444L227 279L89 444L6 444L194 229L0 0L82 0L227 188L377 0L460 0Z" stroke="rgb(0,0,0)" stroke-opacity="1" stroke-width="8" fill="rgb(0,0,0)" fill-opacity="1"></path></g></g></g></g></g><g><g transform="matrix(1,0,0,1,33.21875,19)"><path transform="matrix(0.017,0,0,-0.017,0,0)" d="" stroke="rgb(0,0,0)" stroke-opacity="1" stroke-width="8" fill="rgb(0,0,0)" fill-opacity="1"></path></g></g><g><g transform="matrix(1,0,0,1,42.546875,19)"><path transform="matrix(0.017,0,0,-0.017,0,0)" d="M604 347L604 406L65 406L65 347ZM604 134L604 193L65 193L65 134Z" stroke="rgb(0,0,0)" stroke-opacity="1" stroke-width="8" fill="rgb(0,0,0)" fill-opacity="1"></path></g></g><g><g transform="matrix(1,0,0,1,59,19)"><path transform="matrix(0.017,0,0,-0.017,0,0)" d="M548 689L528 689C469 627 386 624 338 622L338 563C371 564 419 566 469 587L469 59L344 59L344 0L673 0L673 59L548 59ZM901 602L1164 602L1164 667L829 667L829 292L895 292C912 332 949 372 1007 372C1054 372 1108 330 1108 208C1108 40 986 40 977 40C910 40 849 79 820 134L787 77C828 19 897 -22 978 -22C1097 -22 1197 78 1197 206C1197 333 1111 434 1008 434C968 434 930 419 901 392ZM1467 694L1343 694L1343 0L1421 0L1421 623L1422 623C1441 582 1483 497 1489 486L1734 0L1858 0L1858 694L1780 694L1780 71L1779 71C1760 112 1718 197 1712 208ZM2371 267L2240 213L2235 204L2271 153L2281 153L2387 241L2405 99L2415 95L2483 121L2483 131L2415 253L2553 233L2562 241L2562 303L2556 307L2417 283L2486 408L2483 423L2421 442L2412 438L2386 295L2291 393L2281 393L2237 341L2240 331ZM3250 418C3191 452 3157 461 3096 461C2957 461 2876 340 2876 222C2876 98 2967 -11 3092 -11C3146 -11 3201 3 3255 40L3249 107C3198 67 3144 53 3093 53C3010 53 2954 125 2954 223C2954 301 2991 397 3097 397C3149 397 3183 389 3238 353ZM3752 220C3752 354 3652 461 3533 461C3410 461 3313 351 3313 220C3313 88 3415 -11 3532 -11C3652 -11 3752 90 3752 220ZM3532 53C3463 53 3391 109 3391 230C3391 351 3467 400 3532 400C3602 400 3674 348 3674 230C3674 112 3606 53 3532 53ZM4142 128C4142 183 4105 217 4103 220C4064 255 4037 261 3987 270C3932 281 3886 291 3886 340C3886 402 3958 402 3971 402C4003 402 4056 398 4113 364L4125 429C4073 453 4032 461 3981 461C3956 461 3815 461 3815 330C3815 281 3844 249 3869 230C3900 208 3922 204 3977 193C4013 186 4071 174 4071 121C4071 52 3992 52 3977 52C3896 52 3840 89 3822 101L3810 33C3842 17 3897 -11 3978 -11C4116 -11 4142 75 4142 128Z" stroke="rgb(0,0,0)" stroke-opacity="1" stroke-width="8" fill="rgb(0,0,0)" fill-opacity="1"></path></g></g><g><g transform="matrix(1,0,0,1,129.796875,19)"><path transform="matrix(0.017,0,0,-0.017,0,0)" d="M146 266C146 526 243 632 301 700L282 726C225 675 60 542 60 266C60 159 85 58 133 -32C168 -99 200 -138 282 -215L301 -194C255 -137 146 -15 146 266Z" stroke="rgb(0,0,0)" stroke-opacity="1" stroke-width="8" fill="rgb(0,0,0)" fill-opacity="1"></path></g></g><g><g transform="matrix(1,0,0,1,135.453125,19)"><path transform="matrix(0.017,0,0,-0.017,0,0)" d="M92 522C121 593 186 630 247 630C299 630 348 600 348 535C348 473 307 413 246 398C240 397 238 397 167 391L167 329L238 329C346 329 368 235 368 184C368 105 322 40 245 40C176 40 97 75 53 144L42 83C115 -12 207 -22 247 -22C369 -22 457 76 457 183C457 275 387 338 319 360C395 401 430 471 430 535C430 622 347 689 248 689C171 689 98 648 56 577ZM956 331C956 412 952 506 910 588C869 665 800 689 749 689C690 689 620 662 579 571C546 497 541 413 541 331C541 251 545 177 575 103C615 5 691 -22 748 -22C821 -22 884 19 916 89C946 155 956 223 956 331ZM749 40C697 40 656 78 636 151C620 209 619 264 619 343C619 407 619 468 636 524C642 544 667 627 748 627C826 627 852 550 859 531C878 475 878 406 878 343C878 276 878 212 860 148C834 56 781 40 749 40Z" stroke="rgb(0,0,0)" stroke-opacity="1" stroke-width="8" fill="rgb(0,0,0)" fill-opacity="1"></path></g></g><g><g transform="matrix(1,0,0,1,152.421875,19)"><path transform="matrix(0.017,0,0,-0.017,0,0)" d="M51 726L32 700C87 636 187 526 187 266C187 -10 83 -131 32 -194L51 -215C104 -165 273 -23 273 265C273 542 108 675 51 726Z" stroke="rgb(0,0,0)" stroke-opacity="1" stroke-width="8" fill="rgb(0,0,0)" fill-opacity="1"></path></g></g><g><g transform="matrix(1,0,0,1,158.078125,19)"><path transform="matrix(0.017,0,0,-0.017,0,0)" d="" stroke="rgb(0,0,0)" stroke-opacity="1" stroke-width="8" fill="rgb(0,0,0)" fill-opacity="1"></path></g></g><g><g transform="matrix(1,0,0,1,167.40625,19)"><path transform="matrix(0.017,0,0,-0.017,0,0)" d="M604 347L604 406L65 406L65 347ZM604 134L604 193L65 193L65 134Z" stroke="rgb(0,0,0)" stroke-opacity="1" stroke-width="8" fill="rgb(0,0,0)" fill-opacity="1"></path></g></g><g><g transform="matrix(1,0,0,1,183.859375,19)"><path transform="matrix(0.017,0,0,-0.017,0,0)" d="M548 689L528 689C469 627 386 624 338 622L338 563C371 564 419 566 469 587L469 59L344 59L344 0L673 0L673 59L548 59ZM831 466C851 545 879 624 970 624C1064 624 1115 548 1115 468C1115 382 1058 324 999 263L922 191L798 65L798 0L1197 0L1197 72L1015 72C1003 72 991 71 979 71L870 71C902 100 978 176 1009 205C1081 274 1197 347 1197 471C1197 587 1116 689 984 689C870 689 814 610 790 522C814 487 807 501 831 466ZM1371 111C1341 111 1314 83 1314 53C1314 23 1341 -5 1370 -5C1402 -5 1430 22 1430 53C1430 83 1402 111 1371 111ZM1568 24C1602 -1 1639 -22 1701 -22C1832 -22 1953 119 1953 340C1953 625 1834 689 1749 689C1679 689 1638 658 1603 621C1540 552 1538 485 1538 441C1538 311 1604 197 1700 197C1762 197 1826 227 1869 281C1858 118 1781 40 1702 40C1668 40 1635 48 1599 78ZM1867 418C1867 334 1818 259 1739 259C1692 259 1664 283 1643 320C1621 360 1620 397 1620 441C1620 486 1621 527 1649 572C1669 602 1697 630 1749 630C1856 630 1867 467 1867 418ZM2067 24C2101 -1 2138 -22 2200 -22C2331 -22 2452 119 2452 340C2452 625 2333 689 2248 689C2178 689 2137 658 2102 621C2039 552 2037 485 2037 441C2037 311 2103 197 2199 197C2261 197 2325 227 2368 281C2357 118 2280 40 2201 40C2167 40 2134 48 2098 78ZM2366 418C2366 334 2317 259 2238 259C2191 259 2163 283 2142 320C2120 360 2119 397 2119 441C2119 486 2120 527 2148 572C2168 602 2196 630 2248 630C2355 630 2366 467 2366 418ZM2714 694L2590 694L2590 0L2668 0L2668 623L2669 623C2688 582 2730 497 2736 486L2981 0L3105 0L3105 694L3027 694L3027 71L3026 71C3007 112 2965 197 2959 208Z" stroke="rgb(0,0,0)" stroke-opacity="1" stroke-width="8" fill="rgb(0,0,0)" fill-opacity="1"></path></g></g></g><g><g><g transform="matrix(1,0,0,1,23.25,41.390625)"><path transform="matrix(0.017,0,0,-0.017,0,0)" d="M377 694L289 694L28 0L102 0L179 204L470 204L546 0L638 0ZM448 260L200 260L265 441C286 500 317 585 324 622L325 622C327 608 334 583 357 517Z" stroke="rgb(0,0,0)" stroke-opacity="1" stroke-width="8" fill="rgb(0,0,0)" fill-opacity="1"></path></g></g><g><g><g><g><g transform="matrix(1,0,0,1,35.0625,44.4)"><path transform="matrix(0.0119,0,0,-0.0119,0,0)" d="M446 444L371 444L238 57L93 444L14 444L208 0C164 -113 151 -148 115 -148C99 -148 67 -144 37 -132L43 -197C65 -202 93 -205 115 -205C150 -205 187 -193 228 -91Z" stroke="rgb(0,0,0)" stroke-opacity="1" stroke-width="8" fill="rgb(0,0,0)" fill-opacity="1"></path></g></g></g></g></g><g><g transform="matrix(1,0,0,1,41.5625,41.390625)"><path transform="matrix(0.017,0,0,-0.017,0,0)" d="" stroke="rgb(0,0,0)" stroke-opacity="1" stroke-width="8" fill="rgb(0,0,0)" fill-opacity="1"></path></g></g><g><g transform="matrix(1,0,0,1,50.890625,41.390625)"><path transform="matrix(0.017,0,0,-0.017,0,0)" d="M604 347L604 406L65 406L65 347ZM604 134L604 193L65 193L65 134Z" stroke="rgb(0,0,0)" stroke-opacity="1" stroke-width="8" fill="rgb(0,0,0)" fill-opacity="1"></path></g></g><g><g transform="matrix(1,0,0,1,67.34375,41.390625)"><path transform="matrix(0.017,0,0,-0.017,0,0)" d="M548 689L528 689C469 627 386 624 338 622L338 563C371 564 419 566 469 587L469 59L344 59L344 0L673 0L673 59L548 59ZM901 602L1164 602L1164 667L829 667L829 292L895 292C912 332 949 372 1007 372C1054 372 1108 330 1108 208C1108 40 986 40 977 40C910 40 849 79 820 134L787 77C828 19 897 -22 978 -22C1097 -22 1197 78 1197 206C1197 333 1111 434 1008 434C968 434 930 419 901 392ZM1467 694L1343 694L1343 0L1421 0L1421 623L1422 623C1441 582 1483 497 1489 486L1734 0L1858 0L1858 694L1780 694L1780 71L1779 71C1760 112 1718 197 1712 208ZM2371 267L2240 213L2235 204L2271 153L2281 153L2387 241L2405 99L2415 95L2483 121L2483 131L2415 253L2553 233L2562 241L2562 303L2556 307L2417 283L2486 408L2483 423L2421 442L2412 438L2386 295L2291 393L2281 393L2237 341L2240 331ZM3200 128C3200 183 3163 217 3161 220C3122 255 3095 261 3045 270C2990 281 2944 291 2944 340C2944 402 3016 402 3029 402C3061 402 3114 398 3171 364L3183 429C3131 453 3090 461 3039 461C3014 461 2873 461 2873 330C2873 281 2902 249 2927 230C2958 208 2980 204 3035 193C3071 186 3129 174 3129 121C3129 52 3050 52 3035 52C2954 52 2898 89 2880 101L2868 33C2900 17 2955 -11 3036 -11C3174 -11 3200 75 3200 128ZM3636 219C3636 421 3529 461 3458 461C3347 461 3257 355 3257 226C3257 94 3353 -11 3473 -11C3536 -11 3593 13 3632 41L3626 106C3563 54 3497 50 3474 50C3394 50 3330 121 3327 219ZM3332 274C3348 350 3401 400 3458 400C3510 400 3566 366 3579 274ZM4100 298C4100 364 4085 455 3963 455C3873 455 3824 387 3818 379L3818 450L3746 450L3746 0L3824 0L3824 245C3824 311 3849 394 3925 394C4021 394 4022 323 4022 291L4022 0L4100 0Z" stroke="rgb(0,0,0)" stroke-opacity="1" stroke-width="8" fill="rgb(0,0,0)" fill-opacity="1"></path></g></g><g><g transform="matrix(1,0,0,1,138.40625,41.390625)"><path transform="matrix(0.017,0,0,-0.017,0,0)" d="M146 266C146 526 243 632 301 700L282 726C225 675 60 542 60 266C60 159 85 58 133 -32C168 -99 200 -138 282 -215L301 -194C255 -137 146 -15 146 266Z" stroke="rgb(0,0,0)" stroke-opacity="1" stroke-width="8" fill="rgb(0,0,0)" fill-opacity="1"></path></g></g><g><g transform="matrix(1,0,0,1,144.0625,41.390625)"><path transform="matrix(0.017,0,0,-0.017,0,0)" d="M92 522C121 593 186 630 247 630C299 630 348 600 348 535C348 473 307 413 246 398C240 397 238 397 167 391L167 329L238 329C346 329 368 235 368 184C368 105 322 40 245 40C176 40 97 75 53 144L42 83C115 -12 207 -22 247 -22C369 -22 457 76 457 183C457 275 387 338 319 360C395 401 430 471 430 535C430 622 347 689 248 689C171 689 98 648 56 577ZM956 331C956 412 952 506 910 588C869 665 800 689 749 689C690 689 620 662 579 571C546 497 541 413 541 331C541 251 545 177 575 103C615 5 691 -22 748 -22C821 -22 884 19 916 89C946 155 956 223 956 331ZM749 40C697 40 656 78 636 151C620 209 619 264 619 343C619 407 619 468 636 524C642 544 667 627 748 627C826 627 852 550 859 531C878 475 878 406 878 343C878 276 878 212 860 148C834 56 781 40 749 40Z" stroke="rgb(0,0,0)" stroke-opacity="1" stroke-width="8" fill="rgb(0,0,0)" fill-opacity="1"></path></g></g><g><g transform="matrix(1,0,0,1,161.03125,41.390625)"><path transform="matrix(0.017,0,0,-0.017,0,0)" d="M51 726L32 700C87 636 187 526 187 266C187 -10 83 -131 32 -194L51 -215C104 -165 273 -23 273 265C273 542 108 675 51 726Z" stroke="rgb(0,0,0)" stroke-opacity="1" stroke-width="8" fill="rgb(0,0,0)" fill-opacity="1"></path></g></g><g><g transform="matrix(1,0,0,1,166.6875,41.390625)"><path transform="matrix(0.017,0,0,-0.017,0,0)" d="" stroke="rgb(0,0,0)" stroke-opacity="1" stroke-width="8" fill="rgb(0,0,0)" fill-opacity="1"></path></g></g><g><g transform="matrix(1,0,0,1,176.015625,41.390625)"><path transform="matrix(0.017,0,0,-0.017,0,0)" d="M604 347L604 406L65 406L65 347ZM604 134L604 193L65 193L65 134Z" stroke="rgb(0,0,0)" stroke-opacity="1" stroke-width="8" fill="rgb(0,0,0)" fill-opacity="1"></path></g></g><g><g transform="matrix(1,0,0,1,192.46875,41.390625)"><path transform="matrix(0.017,0,0,-0.017,0,0)" d="M42 594L389 594C241 429 152 227 152 -11L236 -11C236 294 379 511 457 601L457 667L42 667ZM623 111C593 111 566 83 566 53C566 23 593 -5 622 -5C654 -5 682 22 682 53C682 83 654 111 623 111ZM901 602L1164 602L1164 667L829 667L829 292L895 292C912 332 949 372 1007 372C1054 372 1108 330 1108 208C1108 40 986 40 977 40C910 40 849 79 820 134L787 77C828 19 897 -22 978 -22C1097 -22 1197 78 1197 206C1197 333 1111 434 1008 434C968 434 930 419 901 392ZM1467 694L1343 694L1343 0L1421 0L1421 623L1422 623C1441 582 1483 497 1489 486L1734 0L1858 0L1858 694L1780 694L1780 71L1779 71C1760 112 1718 197 1712 208Z" stroke="rgb(0,0,0)" stroke-opacity="1" stroke-width="8" fill="rgb(0,0,0)" fill-opacity="1"></path></g></g></g><g><g><g transform="matrix(1,0,0,1,2,63.78125)"><path transform="matrix(0.017,0,0,-0.017,0,0)" d="M97 694L97 0L361 0C505 0 610 90 610 188C610 275 523 346 417 363C508 386 583 444 583 520C583 612 476 694 334 694ZM180 391L180 638L306 638C417 638 505 585 505 519C505 459 434 391 296 391ZM180 56L180 330L325 330C431 330 529 269 529 189C529 114 441 56 333 56Z" stroke="rgb(0,0,0)" stroke-opacity="1" stroke-width="8" fill="rgb(0,0,0)" fill-opacity="1"></path></g></g><g><g><g><g><g transform="matrix(1,0,0,1,13.8125,66.790625)"><path transform="matrix(0.0119,0,0,-0.0119,0,0)" d="M260 229L443 444L361 444L227 279L89 444L6 444L194 229L0 0L82 0L227 188L377 0L460 0Z" stroke="rgb(0,0,0)" stroke-opacity="1" stroke-width="8" fill="rgb(0,0,0)" fill-opacity="1"></path></g></g></g></g></g><g><g transform="matrix(1,0,0,1,20.3125,63.78125)"><path transform="matrix(0.017,0,0,-0.017,0,0)" d="" stroke="rgb(0,0,0)" stroke-opacity="1" stroke-width="8" fill="rgb(0,0,0)" fill-opacity="1"></path></g></g><g><g transform="matrix(1,0,0,1,29.640625,63.78125)"><path transform="matrix(0.017,0,0,-0.017,0,0)" d="M604 347L604 406L65 406L65 347ZM604 134L604 193L65 193L65 134Z" stroke="rgb(0,0,0)" stroke-opacity="1" stroke-width="8" fill="rgb(0,0,0)" fill-opacity="1"></path></g></g><g><g transform="matrix(1,0,0,1,46.09375,63.78125)"><path transform="matrix(0.017,0,0,-0.017,0,0)" d="M332 466C352 545 380 624 471 624C565 624 616 548 616 468C616 382 559 324 500 263L423 191L299 65L299 0L698 0L698 72L516 72C504 72 492 71 480 71L371 71C403 100 479 176 510 205C582 274 698 347 698 471C698 587 617 689 485 689C371 689 315 610 291 522C315 487 308 501 332 466ZM790 594L1137 594C989 429 900 227 900 -11L984 -11C984 294 1127 511 1205 601L1205 667L790 667ZM1467 694L1343 694L1343 0L1421 0L1421 623L1422 623C1441 582 1483 497 1489 486L1734 0L1858 0L1858 694L1780 694L1780 71L1779 71C1760 112 1718 197 1712 208ZM2620 267L2489 213L2484 204L2520 153L2530 153L2636 241L2654 99L2664 95L2732 121L2732 131L2664 253L2802 233L2811 241L2811 303L2805 307L2666 283L2735 408L2732 423L2670 442L2661 438L2635 295L2540 393L2530 393L2486 341L2489 331ZM3449 128C3449 183 3412 217 3410 220C3371 255 3344 261 3294 270C3239 281 3193 291 3193 340C3193 402 3265 402 3278 402C3310 402 3363 398 3420 364L3432 429C3380 453 3339 461 3288 461C3263 461 3122 461 3122 330C3122 281 3151 249 3176 230C3207 208 3229 204 3284 193C3320 186 3378 174 3378 121C3378 52 3299 52 3284 52C3203 52 3147 89 3129 101L3117 33C3149 17 3204 -11 3285 -11C3423 -11 3449 75 3449 128ZM3885 219C3885 421 3778 461 3707 461C3596 461 3506 355 3506 226C3506 94 3602 -11 3722 -11C3785 -11 3842 13 3881 41L3875 106C3812 54 3746 50 3723 50C3643 50 3579 121 3576 219ZM3581 274C3597 350 3650 400 3707 400C3759 400 3815 366 3828 274ZM4349 298C4349 364 4334 455 4212 455C4122 455 4073 387 4067 379L4067 450L3995 450L3995 0L4073 0L4073 245C4073 311 4098 394 4174 394C4270 394 4271 323 4271 291L4271 0L4349 0Z" stroke="rgb(0,0,0)" stroke-opacity="1" stroke-width="8" fill="rgb(0,0,0)" fill-opacity="1"></path></g></g><g><g transform="matrix(1,0,0,1,121.390625,63.78125)"><path transform="matrix(0.017,0,0,-0.017,0,0)" d="M146 266C146 526 243 632 301 700L282 726C225 675 60 542 60 266C60 159 85 58 133 -32C168 -99 200 -138 282 -215L301 -194C255 -137 146 -15 146 266Z" stroke="rgb(0,0,0)" stroke-opacity="1" stroke-width="8" fill="rgb(0,0,0)" fill-opacity="1"></path></g></g><g><g transform="matrix(1,0,0,1,127.046875,63.78125)"><path transform="matrix(0.017,0,0,-0.017,0,0)" d="M153 602L416 602L416 667L81 667L81 292L147 292C164 332 201 372 259 372C306 372 360 330 360 208C360 40 238 40 229 40C162 40 101 79 72 134L39 77C80 19 149 -22 230 -22C349 -22 449 78 449 206C449 333 363 434 260 434C220 434 182 419 153 392ZM652 602L915 602L915 667L580 667L580 292L646 292C663 332 700 372 758 372C805 372 859 330 859 208C859 40 737 40 728 40C661 40 600 79 571 134L538 77C579 19 648 -22 729 -22C848 -22 948 78 948 206C948 333 862 434 759 434C719 434 681 419 652 392Z" stroke="rgb(0,0,0)" stroke-opacity="1" stroke-width="8" fill="rgb(0,0,0)" fill-opacity="1"></path></g></g><g><g transform="matrix(1,0,0,1,144.015625,63.78125)"><path transform="matrix(0.017,0,0,-0.017,0,0)" d="M51 726L32 700C87 636 187 526 187 266C187 -10 83 -131 32 -194L51 -215C104 -165 273 -23 273 265C273 542 108 675 51 726Z" stroke="rgb(0,0,0)" stroke-opacity="1" stroke-width="8" fill="rgb(0,0,0)" fill-opacity="1"></path></g></g><g><g transform="matrix(1,0,0,1,149.671875,63.78125)"><path transform="matrix(0.017,0,0,-0.017,0,0)" d="" stroke="rgb(0,0,0)" stroke-opacity="1" stroke-width="8" fill="rgb(0,0,0)" fill-opacity="1"></path></g></g><g><g transform="matrix(1,0,0,1,159,63.78125)"><path transform="matrix(0.017,0,0,-0.017,0,0)" d="M604 347L604 406L65 406L65 347ZM604 134L604 193L65 193L65 134Z" stroke="rgb(0,0,0)" stroke-opacity="1" stroke-width="8" fill="rgb(0,0,0)" fill-opacity="1"></path></g></g><g><g transform="matrix(1,0,0,1,175.453125,63.78125)"><path transform="matrix(0.017,0,0,-0.017,0,0)" d="" stroke="rgb(0,0,0)" stroke-opacity="1" stroke-width="8" fill="rgb(0,0,0)" fill-opacity="1"></path></g></g><g><g transform="matrix(1,0,0,1,183.078125,63.78125)"><path transform="matrix(0.017,0,0,-0.017,0,0)" d="M555 243L555 299L51 299L51 243Z" stroke="rgb(0,0,0)" stroke-opacity="1" stroke-width="8" fill="rgb(0,0,0)" fill-opacity="1"></path></g></g><g><g transform="matrix(1,0,0,1,196.765625,63.78125)"><path transform="matrix(0.017,0,0,-0.017,0,0)" d="M83 466C103 545 131 624 222 624C316 624 367 548 367 468C367 382 310 324 251 263L174 191L50 65L50 0L449 0L449 72L267 72C255 72 243 71 231 71L122 71C154 100 230 176 261 205C333 274 449 347 449 471C449 587 368 689 236 689C122 689 66 610 42 522C66 487 59 501 83 466ZM582 466C602 545 630 624 721 624C815 624 866 548 866 468C866 382 809 324 750 263L673 191L549 65L549 0L948 0L948 72L766 72C754 72 742 71 730 71L621 71C653 100 729 176 760 205C832 274 948 347 948 471C948 587 867 689 735 689C621 689 565 610 541 522C565 487 558 501 582 466ZM1122 111C1092 111 1065 83 1065 53C1065 23 1092 -5 1121 -5C1153 -5 1181 22 1181 53C1181 83 1153 111 1122 111ZM1546 689L1526 689C1467 627 1384 624 1336 622L1336 563C1369 564 1417 566 1467 587L1467 59L1342 59L1342 0L1671 0L1671 59L1546 59ZM2045 689L2025 689C1966 627 1883 624 1835 622L1835 563C1868 564 1916 566 1966 587L1966 59L1841 59L1841 0L2170 0L2170 59L2045 59ZM2465 694L2341 694L2341 0L2419 0L2419 623L2420 623C2439 582 2481 497 2487 486L2732 0L2856 0L2856 694L2778 694L2778 71L2777 71C2758 112 2716 197 2710 208Z" stroke="rgb(0,0,0)" stroke-opacity="1" stroke-width="8" fill="rgb(0,0,0)" fill-opacity="1"></path></g></g></g><g><g><g transform="matrix(1,0,0,1,4.25,86.171875)"><path transform="matrix(0.017,0,0,-0.017,0,0)" d="M97 694L97 0L361 0C505 0 610 90 610 188C610 275 523 346 417 363C508 386 583 444 583 520C583 612 476 694 334 694ZM180 391L180 638L306 638C417 638 505 585 505 519C505 459 434 391 296 391ZM180 56L180 330L325 330C431 330 529 269 529 189C529 114 441 56 333 56Z" stroke="rgb(0,0,0)" stroke-opacity="1" stroke-width="8" fill="rgb(0,0,0)" fill-opacity="1"></path></g></g><g><g><g><g><g transform="matrix(1,0,0,1,16.0625,89.18125)"><path transform="matrix(0.0119,0,0,-0.0119,0,0)" d="M446 444L371 444L238 57L93 444L14 444L208 0C164 -113 151 -148 115 -148C99 -148 67 -144 37 -132L43 -197C65 -202 93 -205 115 -205C150 -205 187 -193 228 -91Z" stroke="rgb(0,0,0)" stroke-opacity="1" stroke-width="8" fill="rgb(0,0,0)" fill-opacity="1"></path></g></g></g></g></g><g><g transform="matrix(1,0,0,1,22.5625,86.171875)"><path transform="matrix(0.017,0,0,-0.017,0,0)" d="" stroke="rgb(0,0,0)" stroke-opacity="1" stroke-width="8" fill="rgb(0,0,0)" fill-opacity="1"></path></g></g><g><g transform="matrix(1,0,0,1,31.890625,86.171875)"><path transform="matrix(0.017,0,0,-0.017,0,0)" d="M604 347L604 406L65 406L65 347ZM604 134L604 193L65 193L65 134Z" stroke="rgb(0,0,0)" stroke-opacity="1" stroke-width="8" fill="rgb(0,0,0)" fill-opacity="1"></path></g></g><g><g transform="matrix(1,0,0,1,48.34375,86.171875)"><path transform="matrix(0.017,0,0,-0.017,0,0)" d="M332 466C352 545 380 624 471 624C565 624 616 548 616 468C616 382 559 324 500 263L423 191L299 65L299 0L698 0L698 72L516 72C504 72 492 71 480 71L371 71C403 100 479 176 510 205C582 274 698 347 698 471C698 587 617 689 485 689C371 689 315 610 291 522C315 487 308 501 332 466ZM790 594L1137 594C989 429 900 227 900 -11L984 -11C984 294 1127 511 1205 601L1205 667L790 667ZM1467 694L1343 694L1343 0L1421 0L1421 623L1422 623C1441 582 1483 497 1489 486L1734 0L1858 0L1858 694L1780 694L1780 71L1779 71C1760 112 1718 197 1712 208ZM2620 267L2489 213L2484 204L2520 153L2530 153L2636 241L2654 99L2664 95L2732 121L2732 131L2664 253L2802 233L2811 241L2811 303L2805 307L2666 283L2735 408L2732 423L2670 442L2661 438L2635 295L2540 393L2530 393L2486 341L2489 331ZM3499 418C3440 452 3406 461 3345 461C3206 461 3125 340 3125 222C3125 98 3216 -11 3341 -11C3395 -11 3450 3 3504 40L3498 107C3447 67 3393 53 3342 53C3259 53 3203 125 3203 223C3203 301 3240 397 3346 397C3398 397 3432 389 3487 353ZM4001 220C4001 354 3901 461 3782 461C3659 461 3562 351 3562 220C3562 88 3664 -11 3781 -11C3901 -11 4001 90 4001 220ZM3781 53C3712 53 3640 109 3640 230C3640 351 3716 400 3781 400C3851 400 3923 348 3923 230C3923 112 3855 53 3781 53ZM4391 128C4391 183 4354 217 4352 220C4313 255 4286 261 4236 270C4181 281 4135 291 4135 340C4135 402 4207 402 4220 402C4252 402 4305 398 4362 364L4374 429C4322 453 4281 461 4230 461C4205 461 4064 461 4064 330C4064 281 4093 249 4118 230C4149 208 4171 204 4226 193C4262 186 4320 174 4320 121C4320 52 4241 52 4226 52C4145 52 4089 89 4071 101L4059 33C4091 17 4146 -11 4227 -11C4365 -11 4391 75 4391 128Z" stroke="rgb(0,0,0)" stroke-opacity="1" stroke-width="8" fill="rgb(0,0,0)" fill-opacity="1"></path></g></g><g><g transform="matrix(1,0,0,1,123.375,86.171875)"><path transform="matrix(0.017,0,0,-0.017,0,0)" d="M146 266C146 526 243 632 301 700L282 726C225 675 60 542 60 266C60 159 85 58 133 -32C168 -99 200 -138 282 -215L301 -194C255 -137 146 -15 146 266Z" stroke="rgb(0,0,0)" stroke-opacity="1" stroke-width="8" fill="rgb(0,0,0)" fill-opacity="1"></path></g></g><g><g transform="matrix(1,0,0,1,129.03125,86.171875)"><path transform="matrix(0.017,0,0,-0.017,0,0)" d="M153 602L416 602L416 667L81 667L81 292L147 292C164 332 201 372 259 372C306 372 360 330 360 208C360 40 238 40 229 40C162 40 101 79 72 134L39 77C80 19 149 -22 230 -22C349 -22 449 78 449 206C449 333 363 434 260 434C220 434 182 419 153 392ZM652 602L915 602L915 667L580 667L580 292L646 292C663 332 700 372 758 372C805 372 859 330 859 208C859 40 737 40 728 40C661 40 600 79 571 134L538 77C579 19 648 -22 729 -22C848 -22 948 78 948 206C948 333 862 434 759 434C719 434 681 419 652 392Z" stroke="rgb(0,0,0)" stroke-opacity="1" stroke-width="8" fill="rgb(0,0,0)" fill-opacity="1"></path></g></g><g><g transform="matrix(1,0,0,1,146,86.171875)"><path transform="matrix(0.017,0,0,-0.017,0,0)" d="M51 726L32 700C87 636 187 526 187 266C187 -10 83 -131 32 -194L51 -215C104 -165 273 -23 273 265C273 542 108 675 51 726Z" stroke="rgb(0,0,0)" stroke-opacity="1" stroke-width="8" fill="rgb(0,0,0)" fill-opacity="1"></path></g></g><g><g transform="matrix(1,0,0,1,151.65625,86.171875)"><path transform="matrix(0.017,0,0,-0.017,0,0)" d="" stroke="rgb(0,0,0)" stroke-opacity="1" stroke-width="8" fill="rgb(0,0,0)" fill-opacity="1"></path></g></g><g><g transform="matrix(1,0,0,1,160.984375,86.171875)"><path transform="matrix(0.017,0,0,-0.017,0,0)" d="M604 347L604 406L65 406L65 347ZM604 134L604 193L65 193L65 134Z" stroke="rgb(0,0,0)" stroke-opacity="1" stroke-width="8" fill="rgb(0,0,0)" fill-opacity="1"></path></g></g><g><g transform="matrix(1,0,0,1,177.4375,86.171875)"><path transform="matrix(0.017,0,0,-0.017,0,0)" d="" stroke="rgb(0,0,0)" stroke-opacity="1" stroke-width="8" fill="rgb(0,0,0)" fill-opacity="1"></path></g></g><g><g transform="matrix(1,0,0,1,185.0625,86.171875)"><path transform="matrix(0.017,0,0,-0.017,0,0)" d="M555 243L555 299L51 299L51 243Z" stroke="rgb(0,0,0)" stroke-opacity="1" stroke-width="8" fill="rgb(0,0,0)" fill-opacity="1"></path></g></g><g><g transform="matrix(1,0,0,1,198.75,86.171875)"><path transform="matrix(0.017,0,0,-0.017,0,0)" d="M299 689L279 689C220 627 137 624 89 622L89 563C122 564 170 566 220 587L220 59L95 59L95 0L424 0L424 59L299 59ZM652 602L915 602L915 667L580 667L580 292L646 292C663 332 700 372 758 372C805 372 859 330 859 208C859 40 737 40 728 40C661 40 600 79 571 134L538 77C579 19 648 -22 729 -22C848 -22 948 78 948 206C948 333 862 434 759 434C719 434 681 419 652 392ZM1122 111C1092 111 1065 83 1065 53C1065 23 1092 -5 1121 -5C1153 -5 1181 22 1181 53C1181 83 1153 111 1122 111ZM1619 174L1718 174L1718 236L1619 236L1619 667L1528 667L1275 236L1275 174L1540 174L1540 0L1619 0ZM1353 236C1405 323 1546 564 1546 622L1546 236ZM2066 361C2155 390 2189 457 2189 511C2189 607 2104 689 1996 689C1884 689 1802 605 1802 511C1802 457 1836 390 1925 361C1853 335 1788 271 1788 183C1788 72 1880 -22 1995 -22C2114 -22 2203 75 2203 183C2203 275 2133 337 2066 361ZM1996 391C1919 391 1872 441 1872 511C1872 581 1921 630 1995 630C2074 630 2119 577 2119 511C2119 438 2068 391 1996 391ZM1996 40C1927 40 1869 88 1869 184C1869 291 1941 329 1995 329C2053 329 2122 289 2122 184C2122 85 2060 40 1996 40ZM2465 694L2341 694L2341 0L2419 0L2419 623L2420 623C2439 582 2481 497 2487 486L2732 0L2856 0L2856 694L2778 694L2778 71L2777 71C2758 112 2716 197 2710 208Z" stroke="rgb(0,0,0)" stroke-opacity="1" stroke-width="8" fill="rgb(0,0,0)" fill-opacity="1"></path></g></g></g></g></svg>