<svg xmlns="http://www.w3.org/2000/svg" xmlns:xlink="http://www.w3.org/1999/xlink" width="126.921875" height="48.78125" style="width:126.921875px;height:48.78125px;font-family:Asana-Math, Asana;background:#FFF;"><g><g><g><g transform="matrix(1,0,0,1,2,19)"><path transform="matrix(0.017,0,0,-0.017,0,0)" d="M45 284C45 90 152 -18 343 -18C439 -18 510 5 600 67C600 67 610 103 610 103C610 103 600 110 600 110C506 53 454 35 376 35C219 35 133 131 133 309C133 447 190 653 418 653C489 653 541 639 597 603L597 519L624 519C629 576 637 619 651 665C575 694 518 706 456 706C276 706 45 578 45 284Z" stroke="rgb(0,0,0)" stroke-opacity="1" stroke-width="8" fill="rgb(0,0,0)" fill-opacity="1"></path></g></g><g><g><g><g><g transform="matrix(1,0,0,1,14.1875,22.009375)"><path transform="matrix(0.0119,0,0,-0.0119,0,0)" d="M9 1C24 -7 40 -11 52 -11C85 -11 124 18 155 65L231 182L242 113C255 28 278 -11 314 -11C336 -11 368 6 400 35L449 79L440 98C404 68 379 53 363 53C348 53 335 63 325 83C316 102 305 139 300 168L282 269L317 318C364 383 391 406 422 406C438 406 450 398 455 383L469 387L484 472C472 479 463 482 454 482C414 482 374 446 312 354L275 299L269 347C257 446 230 482 171 482C145 482 123 474 114 461L56 378L73 368C103 402 123 416 142 416C175 416 197 375 214 277L225 215L185 153C142 86 108 54 80 54C65 54 54 58 52 63L41 91L21 88C21 53 13 27 9 1Z" stroke="rgb(0,0,0)" stroke-opacity="1" stroke-width="8" fill="rgb(0,0,0)" fill-opacity="1"></path></g></g></g></g></g><g><g transform="matrix(1,0,0,1,21.15625,19)"><path transform="matrix(0.017,0,0,-0.017,0,0)" d="" stroke="rgb(0,0,0)" stroke-opacity="1" stroke-width="8" fill="rgb(0,0,0)" fill-opacity="1"></path></g></g><g><g transform="matrix(1,0,0,1,30.484375,19)"><path transform="matrix(0.017,0,0,-0.017,0,0)" d="M604 347L604 406L65 406L65 347ZM604 134L604 193L65 193L65 134Z" stroke="rgb(0,0,0)" stroke-opacity="1" stroke-width="8" fill="rgb(0,0,0)" fill-opacity="1"></path></g></g><g><g transform="matrix(1,0,0,1,46.9375,19)"><path transform="matrix(0.017,0,0,-0.017,0,0)" d="M543 284C543 90 650 -18 841 -18C937 -18 1008 5 1098 67C1098 67 1108 103 1108 103C1108 103 1098 110 1098 110C1004 53 952 35 874 35C717 35 631 131 631 309C631 447 688 653 916 653C987 653 1039 639 1095 603L1095 519L1122 519C1127 576 1135 619 1149 665C1073 694 1016 706 954 706C774 706 543 578 543 284ZM1602 267L1471 213L1466 204L1502 153L1512 153L1618 241L1636 99L1646 95L1714 121L1714 131L1646 253L1784 233L1793 241L1793 303L1787 307L1648 283L1717 408L1714 423L1652 442L1643 438L1617 295L1522 393L1512 393L1468 341L1471 331ZM2413 330L2436 330C2444 395 2451 432 2460 458C2436 473 2401 482 2364 482C2319 483 2246 463 2189 400C2135 352 2096 241 2096 136C2096 40 2138 -11 2218 -11C2272 -11 2320 9 2375 54L2425 95L2417 115L2402 105C2330 57 2292 40 2257 40C2201 40 2172 80 2172 159C2172 267 2207 371 2256 409C2277 425 2301 433 2332 433C2377 433 2413 414 2413 390ZM2494 152C2494 46 2539 -11 2622 -11C2677 -11 2737 15 2782 57C2844 116 2888 230 2888 331C2888 425 2838 482 2755 482C2651 482 2494 382 2494 152ZM2718 444C2779 444 2812 399 2812 315C2812 219 2781 113 2737 60C2719 39 2693 27 2662 27C2604 27 2570 72 2570 151C2570 264 2609 387 2658 427C2671 438 2694 444 2718 444ZM2951 148C2946 97 2940 62 2929 16C2967 -2 3001 -11 3036 -11C3085 -11 3131 7 3182 47C3233 87 3254 124 3254 174C3254 228 3222 257 3148 271L3105 279C3045 290 3026 307 3026 348C3026 401 3071 442 3128 442C3169 442 3207 424 3223 397L3223 342L3246 342C3250 377 3254 404 3265 455C3226 474 3198 482 3165 482C3113 482 3052 452 3004 404C2978 377 2967 352 2967 316C2967 260 2998 228 3064 215L3127 203C3171 195 3187 177 3187 138C3187 73 3141 29 3070 29C3035 29 3004 40 2976 64L2976 148Z" stroke="rgb(0,0,0)" stroke-opacity="1" stroke-width="8" fill="rgb(0,0,0)" fill-opacity="1"></path></g></g><g><g transform="matrix(1,0,0,1,103.1875,19)"><path transform="matrix(0.017,0,0,-0.017,0,0)" d="M146 266C146 526 243 632 301 700L282 726C225 675 60 542 60 266C60 159 85 58 133 -32C168 -99 200 -138 282 -215L301 -194C255 -137 146 -15 146 266Z" stroke="rgb(0,0,0)" stroke-opacity="1" stroke-width="8" fill="rgb(0,0,0)" fill-opacity="1"></path></g></g><g><g transform="matrix(1,0,0,1,108.84375,19)"><path transform="matrix(0.017,0,0,-0.017,0,0)" d="M237 -16C473 -16 572 316 576 504C578 618 546 702 419 702C159 702 72 412 69 199C67 80 101 -16 237 -16ZM401 676C536 676 506 491 485 381L169 381C194 485 272 676 401 676ZM253 13C102 13 147 261 163 349L479 349C454 237 396 13 253 13Z" stroke="rgb(0,0,0)" stroke-opacity="1" stroke-width="8" fill="rgb(0,0,0)" fill-opacity="1"></path></g></g><g><g transform="matrix(1,0,0,1,119.265625,19)"><path transform="matrix(0.017,0,0,-0.017,0,0)" d="M51 726L32 700C87 636 187 526 187 266C187 -10 83 -131 32 -194L51 -215C104 -165 273 -23 273 265C273 542 108 675 51 726Z" stroke="rgb(0,0,0)" stroke-opacity="1" stroke-width="8" fill="rgb(0,0,0)" fill-opacity="1"></path></g></g></g><g><g><g transform="matrix(1,0,0,1,2.21875,41.390625)"><path transform="matrix(0.017,0,0,-0.017,0,0)" d="M577 681C514 705 460 716 394 716C202 716 67 543 67 347C67 154 200 -22 395 -22C478 -22 517 -9 588 34L582 103C510 52 465 42 396 42C245 42 156 194 156 347C156 510 254 652 393 652C472 652 520 627 562 600Z" stroke="rgb(0,0,0)" stroke-opacity="1" stroke-width="8" fill="rgb(0,0,0)" fill-opacity="1"></path></g></g><g><g><g><g><g transform="matrix(1,0,0,1,13.5625,44.4)"><path transform="matrix(0.0119,0,0,-0.0119,0,0)" d="M446 444L371 444L238 57L93 444L14 444L208 0C164 -113 151 -148 115 -148C99 -148 67 -144 37 -132L43 -197C65 -202 93 -205 115 -205C150 -205 187 -193 228 -91Z" stroke="rgb(0,0,0)" stroke-opacity="1" stroke-width="8" fill="rgb(0,0,0)" fill-opacity="1"></path></g></g></g></g></g><g><g transform="matrix(1,0,0,1,20.0625,41.390625)"><path transform="matrix(0.017,0,0,-0.017,0,0)" d="" stroke="rgb(0,0,0)" stroke-opacity="1" stroke-width="8" fill="rgb(0,0,0)" fill-opacity="1"></path></g></g><g><g transform="matrix(1,0,0,1,29.390625,41.390625)"><path transform="matrix(0.017,0,0,-0.017,0,0)" d="M604 347L604 406L65 406L65 347ZM604 134L604 193L65 193L65 134Z" stroke="rgb(0,0,0)" stroke-opacity="1" stroke-width="8" fill="rgb(0,0,0)" fill-opacity="1"></path></g></g><g><g transform="matrix(1,0,0,1,45.84375,41.390625)"><path transform="matrix(0.017,0,0,-0.017,0,0)" d="M1075 681C1012 705 958 716 892 716C700 716 565 543 565 347C565 154 698 -22 893 -22C976 -22 1015 -9 1086 34L1080 103C1008 52 963 42 894 42C743 42 654 194 654 347C654 510 752 652 891 652C970 652 1018 627 1060 600ZM1552 267L1421 213L1416 204L1452 153L1462 153L1568 241L1586 99L1596 95L1664 121L1664 131L1596 253L1734 233L1743 241L1743 303L1737 307L1598 283L1667 408L1664 423L1602 442L1593 438L1567 295L1472 393L1462 393L1418 341L1421 331ZM2381 128C2381 183 2344 217 2342 220C2303 255 2276 261 2226 270C2171 281 2125 291 2125 340C2125 402 2197 402 2210 402C2242 402 2295 398 2352 364L2364 429C2312 453 2271 461 2220 461C2195 461 2054 461 2054 330C2054 281 2083 249 2108 230C2139 208 2161 204 2216 193C2252 186 2310 174 2310 121C2310 52 2231 52 2216 52C2135 52 2079 89 2061 101L2049 33C2081 17 2136 -11 2217 -11C2355 -11 2381 75 2381 128ZM2817 219C2817 421 2710 461 2639 461C2528 461 2438 355 2438 226C2438 94 2534 -11 2654 -11C2717 -11 2774 13 2813 41L2807 106C2744 54 2678 50 2655 50C2575 50 2511 121 2508 219ZM2513 274C2529 350 2582 400 2639 400C2691 400 2747 366 2760 274ZM3281 298C3281 364 3266 455 3144 455C3054 455 3005 387 2999 379L2999 450L2927 450L2927 0L3005 0L3005 245C3005 311 3030 394 3106 394C3202 394 3203 323 3203 291L3203 0L3281 0Z" stroke="rgb(0,0,0)" stroke-opacity="1" stroke-width="8" fill="rgb(0,0,0)" fill-opacity="1"></path></g></g><g><g transform="matrix(1,0,0,1,102.984375,41.390625)"><path transform="matrix(0.017,0,0,-0.017,0,0)" d="M146 266C146 526 243 632 301 700L282 726C225 675 60 542 60 266C60 159 85 58 133 -32C168 -99 200 -138 282 -215L301 -194C255 -137 146 -15 146 266Z" stroke="rgb(0,0,0)" stroke-opacity="1" stroke-width="8" fill="rgb(0,0,0)" fill-opacity="1"></path></g></g><g><g transform="matrix(1,0,0,1,108.640625,41.390625)"><path transform="matrix(0.017,0,0,-0.017,0,0)" d="M237 -16C473 -16 572 316 576 504C578 618 546 702 419 702C159 702 72 412 69 199C67 80 101 -16 237 -16ZM401 676C536 676 506 491 485 381L169 381C194 485 272 676 401 676ZM253 13C102 13 147 261 163 349L479 349C454 237 396 13 253 13Z" stroke="rgb(0,0,0)" stroke-opacity="1" stroke-width="8" fill="rgb(0,0,0)" fill-opacity="1"></path></g></g><g><g transform="matrix(1,0,0,1,119.0625,41.390625)"><path transform="matrix(0.017,0,0,-0.017,0,0)" d="M51 726L32 700C87 636 187 526 187 266C187 -10 83 -131 32 -194L51 -215C104 -165 273 -23 273 265C273 542 108 675 51 726Z" stroke="rgb(0,0,0)" stroke-opacity="1" stroke-width="8" fill="rgb(0,0,0)" fill-opacity="1"></path></g></g></g></g></svg>