<svg version="1.1" xmlns="http://www.w3.org/2000/svg" viewBox="0 0 249.21553458125527 207.50165799822935" width="498.43106916251054" height="415.0033159964587">
  <!-- svg-source:excalidraw -->
  
  <defs>
    <style class="style-fonts">
      @font-face {
        font-family: "Virgil";
        src: url("https://excalidraw.com/Virgil.woff2");
      }
      @font-face {
        font-family: "Cascadia";
        src: url("https://excalidraw.com/Cascadia.woff2");
      }
    </style>
  </defs>
  <g stroke-linecap="round"><g transform="translate(133.9685409657377 93.4319622401581) rotate(0 0.9797630151706471 3.240376013691275)"><path d="M0 0 C0.32 0.48, 1.79 1.77, 1.94 2.85 C2.1 3.93, 1.08 5.88, 0.91 6.48 M0 0 C0.32 0.48, 1.79 1.77, 1.94 2.85 C2.1 3.93, 1.08 5.88, 0.91 6.48" stroke="black" stroke-width="2" fill="none"></path></g></g><mask></mask><g stroke-linecap="round"><g transform="translate(120.11282073211805 10) rotate(0 0.11782913218075919 93.75082899911467)"><path d="M0 0 C0.09 74.3, 0.19 148.61, 0.24 187.5 M0 0 C0.06 48.41, 0.12 96.82, 0.24 187.5" stroke="black" stroke-width="2" fill="none"></path></g></g><mask></mask><g stroke-linecap="round"><g transform="translate(12.60940308346926 99.87892724137055) rotate(0 113.303065748893 0.25290862890415156)"><path d="M0 0 C84.44 0.19, 168.88 0.38, 226.61 0.51 M0 0 C80.96 0.18, 161.92 0.36, 226.61 0.51" stroke="black" stroke-width="2" fill="none"></path></g></g><mask></mask><g stroke-linecap="round"><g transform="translate(120.28029058285938 100.2268357048797) rotate(0 38.47246738591366 -19.286988926975027)"><path d="M0 0 C22.44 -11.25, 44.88 -22.5, 76.94 -38.57 M0 0 C30.08 -15.08, 60.16 -30.16, 76.94 -38.57" stroke="black" stroke-width="2" fill="none"></path></g><g transform="translate(120.28029058285938 100.2268357048797) rotate(0 38.47246738591366 -19.286988926975027)"><path d="M76.94 -38.57 L67.63 -26.81 L61.95 -38.15 L76.94 -38.57" stroke="none" stroke-width="0" fill="black" fill-rule="evenodd"></path><path d="M76.94 -38.57 C74.23 -35.14, 71.51 -31.72, 67.63 -26.81 M76.94 -38.57 C73.3 -33.98, 69.66 -29.38, 67.63 -26.81 M67.63 -26.81 C65.68 -30.71, 63.73 -34.6, 61.95 -38.15 M67.63 -26.81 C66.02 -30.04, 64.4 -33.26, 61.95 -38.15 M61.95 -38.15 C65.59 -38.25, 69.23 -38.36, 76.94 -38.57 M61.95 -38.15 C67.21 -38.3, 72.47 -38.45, 76.94 -38.57 M76.94 -38.57 C76.94 -38.57, 76.94 -38.57, 76.94 -38.57 M76.94 -38.57 C76.94 -38.57, 76.94 -38.57, 76.94 -38.57" stroke="black" stroke-width="2" fill="none"></path></g></g><mask></mask><g transform="translate(142.1684515081206 90.77602672742978) rotate(0 5.020823593475598 3.3472157289834286)"><text x="5.020823593475519" y="5.694431457967364" font-family="Cascadia, Segoe UI Emoji" font-size="5.5130612006790045px" fill="black" text-anchor="middle" style="white-space: pre;" direction="ltr">30°</text></g><g stroke-linecap="round"><g transform="translate(119.06281130276147 100.94963459192331) rotate(0 -39.8566249683945 14.516884541334548)"><path d="M0 0 C-13.29 4.84, -66.43 24.19, -79.71 29.03 M0 0 C-13.29 4.84, -66.43 24.19, -79.71 29.03" stroke="black" stroke-width="2" fill="none"></path></g><g transform="translate(119.06281130276147 100.94963459192331) rotate(0 -39.8566249683945 14.516884541334548)"><path d="M-79.71 29.03 L-69.11 18.42 L-64.77 30.34 L-79.71 29.03" stroke="none" stroke-width="0" fill="black" fill-rule="evenodd"></path><path d="M-79.71 29.03 C-75.47 24.79, -71.23 20.55, -69.11 18.42 M-79.71 29.03 C-77.53 26.85, -75.34 24.66, -69.11 18.42 M-69.11 18.42 C-67.98 21.52, -66.86 24.61, -64.77 30.34 M-69.11 18.42 C-67.61 22.55, -66.1 26.68, -64.77 30.34 M-64.77 30.34 C-68.89 29.98, -73.01 29.62, -79.71 29.03 M-64.77 30.34 C-68.8 29.99, -72.83 29.63, -79.71 29.03 M-79.71 29.03 C-79.71 29.03, -79.71 29.03, -79.71 29.03 M-79.71 29.03 C-79.71 29.03, -79.71 29.03, -79.71 29.03" stroke="black" stroke-width="2" fill="none"></path></g></g><mask></mask><g stroke-linecap="round"><g transform="translate(113.23013447811809 103.67155044342326) rotate(0 3.499606094786486 1.5313777012843275)"><path d="M0 0 C0.48 0.48, 1.68 2.38, 2.85 2.85 C4.02 3.33, 6.31 2.85, 7 2.85 M0 0 C0.48 0.48, 1.68 2.38, 2.85 2.85 C4.02 3.33, 6.31 2.85, 7 2.85" stroke="black" stroke-width="2" fill="none"></path></g></g><mask></mask><g transform="translate(106.19321415373815 108.36046722839092) rotate(0 6 3)"><text x="6" y="5" font-family="Cascadia, Segoe UI Emoji" font-size="5.5130612006790045px" fill="black" text-anchor="middle" style="white-space: pre;" direction="ltr">55°</text></g><g transform="translate(32.643742245380054 142.1467877978066) rotate(0 11.112730499214194 7.4084869994758265)"><text x="11.112730499213967" y="11.816973998951951" font-family="Cascadia, Segoe UI Emoji" font-size="12.202213881489849px" fill="black" text-anchor="middle" style="white-space: pre;" direction="ltr">27N</text></g><g transform="translate(206.07024211895987 52.45317973884994) rotate(0 11.5 7.5)"><text x="11.5" y="12" font-family="Cascadia, Segoe UI Emoji" font-size="12.202213881489849px" fill="black" text-anchor="middle" style="white-space: pre;" direction="ltr">15N</text></g><g transform="translate(179.27724295519693 25.104800088513002) rotate(0 9 17)"><text x="9" y="27" font-family="Cascadia, Segoe UI Emoji" font-size="28px" fill="black" text-anchor="middle" style="white-space: pre;" direction="ltr">A</text></g><g transform="translate(10 104.29919595790489) rotate(0 9 17)"><text x="9" y="27" font-family="Cascadia, Segoe UI Emoji" font-size="28px" fill="black" text-anchor="middle" style="white-space: pre;" direction="ltr">B</text></g></svg>