<svg xmlns="http://www.w3.org/2000/svg" xmlns:xlink="http://www.w3.org/1999/xlink" width="126.5" height="48.78125" style="width:126.5px;height:48.78125px;font-family:Asana-Math, Asana;background:#FFF;"><g><g><g><g transform="matrix(1,0,0,1,2,19)"><path transform="matrix(0.017,0,0,-0.017,0,0)" d="M577 681C514 705 460 716 394 716C202 716 67 543 67 347C67 154 200 -22 395 -22C478 -22 517 -9 588 34L582 103C510 52 465 42 396 42C245 42 156 194 156 347C156 510 254 652 393 652C472 652 520 627 562 600Z" stroke="rgb(0,0,0)" stroke-opacity="1" stroke-width="8" fill="rgb(0,0,0)" fill-opacity="1"></path></g></g><g><g><g><g><g transform="matrix(1,0,0,1,13.34375,22.009375)"><path transform="matrix(0.0119,0,0,-0.0119,0,0)" d="M260 229L443 444L361 444L227 279L89 444L6 444L194 229L0 0L82 0L227 188L377 0L460 0Z" stroke="rgb(0,0,0)" stroke-opacity="1" stroke-width="8" fill="rgb(0,0,0)" fill-opacity="1"></path></g></g></g></g></g><g><g transform="matrix(1,0,0,1,19.84375,19)"><path transform="matrix(0.017,0,0,-0.017,0,0)" d="" stroke="rgb(0,0,0)" stroke-opacity="1" stroke-width="8" fill="rgb(0,0,0)" fill-opacity="1"></path></g></g><g><g transform="matrix(1,0,0,1,29.171875,19)"><path transform="matrix(0.017,0,0,-0.017,0,0)" d="M604 347L604 406L65 406L65 347ZM604 134L604 193L65 193L65 134Z" stroke="rgb(0,0,0)" stroke-opacity="1" stroke-width="8" fill="rgb(0,0,0)" fill-opacity="1"></path></g></g><g><g transform="matrix(1,0,0,1,45.625,19)"><path transform="matrix(0.017,0,0,-0.017,0,0)" d="M1075 681C1012 705 958 716 892 716C700 716 565 543 565 347C565 154 698 -22 893 -22C976 -22 1015 -9 1086 34L1080 103C1008 52 963 42 894 42C743 42 654 194 654 347C654 510 752 652 891 652C970 652 1018 627 1060 600ZM1552 267L1421 213L1416 204L1452 153L1462 153L1568 241L1586 99L1596 95L1664 121L1664 131L1596 253L1734 233L1743 241L1743 303L1737 307L1598 283L1667 408L1664 423L1602 442L1593 438L1567 295L1472 393L1462 393L1418 341L1421 331ZM2381 128C2381 183 2344 217 2342 220C2303 255 2276 261 2226 270C2171 281 2125 291 2125 340C2125 402 2197 402 2210 402C2242 402 2295 398 2352 364L2364 429C2312 453 2271 461 2220 461C2195 461 2054 461 2054 330C2054 281 2083 249 2108 230C2139 208 2161 204 2216 193C2252 186 2310 174 2310 121C2310 52 2231 52 2216 52C2135 52 2079 89 2061 101L2049 33C2081 17 2136 -11 2217 -11C2355 -11 2381 75 2381 128ZM2817 219C2817 421 2710 461 2639 461C2528 461 2438 355 2438 226C2438 94 2534 -11 2654 -11C2717 -11 2774 13 2813 41L2807 106C2744 54 2678 50 2655 50C2575 50 2511 121 2508 219ZM2513 274C2529 350 2582 400 2639 400C2691 400 2747 366 2760 274ZM3281 298C3281 364 3266 455 3144 455C3054 455 3005 387 2999 379L2999 450L2927 450L2927 0L3005 0L3005 245C3005 311 3030 394 3106 394C3202 394 3203 323 3203 291L3203 0L3281 0Z" stroke="rgb(0,0,0)" stroke-opacity="1" stroke-width="8" fill="rgb(0,0,0)" fill-opacity="1"></path></g></g><g><g transform="matrix(1,0,0,1,102.765625,19)"><path transform="matrix(0.017,0,0,-0.017,0,0)" d="M146 266C146 526 243 632 301 700L282 726C225 675 60 542 60 266C60 159 85 58 133 -32C168 -99 200 -138 282 -215L301 -194C255 -137 146 -15 146 266Z" stroke="rgb(0,0,0)" stroke-opacity="1" stroke-width="8" fill="rgb(0,0,0)" fill-opacity="1"></path></g></g><g><g transform="matrix(1,0,0,1,108.421875,19)"><path transform="matrix(0.017,0,0,-0.017,0,0)" d="M237 -16C473 -16 572 316 576 504C578 618 546 702 419 702C159 702 72 412 69 199C67 80 101 -16 237 -16ZM401 676C536 676 506 491 485 381L169 381C194 485 272 676 401 676ZM253 13C102 13 147 261 163 349L479 349C454 237 396 13 253 13Z" stroke="rgb(0,0,0)" stroke-opacity="1" stroke-width="8" fill="rgb(0,0,0)" fill-opacity="1"></path></g></g><g><g transform="matrix(1,0,0,1,118.84375,19)"><path transform="matrix(0.017,0,0,-0.017,0,0)" d="M51 726L32 700C87 636 187 526 187 266C187 -10 83 -131 32 -194L51 -215C104 -165 273 -23 273 265C273 542 108 675 51 726Z" stroke="rgb(0,0,0)" stroke-opacity="1" stroke-width="8" fill="rgb(0,0,0)" fill-opacity="1"></path></g></g></g><g><g><g transform="matrix(1,0,0,1,2.125,41.390625)"><path transform="matrix(0.017,0,0,-0.017,0,0)" d="M577 681C514 705 460 716 394 716C202 716 67 543 67 347C67 154 200 -22 395 -22C478 -22 517 -9 588 34L582 103C510 52 465 42 396 42C245 42 156 194 156 347C156 510 254 652 393 652C472 652 520 627 562 600Z" stroke="rgb(0,0,0)" stroke-opacity="1" stroke-width="8" fill="rgb(0,0,0)" fill-opacity="1"></path></g></g><g><g><g><g><g transform="matrix(1,0,0,1,13.46875,44.4)"><path transform="matrix(0.0119,0,0,-0.0119,0,0)" d="M446 444L371 444L238 57L93 444L14 444L208 0C164 -113 151 -148 115 -148C99 -148 67 -144 37 -132L43 -197C65 -202 93 -205 115 -205C150 -205 187 -193 228 -91Z" stroke="rgb(0,0,0)" stroke-opacity="1" stroke-width="8" fill="rgb(0,0,0)" fill-opacity="1"></path></g></g></g></g></g><g><g transform="matrix(1,0,0,1,19.96875,41.390625)"><path transform="matrix(0.017,0,0,-0.017,0,0)" d="" stroke="rgb(0,0,0)" stroke-opacity="1" stroke-width="8" fill="rgb(0,0,0)" fill-opacity="1"></path></g></g><g><g transform="matrix(1,0,0,1,29.296875,41.390625)"><path transform="matrix(0.017,0,0,-0.017,0,0)" d="M604 347L604 406L65 406L65 347ZM604 134L604 193L65 193L65 134Z" stroke="rgb(0,0,0)" stroke-opacity="1" stroke-width="8" fill="rgb(0,0,0)" fill-opacity="1"></path></g></g><g><g transform="matrix(1,0,0,1,45.75,41.390625)"><path transform="matrix(0.017,0,0,-0.017,0,0)" d="M1075 681C1012 705 958 716 892 716C700 716 565 543 565 347C565 154 698 -22 893 -22C976 -22 1015 -9 1086 34L1080 103C1008 52 963 42 894 42C743 42 654 194 654 347C654 510 752 652 891 652C970 652 1018 627 1060 600ZM1552 267L1421 213L1416 204L1452 153L1462 153L1568 241L1586 99L1596 95L1664 121L1664 131L1596 253L1734 233L1743 241L1743 303L1737 307L1598 283L1667 408L1664 423L1602 442L1593 438L1567 295L1472 393L1462 393L1418 341L1421 331ZM2431 418C2372 452 2338 461 2277 461C2138 461 2057 340 2057 222C2057 98 2148 -11 2273 -11C2327 -11 2382 3 2436 40L2430 107C2379 67 2325 53 2274 53C2191 53 2135 125 2135 223C2135 301 2172 397 2278 397C2330 397 2364 389 2419 353ZM2933 220C2933 354 2833 461 2714 461C2591 461 2494 351 2494 220C2494 88 2596 -11 2713 -11C2833 -11 2933 90 2933 220ZM2713 53C2644 53 2572 109 2572 230C2572 351 2648 400 2713 400C2783 400 2855 348 2855 230C2855 112 2787 53 2713 53ZM3323 128C3323 183 3286 217 3284 220C3245 255 3218 261 3168 270C3113 281 3067 291 3067 340C3067 402 3139 402 3152 402C3184 402 3237 398 3294 364L3306 429C3254 453 3213 461 3162 461C3137 461 2996 461 2996 330C2996 281 3025 249 3050 230C3081 208 3103 204 3158 193C3194 186 3252 174 3252 121C3252 52 3173 52 3158 52C3077 52 3021 89 3003 101L2991 33C3023 17 3078 -11 3159 -11C3297 -11 3323 75 3323 128Z" stroke="rgb(0,0,0)" stroke-opacity="1" stroke-width="8" fill="rgb(0,0,0)" fill-opacity="1"></path></g></g><g><g transform="matrix(1,0,0,1,102.625,41.390625)"><path transform="matrix(0.017,0,0,-0.017,0,0)" d="M146 266C146 526 243 632 301 700L282 726C225 675 60 542 60 266C60 159 85 58 133 -32C168 -99 200 -138 282 -215L301 -194C255 -137 146 -15 146 266Z" stroke="rgb(0,0,0)" stroke-opacity="1" stroke-width="8" fill="rgb(0,0,0)" fill-opacity="1"></path></g></g><g><g transform="matrix(1,0,0,1,108.28125,41.390625)"><path transform="matrix(0.017,0,0,-0.017,0,0)" d="M237 -16C473 -16 572 316 576 504C578 618 546 702 419 702C159 702 72 412 69 199C67 80 101 -16 237 -16ZM401 676C536 676 506 491 485 381L169 381C194 485 272 676 401 676ZM253 13C102 13 147 261 163 349L479 349C454 237 396 13 253 13Z" stroke="rgb(0,0,0)" stroke-opacity="1" stroke-width="8" fill="rgb(0,0,0)" fill-opacity="1"></path></g></g><g><g transform="matrix(1,0,0,1,118.703125,41.390625)"><path transform="matrix(0.017,0,0,-0.017,0,0)" d="M51 726L32 700C87 636 187 526 187 266C187 -10 83 -131 32 -194L51 -215C104 -165 273 -23 273 265C273 542 108 675 51 726Z" stroke="rgb(0,0,0)" stroke-opacity="1" stroke-width="8" fill="rgb(0,0,0)" fill-opacity="1"></path></g></g></g></g></svg>