<svg xmlns="http://www.w3.org/2000/svg" xmlns:xlink="http://www.w3.org/1999/xlink" width="114.765625" height="47.171875" style="width:114.765625px;height:47.171875px;font-family:Asana-Math, Asana;background:#FFF;"><g><g><g><g transform="matrix(1,0,0,1,2,31.390625)"><path transform="matrix(0.017,0,0,-0.017,0,0)" d="M656 325C650 363 619 458 566 458C551 458 525 441 512 434L513 423C564 392 587 338 596 284C611 189 579 17 462 17C403 17 389 73 382 119C372 185 375 252 387 315L376 324C356 317 335 309 314 304C324 217 331 16 211 16C148 16 125 81 117 129C93 278 140 388 269 443L275 452L264 463C116 428 15 301 41 137C55 50 97 -12 194 -12C249 -12 286 11 321 47L326 47C355 3 386 -12 436 -12C596 -12 679 181 656 325Z" stroke="rgb(0,0,0)" stroke-opacity="1" stroke-width="8" fill="rgb(0,0,0)" fill-opacity="1"></path></g></g><g><g transform="matrix(1,0,0,1,23.484375,31.390625)"><path transform="matrix(0.017,0,0,-0.017,0,0)" d="M604 347L604 406L65 406L65 347ZM604 134L604 193L65 193L65 134Z" stroke="rgb(0,0,0)" stroke-opacity="1" stroke-width="8" fill="rgb(0,0,0)" fill-opacity="1"></path></g></g><g><g transform="matrix(1,0,0,1,39.9375,31.390625)"><path transform="matrix(0.017,0,0,-0.017,0,0)" d="M406 214C406 314 478 386 576 388L576 455C487 454 432 405 401 359L401 450L331 450L331 0L406 0ZM749 46C780 17 824 -11 884 -11C981 -11 1069 87 1069 223C1069 343 1006 455 910 455C850 455 792 434 746 395L746 444L671 444L671 -194L749 -194ZM749 333C773 368 812 391 855 391C931 391 991 315 991 223C991 120 920 50 845 50C806 50 779 70 759 97C749 112 749 114 749 132ZM1817 298C1817 365 1801 455 1680 455C1620 455 1568 427 1531 373C1505 449 1435 455 1403 455C1331 455 1284 414 1257 378L1257 450L1185 450L1185 0L1263 0L1263 245C1263 313 1290 394 1364 394C1457 394 1462 329 1462 291L1462 0L1540 0L1540 245C1540 313 1567 394 1641 394C1734 394 1739 329 1739 291L1739 0L1817 0ZM2314 267L2183 213L2178 204L2214 153L2224 153L2330 241L2348 99L2358 95L2426 121L2426 131L2358 253L2496 233L2505 241L2505 303L2499 307L2360 283L2429 408L2426 423L2364 442L2355 438L2329 295L2234 393L2224 393L2180 341L2183 331Z" stroke="rgb(0,0,0)" stroke-opacity="1" stroke-width="8" fill="rgb(0,0,0)" fill-opacity="1"></path></g></g><g><g><g><g><g transform="matrix(1,0,0,1,93.171875,19)"><path transform="matrix(0.017,0,0,-0.017,0,0)" d="M83 466C103 545 131 624 222 624C316 624 367 548 367 468C367 382 310 324 251 263L174 191L50 65L50 0L449 0L449 72L267 72C255 72 243 71 231 71L122 71C154 100 230 176 261 205C333 274 449 347 449 471C449 587 368 689 236 689C122 689 66 610 42 522C66 487 59 501 83 466ZM1024 42C968 42 963 125 964 166C965 251 993 333 1036 405L1098 418C1101 435 1107 452 1112 467C958 461 799 463 644 466C579 467 565 389 546 340C545 332 558 331 562 328L562 332C605 395 629 405 704 405L727 405C687 266 660 129 597 -2L597 -12C617 -6 652 1 669 13C710 141 739 274 767 405L994 405C937 318 896 213 894 108C894 59 909 -15 970 -15C1011 -15 1067 25 1097 51L1097 66L1085 66L1085 67C1067 56 1047 42 1024 42Z" stroke="rgb(0,0,0)" stroke-opacity="1" stroke-width="8" fill="rgb(0,0,0)" fill-opacity="1"></path></g></g></g></g><g><g><g><g transform="matrix(1,0,0,1,94.484375,44.78125)"><path transform="matrix(0.017,0,0,-0.017,0,0)" d="M415 669C364 689 323 689 309 689C168 689 42 546 42 327C42 40 166 -22 251 -22C311 -22 354 1 393 47C438 99 457 145 457 226C457 356 391 469 295 469C263 469 187 461 126 385C139 549 218 630 310 630C348 630 380 623 415 609ZM127 223C127 237 127 239 128 251C128 326 173 407 256 407C304 407 332 382 352 344C373 307 375 271 375 226C375 191 375 144 351 103C334 74 308 40 251 40C145 40 130 189 127 223ZM956 331C956 412 952 506 910 588C869 665 800 689 749 689C690 689 620 662 579 571C546 497 541 413 541 331C541 251 545 177 575 103C615 5 691 -22 748 -22C821 -22 884 19 916 89C946 155 956 223 956 331ZM749 40C697 40 656 78 636 151C620 209 619 264 619 343C619 407 619 468 636 524C642 544 667 627 748 627C826 627 852 550 859 531C878 475 878 406 878 343C878 276 878 212 860 148C834 56 781 40 749 40Z" stroke="rgb(0,0,0)" stroke-opacity="1" stroke-width="8" fill="rgb(0,0,0)" fill-opacity="1"></path></g></g></g></g><line style="fill:none;stroke-width:1px;stroke:rgb(0, 0, 0);" x1="93.171875" y1="27.140625" x2="112.765625" y2="27.140625"></line></g></g></g></svg>